<svg version="1.1" xmlns="http://www.w3.org/2000/svg" xmlns:xlink="http://www.w3.org/1999/xlink" x="0px" y="0px" width="64px" height="64px" viewBox="0 0 64 64">
<g id="vimeo">
	<circle fill="black" cx="32" cy="32" r="32"/>
	<path fill="#FFFFFF" d="M52.9,22.2c-0.2,4.1-3,9.6-8.5,16.7C38.6,46.3,33.8,50,29.9,50c-2.4,0-4.5-2.3-6.2-6.8 c-1.1-4.1-2.3-8.3-3.4-12.4c-1.3-4.5-2.6-6.8-4-6.8c-0.3,0-1.4,0.7-3.3,2l-2-2.5c2.1-1.8,4.1-3.6,6.1-5.4c2.8-2.4,4.8-3.6,6.2-3.8 c3.3-0.3,5.3,1.9,6,6.7c0.8,5.1,1.4,8.3,1.7,9.6c0.9,4.3,2,6.4,3.1,6.4c0.9,0,2.2-1.4,3.9-4.1c1.8-2.8,2.7-4.9,2.8-6.3 c0.2-2.4-0.7-3.6-2.8-3.6c-1,0-2,0.2-3.1,0.7c2.1-6.7,6-10,11.8-9.8C51.1,13.9,53.1,16.7,52.9,22.2z"/>
</g>
</svg>
