<svg xmlns="http://www.w3.org/2000/svg" xmlns:xlink="http://www.w3.org/1999/xlink" width="140.3" height="155.8" viewBox="0 0 140.3 155.8">
	<path fill="#FED233" d="M126,61.2c6.3,15.7,5.5,34.3-3.6,50.1c-12.1,21-35.5,31.5-58.1,28.2L91,93.2c5.9-10.2,2.4-23.3-7.8-29.1 c-3.3-2-7-3-10.6-3H126V61.2z"/>
	<path fill="#E74A45" d="M126,61.2H72.5c-7.3,0-14.5,3.9-18.4,10.8c-3.8,6.6-3.7,14.6-0.2,20.9l-26.6-46 c17.4-22.1,48.9-28.7,73.9-14.2C112.9,39.4,121.4,49.6,126,61.2z"/>
	<path fill="#59B251" d="M90.9,93.3l-26.7,46.3c-7-1-13.9-3.4-20.4-7.1c-27.5-15.9-37-51.1-21.1-78.6c1.4-2.5,3-4.7,4.7-6.9 l26.5,45.9l0.2,0.4c1.8,3.1,4.4,5.9,7.8,7.8C72,106.9,85.1,103.4,90.9,93.3z"/>
	<path fill="#4893C6" d="M85.1,60.5c12.2,7,16.4,22.7,9.4,34.9c-7.1,12.2-22.7,16.4-34.9,9.3c-4-2.3-7.2-5.6-9.4-9.3L49.9,95 	c-4.2-7.6-4.4-17.1,0.3-25.1c4.7-8.2,13.3-12.8,22.2-12.8C76.6,57.1,81.1,58.2,85.1,60.5z"/>
	<path fill="#FFF" d="M72.3,110.1c-4.8,0-9.5-1.3-13.7-3.7c-4.2-2.4-7.7-5.9-10.1-10.1l-0.3-0.4c-4.6-8.5-4.5-18.8,0.3-27 	c4.9-8.5,14-13.8,23.8-13.8c4.9,0,9.6,1.3,13.7,3.7c6.4,3.7,10.9,9.6,12.8,16.7s0.9,14.5-2.7,20.9 	C91.2,104.9,82.1,110.1,72.3,110.1z M72.3,59c-8.4,0-16.3,4.5-20.5,11.9c-4.1,7.1-4.2,16-0.2,23.2l0.2,0.4 c2.1,3.6,5.1,6.6,8.7,8.6c3.6,2.1,7.7,3.2,11.8,3.2c8.4,0,16.3-4.5,20.5-11.8c3.2-5.5,4-11.8,2.4-17.9s-5.5-11.2-11-14.3 	C80.5,60.1,76.5,59,72.3,59z"/>
</svg>