<svg xmlns="http://www.w3.org/2000/svg" xmlns:xlink="http://www.w3.org/1999/xlink" width="140.3" height="155.8" viewBox="0 0 140.3 155.8">
	<circle fill="#539CD6" cx="69.7" cy="79.6" r="57.6"/>
	<path fill="#ff" d="M95.2,83.7H56.9c0.4,8.4,4.8,12.6,13,12.6c2.8,0,5.3-0.7,7.6-2.1c2.1-1.2,3.4-2.7,3.9-4.3h12.8c-3.9,11.2-12.2,16.7-24.8,16.7c-8.3,0-14.9-2.4-19.8-7.3c-4.9-4.8-7.3-11.1-7.3-18.9c0-7.6,2.5-13.8,7.5-18.8s11.5-7.5,19.5-7.5c8.6,0,15.3,3,20,9C93.8,68.7,95.8,75.5,95.2,83.7z M57.7,74.7h22.2c-1.3-6.6-4.9-9.9-10.9-9.9c-3.8,0-6.8,1.2-8.8,3.6C58.7,70.2,57.8,72.3,57.7,74.7z"/>
	<path fill="#FDC321" d="M47.6,96.9c-3.8,0.7-6.7,0.3-8.2-1.5c-4.1-4.9,4.1-18.3,18.1-29.9c14.1-11.6,28.8-17,32.8-12 c1.7,2.1,1.3,5.6-0.8,9.8c0.1,0.1,0.2,0.3,0.3,0.4c3.4-5.7,4.4-10.4,2.3-13c-4.4-5.3-20.4,0.6-35.7,13.3S32.1,91.2,36.5,96.5 c1.9,2.3,6.1,2.5,11.4,0.9C47.8,97.2,47.7,97,47.6,96.9z"/>
</svg>