<?xml version="1.0" encoding="utf-8"?>
<!-- Generator: Adobe Illustrator 16.0.0, SVG Export Plug-In . SVG Version: 6.00 Build 0)  -->
<!DOCTYPE svg PUBLIC "-//W3C//DTD SVG 1.1//EN" "http://www.w3.org/Graphics/SVG/1.1/DTD/svg11.dtd">
<svg version="1.1" id="Capa_1" xmlns="http://www.w3.org/2000/svg" xmlns:xlink="http://www.w3.org/1999/xlink" x="0px" y="0px"
	 width="499px" height="496px" viewBox="0 0 499 496" enable-background="new 0 0 499 496" xml:space="preserve">
<g>
	<defs>
		<rect id="SVGID_1_" x="-1" y="-4" width="500" height="500"/>
	</defs>
	<clipPath id="SVGID_2_">
		<use xlink:href="#SVGID_1_"  overflow="visible"/>
	</clipPath>
	<g clip-path="url(#SVGID_2_)">
		<path fill="#DADBDB" d="M500,411c0,27.667-0.038,55.334,0.065,83c0.009,2.5-0.566,3.499-3.065,3
			c-25.821-3.689-50.813-11.204-76.279-16.525c-21.939-4.584-43.623-10.273-65.574-14.802c-6.782-1.398-13.707-2.516-20.105-5.428
			c-2.26-5.464-6.172-1.783-9.44-1.675c-5.966-1.26-12.35-1.354-17.063-6.105c-0.072-2.358,1.83-2.511,3.389-2.89
			c4.637-1.128,8.641-3.399,12.288-6.42c2.692-2.23,5.392-4.461,9.259-4.261c0.957,0.05,2.186-0.251,2.74-1.045
			c3.463-4.96,10.002-5.013,13.973-8.513c5.246-4.624,12.105-4.644,17.719-8.08c2.9-1.774,6.481-3.729,9.506-4.546
			c4.473-1.211,6.607-4.865,10.317-6.461c4.261-1.833,8.76-3.239,11.831-7.071c0.532-0.663,1.319-1.027,2.178-1.105
			c5.843-0.532,10.566-3.816,15.594-6.336c2.685-1.745,0.009-6.338,3.933-7.427c0.525-0.146-0.018-0.089-0.081-0.262
			c-3.566-9.811-0.654-19.411,1.07-29.041c0.836-4.666,0.215-9.188-1.521-13.467c-0.706-1.739-1.218-3.104,0.113-4.516
			c2.147-2.28,2.194-5.109,2.303-7.947c1.727-6.063,1.321-11.836-2.337-17.172c0.456-0.563,1.066-0.889,1.727-1.133
			c1.584-0.413,2.027-1.681,2.039-3.056c0.044-5.3,1.977-10.413,1.344-15.807c-0.328-2.794-0.176-5.927,2.09-7.902
			c1.353-1.179,0.19-1.53-0.017-2.203c-0.488-1.591-1.154-3.151-0.127-4.77c0.264-0.414,0.765-1.058,0.411-1.305
			c-5.125-3.583-1.038-6.918-0.239-10.735c1.546-7.385,1.818-15.029,2.184-22.616c0.145-3.017-0.424-6.974,4.18-7.873
			c3.253,1.784,2.63,5.755,4.661,8.229c11.129,27.235,20.719,55.06,31.553,82.413c3.284,8.293,5.556,17.14,8.861,25.362
			c3.399,8.456,6.826,16.932,9.805,25.537C492.853,390.365,497.922,400.17,500,411z"/>
		<path fill-rule="evenodd" clip-rule="evenodd" fill="#DBDDDD" d="M500-1c0,68.667,0,137.333,0,206
			c-4.15,4.384-10.057,5.663-15.202,8.081c-14.456,6.791-29.159,13.064-43.556,20.005c-2.524,1.217-5.022,2.747-8.061,2.085
			c-0.731-0.185-1.388-0.522-1.98-0.982c-3.372-2.832-5.35-6.765-7.956-10.203c-1.479-1.951-2.304-4.481-5.122-5.108
			c-0.649-0.144-1.32-0.765-1.271-1.401c0.447-5.844-4.612-7.82-7.619-11.34c-4.301-5.033-6.932-11.291-11.414-16.277
			c-5.096-5.667-8.799-12.453-14.066-17.986c-1.432-1.504-1.342-2.881-0.666-4.524c1.146-1.979,3.059-2.973,5.016-3.907
			c23.189-11.064,45.995-22.891,68.857-34.604c4.542-2.327,9.751-3.453,13.507-7.251c1.224-1.86,1.597-4.005,2.035-6.11
			c7.456-35.82,15.65-71.481,23.214-107.279C496.399,4.954,495.566,0.64,500-1z"/>
		<path fill-rule="evenodd" clip-rule="evenodd" fill="#DADBDB" d="M0,205c0-0.333,0-0.667,0-1
			c2.15-10.56,8.945-19.168,12.338-29.161c4.327-12.744,10.389-24.748,15.884-36.937c4.005-8.883,7.2-18.233,12.379-26.603
			c2.999-4.845,4.225-10.48,6.292-15.692c1.723-4.346,3.984-8.404,6.091-12.42c3.94-7.512,6.249-15.801,11.08-22.854
			c2.458-2.51,5.597-4.025,8.55-5.812c2.466-1.492,3.919-0.97,4.669,1.98c1.306,5.136,2.052,10.536,4.779,15.143
			c4.016,6.782,7.038,13.743,7.804,21.735c0.258,2.688,3.346,4.405,5.13,6.573c0.839,1.02,2.626,2.277,2.008,3.201
			c-2.454,3.667,0.557,6.623,0.733,9.894c0.104,1.929,0.491,3.124,2.577,3.481c1.08,0.186,1.537,1.236,1.696,2.257
			c1.128,7.219,5.188,13.233,8.177,19.672c0.991,2.135,1.068,3.814,0.49,6.103c-0.855,3.382-1.709,7.223,2.839,9.239
			c1.429,0.634,2.406,1.952,2.026,3.648c-0.547,2.443-2.788,2.692-5.027,2.946c1.654,1.811,2.988,1.091,4.372,0.395
			c1.463-0.736,3.051-1.869,4.583-0.404c1.604,1.535,1.676,3.538,0.936,5.567c-0.458,1.256-1.028,2.457-1.93,3.475
			c-1.14,0.997-2.381,1.633-3.939,1.065c-0.363-0.32-0.716-0.662-1.169-0.87c0.484,0.281,0.769,0.677,0.718,1.27
			c-6.872,3.712-14.286,6.148-21.736,8.102c-15.917,4.172-31.251,10.117-47.013,14.735c-13.22,3.873-26.295,8.224-39.412,12.438
			c-1.124,0.36-2.291,0.363-3.439,0.547C1.237,206.75,0.572,205.942,0,205z"/>
		<path fill-rule="evenodd" clip-rule="evenodd" fill="#D6D7D8" d="M329-3c56.334,0,112.667,0,169,0
			c1.305,2.488-0.565,3.615-2.144,4.736c-10.793,7.665-21.167,15.894-31.858,23.694c-12.698,9.265-25.333,18.611-37.896,28.062
			c-6.064,4.562-12.408,8.777-18.261,13.649c-1.406,1.171-2.934,2.186-4.766,2.619c-2.117,0.141-4.272,0.697-6.283-0.507
			c-1.955-5.91-7.137-6.833-12.197-7.45c-2.195-0.269-3.926-0.198-4.373-2.816c-0.178-1.042-0.926-1.821-1.882-2.189
			c-6.36-2.448-11.895-6.745-18.56-8.445c-2.366-0.603-4.165-2.017-6.174-3.144c-7.346-4.121-14.926-7.892-22.184-12.047
			c-7.504-4.295-15.096-8.454-23.043-11.498c-5.979-2.291-11.207-5.182-15.998-9.195c-1.268-1.062-2.696-2.021-2.768-3.936
			c0.53-1.835,2.046-2.69,3.656-2.974c6.146-1.079,11.592-5.193,18.447-3.743c1.458,0.309,3.781-2.451,6.214-2.866
			C321.625-1.679,325.314-2.325,329-3z"/>
		<path fill-rule="evenodd" clip-rule="evenodd" fill="#DCDDDD" d="M187-3c0.333,0,0.667,0,1,0c1.558,0.818,2.452,2.129,3.003,3.782
			c4.459,13.376,7.431,27.141,10.728,40.821c5.651,19.728,10.333,39.712,15.729,59.51c4.888,19.64,10.132,39.187,14.997,58.83
			c0.478,1.931,1.17,3.817,1.095,5.852c-0.206,1.956-0.589,3.818-2.659,4.72c-2.484,0.657-4.1-0.986-5.702-2.353
			c-17.657-15.062-36.441-28.737-54.028-43.887c-4.775-4.113-10.025-7.63-14.813-11.734c-2.516-2.155-5.231-4.087-7.186-6.828
			c-2.026-2.451-4.507-4.257-7.397-5.608c-1.779-0.831-3.198-1.204-4.998,0.177c-2.458,1.887-3.956,0.674-3.386-2.078
			c0.786-3.796-0.853-5.365-4.125-6.641c-5.245-2.044-4.825-5.393-4.357-13.365c0.066-1.126,0.654-2.222,1.139-3.284
			c0.998-1.913,2.405-3.496,3.998-4.926c3.906-3.456,6.776-7.626,8.98-12.357c1.725-3.704,4.671-6.38,8.254-8.367
			c1.275-0.707,3.062-1.097,3.417-2.69c2.42-10.891,11.754-16.963,17.622-25.44c0.836-1.207,2.203-2.079,2.721-3.512
			C174.139,9.022,182.11,4.206,187-3z"/>
		<path fill-rule="evenodd" clip-rule="evenodd" fill="#DBDDDD" d="M65,61c-2.608,5.929-5.131,11.896-7.85,17.774
			c-2.77,5.988-5.916,11.757-8.482,17.896c-3.31,7.919-6.405,16.071-10.73,23.614c-3.043,5.305-5.036,11.137-7.928,16.591
			c-3.986,7.516-6.917,15.887-9.849,24.065c-0.28,0.78-0.338,1.846-0.892,2.286c-2.893,2.301-2.959,5.746-4.235,8.769
			c-3.153,7.467-5.159,15.581-10.268,22.109C2.413,197.112,3.735,201.756,0,204C0,136,0,68,0,0c3.381-2.936,5.335-2.981,8.244,0.002
			c1.995,2.046,4.219,3.788,6.773,4.992c2.483,1.172,4.635,2.541,5.73,5.194c0.315,0.761,0.753,1.614,1.584,1.836
			c5.317,1.422,8.962,5.559,13.511,8.136c4.096,2.319,7.713,5.175,11.266,8.055c6.698,5.431,14.839,8.73,21.071,14.835
			c2.063,2.021,3.945,3.286,1.639,6.442c-1.083,1.482-0.628,3.875-1.408,5.732C68.275,57.74,64.874,58.325,65,61z"/>
		<path fill-rule="evenodd" clip-rule="evenodd" fill="#D9DBDB" d="M123,497c-40.333,0-80.667,0-121,0
			c-1.541-5.052,2.701-8.024,4.794-11.328c6.661-10.516,14.973-19.942,21.444-30.602c2.379-3.918,6.935-6.807,6.49-12.306
			c-0.076-0.934,0.834-1.724,1.817-2.191c4.676-2.224,7.375-7.117,12.24-9.077c0.413-0.166,0.534-0.059,0.533-0.195
			c-0.039-10.346,8.448-15.558,13.805-22.607c2.038-2.683,2.877-5.974,5.085-8.49c0.71-0.792,1.593-1.211,2.655-1.251
			c1.065,0.053,1.952,0.429,2.507,1.394c2.795,6.695,6.572,12.804,11.245,18.343c0.904,1.072,2.476,0.827,3.75,1.123
			c2.512,0.584,4.003,2.22,4.956,4.487c0.685,1.629,0.988,3.291-0.551,4.564c-1.903,1.574-3.32,0.505-4.208-0.522
			c3.72,5.627,7.351,12.051,9.568,19.17c0.858,2.756,3.225,3.61,5.485,4.65c0.388,0.284,0.685,0.645,0.888,1.081
			c-0.072,7.598,3.389,13.73,8.122,19.291c0.687,0.808,0.982,1.668,1.347,2.588c2.076,5.231,4.145,10.4,8.495,14.388
			C124.641,491.503,123.102,494.462,123,497z"/>
		<path fill-rule="evenodd" clip-rule="evenodd" fill="#DADBDB" d="M67,55c0.135-1.964,1.276-3.703,0.366-5.941
			c-1.01-2.484,2.712-0.346,2.762-2.63c-3.418-2.228-6.219-6.332-9.806-7.857c-5.491-2.334-9.527-6.264-14.232-9.421
			c-5.142-3.452-10.127-7.138-15.171-10.734c-2.88-2.054-5.465-4.728-9.451-4.402c-0.302,0.024-0.868,0.083-0.87,0.066
			C19.541,6.247,10.749,6.568,7.35,1.525C4.957-2.025,2.817-1.305,0,0c-0.923-3.438,1.319-3.025,3.5-3.023C44-2.991,84.5-3,125-3
			c2.524,1.465,5.733,2.119,6.586,5.562c0.487,1.967,0.135,3.747-1.709,4.759c-1.799,0.986-3.101,0.196-3.661-1.99
			c-1.464,3.206-1.14,6.016,0.064,8.905c1.121,2.688,3.763,5.802-1.268,7.519c0.583,3.449-1.204,6.753-0.633,10.194
			c0.217,1.312,0.657,2.623,0.308,3.945c-1.012,3.828-0.071,6.221,4.347,6.312c1.021,0.021,2.117,0.352,2.118,1.618
			c0.001,2.016-1.025,3.882-2.921,4.159c-3.282,0.48-3.518,1.772-1.954,4.245c0.474,0.75,0.361,1.688-0.08,2.394
			c-3.056,4.896-1.76,10.213-1.558,15.425c-1.037,2.886-1.06,5.82-0.677,8.844c0.257,2.027-0.035,4.236-2.153,5.168
			c-1.976,0.869-3.354-0.78-4.792-1.914c-8.209-6.475-16.304-13.081-26.052-17.302c-3.032-1.313-5.141-4.262-8.931-4.623
			c-1.967-0.188-2.349-2.952-3.188-4.763c-1.829-3.944-3.166-4.099-5.88-0.947C71.16,56.604,69.247,57.997,67,55z"/>
		<path fill-rule="evenodd" clip-rule="evenodd" fill="#D4D6D6" d="M403,69c10.776-9.877,23.428-17.311,34.75-26.526
			c4.803-3.909,10.666-7.158,15.498-11.097c6.229-5.077,13.352-8.92,19.154-14.569c2.702-2.632,7.003-3.739,9.396-6.546
			C486.458,4.799,494.011,3.098,498-3c1.732-0.398,2.398,0.268,2,2c-3.688,11.521-5.271,23.52-7.903,35.278
			c-6.331,28.28-12.251,56.652-18.407,84.973c-0.325,1.495-0.479,3.452-2.689,3.748c-3.336-0.44-5.689-2.717-8.072-4.684
			c-18.33-15.129-37.214-29.551-55.956-44.154C405.27,72.835,402.681,71.972,403,69z"/>
		<path fill-rule="evenodd" clip-rule="evenodd" fill="#D4D6D6" d="M0,205c0.667,0.333,1.333,0.666,2,0.999
			c4.845,2.723,8.723,6.645,12.243,10.777c9.055,10.634,18.867,20.601,27.919,31.187c8.639,10.102,18.958,18.694,26.466,29.772
			c0.698,3.404-1.765,5.221-3.812,7.051c-13.104,11.712-26.462,23.134-39.862,34.506c-3.285,2.788-6.704,5.419-9.852,8.364
			c-0.448,0.536-0.951,1.016-1.49,1.456c-1.638,1.321-2.479,2.94-2.581,5.133c-0.181,3.947-2.392,5.819-6.29,4.82
			C3.075,338.638,1.532,340.42,0,339C0,294.333,0,249.667,0,205z"/>
		<path fill-rule="evenodd" clip-rule="evenodd" fill="#D7D9D9" d="M433,234.001c6.715-0.486,11.83-4.854,17.663-7.433
			c14.01-6.193,28.125-12.172,41.795-19.124c2.327-1.184,5.019-1.647,7.542-2.444c0,44.667,0,89.333,0,134
			c-1.908,0.596-2.772-0.764-3.476-2.049c-6.52-11.905-14.365-23.007-21.583-34.464c-3.609-5.729-6.67-12.175-11.884-16.925
			c-1.804-1.643-1.788-4.225-2.936-6.261c-6.29-11.159-14.658-20.925-21.241-31.882c-0.157-0.262-0.55-0.343-0.881-0.419
			c-3.176-1.746-1.999-5.668-4-8.001C432.326,237.602,431.579,236.019,433,234.001z"/>
		<path fill-rule="evenodd" clip-rule="evenodd" fill="#D4D6D6" d="M329,497c-26,0-52,0-78,0c-0.902-3.772,0.885-7.171,1.791-10.594
			c1.566-5.914,3.326-11.78,4.686-17.751c0.268-0.928,0.824-1.741,1.07-2.68c0.078-0.46,0.203-0.909,0.352-1.35
			c0.53-1.059,0.492-2.242,0.715-3.371c2.768-10.432,4.51-21.125,8.064-31.354c0.531-1.111,0.918-2.258,0.887-3.516
			c2.481-10.932,5.487-21.722,8.67-32.471c0.639-0.923,1.496-1.474,2.634-1.544c2.574,0.387,3.333,2.535,4.22,4.48
			c7.386,16.203,15.178,32.215,22.854,48.281c0.996,2.087,2.305,4.111,1.588,6.614c8.376,11.439,12.746,24.952,19.247,37.364
			C329.02,491.485,330.969,494.012,329,497z"/>
		<path fill-rule="evenodd" clip-rule="evenodd" fill="#D6D7D8" d="M329,497c-2.799-8.537-7.029-16.431-10.965-24.457
			C314.68,465.7,311.344,458.848,308,452c0.334-0.478,0.666-0.502,0.999,0.001c5.325,2.829,11.106,4.104,17.001,4.999
			c2.807,1.538,6.623-1.468,9,2c7.967,1.926,15.898,4.019,23.909,5.741c13.657,2.937,27.231,6.193,40.81,9.472
			c17.781,4.293,35.821,7.517,53.582,11.885c14.575,3.585,29.404,6.191,43.699,10.902C441,497,385,497,329,497z"/>
		<path fill-rule="evenodd" clip-rule="evenodd" fill="#D7D9D9" d="M0,339c1.863-0.226,2.848-3.186,5.718-1.022
			c1.681,1.268,4.79-1.208,3.954-3.191c-1.744-4.136,1.326-5.001,3.326-6.787c2.075,0.555,3.692,1.719,4.79,3.586
			c1.127,3.799,4.403,6.125,6.609,9.136c5.305,7.237,11.213,14.037,17.198,20.773c4.31,4.851,9.034,9.465,12.19,15.497
			c1.654,3.161,5.855,5.031,8.225,8.276c2.341,3.207,4.856,6.298,7.322,9.418c1.201,1.519,2.738,3.036,1.668,5.313
			c-0.667,0.333-1.333,0.667-2,1.001c-7.129,3.433-14.941,3.36-22.535,4.399c-0.482,0.047-0.967,0.079-1.45,0.111
			c-9.112,2.217-18.417,3.388-27.651,4.915c-4.057,0.671-8.16,1.1-12.196,1.963C3.434,412.76,1.619,413.476,0,412
			C0,387.667,0,363.333,0,339z"/>
		<path fill-rule="evenodd" clip-rule="evenodd" fill="#DADCDC" d="M123,497c0.208-1.828-4.118-2.863-0.888-5.267
			c0.7-0.521,0.356-0.999-0.474-1.383c-6.282-2.91-6.285-10.025-9.715-14.876c-1.171-1.657-0.51-2.124-3.267-0.913
			c0.535-4.806-2.093-8.438-4.116-12.252c-1.638-3.087-2.498-6.079-0.541-9.31c1.133-0.889,2.171-1.874,3.023-3.045
			c0.191-0.235,0.367-0.479,0.531-0.729c-0.199,0.158-0.285,0.399-0.451,0.611c-0.923,1.187-1.981,2.206-3.104,3.163
			c-5.95-0.246-5.879-1.619-8.127-7.889c-1.319-3.679-2.558-8.486-5.504-11.014c-2.577-2.21-1.661-5.955-4.791-7.432
			c-0.743-0.351-0.57-1.908,0.655-2.366c1.015-0.38,1.975-0.165,2.495,0.948c0.679,1.452,0.595,4.581,3.199,2.808
			c2.633-1.794-0.733-3.646-1.108-5.538c-0.222-1.119-1.703-1.37-2.977-1.185c-5.442,0.796-6.354-3.67-8.546-7.012
			c-2.243-3.422-3.375-7.582-6.696-10.3c-1.443-1.181-1.213-2.21,0.4-3.021c0.336-0.354,0.749-0.478,1.227-0.41
			c1.594,0.582,2.614,1.763,3.367,3.222c0.363,1.767,1.147,3.091,3.235,3.051c2.526,0.565,4.512,2.066,6.396,3.716
			c17.103,14.961,35.045,28.907,52.499,43.438c15.153,12.615,30.438,25.091,45.224,38.147c1.113,0.983,2.321,1.924,2.598,3.535
			c-0.025,0.499-0.208,0.933-0.545,1.301C165.667,497,144.333,497,123,497z"/>
		<path fill-rule="evenodd" clip-rule="evenodd" fill="#D8D9DA" d="M187,497c0-0.333,0-0.667,0-1
			c2.461-3.484,5.934-6.088,8.271-9.732c0.836-1.305,2.154-3.108,4.412-2.648c1.628,1.107,3.138,2.289,2.754,4.516
			c-0.024-0.084,0.089-0.1,0.081-0.171c0.456-2.283-1.149-3.163-2.621-4.131c-0.295-0.637-0.414-1.387-0.033-1.915
			c3.135-4.34,7.315-7.691,10.394-11.853c-0.883-0.457-3.536-0.205-3.221-2.711c0.245-1.945,2.422-2.031,4.03-2.21
			c2.426-0.271,3.826-1.469,5.539-3.352c6.219-6.836,11.234-14.864,19.236-20.021c1.558-1.004,2.694-2.083,4.033,0.04
			c1.603,1.35,3.073-0.423,5.325,0.003c-2.285-1.203-3.575,1.074-5.15,0.205c-0.428-0.483-0.689-1.162-1.264-1.46
			c-3.566-1.849-2.458-3.515,0.138-5.194c0.954-0.617,1.866-1.295,2.936-1.541c-0.065,0.014,0.29-0.087,0.29-0.087
			s-0.25-0.142-0.299-0.149c-0.548-0.208-1.114-0.905-0.909-1.049c2.638-1.839,3.908-4.324,3.864-7.514
			c4.403-0.262,4.779-6.22,9.287-6.488c2.465-0.146,2.092-3.219,3.749-4.3c1.71-1.116,3.733-4.137,4.687,0.618
			c0.071,0.357-0.314,0.74,0.038,1.095c-0.044-0.306,0.126-0.674,0.037-0.956c-1.653-5.284,1.321-8.892,8.216-9.926
			c0.666,0.03-0.295-1.013-0.039-0.396c0.106,0.255-0.025,0.314-0.402,0.292c-3.994-0.241-5.256-3.626-6.68-6.366
			c-0.881-1.697,1.329-3.099,2.611-2.426c4.083,2.144,6.875,0.1,9.801-2.184c0.521-0.406,1.26-0.345,1.889,0.012
			c0.498,4.431-1.318,8.532-2.572,12.496c-2.143,6.77-3.379,13.738-5.43,20.504c-1.162,0.724-0.449,2.072-1,3
			c-2.667,10.666-5.334,21.333-8.001,31.999c-4.669-0.443,0.877,2.515-0.999,3.001c0,0.333,0,0.666-0.001,0.999
			c-0.87,0.399-0.486,1.424-0.998,2.002C257.36,477.95,254.838,487.657,251,497C229.667,497,208.333,497,187,497z"/>
		<path fill-rule="evenodd" clip-rule="evenodd" fill="#DADCDC" d="M46,404c7.73-0.509,15.182-3.157,23-3
			c-2.207,3.762-2.104,9.056-7.787,10.54c-1.65,0.431-0.994,3.603-2.865,5.188c-1.391,1.178-0.821,4.385-4.08,4.334
			c-0.583-0.009-0.809,1.274,0.002,2.048c0.377,0.359,1.871,0.88,0.143,1.498c-4.1,1.467-4.848,2.898-3.36,6.707
			c0.285,0.729,0.22,1.57-0.389,1.644c-5.693,0.687-7.392,7.464-11.558,8.603c-4.802,1.312-3.31,2.866-2.516,5.488
			c0.15,0.496-0.227,1.493-0.67,1.777c-7.247,4.648-9.685,13.11-14.829,19.433c-2.369,2.912-6.558,6.171-6.491,11.09
			c0.017,1.241-0.615,0.795-1.265,0.523c-2.822-1.179-3.219,0.238-2.728,2.584c0.191,0.914-0.243,1.612-0.839,2.228
			C6.318,488.246,4.635,492.923,2,497c-3.085,0.612-1.963-1.73-1.966-3C-0.014,473.5,0,453,0,432.5c0-6.833,0-13.667,0-20.5
			c11.758-3.546,24.171-3.481,36.073-6.493c2.726-0.689,5.942-0.984,8.926-1.507c1.448,1.419-0.263,2.878-0.146,4.558
			C47.685,407.381,44.886,405.262,46,404z"/>
		<path fill-rule="evenodd" clip-rule="evenodd" fill="#DADCDC" d="M124,70c-1.578-1.489-1.885-3.091-1.473-5.351
			c0.69-3.784-1.117-8.105,2.868-11.126c0.584-0.442-0.295-0.914-0.991-1.166c-3.796-1.372,0.376-3.845-0.612-5.86
			c-0.271-0.553,1.704-0.768,3.125,0.045c2.808,1.606,1.738-2.261,3.415-2.554c-6.512-0.058-7.275-2.169-7.484-8.167
			c-0.153-4.405,1.026-8.708,0.312-13.067c-0.627-3.835-0.218-4.121,3.729-2.585c-0.415-3.663-3.184-6.236-3.645-9.696
			c-0.498-3.74,2.612-5.822,3.082-8.926c1.926,0.104,1.541,1.43,1.944,2.227c0.513,1.013-1.853,1.975-0.057,2.922
			c0.302,0.159,1.028-0.086,1.321-0.381c0.995-0.999,1.337-2.126,0.815-3.605C129.387-0.021,125.998-0.374,125-3
			c20.667,0,41.333,0,62,0c-0.53,5.387-4.707,9.197-7.937,12.188c-1.956,1.812-3.504,4.001-4.688,5.933
			c-5.097,8.321-12.102,15.035-17.966,22.678c-2.039,2.657-5.22,5.383-3.493,9.58c0.558,1.358-0.318,0.958-1.07,1.273
			c-6.005,2.518-10.809,6.379-13.053,12.742c-1.467,4.16-4.75,6.769-7.794,9.606c-1.743,1.354-2.007-2.525-3.788-1.052
			C126.141,70.442,125.071,70.304,124,70z"/>
		<path fill-rule="evenodd" clip-rule="evenodd" fill="#D6D7D8" d="M438,247.001c2.104-1.89,2.839-0.151,3.623,1.383
			c2.941,5.758,7.253,10.579,10.816,15.905c4.027,6.021,7.133,12.811,11.146,18.594c3.27,4.712,5.402,10.296,9.466,14.387
			c2.263,2.277,4.57,4.499,5.144,7.607c0.96,5.198,6.005,7.425,7.899,12.18c2.957,7.421,9.344,13.036,12.551,20.505
			c0.244,0.568,0.894,0.963,1.354,1.438c0,24,0,48,0,72c-7.117-13.975-11.443-29.033-16.964-43.629
			c-1.55-4.1-4.509-8.113-5.41-11.826c-1.711-7.05-4.424-13.637-6.807-20.354c-4.98-14.043-10.385-27.937-15.682-41.866
			c-5.564-14.637-11.216-29.24-16.793-43.872C438.058,248.7,438.106,247.821,438,247.001z"/>
		<path fill-rule="evenodd" clip-rule="evenodd" fill="#D4D6D6" d="M329-3c-5.361,2.975-11.593,5.07-17.107,5.863
			c-7.067,1.017-13.496,3.698-20.354,4.954c-0.566,0.104-1.028,0.774-1.539,1.182c-1.66,1.268-3.822,1.331-5.597,2.34
			c-16.305,5.11-32.827,9.44-49.267,14.056c-4.793,1.347-9.65,2.587-14.269,4.35c-5.626,2.148-11.41,3.39-17.24,4.606
			c-1.529-0.012-3.301-0.074-3.626-1.847c-0.248-1.355,1.146-2.309,2.192-3.112c6.321-4.857,13.123-9.026,19.62-13.637
			c6.089-4.32,12.331-8.428,18.312-12.902C243.465,0.354,247.083-1.592,251-3C277-3,303-3,329-3z"/>
		<path fill-rule="evenodd" clip-rule="evenodd" fill="#D8D9DA" d="M251-3c-7.721,5.528-15.408,11.104-23.17,16.572
			c-8.48,5.974-17.015,11.872-25.56,17.753c-3.006,2.068-0.251,1.442,0.73,1.675c0.575,1.539,0.137,3.176,0.743,4.804
			c1.243,3.34-0.598,4.479-3.742,4.195c-0.935-7.818-3.831-15.176-5.352-22.884C193.165,11.599,190.273,4.36,188-3
			C209-3,230-3,251-3z"/>
		<path fill-rule="evenodd" clip-rule="evenodd" fill="#DBDCDC" d="M424,333.001c1.91,4.148,0.642,7.331-3.526,10.007
			c1.824,1.132,3.14,2,3.151,4.531c0.014,2.866-0.861,6.272,1.577,8.898c0.339,0.364,0.424,1.478,0.129,1.84
			c-5.249,6.447-2.96,14.252-3.863,21.461c-0.118,0.941-0.148,1.848-0.39,2.813c-0.646,2.598-1.219,5.405,3.884,5.079
			c-3.279,1.342-5.708,2.118-4.262,5.834c0.556,1.427-0.673,3.195-2.7,3.535c-1.817-0.077-3.736,1.465-5.451-0.319
			c-0.88-0.933-1.801-0.405-2.721-0.053c-0.441,0.097-0.877,0.104-1.322,0.04c-1.779-0.874-3.456-1.698-5.487-0.344
			c-1.853,1.237-4.149,0.789-6.258,1.062c-11.101,0.312-22.158-1.368-33.259-0.806c-11.529,0.584-23.027-2.571-34.598-0.016
			c-3.572,0.789-7.061-1.383-10.766-1.521c-10.443-0.391-20.896-0.664-31.32-1.485c-1.972-0.155-4.001-0.071-5.871-0.921
			c-0.467-0.121-0.873-0.347-1.213-0.69c-0.292-2.75,1.786-4.182,3.409-5.724c6.261-5.947,11.616-12.726,17.563-18.953
			c1.197-1.412,1.391-3.35,2.492-4.814c5.664-2.173,9.641-6.142,12.24-11.558c0.303-0.632,0.68-1.287,1.322-1.401
			c4.912-0.873,7.26-4.636,9.614-8.413c1.847-1.261,3.698-2.541,5.813-0.561c0.251,0.61,0.251,0.61,1.772-0.769
			c4.26-1.924,8.847-0.954,13.267-1.438c13.646-1.493,27.373-1.982,41.041-3.521c7.611-0.857,15.467-0.725,23.215-1.17
			c3.828-0.22,7.513-1.048,11.286-1.421C423.259,332.35,423.668,332.617,424,333.001z"/>
		<path fill-rule="evenodd" clip-rule="evenodd" fill="#DBDCDC" d="M423,316c-0.667,0-1.334,0-2,0
			c-4.09,0.438-6.711-2.421-9.61-4.457c-17.144-12.043-34.562-23.683-51.833-35.534c-4.275-4.084-10.963-5.259-13.524-11.521
			c-0.745-1.82-3.026-0.579-4.517-0.553c-3.842,0.067-6.766-0.597-6.396-5.34c0.122-1.57-0.646-1.855-2-2.147
			c-3.01-0.649-5.92-1.702-8.773-2.896c-0.274-0.372-0.498-0.775-0.691-1.191c-5.688-4.516-11.35-8.98-17.59-12.818
			c-6.295-3.871-12.754-7.725-17.965-13.196c-3.244-3.405-8.221-4.213-11.629-7.474c-1.295-1.238-3.172-1.947-3.039-4.188
			c0.477-1.643,1.773-2.415,3.274-2.66c11.365-1.85,22.518-4.89,33.996-6.094c3.215,0.828,5.96-0.433,8.645-1.978
			c6.599-0.788,12.921-3.1,19.581-3.555c1.92-0.595,3.846-1.041,5.838-0.345c5.02,4.227,8.243,9.967,11.884,15.208
			c12.119,17.445,24.125,34.974,36.132,52.499c9.09,13.266,18.442,26.346,27.474,39.648C421.977,309.944,424.21,312.463,423,316z"/>
		<path fill-rule="evenodd" clip-rule="evenodd" fill="#D9DADB" d="M413,396c1.426,1.541,3.574-0.536,5,1
			c-5.189,2.711-9.902,6.685-16.234,6.426c-2.682-0.11-0.226,3.126-3.174,3.878c-5.139,1.31-9.756,4.584-14.682,6.838
			c-2.463,1.127-0.08,3.524-1.587,4.771c-2.299-2.087-4.556-3.295-6.296,0.564c-1.064,2.363-2.004,3.905-5.213,2.316
			c-1.89-0.937-3.736,1.461-5.525,2.494c-0.988,0.569-1.961,2.115-2.719,1.979c-6.934-1.237-10.326,4.603-15.238,7.351
			c-0.424,0.237-0.778,0.718-1.217,0.796c-4.555,0.81-4.426,0.922-8.535,5.122c-0.889,0.909-3.66,1.787-4.253,1.518
			c-3.374-1.53-5.233,0.972-6.958,2.525c-5.031,4.536-10.89,7.042-17.37,8.422c-0.333,0-0.666-0.001-0.999-0.001
			c-3.295-7.031-6.611-14.052-9.881-21.095c-5.487-11.824-10.934-23.668-16.435-35.485c-0.409-0.878-1.116-1.617-1.685-2.42
			c-0.225-0.223-0.299-0.444-0.225-0.667c0.076-0.222,0.15-0.333,0.226-0.333c5.767,0.118,11.536,0.136,17.297,0.38
			c6.81,0.289,13.664,0.379,20.405,1.266c10.395,1.367,20.816-0.484,31.107,0.525c11.871,1.165,23.748,0.033,35.545,1.111
			c4.225,0.387,8.426,0.558,12.645,0.718c2.432,1.973,4.863,3.217,7.742,0.641c1.174-1.051,2.885-0.047,4.258-0.641
			c0.334,0,0.666,0,1,0C411,395.36,412,395.716,413,396z"/>
		<path fill-rule="evenodd" clip-rule="evenodd" fill="#D9DADA" d="M423,316c-5.513-11.386-13.762-20.914-20.893-31.214
			c-4.121-5.952-7.921-12.193-12.102-18.123c-3.686-5.227-7.215-10.566-11.197-15.618c-4.146-5.26-6.97-11.523-11.174-16.846
			c-5.479-6.937-9.601-14.822-15.201-21.707c-2.863-3.518-4.98-7.642-7.434-11.492c0.505-0.602,1.176-0.819,1.932-0.843
			c7.413,2.768,14.948,5.168,22.306,8.173c7.438,3.037,15.046,5.828,22.743,8.308c4.45,1.434,8.428,4.315,13.322,4.558
			c0.444,0.175,0.84,0.429,1.193,0.749c0.346,0.354,0.537,1.022,0.918,1.136c8.514,2.525,15.856,7.947,24.586,9.921
			c0.333,0.333,0.667,0.667,1,1c0.333,1.667,0.667,3.333,1,4.999c-1.801,2.72-2.229,5.594-2.193,8.93
			c0.06,5.662-0.752,11.341-1.358,16.995c-0.133,1.236-0.927,2.221-0.462,3.747c1.029,3.383-1.47,4.876-4.893,6.273
			c4.05,1.189,4.566,4.6,6.607,6.737c-1.217,1.634-1.836-0.464-3.174,0.143c1.262,1.601-0.342,4.271,2.448,5.396
			c0.454,0.184,0.783,0.756,0.094,1.029c-5.377,2.133-3.269,6.386-3.269,10.314c0.001,5.676-2.013,11.188-1.636,17.006
			C426.287,317.451,424.183,316.428,423,316z"/>
		<path fill-rule="evenodd" clip-rule="evenodd" fill="#D7D9D9" d="M360,275c8.549,4.467,16.076,10.498,24.092,15.78
			c8.444,5.564,16.646,11.495,24.98,17.227c3.943,2.712,7.949,5.332,11.928,7.993c5.665,4.646,6.793,11.038,3,17.001
			c-0.333,0-0.667-0.001-1-0.001c-3.306-0.938-5.33-3.434-7.803-5.641c-6.789-6.055-13.4-12.326-20.193-18.372
			c-8.778-7.813-18.408-14.72-26.307-23.484c-2.885-3.202-7.021-5.137-9.037-9.164C359.596,275.848,359.71,275.401,360,275z"/>
		<path fill-rule="evenodd" clip-rule="evenodd" fill="#D9DADB" d="M335,459c-2.992-0.705-6.193-0.465-9-2
			c0.971-0.086,2.346,0.211,2.848-0.318C332.891,452.422,333.947,455.612,335,459z"/>
		<path fill-rule="evenodd" clip-rule="evenodd" fill="#D9DADB" d="M337.239,446.477c1.099-0.135,1.581,0.267,1.54,0.996
			c-0.018,0.322-0.501,0.823-0.832,0.877c-0.558,0.09-1.49,0.354-1.549-0.558C336.369,447.318,337.017,446.801,337.239,446.477z"/>
		<path fill-rule="evenodd" clip-rule="evenodd" fill="#D9DADA" d="M436.307,266.181c0.521,0.405,0.82,0.639,1.119,0.872
			c-0.416,0.393-0.801,0.83-1.268,1.147c-0.126,0.086-0.5-0.192-0.76-0.304C435.666,267.391,435.934,266.885,436.307,266.181z"/>
		<path fill-rule="evenodd" clip-rule="evenodd" fill="#D9DADB" d="M322.436,453.354c-0.629,0.26-1.021,0.547-1.421,0.558
			c-0.616,0.017-1.43-0.08-1.012-1.021c0.137-0.307,0.825-0.552,1.222-0.504C321.59,452.431,321.904,452.905,322.436,453.354z"/>
		<path fill-rule="evenodd" clip-rule="evenodd" fill="#D9DADB" d="M325.699,451.458c-0.369,0.237-0.748,0.48-1.126,0.724
			c-0.133-0.284-0.388-0.575-0.372-0.852c0.029-0.55,0.374-0.974,0.975-0.808C325.381,450.579,325.477,451.037,325.699,451.458z"/>
		<path fill-rule="evenodd" clip-rule="evenodd" fill="#D9DADA" d="M403,69c15.033,11.686,30.127,23.293,45.074,35.087
			c7.775,6.135,15.292,12.598,22.926,18.912c-0.638,1.21-1.491,2.23-2.781,2.749c-17.538,7.062-33.793,16.765-50.792,24.944
			c-11.261,5.42-22.755,10.64-33.428,17.307c-0.536,0.33-1.043,0.289-1.521-0.12c-2.956-4.58-2.488-9.95-3.003-14.959
			c-2.391-23.28-6.135-46.383-8.807-69.622c-0.208-1.813-0.589-3.613-0.218-5.44c-0.01-3.297,1.756-4.816,4.826-5.937
			c7.075-2.579,14.41-2.517,21.723-2.921C399,68.621,401,67.468,403,69z"/>
		<path fill-rule="evenodd" clip-rule="evenodd" fill="#DADBDC" d="M382.999,167.999c0.333,0,0.667,0,1,0
			c-0.05,0.82-0.407,2.214-0.104,2.375c5.009,2.679,6.705,8.068,10.043,12.089c2.396,2.886,4.605,5.928,6.918,8.884
			c2.412,3.085,4.93,5.952,6.582,9.721c1.378,3.146,3.525,6.695,7.809,7.331c1.835,0.272,2.041,1.854,2.305,3.196
			c0.575,2.932-0.135,6.48,4.713,6.587c2.72,0.061-0.194,2.275,0.878,3.517c3.125,3.618,5.929,7.515,8.858,11.303
			c-5.145,0.498-10.166-0.762-14.273-3.382c-2.811-1.794-5.151-3.631-8.641-3.909c-1.623-0.129-4.324-0.615-2.686-3.968
			c0.367-0.264,0.226-0.191-0.023-0.04c0.143-0.068,0.283-0.144,0.023,0.04c-4.93,0.787-9.263,0.843-12.561-3.21
			c-1.264-1.554-3.231-0.046-5.184-0.793c-12.017-4.599-23.604-10.399-36.207-13.461c-1.966-0.478-3.641-2.155-5.449-3.278
			c-0.653-0.688-1.445-1.291-1.436-2.379c0.983-3.174,4.148-4.104,6.269-6.114c6.137-5.821,12.799-11.011,19.706-15.837
			c3.834-2.679,6.295-6.723,10.199-9.23C382.225,167.478,382.648,167.657,382.999,167.999z"/>
		<path fill-rule="evenodd" clip-rule="evenodd" fill="#DBDCDC" d="M124,70c0.767-1.031,1.891-0.992,3-1c0.338,2-0.34,4,0,6
			c0.219,1.689-0.966,3.257-0.876,4.713c0.295,4.783-1.39,10.711,6.67,11.528c2.038,0.207,4.603,3.101,2.168,6.382
			c-0.431,0.58-0.38,1.517-0.57,2.369c1.693,0.149,2.016-1.089,2.471-2.044c0.445-0.934,0.982-2.237,2.036-1.625
			c3.915,2.273,7.684,4.798,11.463,7.296c0.128,0.085-0.23,0.904-0.362,1.382c-0.125,7.517,1.956,14.717,3.258,22.02
			c2.387,13.381,5.978,26.646,7.049,40.131c0.769,9.665,4.535,18.757,4.157,28.477c-0.061,1.572,0.777,2.873,1.111,4.331
			c3.46,18.486,6.207,37.086,9.348,55.619c0.66,3.896,2.451,7.677,1.539,11.783c-0.05,0.81-0.145,1.611-0.478,2.362
			c-2.184,3.504-5.591,1.1-8.377,1.732c-6.854-0.119-13.591,1.176-20.39,1.712c-17.891,1.413-35.671,3.971-53.563,5.444
			c-6.457,0.532-12.873,1.564-19.365,1.763c-2.504,0.076-5.182,0.521-5.972-2.913c0.455-7.425,4.898-13.378,7.723-19.851
			c11.658-26.713,24.132-53.065,35.856-79.754c1.452-3.306,2.506-6.984,6.103-8.855c-0.001-1.177,0.057-2.356,0.869-3.299
			c1.384-1.607,0.855-3.425-0.27-4.505c-1.339-1.287-2.178,0.704-3.209,1.327c-4.144,2.5-4.854,2.109-7.206-4.033
			c1.177-1.071,1.863,0.712,2.971,0.523c1.488-0.253,3.299-0.055,3.374-2.063c0.053-1.417-1.051-2.275-2.658-2.34
			c-3.153-0.127-3.707-1.132-3.304-4.694c0.308-2.72-0.139-5.042,1.299-7.929c0.817-1.638-2.613-5.151-3.632-7.999
			c-1.773-4.952-6.207-8.925-5.458-14.813c0.209-1.643-0.466-2.013-2.069-1.371c-2.583,1.033-3.991,0.883-2.657-2.604
			c0.708-1.85,1.163-4.228-1.502-5.529c-1.398-0.683-1.128-2.19-0.57-3.071c3.711-5.864-2.945-6.961-4.745-10.238
			c-0.281-0.511-1.202-0.899-1.208-1.782c-0.044-7.394-2.516-13.927-6.377-20.198c-3.422-5.559-5.194-11.828-5.733-18.396
			c-0.129-1.575-1.156-1.312-2.101-0.706C70.863,57.17,67.935,59.091,65,61c-0.922-0.133-2.18,0.275-2.497-0.987
			c-0.238-0.947,0.525-1.418,1.461-1.509C66.078,58.298,66.126,56.289,67,55c3.412,1.583,5.693,0.997,5.35-3.255
			c-0.256-3.16,1.732-3.377,3.236-2.128c2.072,1.722,5.629,2.567,5.138,6.569c-0.113,0.918,1.25,2.92,1.514,2.85
			c5.296-1.416,7.343,4.09,11.521,5.293c5.563,1.602,10.214,5.572,14.647,9.164c3.65,2.956,8.588,4.409,11.038,8.88
			c0.36,0.655,1.531,1.305,2.1,0.53c0.961-1.308,1.885-2.936,0.935-4.615C120.64,75.038,121.979,72.482,124,70z"/>
		<path fill-rule="evenodd" clip-rule="evenodd" fill="#D6D7D8" d="M117.998,169.002c-4.417,9.787-8.813,19.583-13.259,29.356
			c-5.35,11.763-10.76,23.499-16.112,35.261c-4.249,9.336-8.448,18.695-12.674,28.042C73.641,266.776,71.318,271.887,69,277
			c-0.34,0.326-0.362,0.971-1,1c-4.445-4.652-8.987-9.216-13.317-13.974c-11.116-12.217-21.969-24.678-33.26-36.729
			C14.849,220.282,8.311,213.248,2,205.999c12.429-5.058,25.443-8.336,38.151-12.543c12.198-4.037,24.554-7.553,36.631-12.01
			c8.193-3.023,17.008-4.206,25.215-7.406c3.928-1.532,7.997-2.705,12.002-4.041l0,0
			C115.332,169.667,116.665,169.335,117.998,169.002z"/>
		<path fill-rule="evenodd" clip-rule="evenodd" fill="#DBDCDC" d="M114,169.999c-1.779-0.087-3.823,0.347-4.811-2.491
			C111.593,167.565,112.738,168.896,114,169.999L114,169.999z"/>
		<path fill-rule="evenodd" clip-rule="evenodd" fill="#D7D9D9" d="M397,69c-3.025,2.263-5.797,3.034-9.967,1.796
			c-3.896-1.158-7.895,2.891-12.344,2.817c-2.136-0.034-2.774,1.475-2.689,3.387c-1.364,0.52-2.195-1.169-3.52-0.821
			c-9.283,1.004-18.269,3.63-27.432,5.044c-10.803,1.667-21.311,5.078-32.172,5.897c-13.811,1.042-26.958,4.849-40.248,8.141
			c-2.717,0.672-5.229-0.438-7.897,0.057c-8.474,1.567-16.873,3.534-25.436,4.644c-3.909,0.506-7.893,0.552-11.622,2.438
			c-2.052,1.038-4.582,0.638-6.614-0.934c-0.919-2.379,0.458-4.078,1.698-5.844c6.469-9.214,13.97-17.638,20.655-26.657
			c6.773-9.138,14.12-17.845,20.271-27.499c3.672-5.763,8.808-10.654,12.953-16.208c0.207-0.419,0.462-0.807,0.752-1.171
			c2.617-3.01,5.379-5.925,7-9.646c0.935-2.146,3.209-2.824,4.61-4.442c1.34-1.97,3.203-1.322,5.001-0.999
			c4.539,3.324,9.01,6.875,13.719,9.763c1.793,1.1,5.095,1.687,7.715,2.472c6.15,1.841,11.758,5.042,17.188,7.857
			c6.992,3.627,14.355,6.968,20.865,11.321c9.369,6.267,19.924,9.702,29.764,14.758c2.404,1.234,3.882,2.489,2.036,6.206
			c6.646-4.387,10.374,1.943,15.454,2.827C399.132,64.619,396.904,67.336,397,69z"/>
		<path fill-rule="evenodd" clip-rule="evenodd" fill="#D7D9D9" d="M321.369,19.623c-0.389,0.364-0.67,0.742-1.045,0.927
			c-0.161,0.079-0.52-0.243-0.787-0.384c0.271-0.331,0.494-0.735,0.837-0.957C320.516,19.118,320.91,19.421,321.369,19.623z"/>
		<path fill-rule="evenodd" clip-rule="evenodd" fill="#D6D7D8" d="M217,101c5.865,1.931,10.698-2.653,16.451-2.511
			c5.885,0.146,11.719-1.808,17.582-2.739c3.519-0.56,6.99-1.946,10.688-2.177c12.672-0.791,24.828-4.445,37.143-7.088
			c7.344-1.575,14.805-1.514,22.148-2.87c3.272-0.604,6.133-2.1,9.307-2.652c7.168-1.247,14.377-2.268,21.523-3.626
			c5.688-1.082,11.248-2.94,17.158-2.338c2.498,1.763,1.013,3.564-0.152,5.079c-11.397,14.82-21.117,30.807-32.057,45.938
			c-2.607,3.605-4.842,7.47-7.684,10.914c-4.1,2.299-8.68,3.366-13.016,5.062c-24.664,9.644-49.668,18.377-74.436,27.741
			c-0.624,0.236-1.254,0.453-1.887,0.664c-6.121,2.043-6.764,1.678-7.768-4.398c-1.486-6.285-2.884-12.593-4.478-18.851
			c-2.981-11.704-6.709-23.217-8.756-35.16c-0.637-3.717-3.389-6.93-2.766-10.987C216.333,100.508,216.667,100.507,217,101z"/>
		<path fill-rule="evenodd" clip-rule="evenodd" fill="#DADBDB" d="M232.001,165.999c1.023,4.052,2.949,4.563,6.97,2.997
			c20.371-7.935,40.789-15.78,61.417-23.012c9.527-3.339,18.674-7.815,28.61-9.982c1.423-0.108,2.29,0.604,2.782,1.875
			c0.848,4.852,0.633,9.995,3.924,14.185c0.405,0.516,0.739,1.221,0.672,1.852c-0.726,6.887,3.414,13.172,2.451,20.082
			c-0.115,0.827,0.199,1.631,0.415,2.438c1.651,6.178,5.526,11.756,4.801,18.604c-0.146,1.371,1.255,2.648,1.956,3.962
			c0.334,0.667,0.666,1.333,1,2c-0.666,0-1.334,0-2,0c-2,0.333-4.001,0.666-6.001,0.999c-6.796,0.139-14.042-2.723-19.999,3.002
			c-2.103,2.925-4.86,3.226-8,1.999c-1.881-2.976,2.634-2.319,2.42-4.895c-5.545-0.768-11.135-1.895-16.77,0.31
			c-0.914,0.358-1.969,1.479-2.689,1.034c-6.581-4.059-14.227,0.562-20.871-2.667c-0.418-0.203-0.979-0.039-1.48,0.053
			c-9.654,0.137-19.283,0.338-28.928-0.513c-10.451-0.923-20.958-0.289-31.44-0.327c-11.646-0.042-23.259-0.675-34.858-1.525
			c-1.833-0.605-3.509-1.62-3.503-3.713c0.007-2.332,1.934-3.621,3.855-4.047c9.196-2.037,17.103-7.489,26.425-9.474
			c4.386-0.934,8.375-4.347,13.092-5.474c1.77-0.423,3.403-1.449,5.207-0.336c0.463,0.432-0.308-0.109,0.256,0.227
			c0.394,0.234-0.061-0.122,0.033-0.197c1.303-4.047,5.808-3.178,8.252-5.456C231.733,169.2,232.073,167.702,232.001,165.999z"/>
		<path fill-rule="evenodd" clip-rule="evenodd" fill="#D9DADA" d="M230,170c-0.756,1.867-2.444,3.103-4.157,3.363
			c-1.647,0.251-3.046,1.053-3.843,2.637c-5.177,2.707-12.549,0.522-15.991,7.167c-0.159,0.307-0.91,0.52-1.329,0.447
			c-7.361-1.266-12.691,2.536-17.75,7.04c-0.227,0.201-0.692,0.536-0.701,0.525c-3.041-3.7-5.624,0.45-8.376,0.708
			c-2.047,0.192-5.642,1.351-2.854,5.112c-3.16,3.455-7.396,0.998-11.002,2.001c-0.114-0.12-0.329-0.242-0.327-0.361
			c0.161-10.064-4.359-19.312-4.471-29.581c-0.086-7.974-2.729-16.25-4.298-24.378c-2.391-12.39-4.412-24.85-6.623-37.274
			c-0.265-1.489,0.324-2.191,1.72-2.405C176.666,126.667,203.333,148.334,230,170z"/>
		<path fill-rule="evenodd" clip-rule="evenodd" fill="#D9DADB" d="M217,101c-0.333,0-0.666,0-0.999,0.001
			c-4.188-13.37-7.611-26.925-10.555-40.63c-1.334-6.211-4.15-12.087-5.445-18.372c1.557-1.368,5.259-1.889,1.302-5.049
			c-2.626-2.097,1.216-2.555,1.698-3.95c21.281-6.052,42.574-12.063,63.836-18.179c6.024-1.732,11.967-3.749,18.163-4.823
			C281.883,15.402,279.172,21.104,274,25c-2.84,5.517-7.363,9.795-10.873,14.742c-3.846,5.421-9.473,9.91-10.792,16.953
			c-0.085,0.454,0.017,0.878-0.44,1.088c-7.667,3.511-9.41,12.073-14.835,17.325c-3.505,3.395-5.687,7.586-8.943,10.983
			C223.781,90.616,220.639,95.983,217,101z"/>
		<path fill-rule="evenodd" clip-rule="evenodd" fill="#DADBDB" d="M127,75c-3.547-2-1.878-4,0-6
			c1.392-0.331-0.108-2.53,1.449-2.473c1.083,0.041,1.395,1.156,1.178,2.233c-0.236,1.174,0.451,1.777,1.374,2.239
			C129.667,72.333,128.333,73.667,127,75z"/>
		<path fill-rule="evenodd" clip-rule="evenodd" fill="#DBDCDC" d="M147.144,91.837c-0.231,0.551-0.154,1.508-1.096,1.247
			c-0.713-0.197-0.882-0.972-0.564-1.62c0.198-0.402,0.641-0.918,1.018-0.956C147.679,90.388,147.216,91.242,147.144,91.837z"/>
		<path fill-rule="evenodd" clip-rule="evenodd" fill="#DBDCDC" d="M141.394,87.127c-0.32,1.682-0.397,2.795-1.865,3.019
			C139.279,88.843,139.809,88.022,141.394,87.127z"/>
		<path fill-rule="evenodd" clip-rule="evenodd" fill="#D6D7D7" d="M73.999,401.001c-0.333,0-0.666-0.001-0.999-0.001
			c-0.667-0.334-1.333-0.668-2-1.001c-3.977-6.661-8.67-13.033-14.186-18.206c-5.766-5.408-9.004-12.714-14.902-17.656
			c-4.786-4.012-6.786-10.655-12.992-13.146c-0.152-0.062-0.458-0.041-0.47-0.104c-1.524-7.588-8.643-11.5-11.792-18.009
			c-0.094-0.192,0.218-0.582,0.341-0.88c2.558-1.188,4.582,0.368,6.46,1.559c16.736,10.604,34.171,20.026,51.098,30.309
			c16.354,9.935,33.038,19.317,49.455,29.149c1.683,1.008,3.607,1.838,4.309,3.952c-1.731,3.671-5.383,2.92-8.174,2.922
			c-11.538,0.007-23.008,1.602-34.565,1.185C81.741,400.937,77.864,403.3,73.999,401.001z"/>
		<path fill-rule="evenodd" clip-rule="evenodd" fill="#DADCDC" d="M124.711,0.273c-0.213,0.422-0.382,0.917-0.468,0.903
			c-0.762-0.123-1.041-0.729-1.091-1.406c-0.02-0.266,0.228-0.552,0.354-0.829C123.922-0.599,124.338-0.139,124.711,0.273z"/>
		<path fill-rule="evenodd" clip-rule="evenodd" fill="#DADBDC" d="M127.999,397.001c-13.036-7.569-26.094-15.103-39.102-22.719
			c-12.278-7.189-24.494-14.485-36.758-21.701c-11.699-6.883-23.424-13.724-35.138-20.582c-1.038-1.63-3.825-1.51-4.002-4
			c0.334-0.333,0.668-0.666,1.002-0.999c9.427-6.217,20.562-8.25,30.83-12.397c18.63-7.525,37.8-13.659,56.616-20.732
			c22.062-8.293,44.15-16.523,66.554-23.87c2.333-2.521,4.666,1.846,7,0c1.543,1.472,0.815,3.055,0.179,4.593
			c-3.036,7.345-4.589,15.232-7.301,22.553c-2.794,7.545-5.911,15.087-8.681,22.691c-3.917,10.756-7.659,21.573-12.006,32.169
			c-1.68,4.095-1.277,8.902-4.478,12.542c-0.705,0.802,0.596,0.117,0.94,0.319c2.784,1.633,2.559,3.657,0.69,5.731
			c-5.875,6.521-9.911,13.908-11.223,22.691C132.698,396.126,131.793,398.651,127.999,397.001z"/>
		<path fill-rule="evenodd" clip-rule="evenodd" fill="#D7D9D9" d="M168,270c-4.916,4.289-11.24,5.662-17.1,7.712
			c-21.988,7.696-43.838,15.746-65.583,24.101c-8.113,3.117-16.398,5.784-24.565,8.766c-10.294,3.759-20.401,8.12-30.88,11.246
			C24.527,323.42,19.703,326.598,14,327c7.93-6.961,15.846-13.938,23.792-20.878c9.193-8.029,18.424-16.014,27.608-24.052
			c1.233-1.079,2.538-2.201,2.598-4.07c0.333-0.333,0.667-0.667,1-1c0.28,1.697,1.589,2.34,2.919,1.923
			c5.121-1.606,10.418-0.207,15.667-1.374c6.31-1.404,12.957-1.229,19.43-1.979c8.146-0.944,16.298-1.647,24.42-3.128
			c5.368-0.979,11.154-0.669,16.777-1.181C154.767,270.665,161.345,269.349,168,270z"/>
		<path fill-rule="evenodd" clip-rule="evenodd" fill="#D7D9D9" d="M127.999,397.001c2.438-0.324,3.241-1.31,3.55-4.143
			c0.64-5.859,3.258-11.079,6.284-16.332c1.771-3.074,3.215-5.552,6.195-7.406c1.425-0.887,0.525-2.327-0.466-3.303
			c-2.081-0.034,0.133,3.119-1.879,2.644c-2.018-0.477-0.904-2.226-0.521-3.312c4.06-11.514,8.125-23.026,12.34-34.483
			c3.455-9.39,5.966-19.211,10.008-28.251c4.521-10.111,5.509-21.412,11.377-30.934c0.23-0.375,0.083-0.981,0.113-1.48
			c0-0.667,0.001-1.333,0.001-2c5.327-5.897,12.548-9.215,19.004-13.512c2.331-1.552,4.47-3.331,6.721-4.949
			c18.862-13.562,38-26.743,57.288-39.667c5.16-3.458,9.43-8.054,14.986-10.872c0.795,0.166,1.753,0.106,2.354,0.54
			c1.648,1.189,2.312,2.454,4.993,0.315c2.699-2.153,7.296-0.127,10.639,0.894c2.058,0.628,2.852,0.708,4.787-0.18
			c3.482-1.597,7.475-1.25,11.312-0.939c1.97,0.16,3.943,0.324,5.918,0.366c2.019,0.042,3.257,0.762,2.799,2.977
			c-0.303,1.465-0.069,3.68-2.841,2.574c-1.293-0.516-1.766,0.348-1.961,1.453c-11.196,2.1-22.389,4.224-33.595,6.269
			c-1.367,0.25-2.522,0.656-3.406,1.73c-0.886,6.876-1.862,13.715-3.989,20.369c-1.104,3.455-1.828,7.077-1.977,10.747
			c-0.177,4.348-1.138,8.514-2.427,12.66c-0.587,1.887-0.894,4.504,2.612,3.395c12.349-3.909,25.248-5.49,37.671-8.916
			c5.8-1.6,11.298-3.573,17.38-2.736c0.885,0.121,2.166-0.191,1.73,1.482c0.131,12.144-3.754,23.701-5.176,35.612
			c-0.862,7.216-2.174,14.46-3.755,21.415c-2.05,9.016-3.761,18.081-5.515,27.148c-0.107,0.695-0.173,1.399-0.379,2.075
			c-0.67,2.196-1.344,4.392-1.794,6.646c-0.146,1.121-0.477,2.202-0.704,3.306c0.305,5.313-1.545,10.091-3.679,14.798
			c-0.415,1.767-0.697,3.587-1.997,5.001c-3.335-2.589-4.379-6.608-5.833-10.188c-4.311-10.613-7.821-21.539-11.903-32.245
			c-3.612-9.473-8.059-18.631-11.203-28.273c-2.68-8.213-5.211-16.457-9.013-24.242c-0.269-0.552-0.335-1.307-1.339-1.451
			c-0.274,4.131-1.094,7.954-3.246,11.735c-1.504,2.643-1.369,6.453-1.859,9.604c-2.114,13.588-4.805,27.036-7.403,40.527
			c-1.081,5.612-2.204,11.348-2.658,17.115c-0.132,1.68-0.463,3.317-1.023,4.87c-0.965,2.678-2.583,3.792-5.253,1.45
			c3.84,4.717,3.5,14.434-0.517,18.401c-0.129,0.127-0.672-0.11-0.396,0.312c2.07,3.169,0.84,6.306-0.087,9.421
			c-0.669,2.248-1.872,4.788,0.384,6.466c2.113,1.57,5.096,2.56,7.569,1.336c5.091-2.52,10.351-1.73,15.622-1.735
			c3.659-0.004,7.319,0.046,10.979-0.162c1.785-0.103,3.697-0.482,5.178,1.059h0.001c0,0.333-0.001,0.667-0.001,1
			c-0.666,0.333-1.332,0.667-1.998,1c-1.365,1.198-2.799,2.328-4.081,3.609c-1.93,1.93-3.748,3.549-6.051,0.442
			c-0.78-1.052-2.184-1.502-2.989-0.438c-1.094,1.443,0.447,2.047,1.503,2.328c2.331,0.621,1.696,2.975,2.63,4.322
			c2.059,0.4,1.744-2.359,3.887-2.479c-1.06,2.178-0.9,4.253-0.179,6.409c-2.204,0.288-5.741-5.686-5.831,1.372
			c-6.848-0.655-2.889,4.137-3.188,6.61c-0.191,1.577-0.523,2.904-1.675,3.934c-0.212,0.19-1.042,0.059-1.272-0.202
			c-1.266-1.435,0.761-2.326,0.672-3.549c-0.065-0.912,0.76-1.962-0.617-2.988c-1.02,1.826-4.107,2.234-3.079,5.39
			c0.124,0.382-0.175,0.901-0.276,1.357c-6.23-3.496-5.629,7.197-11.247,5.421c-1.227-0.388-1.106,1.276-0.699,2.211
			c0.64,1.471,1.365,2.905,2.087,4.424c-1.753,0.83-3.026-0.64-4.4-0.481c-3.368,0.389-0.237,1.517-0.196,2.308
			c-2.148,0.578-2.711,2.996-4.804,3.989c-1.222,0.58,2.27,2.09,1.804,4.011c-3.19,0.5-5.756,2.518-7.828,4.539
			c-5.081,4.957-11.374,9.746-13.907,15.94c-2.574,6.295-7.614,2.487-10.861,5.406c2.531,0.627,4.938,0.812,7.183,3.265
			c-4.646,0.091-7.093,1.739-6.778,6.224c0.11,1.565-1.571,0.373-2.136,0.649c-2.571,1.255-4.424,3.372-5.673,5.977
			c-1.767,2.311-6.369,2.824-4.653,7.342c-3.708-0.107-4.783,4.504-8.346,4.658c-10.575-9.071-20.69-18.764-31.859-27.033
			c-10.311-7.634-19.236-16.834-29.718-24.264c-8.869-6.287-16.463-14.357-25.253-20.773c-6.944-5.068-12.052-12.415-20.169-15.931
			c-2.015-0.571-2.292-2.447-3.001-3.998c-1.329-0.671-2.329-1.672-3-3c7.221-0.859,14.538-0.947,21.708-1.613
			c10.519-0.978,21.11,0.062,31.534-1.767C127.521,397.572,127.747,397.215,127.999,397.001z"/>
		<path fill-rule="evenodd" clip-rule="evenodd" fill="#D7D9D9" d="M260,465c-0.639-0.523-1.289-1.032-1.912-1.573
			c-1.004-0.871-2.186-1.712-1.792-3.283c0.271-1.08,1.267-1.675,2.247-1.679c2.19-0.01,0.221,2.432,1.613,3.009
			c0.301,0.125,0.562,0.348,0.843,0.525C260.992,463.107,261.031,464.232,260,465z"/>
		<path fill-rule="evenodd" clip-rule="evenodd" fill="#D7D9D9" d="M259.001,468.001c-0.489-0.727-1.556-1.768-1.362-2.123
			c0.604-1.109,1.548-0.077,2.36,0.121C259.666,466.666,259.334,467.334,259.001,468.001z"/>
		<path fill-rule="evenodd" clip-rule="evenodd" fill="#D7D9D9" d="M269,430c-0.581-1.305-1.372-2.68,1-3
			C269.992,428.108,270.031,429.232,269,430z"/>
		<path fill-rule="evenodd" clip-rule="evenodd" fill="#D9DBDB" d="M46,404c0.376,0.726,0.845,1.418,1.108,2.183
			c0.521,1.516,3.465,1.922,2.438,3.764c-1.056,1.893-2.355-0.91-3.787-0.608c-1.28,0.271-1.778,1.968-3.386,1.698
			c-0.659-2.933,1.965-4.63,2.626-7.036C45.333,404,45.667,404,46,404z"/>
		<path fill-rule="evenodd" clip-rule="evenodd" fill="#D9DBDB" d="M118.084,465.59c1.208,0.169,2.287,0.966,1.985,1.484
			c-0.921,1.581-2.755,2.134-4.416,2.694c-0.647,0.219-1.373-0.445-1.121-1.185C115.139,466.803,117.187,466.746,118.084,465.59z"/>
		<path fill-rule="evenodd" clip-rule="evenodd" fill="#D9DBDB" d="M107.948,459.422c0.964,0.79,0.626,1.472,0.431,2.045
			c-0.583,1.705,3.326,1.88,1.333,3.929c-0.508,0.521-1.241,0.088-1.67-0.479C106.748,463.207,105.172,461.496,107.948,459.422z"/>
		<path fill-rule="evenodd" clip-rule="evenodd" fill="#D9DBDB" d="M99.537,431.008c-2.285,1.062-3.778,0.263-4.795-1.385
			c-0.156-0.253,0.472-1.421,0.9-1.53C98.044,427.48,97.867,430.403,99.537,431.008z"/>
		<path fill-rule="evenodd" clip-rule="evenodd" fill="#D9DBDB" d="M107.233,443.458c0.65-1.845,1.067-3.265,2.805-3.467
			c0.207-0.024,0.733,0.747,0.722,1.14C110.707,443.051,109.46,443.548,107.233,443.458z"/>
		<path fill-rule="evenodd" clip-rule="evenodd" fill="#D9DBDB" d="M105.598,430.272c0.366,2.567-0.509,3.409-2.675,3.589
			C103.073,432.127,103.67,431.022,105.598,430.272z"/>
		<path fill-rule="evenodd" clip-rule="evenodd" fill="#D9DBDB" d="M106.594,450.443c1.042-2.441,1.586-3.981,3.318-4.547
			c0.13-0.043,0.592,0.396,0.616,0.639C110.777,449.114,108.274,448.936,106.594,450.443z"/>
		<path fill-rule="evenodd" clip-rule="evenodd" fill="#D9DBDB" d="M77,404.001c1.741,0.776,2.197,2.518,3.001,3.998
			C76.107,408.838,76.59,406.392,77,404.001z"/>
		<path fill-rule="evenodd" clip-rule="evenodd" fill="#D9DBDB" d="M107,450c0.978,2.979-0.022,3.979-3,3
			C104.144,451.144,105.143,450.144,107,450z"/>
		<path fill-rule="evenodd" clip-rule="evenodd" fill="#D7D9D9" d="M232.926,478.079c0.132,3.677,2.462,7.405,0.1,11.19
			C234.256,485.498,226.417,481.835,232.926,478.079z"/>
		<path fill-rule="evenodd" clip-rule="evenodd" fill="#D7D9D9" d="M248.014,443.874c-1.87-0.54-3.084-1.29-3.578-0.96
			c-1.675,1.117-3.283,1.467-4.068-0.53c-0.434-1.104,1.216-1.942,2.234-2.647c2.199-1.525,2.753,0.095,3.435,1.691
			C246.282,442.005,246.839,442.447,248.014,443.874z"/>
		<path fill-rule="evenodd" clip-rule="evenodd" fill="#D7D9D9" d="M219.441,481.997c-2.316,1.425,2.55,8.848-5.415,6.067
			C216,485.979,216.371,483.018,219.441,481.997z"/>
		<path fill-rule="evenodd" clip-rule="evenodd" fill="#D7D9D9" d="M252.777,435.337c1.337,0.098,1.781,0.849,1.493,2.001
			c-0.311,1.244-0.519,2.821-2.388,2.373c-1.1-0.265-2.326-1.009-2.098-2.316C250.045,435.911,251.609,435.74,252.777,435.337z"/>
		<path fill-rule="evenodd" clip-rule="evenodd" fill="#D7D9D9" d="M200,484c4.929,0.035,3.787,3.106,3,6
			C199.8,489.1,201.878,485.562,200,484z"/>
		<path fill-rule="evenodd" clip-rule="evenodd" fill="#D7D9D9" d="M233.325,451.567c2.249-1.009,3.78-1.48,4.94,0.377
			c0.483,0.772,0.569,1.571-0.191,2.183c-1.11,0.893-1.563,0.177-2.18-0.786C235.454,452.654,234.464,452.32,233.325,451.567z"/>
		<path fill-rule="evenodd" clip-rule="evenodd" fill="#D7D9D9" d="M217.042,483.357c-2.037-1.159-2.451-3.34-5.497-2.826
			C216.401,477.879,216.401,477.879,217.042,483.357z"/>
		<path fill-rule="evenodd" clip-rule="evenodd" fill="#D7D9D9" d="M245.26,474.427c1.312-2.866-1.533-4.187,0.344-6.072
			c0.291-0.292,0.922-0.245,1.396-0.354C246.923,469.771,249.115,471.649,245.26,474.427z"/>
		<path fill-rule="evenodd" clip-rule="evenodd" fill="#D7D9D9" d="M247.926,463.456c1.405,0.738,0.484,2.325,1.115,3.456
			c0.59,1.058-0.921,1.242-1.524,1.023c-1.241-0.451-0.925-1.841-1.108-2.831C246.248,464.236,246.855,463.573,247.926,463.456z"/>
		<path fill-rule="evenodd" clip-rule="evenodd" fill="#D7D9D9" d="M239.042,469.74c-0.415-0.752-1.03-1.511-1.251-2.372
			c-0.213-0.83,0.263-1.79,1.209-1.761c1.208,0.037,1.467,1.229,1.629,2.179C240.784,468.696,240.235,469.344,239.042,469.74z"/>
		<path fill-rule="evenodd" clip-rule="evenodd" fill="#D7D9D9" d="M240.567,457.887c-0.104-2.994-0.02-4.31,1.277-4.987
			c0.289-0.151,1.456,0.522,1.479,0.867C243.432,455.334,241.9,455.68,240.567,457.887z"/>
		<path fill-rule="evenodd" clip-rule="evenodd" fill="#D7D9D9" d="M271.253,413.776c-0.413,1.017-1.356,1.165-2.331,1.152
			c-0.686-0.008-1.314-0.34-0.946-1.129c0.415-0.89,1.187-1.556,2.253-1.428C270.881,412.451,271.311,412.959,271.253,413.776z"/>
		<path fill-rule="evenodd" clip-rule="evenodd" fill="#D7D9D9" d="M225.863,466.502c-0.288,1.147-1.098,1.522-2.17,1.374
			c-0.815-0.114-1.105-0.638-0.582-1.32c0.566-0.738,1.105-1.743,2.189-1.604C226.075,465.05,225.933,465.88,225.863,466.502z"/>
		<path fill-rule="evenodd" clip-rule="evenodd" fill="#D7D9D9" d="M234.894,476.122c0.66,0.03,1.449,0.034,1.548,0.855
			c0.122,1.007-0.542,1.611-1.482,1.305c-0.609-0.197-1.798,0.409-1.795-0.763C233.167,476.638,233.938,476.13,234.894,476.122z"/>
		<path fill-rule="evenodd" clip-rule="evenodd" fill="#D7D9D9" d="M254.988,443.876c-0.405-0.492-0.942-1.082-1.362-1.746
			c-0.048-0.074,0.563-0.814,0.883-0.825c1.016-0.032,1.364,0.734,1.409,1.622C255.941,443.386,255.931,443.921,254.988,443.876z"/>
		<path fill-rule="evenodd" clip-rule="evenodd" fill="#D7D9D9" d="M262.764,444.282c-0.08,0.932-0.461,1.441-1.18,1.468
			c-0.735,0.026-1.2-0.441-1.052-1.199c0.136-0.692,0.69-1.129,1.384-1.008C262.268,443.604,262.545,444.079,262.764,444.282z"/>
		<path fill-rule="evenodd" clip-rule="evenodd" fill="#D7D9D9" d="M229.57,471.519c-0.679-0.722-1.39-1.204-1.691-1.87
			c-0.334-0.74,0.354-1.241,0.977-0.912c0.628,0.332,1.093,1.043,1.496,1.673C230.432,470.536,229.913,471.046,229.57,471.519z"/>
		<path fill-rule="evenodd" clip-rule="evenodd" fill="#D7D9D9" d="M234.961,467.939c-0.121,0.653-0.115,1.444-0.987,1.401
			c-0.263-0.014-0.779-0.805-0.692-0.95c0.297-0.5,0.743-1.087,1.255-1.247C235.592,466.813,234.646,467.761,234.961,467.939z"/>
		<path fill-rule="evenodd" clip-rule="evenodd" fill="#D7D9D9" d="M239.832,459.22c-0.417,0.353-0.796,0.913-1.084,0.87
			c-0.835-0.126-0.722-0.897-0.639-1.508c0.07-0.521,0.425-0.966,0.961-0.624C239.413,458.177,239.547,458.722,239.832,459.22z"/>
		<path fill-rule="evenodd" clip-rule="evenodd" fill="#D7D9D9" d="M256.83,431.391c1.145,1.993,1.559,3.018,0.219,4.101
			C255.672,434.304,257.264,433.102,256.83,431.391z"/>
		<path fill-rule="evenodd" clip-rule="evenodd" fill="#D7D9D9" d="M205.082,491.239c-0.487,0.532-0.759,1.092-1.056,1.105
			c-0.871,0.039-0.952-0.752-0.937-1.372c0.006-0.237-0.671-1.128,0.378-0.84C204.006,490.281,204.446,490.787,205.082,491.239z"/>
		<path fill-rule="evenodd" clip-rule="evenodd" fill="#D7D9D9" d="M208.926,488.182c-0.231,0.453-0.373,0.731-0.516,1.011
			c-0.341-0.301-0.744-0.56-0.986-0.926c-0.078-0.117,0.271-0.517,0.424-0.786C208.213,487.718,208.578,487.955,208.926,488.182z"/>
		<path fill-rule="evenodd" clip-rule="evenodd" fill="#D7D9D9" d="M238.363,473.754c0.218,0.188,0.561,0.482,0.904,0.777
			c-0.299,0.288-0.652,0.85-0.883,0.803c-0.379-0.076-0.834-0.488-0.978-0.865C237.19,473.902,237.567,473.613,238.363,473.754z"/>
		<path fill-rule="evenodd" clip-rule="evenodd" fill="#D7D9D9" d="M217.37,491.623c-0.389,0.364-0.67,0.742-1.046,0.927
			c-0.161,0.079-0.519-0.243-0.787-0.384c0.271-0.331,0.495-0.735,0.837-0.957C216.515,491.118,216.911,491.421,217.37,491.623z"/>
		<path fill-rule="evenodd" clip-rule="evenodd" fill="#D7D9D9" d="M235.076,464.452c0.233,0.307,0.652,0.617,0.686,0.964
			c0.038,0.407-0.139,0.979-0.435,1.244c-0.798,0.716-0.552-0.364-0.661-0.546C234.356,465.597,234.165,464.958,235.076,464.452z"/>
		<path fill-rule="evenodd" clip-rule="evenodd" fill="#D7D9D9" d="M223.465,461.325c0.235,0.362,0.477,0.733,0.718,1.104
			c-0.279,0.134-0.676,0.452-0.815,0.363c-0.348-0.22-0.578-0.625-0.855-0.955C222.781,461.692,223.051,461.548,223.465,461.325z"/>
		<path fill-rule="evenodd" clip-rule="evenodd" fill="#D7D9D9" d="M257.184,454.603c0.121-0.237,0.264-0.516,0.406-0.795
			c0.34,0.301,0.744,0.56,0.985,0.926c0.077,0.117-0.229,0.706-0.433,0.751C257.553,455.613,257.24,455.223,257.184,454.603z"/>
		<path fill-rule="evenodd" clip-rule="evenodd" fill="#D7D9D9" d="M245.562,434.423c-0.608,0.573-0.897,1.066-1.225,1.094
			c-0.349,0.029-0.771-0.346-1.074-0.635c-0.058-0.055-0.861-0.883,0.211-0.858C244.046,434.037,244.616,434.234,245.562,434.423z"
			/>
		<path fill-rule="evenodd" clip-rule="evenodd" fill="#D7D9D9" d="M257.957,430.044c0.219,0.119,0.574,0.313,0.932,0.507
			c-0.525,0.357-1.108,0.652-1.561,1.085c-0.812,0.777-0.812-0.257-0.824-0.439C256.449,430.364,257.094,430.175,257.957,430.044z"
			/>
		<path fill-rule="evenodd" clip-rule="evenodd" fill="#D9DBDB" d="M17.477,458.681c2.233,2.098-0.142,4.782,1.801,6.813
			c0.021,0.022-0.517,0.822-0.888,0.928c-0.8,0.228-1.266-0.394-1.251-1.073C17.188,463.125,17.355,460.903,17.477,458.681z"/>
		<path fill-rule="evenodd" clip-rule="evenodd" fill="#D9DBDB" d="M44.667,425.794c-1.102,1.425-2.232,1.758-3.526,1.354
			c-0.19-0.059-0.389-0.957-0.217-1.164C41.882,424.83,43.061,424.799,44.667,425.794z"/>
		<path fill-rule="evenodd" clip-rule="evenodd" fill="#D9DBDB" d="M42.947,421.12c0.886,0.037,1.711,0.31,1.427,1.359
			c-0.125,0.46-0.853,0.987-1.366,1.059c-0.913,0.127-1.515-0.51-1.478-1.446C41.563,421.268,42.295,421.189,42.947,421.12z"/>
		<path fill-rule="evenodd" clip-rule="evenodd" fill="#D9DBDB" d="M52.428,410.533c0.224-2.133,1.285-3.071,3.252-4.779
			C55.519,408.457,54.827,409.638,52.428,410.533z"/>
		<path fill-rule="evenodd" clip-rule="evenodd" fill="#D9DBDB" d="M12.548,474.479c-0.912,0.725-1.492,1.55-2.167,1.637
			c-0.975,0.126-1.222-0.898-1.301-1.727c-0.06-0.624-0.119-1.616,0.733-1.469C10.679,473.07,11.442,473.815,12.548,474.479z"/>
		<path fill-rule="evenodd" clip-rule="evenodd" fill="#D9DBDB" d="M15.246,469.101c-0.378,0.312-0.81,0.953-1.34,1.048
			c-1.091,0.195-1.261-0.857-1.455-1.594c-0.202-0.765,0.27-1.288,1.058-1.117C14.263,467.601,15.141,467.796,15.246,469.101z"/>
		<path fill-rule="evenodd" clip-rule="evenodd" fill="#D9DBDB" d="M33.502,441.612c-0.243,0.939-0.745,1.077-1.164,0.83
			c-0.546-0.323-1.125-0.763-1.417-1.3c-0.344-0.632,0.208-0.946,0.746-0.706C32.359,440.745,32.961,441.255,33.502,441.612z"/>
		<path fill-rule="evenodd" clip-rule="evenodd" fill="#D9DBDB" d="M6.165,470.04c0.463,0.098,1.157,0.146,0.758,0.826
			c-0.31,0.526-0.946,0.859-1.437,1.278c-0.256-0.393-0.708-0.775-0.73-1.181C4.703,470.014,5.519,470.095,6.165,470.04z"/>
		<path fill-rule="evenodd" clip-rule="evenodd" fill="#D9DBDB" d="M40.609,412.434c0.211,0.272,0.752,0.686,0.87,1.196
			c0.132,0.576-0.476,0.708-0.919,0.498c-0.405-0.193-0.895-0.493-1.046-0.867C39.308,412.754,39.677,412.393,40.609,412.434z"/>
		<path fill-rule="evenodd" clip-rule="evenodd" fill="#D9DBDB" d="M22.263,460.35c-0.196,0.229-0.492,0.574-0.789,0.92
			c-0.29-0.3-0.854-0.655-0.806-0.887c0.077-0.382,0.491-0.84,0.87-0.983C22.099,459.188,22.401,459.557,22.263,460.35z"/>
		<path fill-rule="evenodd" clip-rule="evenodd" fill="#DADBDB" d="M136.381,40.33c2.652,0.567,3.546,1.917,3.468,3.968
			c-0.028,0.729-0.621,1.404-1.25,1.117C136.673,44.534,136.727,42.621,136.381,40.33z"/>
		<path fill-rule="evenodd" clip-rule="evenodd" fill="#DADBDB" d="M130.171,63.722c-4.301-0.264-4.301-0.264-4.493-4.542
			C127.44,60.705,127.813,63.238,130.171,63.722z"/>
		<path fill-rule="evenodd" clip-rule="evenodd" fill="#DADBDB" d="M134.969,60.358c-1.501-0.127-1.835-1-1.771-2.092
			c0.053-0.906,0.584-1.659,1.468-1.748c1.266-0.128,1.672,0.986,1.867,1.926C136.803,59.739,135.72,60.039,134.969,60.358z"/>
		<path fill-rule="evenodd" clip-rule="evenodd" fill="#DADBDB" d="M126.57,36.81c-0.09-2.177,0.094-3.817,1.514-4.851
			c0.652-0.474,1.133,0.442,1.327,1.037C130.097,35.105,128.799,35.967,126.57,36.81z"/>
		<path fill-rule="evenodd" clip-rule="evenodd" fill="#DADBDB" d="M126.774,22.675c1.683,0.358,2.549,1.496,3.293,2.889
			C125.804,28.082,126.634,25.059,126.774,22.675z"/>
		<path fill-rule="evenodd" clip-rule="evenodd" fill="#DADBDB" d="M135.856,52.12c-0.538-1.036-1.047-1.579-1.057-2.13
			c-0.02-1.133,1.083-1.054,1.816-1.213c0.939-0.204,1.175,0.431,0.833,1.138C137.121,50.591,136.567,51.157,135.856,52.12z"/>
		<path fill-rule="evenodd" clip-rule="evenodd" fill="#DADBDB" d="M131.721,39.359c-1.169,1.504-1.916,2.97-3.131,1.903
			c-1.138-0.998-0.113-1.645,1.066-1.755C130.125,39.465,130.595,39.439,131.721,39.359z"/>
		<path fill-rule="evenodd" clip-rule="evenodd" fill="#DADBDB" d="M132.644,38.219c-0.34-0.603-0.82-1.056-0.759-1.419
			c0.175-1.046,1.208-0.911,1.95-1.04c0.608-0.104,0.934,0.423,0.623,0.897C134.131,37.154,133.537,37.475,132.644,38.219z"/>
		<path fill-rule="evenodd" clip-rule="evenodd" fill="#DCDDDD" d="M165.645,20.861c-0.508-0.438-1.071-0.775-1.026-0.916
			c0.124-0.384,0.444-0.823,0.801-0.977c0.306-0.131,0.768,0.104,1.161,0.176C166.307,19.646,166.033,20.148,165.645,20.861z"/>
		<path fill-rule="evenodd" clip-rule="evenodd" fill="#D6D7D7" d="M280,392c-8.521,1.364-17.102,0.374-25.652,0.572
			c-0.98,0.023-2.24-0.478-2.818,0.3c-2.742,3.681-5.982,1.934-9.272,1.215c-4.346-0.949-5.664-2.995-4.283-7.432
			c0.869-2.793,2.667-5.318,1.538-8.593c-0.284-0.822,0.884-2.047-1.067-2.221c-1.088-0.097-1.234-1.001-0.831-1.882
			c0.855-1.87,1.155-0.118,1.853,0.196c1.821,0.82,1.918-0.842,1.915-1.871c-0.01-3.176,0.691-6.074,1.828-9.083
			c1.128-2.987-2.225-4.075-3.987-5.646c-0.499-0.444-1.596-0.271-1.953-1.881c1.825,0.808,3.64-2.185,5.33,1.043
			c0.821,1.566,2.672,0.072,2.533-0.691c-1.292-7.062,3.653-13.12,2.839-20.303c-0.458-4.047,1.803-8.483,2.943-12.666
			c0.859-3.148,1.035-6.389,1.492-9.458c0.735-4.945,2.387-9.66,2.979-14.605c0.262-2.178,1.789-4.314-0.127-6.432
			c4.149-2.997,2.253-6.628,1.068-10.185c6.759-2.224,3.4-8.255,4.695-12.531c0.289-0.956,0.343-2.138,1.65-2.053
			c1.085,0.07,1.581,1.073,2.051,1.977c3.183,6.119,6.558,12.798,7.846,18.969c1.908,9.135,6.398,17.059,8.777,25.837
			c1.023,3.778,3.079,7.484,4.685,11.212c5.513,12.801,8.299,26.675,15.372,38.854c0.536,0.924,0.414,2.23,0.598,3.358
			C294.668,376.002,287.334,384.001,280,392z"/>
		<path fill-rule="evenodd" clip-rule="evenodd" fill="#D9DBDB" d="M360,276c5.746,4.554,10.751,9.892,16.029,14.909
			c4.621,4.392,10.084,8.229,15.006,12.511c8.326,7.241,16.595,14.551,24.775,21.956c2.582,2.337,4.803,5.071,7.189,7.624
			c-2.444,1.444-5.021,2.176-7.924,2.186c-6.691,0.022-13.352,1.593-19.955,1.545c-12.092-0.088-24.037,1.477-35.987,2.534
			c-8.376,0.741-16.858-0.115-25.134,1.734c-0.667-0.657-1.334-0.023-2,0.001c-1.957-1.118-3.396,0.355-5,1
			c-1.1-0.274-1.636-1.04-1.834-2.1c-0.02-0.49,0.064-0.967,0.24-1.426c5.748-3.044,8.189-8.32,9.422-14.304
			c0.754-3.664,2.619-6.921,4.399-9.973c2.604-4.465,3.63-9.488,5.91-14.066c1.593-3.195,1.599-7.003,5.39-8.999
			c0.887-0.468,0.412-2.194,0.326-3.337c-0.422-5.579,3.877-8.446,6.914-12.011C358.309,275.151,359.308,275.326,360,276z"/>
		<path fill-rule="evenodd" clip-rule="evenodd" fill="#DADBDC" d="M326,340c0.334,0.667,0.666,1.333,1,2
			c-0.364,0.554-1.006,1.087-1.051,1.666c-0.408,5.254-4.906,5.381-8.188,7.445c-1.326,0.835-3.002,3.78-4.392,5.832
			c-2.187,3.226-4.886,6.16-9.371,6.058c-0.37-3.229,0.96-6.176,1.659-9.205c0.452-1.961,0.9-3.82,0.343-5.796
			c1.077-0.752,2.794-1.291,1-3c0.218-2.461,0.662-4.858,1.999-7c0.79-0.667,0.715-1.333,0-2c1.84-9.091,3.007-18.26,5.559-27.294
			c1.393-4.931,2.684-10.565,2.895-15.9c0.262-6.625,2.486-12.812,3.016-19.363c0.522-6.47,2.271-12.844,3.539-19.248
			c0.152-0.768,0.652-1.465,0.992-2.194c0.199,0.767,0.781,2.104,1.369,1.21c1.404-2.141,2.137-1.226,3.258,0.078
			c1.27,1.478,2.107,2.782,4.767,1.029c1.782-1.176,3.194,1.589,2.468,3.667c-1.342,3.838-0.248,5.07,3.644,4.122
			c2.151-0.524,4.932,1.749,6.746-1.739c-1.691,4.888,3.316,6.354,4.081,9.845c1.83-0.421,1.232-1.49,1.162-2.438
			c-0.029-0.414,0.268-0.853,0.415-1.28c0.438,0.172,1.271,0.439,1.257,0.501c-1.212,4.991,4.11,5.195,5.834,8.006
			c0,0.333,0,0.667,0,1c-3.524,3.949-8.896,6.822-7.401,13.614c0.359,1.633,0.685,3.698-2.408,4.123
			c-1.458,0.2-4.742,0.973-2.015,4.53c1.296,1.69-2.006,3.333-3.033,5.112c-0.661,1.146-4.033,2.476,0.238,3.536
			c0.912,0.226,1.125,2.384-0.648,2.027c-1.936-0.389-1.85,0.314-2.551,1.72c-3.695,7.407-5.691,15.476-9.271,22.944
			c-1.598,3.334-3.114,5.479-6.91,5.393C325.344,339.333,325.252,339.667,326,340z"/>
		<path fill-rule="evenodd" clip-rule="evenodd" fill="#DADBDB" d="M409,396c-2.102,2.072-5.562,1.9-7.346,4.681
			c-0.883,1.376-1.939,0.564-2.553-0.757c-0.624-1.344-1.395-2.619-2.102-3.924c2.326-0.558,4.775,0.025,6.945-1.984
			C406.182,391.946,407.609,394.503,409,396z"/>
		<path fill-rule="evenodd" clip-rule="evenodd" fill="#DADBDC" d="M332,341c0.666-0.896,1.333-0.896,2-0.001
			c-1.508,0.936-0.446,3.169-2.332,4.245C330.529,343.688,332.214,342.354,332,341z"/>
		<path fill-rule="evenodd" clip-rule="evenodd" fill="#DADBDB" d="M413,396c-1,1.357-2,0.354-3,0
			c0.756-0.714-0.05-2.548,1.391-2.525C412.648,393.494,412.864,394.884,413,396z"/>
		<path fill-rule="evenodd" clip-rule="evenodd" fill="#D9DBDB" d="M325,252c-5.506-0.138-10.936-0.959-16.197,2.228
			c-2.809,1.701-6.559,1.968-9.938,2.587c-10.487,1.921-20.984,3.686-31.07,7.387c-3.691,1.354-6.013-1.765-3.872-6.402
			c3.104-6.725,1.415-14.14,3.991-20.76c2.611-6.713,2.711-13.925,4.626-20.754c0.146-0.524,0.957-0.861,1.459-1.286
			c4.301,2.57,7.497,6.771,12.882,7.84c2.676,0.531,3.255,4.138,5.793,5.731c8.24,5.176,16.152,10.87,24.199,16.355
			c2.719,1.854,4.857,4.551,8.24,5.472C325.825,250.591,325.556,251.485,325,252z"/>
		<path fill-rule="evenodd" clip-rule="evenodd" fill="#D7D9D9" d="M319,205.001c1.316-4.708,4.505-6.724,10.543-5.309
			c2.629,0.616,4.969,1.037,7.565,0.538c1.281-0.246,1.686,0.721,1.891,1.769c-5.157-0.415-9.768,2.215-14.802,2.753
			C322.453,204.938,320.721,204.797,319,205.001z"/>
		<path fill-rule="evenodd" clip-rule="evenodd" fill="#D9DBDB" d="M297.674,226.51c-0.494,0.385-0.855,0.881-1.174,0.855
			c-0.33-0.026-0.861-0.561-0.859-0.869c0.002-0.31,0.539-0.838,0.869-0.859C296.83,225.615,297.184,226.116,297.674,226.51z"/>
		<path fill-rule="evenodd" clip-rule="evenodd" fill="#DADBDB" d="M375.236,402.246c-0.096,3.297-2.746,4.579-3.486,6.945
			c-0.2,0.642-0.055,2.299-1.689,1.543c-1.166-0.54-0.801-1.529-0.723-2.53C369.612,404.684,372.163,403.49,375.236,402.246z"/>
		<path fill-rule="evenodd" clip-rule="evenodd" fill="#DADBDB" d="M381.902,408.221c-1.738-1.027-4.454-0.872-4.154-3.488
			c0.061-0.525,2.145-1.428,2.928-1.144C382.787,404.358,381.975,406.437,381.902,408.221z"/>
		<path fill-rule="evenodd" clip-rule="evenodd" fill="#DADBDB" d="M370.332,410.575c2.698,1.037,4.281,1.598,4.079,3.681
			c-0.032,0.33-0.681,0.599-1.044,0.896C372.486,413.823,371.605,412.495,370.332,410.575z"/>
		<path fill-rule="evenodd" clip-rule="evenodd" fill="#DADBDB" d="M337.53,432.355c-0.761-1.707,0.024-2.656,1.675-4.24
			C339.456,430.327,339.159,431.438,337.53,432.355z"/>
		<path fill-rule="evenodd" clip-rule="evenodd" fill="#DADBDB" d="M373.139,419.062c0.154,0.887,0.123,1.559-0.445,1.416
			c-0.516-0.129-1.09-0.717-1.291-1.236c-0.26-0.67,0.145-1.479,0.918-1.35C372.732,417.961,373.006,418.855,373.139,419.062z"/>
		<path fill-rule="evenodd" clip-rule="evenodd" fill="#DADBDB" d="M380.096,412.089c-0.316,0.162-0.713,0.528-1.113,0.534
			c-0.667,0.011-1.314-0.354-1.008-1.146c0.103-0.266,0.832-0.38,1.282-0.396C379.746,411.062,380.207,411.271,380.096,412.089z"/>
		<path fill-rule="evenodd" clip-rule="evenodd" fill="#DADBDB" d="M353.433,425.979c-0.201,0.276-0.57,0.784-0.94,1.292
			c-0.312-0.305-0.934-0.688-0.881-0.901c0.148-0.588,0.459-1.299,0.934-1.592C352.961,424.521,353.4,425.059,353.433,425.979z"/>
		<path fill-rule="evenodd" clip-rule="evenodd" fill="#DADBDB" d="M386.66,410.793c-0.49,0.264-1.014,0.545-1.537,0.826
			c-0.092-0.26-0.334-0.674-0.252-0.753c0.436-0.419,0.951-0.753,1.438-1.116C386.401,410.023,386.493,410.297,386.66,410.793z"/>
		<path fill-rule="evenodd" clip-rule="evenodd" fill="#D4D6D6" d="M330.999,138.001c-0.667-0.667-1.333-1.333-2-1.999
			c2.722-8.122,9.724-13.467,13.544-20.876c3.094-5.999,6.782-11.925,10.976-16.868c4.828-5.691,7.735-12.615,13.011-17.859
			c1.426-1.416,3.604-2.715,2.471-5.399c2.283-1.256,1.846,1.565,3,2.001c0.934,9.836,2.072,19.634,3.742,29.389
			c1.246,7.28,1.559,14.716,2.444,22.062c1.274,10.581,2.707,21.143,4.038,31.717c0.326,2.602,0.52,5.221,0.774,7.831L382.5,168H382
			c-7.216-1.827-13.101-6.329-19.311-10.027c-9.25-5.509-18.843-10.423-27.906-16.246
			C333.243,140.736,331.576,139.94,330.999,138.001z"/>
		<path fill-rule="evenodd" clip-rule="evenodd" fill="#D9DADA" d="M330.999,138.001c16.446,9.401,32.897,18.796,49.325,28.232
			c0.674,0.388,1.123,1.169,1.676,1.767c-4.455,7.247-11.953,10.979-18.217,16.188C357.859,189.115,351.89,194.017,346,199
			c-3.07-0.939-4.527-2.408-3.422-6.081c1.049-3.481-1.775-6.482-2.639-9.771c-1.028-3.922-3.262-7.375-2.576-11.883
			c0.359-2.357,0.347-5.26-2.199-7.695c-1.185-1.134-0.792-5.126-0.309-7.348c0.5-2.308-0.295-3.576-1.299-4.817
			C330.266,147.334,330.72,142.679,330.999,138.001z"/>
		<path fill-rule="evenodd" clip-rule="evenodd" fill="#D9DADA" d="M407.627,220.393c0.57,0.395,1.271,0.653,1.273,0.921
			c0.014,1.048-0.932,0.664-1.439,0.629c-0.375-0.025-1.276,0.632-1.165-0.364C406.344,221.145,407.146,220.796,407.627,220.393z"/>
		<path fill-rule="evenodd" clip-rule="evenodd" fill="#D5D7D7" d="M273,199c-1.236,4.205-7.061,4.941-7.441,9.819
			c-0.018,0.22-0.467,0.52-0.762,0.589c-11.871,2.824-19.827,11.876-29.367,18.411c-8.019,5.493-16.226,10.697-24.442,15.895
			c-4.679,2.961-9.383,6.278-12.686,11.005c-0.083,0.119-0.024,0.462-0.069,0.47c-9.194,1.508-14.634,9.599-22.764,12.957
			c-0.116,0.048-0.31-0.093-0.467-0.146c-1.806-10.916-3.663-21.823-5.403-32.749c-1.923-12.074-3.738-24.166-5.6-36.25
			c0.7-2.812,3.022-1.719,4.787-2.01c2.078-0.342,4.144,0.96,6.215,0.009c21.561,0.632,43.134,0.774,64.692,1.249
			C250.785,198.492,261.893,198.869,273,199z"/>
		<path fill-rule="evenodd" clip-rule="evenodd" fill="#D9DADA" d="M224.604,177.457c-0.3,0.243-0.636,0.515-0.972,0.786
			c-0.479-0.604-1.125-1.141-1.395-1.826c-0.379-0.964,0.534-0.333,0.714-0.339C223.771,176.053,224.512,176.277,224.604,177.457z"
			/>
		<path fill-rule="evenodd" clip-rule="evenodd" fill="#D7D9D9" d="M274,25c-0.713-0.193-1.427-0.387-2.141-0.58
			c0.267-0.331,0.504-0.913,0.805-0.947C273.715,23.354,273.857,24.216,274,25L274,25z"/>
		<path fill-rule="evenodd" clip-rule="evenodd" fill="#DBDCDC" d="M307.001,345c0.87-0.246,1.808-1.157,2.599-0.028
			c0.61,0.871,0.399,1.899-0.162,2.748c-0.994,1.5-2.236,0.828-3.437,0.28C306.334,347,306.668,346,307.001,345z"/>
		<path fill-rule="evenodd" clip-rule="evenodd" fill="#DBDCDC" d="M309,336c0.975,0.178,2.582-0.352,2.491,1.253
			c-0.098,1.717-1.464,1.09-2.491,0.747C309,337.333,309,336.667,309,336z"/>
		<path fill-rule="evenodd" clip-rule="evenodd" fill="#DADBDC" d="M346.34,315.444c0.151,0.31,0.507,0.707,0.478,1.073
			c-0.029,0.371-0.438,0.712-0.683,1.066c-0.178-0.367-0.446-0.718-0.512-1.104C345.552,316.063,345.468,315.503,346.34,315.444z"/>
		<path fill-rule="evenodd" clip-rule="evenodd" fill="#DBDCDC" d="M326,340c-0.704,0.157-1.408,0.314-2.112,0.473
			c0.032-0.419-0.058-0.903,0.122-1.244c0.512-0.967,1.287-0.452,1.99-0.229C326,339.333,326,339.667,326,340z"/>
		<path fill-rule="evenodd" clip-rule="evenodd" fill="#DBDCDC" d="M339.992,277.904c-0.398-1.779,0.258-2.76,1.473-2.637
			c1.453,0.146,0.562,1.054,0.088,1.585C341.26,277.182,340.807,277.369,339.992,277.904z"/>
		<path fill-rule="evenodd" clip-rule="evenodd" fill="#DBDCDC" d="M347.744,267.465c0.233,0.541,0.601,0.974,0.521,1.293
			c-0.171,0.682-0.784,1.079-1.46,0.765c-0.236-0.11-0.383-0.863-0.248-1.189C346.695,267.996,347.226,267.82,347.744,267.465z"/>
		<path fill-rule="evenodd" clip-rule="evenodd" fill="#DBDCDC" d="M322.596,343.19c-1.471-0.174-2.031-0.959-2.283-2.59
			C321.752,341.094,322.484,341.713,322.596,343.19z"/>
		<path fill-rule="evenodd" clip-rule="evenodd" fill="#DBDCDC" d="M330.671,260.945c-0.386,0.325-0.677,0.688-1.052,0.837
			c-0.19,0.075-0.535-0.239-0.809-0.377c0.291-0.337,0.543-0.734,0.898-0.976C329.822,260.353,330.217,260.691,330.671,260.945z"/>
		<path fill-rule="evenodd" clip-rule="evenodd" fill="#DBDCDC" d="M314.535,351.419c-0.587,0.371-0.939,0.702-1.355,0.832
			c-0.578,0.181-0.969-0.183-0.758-0.736c0.142-0.373,0.597-0.787,0.973-0.858C313.674,350.604,314.051,351.074,314.535,351.419z"/>
	</g>
</g>
</svg>
