<?xml version="1.0" encoding="utf-8"?>
<!-- Generator: Adobe Illustrator 16.0.0, SVG Export Plug-In . SVG Version: 6.00 Build 0)  -->
<!DOCTYPE svg PUBLIC "-//W3C//DTD SVG 1.1//EN" "http://www.w3.org/Graphics/SVG/1.1/DTD/svg11.dtd">
<svg version="1.1" id="Capa_1" xmlns="http://www.w3.org/2000/svg" xmlns:xlink="http://www.w3.org/1999/xlink" x="0px" y="0px"
	 width="300px" height="300px" viewBox="0 0 300 300" enable-background="new 0 0 300 300" xml:space="preserve">
<polygon id="cuarentayocho" fill="#C13745" stroke="#C13745" stroke-linejoin="round" stroke-miterlimit="1" points="
	280.085,185.834 247.564,257.504 280.085,257.504 "/>
<polygon id="cuarentaysiete" fill="#861845" stroke="#861845" stroke-linejoin="round" stroke-miterlimit="1" points="
	247.564,185.834 247.564,257.504 280.085,185.834 "/>
<polygon id="cuarentayseis" fill="#931E45" stroke="#931E45" stroke-linejoin="round" stroke-miterlimit="1" points="
	280.085,114.166 247.564,185.834 280.085,185.834 "/>
<polygon id="cuarentaycinco" fill="#B63145" stroke="#B63145" stroke-linejoin="round" stroke-miterlimit="1" points="
	247.564,114.166 247.564,185.834 280.085,114.166 "/>
<polygon id="cuarentaycuatro" fill="#B12E45" stroke="#B12E45" stroke-linejoin="round" stroke-miterlimit="1" points="
	280.085,42.497 247.564,114.166 280.085,114.166 "/>
<polygon id="cuarentaytres" fill="#D64245" stroke="#D64245" stroke-linejoin="round" stroke-miterlimit="1" points="
	247.564,42.497 247.564,114.166 280.085,42.497 "/>
<polygon id="cuarentaydos" fill="#9A2245" stroke="#9A2245" stroke-linejoin="round" stroke-miterlimit="1" points="
	247.564,185.834 215.042,257.504 247.564,257.504 "/>
<polygon id="cuarentayuno" fill="#B32F45" stroke="#B32F45" stroke-linejoin="round" stroke-miterlimit="1" points="
	215.042,185.834 215.042,257.504 247.564,185.834 "/>
<polygon id="cuarenta" fill="#D13F45" stroke="#D13F45" stroke-linejoin="round" stroke-miterlimit="1" points="247.564,114.166 
	215.042,185.834 247.564,185.834 "/>
<polygon id="treintaynueve" fill="#E14845" stroke="#E14845" stroke-linejoin="round" stroke-miterlimit="1" points="
	215.042,114.166 215.042,185.834 247.564,114.166 "/>
<polygon id="treintayocho" fill="#DE4645" stroke="#DE4645" stroke-linejoin="round" stroke-miterlimit="1" points="247.564,42.497 
	215.042,114.166 247.564,114.166 "/>
<polygon id="treintaysiete" fill="#E54A45" stroke="#E54A45" stroke-linejoin="round" stroke-miterlimit="1" points="
	215.042,42.497 215.042,114.166 247.564,42.497 "/>
<polygon id="treintayseis" fill="#962045" stroke="#962045" stroke-linejoin="round" stroke-miterlimit="1" points="
	215.042,185.834 182.521,257.504 215.042,257.504 "/>
<polygon id="treintaycinco" fill="#BC3445" stroke="#BC3445" stroke-linejoin="round" stroke-miterlimit="1" points="
	182.521,185.834 182.521,257.504 215.042,185.834 "/>
<polygon id="treintaycuatro" fill="#DD4645" stroke="#DD4645" stroke-linejoin="round" stroke-miterlimit="1" points="
	215.042,114.166 182.521,185.834 215.042,185.834 "/>
<polygon id="treintaytres" fill="#FF5E45" stroke="#FF5E45" stroke-linejoin="round" stroke-miterlimit="1" points="
	182.521,114.166 182.521,185.834 215.042,114.166 "/>
<polygon id="treintaydos" fill="#FF6045" stroke="#FF6045" stroke-linejoin="round" stroke-miterlimit="1" points="215.042,42.497 
	182.521,114.166 215.042,114.166 "/>
<polygon id="treintayuno" fill="#FF5B45" stroke="#FF5B45" stroke-linejoin="round" stroke-miterlimit="1" points="182.521,42.497 
	182.521,114.166 215.042,42.497 "/>
<polygon id="treinta" fill="#B53045" stroke="#B53045" stroke-linejoin="round" stroke-miterlimit="1" points="182.521,185.834 
	150,257.504 182.521,257.504 "/>
<polygon id="veintinueve" fill="#D64245" stroke="#D64245" stroke-linejoin="round" stroke-miterlimit="1" points="150,185.834 
	150,257.504 182.521,185.834 "/>
<polygon id="veintiocho" fill="#FF6045" stroke="#FF6045" stroke-linejoin="round" stroke-miterlimit="1" points="182.521,114.166 
	150,185.834 182.521,185.834 "/>
<polygon id="veintisiete" fill="#FF6D45" stroke="#FF6D45" stroke-linejoin="round" stroke-miterlimit="1" points="150,114.166 
	150,185.834 182.521,114.166 "/>
<polygon id="veintiseis" fill="#FF8A45" stroke="#FF8A45" stroke-linejoin="round" stroke-miterlimit="1" points="182.521,42.497 
	150,114.166 182.521,114.166 "/>
<polygon id="veinticinco" fill="#FF9245" stroke="#FF9245" stroke-linejoin="round" stroke-miterlimit="1" points="150,42.497 
	150,114.166 182.521,42.497 "/>
<polygon id="veinticuatro" fill="#C33845" stroke="#C33845" stroke-linejoin="round" stroke-miterlimit="1" points="150,185.834 
	117.479,257.504 150,257.504 "/>
<polygon id="veintitres" fill="#D24045" stroke="#D24045" stroke-linejoin="round" stroke-miterlimit="1" points="117.479,185.834 
	117.479,257.504 150,185.834 "/>
<polygon id="veintidos" fill="#FF5945" stroke="#FF5945" stroke-linejoin="round" stroke-miterlimit="1" points="150,114.166 
	117.479,185.834 150,185.834 "/>
<polygon id="veinteuno" fill="#FF8045" stroke="#FF8045" stroke-linejoin="round" stroke-miterlimit="1" points="117.479,114.166 
	117.479,185.834 150,114.166 "/>
<polygon id="veinte" fill="#FFFC45" stroke="#FFFC45" stroke-linejoin="round" stroke-miterlimit="1" points="150,42.497 
	117.479,114.166 150,114.166 "/>
<polygon id="diecinueve" fill="#FFA845" stroke="#FFA845" stroke-linejoin="round" stroke-miterlimit="1" points="117.479,42.497 
	117.479,114.166 150,42.497 "/>
<polygon id="dieciocho" fill="#BB3345" stroke="#BB3345" stroke-linejoin="round" stroke-miterlimit="1" points="117.479,185.834 
	84.957,257.504 117.479,257.504 "/>
<polygon id="diecisiete" fill="#C93B45" stroke="#C93B45" stroke-linejoin="round" stroke-miterlimit="1" points="84.957,185.834 
	84.957,257.504 117.479,185.834 "/>
<polygon id="dieciseis" fill="#F55345" stroke="#F55345" stroke-linejoin="round" stroke-miterlimit="1" points="117.479,114.166 
	84.957,185.834 117.479,185.834 "/>
<polygon id="quince" fill="#FF6545" stroke="#FF6545" stroke-linejoin="round" stroke-miterlimit="1" points="84.957,114.166 
	84.957,185.834 117.479,114.166 "/>
<polygon id="catorce" fill="#FFB245" stroke="#FFB245" stroke-linejoin="round" stroke-miterlimit="1" points="117.479,42.497 
	84.957,114.166 117.479,114.166 "/>
<polygon id="trece" fill="#FF8545" stroke="#FF8545" stroke-linejoin="round" stroke-miterlimit="1" points="84.957,42.497 
	84.957,114.166 117.479,42.497 "/>
<polygon id="doce" fill="#B12E45" stroke="#B12E45" stroke-linejoin="round" stroke-miterlimit="1" points="84.957,185.834 
	52.437,257.504 84.957,257.504 "/>
<polygon id="once" fill="#BD3545" stroke="#BD3545" stroke-linejoin="round" stroke-miterlimit="1" points="52.437,185.834 
	52.437,257.504 84.957,185.834 "/>
<polygon id="diez" fill="#E64A45" stroke="#E64A45" stroke-linejoin="round" stroke-miterlimit="1" points="84.957,114.166 
	52.437,185.834 84.957,185.834 "/>
<polygon id="nueve" fill="#D44145" stroke="#D44145" stroke-linejoin="round" stroke-miterlimit="1" points="52.437,114.166 
	52.437,185.834 84.957,114.166 "/>
<polygon id="ocho" fill="#FA5545" stroke="#FA5545" stroke-linejoin="round" stroke-miterlimit="1" points="84.957,42.497 
	52.437,114.166 84.957,114.166 "/>
<polygon id="siete" fill="#FF5A45" stroke="#FF5A45" stroke-linejoin="round" stroke-miterlimit="1" points="52.437,42.497 
	52.437,114.166 84.957,42.497 "/>
<polygon id="seis" fill="#AD2C45" stroke="#AD2C45" stroke-linejoin="round" stroke-miterlimit="1" points="52.437,185.834 
	19.915,257.504 52.437,257.504 "/>
<polygon id="cinco" fill="#A82945" stroke="#A82945" stroke-linejoin="round" stroke-miterlimit="1" points="19.915,185.834 
	19.915,257.504 52.437,185.834 "/>
<polygon id="cuatro" fill="#C13745" stroke="#C13745" stroke-linejoin="round" stroke-miterlimit="1" points="52.437,114.166 
	19.915,185.834 52.437,185.834 "/>
<polygon id="tres" fill="#E64B45" stroke="#E64B45" stroke-linejoin="round" stroke-miterlimit="1" points="19.915,114.166 
	19.915,185.834 52.437,114.166 "/>
<polygon id="dos" fill="#FF5945" stroke="#FF5945" stroke-linejoin="round" stroke-miterlimit="1" points="52.437,42.497 
	19.915,114.166 52.437,114.166 "/>
<polygon id="uno" fill="#A62845" stroke="#A62845" stroke-linejoin="round" stroke-miterlimit="1" points="19.915,42.497 
	19.915,114.166 52.437,42.497 "/>
</svg>
