<svg version="1.1" x="900" y="50" xmlns="http://www.w3.org/2000/svg" xmlns:xlink="http://www.w3.org/1999/xlink" viewBox="0 0 349 236">
<g id="sobre">
<polygon fill="#47C9AF" points="70.7,95.3 121.3,125.1 121.3,61.9"></polygon>
<polygon fill="#16A085" points="21.5,61.9 21.5,125.1 121.5,125.1"></polygon>
<polygon fill="#47C9AF" points="76.3,91.7 21.5,61.9 21.5,125.1"></polygon>
<polyline fill="#237C6B" points="121.3,61.9 73.1,97 21.5,61.9"></polyline>
<animateTransform id="cerrar" attributeName="transform" type="translate" from="0" to="1000" dur="5s" repeatDur="1" begin="1s" fill="freeze"></animateTransform>
</g>
<line stroke="#95A5A6" stroke-width="4" x1="136.8" y1="135.1" x2="8" y2="135.1">
<animateTransform id="tapa" attributeName="transform" type="translate" from="0" to="1000" dur="5s" repeatDur="1" begin="cerrar.end" fill="freeze"></animateTransform>
</line>
<line stroke="#95A5A6" stroke-width="6" x1="241.3" y1="231.6" x2="241.3" y2="137.6"></line>
<line stroke="#6D7575" stroke-width="6" x1="241.3" y1="150.9" x2="241.3" y2="137.6"></line>
<path fill="#34495E" d="M340,138.4H130.6c0,0,0.2-93,2.5-100.1c1.5,0,200.5-0.1,201.7,0C341.5,39.4,340,138.4,340,138.4z"></path>
<path fill="#2C3E50" d="M340,138.4H130.6c0,0,203.1-100.1,204.2-100.1C341.5,39.4,340,138.4,340,138.4z"></path>
<g>
<polyline fill="none" stroke="#E74C3C" stroke-width="9" points="154,93 154,10 190,10"></polyline>
<animateTransform attributeType="xml" attributeName="transform" type="rotate" from="0 154 88" to="90 154 88" begin="tapa.end" dur="1s" repeatCount="1" fill="freeze"></animateTransform>
</g>
<rect x="150.8" y="84.4" fill="#2C3E50" width="6.6" height="6.6"></rect>
<g fill="#FFF">
<path d="M191.5,122.5c-0.1,0.1-0.2,0.2-0.2,0.2c-0.4-1-2.2-1.2-2.5-0.4c-0.4,0.9-0.4,1.5-0.2,2.2 c0.1,1.4,0,2,0.1,2.5c0.1,0.6,0.4,0.9,1.2,1c0.4,0.1,1.2-0.7,1.4-1.4c0.1-0.1,0.7,0.1,0.7,0.2c-0.6,1-0.4,1.4-1.9,1.9 c-1.5,0.5-2.2-1.2-2.4-1.5c-0.1-0.5-0.1-0.9-0.1-1.1c0-0.1,0-0.2,0-0.4c0-0.1,0-0.5,0-1c-0.1-1.4-0.2-1.5,0.5-2.9 c0.5-1,3.2-0.6,3.5,0.2C191.8,122.4,191.6,122.5,191.5,122.5z"></path>
<path d="M193.3,124.3c0-0.9,0.1-1.9,0.7-2.5c0.4-0.4,1-0.5,1.7-0.5c1.9,0,1.7,2.6,1.7,4.5c0,2-0.4,3-1.9,3 c-2,0-2.4-1.7-2.4-3.6C193.3,124.9,193.2,124.5,193.3,124.3z M196.2,127.9L196.2,127.9c0,0,0-0.1,0.1-0.1c0.2-0.4,0.2-0.5,0.2-2 c0-1.9-0.1-3.6-0.9-3.6c-0.4,0-0.9,0.1-1.1,0.4c-0.4,0.4-0.5,1.1-0.5,1.9v0.4c0,0.1,0,0.1,0,0.1v0.4c0,0.1,0,0.1,0,0.1v0.4 c0,1.1,0.2,2.2,1.4,2.2h0.2l0.4-0.1C196.2,127.9,196.2,127.9,196.2,127.9L196.2,127.9z"></path>
<path d="M200,128.8c0,0.1-0.6,0.1-0.6,0.1c-0.1,0-0.1-0.1-0.1-0.2c-0.1-0.2-0.1-0.4-0.1-0.6v-1.2c0-0.6,0-1,0-1.2 c0-0.4,0-0.9,0-1.7c0-0.7,0.1-1.7,0.1-2.5c0-0.1,0.6-0.1,0.9,0v0.4c0.1-0.2,0.4-0.2,0.7-0.4c0.1-0.1,0.4-0.1,0.7-0.2 c0.4-0.1,0.6-0.1,0.9,0.1c0.6,0.2,0.9,0.9,1,1.4c0.4,1.5,0.2,2.7,0.2,4.1c0,0.7,0.1,1.1,0,2c-0.2-0.1-0.7,0.2-0.7-0.1v-0.1v-0.1 c0.1-1,0-1.5,0-2.5v-0.4c0-0.1,0-0.4-0.1-1c0-0.6-0.1-1.1-0.1-1.4c-0.1-0.6-0.2-1.1-0.9-1.1c-0.5,0-0.7,0.1-1.4,0.5 c-0.2,0.1-0.4,0.5-0.4,1c0,0.5,0,1.4-0.1,2.5c-0.1,1.2,0,1.9-0.1,2.2C200,128.3,200.2,128.8,200,128.8z"></path>
<path d="M205.5,119.9c0-1.5,0-1.7,0.1-2.2c0.1-0.1,0.6,0,0.7,0c-0.1,0.9-0.1,1.6,0,2.2c0.7,0,1,0.1,1.5,0.1 c0.1,0.1,0.1,0.5,0,0.6c-0.6,0-0.9,0-1.5-0.1c0,1.7-0.1,5,0.1,6.6c0.1,1.7,1.5,0.6,1.4,0.5l0.4,0.4c0.2,0.4-1.9,1.4-2.4,0.4 c-0.4-1-0.2-1-0.2-3c0-1.6,0-0.9-0.1-2.5V119.9z"></path>
<path d="M209.7,121.7c0.9-0.2,1-0.5,1.9-0.4c2.7,0.2,1.9,3.1,2,5.1c-0.1,0.9-0.1,1.4-0.1,1.5s0,0.2,0,0.4l-0.1,0.6 c-0.1,0.1-0.6,0.1-0.7,0c-0.7,0-2.5,0.5-3-0.7c-0.4-1-0.4-3.1,0.5-3.9c0.7-0.6,1.4-0.4,2.5-0.1c0-0.4,0.1,0.2,0.1-0.1 c-0.1-0.9-0.1-1.9-1.1-1.9c-1,0.1-0.9,0.1-1.7,0.4C210,122.4,209.5,121.9,209.7,121.7z M212.7,126.5c0-0.2,0-1.5,0-1.7 c-0.7-0.1-1-0.2-1.7-0.1c-0.6,0.2-0.9,1.5-0.6,3c0.2,0.9,1.2,0.5,2,0.5c0.1,0,0.1,0,0.1,0c0-0.4,0.1-1,0.1-1.4v-0.2H212.7z"></path>
<path d="M219.3,122.5c-0.1,0.1-0.2,0.2-0.2,0.2c-0.4-1-2.2-1.2-2.5-0.4c-0.4,0.9-0.4,1.5-0.2,2.2 c0.1,1.4,0,2,0.1,2.5c0.1,0.6,0.4,0.9,1.2,1c0.4,0.1,1.2-0.7,1.4-1.4c0.1-0.1,0.7,0.1,0.7,0.2c-0.6,1-0.4,1.4-1.9,1.9 c-1.5,0.5-2.2-1.2-2.4-1.5c-0.1-0.5-0.1-0.9-0.1-1.1c0-0.1,0-0.2,0-0.4c0-0.1,0-0.5,0-1c-0.1-1.4-0.2-1.5,0.5-2.9 c0.5-1,3.2-0.6,3.5,0.2C219.7,122.4,219.5,122.5,219.3,122.5z"></path>
<path d="M221.4,119.9c0-1.5,0-1.7,0.1-2.2c0.1-0.1,0.6,0,0.7,0c-0.1,0.9-0.1,1.6,0,2.2c0.7,0,1,0.1,1.5,0.1 c0.1,0.1,0.1,0.5,0,0.6c-0.6,0-0.9,0-1.5-0.1c0,1.7-0.1,5,0.1,6.6c0.1,1.7,1.5,0.6,1.4,0.5l0.4,0.4c0.2,0.4-1.9,1.4-2.4,0.4 c-0.4-1-0.2-1-0.2-3c0-1.6,0-0.9-0.1-2.5V119.9z"></path>
<path d="M225,124.3c0-0.9,0.1-1.9,0.7-2.5c0.4-0.4,1-0.5,1.7-0.5c1.9,0,1.7,2.6,1.7,4.5c0,2-0.4,3-1.9,3 c-2,0-2.4-1.7-2.4-3.6C225,124.9,225,124.5,225,124.3z M228,127.9C228,127.9,227.9,127.9,228,127.9c0,0,0-0.1,0.1-0.1 c0.2-0.4,0.2-0.5,0.2-2c0-1.9-0.1-3.6-0.9-3.6c-0.4,0-0.9,0.1-1.1,0.4c-0.4,0.4-0.5,1.1-0.5,1.9v0.4c0,0.1,0,0.1,0,0.1v0.4 c0,0.1,0,0.1,0,0.1v0.4c0,1.1,0.2,2.2,1.4,2.2h0.2l0.4-0.1C227.9,127.9,227.9,127.9,228,127.9L228,127.9z"></path>
<path d="M231.3,116.1c0.6-0.1,1.9,0,2.4,0.1c0.1,0.2,0.1,0.6-0.1,0.6c-0.4-0.1-1.5-0.1-1.7-0.1l0,0 c0.2,3-0.1,6.1,0.1,9.3c0.1,0.7-0.2,3.1,0.1,3.2c0.1,0.1,0.6,0.1,1.4,0c0.2,0.1,0.1,0.6,0.1,0.6c-2.7,0.4-2.5,0.2-2.5,0 c-0.1-0.6-0.1-3-0.1-3.7c-0.1-3.4-0.1-6.5-0.1-9.8C231,116.1,231.2,116,231.3,116.1z"></path>
<path d="M235.1,121.7c0.9-0.2,1-0.5,1.9-0.4c2.7,0.2,1.9,3.1,2,5.1c-0.1,0.9-0.1,1.4-0.1,1.5s0,0.2,0,0.4l-0.1,0.6 c-0.1,0.1-0.6,0.1-0.7,0c-0.7,0-2.5,0.5-3-0.7c-0.4-1-0.4-3.1,0.5-3.9c0.7-0.6,1.4-0.4,2.5-0.1c0-0.4,0.1,0.2,0.1-0.1 c-0.1-0.9-0.1-1.9-1.1-1.9c-1,0.1-0.9,0.1-1.7,0.4C235.2,122.4,234.8,121.9,235.1,121.7z M238.1,126.5c0-0.2,0-1.5,0-1.7 c-0.7-0.1-1-0.2-1.7-0.1c-0.6,0.2-0.9,1.5-0.6,3c0.2,0.9,1.2,0.5,2,0.5c0.1,0,0.1,0,0.1,0c0-0.4,0.1-1,0.1-1.4v-0.2H238.1z"></path>
<path d="M240.9,119.9c0-1.5,0-1.7,0.1-2.2c0.1-0.1,0.6,0,0.7,0c-0.1,0.9-0.1,1.6,0,2.2c0.7,0,1,0.1,1.5,0.1 c0.1,0.1,0.1,0.5,0,0.6c-0.6,0-0.9,0-1.5-0.1c0,1.7-0.1,5,0.1,6.6c0.1,1.7,1.5,0.6,1.4,0.5l0.4,0.4c0.2,0.4-1.9,1.4-2.4,0.4 c-0.4-1-0.2-1-0.2-3c0-1.6,0-0.9-0.1-2.5L240.9,119.9L240.9,119.9z"></path>
<path d="M244.6,116.2c0.6-0.1,1-0.1,1.5-0.1c0.1-0.1,0.6-0.1,0.7,0.1c0.1,0.1,0.1,0.4,0.1,0.5c-0.1,2,0,4,0.1,6 c0.1,1.9,0.1,4.5,0.1,6.7c0.2,1,0.1,0.4-0.4,0.6c-0.6,0-2.1,0.1-2.1-0.1c0-0.1-0.2-0.4,0.1-0.6c0.5-0.2,1,0.1,1.5,0 c0.1-2,0-4.6-0.1-6.7c0.1-1.9-0.2-4-0.1-6c-0.4,0-0.7,0-1.2,0.1C244.6,116.8,244.5,116.5,244.6,116.2z"></path>
<path d="M250.2,122c0,1.5,0.2,2.4,0.1,4c0.1,0.4,0.1,0.9,0.1,1.1s0.1,0.7,0,1.1c0,0.9,0.1,1.4-0.1,2.2 c0,0.6-0.4,2.4-2.5,1.9c-0.1,0.2,0.1-0.4,0.1-0.6c1,0.4,1.7-0.6,1.7-1.2c0.1-0.4,0.1-0.9,0.1-1.1v-1.1c0-0.5,0-0.9,0-1.1 c0-0.2-0.1-0.7-0.1-1.1c0.1-1.5-0.1-2.6,0-4.5c0.1-0.1,0.6-0.1,0.7,0.1c0,0.1,0,0.1,0,0.1C250.3,121.9,250.2,121.9,250.2,122z  M249.4,119.6c0-0.1,0-0.2,0.1-0.4l0.1-0.1c0.1-0.1,0.2,0,0.4,0c0.5,0,0.6,0.6,0.4,1c-0.1,0.1-0.2,0.1-0.4,0.1 c-0.2,0.1-0.4,0-0.4-0.2C249.4,119.8,249.4,119.7,249.4,119.6L249.4,119.6z"></path>
<path d="M252.1,124.3c0-0.9,0.1-1.9,0.7-2.5c0.4-0.4,1-0.5,1.7-0.5c1.9,0,1.7,2.6,1.7,4.5c0,2-0.4,3-1.9,3 c-2,0-2.4-1.7-2.4-3.6C252.1,124.9,252.1,124.5,252.1,124.3z M255.1,127.9L255.1,127.9c0,0,0-0.1,0.1-0.1c0.2-0.4,0.2-0.5,0.2-2 c0-1.9-0.1-3.6-0.9-3.6c-0.4,0-0.9,0.1-1.1,0.4c-0.4,0.4-0.5,1.1-0.5,1.9v0.4c0,0.1,0,0.1,0,0.1v0.4c0,0.1,0,0.1,0,0.1v0.4 c0,1.1,0.2,2.2,1.4,2.2h0.2l0.4-0.1C254.9,127.9,254.9,127.9,255.1,127.9L255.1,127.9z"></path>
<path d="M261.4,122.5c-0.5-0.4-1-0.7-1.7-0.5c-0.7,0.2-0.6,1.6-0.6,2.4c-0.1,0.7,0.1,0.4,0.1,1c0,0.7-0.1,1.5,0,2.2 c0,0.2-0.1,1,0,1.2c0,0.1-0.2,0.1-0.4,0.1h-0.2c-0.1,0-0.1,0-0.1,0c0.1-0.9,0.1-2.5,0-3.5c-0.1-0.7,0-1.5,0-2.5 c0-0.1-0.1-0.1-0.1-0.1s0.1-0.9-0.5-1c-0.1-0.1,0.1-0.4,0.4-0.6c0.2,0,0.9,0.4,0.7,0.6c0.4-0.2,1-0.6,1.9-0.6 c0.6,0.1,0.6,0.4,1,0.5C261.8,122,261.5,122.5,261.4,122.5z"></path>
<path d="M263.6,130.1c0,0.4,0.1,0.6,0.1,0.9c0.1,0.4,0.5,0.6,0.9,0.6s0.7-0.2,0.9-0.6c0.2-0.6,0.4-1.2,0.4-1.9 c0-0.4,0-0.4,0-0.9c-0.6,0.1-1.2,0.1-1.6-0.1c-0.4-0.1-0.9-0.4-1-0.6c-0.4-0.6-0.6-1-0.5-1.7c0-1.7-0.1-4.2,1.7-4.5 c0.6-0.1,1.9-0.2,2.2,0.1c0.1,0.1,0,2.1,0.1,3c0.1,0.4,0.1,0.6,0,0.9c-0.1,0.2-0.1,0.4-0.1,0.6c0,0.2,0,0.6,0,1.1v0.7 c0,0.6,0.1,0.7,0.1,1.4c0,0.9,0.1,1.9-0.7,2.5c-0.4,0.4-0.7,0.5-1.2,0.5c-0.5,0-0.7,0-1-0.2c-0.4-0.2-0.6-0.7-0.6-1.7 C263,130,263.5,130,263.6,130.1z M263.3,124.3c-0.1,0.9,0,0.6,0,1.4c0,0.2,0.1,0.6,0.2,0.9c0.1,0.4,0.2,0.6,0.4,0.6 c0.5,0.2,0.7,0.2,1.9,0.2c-0.1-0.6,0-1.4,0-2.4c0-1-0.1-2.2,0-2.9c0-0.1-0.5-0.1-0.6-0.1c-0.6,0-0.9,0-1.2,0.2 c-0.4,0.2-0.6,0.9-0.6,1.9V124.3L263.3,124.3z"></path>
<path d="M272.6,125.4c-0.6,0.1-2.5,0.1-3.1,0h-0.1c0,0.2,0,0.1,0,0.7c0,0.7,0.2,1.7,0.7,1.9c0.9,0.2,1.7-0.4,1.9-1 c0-0.2,0.7-0.1,0.7,0.1c-0.2,1.2-2.1,2.4-3.4,1.5c-0.9-0.6-0.7-2.7-0.9-3.7c-0.1-0.9,0-2.4,0.6-3.1c0.4-0.5,0.5-0.4,1.1-0.6 c0.2-0.1,0.6-0.1,1,0c1.5,0.1,1.6,3,1.5,4C272.7,125.3,272.6,125.4,272.6,125.4z M269.6,122.4c-0.2,0.6-0.4,1.5-0.2,2.2 c0.7,0.1,1.6,0.2,2.6,0.1c0.2-1-0.1-4-1.9-2.9C269.9,122,269.7,122.2,269.6,122.4z"></path>
<path d="M274.6,121.7c0.9-0.2,1-0.5,1.9-0.4c2.7,0.2,1.9,3.1,2,5.1c-0.1,0.9-0.1,1.4-0.1,1.5s0,0.2,0,0.4l-0.1,0.6 c-0.1,0.1-0.6,0.1-0.7,0c-0.7,0-2.5,0.5-3-0.7c-0.4-1-0.4-3.1,0.5-3.9c0.7-0.6,1.4-0.4,2.5-0.1c0-0.4,0.1,0.2,0.1-0.1 c-0.1-0.9-0.1-1.9-1.1-1.9c-1,0.1-0.9,0.1-1.7,0.4C274.8,122.4,274.3,121.9,274.6,121.7z M277.6,126.5c0-0.2,0-1.5,0-1.7 c-0.7-0.1-1-0.2-1.7-0.1c-0.6,0.2-0.9,1.5-0.6,3c0.2,0.9,1.2,0.5,2,0.5c0.1,0,0.1,0,0.1,0c0-0.4,0.1-1,0.1-1.4v-0.2H277.6z"></path>
<path d="M280.4,119.9c0-1.5,0-1.7,0.1-2.2c0.1-0.1,0.6,0,0.7,0c-0.1,0.9-0.1,1.6,0,2.2c0.7,0,1,0.1,1.5,0.1 c0.1,0.1,0.1,0.5,0,0.6c-0.6,0-0.9,0-1.5-0.1c0,1.7-0.1,5,0.1,6.6c0.1,1.7,1.5,0.6,1.4,0.5l0.4,0.4c0.2,0.4-1.9,1.4-2.4,0.4 c-0.4-1-0.2-1-0.2-3c0-1.6,0-0.9-0.1-2.5L280.4,119.9z"></path>
<path d="M285.1,130.1c0,0.4,0.1,0.6,0.1,0.9c0.1,0.4,0.5,0.6,0.9,0.6c0.4,0,0.7-0.2,0.9-0.6 c0.2-0.6,0.4-1.2,0.4-1.9c0-0.4,0-0.4,0-0.9c-0.6,0.1-1.2,0.1-1.6-0.1c-0.4-0.1-0.9-0.4-1-0.6c-0.4-0.6-0.6-1-0.5-1.7 c0-1.7-0.1-4.2,1.7-4.5c0.6-0.1,1.9-0.2,2.2,0.1c0.1,0.1,0,2.1,0.1,3c0.1,0.4,0.1,0.6,0,0.9c-0.1,0.2-0.1,0.4-0.1,0.6 c0,0.2,0,0.6,0,1.1v0.7c0,0.6,0.1,0.7,0.1,1.4c0,0.9,0.1,1.9-0.7,2.5c-0.4,0.4-0.7,0.5-1.2,0.5c-0.5,0-0.7,0-1-0.2 c-0.4-0.2-0.6-0.7-0.6-1.7C284.5,130,285,130,285.1,130.1z M284.9,124.3c-0.1,0.9,0,0.6,0,1.4c0,0.2,0.1,0.6,0.2,0.9 c0.1,0.4,0.2,0.6,0.4,0.6c0.5,0.2,0.7,0.2,1.9,0.2c-0.1-0.6,0-1.4,0-2.4c0-1-0.1-2.2,0-2.9c0-0.1-0.5-0.1-0.6-0.1 c-0.6,0-0.9,0-1.2,0.2c-0.4,0.2-0.6,0.9-0.6,1.9V124.3L284.9,124.3z"></path>
<path d="M290.6,121.5c0.2,0.1-0.1,0.5,0,2.2c0,1.5-0.1,1.7,0.1,3.1c0.2,1.2,1.6,2.2,2.4,0.7c0.1-0.2,0.1-1.6,0.1-3 c0-1.1,0.1-2,0.1-3.1c0-0.1,0.6-0.1,0.9,0c0,1.1-0.1,1.9-0.1,3.1c0,1.1,0.2,2.2-0.4,3.4c-0.9,1.6-3.2,1-3.6-0.5 c-0.4-1.6-0.2-2.2-0.2-3.9c0-0.5,0.1-1.5,0-2C289.8,121.4,290.5,121.5,290.6,121.5z"></path>
<path d="M295.9,128.9c-0.4-0.1-0.4-0.5-0.1-0.9l0.1-0.1c0.2,0,0.4,0,0.5,0.1c0.2,0.1,0.2,0.2,0.2,0.4 C296.6,129,296.2,129,295.9,128.9z"></path>
<path d="M302.4,122.5c-0.1,0.1-0.2,0.2-0.2,0.2c-0.4-1-2.2-1.2-2.5-0.4c-0.4,0.9-0.4,1.5-0.2,2.2 c0.1,1.4,0,2,0.1,2.5c0.1,0.6,0.4,0.9,1.2,1c0.4,0.1,1.2-0.7,1.4-1.4c0.1-0.1,0.7,0.1,0.7,0.2c-0.6,1-0.4,1.4-1.9,1.9 s-2.2-1.2-2.4-1.5c-0.1-0.5-0.1-0.9-0.1-1.1c0-0.1,0-0.2,0-0.4c0-0.1,0-0.5,0-1c-0.1-1.4-0.2-1.5,0.5-2.9c0.5-1,3.2-0.6,3.5,0.2 C302.6,122.4,302.5,122.5,302.4,122.5z"></path>
<path d="M304.3,124.3c0-0.9,0.1-1.9,0.7-2.5c0.4-0.4,1-0.5,1.7-0.5c1.9,0,1.7,2.6,1.7,4.5c0,2-0.4,3-1.9,3 c-2,0-2.4-1.7-2.4-3.6C304.3,124.9,304.1,124.5,304.3,124.3z M307.1,127.9L307.1,127.9c0,0,0-0.1,0.1-0.1c0.2-0.4,0.2-0.5,0.2-2 c0-1.9-0.1-3.6-0.9-3.6c-0.4,0-0.9,0.1-1.1,0.4c-0.4,0.4-0.5,1.1-0.5,1.9v0.4c0,0.1,0,0.1,0,0.1v0.4c0,0.1,0,0.1,0,0.1v0.4 c0,1.1,0.2,2.2,1.4,2.2h0.2l0.4-0.1C307.1,127.9,307.1,127.9,307.1,127.9L307.1,127.9z"></path>
<path d="M311.2,122.4c0,0.2-0.1,0.4,0,0.5c-0.1,0.9-0.1,1.5-0.1,1.9c0,2.2-0.1,3.6-0.1,4c0,0.1-0.7,0.2-0.9,0 c0-0.5,0-1.9,0.1-4c0-0.6-0.1-1.2-0.1-1.9c0-0.2,0.1-1,0-1.9c0.1-0.1,0.9-0.1,0.9,0.1c-0.1,0.2,0.1,0.4,0.1,0.6 c0.9-0.6,1.9-0.9,2.4-0.1c0,0.1,0,0.1,0.1,0.1l0.6-0.4c0.4-0.1,0.2-0.1,0.6-0.2c1.2-0.2,1.5,1.5,1.5,2.7c0,0.2-0.1,1-0.1,2.2 s0,2.2,0.1,2.6c-0.1,0.1-0.4,0.1-0.7,0.1c-0.1,0-0.2-0.2-0.1-1c0-0.4,0.1-1.1,0-2v-2.1c0.1-1.5-0.1-2-1-1.6 c-0.4,0.2-0.4,0.2-0.7,0.6c0,0.7,0.1,1.7,0,2.9v2c0,0.2,0,0.5,0.1,1.1c0,0.1,0,0.1,0,0.2v0.1c-0.1,0-1,0-0.9-0.1c0-0.6,0-1.4,0-2.7 s0-2.2,0-2.7c0.1-1.4-0.6-1.7-1.2-1.2C311.6,122.2,311.5,122.2,311.2,122.4z"></path>
</g>
</svg>