<svg version="1.1" xmlns="http://www.w3.org/2000/svg" xmlns:xlink="http://www.w3.org/1999/xlink" x="0px" y="0px" width="64px" height="64px" viewBox="0 0 64 64">
	<g id="google_plus">
		<circle fill="yellow" cx="32" cy="32" r="32"/>
		<path fill="#FFFFFF" d="M31.3,13.6c0.3,0.2,0.7,0.6,1.1,1c0.4,0.4,0.8,0.9,1.2,1.5c0.4,0.6,0.7,1.3,1,2c0.3,0.8,0.4,1.7,0.4,2.6 c0,1-0.1,1.9-0.4,2.6c-0.2,0.7-0.6,1.4-1,2c-0.4,0.6-0.9,1.1-1.4,1.6c-0.5,0.5-1.1,0.9-1.6,1.3c-0.4,0.4-0.7,0.7-1,1.1 c-0.3,0.4-0.5,0.9-0.5,1.5c0,0.6,0.2,1.1,0.5,1.4c0.3,0.3,0.6,0.6,0.9,0.9l1.9,1.5c0.6,0.5,1.1,1,1.7,1.5c0.5,0.5,1,1,1.4,1.6 c0.4,0.6,0.7,1.2,1,1.9c0.2,0.7,0.4,1.5,0.4,2.4c0,1.2-0.3,2.4-0.9,3.6c-0.6,1.2-1.5,2.3-2.6,3.2c-1.2,0.9-2.6,1.7-4.4,2.3 c-1.7,0.6-3.7,0.9-6,0.9c-1.9,0-3.6-0.2-5-0.6c-1.4-0.4-2.6-1-3.6-1.7c-1-0.7-1.7-1.5-2.1-2.4c-0.5-0.9-0.7-1.8-0.7-2.8 c0-0.9,0.3-2,0.9-3.2c0.6-1.2,1.6-2.3,3.2-3.2c0.8-0.5,1.7-0.9,2.6-1.2c0.9-0.3,1.9-0.5,2.8-0.7c0.9-0.2,1.8-0.3,2.6-0.4 c0.8-0.1,1.5-0.1,2.1-0.2c-0.4-0.5-0.7-1-1.1-1.6c-0.3-0.5-0.5-1.2-0.5-2c0-0.5,0.1-0.8,0.2-1.1c0.1-0.3,0.2-0.6,0.4-0.9 c-0.3,0-0.6,0.1-0.8,0.1c-0.3,0-0.6,0-0.8,0c-1.4,0-2.7-0.2-3.7-0.7c-1.1-0.5-2-1.1-2.7-1.9c-0.7-0.8-1.3-1.7-1.7-2.7 c-0.4-1-0.6-2-0.6-3c0-1.2,0.3-2.5,0.8-3.7c0.6-1.2,1.4-2.4,2.5-3.4c1.5-1.2,3.1-2,4.8-2.4c1.7-0.4,3.2-0.5,4.7-0.5H38l-3.4,1.8 L31.3,13.6L31.3,13.6L31.3,13.6z M33.3,44c0-0.7-0.1-1.3-0.3-1.8c-0.2-0.5-0.6-1.1-1-1.6c-0.5-0.5-1.1-1.1-1.8-1.6 c-0.7-0.6-1.6-1.2-2.6-1.9c-0.2,0-0.4,0-0.6,0c-0.2,0-0.4,0-0.7,0c-0.1,0-0.4,0-0.7,0c-0.4,0-0.8,0-1.4,0.1c-0.5,0-1.1,0.1-1.7,0.3 c-0.6,0.1-1.2,0.3-1.7,0.4c-0.3,0.1-0.7,0.3-1.2,0.5c-0.5,0.2-1,0.6-1.5,1c-0.5,0.4-0.9,0.9-1.3,1.6c-0.4,0.6-0.6,1.4-0.6,2.4 c0,1.9,0.8,3.5,2.5,4.6c1.7,1.2,3.9,1.8,6.8,1.8c2.5,0,4.5-0.5,5.8-1.6C32.7,47.1,33.3,45.7,33.3,44z M25.5,28.5 c0.7,0,1.3-0.1,2-0.4c0.6-0.3,1.2-0.6,1.6-1.1c0.6-0.6,1-1.3,1.1-2c0.1-0.7,0.2-1.4,0.2-1.9c0-1-0.1-2-0.4-3.1 c-0.3-1.1-0.7-2.2-1.3-3.2c-0.6-1-1.3-1.8-2.1-2.5c-0.8-0.7-1.8-1-2.9-1c-0.7,0-1.4,0.2-2.1,0.5c-0.7,0.3-1.2,0.7-1.6,1.3 c-0.5,0.6-0.8,1.2-0.9,1.9c-0.2,0.7-0.2,1.4-0.2,2.1c0,0.9,0.1,1.9,0.4,3c0.3,1.1,0.7,2.1,1.2,3.1c0.5,1,1.2,1.8,2.1,2.4 C23.4,28.2,24.4,28.5,25.5,28.5z"/>
		<line stroke="#FFFFFF" stroke-width="2" x1="39.6" y1="23" x2="56.6" y2="23"/>
    	<line stroke="#FFFFFF" stroke-width="2" x1="48" y1="14.4" x2="48" y2="31.6"/>
	</g>
</svg>