<svg version="1.1" xmlns="http://www.w3.org/2000/svg" xmlns:xlink="http://www.w3.org/1999/xlink" x="0px" y="0px" width="74px" height="320px" viewBox="0 0 74 320">
<g id="behance">
	<circle cx="37" fill="#EF395F" cy="159.2" r="16"/>
	<rect x="25.1" y="151.8" fill="#FFFFFF" width="3.3" height="14.5"/>
	<rect x="28.3" y="151.8" fill="#FFFFFF" width="4.4" height="2.6"/>
	<rect x="28.3" y="163.8" fill="#FFFFFF" width="4.4" height="2.6"/>
	<rect x="28.3" y="157.7" fill="#FFFFFF" width="4.4" height="2.2"/>
	<path fill="#FFFFFF" d="M32.6,166.4c0,0,4.6,0.1,4.6-4.3c0,0,0.2-3.6-2.7-3.6c0,0,2.2-0.2,2.2-2.8s-1.8-3.9-4.1-3.9 s-2.2,1.3-2.2,1.3l1.6,1.3h0.5c0,0,1,0,1,1.5s-0.6,1.7-1.3,1.7c-0.7,0-0.9,1.1-0.9,1.1l1.2,1.1c0,0,1.5,0,1.5,2s-1.6,1.9-2,1.9 c-0.4,0-0.3,1-0.3,1L32.6,166.4z"/>
	<path fill="#FFFFFF" d="M43.4,155.5c-5.6,0-5.6,5.6-5.6,5.6s-0.4,5.6,5.6,5.6c0,0,5,0.3,5-3.9h-2.6c0,0,0.1,1.6-2.3,1.6 c0,0-2.6,0.2-2.6-2.5h7.5C48.5,161.8,49.3,155.5,43.4,155.5z M40.9,159.9c0,0,0.3-2.2,2.6-2.2s2.2,2.2,2.2,2.2H40.9z"/>
	<rect x="40.3" y="152.7" fill="#FFFFFF" width="6" height="1.8"/>
</g>
<g id="codepen">
	<circle cx="37" fill="#EF395F" cy="245" r="16"/>
	<polygon fill="none" stroke="#FFFFFF" stroke-width="2" stroke-linejoin="round" points="37.2,235.2 27.2,241.8 37.2,248.6 47.4,241.8"/>
	<polygon fill="none" stroke="#FFFFFF" stroke-width="2" stroke-linejoin="round" points="37.2,241.4 27.2,247.9 37.2,254.7 47.4,247.9"/>
	<line fill="none" stroke="#FFFFFF" stroke-width="2" x1="37.2" y1="235.2" x2="37.2" y2="242.3"/>
	<line fill="none" stroke="#FFFFFF" stroke-width="2" x1="37.2" y1="248.6" x2="37.2" y2="253.8"/>
	<line fill="none" stroke="#FFFFFF" stroke-width="2" x1="27.2" y1="241.8" x2="27.2" y2="247.6"/>
	<line fill="none" stroke="#FFFFFF" stroke-width="2" x1="47.4" y1="241.8" x2="47.4" y2="247.6"/>
</g>
<g id="dribbble">
	<circle fill="#EF395F" cx="37" cy="201.7" r="16"/>
	<circle fill="none" stroke="#FFFFFF" stroke-width="2" cx="37.2" cy="201.8" r="10.6"/>
	<path fill="none" stroke="#FFFFFF" stroke-width="2" d="M42.3,211.1c-1.2-9.5-9.8-18.7-9.8-18.7"/>
	<path fill="none" stroke="#FFFFFF" stroke-width="2" d="M26.8,200.2c12.1,2.5,16.9-6.7,16.9-6.7"/>
	<path fill="none" stroke="#FFFFFF" stroke-width="2" d="M29.3,208.9c6.1-9.8,18.5-6.6,18.5-6.6"/>
</g>
<g id="facebook">
	<circle fill="#EF395F" cx="37" cy="74.4" r="16"/>
	<path fill="#FFFFFF" d="M33.9,85.5V74.8h-2v-4.2h1.8v-4.7c0,0,0.4-2.4,3.1-2.3c0.2,0,4.9,0,4.9,0v4.3h-3v2.7h3v3.9h-2.9v10.9 L33.9,85.5L33.9,85.5z"/>
</g>
<g id="google_plus">
	<circle fill="#EF395F" cx="37" cy="287" r="16"/>
	<path fill="#FFFFFF" d="M36.9,279.4c0.2,0.1,0.3,0.3,0.6,0.5c0.3,0.2,0.4,0.4,0.6,0.7c0.2,0.3,0.4,0.6,0.5,1 c0.1,0.4,0.2,0.8,0.2,1.3s-0.1,0.9-0.2,1.3c-0.1,0.4-0.3,0.7-0.5,1c-0.2,0.3-0.4,0.6-0.7,0.8c-0.3,0.2-0.5,0.5-0.8,0.7 c-0.2,0.2-0.3,0.4-0.5,0.6c-0.2,0.2-0.2,0.4-0.2,0.7s0.1,0.5,0.2,0.7c0.2,0.2,0.3,0.3,0.4,0.4l1,0.7c0.3,0.2,0.6,0.5,0.8,0.7 c0.3,0.2,0.5,0.5,0.7,0.8s0.4,0.6,0.5,1c0.1,0.4,0.2,0.8,0.2,1.2c0,0.6-0.2,1.2-0.4,1.8c-0.2,0.6-0.7,1.1-1.3,1.6s-1.3,0.8-2.2,1.1 c-0.9,0.3-1.9,0.4-3,0.4c-1,0-1.8-0.1-2.5-0.3c-0.7-0.2-1.3-0.5-1.8-0.8c-0.5-0.4-0.8-0.8-1.1-1.2c-0.2-0.4-0.3-0.9-0.3-1.4 s0.1-1,0.4-1.6c0.3-0.6,0.8-1.1,1.6-1.6c0.4-0.2,0.8-0.4,1.3-0.6c0.5-0.1,0.9-0.3,1.4-0.4s0.9-0.1,1.3-0.2c0.4,0,0.8-0.1,1.1-0.1 c-0.2-0.2-0.4-0.5-0.5-0.8c-0.2-0.3-0.3-0.6-0.3-1c0-0.2,0-0.4,0.1-0.6c0.1-0.1,0.1-0.3,0.2-0.5c-0.1,0-0.3,0-0.4,0 c-0.1,0-0.3,0-0.4,0c-0.7,0-1.3-0.1-1.9-0.4c-0.5-0.2-1-0.5-1.4-0.9c-0.4-0.4-0.7-0.8-0.8-1.3c-0.2-0.5-0.3-1-0.3-1.5 c0-0.6,0.1-1.2,0.4-1.9c0.3-0.6,0.7-1.2,1.3-1.7c0.8-0.6,1.6-1,2.4-1.2c0.8-0.2,1.6-0.3,2.3-0.3h5.4l-1.7,0.9h-1.7V279.4z  M37.9,294.6c0-0.3-0.1-0.6-0.2-0.9c-0.1-0.3-0.3-0.5-0.5-0.8c-0.2-0.3-0.5-0.5-0.9-0.8c-0.4-0.3-0.8-0.6-1.3-1c-0.1,0-0.2,0-0.3,0 c-0.1,0-0.2,0-0.3,0c-0.1,0-0.2,0-0.4,0s-0.4,0-0.7,0.1c-0.3,0.1-0.5,0.1-0.8,0.1c-0.3,0.1-0.6,0.1-0.9,0.2 c-0.1,0.1-0.3,0.1-0.6,0.3c-0.3,0.1-0.5,0.3-0.8,0.5c-0.2,0.2-0.5,0.5-0.6,0.8c-0.2,0.3-0.3,0.7-0.3,1.2c0,1,0.4,1.7,1.3,2.3 c0.8,0.6,2,0.9,3.4,0.9c1.3,0,2.2-0.3,2.9-0.8C37.6,296.2,37.9,295.4,37.9,294.6z M34,286.8c0.3,0,0.7-0.1,1-0.2 c0.3-0.1,0.6-0.3,0.8-0.5c0.3-0.3,0.5-0.6,0.6-1c0.1-0.4,0.1-0.7,0.1-0.9c0-0.5-0.1-1-0.2-1.6c-0.1-0.6-0.4-1.1-0.6-1.6 c-0.3-0.5-0.6-0.9-1-1.2c-0.4-0.3-0.9-0.5-1.4-0.5c-0.4,0-0.7,0.1-1,0.2c-0.3,0.2-0.6,0.4-0.8,0.6c-0.2,0.3-0.4,0.6-0.5,0.9 s-0.1,0.7-0.1,1c0,0.4,0.1,0.9,0.2,1.5c0.1,0.6,0.3,1.1,0.6,1.5c0.3,0.5,0.6,0.9,1,1.2C32.9,286.7,33.4,286.8,34,286.8z"/>
	<line fill="none" stroke="#FFFFFF" x1="39.8" y1="282.5" x2="48.3" y2="282.5"/>
	<line fill="none" stroke="#FFFFFF" x1="44" y1="278.2" x2="44" y2="286.8"/>
</g>
<g id="twitter">
	<circle fill="#EF395F" cx="37" cy="30.7" r="16"/>
	<path fill="#FFFFFF" d="M45.3,28.5c0,0-3.6-10-8.9-1.2c-0.5,0-8.3-3-8.3-3s5,8.9,5.3,9.2c0.4,2.1-8.2,1.3-8.2,1.3s7,5.4,13.8,3.6 c3.3,0,7.3-8,7.3-8l2.3-0.8L45.3,28.5z"/>
</g>
<g id="linkedin">
	<circle fill="#EF395F" cx="37" cy="116.7" r="16"/>
	<circle fill="#FFFFFF" cx="29.6" cy="109.7" r="2"/>
	<line fill="none" stroke="#FFFFFF" stroke-width="4" x1="29.6" y1="113.2" x2="29.6" y2="125.4"/>
	<path fill="#FFFFFF" d="M34.5,117.1c0-1.5,0-2.8-0.1-3.9h3.3l0.2,1.7H38c0.5-0.8,1.7-2,3.8-2c2.5,0,4.4,1.7,4.4,5.3v7.3h-3.8v-6.8 c0-1.6-0.6-2.7-1.9-2.7c-1.1,0-1.7,0.7-2,1.4c-0.1,0.3-0.1,0.6-0.1,1v7.1h-3.8L34.5,117.1L34.5,117.1z"/>
</g>
</svg>
