<svg version="1.1" xmlns="http://www.w3.org/2000/svg" xmlns:xlink="http://www.w3.org/1999/xlink" x="0px" y="0px" width="32px" height="32px" viewBox="0 0 32 32">
	<g id="behance">
		<circle fill="yellow" cx="16" cy="16" r="16"/>
		<rect x="4.3" y="8.6" fill="#FFFFFF" width="3.3" height="14.5"/>
		<rect x="7.5" y="8.6" fill="#FFFFFF" width="4.4" height="2.6"/>
		<rect x="7.5" y="20.6" fill="#FFFFFF" width="4.4" height="2.6"/>
		<rect x="7.5" y="14.5" fill="#FFFFFF" width="4.4" height="2.2"/>
		<path fill="#FFFFFF" d="M11.8,23.2c0,0,4.6,0.1,4.6-4.3c0,0,0.2-3.6-2.7-3.6c0,0,2.2-0.2,2.2-2.8s-1.8-3.9-4.1-3.9 c-2.3,0-2.2,1.3-2.2,1.3l1.6,1.3h0.5c0,0,1,0,1,1.5s-0.6,1.7-1.3,1.7c-0.7,0-0.9,1.1-0.9,1.1l1.2,1.1c0,0,1.5,0,1.5,2 s-1.6,1.9-2,1.9c-0.4,0-0.3,1-0.3,1L11.8,23.2z"/>
		<path fill="#FFFFFF" d="M22.6,12.3c-5.6,0-5.6,5.6-5.6,5.6s-0.4,5.6,5.6,5.6c0,0,5,0.3,5-3.9H25c0,0,0.1,1.6-2.3,1.6 c0,0-2.6,0.2-2.6-2.5h7.5C27.7,18.6,28.5,12.3,22.6,12.3z M20.1,16.7c0,0,0.3-2.2,2.6-2.2s2.2,2.2,2.2,2.2H20.1z"/>
		<rect x="19.5" y="9.5" fill="#FFFFFF" width="6" height="1.8"/>
	</g>
</svg>
