<svg version="1.1" xmlns="http://www.w3.org/2000/svg" xmlns:xlink="http://www.w3.org/1999/xlink" x="0px" y="0px" width="32px" height="32px" viewBox="0 0 32 32">
<g id="pinterest">
    <circle fill="yellow" cx="16" cy="16" r="16"/>
    <path fill="#FFFFFF" d="M12.4,15.5c-0.3,1.2-1.7,7.5-1.7,7.5v5.2c0,0,3.6-4.3,3.7-8.4c-0.5-0.2,8,6.1,11.1-6.2c0-1.5,0-2.2,0-2.7 c-5.9-16-27-1.1-15.8,7.2c0,0,0.6-1.3,0.9-1.9c-0.9-0.1-4.5-9.9,7.1-10c10.8,3.2-0.6,19.2-2.3,10.1c0,0,1.2-3.7,1.2-4.1 C16.9,6.7,10.9,9.9,12.4,15.5z"/>
</g>
</svg>