<svg xmlns="http://www.w3.org/2000/svg" xmlns:xlink="http://www.w3.org/1999/xlink" viewBox="0 0 595.3 299"><path fill="#E0E6E4" d="M0 0h595.3v299h-595.3z"/><path fill="#78BBE4" d="M307.6 244.1s-116.4-45.1-75.8-184.8c31.3-23.7 117.9-18 152.2 0 42.8 132.3-76.4 184.8-76.4 184.8z"/><path fill="#F2990B" d="M391.4 93c3.5 14.3.9 37 .9 37h-168.4s-.8-29.6.8-37h166.7"/><path d="M325.9 113.1c.7-.5 1.2-1.2 1.6-2.1.4-1 .6-1.6.8-1.8.1-.3.2-.5.2-.6l.3-1.2c.4-1.1.5-1.6.5-1.6 0-.1-.6-.3-1.9-.6-.8-.4-1.3-.7-1.6-1l-.8-.3c-.1-.1-.1-.2-.1-.3 0 0-.1-.1-.3-.1-.2-.1-.3-.1-.3-.2 0-.2.2-.4.5-.4s.7.2 1 .5c.4.1.8.3 1 .4.4.2 1.2.3 2.2.3.1 0 .4 0 .6-.1.3-.1.5-.1.6-.1.4 0 .8.1 1.2.3.5.2.7.5.8.8.1 0 .3-.4.5-1 .2-.5.6-.7 1.3-.7.4 0 .7.2 1 .5.3.3.5.7.5 1.1 0 .1-.1.4-.3.9-.2.4-.3.6-.5.6s-.3.1-.4.2c-.1.2-.2.2-.2.2h-.2c-.2.2-.4.3-.5.3 0 0-.1 0-.2-.1l-.2-.1v.4c0 .3.1.9.3 1.8.2 1 .3 1.5.4 1.7l.7.8c.7.8 1.3 1.2 1.8 1.3s.7.2.7.4c0 .7-.1 1-.4 1-.2 0-.5-.2-.9-.7-.3-.3-1-.9-2.3-1.7-.6-.4-1-.9-1.2-1.3-.1.2-.3.9-.5 2.1 1 2.1 1.5 3.3 1.6 3.4.3.3.5.6.7.7l.4.8c1 1 1.8 1.7 2.4 2.1.2.1.8.3 1.8.6.9.3 1.4.5 1.4.6 0 .2-.2.4-.6.6-.3.1-.6.1-.9.1h-1c-.2 0-.4-.1-.5-.4l-.4-.5c-.3-.3-.7-.6-1.1-.8l-1.2-.6c-.4-.2-.8-.6-1.1-1.2-.3-.6-.7-1-1-1.2-.2-.1-.8-.7-1.8-1.6-.9-.9-1.4-1.3-1.6-1.3-.1 0-.5.2-1.1.6-.6.4-1.1.6-1.4.6s-.9-.3-1.9-1c-1-.7-2-1-3.1-1-.1 0-.3 0-.6.1s-.5.1-.6.1c-.2 0-.3-.1-.3-.2 0-.2.2-.5.7-.8.5-.4.8-.6 1-.6.1 0 .3.1.4.2.1.1.2.2.3.2l2 .4c.8.1 1.4.3 1.8.5zm14.7 2.2c-.3.3-.5.7-.5 1.1 0 .4.2.8.5 1.1.3.3.7.5 1.1.5.4 0 .8-.2 1.1-.5.3-.3.5-.7.5-1.1 0-.4-.2-.8-.5-1.1s-.7-.5-1.1-.5c-.5.1-.8.2-1.1.5z"/><defs><path id="a" d="M231.7 101.2h19v19h-19z"/><path id="c" d="M260.8 101.7h19.1v19.3h-19.1z"/></defs><clipPath id="b"><use xlink:href="#a" overflow="visible"/></clipPath><g clip-path="url(#b)"><path d="M250.8 112.3l-.2.6c-.6-.1-1.3-.2-1.9-.4l-4.3-.9c-1.8-.4-3.4-.2-5 .9-.4-.7-.8-1.3-1.3-2l.3-.3c2.5-1.6 5-3 7.8-4l.3-.1c3-.8 2.9-.9 4 2.1.2.4.3.8.4 1.2-.1.9-.1 1.9-.1 2.9zM240.4 120.4c-.3-.1-.5-.2-.8-.2-1.1-.1-1.7-.7-2-1.7-.7-2.2-.1-4.1 1.6-5.2 1.8 2.3 3.5 4.8 6.4 6.2-1.2.3-2.2.6-3.1.9h-2.1zM241.9 101.4c-1.2.8-1.9 2.1-2.6 3.3-.7 1-1.6 1.9-2.6 3-.6-1.4-1.2-2.6-1-3.9 0-.3.4-.8.7-.9 1.3-.6 2.6-1 3.9-1.5h1.6zM231.9 109.9c.1-.2.1-.5.2-.8 1.6.7 2.9.1 4.2-.8.3.6.6 1.2.9 1.7-1.6 1.4-3.1 2.8-4.7 4.3-.2-.8-.4-1.6-.7-2.5.1-.6.1-1.2.1-1.9zM239.6 112.9c1.3-.9 2.6-1.1 4-.9 2.3.4 4.5.9 7 1.4-.4.8-.6 1.7-1.1 2.3-.8 1-1.7 1.9-2.7 2.9-.6.6-1.2.5-1.8 0-1-.8-2-1.6-2.8-2.5-.9-1-1.7-2.1-2.6-3.2zM248.8 105.1c-4.2.5-7.6 2.6-11.1 4.8-.3-.6-.6-1.1-.8-1.6-.1-.1.1-.4.2-.5 1.4-1.1 2.4-2.4 3.2-4 1.3-2.4 2.3-2.7 4.8-1.6 1.5.6 2.8 1.6 3.7 2.9zM237.7 119.6c-2-.9-3.5-2.2-4.5-4-.1-.2-.1-.6.1-.7.4-.6.9-1.2 1.4-1.7.9-.8 1.9-1.6 3-2.5.5.7.8 1.3 1.2 2-2.5 1.9-2.5 4.2-1.2 6.9zM235 103.8l1 4.1c-.9.6-2 1.2-3.3.7-.2-.1-.4-.3-.4-.5.5-1.6 1.4-3.1 2.7-4.3z"/></g><clipPath id="d"><use xlink:href="#c" overflow="visible"/></clipPath><g clip-path="url(#d)"><path d="M269.3 101.8h2.4c1.1.3 2.4.5 3.5 1.3-.5.1-.9.1-1.2.2-2.6.5-5.2.9-7.7 1.7-3.3 1.1-5 4-4.6 7.4.3 3 1.8 5.1 4.7 6 2.2.7 4.3.1 6.3-.9l4.4-2.4c.7-.4 1.6-.6 2.3-.8 0 .1.1.2.1.2-1.2 3.3-3.6 5.4-7 6.2-.4.1-.7.2-1 .3h-2.1l-.8-.3c-2.7-.6-4.9-2-6.3-4.4-.7-1.2-1-2.6-1.5-3.9v-2.4l.2-.6c.8-3.7 3.1-6.2 6.7-7.4.6.1 1.1 0 1.6-.2zM280.1 111.4v.2c0 1.6 0 1.5-1.5 2.1-1.4.6-2.7 1.3-4 2-1.9 1.1-3.8 2-6 2.1-3.7.2-5.7-1.9-6.1-5.6-.3-2.7 1.3-5.2 3.9-6.5 2.1-1 4.4-1.4 6.6-1.8.9-.1 1.8-.2 2.6-.3.5-.1.9.1 1.3.4 2.1 2.1 3.2 4.5 3.2 7.4z"/></g><path d="M311.4 120.6c-.7.9-1.6.9-2.6.9h-13.8v-.9h14.6l1.8-.2v.2zM307.1 103c.2.2.4.3.5.5.8.7.8 1.7.2 2.4-.7.7-1.8.7-2.5 0-.6-.7-.5-1.8.3-2.4l.5-.4c.3-.1.7-.1 1-.1zM305.5 108.5c-.8.9-1.4 1.6-2.1 2.4.6.6 1.2 1.2 1.7 1.8.2.3.4.8.3 1.1l-1.2 5.5c-.1.6-.5.9-1.1.8s-.8-.6-.6-1.2c.3-1.1.5-2.2.8-3.4.1-.5.1-.8-.3-1.1-.4-.4-.8-.9-1.3-1.4-.6.7-1.1 1.2-1.6 1.7-.3.3-.7.5-1.1.5-1.6.1-3.2 0-4.8 0-.6 0-1.1-.1-1.2-.9 0-.6.4-.9 1.2-.9h3c.3 0 .6 0 .7-.2 1.2-1.4 2.5-2.8 3.6-4.4-.7.3-1.4.6-2.1 1l-.6.3c-.4.2-.9.4-1.2-.2-.3-.6.2-.9.7-1.1l2.3-1.1c1.1-.5 2.2-1 3.3-1.6.5-.3.9-.2 1.3.2.7.7 1.4 1.5 2.2 2.3.5-.5.9-1 1.3-1.4.2-.2.5-.5.8-.6.2-.1.7-.1.8 0 .1.2.1.6 0 .8-.1.3-.4.5-.6.7-.6.6-1.2 1.1-1.7 1.7-.6.6-.8.6-1.4 0-.3-.4-.6-.8-1.1-1.3zM310.2 109.2l-.2.8c-1.5 3.2-3.1 6.4-4.6 9.5-.1.2-.3.3-.6.4.3-1.5 4.9-10.6 5.4-10.7zM297.8 119.5c-.4.4-.9.2-1.3-.1l-4.2-4.2c-.1-.1-.1-.4-.1-.6l.4.3c1.1 1.1 2.2 2.3 3.4 3.4.5.3 1.1.7 1.8 1.2zM297.3 110.2h-5.2c.4-.4 4.5-.5 5.2 0zM382.3 119.2c-1.1 1.1-2.4 1.6-3.9 1.6s-2.8-.5-3.9-1.6-1.6-2.4-1.7-3.9c0-1.5.5-2.9 1.6-3.9l.9-.8-.4-.5-5.6 3.9c-.2 1.4-.6 2.4-1 2.9-.4.4-.9.6-1.5.5-.5 0-1.1-.5-1.7-1.5h-.8c-.3 1.2-.8 2.1-1.5 2.9-1.1 1.1-2.4 1.6-4 1.6s-2.9-.6-3.9-1.6-1.5-2.3-1.5-3.9c0-1.5.5-2.8 1.6-3.9.7-.7 1.6-1.2 2.6-1.5 1-.2 2-.2 3 .1l1.1-3.4h-1.5v-1h5.2l.1.8c-1.2-.1-2 0-2.4.3-.1.1-.2.3-.2.4h10.7v-2.2h-4.4v-1h4.6l.7-.3.2 1h.5c-.3.9-.4 1.8-.3 2.8l1.9 3c2.2-.8 4.1-.4 5.8 1.2 1.1 1.1 1.6 2.3 1.7 3.8-.3 1.6-.8 3-2 4.2zm-19.2-3.3h-4.9l.2-1h.4l1.4-4.2c-1.7-.6-3.2-.2-4.6 1.1-.9.9-1.3 1.9-1.3 3.2 0 1.3.4 2.3 1.2 3.1s1.9 1.3 3.2 1.3 2.4-.4 3.2-1.3c.6-.7 1-1.4 1.2-2.2zm.1-1.2c-.1-1.2-.5-2.1-1.3-2.9-.2-.2-.4-.4-.7-.6-.2.9-.7 2-1.3 3.5h3.3zm2.7-1l-3.5-6.1-.8 2.5 1.2.9c1 1 1.5 2.2 1.5 3.7h.6l1-1zm8.7-4.5l-.7-1.3h-10.4l3.1 5.3 2.2.2 5.8-4.2zm-7.5 7.2c.4 0 .7-.1 1-.4.3-.3.4-.6.4-.9 0-.4-.1-.7-.4-1-.2-.2-.5-.4-.9-.4s-.7.1-.9.3c-.2.3-.4.6-.4 1s.1.7.4 1c.2.3.5.4.8.4zm14.5 2c.9-.9 1.4-2.1 1.3-3.3-.1-1.2-.5-2.2-1.4-3.1-1.3-1.3-2.7-1.6-4.4-1l2.1 3.4-.5 1.2-2.8-4c-.3.2-.5.4-.7.6-.9.9-1.3 1.9-1.3 3.2 0 1.2.5 2.3 1.3 3.1.8.8 1.9 1.3 3.1 1.3s2.4-.5 3.3-1.4z"/><path fill="#fff" d="M276.9 166.6h-11.3c-1.2 2.9-2.8 6.7-3.8 9.3h-4.9l12.6-31.9h3.3l12.6 31.9h-4.9l-3.6-9.3zm-9.5-4.3h7.8l-3.9-11.1-3.9 11.1zM286.2 166.4v-22h4.6v22c0 3.5 3.7 5.2 7.1 5.2 3.3 0 7-1.8 7-5.2v-22h4.6v22c0 6.4-6.2 9.7-11.6 9.7-5.6.1-11.7-3.3-11.7-9.7zM318.8 159.9h5.3c3.8 0 5.7-2.7 5.7-5.5 0-2.7-1.9-5.4-5.7-5.4h-7v26.9h-4.5v-31.5h11.5c6.8 0 10.2 5 10.2 10 0 4.5-2.7 8.7-8.1 9.6l9.9 11.8h-5.9l-11.5-13.8.1-2.1zM341.1 171.3h14.6v4.5h-19.2v-31.4h19.2v4.5h-14.6v8.9h14.3v4.6h-14.3v8.9zM253.6 63.7c6.4 0 9.6 4.9 9.6 9.7s-3.2 9.7-9.6 9.7h-7v-19.4h7zm0 16.7c4.5 0 6.8-3.4 6.8-6.9s-2.3-6.9-6.8-6.9h-4.2v13.8h4.2zM267.4 80.4h9v2.8h-11.9v-19.4h11.9v2.8h-9v5.5h8.8v2.8h-8.8v5.5zM284.7 63.7c4.2 0 6.3 3.2 6.3 6.5s-2.1 6.5-6.3 6.5h-4.3v6.5h-2.8v-19.4h7.1v-.1zm0 10.2c2.4 0 3.5-1.8 3.5-3.7 0-1.9-1.2-3.7-3.5-3.7h-4.3v7.4h4.3zM294.7 66.4c1.8-1.8 4.3-2.9 7-2.9s5.2 1.1 7 2.9c1.7 1.8 2.9 4.3 2.9 7s-1.1 5.2-2.9 7-4.3 2.9-7 2.9-5.2-1.1-7-2.9c-1.7-1.8-2.9-4.3-2.9-7s1.1-5.2 2.9-7zm12 2c-1.3-1.3-3.1-2.1-5-2.1s-3.7.8-5 2.1c-1.3 1.3-2.1 3.1-2.1 5 0 2 .8 3.7 2.1 5 1.3 1.3 3.1 2.1 5 2.1s3.7-.8 5-2.1c1.2-1.3 2.1-3 2.1-5-.1-2-.9-3.7-2.1-5zM317.1 73.3h3.3c2.4 0 3.5-1.7 3.5-3.4s-1.2-3.4-3.5-3.4h-4.3v16.6h-2.8v-19.4h7.1c4.2 0 6.3 3.1 6.3 6.2 0 2.7-1.7 5.4-5 5.9l6.1 7.3h-3.6l-7.1-8.5v-1.3zM332.8 83.2v-16.6h-5.9v-2.8h14.5v2.8h-5.9v16.7h-2.7v-.1zM345.5 80.4h9v2.8h-11.9v-19.4h11.8v2.8h-9v5.5h8.8v2.8h-8.8l.1 5.5zM366.4 68.7c-.4-1.7-2.3-2.5-4-2.5-1.3 0-2.7.5-3.5 1.5-.4.5-.5 1.1-.5 1.8.1 2 2.3 2.2 4.4 2.4 2.7.3 6 1 6.7 4.1.1.4.1.9.1 1.3 0 3.7-3.7 5.9-7.2 5.9-3 0-6.6-1.8-7-5.2v-.5l2.8-.1v.4-.1c.2 1.8 2.4 2.7 4.2 2.7 2.1 0 4.4-1.2 4.4-3.2 0-.2 0-.4-.1-.7-.3-1.5-2.3-1.7-4.3-1.9-3-.3-6.6-1-6.9-5-.1-1.3.2-2.6 1.1-3.7 1.3-1.7 3.6-2.6 5.9-2.6 3 0 6.1 1.6 6.6 5.1l-2.7.3z"/></svg>