<svg xmlns="http://www.w3.org/2000/svg" viewBox="0 0 595.301 299"><path fill="#ECE899" d="M0 0h595.301v299h-595.301z"/><path fill="#E8445E" d="M32.8 84.5h259.101v129.5h-259.101z"/><circle fill="#E7DDCB" cx="164.5" cy="152.5" r="49.7"/><circle fill="#F4E398" cx="164.5" cy="152.5" r="47.8"/><circle fill="#F2B385" cx="164.5" cy="152.5" r="45.9"/><path fill="#fff" d="M79.4 106.3c-.5 0-.8.3-.8 1v1.1h-1.5v-1c0-1.6.8-2.5 2.399-2.5 1.601 0 2.4.9 2.4 2.5 0 3.3-3.4 4.5-3.101 6.2h3v1.4h-4.6v-1.2c0-3 3.1-3.5 3.1-6.4-.098-.9-.398-1.1-.898-1.1zM82.6 107.399c0-1.6.899-2.5 2.399-2.5 1.601 0 2.4.9 2.4 2.5v5.3c0 1.601-.9 2.5-2.4 2.5s-2.399-.899-2.399-2.5v-5.3zm1.6 5.3c0 .7.3 1 .8 1s.8-.3.8-1v-5.5c0-.699-.3-1-.8-1s-.8.301-.8 1v5.5zM88.5 104.899h2.5c1.601 0 2.4.9 2.4 2.5v5.101c0 1.6-.8 2.5-2.4 2.5h-2.5v-10.101zm1.6 1.5v7.2h.9c.5 0 .8-.3.8-1v-5.3c0-.7-.3-1-.8-1l-.9.1zM96.9 102.8l-1.5 1.6h-1.1l1-1.6h1.6zm-2.5 2.099h1.6v10.101h-1.6v-10.101zM102.3 115h-1.6l-.3-1.801h-1.9l-.3 1.801h-1.5l1.6-10.101h2.301l1.699 10.101zm-3.7-3.2h1.5l-.801-5.101-.699 5.101zM105.1 104.8c1.5 0 2.3.899 2.3 2.5v.3h-1.4v-.4c0-.699-.3-1-.8-1s-.8.301-.8 1c0 2.101 3.1 2.5 3.1 5.4 0 1.6-.8 2.5-2.399 2.5-1.601 0-2.4-.9-2.4-2.5v-.6h1.5v.699c0 .7.3 1 .8 1s.8-.3.8-1c0-2.1-3.1-2.5-3.1-5.399.099-1.601.899-2.5 2.399-2.5zM61.9 123.8l2.9-6.8h1.7v6.8h.7v1.399h-.7v1.801h-1.5v-1.801h-3l-.1-1.399zm3.1 0v-3.7l-1.6 3.7h1.6zM70.3 127.199c-1.6 0-2.5-.899-2.5-2.5v-.8c0-1 .301-1.7 1-2.1-.699-.4-1-1-1-2v-.3c0-1.601.9-2.5 2.5-2.5 1.601 0 2.5.899 2.5 2.5v.3c0 1-.3 1.7-1 2 .7.399 1 1.1 1 2.1v.8c0 1.5-.9 2.5-2.5 2.5zm-.9-7.199c0 .8.399 1.1.899 1.1s.9-.3.9-1.1v-.601c0-.899-.4-1.2-.9-1.2s-.899.2-.899 1.2v.601zm.9 5.699c.5 0 .9-.199.9-1.1v-1c0-.8-.3-1.1-.9-1.1-.6 0-.899.3-.899 1.1v.9c-.001 1.001.399 1.2.899 1.2zM73.6 119.399c0-1.6.899-2.5 2.399-2.5 1.601 0 2.4.9 2.4 2.5v5.3c0 1.601-.9 2.5-2.4 2.5-1.6 0-2.399-.899-2.399-2.5v-5.3zm1.6 5.3c0 .7.3 1 .8 1s.8-.3.8-1v-5.5c0-.699-.3-1-.8-1s-.8.301-.8 1v5.5zM81 127.1h-1.6v-10.1h1.6v4.3h1.8v-4.3h1.6v10.1h-1.6v-4.3h-1.8v4.3zM85.5 119.399c0-1.6.9-2.5 2.4-2.5 1.6 0 2.399.9 2.399 2.5v5.3c0 1.601-.899 2.5-2.399 2.5-1.601 0-2.4-.899-2.4-2.5v-5.3zm1.6 5.3c0 .7.3 1 .8 1s.8-.3.8-1v-5.5c0-.699-.3-1-.8-1s-.8.301-.8 1v5.5zM94.6 127.1c-.101-.3-.101-.4-.101-1.2v-1.6c0-.9-.3-1.3-1-1.3h-.499v4.1h-1.6v-10.1h2.4c1.601 0 2.4.8 2.4 2.3v.8c0 1-.3 1.7-1 2 .8.3 1.1 1.1 1.1 2.1v1.601c0 .5 0 .899.2 1.2l-1.9.099zm-1.7-8.701v3.101h.6c.601 0 1-.301 1-1.101v-1c0-.7-.2-1-.8-1h-.8zM102.3 127.1h-1.6l-.3-1.8h-1.9l-.3 1.8h-1.5l1.6-10.1h2.301l1.699 10.1zm-3.7-3.201h1.5l-.801-5.1-.699 5.1zM105.1 116.8c1.5 0 2.3.899 2.3 2.5v.3h-1.4v-.4c0-.699-.3-1-.8-1s-.8.301-.8 1c0 2.101 3.1 2.5 3.1 5.4 0 1.6-.8 2.5-2.399 2.5-1.601 0-2.4-.9-2.4-2.5v-.6h1.5v.699c0 .7.3 1 .8 1s.8-.3.8-1c0-2.1-3.1-2.5-3.1-5.399.099-1.5.899-2.5 2.399-2.5zM43.4 130.3c-.5 0-.8.3-.8 1v1.1h-1.5v-1c0-1.6.8-2.5 2.399-2.5 1.601 0 2.4.9 2.4 2.5 0 3.3-3.4 4.5-3.101 6.2h3v1.4h-4.6v-1.2c0-3 3.1-3.5 3.1-6.4.002-.8-.398-1.1-.898-1.1zM49.1 139.199c-1.601 0-2.5-.899-2.5-2.5v-.8c0-1 .3-1.7 1-2.1-.7-.4-1-1-1-2v-.3c0-1.601.899-2.5 2.5-2.5 1.6 0 2.5.899 2.5 2.5v.3c0 1-.301 1.7-1 2 .699.399 1 1.1 1 2.1v.8c0 1.601-.9 2.5-2.5 2.5zm-.9-7.199c0 .8.4 1.1.9 1.1s.9-.3.9-1.1v-.601c0-.899-.399-1.2-.899-1.2s-.9.2-.9 1.2v.601zm.9 5.8c.5 0 .899-.2.899-1.101v-.899c0-.8-.3-1.101-.899-1.101-.601 0-.9.301-.9 1.101v.899c0 .801.4 1.101.9 1.101zM54.8 139.199c-1.6 0-2.5-.899-2.5-2.5v-.8c0-1 .301-1.7 1-2.1-.699-.4-1-1-1-2v-.3c0-1.601.9-2.5 2.5-2.5 1.601 0 2.5.899 2.5 2.5v.3c0 1-.3 1.7-1 2 .7.399 1 1.1 1 2.1v.8c0 1.601-.9 2.5-2.5 2.5zm-.9-7.199c0 .8.399 1.1.899 1.1s.9-.3.9-1.1v-.601c0-.899-.4-1.2-.9-1.2s-.899.2-.899 1.2v.601zm.9 5.8c.5 0 .9-.2.9-1.101v-.899c0-.8-.3-1.101-.9-1.101-.6 0-.899.301-.899 1.101v.899c-.001.801.399 1.101.899 1.101zM58.1 131.399c0-1.6.899-2.5 2.399-2.5 1.601 0 2.4.9 2.4 2.5v5.3c0 1.601-.9 2.5-2.4 2.5-1.6 0-2.399-.899-2.399-2.5v-5.3zm1.6 5.401c0 .7.3 1 .8 1s.8-.3.8-1v-5.5c0-.7-.3-1-.8-1s-.8.3-.8 1v5.5zM63.8 131.399c0-1.6.9-2.5 2.4-2.5 1.6 0 2.4.9 2.4 2.5v5.3c0 1.601-.9 2.5-2.4 2.5-1.6 0-2.4-.899-2.4-2.5v-5.3zm1.6 5.401c0 .7.3 1 .8 1s.8-.3.8-1v-5.5c0-.7-.3-1-.8-1s-.8.3-.8 1v5.5zM73 136.1l1.101-7.2h2.199v10.1h-1.5v-7.2l-1.1 7.2h-1.5l-1.2-7.101v7.101h-1.4v-10.101h2.2l1.2 7.201zM77.5 129h1.6v10.1h-1.6v-10.1zM81.6 131.8v7.3h-1.4v-10.1h2l1.6 6v-6h1.4v10.1h-1.6l-2-7.3zM87.9 129v7.8c0 .7.3 1 .8 1s.8-.3.8-1v-7.8h1.5v7.699c0 1.601-.8 2.5-2.399 2.5-1.601 0-2.4-.899-2.4-2.5v-7.699h1.699zM91.7 129h4.9v1.399h-1.7v8.7h-1.6v-8.7h-1.7l.1-1.399zM97.1 131.399c0-1.6.899-2.5 2.399-2.5s2.4.9 2.4 2.5v5.3c0 1.601-.9 2.5-2.4 2.5-1.6 0-2.399-.899-2.399-2.5v-5.3zm1.6 5.401c0 .7.3 1 .8 1s.8-.3.8-1v-5.5c0-.7-.3-1-.8-1s-.8.3-.8 1v5.5zM105.1 128.899c1.5 0 2.3.9 2.3 2.5v.3h-1.4v-.399c0-.7-.3-1-.8-1s-.8.3-.8 1c0 2.1 3.1 2.5 3.1 5.399 0 1.601-.8 2.5-2.399 2.5-1.601 0-2.4-.899-2.4-2.5v-.6h1.5v.7c0 .7.3 1 .8 1s.8-.3.8-1c0-2.101-3.1-2.5-3.1-5.4.099-1.599.899-2.5 2.399-2.5zM219.3 111.699c-1.6 0-2.5-.899-2.5-2.5v-.8c0-1 .301-1.7 1-2.1-.699-.4-1-1-1-2v-.299c0-1.601.9-2.5 2.5-2.5 1.601 0 2.5.899 2.5 2.5v.3c0 1-.3 1.7-1 2 .7.399 1 1.1 1 2.1v.8c0 1.6-.9 2.499-2.5 2.499zm-.9-7.199c0 .8.399 1.1.899 1.1s.9-.3.9-1.1v-.601c0-.899-.4-1.2-.9-1.2s-.899.2-.899 1.2v.601zm.9 5.8c.5 0 .9-.2.9-1.101v-.899c0-.8-.3-1.101-.9-1.101-.6 0-.899.301-.899 1.101v.899c-.001.801.399 1.101.899 1.101zM222.7 101.5h2.5c1.6 0 2.4.899 2.4 2.5v5.1c0 1.6-.801 2.5-2.4 2.5h-2.5v-10.1zm1.6 1.399v7.2h.9c.5 0 .8-.3.8-1v-5.3c0-.7-.3-1-.8-1l-.9.1zM231.1 99.399l-1.5 1.601h-1.1l1-1.601h1.6zm-2.5 2.101h1.6v10.1h-1.6v-10.1zM236.5 111.6h-1.6l-.3-1.8h-1.9l-.3 1.8h-1.5l1.6-10.1h2.3l1.7 10.1zm-3.6-3.201h1.5l-.8-5.1-.7 5.1zM239.4 101.399c1.5 0 2.3.9 2.3 2.5v.3h-1.5v-.399c0-.7-.3-1-.8-1s-.8.3-.8 1c0 2.1 3.1 2.5 3.1 5.399 0 1.601-.8 2.5-2.4 2.5-1.6 0-2.399-.899-2.399-2.5v-.6h1.5v.7c0 .7.3 1 .8 1s.8-.3.8-1c0-2.101-3.1-2.5-3.1-5.4.099-1.599.899-2.5 2.499-2.5zM218 114.8c1.2 0 1.5-.601 1.7-1.3h1.1v10.1h-1.6v-7.7h-1.2v-1.1zM227.4 121.1c0 1.7-.8 2.6-2.4 2.6-1.6 0-2.399-.899-2.399-2.5v-.3h1.5v.4c0 .7.3 1 .8 1 .6 0 .899-.3.899-1.2v-1.8c-.3.6-.8.899-1.5.899-1.199 0-1.8-.8-1.8-2.3v-1.8c0-1.6.9-2.5 2.4-2.5s2.399.9 2.399 2.5l.101 5.001zm-1.6-3.401v-1.8c0-.7-.3-1-.8-1s-.8.3-.8 1v1.8c0 .7.3 1 .8 1 .5-.099.8-.3.8-1zM230.8 114.8c-.5 0-.8.3-.8 1v1.1h-1.5v-1c0-1.6.8-2.5 2.4-2.5 1.6 0 2.399.9 2.399 2.5 0 3.3-3.399 4.5-3.1 6.2h3v1.4h-4.6v-1.2c0-3 3.1-3.5 3.1-6.4-.099-.8-.399-1.1-.899-1.1zM235.7 123.6h-1.6v-10.1h1.6v4.3h1.8v-4.3h1.601v10.1h-1.601v-4.3h-1.8v4.3zM240.2 115.899c0-1.6.9-2.5 2.4-2.5 1.6 0 2.399.9 2.399 2.5v5.3c0 1.601-.899 2.5-2.399 2.5s-2.4-.899-2.4-2.5v-5.3zm1.6 5.401c0 .7.301 1 .801 1s.8-.3.8-1v-5.5c0-.7-.3-1-.8-1s-.801.3-.801 1v5.5zM249.3 123.6c-.1-.3-.1-.4-.1-1.2v-1.6c0-.9-.3-1.3-1-1.3h-.5v4.1h-1.7v-10.1h2.4c1.6 0 2.399.8 2.399 2.3v.8c0 1-.3 1.7-1 2 .801.3 1.101 1.1 1.101 2.2v1.6c0 .5 0 .9.2 1.2h-1.8zm-1.7-8.6v3.1h.6c.6 0 1-.3 1-1.1v-1c0-.7-.2-1-.8-1h-.8zM257 123.6h-1.6l-.3-1.8h-1.9l-.3 1.8h-1.5l1.6-10.1h2.3l1.7 10.1zm-3.7-3.201h1.5l-.8-5.1-.7 5.1zM259.8 113.399c1.5 0 2.301.9 2.301 2.5v.3h-1.5v-.399c0-.7-.301-1-.801-1s-.8.3-.8 1c0 2.1 3.101 2.5 3.101 5.399 0 1.601-.801 2.5-2.4 2.5s-2.4-.899-2.4-2.5v-.6h1.5v.7c0 .7.301 1 .801 1s.8-.3.8-1c0-2.101-3.101-2.5-3.101-5.4.199-1.599.999-2.5 2.499-2.5zM218 126.8c1.2 0 1.5-.601 1.7-1.3h1.1v10.1h-1.6v-7.7h-1.2v-1.1zM223.7 126.8c1.2 0 1.5-.601 1.7-1.3h1.1v10.1h-1.6v-7.7h-1.2v-1.1zM229.9 132.399v.9c0 .7.3 1 .8 1s.8-.3.8-1v-2.2c0-.7-.3-1-.8-1s-.8.3-.8 1v.3h-1.5l.3-5.899h4.2v1.399h-2.8l-.1 2.401c.3-.5.8-.7 1.4-.7 1.2 0 1.8.8 1.8 2.3v2.3c0 1.601-.8 2.5-2.4 2.5-1.6 0-2.399-.899-2.399-2.5v-.8h1.499v-.001zM236.5 126.899c-.5 0-.8.3-.8 1v1.101h-1.5v-1c0-1.601.8-2.5 2.4-2.5 1.6 0 2.399.899 2.399 2.5 0 3.3-3.399 4.5-3.1 6.199h3v1.4h-4.599v-1.2c0-3 3.101-3.5 3.101-6.399-.101-.9-.401-1.101-.901-1.101zM239.7 128c0-1.601.9-2.5 2.4-2.5 1.6 0 2.399.899 2.399 2.5v5.3c0 1.6-.899 2.5-2.399 2.5-1.601 0-2.4-.9-2.4-2.5v-5.3zm1.6 5.3c0 .7.301 1 .801 1s.8-.3.8-1v-5.5c0-.7-.3-1-.8-1s-.801.3-.801 1v5.5zM248.9 132.699l1.1-7.199h2.2v10.1h-1.5v-7.2l-1.1 7.2h-1.5l-1.2-7.1v7.1h-1.4v-10.1h2.2l1.2 7.199zM253.4 125.5h1.6v10.1h-1.6v-10.1zM257.5 128.3v7.3h-1.4v-10.1h2l1.6 6v-6h1.4v10.1h-1.6l-2-7.3zM263.8 125.5v7.8c0 .7.301 1 .801 1s.8-.3.8-1v-7.8h1.5v7.699c0 1.601-.8 2.5-2.4 2.5-1.6 0-2.399-.899-2.399-2.5v-7.699h1.698zM267.6 125.5h4.899v1.399h-1.7v8.7h-1.6v-8.7h-1.7l.101-1.399zM273 128c0-1.601.9-2.5 2.4-2.5 1.6 0 2.399.899 2.399 2.5v5.3c0 1.6-.899 2.5-2.399 2.5-1.601 0-2.4-.9-2.4-2.5v-5.3zm1.6 5.3c0 .7.3 1 .8 1s.8-.3.8-1v-5.5c0-.7-.3-1-.8-1s-.8.3-.8 1v5.5zM281 125.399c1.5 0 2.3.9 2.3 2.5v.3h-1.5v-.399c0-.7-.3-1-.8-1s-.8.3-.8 1c0 2.1 3.1 2.5 3.1 5.399 0 1.601-.8 2.5-2.399 2.5-1.601 0-2.4-.899-2.4-2.5v-.6h1.5v.7c0 .7.3 1 .8 1s.801-.3.801-1c0-2.101-3.101-2.5-3.101-5.4.199-1.599.999-2.5 2.499-2.5zM228.1 173.3c0-1.601.899-2.5 2.399-2.5 1.601 0 2.4.899 2.4 2.5v5.3c0 .6-.101 1-.3 1.4.1.199.199.199.399.199h.101v1.4h-.099c-.7 0-1.2-.3-1.399-.7-.301.101-.7.2-1.101.2-1.6 0-2.399-.9-2.399-2.5v-5.299h-.001zm1.6 5.399c0 .7.3 1 .8 1s.8-.3.8-1v-5.5c0-.699-.3-1-.8-1s-.8.301-.8 1v5.5zM235.5 170.899v7.8c0 .7.3 1 .8 1s.801-.3.801-1v-7.8h1.5v7.7c0 1.6-.801 2.5-2.4 2.5s-2.4-.9-2.4-2.5v-7.7h1.699zM239.7 170.899h1.6v10.101h-1.6v-10.101zM244 175.1h2.2v1.4h-2.2v3h2.7v1.399h-4.3v-10.1h4.3v1.399h-2.7v2.902zM251.1 181c-.1-.301-.1-.4-.1-1.2v-1.601c0-.899-.3-1.3-1-1.3h-.5v4.101h-1.6v-10.101h2.399c1.601 0 2.4.8 2.4 2.3v.801c0 1-.3 1.699-1 2 .8.3 1.1 1.1 1.1 2.1v1.6c0 .5 0 .9.2 1.2l-1.899.1zm-1.8-8.7v3.1h.601c.6 0 1-.3 1-1.1v-1c0-.7-.2-1-.8-1h-.801zM255.1 175.1h2.199v1.4h-2.199v3h2.699v1.399h-4.3v-10.1h4.3v1.399h-2.699v2.902zM258.4 170.899h4.899v1.4h-1.699v8.7h-1.6v-8.7h-1.7l.1-1.4zM265.6 175.1h2.199v1.4h-2.199v3h2.699v1.399h-4.299v-10.1h4.3v1.399h-2.7v2.902zM229.7 189.699l-2-6.8h1.7l1.2 4.601 1.199-4.601h1.5l-2 6.8v3.301h-1.6v-3.301h.001zM237.6 185.699v7.301h-1.4v-10.101h2l1.6 6v-6h1.4v10.101h-1.6l-2-7.301zM242.2 185.3c0-1.601.9-2.5 2.4-2.5 1.6 0 2.399.899 2.399 2.5v5.3c0 1.6-.899 2.5-2.399 2.5-1.601 0-2.4-.9-2.4-2.5v-5.3zm1.6 5.399c0 .7.301 1 .801 1s.8-.3.8-1v-5.5c0-.699-.3-1-.8-1s-.801.301-.801 1v5.5zM250.3 182.899h1.601v8.7h2.6v1.4h-4.2v-10.1h-.001zM255.1 185.3c0-1.601.899-2.5 2.399-2.5s2.4.899 2.4 2.5v5.3c0 1.6-.9 2.5-2.4 2.5-1.6 0-2.399-.9-2.399-2.5v-5.3zm1.6 5.399c0 .7.3 1 .8 1s.8-.3.8-1v-5.5c0-.699-.3-1-.8-1s-.8.301-.8 1v5.5zM232.8 201.3v1.3c0 1.6-.8 2.5-2.399 2.5-1.601 0-2.4-.9-2.4-2.5v-5.3c0-1.601.8-2.5 2.4-2.5 1.6 0 2.399.899 2.399 2.5v1h-1.5v-1.101c0-.699-.3-1-.8-1s-.8.301-.8 1v5.5c0 .7.3 1 .8 1s.8-.3.8-1v-1.399h1.5zM235.4 199.199h2.2v1.4h-2.2v3h2.7v1.4h-4.3v-10.101h4.301v1.4h-2.7v2.901h-.001zM239.1 194.899h1.6v8.7h2.6v1.4h-4.2v-10.1zM245.6 199.199h2.199v1.4h-2.199v3h2.699v1.4h-4.299v-10.101h4.3v1.4h-2.7v2.901zM254.1 197.3v.399c0 1-.301 1.7-1 2 .899.301 1.199 1.101 1.199 2.2v.8c0 1.601-.8 2.4-2.399 2.4h-2.5v-10.099h2.399c1.601-.101 2.301.699 2.301 2.3zm-3.2-.901v2.7h.6c.601 0 1-.3 1-1.1v-.601c0-.7-.2-1-.8-1h-.8v.001zm0 4.101v3.1h.899c.5 0 .801-.2.801-1v-.9c0-.899-.301-1.199-1-1.199h-.7v-.001zM258.5 205c-.1-.301-.1-.4-.1-1.2v-1.601c0-.899-.3-1.3-1-1.3h-.5v4.101h-1.6v-10.101h2.4c1.6 0 2.4.8 2.4 2.3v.801c0 1-.301 1.699-1 2 .8.3 1.1 1.1 1.1 2.1v1.6c0 .5 0 .9.2 1.2l-1.9.1zm-1.7-8.601v3.101h.601c.6 0 1-.301 1-1.101v-1c0-.7-.2-1-.8-1h-.801zM262.6 199.199h2.199v1.4h-2.199v3h2.699v1.4h-4.299v-10.101h4.3v1.4h-2.7v2.901zM268.4 194.8c1.5 0 2.3.899 2.3 2.5v.3h-1.5v-.4c0-.699-.3-1-.8-1s-.8.301-.8 1c0 2.101 3.1 2.5 3.1 5.4 0 1.6-.8 2.5-2.4 2.5-1.6 0-2.399-.9-2.399-2.5v-.6h1.5v.699c0 .7.3 1 .8 1s.8-.3.8-1c0-2.1-3.1-2.5-3.1-5.399.199-1.5.999-2.5 2.499-2.5z"/><path fill="#E43F1D" d="M164.2 154.6s44.9 6.8 45.1 7.5c.101.6-2 7.6-3.8 11.3-.3.499-41.3-18.8-41.3-18.8z"/><path fill="#1D1D1B" d="M126.5 160.8h4.9v1.399h-1.7v8.7h-1.6v-8.7h-1.7l.1-1.399zM135.4 170.899c-.101-.3-.101-.399-.101-1.2v-1.6c0-.9-.3-1.3-1-1.3h-.5v4.1h-1.6v-10.1h2.4c1.6 0 2.399.8 2.399 2.3v.8c0 1-.3 1.7-1 2 .8.3 1.101 1.101 1.101 2.101v1.6c0 .5 0 .9.199 1.2l-1.898.099zm-1.7-8.7v3.101h.6c.601 0 1-.3 1-1.101v-1c0-.699-.199-1-.8-1h-.8zM143 170.899h-1.6l-.3-1.8h-1.9l-.3 1.8h-1.5l1.6-10.1h2.3l1.7 10.1zm-3.6-3.2h1.5l-.8-5.1-.7 5.1zM148.5 163.1v.4c0 1-.3 1.699-1 2 .9.3 1.2 1.1 1.2 2.199v.801c0 1.6-.8 2.399-2.4 2.399h-2.5v-10.1h2.4c1.6.001 2.3.801 2.3 2.301zm-3.2-.901v2.7h.601c.6 0 1-.3 1-1.1v-.601c0-.699-.2-1-.8-1h-.801v.001zm0 4.101v3.1h.9c.5 0 .8-.2.8-1v-.8c0-.9-.3-1.2-1-1.2l-.7-.1zM154.7 170.899h-1.6l-.301-1.8h-1.899l-.3 1.8h-1.5l1.6-10.1h2.3l1.7 10.1zm-3.6-3.2h1.5l-.801-5.1-.699 5.1zM155 169.399h.5c.5 0 .9-.2.9-1v-7.7h1.6v7.601c0 2-1.1 2.5-2.3 2.5h-.8l.1-1.401zM164.3 170.899h-1.6l-.3-1.8h-1.9l-.3 1.8h-1.5l1.6-10.1h2.301l1.699 10.1zm-3.6-3.2h1.5l-.8-5.1-.7 5.1zM168.4 170.899c-.101-.3-.101-.399-.101-1.2v-1.6c0-.9-.3-1.3-1-1.3h-.5v4.1h-1.799v-10.1h2.4c1.6 0 2.399.8 2.399 2.3v.8c0 1-.3 1.7-1 2 .801.3 1.101 1.101 1.101 2.101v1.6c0 .5 0 .9.2 1.2l-1.7.099zm-1.8-8.7v3.101h.6c.6 0 1-.3 1-1.101v-1c0-.699-.2-1-.8-1h-.8z"/><path fill="#EB711F" d="M209.3 162.1c7-34-22.199-56.7-45.1-55.5v48l45.1 7.5z"/><path fill="#1D1D1B" d="M169 140.3l-.2-3.7v-4.2h1.601v4.2l-.2 3.7h-1.201zm1.3.7v1.5h-1.5v-1.5h1.5zM173.1 136.899h2v1.4h-2v4.2h-1.6v-10.101h4.2v1.4h-2.6v3.101zM176.5 132.399h1.601v10.101h-1.601v-10.101zM180.8 136.6h2.2v1.4h-2.2v3h2.7v1.399h-4.3v-10.1h4.3v1.399h-2.7v2.902zM186.7 132.3c1.5 0 2.3.899 2.3 2.5v.3h-1.5v-.4c0-.699-.3-1-.8-1s-.8.301-.8 1c0 2.101 3.1 2.5 3.1 5.4 0 1.6-.8 2.5-2.399 2.5-1.601 0-2.4-.9-2.4-2.5v-.6h1.5v.699c0 .7.3 1 .8 1s.8-.3.8-1c0-2.1-3.1-2.5-3.1-5.399.099-1.601.899-2.5 2.499-2.5zM189.5 132.399h4.9v1.4h-1.7v8.7h-1.6v-8.7h-1.7l.1-1.4zM199.6 142.5h-1.6l-.3-1.801h-1.9l-.3 1.801h-1.5l1.601-10.101h2.3l1.699 10.101zm-3.6-3.2h1.5l-.8-5.101-.7 5.101zM201.8 134.6l.2 3.6v4.2h-1.6v-4.2l.2-3.6h1.2zm-1.4-.701v-1.5h1.5v1.5h-1.5z"/><path fill="#fff" d="M184.4 158.6l.1-.3.5.2-.1.3c.399.2.5.6.3 1.1v.1l-.6-.2v-.2c.1-.3 0-.4-.2-.5s-.3 0-.4.3c-.2.8.9 1.2.601 2.2-.2.5-.5.8-.9.7l-.1.3-.5-.1.1-.301c-.4-.199-.5-.6-.4-1.1l.101-.3.6.2-.1.3c-.101.3 0 .399.2.5.199.1.3 0 .399-.3.2-.801-.899-1.2-.6-2.2.199-.499.499-.699.999-.699zM186.6 163.399l-.601-.2.101-.699-.7-.2-.3.6-.5-.2 1.8-3.6.899.3-.699 3.999zm-.9-1.599l.6.2.301-2-.901 1.8zM188.3 161l-.899 2.699-.5-.199 1.2-3.801.699.2-.1 2.4.7-2.2.5.2-1.2 3.8-.6-.2.2-2.899zM191.1 164.1l1.399-2.9.5.2-1.799 3.6-.9-.301.601-3.899.6.2-.401 3.1zM194 165.699l-.6-.199.1-.7-.7-.2-.3.6-.5-.2 1.8-3.601.9.3-.7 4zm-1-1.599l.601.2.3-2-.901 1.8z"/><path fill="#E43F1D" d="M195.4 162.1l.6.2-1 3.2 1 .3-.2.5-1.6-.5 1.2-3.7z"/><path fill="#fff" d="M196.7 164l.3-.5c.2-.601.601-.9 1.2-.7s.8.6.6 1.2l-.1.3-.6-.2.1-.3c.1-.3 0-.4-.2-.5-.2-.101-.3 0-.399.3l-.2.6.8.301-.1.3-.801-.3-.1.3.8.3-.1.3-.8-.3-.2.6c-.101.301 0 .4.2.5.199.101.3 0 .399-.3l.101-.3.6.2-.1.3c-.2.6-.601.9-1.2.7-.601-.2-.8-.601-.601-1.2l.2-.5h-.2l.101-.3h.1l.101-.3h-.101l.2-.501zM199.6 164.5l-.9 2.699-.5-.199 1.2-3.801.7.2-.1 2.401.7-2.2.5.2-1.2 3.7-.6-.2.2-2.8zM201.5 164l1.8.6-.199.5-.601-.2-1 3.2-.6-.2 1-3.2-.6-.2.2-.5zM203.6 164.6l.6.2-1.2 3.8-.6-.2 1.2-3.8zM204.8 166.1l-.899 2.7-.5-.2 1.2-3.8.699.2-.1 2.399.7-2.2.5.2-1.2 3.8-.6-.199.2-2.9zM194.8 164.199l.4.101c0-.4-.2-.7 0-1.4.2-.6.6-.899 1.2-.7.6.2.8.601.6 1.2l-.1.4-.601-.2.101-.4c.1-.3 0-.399-.2-.5-.2-.1-.3 0-.4.301-.199.699 0 1-.1 1.399l.7.2-.101.5-.6-.2c-.1.3-.3.4-.5.5l1 .3-.2.5-1.8-.6.2-.5c.3.1.6-.1.7-.5l-.4-.1.101-.301z"/><path stroke="#1D1D1B" fill="none" d="M148.3 158.5l-38.4-38.4M185.4 124.5l32.2-10.5M207 168.399l19.2 19.201"/><path fill="#8CCED9" d="M303.5 84.5h259.101v129.5h-259.101z"/><path fill="#fff" d="M380.9 131.5c7.101 0 12.9 5.8 12.9 13 0 7.199-5.7 13-12.8 13-7.101 0-12.9-5.801-12.9-13 0-7.101 5.701-13 12.8-13zm.101 20.8c3.899 0 7.199-3.5 7.199-7.7s-3.3-7.8-7.199-7.8c-4 0-7.2 3.5-7.2 7.8-.101 4.2 3.2 7.7 7.2 7.7zM404.4 157.5l-11-25.601h5.7l5.3 13.9 5.3-13.9h5.7l-11 25.601zM418.1 132h15.5v5.199h-10.1v3.601h9.6v5.2h-9.6v5.899h10.3v5.3h-15.7v-25.199zM500.7 143.699c1.5 1 2.9 3.101 2.9 5.601 0 4.2-3.4 7.8-7.7 7.8h-10v-25.1h9.8c4 0 7.2 3.199 7.2 7.3 0 1.899-1.2 3.7-2.2 4.399zm-9.5-2.099h3.9c1.3 0 2.3-1 2.3-2.3s-1-2.3-2.3-2.3h-3.9v4.6zm4 10.5c1.601 0 2.9-1.3 2.9-2.9 0-1.6-1.3-2.899-2.9-2.899h-4.1v5.7l4.1.099zM507.4 132h15.5v5.199h-10.1v3.601h9.6v5.2h-9.6v5.899h10.2v5.3h-15.7l.1-25.199zM542.2 147.899c2.9 2.2 3.5 4.7 3.5 7.3v1.9h-5.399v-1.9c0-2.699-1.8-4.8-4.5-4.8h-3.3v6.8h-5.4v-25.1h9.3c5.1 0 9.3 4.2 9.3 9.3-.001 3.201-1.7 5-3.501 6.5zm-6.3-11h-3.399v8.601h3.399c2.4 0 4.3-1.9 4.3-4.301 0-2.3-2-4.3-4.3-4.3zM395.801 162.3h1v1.2h.8v-1.2h1v3.399h-1v-1.199h-.8v1.199h-1v-3.399zM399.9 163.3h-.7v-1h2.4v1h-.7v2.399h-1v-2.399zM402.6 163.3h-.7v-1h2.4v1h-.7v2.399h-1v-2.399zM406.4 164.699h-.5v1h-1v-3.399h1.5c.7 0 1.2.5 1.2 1.2 0 .6-.5 1.199-1.2 1.199zm-.099-1.5h-.4v.601h.4c.2 0 .3-.101.3-.3-.001-.2-.201-.301-.3-.301zM408.6 162.3c.3 0 .6.3.6.6s-.3.601-.6.601-.6-.301-.6-.601.301-.6.6-.6zm0 2.2c.3 0 .6.3.6.6s-.3.6-.6.6-.6-.3-.6-.6.301-.6.6-.6zM413.2 160.6l-2.699 6.1-.9-.399 2.7-6.2.899.499zM417.1 160.6l-2.7 6.1-.899-.399 2.699-6.2.9.499zM417.6 162.3h2.2v.899h-1.2v.301h1.1v.899h-1.1v.4h1.2v.899h-2.2v-3.398zM421.7 163.5c.601 0 1.101.5 1.101 1.1s-.5 1.1-1.101 1.1h-1.3v-.9h1.2c.1 0 .2-.101.2-.2s-.101-.2-.2-.2h-.3c-.601 0-1.101-.5-1.101-1.1 0-.601.5-1.101 1.101-1.101h1.1v.9h-1.1c-.101 0-.101.1-.101.1l.101.101.4.2zM423.6 164.5c.3 0 .6.3.6.6s-.3.6-.6.6-.6-.3-.6-.6.301-.6.6-.6zM426.6 165.8l-.7-1.2-.2 1.1h-1l.7-3.5 1.101 1.9 1.1-1.9.7 3.5h-1l-.2-1.1-.501 1.2zM428.7 164c0-1 .801-1.801 1.801-1.801s1.8.801 1.8 1.801-.8 1.8-1.8 1.8-1.801-.8-1.801-1.8zm1 0c0 .399.301.8.7.8.4 0 .7-.4.7-.8s-.3-.801-.7-.801c-.3 0-.7.401-.7.801zM433.801 163.699l.5-1.399h1l-1.601 3.5-1.6-3.5h1l.701 1.399zM435.7 162.3h2.2v.899h-1.2v.301h1.101v.899h-1.101v.4h1.2v.899h-2.2v-3.398zM440.1 165.8l-.7-1.2-.2 1.1h-1l.8-3.5 1.101 1.9 1.1-1.9.7 3.5h-1l-.2-1.1-.601 1.2zM445.001 163.899c.199.2.3.4.3.7 0 .6-.5 1.1-1.101 1.1h-1.7v-3.399h1.601c.5 0 1 .399 1 1 .099.2-.001.399-.1.599zm-1.5-.299h.5c.1 0 .199-.1.199-.2s-.1-.2-.199-.2h-.5v.4zm.5 1.2c.1 0 .199-.101.199-.2s-.1-.2-.199-.2h-.5v.4h.5zM445.801 162.3h2.2v.899h-1.2v.301h1.1v.899h-1.1v.4h1.2v.899h-2.2v-3.398zM449.6 164.899v.8h-1v-3.399h1.4c.699 0 1.3.6 1.3 1.3 0 .4-.2.7-.4.9.3.199.4.399.4.8v.399h-1v-.3c0-.3-.2-.5-.5-.5h-.2zm.201-1.7h-.3v.801h.3c.2 0 .399-.2.399-.4s-.1-.401-.399-.401zM452.301 164.5c.3 0 .6.3.6.6s-.3.6-.6.6c-.301 0-.601-.3-.601-.6s.301-.6.601-.6zM455.2 164.8c.301 0 .5-.101.7-.3v1.199c-.3.101-.5.101-.7.101-1 0-1.8-.8-1.8-1.8s.8-1.801 1.8-1.801c.2 0 .4 0 .7.101v1.2c-.2-.2-.399-.301-.7-.301-.399 0-.699.301-.699.801s.3.8.699.8zM456.2 164c0-1 .801-1.801 1.801-1.801s1.8.801 1.8 1.801-.8 1.8-1.8 1.8-1.801-.8-1.801-1.8zm1.101 0c0 .399.3.8.8.8s.7-.4.7-.8-.3-.801-.7-.801c-.501 0-.8.401-.8.801zM461.801 165.8l-.7-1.2-.2 1.1h-1l.7-3.5 1.1 1.9 1.101-1.9.8 3.5h-1l-.2-1.1-.601 1.2zM467.6 160.6l-2.7 6.1-.899-.399 2.699-6.2.9.499z"/><path fill="#1D1D1B" d="M318.6 163.699h71.9v.7h-71.9zM471.6 163.699h76v.7h-76z"/><path fill="#fff" d="M437.301 140.6s2.399 5.3 7.2 4.9c4.5-1.601 2-5 10.3-6.2 1.7-.601 5.2 2 5.2 2s2.399-2.4 5.8-2.101c3.8-.199 8.7 6.4 9.7 6.101 1.1-.3 4.3.399 7.199-4.7 2.5 10.8-8.6 11.5-8.6 11.5h-3.3s-5.4-.4-11-4c-5.601 3.3-10.601 4-10.601 4h-3.899c-10.999-1.6-7.999-11.5-7.999-11.5zM319.6 140.6s2.4 5.3 7.2 4.9c4.5-1.601 2-5 10.3-6.2 1.7-.601 5.2 2 5.2 2s2.399-2.4 5.8-2.101c3.8-.199 8.7 6.4 9.7 6.101 1.1-.3 4.3.399 7.2-4.7 2.5 10.8-8.601 11.5-8.601 11.5h-3.3s-5.4-.4-11-4c-5.6 3.3-10.6 4-10.6 4h-3.9c-10.999-1.6-7.999-11.5-7.999-11.5z"/></svg>