<svg xmlns="http://www.w3.org/2000/svg" width="319.6" height="241.4"><path fill="#BDC3C7" d="M319.6 237.5c0 2.2-2.4 4-5.4 4h-308.8c-3 0-5.4-1.8-5.4-4v-233.5c0-2.2 2.4-4 5.4-4h308.8c3 0 5.4 1.8 5.4 4v233.5z"/><path fill="#FEE470" d="M319.6 238.9c0 1.4-2.4 2.6-5.4 2.6h-308.8c-3 0-5.4-1.1-5.4-2.6v-150.8c0-1.4 2.4-2.6 5.4-2.6h308.8c3 0 5.4 1.1 5.4 2.6v150.8zM0 23.5h319.6v111.1h-319.6z"/><circle fill="#E74C3C" cx="5.7" cy="4.7" r="2.3"/><circle fill="#F1C40F" cx="13.4" cy="4.7" r="2.3"/><circle fill="#2ECC71" cx="21.1" cy="4.7" r="2.3"/><path fill="#7F8C8D" d="M0 10.3h319.6v13.2h-319.6z"/><path fill="#95A5A6" d="M4.1 12.9h18.5v8h-18.5zM26.1 12.9h24.6v8h-24.6zM267.1 12.9h24.6v8h-24.6zM295.1 12.9h20.8v8h-20.8z"/><path fill="#fff" d="M55.9 12.9h205.9v8h-205.9z"/><text transform="translate(23.068 126.649)" font-family="'ArialMT'" font-size="5.897">/* ==========================================================================</text><text transform="translate(117.052 133.726)" font-family="'ArialMT'" font-size="5.897">HTML5 display definitions</text><text transform="translate(20.611 140.802)" font-family="'ArialMT'" font-size="5.897">========================================================================== */</text><text transform="translate(150.153 154.954)" font-family="'ArialMT'" font-size="5.897">/**</text><text transform="translate(70.343 162.03)" font-family="'ArialMT'" font-size="5.897">* Correct `block` display not defined in IE 6/7/8/9 and Firefox 3.</text><text transform="translate(150.482 169.106)" font-family="'ArialMT'" font-size="5.897">*/</text><text transform="translate(144.583 183.259)" font-family="'ArialMT'" font-size="5.897">article,</text><text transform="translate(145.4 190.334)" font-family="'ArialMT'" font-size="5.897">aside,</text><text transform="translate(143.925 197.41)" font-family="'ArialMT'" font-size="5.897">details,</text><text transform="translate(139.826 204.486)" font-family="'ArialMT'" font-size="5.897">figcaption,</text><text transform="translate(145.072 211.563)" font-family="'ArialMT'" font-size="5.897">figure,</text><text transform="translate(144.908 218.639)" font-family="'ArialMT'" font-size="5.897">footer,</text><text transform="translate(143.268 225.715)" font-family="'ArialMT'" font-size="5.897">header,</text><text transform="translate(143.268 232.791)" font-family="'ArialMT'" font-size="5.897">hgroup,</text><text transform="translate(146.058 239.867)" font-family="'ArialMT'" font-size="5.897">main,</text><title>HTML5 Logo</title><path fill="#E44D26" d="M76.4 109.5l-4.3-48.5h47.5l-4.3 48.5-19.5 5.4z"/><path fill="#F16529" d="M95.8 110.7l15.8-4.3 3.7-41.5h-19.5z"/><path fill="#EBEBEB" d="M95.8 82.9h-7.8l-.6-6.1h8.4v-5.9h-14.9l.2 1.6 1.4 16.4h13.3zM95.8 98.4l-6.6-1.8-.4-4.7h-6l.8 9.3 12.2 3.4z"/><path d="M76.5 47.8h3v3h2.8v-3h3v9h-3v-3h-2.8v3h-3v-9zM89.3 50.8h-2.7v-3h8.4v3h-2.7v6h-3v-6zM96.3 47.8h3.2l1.9 3.2 1.9-3.2h3.2v9h-3v-4.5l-2.1 3.2h-.1l-2.1-3.2v4.5h-3l.1-9zM108 47.8h3v6.1h4.2v3h-7.2v-9.1z"/><path fill="#fff" d="M95.8 82.9v6h7.3l-.6 7.7-6.7 1.8v6.2l12.2-3.4.1-1 1.4-15.7.2-1.6h-1.6zM95.8 70.9v5.9h14.4l.1-1.3.3-3 .1-1.6z"/><path fill="#131313" d="M249.2 47.6h-4.3l4.4 4.8v2.3h-9.2v-2.7h4.4l-4.4-4.8v-2.3h9v2.7h.1zm-10.8 0h-4.3l4.4 4.8v2.3h-9.2v-2.7h4.4l-4.4-4.8v-2.3h9v2.7h.1zm-10.7.1h-4.7v4.2h4.6v2.8h-7.9v-9.8h7.9v2.8h.1z"/><path fill="#1572B6" d="M213.5 111.8l-4.7-52.6h51.5l-4.7 52.6-21.1 5.9-21-5.9z"/><path fill="#33A9DC" d="M234.5 113.2l17.1-4.7 4-44.9h-21.1v49.6z"/><g><path fill="#fff" d="M234.5 82.6h8.5l.6-6.6h-9.1v-6.5h16.2l-.2 1.7-1.5 17.8h-14.4l-.1-6.4z"/><path fill="#EBEBEB" d="M234.6 99.3l-7.2-1.9-.5-5.1h-6.5l.9 10.1 13.2 3.7v-6.8z"/><path fill="#fff" d="M242.5 88.8l-.8 8.6-7.2 1.9v6.7l13.2-3.7.1-1.1 1.1-12.5-6.4.1z"/><path fill="#EBEBEB" d="M234.6 69.5v6.4h-15.6l-.1-1.4-.3-3.3-.2-1.7h16.2z"/><path fill="#EBEBEB" d="M234.5 82.6v6.4h-7.1l-.1-1.5-.3-3.3-.2-1.7h7.7z"/></g></svg>