<svg xmlns="http://www.w3.org/2000/svg" width="361" height="248"><path fill="#BDC3C7" d="M353-1h-345c-4.4 0-8 3.6-8 8v207h361v-207c0-4.4-3.6-8-8-8z"/><path fill="#ECF0F1" d="M0 214v25c0 4.4 3.6 8 8 8h345c4.4 0 8-3.6 8-8v-25h-361z"/><path fill="#ED6F58" d="M14.3 12h325.3v186.9h-325.3z"/><circle fill="#BDC3C7" cx="177.8" cy="230.8" r="11.2"/><path fill="#EFBF00" d="M184.969 154.694l-52.82-52.82 52.82-52.82 52.82 52.82z"/><path stroke="#F2D98B" fill="none" d="M184.969 154.694l-52.82-52.82 52.82-52.82 52.82 52.82z"/><path fill="#A93C17" d="M153.3 94.9l17.9-14.7 9.8 27 4.3 12.7h-18.8z"/><path fill="#006860" d="M186.3 73.1l25.4 15-19.4 31.8h-20.6z"/><path stroke="#1D1D1B" stroke-width=".56" fill="none" d="M0 119.9h208.9"/></svg>