<svg xmlns="http://www.w3.org/2000/svg" xmlns:xlink="http://www.w3.org/1999/xlink" width="400" height="400" viewBox="0 0 400 400"><g><path fill="#229A83" d="M267.9 217.2c0 6.6-5.4 12-12 12h-160c-6.6 0-12-5.4-12-12v-80.7c0-6.6 5.4-12 12-12h160c6.6 0 12 5.4 12 12v80.7z"/><path fill="#2C3E50" d="M114 205.3h122.9v23.1h-122.9z"/><path fill="#aaa" d="M129.4 214.8h92.8v23.1h-92.8z"/><path fill="#fff" d="M128.6 213.9h92.8v23.1h-92.8z"/><path fill="#2C3E50" d="M106.2 124.5h138.2v50.7l-9.3 10.8h-119.6s-9.3-2.2-9.3-10.1v-51.4z"/><path fill="#aaa" d="M129.4 77.3h92.8v57.4h-92.8z"/><path fill="#81A4B8" d="M128.6 78.3h92.8v57.4h-92.8z"/><path fill="#CC551C" d="M204.8 171h8.8v8.8h-8.8z"/><path fill="#BEC3C8" d="M215.2 171h8.8v8.8h-8.8z"/><path fill="#C0392A" d="M194.4 171h8.8v8.8h-8.8z"/></g><g><defs><path id="a" d="M175.874 123.159l-18.597-18.597 18.597-18.597 18.597 18.597z"/></defs><use xlink:href="#a" overflow="visible" fill="#EFCC52"/><clipPath><use xlink:href="#a" overflow="visible"/></clipPath><path fill="#C0392A" d="M165.1 101.9l6.4-5.1 3.4 9.5 1.5 4.5h-6.6z"/><path fill="#229A83" d="M176.8 94.3l8.9 5.3-6.8 11.2h-7.3z"/></g></svg>