<svg xmlns="http://www.w3.org/2000/svg" viewBox="0 0 595.301 299"><path d="M0 0h595.301v299h-595.301z"/><g fill="#FFF"><path d="M244.446 53.708c4.481-1.494 15.79-4.481 15.79-4.481h5.975l6.615 7.042s9.175-2.134 15.79-3.627c-14.297-47.798-51.212-13.871-44.17 1.066zM305.686 77.393c5.334 14.51 16.217 45.876 18.351 51.211s20.271.64 17.71-6.615c-2.561-7.042-17.07-48.65-17.07-49.931-4.268-14.296-24.326-9.175-18.991 5.335zM274.106 106.199l-6.615-14.51v-9.175l12.163-13.656h11.096l10.882 11.096 17.71 49.717v6.615l-13.443 38.408s11.309 39.475 12.803 44.596c4.694 18.991-17.497 23.258-21.551 9.815-1.494-4.694-14.296-44.596-14.296-44.596v-17.924l5.975-32.22-2.774-4.481v-2.134h4.694l6.401-6.828v-19.417h-3.841v17.924l-5.548 5.548h-39.475c-9.389 0-10.882-18.564 0-18.564 18.35-.214 25.819-.214 25.819-.214zM248.287 55.628l16.217-3.414s4.268 5.975 6.615 7.042c2.134.854 6.401 0 9.175 0-.854 6.828-9.389 9.389-9.389 9.389h-10.242c-9.176-.001-12.376-13.017-12.376-13.017z"/></g><g fill="#FFF"><circle cx="331.718" cy="141.833" r="2.561"/><circle cx="337.052" cy="149.942" r="2.561"/><circle cx="337.693" cy="156.13" r="2.561"/><circle cx="337.693" cy="161.891" r="2.561"/><circle cx="337.906" cy="168.079" r="2.561"/><circle cx="338.759" cy="174.054" r="2.561"/><circle cx="339.4" cy="180.242" r="2.561"/><circle cx="340.253" cy="186.856" r="2.561"/><circle cx="342.6" cy="152.502" r="2.561"/><circle cx="341.107" cy="144.18" r="2.561"/><circle cx="345.374" cy="148.235" r="2.561"/><circle cx="348.361" cy="152.929" r="2.561"/><circle cx="351.562" cy="157.837" r="2.561"/><circle cx="354.763" cy="162.958" r="2.561"/><circle cx="358.39" cy="168.079" r="2.561"/><circle cx="361.804" cy="172.56" r="2.561"/><circle cx="365.859" cy="177.254" r="2.561"/><circle cx="344.094" cy="137.779" r="2.561"/><circle cx="347.508" cy="142.047" r="2.561"/><circle cx="351.989" cy="146.101" r="2.561"/><circle cx="355.616" cy="150.795" r="2.561"/><circle cx="359.244" cy="155.49" r="2.561"/><circle cx="362.658" cy="160.611" r="2.561"/><circle cx="366.712" cy="165.518" r="2.561"/><circle cx="344.307" cy="158.904" r="2.561"/><circle cx="345.801" cy="164.238" r="2.561"/><circle cx="347.935" cy="169.573" r="2.561"/><circle cx="349.642" cy="174.907" r="2.561"/><circle cx="351.989" cy="179.815" r="2.561"/><circle cx="354.123" cy="184.936" r="2.561"/><circle cx="356.043" cy="190.27" r="2.561"/><circle cx="358.604" cy="196.032" r="2.561"/><circle cx="361.164" cy="201.579" r="2.561"/><circle cx="331.078" cy="148.448" r="2.561"/><circle cx="330.438" cy="154.423" r="2.561"/><circle cx="329.371" cy="160.184" r="2.561"/><circle cx="328.517" cy="165.945" r="2.561"/><circle cx="327.45" cy="172.133" r="2.561"/></g></svg>