<svg xmlns="http://www.w3.org/2000/svg" viewBox="0 0 595.3 299"><path fill="#9DD9B2" d="M0 0h595.301v299h-595.301z"/><radialGradient id="a" cx="-1030.393" cy="525.871" r="114.483" gradientTransform="matrix(.704 0 0 .704 878.335 -220.853)" gradientUnits="userSpaceOnUse"><stop offset="0" stop-color="#FFFAD2"/><stop offset=".117" stop-color="#FEF3C0"/><stop offset=".349" stop-color="#F3DE92"/><stop offset=".371" stop-color="#F2DC8E"/><stop offset=".685" stop-color="#F0BF00"/><stop offset="1" stop-color="#C9961A"/></radialGradient><path fill="url(#a)" d="M153.4 68.6l80.5 80.5-80.5 80.599-80.6-80.599z"/><path stroke="#F2E9CE" stroke-width="2" fill="none" d="M153.4 68.6l80.5 80.5-80.5 80.599-80.6-80.599z"/><linearGradient id="b" gradientUnits="userSpaceOnUse" x1="-1095.985" y1="521.181" x2="-1026.484" y2="521.181" gradientTransform="matrix(.704 0 0 .704 878.335 -220.853)"><stop offset="0" stop-color="#E58A76"/><stop offset=".511" stop-color="#AA3C17"/><stop offset="1" stop-color="#611C01"/></linearGradient><path fill="url(#b)" d="M107.2 137.899l27.3-22.299 15 41.099 6.6 19.401h-28.7z"/><linearGradient id="c" gradientUnits="userSpaceOnUse" x1="-1056.189" y1="513.435" x2="-969.469" y2="513.435" gradientTransform="matrix(.704 0 0 .704 878.335 -220.853)"><stop offset="0" stop-color="#3C7F7A"/><stop offset=".517" stop-color="#006860"/><stop offset="1" stop-color="#00473C"/></linearGradient><path fill="url(#c)" d="M157.6 104.699l38.7 22.901-29.5 48.5h-31.6z"/><path stroke="#000" stroke-width=".5" fill="none" d="M112.3 176.1h79.7"/><path fill="#211C40" d="M260.8 154.199c0 2.5 2 4.5 4.5 4.5s4.5-2 4.5-4.5v-11.3h-4.5v-9h13.5v20.3c0 7.5-6 13.5-13.5 13.5s-13.5-6-13.5-13.5h9zM296.7 133.5c9.5 0 17.101 7.699 17.101 17.1s-7.7 17.1-17.101 17.1c-9.5 0-17.1-7.699-17.1-17.1 0-9.5 7.6-17.1 17.1-17.1zm-.1 25.199c4.5 0 8.1-3.6 8.1-8.1s-3.6-8.1-8.1-8.1c-4.4 0-8.101 3.6-8.101 8.1.101 4.501 3.701 8.1 8.101 8.1zM314.501 133.899h14.6c7.5 0 13.5 6 13.5 13.5 0 5.5-3.3 10-7.7 12.2l7.7 7.7h-12.6l-6.5-6.5v6.5h-9v-33.4zm14.599 18.101c2.5 0 4.5-2 4.5-4.5s-2-4.5-4.5-4.5h-5.6v9h5.6zM359.6 133.899h13.7v9h-13.7c-4.2 0-7.7 3.5-7.7 7.7s3.5 7.7 7.7 7.7h4.7v-12.2h9v21.2h-13.7c-9.2 0-16.7-7.5-16.7-16.7s7.5-16.7 16.7-16.7zM374.7 133.899h22.5v9h-13.5v3.101h11.301v9h-11.301v3.199h13.5v9h-22.5v-33.3zM426.7 133l17.601 34.199h-35.3l17.699-34.199zm2.9 25.3l-2.9-5.601-2.899 5.601h5.799zM446.9 142.899h-6.8v-9h22.5v9h-6.8v24.3h-9l.1-24.3zM480.1 133.899h13.7v9h-13.7c-4.2 0-7.7 3.5-7.7 7.7s3.5 7.7 7.7 7.7h4.7v-12.2h9v21.2h-13.7c-9.2 0-16.7-7.5-16.7-16.7s7.5-16.7 16.7-16.7zM495.2 133.899h9v19.101c0 3.1 2.5 5.6 5.601 5.6 3.1 0 5.6-2.5 5.6-5.6v-19.101h9v19.101c0 8.1-6.5 14.6-14.6 14.6-8.101 0-14.601-6.5-14.601-14.6v-19.101z"/></svg>