<svg xmlns="http://www.w3.org/2000/svg" viewBox="0 0 595.301 299"><path fill="#E0B16B" d="M0 0h595.301v299h-595.301z"/><path fill="#31286A" d="M138.8 71h11.8v138h25.5v11.399h-37.3v-149.399zM184.7 216.3c-2.8-2.4-4.6-5.7-5.7-8.7-2.2-6-2.2-11.1-2.2-11.6v-100.601c0-.399 0-3.399.9-7.5.9-3.899 2.8-9.1 7-12.8 2.8-2.5 6.6-4 10.8-4s7.9 1.5 10.8 4c2.801 2.4 4.601 5.7 5.801 8.7 2.1 6 2.1 11.1 2.1 11.6v100.601c0 .399 0 3.399-.9 7.5-.899 3.899-2.699 9.1-7 12.8-2.8 2.5-6.399 4-10.6 4h-.1c-4.301.099-8.001-1.401-10.901-4zm4.1-19.5c.101.6.101 1.5.4 2.5.4 1.899 1.2 3.7 2.4 4.6.699.7 1.8 1.3 3.899 1.3 2.101 0 3-.6 3.7-1.199.7-.601 1.3-1.301 1.8-2.5.9-1.9 1.2-5.101 1.2-5.5v-101.302c-.1-.6-.1-1.5-.4-2.5-.399-1.899-1.199-3.699-2.399-4.599-.7-.7-1.8-1.3-3.9-1.3-1.899 0-3 .6-3.7 1.2-.699.6-1.3 1.3-1.8 2.5-.899 1.899-1.2 5.1-1.2 5.5v101.3zM221 207.699c-2.2-6-2.2-11-2.2-11.6v-100.7c0-.399 0-3.399.9-7.5.9-3.899 2.8-9.1 7-12.8 2.8-2.5 6.6-4 10.8-4s7.9 1.5 10.8 4c2.801 2.4 4.601 5.7 5.7 8.7 2.2 6 2.2 11.1 2.2 11.6h-11.9v-.7c-.1-.6-.1-1.5-.399-2.5-.4-1.899-1.2-3.699-2.4-4.6-.7-.7-1.8-1.3-3.899-1.3-2.101 0-3 .6-3.7 1.2-.7.6-1.3 1.3-1.8 2.5-.9 1.899-1.2 5.1-1.2 5.5v101.3c.1.6.1 1.5.399 2.5.4 1.899 1.2 3.7 2.4 4.6.7.7 1.8 1.3 3.9 1.3 0 0 .3 0 .399-.1.4 0 1-.2 1.8-.4.7-.3 1.301-.6 1.9-1h-4.2v-15.199h18.7v7.6c0 5.4-1 10.2-3 13.7-1.8 3.7-4.3 6.1-6.6 7.6-4.601 3-8.7 3-9.101 3h-.1c-4.2 0-7.8-1.5-10.601-4-2.898-2.501-4.698-5.8-5.798-8.701zM265.7 216.3c-2.8-2.4-4.6-5.7-5.7-8.7-2.2-6-2.2-11.1-2.2-11.6v-100.601c0-.399 0-3.399.9-7.5.9-3.899 2.8-9.1 7-12.8 2.8-2.5 6.6-4 10.8-4s7.9 1.5 10.8 4c2.801 2.4 4.601 5.7 5.801 8.7 2.1 6 2.1 11.1 2.1 11.6v100.601c0 .399 0 3.399-.9 7.5-.899 3.899-2.699 9.1-7 12.8-2.8 2.5-6.399 4-10.6 4h-.1c-4.401.099-8.101-1.401-10.901-4zm4-19.5c.1.6.1 1.5.4 2.5.399 1.899 1.199 3.7 2.399 4.6.7.7 1.8 1.3 3.9 1.3 2.1 0 3-.6 3.7-1.199.699-.601 1.3-1.301 1.8-2.5.899-1.9 1.2-5.101 1.2-5.5v-101.302c-.101-.6-.101-1.5-.4-2.5-.4-1.899-1.2-3.699-2.4-4.6-.699-.7-1.8-1.3-3.899-1.3-1.9 0-3 .6-3.7 1.2-.7.6-1.3 1.3-1.8 2.5-.9 1.899-1.2 5.1-1.2 5.5v101.30099999999999zM337.001 83.699h-13.301v136.601h-11.399v-136.601h-12.7v-12.699h37.4v12.699zM339.1 71h10.9v149.3h-10.9v-149.3zM355.1 71h18.7c.399 0 2.7 0 5.8 1.3 3.1 1.2 7.2 4 10 9.7 1.8 3.899 2.8 8.8 2.8 14.5 0 5.699-1 10.8-2.8 14.5-1.9 3.899-4.3 6.399-6.7 8.1-4.6 3.1-8.5 3-9.1 3.1h-6.8v98.1h-11.9v-149.3zm19.1 35.3c.4 0 1.2-.101 1.801-.4 1.5-.6 2.699-1.6 3.399-3.3.601-1 1-2.7 1-6 0-3-.399-4.6-.899-5.7-.4-1.2-1-1.899-1.9-2.5-1.3-1.2-3.4-1.5-3.9-1.5h-6.699v19.6h6.699c.199-.101.399-.101.499-.2zM401.801 216.3c-2.8-2.4-4.601-5.7-5.7-8.7-2.2-6-2.2-11.1-2.2-11.6v-100.601c0-.399 0-3.399.9-7.5.899-3.899 2.8-9.1 7-12.8 2.8-2.5 6.6-4 10.8-4s7.899 1.5 10.8 4c2.8 2.4 4.6 5.7 5.8 8.7 2.101 6 2.101 11.1 2.101 11.6v100.601c0 .399 0 3.399-.9 7.5-.9 3.899-2.7 9.1-7 12.8-2.8 2.5-6.4 4-10.6 4h-.102c-4.3.099-8-1.401-10.899-4zm4.099-19.5c.101.6.101 1.5.4 2.5.399 1.899 1.2 3.7 2.399 4.6.7.7 1.8 1.3 3.9 1.3 2.1 0 3-.6 3.7-1.199.7-.601 1.3-1.301 1.8-2.5.899-1.9 1.2-5.101 1.2-5.5v-101.302c-.101-.6-.101-1.5-.4-2.5-.399-1.899-1.2-3.699-2.399-4.6-.7-.7-1.801-1.3-3.9-1.3-1.9 0-3 .6-3.7 1.2-.7.6-1.3 1.3-1.8 2.5-.9 1.899-1.2 5.1-1.2 5.5v101.30099999999999zM459.9 142.399c13.101 34.5 13.4 52.4 13.4 53.601 0 .399 0 3.399-.9 7.5-.899 3.899-2.8 9.1-7.2 12.8-2.7 2.5-6.399 4-10.6 4h-.101c-4.199 0-7.899-1.5-10.8-4-2.8-2.4-4.6-5.7-5.7-8.7-2.199-6-2.199-11.1-2.199-11.6h11.9v.699c.101.601.3 1.5.4 2.5.399 1.9 1.3 3.7 2.399 4.601.7.7 1.801 1.3 3.9 1.3s3.1-.6 3.9-1.2c.699-.6 1.199-1.3 1.6-2.5 1-1.899 1.2-4.899 1.2-5.5v-.3c0-.4 0-1-.101-1.9-.1-1.8-.399-4.6-1.199-8.5-1.5-7.899-4.5-20-10.801-36.3-13-34.5-13.3-52.399-13.3-53.6 0-.4 0-3.4.9-7.5.899-3.9 2.8-9.101 7-12.8 2.8-2.5 6.6-4 10.8-4s8.1 1.5 10.8 4c2.8 2.399 4.8 5.699 5.8 8.699 2.2 6 2.101 11.101 2.2 11.601h-12.1v-.7c0-.6-.101-1.5-.4-2.5-.399-1.9-1.2-3.7-2.2-4.6-.699-.7-1.8-1.301-4-1.301-1.899 0-3 .601-3.699 1.2-.7.601-1.301 1.3-1.801 2.5-.899 1.9-1.199 4.9-1.199 5.5v.3c0 .4.1 1 .1 1.9.1 1.8.6 4.6 1.3 8.5 1.602 7.901 4.602 20.001 10.701 36.3z"/></svg>