<svg xmlns="http://www.w3.org/2000/svg" viewBox="0 0 595.3 299"><path fill="#E0E6E4" d="M0 0h595.3v299h-595.3z"/><path fill="#8C837A" d="M191.9 138.5c0 14.699 10.8 26.6 24.101 26.6 13.3 0 24.1-11.9 24.1-26.6 0-14.7-10.8-26.601-24.1-26.601-13.301 0-24.101 11.901-24.101 26.601zm67.601-41.4v70c-3.101 64.5-77.9 52.7-86.101 18.8h23.601c6.5 16.601 42.1 13 44.8-16.2-7.4 7.601-17.601 12.4-28.8 12.4-22.801 0-41.301-19.5-41.301-43.6 0-24.101 18.5-43.601 41.301-43.601 10.699 0 20.5 4.3 27.8 11.4v-9l18.7-.199z"/><path fill="#E13B35" d="M267.2 210.199v-21.199h84.101c15.601-.101 25.2-12.101 28.601-36h-113.302c.7-52.2 16.7-78.2 47.801-78h83.6v20.6h-78.5c-21.4 1.1-32.7 13.3-34 36.4h112.6c-.6 50.5-16.399 76.5-47.5 78l-83.401.199z"/><path d="M275.501 178.199c-2 0-3.7-.699-5.101-2.1-1.399-1.4-2.1-3.2-2.1-5.2s.7-3.8 2.1-5.2c1.4-1.399 3.101-2.199 5.101-2.199s3.699.699 5.1 2.199c1.4 1.4 2.1 3.2 2.1 5.2 0 .5 0 1-.1 1.5h-10.7c.2.601.5 1.101.9 1.601.8.8 1.7 1.199 2.8 1.199.7 0 1.3-.199 1.9-.5.6-.3 1-.699 1.3-1.3h3.5c-.4 1.5-1.3 2.601-2.5 3.5-1.201.901-2.701 1.3-4.3 1.3zm3.8-8.5c-.2-.699-.5-1.399-1-1.899-.7-.8-1.7-1.3-2.8-1.3-1.101 0-2 .399-2.801 1.3-.5.6-.8 1.2-1 1.899h7.601zM290.301 167.699c-.101-.399-.2-.699-.5-.899-.2-.2-.5-.3-.9-.3-.399 0-.7.1-.899.3-.2.2-.4.5-.4.8s.1.6.4.8c.3.2.899.4 1.699.7 1.4.4 2.5 1 3.101 1.7.6.7.899 1.5.899 2.6 0 1.4-.5 2.5-1.399 3.4-.9.899-2.101 1.3-3.5 1.3-1.4 0-2.601-.4-3.601-1.3-.899-.9-1.399-2-1.5-3.5h3.4c.1.6.3 1 .6 1.3.301.3.7.5 1.2.5s.8-.1 1.101-.4c.3-.3.399-.6.399-1 0-.399-.1-.8-.399-1-.3-.199-.8-.5-1.5-.699-1.5-.5-2.601-1-3.3-1.7-.7-.7-1-1.5-1-2.601 0-1.3.399-2.3 1.3-3.1.899-.8 2-1.2 3.399-1.2 1.2 0 2.2.4 3.101 1.2.899.8 1.3 1.8 1.399 3l-3.1.099zM296.501 177.699v-10.8h-1.601v-2.899h1.601v-4.601h3.3v4.601h2v2.899h-2v10.8zM309.701 178.199c-2 0-3.801-.699-5.2-2.1-1.4-1.4-2.101-3.2-2.101-5.2s.7-3.8 2.101-5.2c1.399-1.399 3.2-2.199 5.2-2.199s3.8.699 5.2 2.199c1.399 1.4 2.1 3.2 2.1 5.2s-.7 3.8-2.1 5.2c-1.4 1.401-3.1 2.1-5.2 2.1zm0-3c1.1 0 2.1-.399 2.899-1.199.8-.801 1.101-1.9 1.101-3.101s-.4-2.3-1.101-3.1c-.8-.8-1.7-1.2-2.899-1.2-1.101 0-2.101.4-2.8 1.2-.801.8-1.101 1.899-1.101 3.1s.399 2.3 1.101 3.101c.8.8 1.699 1.199 2.8 1.199zM319.301 164h3v1l.2-.2c.6-.9 1.6-1.3 2.9-1.3h.199v3.199c-.899.101-1.6.301-2.1.7-.6.5-.9 1.3-.9 2.4v8h-3.3v-13.799h.001zM327.1 164h3.301v13.8h-3.301v-13.8zm-.799-4.101l5.601-3.2 1.399 2.601-5.7 2.899-1.3-2.3zM339.1 178.199c-1.899 0-3.5-.699-4.8-2.1s-2-3.2-2-5.2.7-3.8 2-5.2c1.3-1.399 2.9-2.199 4.8-2.199 1.801 0 3.4.699 4.7 2v-1.5h3.101v13.8h-3v-1.5c-1.4 1.3-3 1.899-4.801 1.899zm.601-11.699c-1.2 0-2.101.399-2.9 1.3-.8.8-1.2 1.899-1.2 3.1s.4 2.3 1.2 3.101c.8.8 1.7 1.3 2.9 1.3 1.199 0 2.1-.4 2.899-1.3.8-.801 1.2-1.9 1.2-3.101s-.399-2.3-1.2-3.1c-.799-.901-1.799-1.3-2.899-1.3zM313.001 124.899c-2 0-3.8-.7-5.2-2.1-1.4-1.4-2.101-3.2-2.101-5.2s.7-3.8 2.101-5.2c1.4-1.399 3.2-2.2 5.2-2.2s3.8.7 5.2 2.2c1.399 1.4 2.1 3.2 2.1 5.2s-.7 3.8-2.1 5.2c-1.4 1.301-3.101 2.1-5.2 2.1zm0-3.099c1.1 0 2.1-.4 2.9-1.2.8-.8 1.1-1.9 1.1-3.1 0-1.2-.4-2.301-1.1-3.101-.7-.8-1.7-1.2-2.9-1.2-1.1 0-2.1.4-2.8 1.2-.8.8-1.101 1.9-1.101 3.101 0 1.199.4 2.3 1.101 3.1.8.799 1.7 1.2 2.8 1.2zM322.301 106h3.299v18.399h-3.299zM334.501 124.899c-1.9 0-3.5-.7-4.8-2.1-1.3-1.4-2-3.2-2-5.2s.7-3.8 2-5.2c1.3-1.399 2.899-2.2 4.8-2.2 1.8 0 3.4.7 4.7 2v-1.6h3.1v13.8h-3v-1.5c-1.5 1.3-3 2-4.8 2zm.5-11.7c-1.1 0-2.1.4-2.9 1.301-.8.8-1.199 1.899-1.199 3.1s.399 2.3 1.199 3.1c.801.801 1.7 1.2 2.9 1.2s2.1-.399 2.9-1.2c.8-.8 1.199-1.899 1.199-3.1s-.399-2.3-1.199-3.1c-.801-.9-1.7-1.301-2.9-1.301zM344.701 110.6h3v1.2c1.1-1.101 2.3-1.601 3.8-1.601 1.6 0 2.899.601 3.899 1.7 1 1.101 1.4 2.601 1.4 4.5v8.101h-3.3v-7.4c0-1.3-.2-2.2-.7-2.9-.5-.699-1.2-1-2.1-1-1 0-1.7.301-2.2 1-.5.7-.7 1.7-.7 3v7.301h-3.3v-13.9h.201zM365.701 124.899c-1.9 0-3.5-.7-4.8-2.1-1.301-1.4-2-3.2-2-5.2s.699-3.8 2-5.2c1.3-1.399 2.899-2.2 4.8-2.2 1.8 0 3.399.7 4.7 2v-1.6h3.1v13.8h-3.1v-1.5c-1.301 1.3-2.801 2-4.7 2zm.6-11.7c-1.1 0-2.1.4-2.899 1.301-.801.8-1.2 1.899-1.2 3.1s.399 2.3 1.2 3.1c.8.801 1.699 1.2 2.899 1.2s2.101-.399 2.9-1.2c.8-.8 1.2-1.899 1.2-3.1s-.4-2.3-1.2-3.1c-.8-.9-1.8-1.301-2.9-1.301zM381.501 114.3c-.1-.4-.2-.7-.5-.9-.2-.2-.5-.3-.9-.3-.399 0-.699.1-.899.3s-.4.5-.4.8c0 .301.2.601.5.801.3.199.9.399 1.7.699 1.5.4 2.5 1 3.1 1.7.601.7.9 1.5.9 2.601 0 1.399-.5 2.5-1.4 3.399-.899.9-2.1 1.3-3.5 1.3-1.399 0-2.6-.399-3.6-1.3-.9-.899-1.4-2-1.5-3.5h3.4c.1.601.3 1 .6 1.3.3.301.7.4 1.2.4s.8-.1 1.1-.4c.3-.3.4-.6.4-1 0-.399-.101-.8-.4-1-.3-.199-.8-.5-1.5-.699-1.5-.5-2.6-1-3.3-1.7s-1-1.5-1-2.601c0-1.3.4-2.3 1.3-3.1.9-.8 2-1.2 3.4-1.2 1.2 0 2.2.4 3.1 1.2.9.8 1.3 1.8 1.4 3l-3.201.2z"/></svg>