<svg xmlns="http://www.w3.org/2000/svg" viewBox="0 0 595.301 299"><path fill="#C2F5F8" d="M0 0h595.3v299h-595.3z"/><linearGradient id="a" gradientUnits="userSpaceOnUse" x1="-140.933" y1="692.965" x2="-140.933" y2="622.471" gradientTransform="matrix(.704 0 0 .704 382.656 -355.87)"><stop offset="0" stop-color="#FFEE25"/><stop offset=".018" stop-color="#FFE920"/><stop offset=".102" stop-color="#FED60E"/><stop offset=".189" stop-color="#FDCB04"/><stop offset=".281" stop-color="#FDC700"/><stop offset=".668" stop-color="#F08F34"/><stop offset=".888" stop-color="#E86031"/><stop offset="1" stop-color="#E2312D"/></linearGradient><path fill="url(#a)" d="M262.501 131.699s-5.801-11.699 20.699-49.6c23.5 28.5 21.801 49.6 21.801 49.6h-42.5z"/><linearGradient id="b" gradientUnits="userSpaceOnUse" x1="-116.487" y1="705.188" x2="-116.487" y2="634.692" gradientTransform="matrix(.704 0 0 .704 382.656 -355.87)"><stop offset="0" stop-color="#FFEE25"/><stop offset=".018" stop-color="#FFE920"/><stop offset=".102" stop-color="#FED60E"/><stop offset=".189" stop-color="#FDCB04"/><stop offset=".281" stop-color="#FDC700"/><stop offset=".668" stop-color="#F08F34"/><stop offset=".888" stop-color="#E86031"/><stop offset="1" stop-color="#E2312D"/></linearGradient><path fill="url(#b)" d="M279.7 140.3s-5.8-11.7 20.7-49.601c23.501 28.5 21.801 49.601 21.801 49.601h-42.501z"/><linearGradient id="c" gradientUnits="userSpaceOnUse" x1="-41.586" y1="681.595" x2="-41.586" y2="611.101" gradientTransform="matrix(.704 0 0 .704 382.656 -355.87)"><stop offset="0" stop-color="#FFEE25"/><stop offset=".018" stop-color="#FFE920"/><stop offset=".102" stop-color="#FED60E"/><stop offset=".189" stop-color="#FDCB04"/><stop offset=".281" stop-color="#FDC700"/><stop offset=".668" stop-color="#F08F34"/><stop offset=".888" stop-color="#E86031"/><stop offset="1" stop-color="#E2312D"/></linearGradient><path fill="url(#c)" d="M332.401 123.699s-5.801-11.699 20.699-49.6c23.5 28.5 21.801 49.6 21.801 49.6h-42.5z"/><linearGradient id="d" gradientUnits="userSpaceOnUse" x1="-200.485" y1="683.869" x2="-200.485" y2="613.374" gradientTransform="matrix(.704 0 0 .704 382.656 -355.87)"><stop offset="0" stop-color="#FFEE25"/><stop offset=".018" stop-color="#FFE920"/><stop offset=".102" stop-color="#FED60E"/><stop offset=".189" stop-color="#FDCB04"/><stop offset=".281" stop-color="#FDC700"/><stop offset=".668" stop-color="#F08F34"/><stop offset=".888" stop-color="#E86031"/><stop offset="1" stop-color="#E2312D"/></linearGradient><path fill="url(#d)" d="M220.6 125.3s-5.8-11.7 20.7-49.601c23.5 28.5 21.8 49.601 21.8 49.601h-42.5z"/><linearGradient id="e" gradientUnits="userSpaceOnUse" x1="-93.037" y1="695.867" x2="-93.037" y2="625.371" gradientTransform="matrix(.704 0 0 .704 382.656 -355.87)"><stop offset="0" stop-color="#FFEE25"/><stop offset=".018" stop-color="#FFE920"/><stop offset=".102" stop-color="#FED60E"/><stop offset=".189" stop-color="#FDCB04"/><stop offset=".281" stop-color="#FDC700"/><stop offset=".668" stop-color="#F08F34"/><stop offset=".888" stop-color="#E86031"/><stop offset="1" stop-color="#E2312D"/></linearGradient><path fill="url(#e)" d="M296.2 133.8s-5.8-11.7 20.701-49.601c23.5 28.5 21.8 49.601 21.8 49.601h-42.501z"/><linearGradient id="f" gradientUnits="userSpaceOnUse" x1="-131.701" y1="686.285" x2="-55.747" y2="686.285" gradientTransform="matrix(.704 0 0 .704 382.656 -355.87)"><stop offset="0" stop-color="#FFEE25"/><stop offset=".018" stop-color="#FFE920"/><stop offset=".102" stop-color="#FED60E"/><stop offset=".189" stop-color="#FDCB04"/><stop offset=".281" stop-color="#FDC700"/><stop offset=".668" stop-color="#F08F34"/><stop offset=".888" stop-color="#E86031"/><stop offset="1" stop-color="#E2312D"/></linearGradient><path fill="url(#f)" d="M299.1 184.5c-32.1-61.2 31.301-52.5 26.801-115 57 62.5-44.801 62.5-26.801 115z"/><linearGradient id="g" gradientUnits="userSpaceOnUse" x1="-135.113" y1="680.6" x2="-59.157" y2="680.6" gradientTransform="matrix(.704 0 0 .704 382.656 -355.87)"><stop offset="0" stop-color="#FFEE25"/><stop offset=".018" stop-color="#FFE920"/><stop offset=".102" stop-color="#FED60E"/><stop offset=".189" stop-color="#FDCB04"/><stop offset=".281" stop-color="#FDC700"/><stop offset=".668" stop-color="#F08F34"/><stop offset=".888" stop-color="#E86031"/><stop offset="1" stop-color="#E2312D"/></linearGradient><path fill="url(#g)" d="M296.7 180.5c-32.1-61.2 31.301-52.5 26.801-115 57 62.5-44.801 62.5-26.801 115z"/><linearGradient id="h" gradientUnits="userSpaceOnUse" x1="20.728" y1="686.285" x2="96.608" y2="686.285" gradientTransform="matrix(-.704 0 0 .704 316.594 -355.87)"><stop offset="0" stop-color="#FFEE25"/><stop offset=".018" stop-color="#FFE920"/><stop offset=".102" stop-color="#FED60E"/><stop offset=".189" stop-color="#FDCB04"/><stop offset=".281" stop-color="#FDC700"/><stop offset=".668" stop-color="#F08F34"/><stop offset=".888" stop-color="#E86031"/><stop offset="1" stop-color="#E2312D"/></linearGradient><path fill="url(#h)" d="M292.9 184.5c32.101-61.2-31.3-52.5-26.8-115-56.9 62.5 44.901 62.5 26.8 115z"/><linearGradient id="i" gradientUnits="userSpaceOnUse" x1="17.316" y1="680.6" x2="93.213" y2="680.6" gradientTransform="matrix(-.704 0 0 .704 316.594 -355.87)"><stop offset="0" stop-color="#FFEE25"/><stop offset=".018" stop-color="#FFE920"/><stop offset=".102" stop-color="#FED60E"/><stop offset=".189" stop-color="#FDCB04"/><stop offset=".281" stop-color="#FDC700"/><stop offset=".668" stop-color="#F08F34"/><stop offset=".888" stop-color="#E86031"/><stop offset="1" stop-color="#E2312D"/></linearGradient><path fill="url(#i)" d="M295.301 180.5c32.101-61.2-31.3-52.5-26.8-115-56.901 62.5 44.8 62.5 26.8 115z"/><linearGradient id="j" gradientUnits="userSpaceOnUse" x1="-140.534" y1="708.029" x2="-33.495" y2="708.029" gradientTransform="matrix(.704 0 0 .704 382.656 -355.87)"><stop offset="0" stop-color="#FFEE25"/><stop offset=".018" stop-color="#FFE920"/><stop offset=".102" stop-color="#FED60E"/><stop offset=".189" stop-color="#FDCB04"/><stop offset=".281" stop-color="#FDC700"/><stop offset=".668" stop-color="#F08F34"/><stop offset=".888" stop-color="#E86031"/><stop offset="1" stop-color="#E2312D"/></linearGradient><path fill="url(#j)" d="M296.6 223.399c-45.2-86.399 44.101-74 37.801-162.2 80.3 88.2-63.201 88.2-37.801 162.2z"/><linearGradient id="k" gradientUnits="userSpaceOnUse" x1="-145.223" y1="700.071" x2="-38.202" y2="700.071" gradientTransform="matrix(.704 0 0 .704 382.656 -355.87)"><stop offset="0" stop-color="#FFEE25"/><stop offset=".018" stop-color="#FFE920"/><stop offset=".102" stop-color="#FED60E"/><stop offset=".189" stop-color="#FDCB04"/><stop offset=".281" stop-color="#FDC700"/><stop offset=".668" stop-color="#F08F34"/><stop offset=".888" stop-color="#E86031"/><stop offset="1" stop-color="#E2312D"/></linearGradient><path fill="url(#k)" d="M293.301 217.8c-45.2-86.4 44.101-74 37.8-162.2 80.3 88.2-63.3 88.2-37.8 162.2z"/><linearGradient id="l" gradientUnits="userSpaceOnUse" x1="9.905" y1="708.884" x2="116.943" y2="708.884" gradientTransform="matrix(-.704 0 0 .704 316.594 -355.87)"><stop offset="0" stop-color="#FFEE25"/><stop offset=".018" stop-color="#FFE920"/><stop offset=".102" stop-color="#FED60E"/><stop offset=".189" stop-color="#FDCB04"/><stop offset=".281" stop-color="#FDC700"/><stop offset=".668" stop-color="#F08F34"/><stop offset=".888" stop-color="#E86031"/><stop offset="1" stop-color="#E2312D"/></linearGradient><path fill="url(#l)" d="M296.801 224c45.2-86.4-44.101-74-37.8-162.2-80.301 88.2 63.2 88.2 37.8 162.2z"/><linearGradient id="m" gradientUnits="userSpaceOnUse" x1="5.216" y1="700.923" x2="112.237" y2="700.923" gradientTransform="matrix(-.704 0 0 .704 316.594 -355.87)"><stop offset="0" stop-color="#FFEE25"/><stop offset=".018" stop-color="#FFE920"/><stop offset=".102" stop-color="#FED60E"/><stop offset=".189" stop-color="#FDCB04"/><stop offset=".281" stop-color="#FDC700"/><stop offset=".668" stop-color="#F08F34"/><stop offset=".888" stop-color="#E86031"/><stop offset="1" stop-color="#E2312D"/></linearGradient><path fill="url(#m)" d="M300.1 218.399c45.2-86.399-44.1-74-37.8-162.2-80.299 88.2 63.3 88.2 37.8 162.2z"/><linearGradient id="n" gradientUnits="userSpaceOnUse" x1="-3.845" y1="695.727" x2="103.169" y2="695.727" gradientTransform="matrix(-.692 .127 .127 .692 205.72 -340.74)"><stop offset="0" stop-color="#FFEE25"/><stop offset=".018" stop-color="#FFE920"/><stop offset=".102" stop-color="#FED60E"/><stop offset=".189" stop-color="#FDCB04"/><stop offset=".281" stop-color="#FDC700"/><stop offset=".668" stop-color="#F08F34"/><stop offset=".888" stop-color="#E86031"/><stop offset="1" stop-color="#E2312D"/></linearGradient><path fill="url(#n)" d="M299.1 222.3c28.801-93.101-56.8-64.8-66.5-152.7-63.099 101.299 78.101 75.299 66.5 152.7z"/><linearGradient id="o" gradientUnits="userSpaceOnUse" x1="-8.629" y1="687.791" x2="98.385" y2="687.791" gradientTransform="matrix(-.692 .127 .127 .692 205.72 -340.74)"><stop offset="0" stop-color="#FFEE25"/><stop offset=".018" stop-color="#FFE920"/><stop offset=".102" stop-color="#FED60E"/><stop offset=".189" stop-color="#FDCB04"/><stop offset=".281" stop-color="#FDC700"/><stop offset=".668" stop-color="#F08F34"/><stop offset=".888" stop-color="#E86031"/><stop offset="1" stop-color="#E2312D"/></linearGradient><path fill="url(#o)" d="M301.4 216.199c28.801-93.1-56.8-64.8-66.5-152.699-63.099 101.3 78.101 75.3 66.5 152.699z"/><linearGradient id="p" gradientUnits="userSpaceOnUse" x1="18.375" y1="664.93" x2="125.462" y2="664.93" gradientTransform="matrix(-.685 .159 .159 .685 197.474 -319.193)"><stop offset="0" stop-color="#FFEE25"/><stop offset=".018" stop-color="#FFE920"/><stop offset=".102" stop-color="#FED60E"/><stop offset=".189" stop-color="#FDCB04"/><stop offset=".281" stop-color="#FDC700"/><stop offset=".668" stop-color="#F08F34"/><stop offset=".888" stop-color="#E86031"/><stop offset="1" stop-color="#E2312D"/></linearGradient><path fill="url(#p)" d="M296.6 221.399c24.5-94.3-59.7-62.1-73.5-149.5-58.4 104.201 81.5 71.701 73.5 149.5z"/><linearGradient id="q" gradientUnits="userSpaceOnUse" x1="13.613" y1="656.99" x2="120.63" y2="656.99" gradientTransform="matrix(-.685 .159 .159 .685 197.474 -319.193)"><stop offset="0" stop-color="#FFEE25"/><stop offset=".018" stop-color="#FFE920"/><stop offset=".102" stop-color="#FED60E"/><stop offset=".189" stop-color="#FDCB04"/><stop offset=".281" stop-color="#FDC700"/><stop offset=".668" stop-color="#F08F34"/><stop offset=".888" stop-color="#E86031"/><stop offset="1" stop-color="#E2312D"/></linearGradient><path fill="url(#q)" d="M298.6 215.199c24.5-94.3-59.7-62.1-73.5-149.5-58.299 104.101 81.5 71.7 73.5 149.5z"/><linearGradient id="r" gradientUnits="userSpaceOnUse" x1="-412.526" y1="765.045" x2="-305.439" y2="765.045" gradientTransform="matrix(.685 .159 -.159 .685 709.589 -319.193)"><stop offset="0" stop-color="#FFEE25"/><stop offset=".018" stop-color="#FFE920"/><stop offset=".102" stop-color="#FED60E"/><stop offset=".189" stop-color="#FDCB04"/><stop offset=".281" stop-color="#FDC700"/><stop offset=".668" stop-color="#F08F34"/><stop offset=".888" stop-color="#E86031"/><stop offset="1" stop-color="#E2312D"/></linearGradient><path fill="url(#r)" d="M299.1 221.399c-24.5-94.3 59.7-62.1 73.5-149.5 58.401 104.201-81.5 71.701-73.5 149.5z"/><linearGradient id="s" gradientUnits="userSpaceOnUse" x1="-417.303" y1="757.106" x2="-310.229" y2="757.106" gradientTransform="matrix(.685 .159 -.159 .685 709.589 -319.193)"><stop offset="0" stop-color="#FFEE25"/><stop offset=".018" stop-color="#FFE920"/><stop offset=".102" stop-color="#FED60E"/><stop offset=".189" stop-color="#FDCB04"/><stop offset=".281" stop-color="#FDC700"/><stop offset=".668" stop-color="#F08F34"/><stop offset=".888" stop-color="#E86031"/><stop offset="1" stop-color="#E2312D"/></linearGradient><path fill="url(#s)" d="M297.1 215.199c-24.5-94.3 59.7-62.1 73.5-149.5 58.401 104.101-81.5 71.7-73.5 149.5z"/><linearGradient id="t" gradientUnits="userSpaceOnUse" x1="-524.615" y1="792.614" x2="-417.601" y2="792.614" gradientTransform="matrix(.692 .127 -.127 .692 761.897 -340.74)"><stop offset="0" stop-color="#FFEE25"/><stop offset=".018" stop-color="#FFE920"/><stop offset=".102" stop-color="#FED60E"/><stop offset=".189" stop-color="#FDCB04"/><stop offset=".281" stop-color="#FDC700"/><stop offset=".668" stop-color="#F08F34"/><stop offset=".888" stop-color="#E86031"/><stop offset="1" stop-color="#E2312D"/></linearGradient><path fill="url(#t)" d="M295.801 223c-28.8-93.101 56.8-64.801 66.5-152.7 63.1 101.3-78.101 75.3-66.5 152.7z"/><linearGradient id="u" gradientUnits="userSpaceOnUse" x1="-529.4" y1="784.679" x2="-422.386" y2="784.679" gradientTransform="matrix(.692 .127 -.127 .692 761.897 -340.74)"><stop offset="0" stop-color="#FFEE25"/><stop offset=".018" stop-color="#FFE920"/><stop offset=".102" stop-color="#FED60E"/><stop offset=".189" stop-color="#FDCB04"/><stop offset=".281" stop-color="#FDC700"/><stop offset=".668" stop-color="#F08F34"/><stop offset=".888" stop-color="#E86031"/><stop offset="1" stop-color="#E2312D"/></linearGradient><path fill="url(#u)" d="M293.501 216.899c-28.801-93.1 56.8-64.8 66.5-152.7 63.099 101.301-78.101 75.301-66.5 152.7z"/></svg>