<svg xmlns="http://www.w3.org/2000/svg" viewBox="0 0 595.3 299"><path fill="#34495E" d="M1.301 0h594v299h-594z"/><path fill="#fff" d="M206.9 90.699c0 1.801 1.5 3.4 3.4 3.4 1.899 0 3.399-1.5 3.399-3.4v-8.399h-3.5v-6.7h10.101v15.1c0 5.601-4.5 10.101-10.101 10.101-5.6 0-10.1-4.5-10.1-10.101h6.801v-.001zM234.2 75.199c7 0 12.8 5.7 12.8 12.7s-5.699 12.7-12.8 12.7c-7 0-12.8-5.7-12.8-12.7s5.8-12.7 12.8-12.7zm0 18.801c3.3 0 6-2.7 6-6 0-3.301-2.7-6-6-6s-6 2.699-6 6c0 3.3 2.7 6 6 6zM248.1 75.6h10.9c5.601 0 10.101 4.5 10.101 10.1 0 4.101-2.4 7.5-5.7 9.101l5.7 5.7h-9.4l-4.8-4.801v4.801h-6.7l-.101-24.901zm11 13.4c1.8 0 3.399-1.5 3.399-3.4 0-1.8-1.5-3.4-3.399-3.4h-4.2v6.7l4.2.1zM282.4 75.6h10.2v6.7h-10.2c-3.1 0-5.7 2.6-5.7 5.7s2.601 5.699 5.7 5.699h3.5v-9.1h6.7v15.8h-10.2c-6.8 0-12.5-5.6-12.5-12.399.1-6.9 5.7-12.4 12.5-12.4zM294.301 75.6h16.8v6.7h-10.101v2.3h8.4v6.7h-8.4v2.3h10.1v6.7h-16.8v-24.7zM331.801 74.899l13.2 25.5h-26.3l13.1-25.5zm2.099 18.8l-2.1-4.199-2.2 4.199h4.3zM347.4 82.3h-5v-6.7h16.801v6.7h-5v18.1h-6.7v-18.1h-.101zM372.801 75.6h10.2v6.7h-10.2c-3.1 0-5.7 2.6-5.7 5.7s2.601 5.699 5.7 5.699h3.5v-9.1h6.7v15.8h-10.2c-6.8 0-12.4-5.6-12.4-12.399-.1-6.9 5.499-12.4 12.4-12.4zM384.701 75.6h6.699v14.2c0 2.3 1.9 4.2 4.2 4.2s4.2-1.9 4.2-4.2v-14.2h6.7v14.2c0 6-4.9 10.899-10.9 10.899s-10.899-4.899-10.899-10.899v-14.2zM243.6 186.199h6.7v9.101h6.7v-9.101h6.7v24.801h-6.7v-9.101h-6.699v9.101h-6.7v-24.801zM270.4 192.899h-5v-6.7h16.8v6.7h-5v18.101h-6.7l-.1-18.101zM283.9 196c0-5.601 4.5-10.101 10.1-10.101 2.601 0 4.9 1 6.7 2.601 1.8-1.601 4.101-2.601 6.7-2.601 5.601 0 10.101 4.5 10.101 10.101v15.1h-6.7v-15.1c0-1.801-1.5-3.4-3.4-3.4-1.8 0-3.399 1.5-3.399 3.4v15.1h-6.7v-15.1c0-1.801-1.5-3.4-3.4-3.4-1.8 0-3.399 1.5-3.399 3.4v15.1h-6.7l.097-15.1zM319.1 186.199h6.7v18.101h10.1v6.7h-16.8v-24.801zM345.9 204.3h10.301c.6 0 1.199-.5 1.199-1.2 0-.6-.5-1.2-1.199-1.2h-10.2v-15.8h17.399v6.7h-10.7v2.3h3.5c4.4 0 7.9 3.5 7.9 7.9 0 4.399-3.5 7.899-7.9 7.899h-10.199v-6.6h-.101v.001z"/><path fill="#FFD484" d="M75 131.899l-12.6 12.5 12.6 12.5c-6.899 6.9-18.199 6.9-25.1 0-6.9-6.899-6.9-18.1 0-25 7-6.899 18.2-6.899 25.1 0zM76.301 127.6h33.699v17.6c0 9.3-7.6 16.8-16.9 16.8s-16.9-7.5-16.9-16.801v-17.6h.101zM142.6 141.3c0 4.399-2 8.2-5.3 10.7l5 9.3h-29.601v-33.601h16.2c7.601-.099 13.701 6 13.701 13.601zM174.5 141.3c0 4.399-2 8.2-5.199 10.7l5 9.3h-29.601v-33.601h16.2c7.5-.099 13.6 6 13.6 13.601zM194 127.6v33.6h-17.5v-33.6h17.5zM226.301 131.899l-12.601 12.5 12.601 12.5c-6.9 6.9-18.2 6.9-25.101 0-6.899-6.899-6.899-18.1 0-25 6.9-6.899 18.101-6.899 25.101 0zM227.5 127.6h33.7v17.6c0 9.301-7.6 16.801-16.899 16.801-9.301 0-16.9-7.5-16.9-16.801l.099-17.6zM290.1 144.399v16.8h-26.2v-33.6h16.9v16.8h9.3zM292.7 127.6h33.7v17.6c0 9.301-7.6 16.801-16.899 16.801-9.301 0-16.9-7.5-16.9-16.801l.099-17.6zM329.001 126.399l16.899 12.7 16.9-12.7.1 34.9h-33.699l-.2-34.9zM403.701 163.6l-21.301-36h42.601l-21.3 36zM442.801 127.6v33.6h-17.5v-33.6h17.5zM469.1 161.3h-16.899v-16.8h-7v-16.9h30.399v16.8h-6.6l.1 16.9zM491.6 125.3l21.3 35.899h-42.6l21.3-35.899zM540.701 127.6v11.3h-7v1.4h7v8.1h-7v1.4h7v11.3h-27.9v-33.5h27.9z"/></svg>