<svg xmlns="http://www.w3.org/2000/svg" viewBox="0 0 595.3 299"><path fill="#DAE3EB" d="M0 0h595.301v299h-595.301z"/><path fill="#2C3E50" d="M329.9 253.3l-7.5-26h-50.4l-7.5 26-9.2 1.2v2.4h83.8v-2.4zM418.6 52.7h-242.8c-3.1 0-5.6 2.5-5.6 5.6v145.7h254v-145.6c0-3.1-2.5-5.7-5.6-5.7z"/><path fill="#BDC3C7" d="M170.2 204v17.6c0 3.101 2.5 5.601 5.6 5.601h242.8c3.1 0 5.6-2.5 5.6-5.601v-17.6h-254z"/><path fill="#fff" d="M180.1 62h235v130.8h-235z"/><path stroke="#BDC3C7" stroke-width="3" fill="none" d="M284.3 129.9h23.2M245.2 165.4h97.8M245.2 160.4h97.8M245.2 155.8h97.8M245.2 151.4h97.8M245.2 146.6h97.8M245.2 142.6h97.8M245.2 169.6h88.7"/><radialGradient id="a" cx="-1471.418" cy="496.381" r="26.392" gradientTransform="matrix(.597 0 0 -.597 1173.822 398.203)" gradientUnits="userSpaceOnUse"><stop offset="0" stop-color="#FFF9D1"/><stop offset=".115" stop-color="#FBF2C0"/><stop offset=".341" stop-color="#F2DF93"/><stop offset=".371" stop-color="#F1DC8D"/><stop offset=".685" stop-color="#EFBF00"/><stop offset="1" stop-color="#C8951A"/></radialGradient><path fill="url(#a)" d="M294.9 85.9l15.7 15.8-15.7 15.8-15.8-15.8z"/><path stroke="#F2E9CE" stroke-width=".7" fill="none" d="M294.9 85.9l15.7 15.8-15.7 15.8-15.8-15.8z"/><linearGradient id="b" gradientUnits="userSpaceOnUse" x1="-1486.542" y1="497.41" x2="-1470.533" y2="497.41" gradientTransform="matrix(.597 0 0 -.597 1173.822 398.203)"><stop offset="0" stop-color="#E48976"/><stop offset=".511" stop-color="#A93C17"/><stop offset="1" stop-color="#611C01"/></linearGradient><path fill="url(#b)" d="M285.8 99.5l5.4-4.4 2.9 8.1 1.3 3.8h-5.6z"/><linearGradient id="c" gradientUnits="userSpaceOnUse" x1="-1477.364" y1="499.168" x2="-1457.374" y2="499.168" gradientTransform="matrix(.597 0 0 -.597 1173.822 398.203)"><stop offset="0" stop-color="#3B7F7A"/><stop offset=".517" stop-color="#006860"/><stop offset="1" stop-color="#00473C"/></linearGradient><path fill="url(#c)" d="M295.7 93l7.6 4.5-5.8 9.5h-6.2z"/><path stroke="#1D1D1B" stroke-width=".4" fill="none" d="M286.8 107h15.6"/><path fill="#211C40" d="M219.5 101.6c0 2.5-1.5 5-4.899 5h-3.9v-9.9h3.9c3.299 0 4.799 2.4 4.899 4.9zm-7 3.2h2c2.2 0 3.101-1.6 3.101-3.2 0-1.5-.9-3.1-3.101-3.1h-2v6.3zM226.8 99.1c-.3-.6-1.3-1.1-2.3-1.1-1.399 0-2 .6-2 1.3 0 .9 1 1.101 2.2 1.2 2.1.3 4 .8 4 3.1 0 2.2-1.9 3.101-4.1 3.101-2 0-3.601-.601-4.301-2.4l1.601-.8c.399 1.1 1.6 1.6 2.8 1.6s2.3-.399 2.3-1.5c0-.899-1-1.3-2.3-1.5-2-.199-3.9-.8-3.9-3 0-2 2-2.899 3.801-2.899 1.5 0 3.1.399 3.899 2l-1.7.898zM236.5 96.7h1.9v9.899h-1.2l-5.2-6.699v6.699h-1.9v-9.899h1.5l4.8 6.1.1-6.1zm-4.5-1.6c.3-.8.9-1.399 1.8-1.199.7.199 1.301.899 1.7 0l1.101.5c-.4 1.1-1.101 1.399-1.801 1.199-.699-.199-1.3-1-1.8 0l-1-.5zM244.9 100.9v-2.1h1.7v2.101h2.1v1.6h-2.1v2.1h-1.7v-2.1h-2.1v-1.6h2.1zM252.7 106.6v-9.9h1.8v9.899h-1.8zM263.7 106.6h-7.4v-9.899h7.4v1.8h-5.5v2.3h5.3v1.7h-5.3v2.2h5.5v1.899zM274.8 101.7c0 2.6-1.6 5.1-5.1 5.1s-5.1-2.5-5.1-5.1c0-2.601 1.699-5.2 5.1-5.2 3.5 0 5.2 2.6 5.1 5.2zm-8.3 0c0 1.6.9 3.399 3.2 3.399s3.2-1.699 3.2-3.399-.9-3.5-3.2-3.5-3.2 1.9-3.2 3.5zM322.301 99.1c-.7-.6-1.601-1-2.5-1-2.101 0-3.4 1.601-3.4 3.601 0 1.6.9 3.3 3.4 3.3.8 0 1.5-.2 2.2-.8v-1.7h-2.5v-1.7h4.199v4.2c-1 1.1-2.199 1.8-3.899 1.8-3.7 0-5.2-2.399-5.2-5 0-2.8 1.7-5.3 5.2-5.3 1.3 0 2.7.5 3.7 1.5l-1.2 1.099zM333.9 106.6h-2.2l-2.899-3.3h-1.8v3.3h-1.9v-9.9h4.7c2.3 0 3.6 1.6 3.6 3.3 0 1.4-.6 2.7-2.5 3.1l3 3.4v.1h-.001zm-6.899-8.2v3.199h2.8c1.2 0 1.7-.8 1.7-1.6s-.5-1.6-1.7-1.6h-2.8zM334.6 106.6v-9.8h7.1v1.8h-5.199v2.7h4.899v1.7h-4.899v3.6h-1.901zM351.7 105.3c-1 1-2.3 1.5-3.699 1.5-3.7 0-5.2-2.5-5.2-5.1 0-2.601 1.7-5.2 5.2-5.2 1.3 0 2.6.5 3.6 1.5l-1.2 1.2c-.6-.601-1.5-.9-2.399-.9-2.4 0-3.4 1.8-3.4 3.4 0 1.6 1 3.3 3.4 3.3.899 0 1.8-.4 2.5-1l1.198 1.3zM356.7 100.9v-2.1h1.7v2.101h2.101v1.6h-2.101v2.1h-1.7v-2.1h-2.1v-1.6h2.1zM371.6 104.7h-5.2l-.8 1.899h-2l4.4-9.899h2l4.399 9.899h-2l-.799-1.899zm-.799-1.7l-1.8-4.2-1.801 4.2h3.601zm.5-9.3h-2l-1 1.899v.101h1.5l1.5-2zM375.2 106.6v-9.9h1.801v9.899h-1.801zM388.7 101.7c0 2.6-1.6 5.1-5.1 5.1s-5.1-2.5-5.1-5.1c0-2.601 1.699-5.2 5.1-5.2 3.5 0 5.201 2.6 5.1 5.2zm-8.3 0c0 1.6.9 3.399 3.2 3.399s3.2-1.699 3.2-3.399-.9-3.5-3.2-3.5c-2.2 0-3.2 1.9-3.2 3.5z"/></svg>