<svg xmlns="http://www.w3.org/2000/svg" viewBox="0 0 538.6 270.6"><path fill="#9AE9C7" d="M0 0h538.6v270.6h-538.6z"/><g><path fill="#F7F8F9" d="M299.8 23.1h-74.2c-11.399 0-17.8 7.601-17.8 17.3v196c0 10.801 8.4 18 17.8 18h74.2c10 0 17.2-8.3 17.2-18v-196c0-9.7-6.4-17.3-17.2-17.3zm8.7 197.7h-92.3v-165.4h92.3v165.4z"/><linearGradient id="a" gradientUnits="userSpaceOnUse" x1="299.12" y1="634.467" x2="299.12" y2="881.41" gradientTransform="translate(-36.57 -612.676)"><stop offset="0" stop-color="#787878"/><stop offset=".491" stop-color="#E0E0E0"/><stop offset=".588" stop-color="#EBEBEB"/><stop offset="1" stop-color="#787878"/></linearGradient><path fill="url(#a)" d="M299.8 23h-74.2c-11.399 0-17.7 7.7-17.7 17.399v196c0 10.801 8.4 17.801 17.7 17.801h74.2c10 0 17.399-8.101 17.399-17.801v-196c-.099-9.699-6.599-17.399-17.399-17.399zm15.8 213.4c0 9-6.8 16.2-15.899 16.2h-74.2c-8 0-16.2-5.7-16.2-16.2v-196c0-9.699 6.5-15.899 16.2-15.899h74.2c9.399-.001 15.899 6.399 15.899 15.899v196z"/><path fill="#595E6C" d="M299.8 251.9h-74.2c-7.399 0-15.5-5.899-15.5-15.5v-196c0-8.6 6.7-15.1 15.5-15.1h74.2c8.5 0 15.1 6.6 15.1 15.1v196c-.1 8.1-7.201 15.5-15.1 15.5zm-74.2-226.2c-8.6 0-15.1 6.3-15.1 14.699v196c0 10.301 9 15.101 15.1 15.101h74.2c7.7 0 14.7-7.2 14.7-15.101v-196c0-8.3-6.5-14.699-14.7-14.699h-74.2z"/><linearGradient id="b" gradientUnits="userSpaceOnUse" x1="317.641" y1="635.276" x2="335.094" y2="635.276" gradientTransform="translate(-36.57 -612.676)"><stop offset="0" stop-color="#3C424F"/><stop offset=".018" stop-color="#636A74"/><stop offset=".091" stop-color="#2B2E34"/><stop offset=".891" stop-color="#272B33"/><stop offset=".939" stop-color="#4A5057"/><stop offset="1" stop-color="#282C33"/></linearGradient><path fill="url(#b)" d="M281.1 22.2h17.5v.8h-17.5z"/><linearGradient id="c" gradientUnits="userSpaceOnUse" x1="317.641" y1="634.726" x2="335.095" y2="634.726" gradientTransform="translate(-36.57 -612.676)"><stop offset="0" stop-color="#3C424F"/><stop offset=".018" stop-color="#636A74"/><stop offset=".091" stop-color="#2B2E34"/><stop offset=".309" stop-color="#828791"/><stop offset=".727" stop-color="#828791"/><stop offset=".891" stop-color="#272B33"/><stop offset=".939" stop-color="#4A5057"/><stop offset="1" stop-color="#282C33"/></linearGradient><path fill="url(#c)" d="M298.5 22.2h-17.4l.7-.3h16z"/><linearGradient id="d" gradientUnits="userSpaceOnUse" x1="-78.716" y1="-70.031" x2="-68.087" y2="-70.031" gradientTransform="matrix(0 -1 1 0 277.531 -13.576)"><stop offset="0" stop-color="#353540"/><stop offset=".03" stop-color="#5C626C"/><stop offset=".073" stop-color="#2B2F36"/><stop offset=".891" stop-color="#2B2F36"/><stop offset=".939" stop-color="#6C757E"/><stop offset="1" stop-color="#262C31"/></linearGradient><path fill="url(#d)" d="M207.1 54.5h.8v10.6h-.8z"/><linearGradient id="e" gradientUnits="userSpaceOnUse" x1="-78.701" y1="-70.631" x2="-68.081" y2="-70.631" gradientTransform="matrix(0 -1 1 0 277.531 -13.576)"><stop offset="0" stop-color="#989EA8"/><stop offset=".054" stop-color="#2B303A"/><stop offset=".158" stop-color="#828791"/><stop offset=".873" stop-color="#828791"/><stop offset=".933" stop-color="#2B303A"/><stop offset="1" stop-color="#989EA8"/></linearGradient><path fill="url(#e)" d="M207.1 54.5v10.6l-.4-.4v-9.7z"/><linearGradient id="f" gradientUnits="userSpaceOnUse" x1="-98.076" y1="-70.031" x2="-90.103" y2="-70.031" gradientTransform="matrix(0 -1 1 0 277.531 -13.576)"><stop offset="0" stop-color="#353540"/><stop offset=".03" stop-color="#5C626C"/><stop offset=".073" stop-color="#2B2F36"/><stop offset=".891" stop-color="#2B2F36"/><stop offset=".939" stop-color="#6C757E"/><stop offset="1" stop-color="#262C31"/></linearGradient><path fill="url(#f)" d="M207.1 76.5h.8v8h-.8z"/><linearGradient id="g" gradientUnits="userSpaceOnUse" x1="-98.076" y1="-70.631" x2="-90.112" y2="-70.631" gradientTransform="matrix(0 -1 1 0 277.531 -13.576)"><stop offset="0" stop-color="#989EA8"/><stop offset=".054" stop-color="#2B303A"/><stop offset=".158" stop-color="#828791"/><stop offset=".873" stop-color="#828791"/><stop offset=".933" stop-color="#2B303A"/><stop offset="1" stop-color="#989EA8"/></linearGradient><path fill="url(#g)" d="M207.1 76.5v8l-.4-.5v-7z"/><linearGradient id="h" gradientUnits="userSpaceOnUse" x1="-117.437" y1="-70.031" x2="-109.464" y2="-70.031" gradientTransform="matrix(0 -1 1 0 277.531 -13.576)"><stop offset="0" stop-color="#353540"/><stop offset=".03" stop-color="#5C626C"/><stop offset=".073" stop-color="#2B2F36"/><stop offset=".891" stop-color="#2B2F36"/><stop offset=".939" stop-color="#6C757E"/><stop offset="1" stop-color="#262C31"/></linearGradient><path fill="url(#h)" d="M207.1 95.9h.8v8h-.8z"/><linearGradient id="i" gradientUnits="userSpaceOnUse" x1="-117.424" y1="-70.631" x2="-109.46" y2="-70.631" gradientTransform="matrix(0 -1 1 0 277.531 -13.576)"><stop offset="0" stop-color="#989EA8"/><stop offset=".054" stop-color="#2B303A"/><stop offset=".158" stop-color="#828791"/><stop offset=".873" stop-color="#828791"/><stop offset=".933" stop-color="#2B303A"/><stop offset="1" stop-color="#989EA8"/></linearGradient><path fill="url(#i)" d="M207.1 95.9v8l-.4-.5v-7z"/><linearGradient id="j" gradientUnits="userSpaceOnUse" x1="250.798" y1="639.779" x2="258.333" y2="636.606" gradientTransform="translate(-36.57 -612.676)"><stop offset=".139" stop-color="#838383"/><stop offset=".47" stop-color="#EBEBEB"/><stop offset=".746" stop-color="#B1B1B1"/><stop offset=".903" stop-color="#7C7C7C"/></linearGradient><path fill="url(#j)" d="M214.6 28.1c2.3-1.8 5.101-3 8.4-3.5l-.7-1.399c-3.5.5-6.3 1.8-8.6 3.6l.9 1.299z"/><circle fill="#B2B2B2" cx="262.7" cy="236.3" r="10"/><linearGradient id="k" gradientUnits="userSpaceOnUse" x1="299.27" y1="859.365" x2="299.27" y2="839.245" gradientTransform="translate(-36.57 -612.676)"><stop offset=".606" stop-color="#E4E5E9"/><stop offset=".933" stop-color="#F8F9FB"/></linearGradient><circle fill="url(#k)" cx="262.7" cy="236.6" r="10"/><linearGradient id="l" gradientUnits="userSpaceOnUse" x1="299.271" y1="849.194" x2="299.271" y2="859.365" gradientTransform="translate(-36.57 -612.676)"><stop offset=".151" stop-color="#C9CACE"/><stop offset=".812" stop-color="#F8F9FB"/></linearGradient><path fill="url(#l)" d="M262.7 237.8c-3.801 0-7.301-.5-10-1.3v.1c0 5.601 4.5 10 10 10 5.6 0 10-4.5 10-10v-.1c-2.8.8-6.3 1.3-10 1.3z"/><linearGradient id="m" gradientUnits="userSpaceOnUse" x1="299.086" y1="845.263" x2="298.85" y2="853.97" gradientTransform="translate(-36.57 -612.676)"><stop offset="0" stop-color="#C6C6C6"/><stop offset="1" stop-color="#EBECEF"/></linearGradient><path fill="url(#m)" d="M264.7 240.5h-4.6c-.8 0-1.5-.7-1.5-1.5v-4.6c0-.8.7-1.5 1.5-1.5h4.601c.8 0 1.5.7 1.5 1.5v4.6c.099.8-.601 1.5-1.501 1.5zm-4.5-7.2c-.601 0-1.101.5-1.101 1.1v4.6c0 .6.5 1.1 1.101 1.1h4.6c.6 0 1.1-.5 1.1-1.1v-4.6c0-.6-.5-1.1-1.1-1.1h-4.6z"/><linearGradient id="n" gradientUnits="userSpaceOnUse" x1="344.978" y1="637.85" x2="352.129" y2="646.591" gradientTransform="translate(-36.57 -612.676)"><stop offset=".139" stop-color="#7A7A7A"/><stop offset=".47" stop-color="#EBEBEB"/><stop offset=".8" stop-color="#B1B1B1"/><stop offset=".988" stop-color="#848484"/></linearGradient><path fill="url(#n)" d="M309 25.3l-1.101 1.2c3.4 1.8 5.8 4.8 6.9 8.7l1.1-1.5c-1.2-3.6-3.599-6.5-6.899-8.4z"/><linearGradient id="o" gradientUnits="userSpaceOnUse" x1="248.987" y1="858.514" x2="255.453" y2="864.98" gradientTransform="translate(-36.57 -612.676)"><stop offset="0" stop-color="#939393"/><stop offset=".47" stop-color="#EBEBEB"/><stop offset="1" stop-color="#8A8A8A"/></linearGradient><path fill="url(#o)" d="M220.2 253.4l1.199-1.3c-3.899-1-7.399-3.3-9.6-6.899l-1.3.699c2.101 3.6 5.601 6.3 9.701 7.5z"/><linearGradient id="p" gradientUnits="userSpaceOnUse" x1="349.433" y1="855.88" x2="346.332" y2="864.271" gradientTransform="translate(-36.57 -612.676)"><stop offset="0" stop-color="#989898"/><stop offset=".47" stop-color="#EBEBEB"/><stop offset="1" stop-color="#989898"/></linearGradient><path fill="url(#p)" d="M315.5 243.9l-1.301-.8c-1.399 3.3-3.899 6-7 7.601l.801 1.299c3.4-1.7 6-4.6 7.5-8.1z"/><path fill="#010104" d="M272 42.8c0 1-.8 1.8-1.8 1.8h-15.8c-1 0-1.8-.8-1.8-1.8v-.2c0-1 .8-1.8 1.8-1.8h15.8c1 0 1.8.8 1.8 1.8v.2z"/><path fill="#7F7F81" d="M254 40.8h.5v.5h-.5zM254.9 40.8h.5v.5h-.5zM255.8 40.8h.5v.5h-.5zM256.7 40.8h.5v.5h-.5zM257.7 40.8h.5v.5h-.5zM258.6 40.8h.5v.5h-.5zM259.5 40.8h.5v.5h-.5zM260.4 40.8h.5v.5h-.5zM261.4 40.8h.5v.5h-.5zM262.3 40.8h.5v.5h-.5zM263.2 40.8h.5v.5h-.5zM253.5 41.3h.5v.5h-.5zM254.4 41.3h.5v.5h-.5zM255.3 41.3h.5v.5h-.5zM256.3 41.3h.5v.5h-.5zM257.2 41.3h.5v.5h-.5zM258.1 41.3h.5v.5h-.5zM259 41.3h.5v.5h-.5zM260 41.3h.5v.5h-.5zM260.9 41.3h.5v.5h-.5zM261.8 41.3h.5v.5h-.5zM262.8 41.3h.5v.5h-.5zM253 41.7h.5v.5h-.5zM254 41.7h.5v.5h-.5zM254.9 41.7h.5v.5h-.5zM255.8 41.7h.5v.5h-.5zM256.7 41.7h.5v.5h-.5zM257.7 41.7h.5v.5h-.5zM258.6 41.7h.5v.5h-.5zM259.5 41.7h.5v.5h-.5zM260.4 41.7h.5v.5h-.5zM261.4 41.7h.5v.5h-.5zM262.3 41.7h.5v.5h-.5zM263.2 41.7h.5v.5h-.5zM252.6 42.2h.5v.5h-.5zM253.5 42.2h.5v.5h-.5zM254.4 42.2h.5v.5h-.5zM255.3 42.2h.5v.5h-.5zM256.3 42.2h.5v.5h-.5zM257.2 42.2h.5v.5h-.5zM258.1 42.2h.5v.5h-.5zM259 42.2h.5v.5h-.5zM260 42.2h.5v.5h-.5zM260.9 42.2h.5v.5h-.5zM261.8 42.2h.5v.5h-.5zM262.8 42.2h.5v.5h-.5zM253 42.7h.5v.5h-.5zM254 42.7h.5v.5h-.5zM254.9 42.7h.5v.5h-.5zM255.8 42.7h.5v.5h-.5zM256.7 42.7h.5v.5h-.5zM257.7 42.7h.5v.5h-.5zM258.6 42.7h.5v.5h-.5zM259.5 42.7h.5v.5h-.5zM260.4 42.7h.5v.5h-.5zM261.4 42.7h.5v.5h-.5zM262.3 42.7h.5v.5h-.5zM263.2 42.7h.5v.5h-.5zM252.6 43.2h.5v.5h-.5zM253.5 43.2h.5v.5h-.5zM254.4 43.2h.5v.5h-.5zM255.3 43.2h.5v.5h-.5zM256.3 43.2h.5v.5h-.5zM257.2 43.2h.5v.5h-.5zM258.1 43.2h.5v.5h-.5zM259 43.2h.5v.5h-.5zM260 43.2h.5v.5h-.5zM260.9 43.2h.5v.5h-.5zM261.8 43.2h.5v.5h-.5zM262.8 43.2h.5v.5h-.5zM253 43.6h.5v.5h-.5zM254 43.6h.5v.5h-.5zM254.9 43.6h.5v.5h-.5zM255.8 43.6h.5v.5h-.5zM256.7 43.6h.5v.5h-.5zM257.7 43.6h.5v.5h-.5zM258.6 43.6h.5v.5h-.5zM259.5 43.6h.5v.5h-.5zM260.4 43.6h.5v.5h-.5zM261.4 43.6h.5v.5h-.5zM262.3 43.6h.5v.5h-.5zM263.2 43.6h.5v.5h-.5zM253.5 44.1h.5v.5h-.5zM254.4 44.1h.5v.5h-.5zM255.3 44.1h.5v.5h-.5zM256.3 44.1h.5v.5h-.5zM257.2 44.1h.5v.5h-.5zM258.1 44.1h.5v.5h-.5zM259 44.1h.5v.5h-.5zM260 44.1h.5v.5h-.5zM260.9 44.1h.5v.5h-.5zM261.8 44.1h.5v.5h-.5zM262.8 44.1h.5v.5h-.5zM264.2 40.8h.5v.5h-.5zM265.1 40.8h.5v.5h-.5zM266 40.8h.5v.5h-.5zM266.9 40.8h.5v.5h-.5zM267.9 40.8h.5v.5h-.5zM268.8 40.8h.5v.5h-.5zM269.7 40.8h.5v.5h-.5zM270.6 40.8h.5v.5h-.5zM263.7 41.3h.5v.5h-.5zM264.6 41.3h.5v.5h-.5zM265.5 41.3h.5v.5h-.5zM266.5 41.3h.5v.5h-.5zM267.4 41.3h.5v.5h-.5zM268.3 41.3h.5v.5h-.5zM269.2 41.3h.5v.5h-.5zM270.2 41.3h.5v.5h-.5zM271.1 41.3h.5v.5h-.5zM264.2 41.7h.5v.5h-.5zM265.1 41.7h.5v.5h-.5zM266 41.7h.5v.5h-.5zM266.9 41.7h.5v.5h-.5zM267.9 41.7h.5v.5h-.5zM268.8 41.7h.5v.5h-.5zM269.7 41.7h.5v.5h-.5zM270.6 41.7h.5v.5h-.5zM271.6 41.7h.5v.5h-.5zM263.7 42.2h.5v.5h-.5zM264.6 42.2h.5v.5h-.5zM265.5 42.2h.5v.5h-.5zM266.5 42.2h.5v.5h-.5zM267.4 42.2h.5v.5h-.5zM268.3 42.2h.5v.5h-.5zM269.2 42.2h.5v.5h-.5zM270.2 42.2h.5v.5h-.5zM271.1 42.2h.5v.5h-.5zM264.2 42.7h.5v.5h-.5zM265.1 42.7h.5v.5h-.5zM266 42.7h.5v.5h-.5zM266.9 42.7h.5v.5h-.5zM267.9 42.7h.5v.5h-.5zM268.8 42.7h.5v.5h-.5zM269.7 42.7h.5v.5h-.5zM270.6 42.7h.5v.5h-.5zM271.6 42.7h.5v.5h-.5zM263.7 43.2h.5v.5h-.5zM264.6 43.2h.5v.5h-.5zM265.5 43.2h.5v.5h-.5zM266.5 43.2h.5v.5h-.5zM267.4 43.2h.5v.5h-.5zM268.3 43.2h.5v.5h-.5zM269.2 43.2h.5v.5h-.5zM270.2 43.2h.5v.5h-.5zM271.1 43.2h.5v.5h-.5zM264.2 43.6h.5v.5h-.5zM265.1 43.6h.5v.5h-.5zM266 43.6h.5v.5h-.5zM266.9 43.6h.5v.5h-.5zM267.9 43.6h.5v.5h-.5zM268.8 43.6h.5v.5h-.5zM269.7 43.6h.5v.5h-.5zM270.6 43.6h.5v.5h-.5zM263.7 44.1h.5v.5h-.5zM264.6 44.1h.5v.5h-.5zM265.5 44.1h.5v.5h-.5zM266.5 44.1h.5v.5h-.5zM267.4 44.1h.5v.5h-.5zM268.3 44.1h.5v.5h-.5zM269.2 44.1h.5v.5h-.5zM270.2 44.1h.5v.5h-.5z"/><linearGradient id="q" gradientUnits="userSpaceOnUse" x1="298.821" y1="653.142" x2="298.821" y2="657.509" gradientTransform="translate(-36.57 -612.676)"><stop offset="0" stop-color="#787878"/><stop offset=".47" stop-color="#EBEBEB"/><stop offset="1" stop-color="#B1B1B1"/></linearGradient><path fill="url(#q)" d="M272.3 42.4c0-1-.8-1.899-1.9-1.899h-16.3c-1 0-1.899.8-1.899 1.899v.4c0 1 .8 1.9 1.899 1.9h16.3c1 0 1.9-.801 1.9-1.9v-.4zm-.7.3c0 .6-.5 1.1-1.1 1.1h-16.3c-.601 0-1.101-.5-1.101-1.1v-.4c0-.6.5-1.1 1.101-1.1h16.3c.6 0 1.1.5 1.1 1.1v.4z"/><linearGradient id="r" gradientUnits="userSpaceOnUse" x1="289.83" y1="656.625" x2="308.629" y2="656.625" gradientTransform="translate(-36.57 -612.676)"><stop offset=".042" stop-color="#F4F4F4"/><stop offset="1" stop-color="#B1B1B1"/></linearGradient><path fill="url(#r)" d="M270.5 44.6c.7 0 1.3-.3 1.6-.899l-.6-.4c-.2.3-.601.6-1 .6h-14.8l-2.4.5c.3.101.6.2.9.2h16.3z"/><linearGradient id="s" gradientUnits="userSpaceOnUse" x1="299.07" y1="649.302" x2="299.07" y2="644.141" gradientTransform="translate(-36.57 -612.676)"><stop offset="0" stop-color="#5D5C5E"/><stop offset="1" stop-color="#010104"/></linearGradient><circle fill="url(#s)" cx="262.5" cy="34.2" r="2.6"/><linearGradient id="t" gradientUnits="userSpaceOnUse" x1="950.392" y1="-487.054" x2="950.392" y2="-489.103" gradientTransform="matrix(-1 0 0 -1 1212.891 -453.862)"><stop offset="0" stop-color="#0B131C"/><stop offset="1" stop-color="#354043"/></linearGradient><circle fill="url(#t)" cx="262.5" cy="34.2" r="1"/><linearGradient id="u" gradientUnits="userSpaceOnUse" x1="299.07" y1="647.633" x2="299.07" y2="645.978" gradientTransform="translate(-36.57 -612.674)"><stop offset="0" stop-color="#4B4E4F"/><stop offset=".606" stop-color="#2F3232"/><stop offset="1" stop-color="#1C201F"/></linearGradient><circle fill="url(#u)" cx="262.5" cy="34.2" r=".8"/><radialGradient id="v" cx="299.098" cy="646.843" r=".639" gradientTransform="translate(-36.57 -612.674)" gradientUnits="userSpaceOnUse"><stop offset="0" stop-color="#120C1A"/><stop offset=".576" stop-color="#1320A4"/><stop offset="1" stop-color="#2D5CFD"/></radialGradient><circle fill="url(#v)" cx="262.5" cy="34.2" r=".6"/><circle fill="#131514" cx="244.3" cy="42.7" r="2.1"/></g><g><path opacity=".9" enable-background="new" d="M216.3 55.4h92.3v165.4h-92.3z"/><g fill="#fff"><path d="M237.5 75v4.1h-.4v-4.1h.4zM238.7 76.2v.5c.1-.2.199-.301.399-.4s.4-.2.601-.2c.199 0 .399 0 .5.101.1.1.3.1.3.199l.2.301.1.5v1.899h-.4v-2.201l-.1-.3c-.1-.1-.1-.2-.2-.2s-.2-.1-.399-.1c-.2 0-.301 0-.4.1l-.3.2-.2.3-.1.4v1.701h-.4v-3h.4v.2zM242.6 76.2v.3h-.6v2c0 .1 0 .2.1.3 0 .1.101.1.3.1h.301v.3h-.4c-.3 0-.4 0-.5-.101-.1-.1-.2-.3-.1-.5v-2h-.5v-.3h.5v-.9h.399v.9h.5v-.099zM243.4 76.2v.7c.101-.3.2-.399.4-.6.2-.1.4-.2.7-.2v.4c-.2 0-.3 0-.4.1-.1.101-.3.101-.3.2-.1.1-.2.2-.2.3-.1.101-.1.3-.1.4v1.6h-.4v-3h.3v.1zM246.7 76.2c.199.1.3.199.399.3l.3.5c.101.2.101.399.101.6s0 .4-.101.601l-.3.5c-.099.199-.299.299-.399.299-.2.1-.4.1-.601.1s-.399 0-.6-.1c-.2-.101-.3-.2-.4-.3-.1-.101-.2-.301-.3-.5-.1-.2-.1-.4-.1-.601s0-.399.1-.6.2-.3.3-.5c.101-.2.3-.3.4-.3.2-.101.399-.101.6-.101s.401.002.601.102zm-1.1.3c-.1.1-.3.2-.3.3-.1.1-.2.3-.2.4l-.1.5c0 .199 0 .3.1.5 0 .199.101.3.2.399l.3.3c.1.101.3.101.4.101.2 0 .3 0 .399-.101.101-.1.301-.199.301-.3.1-.1.199-.3.199-.399l.101-.5c0-.2 0-.301-.101-.5 0-.2-.1-.301-.199-.4l-.301-.3c-.099-.1-.299-.1-.399-.1-.1 0-.3 0-.4.1zM250.3 79.1v-.6c0 .1-.1.2-.2.3-.1.1-.2.2-.3.2-.1.1-.2.1-.3.1h-.3c-.2 0-.4 0-.601-.1-.2-.101-.3-.2-.399-.3l-.301-.5c-.1-.2-.1-.4-.1-.601s0-.399.1-.6c.101-.199.101-.299.301-.499.1-.2.199-.3.399-.3.201-.1.401-.1.601-.1h.3l.3.101.3.199.2.301v-1.701h.4v4l-.4.1zm-2-1c0 .2.1.3.2.4l.3.3s.3.1.4.1c.199 0 .3 0 .5-.1.1-.1.3-.2.3-.3.1-.101.2-.3.2-.4l.1-.5s0-.3-.1-.5c0-.2-.101-.3-.2-.399l-.3-.301c-.101-.1-.301-.1-.5-.1-.2 0-.301 0-.4.1l-.3.301-.2.399-.1.5s.1.4.1.5zM253.4 79.1v-.5c-.1.2-.199.3-.399.5-.2.101-.4.2-.601.2-.199 0-.3 0-.5-.1-.1-.101-.3-.101-.3-.2-.1-.101-.2-.2-.2-.3 0-.101-.1-.301-.1-.5v-1.9h.4v1.9c0 .3.1.5.199.6.101.1.301.2.601.2.2 0 .3 0 .399-.101l.301-.3.199-.399c0-.2.101-.301.101-.4v-1.6h.399v3l-.499-.1zM256.6 78.8v.3h-2.5v-.3l1.9-2.4h-1.8v-.3h2.3v.3l-1.9 2.4h2zM258.8 76.6c-.1-.1-.3-.2-.6-.2-.2 0-.301 0-.4.101-.1.1-.3.2-.3.3-.101.1-.2.3-.2.4l-.1.5c0 .199 0 .3.1.5 0 .199.1.3.2.399l.3.3c.1.1.3.1.4.1.1 0 .199 0 .3-.101.1 0 .2-.1.3-.199l.2-.301c.1-.1.1-.199.1-.3h.4c-.101.3-.2.601-.4.8-.2.2-.5.301-.8.301-.2 0-.4 0-.6-.101-.2-.1-.301-.2-.4-.3l-.3-.5c-.101-.2-.101-.4-.101-.6 0-.2 0-.4.101-.601l.3-.5s.3-.3.4-.3c.199-.1.399-.1.6-.1.3 0 .6.1.8.3s.3.399.4.8h-.4c0-.398-.1-.598-.3-.698zM260.1 76.6l.3-.3c.101-.1.2-.1.4-.2s.3-.1.5-.1h.4c.1 0 .3.1.3.1l.3.3c.1.101.1.301.1.5v1.6c0 .2.101.2.2.2h.101v.3h-.401c-.101 0-.101-.101-.101-.101s-.1-.1-.1-.199v-.2l-.2.3c-.1.1-.2.1-.2.2-.1.1-.199.1-.3.1h-.399c-.101 0-.301 0-.4-.1-.1 0-.2-.101-.3-.2-.101-.1-.2-.2-.2-.3-.1-.101-.1-.3-.1-.4 0-.2 0-.399.1-.5.1-.1.2-.2.4-.3.199-.1.3-.1.5-.1l.6-.101h.2s.1 0 .2-.1c.1 0 .1-.101.1-.101v-.199c0-.101 0-.2-.1-.301 0-.1-.101-.1-.2-.199l-.3-.101h-.3c-.2 0-.4.101-.601.2s-.2.3-.2.5h-.399c0 .102 0-.098.1-.198zm1.8.9l-.1.1h-.2l-.5.101s-.3.1-.399.1c-.101 0-.301.1-.301.2-.1.1-.1.2-.1.3s0 .2.1.3c0 .101.101.101.2.2.101.1.101.1.2.1h.3c.101 0 .3 0 .4-.1.1-.1.3-.1.3-.2.1-.1.2-.2.2-.3.1-.1.1-.3.1-.4l-.2-.401zM264.8 78.2c0 .1.1.3.2.399l.3.3c.1.101.3.101.4.101.3 0 .5-.101.6-.2.2-.2.3-.3.3-.6h.4c-.101.3-.2.6-.4.8s-.5.3-.899.3c-.2 0-.4 0-.601-.1-.2-.101-.3-.2-.399-.301l-.301-.5c-.1-.199-.1-.399-.1-.6s0-.4.1-.6c.1-.199.1-.299.3-.499.1-.2.3-.301.399-.301.2-.1.4-.1.601-.1.3 0 .399.1.6.2.2.1.3.2.4.399.1.2.199.301.199.5l.101.602h-2.3c.1-.1.1 0 .1.2zm1.8-1.1c0-.1-.1-.3-.2-.3-.1-.1-.199-.2-.3-.2l-.399-.1c-.2 0-.301 0-.4.1l-.3.2c-.101.1-.2.2-.2.3l-.1.4h1.899c.1-.2.1-.3 0-.4zM267.9 75v4.1h-.4v-4.1h.4zM272 76.6c-.101-.1-.3-.2-.601-.2-.199 0-.3 0-.399.101-.101.1-.3.2-.3.3-.101.1-.2.3-.2.4l-.101.5c0 .199 0 .3.101.5.1.199.1.3.2.399l.3.3c.1.1.3.1.4.1.101 0 .2 0 .301-.101l.3-.199.2-.301c.1-.1.1-.199.1-.3h.4c-.101.3-.2.601-.4.8-.2.2-.5.301-.8.301-.2 0-.4 0-.601-.101-.199-.1-.3-.2-.399-.3l-.3-.5c-.101-.2-.101-.4-.101-.6 0-.2 0-.4.101-.601l.3-.5c.1-.2.3-.3.399-.3.2-.1.4-.1.601-.1.3 0 .6.1.8.3s.3.399.4.8h-.4c-.001-.398-.101-.598-.301-.698zM275 76.2c.2.1.3.199.399.3l.301.5c.1.2.1.399.1.6s0 .4-.1.601l-.301.5c-.099.199-.299.299-.399.299-.2.1-.4.1-.601.1-.199 0-.399 0-.6-.1-.2-.101-.3-.2-.4-.3l-.3-.5c-.099-.2-.099-.4-.099-.6s0-.399.1-.6l.3-.5c.101-.2.2-.3.4-.3.2-.101.4-.101.6-.101.2.001.5.001.6.101zm-1 .3c-.101.1-.3.2-.3.3-.101.1-.2.3-.2.4l-.101.5c0 .199 0 .3.101.5 0 .199.1.3.2.399l.3.3c.1.101.3.101.4.101.2 0 .301 0 .4-.101.1-.1.3-.199.3-.3.101-.1.2-.3.2-.399l.1-.5c0-.2 0-.301-.1-.5 0-.2-.1-.301-.2-.4l-.3-.3c-.1-.101-.3-.101-.4-.101-.1.001-.3.001-.4.101zm.1-.7l.6-.8h.399l-.8.8h-.199zM278.7 79.1v-.6c0 .1-.101.2-.2.3-.101.1-.2.2-.3.2-.101.1-.2.1-.301.1h-.3c-.2 0-.399 0-.6-.1-.2-.101-.3-.2-.4-.3l-.3-.5c-.1-.2-.1-.4-.1-.601s0-.399.1-.6.1-.3.3-.5c.101-.2.3-.3.4-.3.2-.101.399-.101.6-.101h.3l.301.101.3.199.2.301v-1.699h.399v4l-.399.1zm-2-1c0 .2.1.3.199.4l.301.3c.1.1.3.1.399.1.2 0 .3 0 .5-.1.101-.1.3-.2.3-.3.101-.101.2-.3.2-.4l.101-.5s0-.3-.101-.5c0-.2-.1-.3-.2-.399l-.3-.301c-.1-.1-.3-.1-.5-.1s-.3 0-.399.1l-.3.3-.199.399-.101.5s0 .401.1.501zM280 75v.6h-.4v-.6h.4zm0 1.2v3h-.4v-3h.4zM283.1 79.5c-.1.2-.1.3-.2.399l-.399.301c-.2.1-.4.1-.601.1-.199 0-.3 0-.399-.1-.2 0-.3-.101-.4-.2l-.3-.3c-.1-.101-.1-.301-.1-.4h.399l.101.3.199.2.301.1h.3c.3 0 .6-.1.7-.3.199-.2.199-.5.199-.8v-.4c-.1.2-.199.301-.399.4s-.301.2-.601.2c-.199 0-.399 0-.6-.101-.2-.1-.3-.199-.4-.3-.1-.1-.199-.3-.3-.5-.1-.2-.1-.399-.1-.6s0-.4.1-.601l.3-.5c.101-.1.301-.3.4-.3.2-.1.3-.1.6-.1h.301l.3.1c.1.101.2.101.2.2.1.1.1.2.199.2v-.498h.4v2.7c-.1.4-.1.6-.2.8zm-.8-.8l.3-.301c.1-.1.101-.199.2-.399s.1-.3.1-.4c0-.2 0-.3-.1-.399 0-.2-.1-.301-.2-.4l-.3-.3c-.1-.101-.3-.101-.4-.101-.199 0-.3 0-.399.101l-.3.3-.2.4c0 .199-.101.3-.101.399 0 .2 0 .3.101.4 0 .2.1.3.2.399l.3.301c.1.1.3.1.399.1.2 0 .3-.1.4-.1zM285.8 76.2c.2.1.3.199.4.3l.3.5c.1.2.1.399.1.6s0 .4-.1.601l-.3.5c-.1.199-.3.299-.4.299-.2.1-.4.1-.6.1-.2 0-.4 0-.601-.1-.2-.101-.3-.2-.399-.3l-.301-.5c-.1-.2-.1-.4-.1-.601s0-.399.1-.6l.301-.5c.1-.2.3-.3.399-.3.201-.099.401-.099.601-.099.2 0 .4 0 .6.1zm-1.1.3c-.101.1-.301.2-.301.3-.1.1-.199.3-.199.4l-.101.5c0 .199 0 .3.101.5 0 .199.1.3.199.399l.301.3c.1.101.3.101.4.101.101 0 .3 0 .4-.101.1-.1.3-.199.3-.3.1-.1.2-.3.2-.399l.1-.5c0-.2 0-.301-.1-.5 0-.2-.101-.301-.2-.4l-.3-.3c-.101-.101-.3-.101-.4-.101-.1.001-.3.001-.4.101z"/></g><circle stroke="#FF20AA" cx="245" cy="85.8" r="1.8" fill="none"/><circle stroke="#FF20AA" cx="256.1" cy="85.8" r="1.8" fill="none"/><circle stroke="#FF20AA" cx="267.3" cy="85.8" r="1.8" fill="none"/><circle stroke="#FF20AA" cx="279.2" cy="85.8" r="1.8" fill="none"/><circle stroke="#FF20A9" cx="232.4" cy="111.9" r="11.5" fill="none"/><circle stroke="#FF20A9" cx="261.9" cy="111.9" r="11.5" fill="none"/><circle stroke="#FF20A9" cx="291.7" cy="111.9" r="11.5" fill="none"/><circle stroke="#FF20A9" cx="232.4" cy="139.3" r="11.5" fill="none"/><circle stroke="#FF20A9" cx="261.9" cy="139.3" r="11.5" fill="none"/><circle stroke="#FF20A9" cx="291.7" cy="139.3" r="11.5" fill="none"/><circle stroke="#FF20A9" cx="232.4" cy="166.4" r="11.5" fill="none"/><circle stroke="#FF20A9" cx="261.9" cy="166.4" r="11.5" fill="none"/><circle stroke="#FF20A9" cx="261.9" cy="193.5" r="11.5" fill="none"/><circle stroke="#FF20A9" cx="291.7" cy="166.4" r="11.5" fill="none"/><path fill="#fff" d="M232.4 106.4c-.2.3-.5.6-.9.8-.4.199-.7.399-1.101.5v-.2l.601-.3.5-.301c.2-.1.3-.199.399-.399.2-.101.301-.3.4-.5h.3v7.5h-.2v-7.1h.001zM264.5 113.6h-5c0-.3.1-.6.2-.8.1-.3.3-.5.5-.7.199-.2.5-.399.8-.6s.6-.4.8-.601c.3-.199.6-.399.8-.6.3-.2.5-.4.7-.6.2-.2.4-.5.5-.7.1-.3.2-.5.2-.8 0-.301-.101-.601-.2-.801l-.4-.6c-.199-.2-.399-.3-.699-.3-.301-.101-.5-.101-.801-.101-.399 0-.699.101-1 .2-.3.101-.5.3-.699.5-.2.2-.301.5-.4.8-.1.301-.1.601-.1.9h-.2c0-.8.2-1.4.6-1.9.4-.399 1-.699 1.8-.699.3 0 .601 0 .9.1s.5.2.7.4c.2.199.399.399.5.6.1.3.2.5.2.9 0 .399-.101.8-.301 1.1-.199.3-.5.7-.8.9-.3.3-.7.6-1.1.8-.4.3-.8.5-1.101.8l-.899.8s-.4.601-.4.9h4.8v.1h.1zM289.3 107.3c.1-.3.3-.6.5-.8s.5-.3.8-.5c.3-.101.7-.2 1.101-.2.3 0 .6 0 .899.1l.8.301c.3.1.4.3.5.6.101.2.2.5.2.8 0 .5-.2.9-.5 1.2s-.7.5-1.2.5c.2 0 .4.1.601.2.2.1.399.2.6.399.2.2.3.301.4.601.1.2.2.5.2.8s-.101.7-.2.9c-.101.3-.3.5-.5.699-.2.2-.5.301-.8.4-.301.1-.601.2-1 .2-.4 0-.801-.101-1.2-.2-.4-.1-.601-.3-.9-.5s-.399-.5-.5-.8c-.1-.3-.2-.7-.1-1.101h.2c0 .4 0 .801.1 1 .1.301.3.601.5.801.2.199.5.3.8.5.3.1.7.199 1.101.199.3 0 .6 0 .899-.1s.5-.2.7-.4c.2-.199.4-.399.5-.6.1-.3.2-.5.2-.8s-.101-.601-.2-.8l-.4-.601c-.199-.2-.399-.2-.699-.3-.301-.1-.5-.1-.801-.1h-.6v-.2h.5c.2 0 .5 0 .7-.101l.6-.3c.2-.1.3-.3.5-.5.101-.2.2-.5.2-.8s-.1-.6-.2-.8c-.1-.2-.3-.4-.5-.5-.2-.101-.399-.2-.7-.3-.3-.101-.5-.101-.8-.101s-.7 0-1 .101c-.3.1-.5.199-.8.399-.201.204-.301.404-.501.704-.1.3-.2.6-.2 1h-.2c.2-.3.3-.6.4-1zM229.5 138.6l3.7-5.2h.3v5.301h1.3v.199h-1.3v1.9h-.2v-1.9h-3.8v-.3zm3.8-4.9l-3.5 5h3.6l-.1-5zM259.8 136.8c.2-.3.5-.6.9-.8.3-.2.8-.2 1.199-.2.4 0 .801.1 1.101.2.3.1.6.3.8.5s.4.5.5.8.2.7.2 1c0 .4-.101.8-.2 1.1-.1.301-.3.601-.5.801-.2.199-.5.399-.8.5-.3.1-.7.199-1.101.199-.399 0-.699-.1-1.1-.199-.3-.101-.6-.301-.8-.5-.2-.2-.4-.5-.5-.801-.101-.3-.2-.699-.2-1.1h.2c0 .4 0 .7.2 1 .1.3.3.5.5.7.199.2.5.3.8.399.3.101.6.2 1 .2.399 0 .7-.1 1-.2.3-.1.5-.3.8-.5.2-.199.4-.5.5-.8s.2-.6.2-1c0-.399-.101-.7-.2-.899-.1-.301-.3-.5-.5-.801-.2-.199-.4-.399-.8-.5-.3-.1-.601-.199-1-.199-.4 0-.8.1-1.2.3s-.7.5-.9.8h-.3l.8-3.8h3.801v.2h-3.6l-.8 3.6zM293.5 134.3c-.2-.2-.3-.4-.5-.5l-.601-.3c-.199-.1-.399-.1-.599-.1-.6 0-1 .101-1.4.4-.3.3-.6.6-.8 1.1-.2.4-.3.9-.399 1.4-.101.5-.101.9-.101 1.4.101-.301.2-.5.3-.7l.5-.601c.2-.199.5-.3.7-.399.3-.101.601-.2.8-.2.301 0 .601.1.9.2.3.1.6.3.8.5.3.2.4.5.601.8.199.3.199.7.199 1.1 0 .4-.1.7-.199 1-.101.3-.301.6-.601.8-.3.199-.5.399-.8.5-.3.1-.6.199-1 .199-.2 0-.5 0-.7-.1s-.399-.2-.6-.2c-.2-.1-.3-.2-.5-.399-.2-.101-.3-.301-.3-.4-.2-.3-.301-.7-.4-1.1-.1-.4-.1-.9-.1-1.4s0-.9.1-1.4.3-.899.5-1.3c.2-.399.5-.7.8-1 .3-.2.8-.399 1.4-.399.3 0 .6.1.899.199.3.101.5.2.7.4s.3.4.5.6c.101.2.2.5.3.801h-.2c.101-.401-.099-.701-.199-.901zm.3 3.2c-.1-.3-.3-.5-.5-.8-.2-.2-.5-.4-.8-.5-.3-.101-.601-.2-.9-.2s-.6.1-.899.2c-.301.1-.5.3-.801.5-.199.199-.399.5-.5.8-.1.3-.199.6-.199.899 0 .301.1.601.199.9.101.3.301.5.5.8.2.2.5.4.801.5.3.101.6.2.899.2s.601-.1.9-.2c.3-.1.5-.3.8-.5.2-.2.4-.5.5-.8s.2-.6.2-.9c0-.299-.1-.599-.2-.899zM229.8 160.3h4.8v.3c-.5.5-1 1-1.399 1.601-.4.5-.801 1.1-1.101 1.699-.3.601-.5 1.2-.7 1.9-.199.7-.3 1.3-.3 2.1h-.1c0-.699.1-1.399.2-2.1.199-.7.399-1.3.699-1.9.301-.6.7-1.199 1.101-1.699.399-.5.899-1.101 1.399-1.601h-4.5v-.3h-.099zM264.2 164.3c.3.3.5.8.5 1.4 0 .399-.101.699-.2 1-.101.3-.3.5-.601.699-.3.2-.5.301-.8.4s-.7.1-1 .1c-.399 0-.7 0-1-.1s-.6-.2-.8-.4c-.3-.199-.4-.399-.6-.699-.2-.301-.2-.601-.2-1 0-.601.2-1 .5-1.4.3-.3.8-.6 1.399-.6-.199 0-.399-.101-.6-.2l-.5-.3c-.1-.101-.3-.301-.3-.5-.101-.2-.101-.4-.101-.601 0-.3.101-.6.2-.8.101-.3.3-.4.5-.6.2-.2.5-.301.8-.301.301-.1.601-.1.9-.1s.6 0 .9.1l.8.301c.3.1.399.3.5.6.1.3.2.5.2.8 0 .2 0 .4-.101.601l-.3.5c-.1.1-.3.3-.5.3-.2.1-.4.2-.6.2.104.1.604.3 1.004.6zm0 .5c-.101-.3-.301-.4-.601-.6-.2-.2-.5-.301-.8-.301-.3-.1-.6-.1-.9-.1-.3 0-.6 0-.899.1-.3.101-.601.2-.8.301-.2.199-.4.3-.601.6-.1.3-.2.5-.2.9 0 .3.101.699.2.899.101.2.3.5.5.601.2.1.5.3.8.3.301.1.601.1.9.1s.7 0 .9-.1c.3-.101.6-.2.8-.3.2-.101.399-.4.5-.601.1-.3.2-.6.2-.899.201-.3.201-.6.001-.9zm-.3-3.5c-.1-.2-.3-.4-.5-.5-.199-.1-.399-.2-.699-.3-.301-.101-.5-.101-.801-.101-.3 0-.5 0-.8.101-.3.1-.5.2-.7.3-.199.1-.3.3-.5.5-.199.2-.199.5-.199.8s.1.5.199.7c.101.2.301.3.5.5.2.1.4.2.7.3.3.101.5.101.8.101.301 0 .5 0 .801-.101.3-.1.5-.2.699-.3.2-.1.4-.3.5-.5.101-.2.2-.4.2-.7s-.1-.6-.2-.8zM264.6 195c-.1.5-.3.899-.5 1.3s-.5.7-.899.9c-.301.199-.801.3-1.4.3-.5 0-1-.101-1.3-.3-.4-.2-.7-.5-.9-.9s-.399-.8-.5-1.3c-.1-.5-.1-.9-.1-1.4s0-.899.1-1.399c.101-.5.3-.9.5-1.301.2-.399.5-.699.9-.899.399-.2.8-.3 1.3-.3s1 .1 1.4.3c.3.2.699.5.899.899.2.301.4.801.5 1.301.101.5.101.899.101 1.399-.001.4-.001.9-.101 1.4zm-.2-2.7c-.1-.4-.199-.8-.399-1.2-.2-.3-.5-.6-.8-.8-.301-.2-.801-.3-1.301-.3s-.899.1-1.3.3c-.3.2-.6.5-.8.8s-.3.8-.4 1.2c-.1.4-.1.8-.1 1.3 0 .4 0 .8.1 1.3.101.4.2.801.4 1.2.2.3.5.601.8.8.3.2.8.301 1.3.301s.9-.101 1.301-.301c.3-.199.6-.5.8-.8s.3-.8.399-1.2c.101-.399.101-.8.101-1.3-.001-.4-.001-.9-.101-1.3zM289.6 166.9c.2.2.3.4.5.5l.601.301.6.1c.4 0 .7-.1 1-.2.3-.1.5-.3.7-.5s.3-.5.5-.8l.3-.9c.1-.3.1-.6.1-.899v-.9c-.1.3-.199.5-.3.7l-.5.6c-.2.2-.5.301-.7.4-.3.1-.6.2-.8.2-.3 0-.6-.101-.899-.2-.301-.1-.601-.3-.801-.5-.3-.2-.399-.5-.6-.8s-.2-.7-.2-1c0-.4.101-.7.2-1 .2-.3.3-.601.6-.8.301-.2.5-.4.801-.5.3-.101.6-.2 1-.2.3 0 .5 0 .699.1l.601.3c.2.101.3.2.5.4.2.1.3.3.3.4.2.3.3.699.4 1.1.1.4.1.9.1 1.3s0 .9-.1 1.4c-.101.5-.301.899-.5 1.3-.2.4-.5.7-.9 1s-.8.4-1.4.4c-.3 0-.6-.101-.899-.2-.3-.101-.5-.2-.7-.4s-.3-.399-.5-.6c-.1-.2-.2-.5-.3-.8h.2c.197.198.297.498.397.698zm4.1-5c-.101-.3-.301-.5-.5-.8-.2-.2-.5-.399-.801-.5-.3-.1-.6-.2-.899-.2s-.601.101-.9.2c-.3.101-.5.3-.8.5-.2.2-.4.5-.5.8-.1.301-.2.601-.2.9s.101.6.2.9c.1.3.3.5.5.8.2.2.5.399.8.5.3.1.601.2.9.2s.6-.101.899-.2c.301-.101.5-.3.801-.5.199-.2.399-.5.5-.8.1-.301.199-.601.199-.9s-.099-.6-.199-.9z"/><g fill="#fff"><path d="M258.8 117.5l.6-1.7h.101l.7 1.7h-.101l-.2-.601h-.9l-.2.601zm.7-1.7l-.4 1.1h.8l-.4-1.1zM262.1 115.8h.2s.1 0 .2.1l.1.101v.399s0 .101-.1.101l-.101.1h-.199.199l.101.101.1.1v.4l-.1.199-.2.101h-.8999999999999999v-1.7h.7v-.002zm0 .8h.2s.1 0 .1-.1l.101-.101v-.399c0-.101-.101-.101-.101-.101l-.1-.1h-.8999999999999999v.8h.7v.001zm-.1.9h.2c.1 0 .1 0 .199-.101l.101-.1v-.4c0-.1-.101-.1-.101-.1s-.1-.1-.199-.1h-.8999999999999999v.8h.7v.001zM265.3 117.1c0 .101-.1.2-.2.2l-.2.2-.3.1s-.2 0-.3-.1c-.1 0-.2-.101-.3-.2l-.2-.3-.1-.3v-.301c0-.1.1-.199.199-.3.101-.1.2-.2.301-.2.1-.1.199-.1.399-.1.101 0 .2 0 .3.1.101 0 .2.101.2.2.101.101.101.101.101.2v.2h-.1c0-.101 0-.101-.1-.2l-.101-.2c-.1-.1-.1-.1-.2-.1h-.3c-.2 0-.3 0-.3.1l-.3.2s-.1.2-.1.3v.3c0 .101 0 .2.1.301 0 .1.1.199.2.3l.2.2.3.1c.1 0 .2 0 .3-.1.1 0 .2-.101.2-.101.201-.299.201-.299.301-.499 0 0 .1-.1.1-.2h.101c-.201 0-.201.1-.201.2z"/></g><g fill="#fff"><path d="M289.4 115.8h.301c.1 0 .199.1.199.1l.2.3c0 .1.101.199.101.399s0 .3-.101.4c0 .1-.1.2-.2.3l-.3.2-.3.1h-.5v-1.7h.6v-.099zm-.1 1.7c.1 0 .2 0 .3-.101.101 0 .2-.1.3-.199l.2-.3c0-.1.101-.199.101-.399s0-.3-.101-.4c0-.1-.1-.2-.2-.3-.1-.1-.2-.1-.2-.1h-.8v1.6l.4.199zM292.5 117.5l-1.2.1v-1.7h1.2v.1h-1.1v.8h1v.1h-1v.801l1.1-.201zM294.7 116.6l-.9.101v.899h-.1v-1.7h1.1v.1h-1v.8l.9-.2z"/></g><g fill="#fff"><path d="M290.4 142.9v1.7h-.1l.1-1.7-.8 1.7h-.1l-.7-1.7v1.7h-.1v-1.7h.1l.7 1.7.9-1.7zM291.7 142.9l1.199 1.7v-1.7h.101v1.7h-.1l-1.2-1.7v1.7h-.1l.1-1.7zM294.3 143.4c0-.1.1-.199.2-.3.1-.1.2-.2.3-.2.1-.1.2-.1.3-.1.101 0 .3 0 .3.1l.3.2.2.3.101.301c0 .1 0 .3-.101.3 0 .1-.1.2-.2.3-.1.1-.199.2-.3.2l-.3.1s-.2 0-.3-.1l-.3-.2-.2-.3-.1-.3c0-.001 0-.101.1-.301zm0 .7c0 .101.1.2.2.3.1.101.2.101.2.2l.3.101c.1 0 .2 0 .3-.101.1 0 .2-.1.2-.2s.1-.199.2-.3l.1-.3s0-.3-.1-.3c-.101 0-.101-.2-.2-.3-.101-.101-.2-.101-.2-.2-.1-.101-.2-.101-.3-.101-.101 0-.2 0-.3.101-.101 0-.2.1-.2.2l-.2.3-.1.3c.1.1.1.2.1.3z"/></g><g fill="#fff"><path d="M260.1 142.9v1.5c0 .101 0 .101-.1.2 0 0-.101.101-.2.101h-.4l-.2-.101s-.1-.1-.1-.2v-.30000000000000004h.1v.101c0 .199 0 .199.101.3.1.1.2.1.3.1h.2c.1 0 .1 0 .1-.1 0 0 .101-.101.101-.2v-.2l.098-1.201zM261.5 144.7l-.1-1.7h.101v1.1l1.2-1.1h.1l-.8.8.899 1h-.1l-.8-1-.4.3-.1.6zM264.9 144.7h-1.1v-1.7h.1v1.7h1z"/></g><g fill="#fff"><path d="M230.1 143.9h.7v.801h-.1v-.4c0 .2-.101.2-.301.3-.1.101-.3.101-.399.101-.101 0-.3 0-.3-.101l-.301-.2-.199-.3-.101-.3s0-.3.101-.3c0-.101.1-.2.199-.3.101-.101.2-.2.301-.2l.3-.101h.3l.2.101.2.2.1.3h-.1c0-.101 0-.2-.101-.2l-.2-.2-.199-.1h-.301c-.1 0-.199 0-.3.1-.1 0-.2.101-.3.2s-.1.2-.2.3l-.1.3c0 .101 0 .2.1.301 0 .1.101.199.2.3l.3.2c.101.1.2.1.3.1.101 0 .2 0 .301-.1.1 0 .199-.101.199-.101l.2-.2c.101-.1.101-.199.101-.199v-.202l-.6-.1zM232.1 144.7l-.1-1.7h.1v.8h1.2v-.8h.1v1.7h-.1v-.9h-1.2v.9zM234.7 142.9v1.7h-.1l.1-1.7z"/></g><g fill="#fff"><path d="M228 172v-1.7h.7c.199 0 .3 0 .399.1.101.101.101.2.101.301v.199l-.101.2-.2.101h-.899v.799zm.7-.8h.199c.101 0 .101 0 .2-.101l.101-.1v-.2s0-.3-.101-.3c-.1-.101-.2-.101-.3-.101h-.799v.801h.7v.001zM231.4 172l-.3.1c-.1 0-.3 0-.3-.1-.1 0-.2-.101-.3-.2l-.2-.3-.1-.3c0-.101 0-.301.1-.301 0-.1.1-.199.2-.3.1-.1.2-.2.3-.2.1-.1.2-.1.3-.1.101 0 .3 0 .3.1l.301.2.199.3.101.301c0 .1 0 .3-.101.399 0 .101-.1.2-.199.3l.3.2-.3-.2c-.101.001-.201.001-.301.101zm-.1-.4l.3.2.2-.3c.1-.101.1-.3.1-.4 0-.1 0-.2-.1-.3 0-.1-.1-.2-.2-.3-.1-.101-.2-.101-.2-.2l-.3-.1c-.1 0-.2 0-.3.1-.1 0-.2.1-.2.2l-.2.3-.1.3c0 .101 0 .3.1.3 0 .101.101.2.2.301.101.1.2.1.2.199.1.1.2.1.3.1h.3c.101 0 .2-.101.2-.101l-.3-.299zM233.2 172v-1.7h.699c.2 0 .301 0 .4.1.1.101.1.2.1.301 0 .1 0 .199-.1.3l-.3.2c.1 0 .1 0 .2.1.1 0 .1.1.1.1s0 .101.1.2v.6h-.1v-.601c0-.1 0-.1-.1-.1l-.099-.1h-1l.1.6zm.7-.9h.2c.101 0 .101 0 .2-.1l.1-.101v-.199c0-.101 0-.2-.1-.301-.1-.1-.2-.1-.3-.1h-.7v.8h.6v.001zM236.8 170.5l-.1-.2-.2-.1h-.4c-.1 0-.1 0-.2.1-.1 0-.1.1-.1.1l-.1.2c0 .101 0 .101.1.2 0 .1.1.1.1.1l.2.1c.101 0 .2 0 .2.1.1 0 .2 0 .2.101.1 0 .1 0 .2.1.1 0 .1.1.1.1l.1.2c0 .101 0 .2-.1.2l-.1.2c0 .1-.101.1-.2.1h-.5c-.101 0-.2-.1-.2-.1-.1 0-.1-.101-.1-.2s-.101-.2-.101-.3h.101v.2l.1.199c.1.1.1.1.2.1h.5c.1 0 .1 0 .2-.101.1 0 .1-.1.1-.1l.1-.2c0-.1 0-.2-.1-.2 0-.1-.1-.1-.2-.1l-.2-.1c-.1 0-.199 0-.199-.101-.101 0-.101 0-.2-.1-.101 0-.101 0-.2-.101-.1 0-.1-.1-.1-.1l-.101-.2c0-.1 0-.2.101-.2 0-.1.1-.1.1-.1s.1-.1.2-.1h.5l.2.1c-.001.103-.001.203.099.203v.3h-.1c.1-.1.1-.2.1-.3z"/></g><g fill="#fff"><path d="M259.1 170.3h1.3v.1h-.6v1.7h-.1v-1.7l-.6-.1zM262.7 170.3v1.1c0 .2-.101.4-.2.5-.101.101-.3.2-.5.2s-.4-.1-.5-.2c-.101-.1-.2-.3-.2-.5v-1.1h.1v1.1c0 .2.101.4.2.5.101.101.3.2.4.2.2 0 .3-.1.399-.2.101-.1.2-.3.2-.5v-1.1h.101zM265.3 170.3l-.7 1.7h-.1l-.7-1.7.7 1.7.8-1.7z"/></g><g fill="#fff"><path d="M289 170.3l-.5 1.7h-.1l-.5-1.7-.5 1.7h-.1l-.5-1.7h.1l.5 1.7.5-1.7h.1l.5 1.7.5-1.7zM291.3 170.3l-.6.8.699.9h-.1l-.6-.8-.699.8.7-.9-.601-.8h.101l.6.8.5-.8zM293.7 170.3l-.7 1v.7h-.1v-.7l-.699-1h.1l.7.9.699-.9zM295.9 172h-1.3v-.1l1.2-1.6h-1.1v-.1h1.199v.1l-1.199 1.6 1.2.1z"/></g><g fill="#fff"><path d="M221.4 208.3l.301.3.399.2.5.1h.3l.301-.1.3-.2c.1-.1.1-.2.1-.3s0-.2-.1-.3c0-.101-.101-.101-.2-.2s-.2-.1-.3-.1l-.3-.101-.801-.2-.3-.1c-.1 0-.2-.1-.3-.2l-.2-.3c0-.1-.1-.2-.1-.4 0-.1 0-.199.1-.3 0-.1.101-.2.2-.3s.2-.2.4-.3c.199-.101.399-.101.6-.101s.3 0 .5.101c.2.1.3.1.4.2l.3.3c.1.2.1.3.1.5h-.3c0-.2 0-.3-.1-.4l-.2-.3-.3-.2-.4-.1h-.3l-.3.1c-.101.101-.2.101-.2.2-.101.1-.101.2-.101.3v.2l.101.2.2.1.199.101.9.199.4.101.3.2c.1.1.2.199.2.3.1.1.1.3.1.399v.2c0 .101 0 .2-.1.2 0 .1-.101.2-.101.2-.1.1-.2.2-.3.2l-.4.199c-.199 0-.3.101-.6.101-.2 0-.4 0-.601-.101l-.5-.199-.3-.4c-.1-.2-.1-.3-.1-.6h.3c.203.301.303.401.303.601zM224.3 206.4l.3-.6c.2-.2.3-.3.5-.4.2-.1.5-.199.8-.199.301 0 .5.1.801.199.199.101.399.301.5.4.199.2.3.4.3.6.1.301.1.5.1.7 0 .3 0 .5-.1.7l-.3.6c-.2.2-.301.301-.5.4-.2.1-.5.2-.801.2-.3 0-.5-.101-.8-.2-.2-.1-.399-.3-.5-.4-.2-.199-.3-.399-.3-.6-.1-.2-.1-.5-.1-.7.1-.2.1-.5.1-.7zm.4 1.3c.1.199.1.399.3.5.1.199.3.3.399.399.2.101.4.101.601.101.3 0 .5 0 .6-.101.2-.1.3-.2.4-.399l.3-.5c.1-.2.1-.4.1-.601s0-.399-.1-.6-.1-.4-.3-.5c-.101-.2-.3-.3-.4-.4-.2-.1-.399-.1-.6-.1-.3 0-.5 0-.601.1-.199.101-.3.2-.399.4l-.3.5c-.101.2-.101.399-.101.6.001.301.001.401.101.601zM228.6 208.3l.3.3.4.2.5.1h.3l.3-.1.301-.2c.1-.1.1-.2.1-.3s0-.2-.1-.3c0-.101-.101-.101-.2-.2-.101-.1-.2-.1-.3-.1l-.301-.101-.8-.2-.3-.1s-.2-.1-.3-.2l-.2-.3c0-.1-.1-.2-.1-.4 0-.1 0-.199.1-.3 0-.1.1-.2.2-.3.1-.1.2-.2.399-.3.2-.101.4-.101.601-.101s.3 0 .5.101c.2.1.3.1.399.2l.301.3c.1.2.1.3.1.5h-.3c0-.2 0-.3-.101-.4l-.199-.3-.301-.2-.399-.1h-.3l-.301.1c-.1.101-.199.101-.199.2-.101.1-.101.2-.101.3v.2l.101.2.199.1.2.101.9.199.399.101.301.2c.1.1.199.199.199.3.102.1.102.3.102.4v.2c0 .101 0 .2-.101.2 0 .1-.1.2-.1.2-.1.1-.2.2-.3.2l-.4.199c-.2 0-.3.101-.6.101-.2 0-.4 0-.601-.101l-.5-.199-.3-.4c-.1-.2-.1-.3-.1-.6h.3c.202.3.202.4.302.6z"/></g><g fill="#fff"><path d="M286 206l-.3-.3-.301-.2-.399-.101c-.2 0-.5 0-.601.101-.199.1-.3.2-.399.399l-.3.5c-.101.2-.101.4-.101.601s0 .399.101.6c.1.2.1.4.3.5.1.2.3.3.399.4.2.1.4.1.601.1s.3 0 .5-.1c.1-.101.3-.2.3-.3.1-.101.2-.2.3-.4.101-.2.101-.3.101-.5h.3c0 .2-.101.4-.2.6l-.3.5c-.101.101-.3.2-.5.301-.2.1-.4.1-.601.1-.3 0-.5-.1-.8-.2-.2-.1-.399-.3-.5-.399-.2-.2-.2-.4-.3-.601-.1-.3-.1-.5-.1-.7 0-.3 0-.5.1-.699l.3-.601c.2-.2.3-.3.5-.399.2-.101.5-.2.8-.2.2 0 .301 0 .5.1l.5.2c.2.1.301.2.301.4.1.199.199.3.199.5h-.3c0 .098-.1-.102-.1-.202zM287.1 206.7l.2-.301.3-.199.4-.101h.3l.3.101c.101.1.2.199.2.3.1.1.1.3.1.399v1.4c0 .1.101.2.2.2h.101v.3h-.401l-.1-.1s0-.101-.101-.2v-.2c-.1.1-.1.2-.2.2l-.2.2-.3.1h-.6l-.3-.1c-.101-.101-.2-.2-.2-.301l-.1-.3c0-.2 0-.3.1-.399l.3-.301c.101-.1.3-.1.5-.1s.3 0 .5-.1h.2s.1 0 .1-.101l.101-.1v-.2s0-.2-.101-.3c0-.101-.1-.101-.199-.2l-.2-.1h-.3c-.2 0-.4.1-.5.199-.101.101-.2.301-.2.5l.1-.196zm1.6.8l-.101.1h-.2c-.1 0-.3 0-.399.101-.2 0-.3.1-.4.1-.1 0-.2.1-.3.2-.1.1-.1.2-.1.3s0 .2.1.2l.1.2.2.1h.2c.1 0 .3 0 .3-.1.101 0 .2-.101.3-.2.101-.101.2-.2.2-.3.101-.101.101-.2.101-.301v-.4h-.001zM290 206.3v.5c.1-.2.2-.3.3-.4.2-.1.3-.199.5-.199s.3 0 .5.1l.3.2.2.3v2.099h-.3v-2.001l-.101-.3-.199-.2-.301-.1c-.1 0-.3 0-.3.1-.1 0-.2.101-.3.2l-.2.3c-.1.101-.1.2-.1.4v1.6h-.3v-2.699l.301.1zM294.1 206.7c-.1-.101-.3-.2-.5-.2s-.3 0-.399.1l-.301.3c-.1.101-.1.2-.199.4-.101.2-.101.3-.101.4 0 .1 0 .3.101.399 0 .101.1.2.199.4l.301.3c.1.1.3.1.399.1.101 0 .2 0 .3-.1.101 0 .2-.1.2-.2l.2-.3.1-.3h.301c0 .3-.2.6-.301.8-.199.2-.399.3-.8.3-.2 0-.399 0-.5-.1-.2-.101-.3-.2-.399-.3l-.301-.4c-.1-.2-.1-.3-.1-.5s0-.4.1-.5c.101-.2.101-.3.301-.4.1-.1.199-.199.399-.3.2-.1.3-.1.5-.1.3 0 .5.1.7.2.2.199.3.399.3.699h-.3c0-.498 0-.598-.2-.698zM295.4 208.1c0 .101.101.3.2.3l.3.301c.101.1.301.1.4.1.3 0 .4-.1.6-.2.101-.1.2-.3.301-.5h.3c-.101.3-.2.5-.4.7s-.399.3-.8.3c-.2 0-.4 0-.5-.1-.2-.101-.3-.2-.4-.3-.1-.101-.199-.301-.199-.4l-.101-.5s0-.3.101-.5c0-.2.1-.3.199-.4.101-.1.2-.3.4-.3.2-.1.3-.1.5-.1s.4 0 .6.1c.2.101.301.2.4.3.1.101.2.301.2.5l.1.601h-2.1c-.101-.102-.101-.002-.101.098zm1.6-1c0-.1-.101-.2-.2-.3s-.2-.2-.3-.2c-.101-.1-.2-.1-.3-.1-.101 0-.2 0-.301.1l-.3.2-.2.3-.1.3h1.7c.101 0 .101-.2.001-.3zM298.2 205.3v3.7h-.3v-3.7h.3zM298.9 206.7l.2-.301.3-.199.4-.101h.3l.3.101c.101.1.2.199.2.3.101.1.101.3.101.399v1.4c0 .1.1.2.199.2h.1v.3h-.4l-.1-.1s0-.101-.101-.2v-.2c-.1.1-.1.2-.2.2l-.199.2-.301.1h-.6l-.3-.1c-.1-.101-.2-.2-.2-.301l-.1-.3c0-.2 0-.3.1-.399l.3-.301c.101-.1.3-.1.5-.1s.3 0 .5-.1h.2c.101 0 .101 0 .101-.101l.1-.1v-.2s0-.2-.1-.3c0-.101-.101-.101-.2-.2l-.2-.1h-.3c-.2 0-.4.1-.5.199-.101.101-.2.301-.2.5h-.3c.3.104.3.004.4-.196zm1.6.8l-.101.1h-.199c-.101 0-.301 0-.4.101-.2 0-.3.1-.4.1-.1 0-.199.1-.3.2-.1.1-.1.2-.1.3s0 .2.1.2l.101.2.199.1h.2c.101 0 .3 0 .3-.1.101 0 .2-.101.301-.2.1-.101.199-.2.199-.3.101-.101.101-.2.101-.301v-.4h-.001zM301.8 206.3v.6c.1-.199.2-.399.4-.5.199-.1.399-.199.6-.199v.3c-.2 0-.3 0-.4.1-.1 0-.199.101-.3.2-.1.1-.2.2-.2.3-.1.101-.1.2-.1.4v1.399h-.3v-2.7l.3.1z"/></g></g></svg>