<svg xmlns="http://www.w3.org/2000/svg" viewBox="0 0 453 326.9"><path stroke="#E74C3C" stroke-width="19" fill="none" d="M179.7 10.201h60.901"/><path stroke="#95A5A6" stroke-width="7" fill="none" d="M163.901 189.801h-135"/><path stroke="#95A5A6" stroke-width="15" fill="none" d="M312.401 326.9v-133.5"/><path stroke="#6D7575" stroke-width="15" fill="none" d="M312.401 212.2v-18.8"/><path fill="#34495E" d="M452.8 194.501h-297.699s.399-132.3 3.6-142.3c2.2 0 285.1-.101 286.8 0 9.4 1.6 7.299 142.3 7.299 142.3z"/><path fill="#2C3E50" d="M452.8 194.501h-297.699s288.8-142.4 290.399-142.3c9.401 1.6 7.3 142.3 7.3 142.3z"/><path fill="#47C9AF" d="M70 133.201l71.801 42.399v-89.899z"/><path fill="#16A085" d="M0 85.801v89.799h142.2z"/><path stroke="#E74C3C" stroke-width="13" fill="none" d="M188.401 130.001v-123.901"/><path fill="#47C9AF" d="M77.901 128.1l-77.901-42.399v89.899z"/><path fill="#237C6B" d="M141.801 85.701l-68.4 49.8-73.401-49.7"/><path fill="#2C3E50" d="M183.901 117.701h9.3v9.3h-9.3z"/><path fill="#fff" d="M241.7 172.001c-.1.1-.3.3-.4.3-.6-1.4-3.1-1.8-3.5-.6-.5 1.199-.5 2.1-.399 3.199l.1 3.5c.101.801.5 1.2 1.8 1.4.5.1 1.801-1.1 2-1.9.101-.199 1 .2 1 .4-.899 1.4-.6 1.9-2.6 2.6-2.2.7-3.2-1.8-3.3-2.199-.2-.7-.2-1.2-.2-1.601v-2c-.1-1.899-.3-2.2.7-4 .7-1.5 4.6-.899 4.899.4.301.301 0 .301-.1.501z"/><path fill="#fff" d="M244.3 174.4c0-1.3.101-2.6 1-3.5.5-.5 1.4-.699 2.4-.699 2.6 0 2.5 3.699 2.5 6.399 0 2.9-.6 4.3-2.6 4.3-2.9 0-3.301-2.5-3.301-5.199.001-.301-.099-.9.001-1.301zm4.101 5.101s0-.101.1-.2c.3-.5.4-.7.4-2.9 0-2.6-.101-5.199-1.3-5.199-.601 0-1.301.199-1.601.5-.6.6-.7 1.6-.7 2.699v2.001c0 1.601.3 3.2 2 3.2h.3l.601-.2c.099.099.099.099.2.099z"/><path fill="#fff" d="M253.8 180.701c0 .1-.899.1-.899.1-.101 0-.101-.2-.2-.3-.1-.3-.1-.601-.1-.9v-5.899l.1-3.5c0-.2.9-.2 1.2 0v.6c.2-.4.6-.4 1-.6.2-.101.6-.2 1.1-.301.5-.1.9-.1 1.2.101.8.3 1.2 1.2 1.4 2 .5 2.1.3 3.8.3 5.899 0 1.101.1 1.601 0 2.801-.3-.101-1.101.3-1.101-.101v-.30000000000000004c.101-1.5 0-2.2 0-3.6v-.5c0-.101 0-.601-.1-1.5 0-.9-.1-1.601-.2-2-.1-.9-.399-1.601-1.2-1.601-.7 0-1.1.2-1.899.7-.4.2-.601.7-.601 1.4 0 .699 0 1.899-.1 3.6 0 1.7 0 2.7-.101 3.1.201.101.401.801.201.801z"/><path fill="#fff" d="M261.7 168.201c0-2.2 0-2.5.1-3.101.2-.1.9 0 1.101 0-.101 1.2-.101 2.3 0 3.2 1 0 1.399.1 2.2.2.199.1.199.7 0 .899-.801 0-1.2 0-2.2-.1 0 2.4-.101 7 .1 9.4.101 2.5 2.101.8 2 .699l.5.5c.4.601-2.6 1.9-3.3.5-.5-1.5-.3-1.5-.4-4.199 0-2.301 0-1.2-.1-3.5v-4.498z"/><path fill="#fff" d="M267.601 170.801c1.199-.3 1.399-.7 2.699-.6 3.801.399 2.7 4.5 2.801 7.3-.101 1.2-.101 1.899-.101 2.099v.5l-.1.8c-.2.101-.9.101-1.101 0-1 0-3.5.7-4.2-1-.6-1.5-.6-4.5.7-5.5 1.101-.899 2-.5 3.5-.199 0-.5.2.399.101-.2-.101-1.3-.2-2.7-1.601-2.601-1.399.101-1.3.2-2.399.5.001-.099-.6-.899-.299-1.099zm4.199 6.799v-2.5c-1.1-.2-1.5-.399-2.5-.2-.899.301-1.199 2.2-.8 4.2.3 1.2 1.8.7 2.9.7h.2c0-.6.1-1.4.199-2v-.2h.001z"/><path fill="#fff" d="M281.2 172.001c-.1.1-.3.3-.4.3-.6-1.4-3.1-1.8-3.5-.6-.5 1.199-.5 2.1-.399 3.199l.1 3.5c.101.801.5 1.2 1.8 1.4.5.1 1.801-1.1 2-1.9.101-.199 1 .2 1 .4-.899 1.4-.6 1.9-2.6 2.6-2.2.7-3.2-1.8-3.3-2.199-.2-.7-.2-1.2-.2-1.601v-2c-.1-1.899-.3-2.2.7-4 .7-1.5 4.6-.899 4.899.4.301.301 0 .301-.1.501z"/><path fill="#fff" d="M284.2 168.201c0-2.2 0-2.5.1-3.101.2-.1.9 0 1.101 0-.101 1.2-.101 2.3 0 3.2 1 0 1.399.1 2.2.2.199.1.199.7 0 .899-.801 0-1.2 0-2.2-.1 0 2.4-.101 7 .1 9.4.101 2.5 2.101.8 2 .699l.5.5c.4.601-2.6 1.9-3.3.5-.5-1.5-.3-1.5-.4-4.199 0-2.301 0-1.2-.1-3.5v-4.498z"/><path fill="#fff" d="M288.8 174.4c0-1.3.101-2.6 1-3.5.5-.5 1.4-.699 2.4-.699 2.6 0 2.5 3.699 2.5 6.399 0 2.9-.6 4.3-2.6 4.3-2.9 0-3.301-2.5-3.301-5.199.001-.301-.099-.9.001-1.301zm4.101 5.101s0-.101.1-.2c.3-.5.4-.7.4-2.9 0-2.6-.101-5.199-1.3-5.199-.601 0-1.301.199-1.601.5-.6.6-.7 1.6-.7 2.699v2.001c0 1.601.3 3.2 2 3.2h.3l.601-.2c.099.099.099.099.2.099z"/><path fill="#fff" d="M298.401 162.6c.899-.1 2.6 0 3.399.2.101.3.2.9-.1.8-.5-.2-2.2-.2-2.5-.1.3 4.3-.101 8.7.2 13.3.1 1.1-.4 4.4.2 4.6.199.101.899.2 1.899 0 .3.2.2.801.2.801-3.8.6-3.5.3-3.5 0-.2-.9-.1-4.2-.1-5.301-.101-4.699-.2-9.199-.2-13.899.002-.2.301-.401.502-.401z"/><path fill="#fff" d="M304.101 170.801c1.199-.3 1.399-.7 2.699-.6 3.801.399 2.7 4.5 2.801 7.3-.101 1.2-.101 1.899-.101 2.1v.5l-.1.8c-.2.101-.9.101-1.101 0-1 0-3.5.7-4.2-1-.6-1.5-.6-4.5.7-5.5 1.101-.899 2-.5 3.5-.199 0-.5.2.399.101-.2-.101-1.3-.2-2.7-1.601-2.601-1.399.101-1.3.2-2.399.5.001-.1-.6-.9-.299-1.1zm4.199 6.799v-2.5c-1.1-.2-1.5-.399-2.5-.2-.899.301-1.199 2.2-.8 4.2.3 1.2 1.8.7 2.9.7h.2c0-.6.1-1.4.199-2v-.2h.001z"/><path fill="#fff" d="M312.2 168.201c0-2.2 0-2.5.1-3.101.2-.1.9 0 1.101 0-.101 1.2-.101 2.3 0 3.2 1 0 1.399.1 2.2.2.199.1.199.7 0 .899-.801 0-1.2 0-2.2-.1 0 2.4-.101 7 .1 9.4.101 2.5 2.101.8 2 .699l.5.5c.4.601-2.6 1.9-3.3.5-.5-1.5-.3-1.5-.4-4.199 0-2.301 0-1.2-.1-3.5v-4.498z"/><path fill="#fff" d="M317.2 162.9c.8-.199 1.4-.1 2.2-.199.2-.2.8-.101 1 .1s.2.5.1.7c-.2 2.8 0 5.7.2 8.5.2 2.6.1 6.399.2 9.6.399 1.5.2.601-.601.9-.8 0-3 .1-3-.101 0-.199-.3-.6.101-.8.7-.399 1.399.101 2.2 0 .1-2.8 0-6.6-.2-9.5l-.2-8.399c-.6 0-1 0-1.7.199-.3-.099-.5-.599-.3-1zM325.2 171.201c0 2.199.3 3.399.1 5.699.101.601.101 1.2.101 1.601 0 .399.1 1 0 1.6 0 1.3.1 1.9-.101 3.2 0 .8-.6 3.4-3.6 2.6-.2.301.1-.6.1-.8 1.5.601 2.5-.899 2.5-1.7.101-.6.101-1.199.101-1.6v-3.201c0-.399-.101-1-.101-1.6.2-2.2-.199-3.7 0-6.3.2-.2.801-.101 1.101.1v.1c-.101.101-.201.2-.201.301zm-1.2-3.5c0-.101 0-.301.101-.5l.1-.101c.2-.1.4 0 .6 0 .7 0 .801.9.5 1.4-.199.2-.3.2-.6.1-.4.101-.6 0-.6-.3-.101-.2-.101-.4-.101-.5v-.099z"/><path fill="#fff" d="M327.8 174.4c0-1.3.101-2.6 1-3.5.5-.5 1.4-.699 2.4-.699 2.6 0 2.5 3.699 2.5 6.399 0 2.9-.6 4.3-2.6 4.3-2.9 0-3.301-2.5-3.301-5.199.001-.301-.099-.9.001-1.301zm4.101 5.101s0-.101.1-.2c.3-.5.4-.7.4-2.9 0-2.6-.101-5.199-1.3-5.199-.601 0-1.301.199-1.601.5-.6.6-.7 1.6-.7 2.699v2.001c0 1.601.3 3.2 2 3.2h.3l.601-.2c.099.099.099.099.2.099z"/><path fill="#fff" d="M341.101 172.001c-.7-.601-1.5-1.101-2.5-.7-1.101.4-.9 2.3-.9 3.3-.1 1 .1.601.1 1.5 0 1.101-.199 2.101 0 3.2 0 .3-.1 1.4 0 1.7 0 .1-.3.1-.6.1h-.599c.1-1.3.1-3.5 0-4.899-.101-1.101 0-2.2 0-3.5 0-.101-.101-.2-.101-.2s.2-1.3-.7-1.5c-.2-.101.2-.5.5-.8.4 0 1.2.6 1.101.899.5-.399 1.399-.899 2.7-.8.8.1.8.5 1.5.7-.001.2-.302.899-.501 1z"/><path fill="#fff" d="M344.401 182.801c0 .5.1.9.1 1.2.101.6.7.8 1.2.8s1-.3 1.2-.9c.399-.899.5-1.8.5-2.6v-1.2c-.9.101-1.8.101-2.3-.1s-1.2-.5-1.4-.9c-.6-.899-.8-1.399-.7-2.5 0-2.5-.1-6 2.4-6.3.899-.1 2.6-.4 3.1.1.101.101 0 3 .2 4.2.1.5.1.9 0 1.2l-.1.9v2.7l.1 2c0 1.2.1 2.601-1 3.5-.6.5-1.1.7-1.8.7s-1.101 0-1.5-.399c-.5-.4-.8-1.101-.8-2.4-.2-.301.5-.301.8-.001zm-.601-8.3c-.1 1.2 0 .8 0 2 0 .399.101.8.301 1.2.199.5.399.8.6.899.7.4 1.1.4 2.7.3-.101-.899 0-1.899 0-3.399s-.101-3.101 0-4.101c0-.1-.7-.1-.8-.1-.9 0-1.301 0-1.801.4-.5.399-.8 1.199-.899 2.6l-.101.201z"/><path fill="#fff" d="M357.101 176.1c-.801.101-3.601.101-4.5 0h-.101v1c0 1 .3 2.5 1 2.7 1.2.4 2.5-.5 2.601-1.5 0-.3 1-.1 1.1.1-.4 1.7-3 3.301-4.8 2.101-1.2-.8-1.101-3.9-1.2-5.3-.1-1.301 0-3.301.8-4.4.5-.7.7-.6 1.601-.9.399-.1.899-.1 1.399 0 2.2.101 2.3 4.2 2.2 5.601-.1.199-.1.598-.1.598zm-4.301-4.299c-.399.9-.5 2.1-.399 3.2 1.1.2 2.3.3 3.7.1.3-1.5-.101-5.6-2.601-4.1-.399.2-.5.5-.7.8z"/><path fill="#fff" d="M359.601 170.801c1.199-.3 1.399-.7 2.699-.6 3.801.399 2.7 4.5 2.801 7.3-.101 1.2-.101 1.899-.101 2.099v.5l-.1.8c-.2.101-.9.101-1.101 0-1 0-3.5.7-4.2-1-.6-1.5-.6-4.5.7-5.5 1.101-.899 2-.5 3.5-.199 0-.5.2.399.101-.2-.101-1.3-.2-2.7-1.601-2.601-1.399.101-1.3.2-2.399.5.001-.099-.6-.899-.299-1.099zm4.199 6.799v-2.5c-1.1-.2-1.5-.399-2.5-.2-.899.301-1.199 2.2-.8 4.2.3 1.2 1.8.7 2.9.7h.2c0-.6.1-1.4.199-2v-.2h.001z"/><path fill="#fff" d="M367.7 168.201c0-2.2 0-2.5.1-3.101.2-.1.9 0 1.101 0-.101 1.2-.101 2.3 0 3.2 1 0 1.399.1 2.2.2.199.1.199.7 0 .899-.801 0-1.2 0-2.2-.1 0 2.4-.101 7 .1 9.4.101 2.5 2.101.8 2 .699l.5.5c.4.601-2.6 1.9-3.3.5-.5-1.5-.3-1.5-.4-4.199 0-2.301 0-1.2-.1-3.5v-4.498z"/><path fill="#fff" d="M374.401 182.801c0 .5.1.9.1 1.2.101.6.7.8 1.2.8s1-.3 1.2-.9c.399-.899.5-1.8.5-2.6v-1.2c-.9.101-1.8.101-2.3-.1s-1.2-.5-1.4-.9c-.6-.899-.8-1.399-.7-2.5 0-2.5-.1-6 2.4-6.3.899-.1 2.6-.4 3.1.1.101.101 0 3 .2 4.2.1.5.1.9 0 1.2l-.1.9v2.7l.1 2c0 1.2.1 2.601-1 3.5-.6.5-1.1.7-1.8.7s-1.101 0-1.5-.399c-.5-.4-.8-1.101-.8-2.4-.2-.301.5-.301.8-.001zm-.601-8.3c-.1 1.2 0 .8 0 2 0 .399.101.8.301 1.2.199.5.399.8.6.899.7.4 1.1.4 2.7.3-.101-.899 0-1.899 0-3.399s-.101-3.101 0-4.101c0-.1-.7-.1-.8-.1-.9 0-1.301 0-1.801.4-.5.399-.8 1.199-.899 2.6l-.101.201z"/><path fill="#fff" d="M382.601 170.501c.399.1-.101.7 0 3.1 0 2.101-.2 2.5.199 4.5.301 1.7 2.301 3.101 3.301 1.101.199-.4.199-2.301.199-4.2l.101-4.4c0-.2.8-.2 1.2 0 0 1.601-.101 2.7-.101 4.4 0 1.6.4 3.2-.5 4.7-1.3 2.3-4.6 1.5-5.2-.7-.6-2.3-.399-3.101-.3-5.4 0-.7.101-2.2 0-2.899 0-.303.901-.303 1.101-.202zM390.101 180.9c-.5-.199-.601-.699-.101-1.3l.101-.1c.399 0 .6 0 .699.1.301.2.301.3.301.601-.101 1-.5.899-1 .699z"/><path fill="#fff" d="M399.7 172.001c-.1.1-.3.3-.4.3-.6-1.4-3.1-1.8-3.5-.6-.5 1.199-.5 2.1-.399 3.199l.1 3.5c.101.801.5 1.2 1.8 1.4.5.1 1.801-1.1 2-1.9.101-.199 1 .2 1 .4-.899 1.4-.6 1.9-2.6 2.6-2.2.7-3.2-1.8-3.3-2.199-.2-.7-.2-1.2-.2-1.601v-2c-.1-1.899-.3-2.2.7-4 .7-1.5 4.6-.899 4.899.4.301.301 0 .301-.1.501z"/><path fill="#fff" d="M402.3 174.4c0-1.3.101-2.6 1-3.5.5-.5 1.4-.699 2.4-.699 2.6 0 2.5 3.699 2.5 6.399 0 2.9-.6 4.3-2.6 4.3-2.9 0-3.301-2.5-3.301-5.199.001-.301-.099-.9.001-1.301zm4.101 5.101s0-.101.1-.2c.3-.5.4-.7.4-2.9 0-2.6-.101-5.199-1.3-5.199-.601 0-1.301.199-1.601.5-.6.6-.7 1.6-.7 2.699v2.001c0 1.601.3 3.2 2 3.2h.3l.601-.2c.099.099.099.099.2.099z"/><path fill="#fff" d="M411.901 171.701c0 .399-.101.6 0 .699-.101 1.301-.101 2.2-.101 2.7 0 3.101-.1 5.101-.1 5.7 0 .2-1 .3-1.2 0 0-.7 0-2.6.1-5.7l-.1-2.7c0-.3.1-1.5 0-2.6.1-.1 1.2-.1 1.3.2-.1.3.101.6.101.8 1.199-.9 2.6-1.3 3.3-.1 0 .1 0 .1.1.199l.9-.5.9-.399c1.8-.3 2.199 2.1 2.1 3.899 0 .301-.1 1.4-.1 3.2s0 3.101.1 3.7c-.1.2-.5.1-1 .1-.2 0-.3-.3-.2-1.5 0-.6.1-1.6 0-2.8v-3c.1-2.1-.2-2.899-1.4-2.3-.5.3-.6.3-1.1.8 0 1 .1 2.4 0 4.101v2.8c0 .3 0 .7.1 1.6v.401c-.199 0-1.399 0-1.3-.101v-7.699c.101-2-.8-2.5-1.7-1.8-.101-.1-.401.1-.7.3z"/></svg>