<svg xmlns="http://www.w3.org/2000/svg" viewBox="0 0 595.3 299">
	<rect width="595.3" height="299" fill="#45BCD2"/>
	<polygon opacity="0.5" fill="#140F45" points="231.2,193.4 323,16 350,16 447,193.4 354.6,367 322,367 "/>
	<polygon opacity="0.5" fill="#292890" points="309.2,193.4 401,16 428,16 525,193.4 432.6,367 400,367 "/>
	<polygon opacity="0.5" fill="#3A6791" points="391.2,193.4 483,16 510,16 607,193.4 514.6,367 482,367 "/>
	<polygon opacity="0.5" fill="#4EBB3A" points="479.2,193.4 571,16 598,16 695,193.4 602.6,367 570,367 "/>
	<polygon opacity="0.5" fill="#9FC226" points="551.2,193.4 643,16 670,16 767,193.4 674.6,367 642,367 "/>
	<polygon opacity="0.5" fill="#F8CB10" points="637.2,193.4 729,16 756,16 853,193.4 760.6,367 728,367 "/>
	<polygon opacity="0.5" fill="#FF6407" points="719.2,193.4 811,16 838,16 935,193.4 842.6,367 810,367 "/>
	<polygon opacity="0.5" fill="#FD1104" points="799.2,193.4 891,16 918,16 1015,193.4 922.6,367 890,367 "/>
	<path fill="none" stroke="#FFFFFF" stroke-width="3" d="M363.6,191.9c0,0,100.5-131.5,250-131.5 s265.8,131.5,265.8,131.5S758.3,310.3,613,310.3S363.6,191.9,363.6,191.9z"/>
	<path fill="none" stroke="#FFFFFF" stroke-width="3" d="M335.5,192.4c0,0,111-145.3,276.1-145.3 s293.6,145.3,293.6,145.3S771.5,323.2,611,323.2S335.5,192.4,335.5,192.4z"/>
	<circle fill="none" stroke="#FFFFFF" stroke-width="3" cx="622.6" cy="189" r="44.9"/>
	<circle fill="none" stroke="#FFFFFF" stroke-width="3" cx="623.3" cy="186" r="105.7"/>
	<circle fill="none" stroke="#FFFFFF" stroke-width="3" cx="621.7" cy="188.2" r="62.1"/>
	<circle fill="none" stroke="#FFFFFF" stroke-width="3" cx="622.2" cy="187.5" r="75.6"/>
	<circle fill="none" stroke="#FFFFFF" stroke-width="3" cx="624.3" cy="187.8" r="90.7"/>
</svg>