<svg xmlns="http://www.w3.org/2000/svg" viewBox="0 271.4 595.3 299"><path fill="#E0E6E4" d="M-.4 271.4h595.3v299h-595.3z"/><path fill="#04D5F9" d="M234.2 406.1l-6.6-8.7 23.5-10.4 19.5 25.1-23.1-2.7 4.6 5.8-38.9-2z"/><path fill="#06CEF9" d="M255.9 429.8l-10.1 30.4-10.6-20.9-2.3 7.1-19.7-33.2 17.4 13.2 3.3-10.4z"/><path fill="#09AEF7" d="M213.2 413.5l-16.5 35.3 6.8-1.8-11.1 20.4 30.9-8.7-1-26.1-10.2 3z"/><path fill="#0D92F6" d="M213.2 413.5l-20.2 10.2 7.5 7.5-21.8 13.6-23-22.4 23.5-.1-5.4-5.7z"/><path fill="#0D8CF6" d="M213.2 413.5l-19.4-11.9-2.4 10.3-23.2-11.7 7-31.1 12.4 19.5 1.7-7.1z"/><path fill="#09B3F8" d="M234.9 359.7l-11.5 20.2 7-2-17 35.6 1.6-22.7-10.3 3-.7-26 30.9-8.1"/><path stroke="#107CF5" stroke-miterlimit="10" fill="none" d="M278.6 444.5h180.1M278.6 380.3h180.1"/><g fill="#FF7A00"><path d="M308.5 428.6h-29.7l16.4-30.7h-16.4v-7.7h29.7l-16.3 30.8h16.3v7.6zM321 428.6h-7.7v-38.3h15.3c1.4 0 2.8.2 4.1.5 1.3.4 2.5.9 3.6 1.6 1.1.7 2.2 1.5 3.1 2.4.9.9 1.7 2 2.4 3.1s1.2 2.4 1.5 3.7c.4 1.3.5 2.7.5 4.1 0 1.3-.2 2.6-.5 3.8s-.8 2.4-1.4 3.6c-.6 1.1-1.4 2.2-2.3 3.1-.9.9-1.9 1.8-3 2.5l4.2 10h-8.2l-3.3-7.7h-8.3v7.6zm0-30.6v15.3h7.7c1.1 0 2-.2 3-.6.9-.4 1.7-.9 2.4-1.6.7-.7 1.2-1.5 1.6-2.4.4-.9.6-1.9.6-3s-.2-2-.6-3c-.4-1-.9-1.8-1.6-2.4-.7-.6-1.5-1.2-2.4-1.6-.9-.4-1.9-.6-3-.6l-7.7-.1zM356.6 428.6h-7.6v-38.3h7.7v15.3h15.3v-15.3h7.7v38.3h-7.7v-15.3h-15.3l-.1 15.3zM424.3 409.6c0 1.8-.2 3.6-.7 5.3-.5 1.7-1.1 3.3-2 4.7-.9 1.5-1.9 2.8-3.1 4-1.2 1.2-2.5 2.2-4 3.1-1.5.9-3 1.5-4.7 2-1.7.5-3.4.7-5.3.7-1.8 0-3.6-.2-5.3-.7s-3.3-1.1-4.7-2c-1.5-.9-2.8-1.9-4-3.1-1.2-1.2-2.2-2.6-3.1-4-.9-1.5-1.5-3-2-4.7-.5-1.7-.7-3.4-.7-5.3 0-1.8.2-3.6.7-5.3s1.1-3.3 2-4.7c.9-1.5 1.9-2.8 3.1-4 1.2-1.2 2.6-2.2 4-3.1 1.5-.9 3-1.5 4.7-2s3.4-.7 5.3-.7c1.8 0 3.6.2 5.3.7 1.7.5 3.3 1.1 4.7 2 1.5.9 2.8 1.9 4 3.1 1.2 1.2 2.2 2.5 3.1 4 .9 1.5 1.5 3 2 4.7.4 1.7.7 3.5.7 5.3zm-7.6 0c0-1.7-.3-3.3-1-4.7-.6-1.5-1.5-2.8-2.6-3.9s-2.4-2-3.9-2.6c-1.5-.6-3.1-1-4.7-1-1.7 0-3.3.3-4.8 1-1.5.6-2.8 1.5-3.9 2.6s-2 2.4-2.6 3.9c-.6 1.5-1 3.1-1 4.7 0 1.7.3 3.2 1 4.7.6 1.5 1.5 2.8 2.6 3.9s2.4 2 3.9 2.6c1.5.6 3.1 1 4.8 1 1.7 0 3.3-.3 4.7-1 1.4-.7 2.8-1.5 3.9-2.6s2-2.4 2.6-3.9c.6-1.4 1-3 1-4.7zM444.2 428.6h-7.6v-30.6h-11.6v-7.7h30.6v7.7h-11.5l.1 30.6z"/></g></svg>