<svg version="1.1" xmlns="http://www.w3.org/2000/svg" xmlns:xlink="http://www.w3.org/1999/xlink" x="0px" y="0px" width="64px" height="64px" viewBox="0 0 64 64">
	<g id="behance">
		<circle fill="cyan" cx="32" cy="32" r="32"/>
		<rect x="10.6" y="16.1" fill="#FFFFFF" width="6.7" height="29"/>
		<rect x="17" y="16.1" fill="#FFFFFF" width="8.7" height="5.2"/>
		<rect x="17" y="40" fill="#FFFFFF" width="8.7" height="5.2"/>
		<rect x="17" y="27.8" fill="#FFFFFF" width="8.7" height="4.5"/>
		<path fill="#FFFFFF" d="M25.7,45.2c0,0,9.2,0.3,9.2-8.6c0,0,0.4-7.2-5.4-7.2c0,0,4.4-0.3,4.4-5.5c0-5.2-3.6-7.7-8.2-7.7 c-4.6,0-4.4,2.6-4.4,2.6l3.3,2.6h1.1c0,0,2,0,2,3s-1.2,3.5-2.6,3.5c-1.4,0-1.9,2.2-1.9,2.2l2.4,2.2c0,0,3.1,0,3.1,4 c0,4-3.2,3.8-4,3.8c-0.8,0-0.6,2.1-0.6,2.1L25.7,45.2z"/>
		<path fill="#FFFFFF" d="M47.2,23.5C36,23.5,36,34.7,36,34.7s-0.8,11.1,11.1,11.1c0,0,9.9,0.6,9.9-7.7H52c0,0,0.2,3.1-4.7,3.1 c0,0-5.1,0.3-5.1-5h15C57.3,36.1,58.9,23.5,47.2,23.5z M42.2,32.2c0,0,0.6-4.5,5.1-4.5c4.5,0,4.4,4.5,4.4,4.5H42.2z"/>
		<rect x="40.9" y="17.9" fill="#FFFFFF" width="12" height="3.6"/>
	</g>
</svg>
