<svg version="1.1" xmlns="http://www.w3.org/2000/svg" xmlns:xlink="http://www.w3.org/1999/xlink" x="0px" y="0px" width="64px" height="64px" viewBox="0 0 64 64">
	<g id="deviantart">
		<circle fill="cyan" cx="32" cy="32" r="32"/>
		<path fill="#FFFFFF" d="M36.3,35.5l-5.7-10.8l2.4-0.5h4.5l3.4,5.1c0,0,7.8-1.3,7.8-1.8C45.1,21,28,23.2,28,23.2l7.1,12.9l-24.3,6.8 c0,0-7.9-16.8,9.4-21.3c-0.4-0.9-2-4.4-2-4.4l5.6-1.7l2.4,3.9c0,0,29.9-3.3,35.3,9.2C63.7,28.1,36.3,35.5,36.3,35.5z"/>
		<path fill="cyan" d="M25.5,32.7l-8,2.3c0,0-0.5-8.7,4-9.3C21.8,25.5,25.5,32.7,25.5,32.7z"/>
	</g>
</svg>
