<svg version="1.1" xmlns="http://www.w3.org/2000/svg" xmlns:xlink="http://www.w3.org/1999/xlink" x="0px" y="0px" width="64px" height="64px" viewBox="0 0 64 64">
	<g id="pinterest">
		<circle fill="cyan" cx="32" cy="32" r="32"/>
		<path fill="#FFFFFF" d="M26.6,31.6c-0.5,2.3-3.4,14.9-3.4,14.9V57c0,0,7.2-8.6,7.4-16.7c-1-0.3,16.1,12.3,22.1-12.5 c0-3.1,0-4.4,0-5.4C41-9.6-1.2,20.1,21.1,36.8c0,0,1.3-2.5,1.9-3.8c-1.8-0.2-9-19.8,14.2-20c21.5,6.5-1.1,38.4-4.7,20.2 c0,0,2.4-7.4,2.4-8.2C35.5,14,23.5,20.4,26.6,31.6z"/>
	</g>
</svg>
