<svg xmlns="http://www.w3.org/2000/svg" xmlns:xlink="http://www.w3.org/1999/xlink" width="140.3" height="155.8" viewBox="0 0 140.3 155.8">
		<ellipse sodipodi:cx="213.75000" sodipodi:cy="170.24500" sodipodi:rx="146.25000" sodipodi:ry="146.25000" sodipodi:type="arc" fill="#1899DC" cx="69" cy="74.8" rx="55.2" ry="54.9">
	</ellipse>
	<path fill="#ED6236" d="M125.3,65.6c-0.8,2.9-0.9,3.9-1.4,4.7c0-0.1,0-3.3-1-7.7c-0.5-3.4-1.3-6.6-2.3-9.5c0.2,1.3,0.4,2.4,0.5,3.4
		c-0.8-2.1-1.8-4.3-3.1-6.5c-0.3-1-1.3-4.1-5.1-9.1c0,0,0.9,1.4,1.2,3.7C108,37.4,88.4,28,71.9,28.2c0,0,23,6,27.2,12.3
		c0,0-4.9-2.8-10.7-2c4.3,1.7,6.5,4.6,9.5,6.5c2.6,1.6,5.2,3.6,7.3,6c-0.8-0.3-1.7-0.7-2.8-1.1c0.3,0.1,2.1,0.8,3.8,2.3
		c2.2,2.8,3.5,6.1,3.3,9.9c-1.2-1.8-2-3.1-4.4-5.1c2.4,9.5,1.9,24.1-0.1,30.3c-0.6-3.7-1.3-5.5-2.4-6.4c1.5,12.7-1.3,15.8-7,21.9
		c1.1-3.7,1.5-6.8,1.3-9.2c-6.7,10.1-14.4,15.3-22.9,15.6c-3.4,0-6.6-0.5-9.6-1.5l0,0c-4.4-1.5-8.4-4-12-7.6
		c5.6,0.5,10.6-0.5,15.1-2.8l7.3-4.7c0.9-0.4,4-4.3,0.7-6c-3.7-1.9-7.5-1.6-11.5,0.9c-3.8,2.1-7.4,2.1-11-0.2
		c-2.3-1.6-4.6-3.7-6.7-6.4l-0.9-1.3c-1-2.8,1-4.1,3.1-4.4c0,0,3.9-0.7,8.5,1.7c0.7-4.7-0.4-7.6-1.8-9.5c2.8-2.6,5.3-4.5,7.5-5.7
		c0.9-0.5,1.4-1.2,1.7-2.1c0.6-0.2,1-0.8,1-1.4c0,0,0,0,0,0c0,0,0,0,0,0c0-0.4-0.2-0.7-0.4-1c-0.3-0.3-0.7-0.5-1.1-0.5
		c-0.4,0-0.7,0.1-1,0.4c-1.6,0-3.2-0.1-4.8-0.5c-0.8-0.2-1.9-0.9-3.2-2.1l-3.3-3.3l-1.1-0.8c0-0.1,0.1-0.3,0.1-0.4
		c0.5-2.5,1.2-4.6,2.3-6.4l0.2-0.2c1.1-1.8,3.2-3.7,6.2-5.8c-5.7,0.7-10.8,3.3-15.4,7.6c-3.8-1.4-8.3-1.1-13.5,0.9
		c-3.3-1.5-2.9-5.8-3.9-12.7c-4.1,4.1-8.7,11.3-8.5,21.8c0,0-3.8,5.8-4.2,6.6c-1.7,3.1-2.2,5-2.3,7.2c0,0,0,0.6,0,0.6
		c0,0.5,0.1,0.9,0.2,1.3c0,0,1.8-2.4,3.4-2.7c-0.3,0.2-2,6.3-2.4,9.8c-1.2,11.3,1.9,22.5,9.6,33.5c11.5,14.8,25.9,22.8,43.2,23.8
		c17.3,1,32.1-5.4,44.3-19.1c8.3-10.1,13.3-20.7,15.2-31.8C126.6,76.6,126.8,71.1,125.3,65.6z M30.1,105.9c-0.1,0-0.3-0.1-0.5-0.4
		C29.8,105.6,30,105.8,30.1,105.9L30.1,105.9z"/>
		<path fill="#CE5332" d="M96.6,98.2c0.3-1.8,0.4-3.3,0.2-4.7c0,0,0,0.1-0.1,0.1c-0.2,1.7-0.6,3.6-1.2,5.7 C95.9,99,96.3,98.6,96.6,98.2z"/>
		<path fill="#CE5332" d="M48.4,75.1c0,0,3.9-0.7,8.5,1.7c0.2-1.7,0.2-3.1,0.1-4.4c0,0.3,0,0.6-0.1,1c-4.6-2.4-8.5-1.7-8.5-1.7 c-2.1,0.3-4.1,1.6-3.1,4.4l0.3,0.4C46.2,75.7,47.3,75.3,48.4,75.1z"/>
		<path fill="#CE5332" d="M29.7,102.1c0.2,0.2,0.4,0.4,0.5,0.4l0,0C30,102.4,29.8,102.2,29.7,102.1z"/>
		<path fill="#CE5332" d="M52.6,40.1c-1.1,1.8-1.8,3.9-2.3,6.4c0,0,0,0.2-0.1,0.4l0.7,0.5c0.4-1.4,1-2.7,1.7-3.9l0.2-0.2 c1.1-1.8,3.2-3.7,6.2-5.8c-1.9,0.2-3.7,0.7-5.5,1.3c-0.3,0.3-0.5,0.7-0.7,1L52.6,40.1z"/>
		<path fill="#CE5332" d="M124.7,80.8c-1.9,11.1-7,21.7-15.2,31.8c-12.2,13.8-27,20.2-44.3,19.1c-17.3-1.1-31.8-9-43.2-23.8 C15.7,99,12.5,90.1,12.1,81c-0.4,10.2,2.9,20.3,9.8,30.3c11.5,14.8,25.9,22.8,43.2,23.8c17.3,1,32.1-5.4,44.3-19.1 c8.3-10.1,13.3-20.7,15.2-31.8c1.3-5.1,1.8-9.2,1.6-13C126.1,74.1,125.6,77.2,124.7,80.8z"/>
		<path fill="#CE5332" d="M13.5,68.7c0.5-2.2,1.1-3.9,1.3-4c-1.6,0.3-3.4,2.7-3.4,2.7c0,0,0-0.1,0-0.1c-0.1,0.5-0.1,1.1-0.2,1.6 c0,0,0,0.6,0,0.6c0,0.5,0.1,0.9,0.2,1.3C11.4,70.8,12.3,69.6,13.5,68.7z"/>
		<path fill="#CE5332" d="M99.1,37.1c-1.3-2-4.6-4-8.4-5.7c-6.1-2-12.7-3.2-18.9-3.1c0,0,11,2.9,19.2,6.7 C95.6,35.1,99.1,37.1,99.1,37.1z"/>
		<path fill="#CE5332" d="M105.9,57.7c-0.3-0.2-0.5-0.5-0.8-0.7c1,4,1.5,8.8,1.6,13.6C106.8,66.3,106.6,61.7,105.9,57.7z"/>
		<path fill="#CE5332" d="M106.2,48.8c-1.7-1.5-3.4-2.2-3.8-2.3c1,0.4,1.9,0.7,2.8,1.1c-2.1-2.4-4.7-4.4-7.3-6 c-1.3-0.8-2.5-1.8-3.7-2.8c-1.7-0.4-3.7-0.6-5.8-0.3c4.3,1.7,6.5,4.6,9.5,6.5c2.6,1.6,5.2,3.6,7.3,6c-0.8-0.3-1.7-0.7-2.8-1.1 c0.3,0.1,2.1,0.8,3.8,2.3c1.3,1.8,2.4,3.7,2.9,5.8c0.1,0.2,0.3,0.4,0.4,0.6C109.7,54.9,108.4,51.7,106.2,48.8z"/>
		<path fill="#CE5332" d="M103,81.2c-0.1-0.1-0.2-0.2-0.3-0.3c0.2,1.5,0.3,2.9,0.4,4.2C103,83.9,103,82.6,103,81.2z"/>
</svg>