<svg xmlns="http://www.w3.org/2000/svg" xmlns:xlink="http://www.w3.org/1999/xlink" width="140.3" height="155.8" viewBox="0 0 140.3 155.8">
	<circle fill="#F2F2F2" cx="69.8" cy="79.6" r="57.6"/>
	<path fill="#D94939" d="M90.2,49.7c-5.6-3.6-12.6-5.6-20.4-5.6c-7.2,0-13.6,1.7-19,4.7c-10.3,5.8-16.6,16.6-16.6,30.5 c0,18.8,14.2,35.8,35.6,35.8s35.6-17.1,35.6-35.8C105.4,66.1,99.7,55.6,90.2,49.7z M69.8,50.3c11.5,0,13.8,14.8,13.8,28.2 c0,12.4-1.3,29.1-13.6,29.1c-12.4,0.1-14-16.8-14-29.2C56,65,58.4,50.3,69.8,50.3z"/>
</svg>