<svg xmlns="http://www.w3.org/2000/svg" xmlns:xlink="http://www.w3.org/1999/xlink" width="140.3" height="155.8" viewBox="0 0 140.3 155.8">
    <ellipse transform="matrix(0.9932 -0.1164 0.1164 0.9932 -9.3073 8.6257)" fill="#7ABFDD" cx="69.2" cy="84" rx="51.1" ry="51.1" />
    <path fill="#EDEDED" d="M69.3,32.9c25.6,0,47.6,19.1,50.7,45.2c3.3,28-16.8,53.4-44.8,56.7c-2,0.2-4,0.4-6,0.4 c-25.6,0-47.6-19.1-50.7-45.2c-3.3-28,16.8-53.4,44.8-56.7C65.3,33,67.3,32.9,69.3,32.9 M69.3,26.5v6.4V26.5 c-2.2,0-4.5,0.1-6.8,0.4C47.2,28.7,33.6,36.3,24,48.4c-9.5,12.1-13.8,27.1-12,42.4c3.4,29,27.9,50.9,57.1,50.9 c2.2,0,4.5-0.1,6.8-0.4c15.3-1.8,28.9-9.4,38.5-21.5c9.5-12.1,13.8-27.1,12-42.4C123,48.3,98.4,26.5,69.3,26.5L69.3,26.5z" />
    </g>
    <path fill="#FFFFFF" d="M80.3,89.2c0.3-0.8,0.6-1.7,0.8-2.6l9.8-6.2l-11.5-2.3c-1.8-2.9-4.8-4.9-8.1-5.5l-6.2-9.8l-2.3,11.5
		c-0.8,0.5-1.4,1-2.1,1.6l-6.7-2l4.3,5.4c-0.5,1-0.8,2-1,3l-9.7,6.2L59,90.8c1.8,2.9,4.8,4.9,8.1,5.5l6.2,9.8l2.3-11.5
		c0.9-0.6,1.7-1.2,2.4-2l6.7,2L80.3,89.2z M71.4,95.7c-6.2,1.2-12.2-2.9-13.4-9.1s2.9-12.2,9.1-13.4c6.2-1.2,12.2,2.9,13.4,9.1
		C81.6,88.5,77.6,94.5,71.4,95.7z" />
    <linearGradient id="SVGID_1_" gradientUnits="userSpaceOnUse" x1="140.1077" y1="262.3277" x2="131.866" y2="270.5694" gradientTransform="matrix(0.999 -4.560000e-02 -4.560000e-02 -0.999 -43.2685 343.9328)">
        <stop offset="1" style="stop-color:#E84239" />
        <stop offset="1" style="stop-color:#EB5C2B" />
    </linearGradient>
    <polygon fill="url(#SVGID_1_)" points="64.8,80 91.3,58.7 73.4,87.9 	" />
    <linearGradient id="SVGID_2_" gradientUnits="userSpaceOnUse" x1="55.4171" y1="65.573" x2="64.0259" y2="57.7149" gradientTransform="matrix(1 0 0 -1 0 155.89)">
        <stop offset="1" style="stop-color:#F2F2F2" />
        <stop offset="1" style="stop-color:#CCCCCC" />
    </linearGradient>
    <path fill="url(#SVGID_2_)" d="M74.8,84c0-3.2-2.6-5.8-5.8-5.8c-1.6,0-3.1,0.7-4.2,1.8L47,109.2l26.5-21.3
		C74.3,86.8,74.8,85.5,74.8,84z" />
    <circle fill="#7ABFDD" cx="69.2" cy="84" r="2.5" />
    <path fill="#C2C5C7" d="M60.5,26.9c-2.5,0-4.5-1.5-4.8-3.6C55.6,22.1,56,21,56.8,20c0.8-0.9,2-1.5,3.3-1.7c0.3,0,0.6-0.1,0.9-0.1 c2.5,0,4.5,1.5,4.8,3.6c0.3,2.4-1.6,4.6-4.4,5C61.1,26.8,60.8,26.9,60.5,26.9z M61,19.3c-0.2,0-0.5,0-0.7,0.1 c-1.1,0.2-2,0.6-2.7,1.4c-0.6,0.7-0.9,1.6-0.8,2.4c0.2,1.5,1.8,2.7,3.7,2.7c0.2,0,0.5,0,0.7-0.1c2.2-0.3,3.7-2,3.5-3.8 C64.5,20.4,62.9,19.3,61,19.3z" />
    <path fill="#C2C5C7" d="M58.7,29.3l-0.3-1.8c-0.2-1.6,0.9-3.2,2.5-3.4l0,0c1.6-0.2,3.2,0.9,3.4,2.5l0.3,1.8 C64.9,30,59,30.9,58.7,29.3z" />
</svg>