<svg xmlns="http://www.w3.org/2000/svg" viewBox="0 0 2976.5 299">

<g id="robot-codepen">
	<rect width="595.3" height="299" fill="#bdc3c7"/>
<g>
	<g>
		<path class="antenna-left" d="M76.782,25.942c-0.08-0.815-2.192-20-22.867-21.928l0.137-1.501c21.916,2.044,24.19,23.07,24.21,23.283L76.782,25.942z"/>
	</g>
	<ellipse class="antenna-ball-left" fill="#5E5E5E" cx="55.021" cy="3.39" rx="3.344" ry="3.391"/>
</g>
<g>
	<g>
		<path class="antenna-right" d="M83.217,25.942c0.08-0.815,2.192-20,22.867-21.928l-0.137-1.501c-21.916,2.044-24.188,23.07-24.209,23.283L83.217,25.942z
			"/>
	</g>
	<ellipse class="antenna-ball-right" fill="#5E5E5E" cx="104.979" cy="3.39" rx="3.346" ry="3.391"/>
</g>
<rect class="neck" x="59.722" y="72.779" fill="#787878" width="40.557" height="27.564"/>
<path class="top-of-head" fill="#787878" d="M96.079,32.57v-8.546c-10.72-3.765-21.437-3.98-32.156,0v8.546H96.079z"/>
<g>
	<g>
		<g>
			<rect class="leg-left" x="48.499" y="158.432" fill="#787878" width="12.771" height="81.291"/>
		</g>
		<path class="foot-left" fill="#595959" d="M54.885,234.096c-9.526,0-17.244,7.119-17.244,15.903H72.13C72.13,241.215,64.41,234.096,54.885,234.096z"
			/>
		<g>
			<ellipse class="kneecap-left-outside" cx="54.885" cy="200.79" rx="9.294" ry="9.423"/>
			<g>
				<path class="kneepcap-left-inside" fill="#787878" d="M60.607,203.823c-1.653,3.202-5.553,4.44-8.715,2.768c-3.163-1.677-4.383-5.628-2.73-8.832
					c1.651-3.204,5.556-4.442,8.715-2.771C61.036,196.664,62.258,200.62,60.607,203.823z"/>
			</g>
		</g>
	</g>
	<g>
		<g>
			<rect class="leg-right" x="98.729" y="158.432" fill="#787878" width="12.771" height="81.291"/>
		</g>
		<path class="foot-right" fill="#595959" d="M105.115,234.096c9.523,0,17.244,7.119,17.244,15.903H87.871
			C87.871,241.215,95.593,234.096,105.115,234.096z"/>
		<g>
			<ellipse class="kneepcap-right-outisde" cx="105.113" cy="200.79" rx="9.295" ry="9.423"/>
			<g>
				<path class="kneecap-right-inside" fill="#787878" d="M99.395,203.823c1.652,3.202,5.551,4.44,8.713,2.768c3.164-1.677,4.381-5.628,2.729-8.832
					c-1.65-3.204-5.553-4.442-8.711-2.771C98.963,196.664,97.743,200.62,99.395,203.823z"/>
			</g>
		</g>
	</g>
</g>
<g>
	<g>
		<g>
			<path class="arm-left" fill="#787878" d="M38.291,95.944c-8.259,4.479-15.268,11.387-20.423,18.846C5.22,133.088,3.41,154.261,7.262,176.253
				l10.418-1.878c-3.338-19.01-2.353-37.016,8.665-53.158c4.23-6.199,9.988-12.042,16.923-15.812L38.291,95.944z"/>
			<path class="hand-left" fill="#595959" d="M9.604,166.5c-6.984,1.975-11.067,9.316-9.117,16.398c1.008,3.662,3.439,6.523,6.51,8.172
				c-0.167-0.363-0.315-0.742-0.426-1.141c-1.235-4.484,1.703-9.234,6.562-10.609c4.861-1.377,9.804,1.145,11.037,5.631
				c0.111,0.396,0.18,0.798,0.221,1.197c1.785-3.021,2.399-6.748,1.393-10.407C23.833,168.661,16.589,164.523,9.604,166.5z"/>
			<g>
				<ellipse class="elbox-left-outside" cx="13.581" cy="132.93" rx="8.505" ry="8.623"/>
				<g>
					<path class="elbow-left-inside" fill="#787878" d="M9.299,135.199c1.237,2.396,4.154,3.322,6.52,2.07c2.364-1.252,3.278-4.211,2.042-6.605
						c-1.236-2.398-4.152-3.324-6.52-2.072C8.978,129.844,8.065,132.803,9.299,135.199z"/>
				</g>
			</g>
		</g>
		<path class="arm-attachment-left" d="M42.356,94.049l-8.341-1.248c-5.238,10.201-7.014,20.918-4.697,32.248l8.34,1.248L42.356,94.049z"/>
	</g>
	<g>
		<g>
			<path class="arm-right" fill="#787878" d="M121.709,95.944c8.258,4.479,15.268,11.387,20.421,18.846c12.647,18.299,14.458,39.472,10.606,61.464
				l-10.418-1.878c3.339-19.01,2.353-37.017-8.666-53.158c-4.229-6.199-9.987-12.042-16.924-15.812L121.709,95.944z"/>
			<path class="hand-right" fill="#595959" d="M150.395,166.5c6.984,1.975,11.067,9.316,9.119,16.398c-1.011,3.662-3.439,6.523-6.511,8.172
				c0.168-0.363,0.313-0.742,0.424-1.141c1.237-4.484-1.702-9.234-6.562-10.609c-4.861-1.377-9.803,1.145-11.035,5.631
				c-0.109,0.396-0.18,0.798-0.223,1.197c-1.784-3.021-2.398-6.748-1.393-10.407C136.166,168.661,143.412,164.523,150.395,166.5z"/>
			<g>
				<ellipse class="elbox-right-outside" cx="146.419" cy="132.93" rx="8.505" ry="8.623"/>
				<g>
					<path class="elbow-right-inside" fill="#787878" d="M150.7,135.199c-1.235,2.396-4.154,3.322-6.519,2.07c-2.365-1.252-3.279-4.211-2.043-6.605
						c1.235-2.398,4.152-3.324,6.52-2.072C151.023,129.844,151.936,132.803,150.7,135.199z"/>
				</g>
			</g>
		</g>
		<path class="arm-attachment-right" d="M117.645,94.049l8.34-1.248c5.238,10.201,7.015,20.918,4.695,32.248l-8.339,1.248L117.645,94.049z"/>
	</g>
</g>
<path class="head" fill="#595959" d="M112.809,28.372H80H47.19c-5.814,18.663-5.499,37.322,0,55.983H80h32.811
	C118.309,65.694,118.625,47.035,112.809,28.372z"/>
<g>
	<g>
		<path class="eyeball-left-outside" fill="#FFFFFF" d="M72.116,47.955c0,5.443-4.045,9.853-9.033,9.853h-1.971c-4.988,0-9.032-4.41-9.032-9.853
			s4.044-9.856,9.032-9.856h1.971C68.071,38.099,72.116,42.512,72.116,47.955z"/>
		<path class="eyeball-left-inside" d="M66.614,47.955c0,2.176-1.618,3.942-3.613,3.942h-1.807c-1.994,0-3.612-1.766-3.612-3.942
			c0-2.178,1.618-3.943,3.612-3.943H63C64.996,44.012,66.614,45.777,66.614,47.955z"/>
	</g>
	<g>
		<path class="eyeball-right-outisde" fill="#FFFFFF" d="M107.92,47.955c0,5.443-4.045,9.853-9.031,9.853h-1.973c-4.986,0-9.031-4.41-9.031-9.853
			s4.045-9.856,9.031-9.856h1.973C103.875,38.099,107.92,42.512,107.92,47.955z"/>
		<path class="eyeball-right-inside"  d="M102.417,47.955c0,2.176-1.616,3.942-3.612,3.942h-1.807c-1.994,0-3.611-1.766-3.611-3.942
			c0-2.178,1.617-3.943,3.611-3.943h1.807C100.801,44.012,102.417,45.777,102.417,47.955z"/>
	</g>
</g>
<path class="mouth" fill="#FFFFFF" d="M103.383,69.778c0,1.381-0.836,2.499-1.871,2.499H58.487c-1.033,0-1.871-1.118-1.871-2.499
	c0-1.378,0.838-2.496,1.871-2.496h43.025C102.547,67.282,103.383,68.4,103.383,69.778z"/>
<g>
	<path class="body" fill="#595959" d="M120.098,92.09H80H39.903c-7.105,26.162-6.721,52.325,0,78.488H80h40.098
		C126.82,144.416,127.203,118.252,120.098,92.09z"/>
</g>
</g>
<g id="perfil-codepen">
<rect fill="#EFCC52" width="595.3" height="299"/>
<rect x="420.6" y="96.8" fill="#DC143C" width="70.2" height="70.2"/>
<rect x="444" y="96.8" fill="#FF6347" width="70.2" height="70.2"/>
</g>
<g id="filtros">
	<path d="M0 0h595.301v299h-595.301z"/><g fill="#FFF"><path d="M244.446 53.708c4.481-1.494 15.79-4.481 15.79-4.481h5.975l6.615 7.042s9.175-2.134 15.79-3.627c-14.297-47.798-51.212-13.871-44.17 1.066zM305.686 77.393c5.334 14.51 16.217 45.876 18.351 51.211s20.271.64 17.71-6.615c-2.561-7.042-17.07-48.65-17.07-49.931-4.268-14.296-24.326-9.175-18.991 5.335zM274.106 106.199l-6.615-14.51v-9.175l12.163-13.656h11.096l10.882 11.096 17.71 49.717v6.615l-13.443 38.408s11.309 39.475 12.803 44.596c4.694 18.991-17.497 23.258-21.551 9.815-1.494-4.694-14.296-44.596-14.296-44.596v-17.924l5.975-32.22-2.774-4.481v-2.134h4.694l6.401-6.828v-19.417h-3.841v17.924l-5.548 5.548h-39.475c-9.389 0-10.882-18.564 0-18.564 18.35-.214 25.819-.214 25.819-.214zM248.287 55.628l16.217-3.414s4.268 5.975 6.615 7.042c2.134.854 6.401 0 9.175 0-.854 6.828-9.389 9.389-9.389 9.389h-10.242c-9.176-.001-12.376-13.017-12.376-13.017z"/></g><g fill="#FFF"><circle cx="331.718" cy="141.833" r="2.561"/><circle cx="337.052" cy="149.942" r="2.561"/><circle cx="337.693" cy="156.13" r="2.561"/><circle cx="337.693" cy="161.891" r="2.561"/><circle cx="337.906" cy="168.079" r="2.561"/><circle cx="338.759" cy="174.054" r="2.561"/><circle cx="339.4" cy="180.242" r="2.561"/><circle cx="340.253" cy="186.856" r="2.561"/><circle cx="342.6" cy="152.502" r="2.561"/><circle cx="341.107" cy="144.18" r="2.561"/><circle cx="345.374" cy="148.235" r="2.561"/><circle cx="348.361" cy="152.929" r="2.561"/><circle cx="351.562" cy="157.837" r="2.561"/><circle cx="354.763" cy="162.958" r="2.561"/><circle cx="358.39" cy="168.079" r="2.561"/><circle cx="361.804" cy="172.56" r="2.561"/><circle cx="365.859" cy="177.254" r="2.561"/><circle cx="344.094" cy="137.779" r="2.561"/><circle cx="347.508" cy="142.047" r="2.561"/><circle cx="351.989" cy="146.101" r="2.561"/><circle cx="355.616" cy="150.795" r="2.561"/><circle cx="359.244" cy="155.49" r="2.561"/><circle cx="362.658" cy="160.611" r="2.561"/><circle cx="366.712" cy="165.518" r="2.561"/><circle cx="344.307" cy="158.904" r="2.561"/><circle cx="345.801" cy="164.238" r="2.561"/><circle cx="347.935" cy="169.573" r="2.561"/><circle cx="349.642" cy="174.907" r="2.561"/><circle cx="351.989" cy="179.815" r="2.561"/><circle cx="354.123" cy="184.936" r="2.561"/><circle cx="356.043" cy="190.27" r="2.561"/><circle cx="358.604" cy="196.032" r="2.561"/><circle cx="361.164" cy="201.579" r="2.561"/><circle cx="331.078" cy="148.448" r="2.561"/><circle cx="330.438" cy="154.423" r="2.561"/><circle cx="329.371" cy="160.184" r="2.561"/><circle cx="328.517" cy="165.945" r="2.561"/><circle cx="327.45" cy="172.133" r="2.561"/></g>
</g>
<g id="visible">
	<rect width="595.3" height="299" fill="#45BCD2"/>
	<polygon opacity="0.5" fill="#140F45" points="231.2,193.4 323,16 350,16 447,193.4 354.6,367 322,367 "/>
	<polygon opacity="0.5" fill="#292890" points="309.2,193.4 401,16 428,16 525,193.4 432.6,367 400,367 "/>
	<polygon opacity="0.5" fill="#3A6791" points="391.2,193.4 483,16 510,16 607,193.4 514.6,367 482,367 "/>
	<polygon opacity="0.5" fill="#4EBB3A" points="479.2,193.4 571,16 598,16 695,193.4 602.6,367 570,367 "/>
	<polygon opacity="0.5" fill="#9FC226" points="551.2,193.4 643,16 670,16 767,193.4 674.6,367 642,367 "/>
	<polygon opacity="0.5" fill="#F8CB10" points="637.2,193.4 729,16 756,16 853,193.4 760.6,367 728,367 "/>
	<polygon opacity="0.5" fill="#FF6407" points="719.2,193.4 811,16 838,16 935,193.4 842.6,367 810,367 "/>
	<polygon opacity="0.5" fill="#FD1104" points="799.2,193.4 891,16 918,16 1015,193.4 922.6,367 890,367 "/>
	<path fill="none" stroke="#FFFFFF" stroke-width="3" d="M363.6,191.9c0,0,100.5-131.5,250-131.5 s265.8,131.5,265.8,131.5S758.3,310.3,613,310.3S363.6,191.9,363.6,191.9z"/>
	<path fill="none" stroke="#FFFFFF" stroke-width="3" d="M335.5,192.4c0,0,111-145.3,276.1-145.3 s293.6,145.3,293.6,145.3S771.5,323.2,611,323.2S335.5,192.4,335.5,192.4z"/>
	<circle fill="none" stroke="#FFFFFF" stroke-width="3" cx="622.6" cy="189" r="44.9"/>
	<circle fill="none" stroke="#FFFFFF" stroke-width="3" cx="623.3" cy="186" r="105.7"/>
	<circle fill="none" stroke="#FFFFFF" stroke-width="3" cx="621.7" cy="188.2" r="62.1"/>
	<circle fill="none" stroke="#FFFFFF" stroke-width="3" cx="622.2" cy="187.5" r="75.6"/>
	<circle fill="none" stroke="#FFFFFF" stroke-width="3" cx="624.3" cy="187.8" r="90.7"/>
</g>
<g id="github">
<rect y="0" fill="#9DD9B2" width="595.3" height="299"/>
<path d="M269.1,10.3c-68.6,0-124.9,56.3-124.9,124.9c0,55.4,35.8,102.4,85.9,118.7c6.3,0.7,8.6-2.3,8.6-6.3c0-3,0-10.9,0-21.2
	c-35.1,7.9-42.1-16.3-42.1-16.3c-5.4-14-14-17.9-14-17.9c-11.6-7.9,0.7-7.9,0.7-7.9c12.6,0.7,19.5,13.3,19.5,13.3
	c10.9,18.8,28.8,13.3,36.8,10.2c0.7-7.9,4.7-13.3,7.9-16.3c-28.2-3-57-14-57-61.7c0-13.3,4.7-24.9,12.6-33.5
	c-1.6-3-5.4-15.6,1.6-32.8c0,0,10.2-3,34.4,12.6c10.2-3,20.2-4,31.2-4s21.2,1.6,31.2,4c24.2-16.3,34.4-12.6,34.4-12.6
	c7,17.2,2.3,29.8,1.6,32.8c7.9,8.6,12.6,19.5,12.6,33.5c0,48.4-28.8,58.6-57,61.7c4.7,4,8.6,11.6,8.6,23.5c0,16.3,0,30.5,0,34.4
	c0,3,2.3,7,8.6,6.3c48.4-17.9,84.2-64.9,84.2-120.3C394,66.6,338.6,10.3,269.1,10.3z"/>
</g>
</svg>