<svg version="1.1" xmlns="http://www.w3.org/2000/svg" xmlns:xlink="http://www.w3.org/1999/xlink" x="0px" y="0px"
	 width="595.3px" height="299px">
<rect x="0" fill="#E0E6E4" width="595.3" height="299"/>
<path fill="#78BBE4" d="M307.6,244.1c0,0-116.4-45.1-75.8-184.8c31.3-23.7,117.9-18,152.2,0C426.8,191.6,307.6,244.1,307.6,244.1z"/>
<path fill="#F2990B" d="M391.4,93c3.5,14.3,0.9,37,0.9,37s-167.7,0-168.4,0s-0.8-29.6,0.8-37C229.1,93,391.4,93,391.4,93"/>
<path d="M325.9,113.1c0.7-0.5,1.2-1.2,1.6-2.1c0.4-1,0.6-1.6,0.8-1.8c0.1-0.3,0.2-0.5,0.2-0.6c0.2-0.8,0.3-1.2,0.3-1.2 c0.4-1.1,0.5-1.6,0.5-1.6c0-0.1-0.6-0.3-1.9-0.6c-0.8-0.4-1.3-0.7-1.6-1l-0.8-0.3c-0.1-0.1-0.1-0.2-0.1-0.3c0,0-0.1-0.1-0.3-0.1 c-0.2-0.1-0.3-0.1-0.3-0.2c0-0.2,0.2-0.4,0.5-0.4s0.7,0.2,1,0.5c0.4,0.1,0.8,0.3,1,0.4c0.4,0.2,1.2,0.3,2.2,0.3c0.1,0,0.4,0,0.6-0.1 c0.3-0.1,0.5-0.1,0.6-0.1c0.4,0,0.8,0.1,1.2,0.3c0.5,0.2,0.7,0.5,0.8,0.8c0.1,0,0.3-0.4,0.5-1c0.2-0.5,0.6-0.7,1.3-0.7 c0.4,0,0.7,0.2,1,0.5c0.3,0.3,0.5,0.7,0.5,1.1c0,0.1-0.1,0.4-0.3,0.9c-0.2,0.4-0.3,0.6-0.5,0.6s-0.3,0.1-0.4,0.2 c-0.1,0.2-0.2,0.2-0.2,0.2s0,0-0.1,0h-0.1c-0.2,0.2-0.4,0.3-0.5,0.3c0,0-0.1,0-0.2-0.1c-0.1,0-0.1-0.1-0.2-0.1c0,0.1,0,0.2,0,0.4 c0,0.3,0.1,0.9,0.3,1.8c0.2,1,0.3,1.5,0.4,1.7l0.7,0.8c0.7,0.8,1.3,1.2,1.8,1.3s0.7,0.2,0.7,0.4c0,0.7-0.1,1-0.4,1 c-0.2,0-0.5-0.2-0.9-0.7c-0.3-0.3-1-0.9-2.3-1.7c-0.6-0.4-1-0.9-1.2-1.3c-0.1,0.2-0.3,0.9-0.5,2.1c1,2.1,1.5,3.3,1.6,3.4 c0.3,0.3,0.5,0.6,0.7,0.7c0.2,0.4,0.3,0.6,0.4,0.8c1,1,1.8,1.7,2.4,2.1c0.2,0.1,0.8,0.3,1.8,0.6c0.9,0.3,1.4,0.5,1.4,0.6 c0,0.2-0.2,0.4-0.6,0.6c-0.3,0.1-0.6,0.1-0.9,0.1c-0.1,0-0.3,0-0.5,0c-0.2,0-0.4,0-0.5,0c-0.2,0-0.4-0.1-0.5-0.4 c-0.1-0.2-0.3-0.3-0.4-0.5c-0.3-0.3-0.7-0.6-1.1-0.8c-0.4-0.2-0.8-0.4-1.2-0.6c-0.4-0.2-0.8-0.6-1.1-1.2c-0.3-0.6-0.7-1-1-1.2 c-0.2-0.1-0.8-0.7-1.8-1.6c-0.9-0.9-1.4-1.3-1.6-1.3c-0.1,0-0.5,0.2-1.1,0.6c-0.6,0.4-1.1,0.6-1.4,0.6s-0.9-0.3-1.9-1 c-1-0.7-2-1-3.1-1c-0.1,0-0.3,0-0.6,0.1c-0.3,0.1-0.5,0.1-0.6,0.1c-0.2,0-0.3-0.1-0.3-0.2c0-0.2,0.2-0.5,0.7-0.8 c0.5-0.4,0.8-0.6,1-0.6c0.1,0,0.3,0.1,0.4,0.2c0.1,0.1,0.2,0.2,0.3,0.2l2,0.4C324.9,112.7,325.5,112.9,325.9,113.1z M340.6,115.3 c-0.3,0.3-0.5,0.7-0.5,1.1c0,0.4,0.2,0.8,0.5,1.1c0.3,0.3,0.7,0.5,1.1,0.5c0.4,0,0.8-0.2,1.1-0.5c0.3-0.3,0.5-0.7,0.5-1.1 c0-0.4-0.2-0.8-0.5-1.1s-0.7-0.5-1.1-0.5C341.2,114.9,340.9,115,340.6,115.3z"/>
	<defs>
		<rect id="SVGID_1_" x="231.7" y="101.2" width="19" height="19"/>
		<rect id="SVGID_3_" x="260.8" y="101.7" width="19.1" height="19.3"/>
	</defs>
	<clipPath id="SVGID_2_">
		<use xlink:href="#SVGID_1_"  overflow="visible"/>
	</clipPath>
	<g clip-path="url(#SVGID_2_)">
		<path d="M250.8,112.3c-0.1,0.2-0.1,0.4-0.2,0.6c-0.6-0.1-1.3-0.2-1.9-0.4c-1.4-0.3-2.9-0.6-4.3-0.9c-1.8-0.4-3.4-0.2-5,0.9 c-0.4-0.7-0.8-1.3-1.3-2c0.1-0.1,0.2-0.2,0.3-0.3c2.5-1.6,5-3,7.8-4c0.1,0,0.2-0.1,0.3-0.1c3-0.8,2.9-0.9,4,2.1 c0.2,0.4,0.3,0.8,0.4,1.2C250.8,110.3,250.8,111.3,250.8,112.3z"/>
		<path d="M240.4,120.4c-0.3-0.1-0.5-0.2-0.8-0.2c-1.1-0.1-1.7-0.7-2-1.7c-0.7-2.2-0.1-4.1,1.6-5.2c1.8,2.3,3.5,4.8,6.4,6.2 c-1.2,0.3-2.2,0.6-3.1,0.9C241.8,120.4,241.1,120.4,240.4,120.4z"/>
		<path d="M241.9,101.4c-1.2,0.8-1.9,2.1-2.6,3.3c-0.7,1-1.6,1.9-2.6,3c-0.6-1.4-1.2-2.6-1-3.9c0-0.3,0.4-0.8,0.7-0.9 c1.3-0.6,2.6-1,3.9-1.5C240.8,101.4,241.3,101.4,241.9,101.4z"/>
		<path d="M231.9,109.9c0.1-0.2,0.1-0.5,0.2-0.8c1.6,0.7,2.9,0.1,4.2-0.8c0.3,0.6,0.6,1.2,0.9,1.7c-1.6,1.4-3.1,2.8-4.7,4.3 c-0.2-0.8-0.4-1.6-0.7-2.5C231.9,111.2,231.9,110.6,231.9,109.9z"/>
		<path d="M239.6,112.9c1.3-0.9,2.6-1.1,4-0.9c2.3,0.4,4.5,0.9,7,1.4c-0.4,0.8-0.6,1.7-1.1,2.3c-0.8,1-1.7,1.9-2.7,2.9 c-0.6,0.6-1.2,0.5-1.8,0c-1-0.8-2-1.6-2.8-2.5C241.3,115.1,240.5,114,239.6,112.9z"/>
		<path d="M248.8,105.1c-4.2,0.5-7.6,2.6-11.1,4.8c-0.3-0.6-0.6-1.1-0.8-1.6c-0.1-0.1,0.1-0.4,0.2-0.5c1.4-1.1,2.4-2.4,3.2-4 c1.3-2.4,2.3-2.7,4.8-1.6C246.6,102.8,247.9,103.8,248.8,105.1z"/>
		<path d="M237.7,119.6c-2-0.9-3.5-2.2-4.5-4c-0.1-0.2-0.1-0.6,0.1-0.7c0.4-0.6,0.9-1.2,1.4-1.7c0.9-0.8,1.9-1.6,3-2.5 c0.5,0.7,0.8,1.3,1.2,2C236.4,114.6,236.4,116.9,237.7,119.6z"/>
		<path d="M235,103.8c0.3,1.4,0.7,2.7,1,4.1c-0.9,0.6-2,1.2-3.3,0.7c-0.2-0.1-0.4-0.3-0.4-0.5C232.8,106.5,233.7,105,235,103.8z"/>
	</g>
	<clipPath id="SVGID_4_">
		<use xlink:href="#SVGID_3_"  overflow="visible"/>
	</clipPath>
	<g clip-path="url(#SVGID_4_)">
		<path d="M269.3,101.8c0.8,0,1.6,0,2.4,0c1.1,0.3,2.4,0.5,3.5,1.3c-0.5,0.1-0.9,0.1-1.2,0.2c-2.6,0.5-5.2,0.9-7.7,1.7 c-3.3,1.1-5,4-4.6,7.4c0.3,3,1.8,5.1,4.7,6c2.2,0.7,4.3,0.1,6.3-0.9c1.5-0.8,2.9-1.6,4.4-2.4c0.7-0.4,1.6-0.6,2.3-0.8 c0,0.1,0.1,0.2,0.1,0.2c-1.2,3.3-3.6,5.4-7,6.2c-0.4,0.1-0.7,0.2-1,0.3c-0.7,0-1.4,0-2.1,0c-0.3-0.1-0.5-0.2-0.8-0.3 c-2.7-0.6-4.9-2-6.3-4.4c-0.7-1.2-1-2.6-1.5-3.9c0-0.8,0-1.6,0-2.4c0.1-0.2,0.1-0.4,0.2-0.6c0.8-3.7,3.1-6.2,6.7-7.4 C268.3,102.1,268.8,102,269.3,101.8z"/>
		<path d="M280.1,111.4c0,0.1,0,0.1,0,0.2c0,1.6,0,1.5-1.5,2.1c-1.4,0.6-2.7,1.3-4,2c-1.9,1.1-3.8,2-6,2.1c-3.7,0.2-5.7-1.9-6.1-5.6 c-0.3-2.7,1.3-5.2,3.9-6.5c2.1-1,4.4-1.4,6.6-1.8c0.9-0.1,1.8-0.2,2.6-0.3c0.5-0.1,0.9,0.1,1.3,0.4 C279,106.1,280.1,108.5,280.1,111.4z"/>
	</g>
<path d="M311.4,120.6c-0.7,0.9-1.6,0.9-2.6,0.9c-4.3,0-8.7,0-13,0c-0.3,0-0.5,0-0.8,0c0-0.3,0-0.6,0-0.9c0.3,0,0.6,0,0.9,0 c4.6,0,9.1,0,13.7,0c0.6,0,1.2-0.2,1.8-0.2C311.4,120.5,311.4,120.6,311.4,120.6z"/>
<path d="M307.1,103c0.2,0.2,0.4,0.3,0.5,0.5c0.8,0.7,0.8,1.7,0.2,2.4c-0.7,0.7-1.8,0.7-2.5,0c-0.6-0.7-0.5-1.8,0.3-2.4 c0.2-0.1,0.3-0.3,0.5-0.4C306.4,103,306.8,103,307.1,103z"/>
<path d="M305.5,108.5c-0.8,0.9-1.4,1.6-2.1,2.4c0.6,0.6,1.2,1.2,1.7,1.8c0.2,0.3,0.4,0.8,0.3,1.1c-0.4,1.8-0.8,3.7-1.2,5.5 c-0.1,0.6-0.5,0.9-1.1,0.8s-0.8-0.6-0.6-1.2c0.3-1.1,0.5-2.2,0.8-3.4c0.1-0.5,0.1-0.8-0.3-1.1c-0.4-0.4-0.8-0.9-1.3-1.4 c-0.6,0.7-1.1,1.2-1.6,1.7c-0.3,0.3-0.7,0.5-1.1,0.5c-1.6,0.1-3.2,0-4.8,0c-0.6,0-1.1-0.1-1.2-0.9c0-0.6,0.4-0.9,1.2-0.9 c1,0,2,0,3,0c0.3,0,0.6,0,0.7-0.2c1.2-1.4,2.5-2.8,3.6-4.4c-0.7,0.3-1.4,0.6-2.1,1c-0.2,0.1-0.4,0.2-0.6,0.3 c-0.4,0.2-0.9,0.4-1.2-0.2c-0.3-0.6,0.2-0.9,0.7-1.1c0.8-0.4,1.5-0.7,2.3-1.1c1.1-0.5,2.2-1,3.3-1.6c0.5-0.3,0.9-0.2,1.3,0.2 c0.7,0.7,1.4,1.5,2.2,2.3c0.5-0.5,0.9-1,1.3-1.4c0.2-0.2,0.5-0.5,0.8-0.6c0.2-0.1,0.7-0.1,0.8,0c0.1,0.2,0.1,0.6,0,0.8 c-0.1,0.3-0.4,0.5-0.6,0.7c-0.6,0.6-1.2,1.1-1.7,1.7c-0.6,0.6-0.8,0.6-1.4,0C306.3,109.4,306,109,305.5,108.5z"/>
<path d="M310.2,109.2c-0.1,0.3-0.1,0.5-0.2,0.8c-1.5,3.2-3.1,6.4-4.6,9.5c-0.1,0.2-0.3,0.3-0.6,0.4 C305.1,118.4,309.7,109.3,310.2,109.2z"/>
<path d="M297.8,119.5c-0.4,0.4-0.9,0.2-1.3-0.1c-1.4-1.4-2.8-2.8-4.2-4.2c-0.1-0.1-0.1-0.4-0.1-0.6c0.1,0.1,0.3,0.2,0.4,0.3 c1.1,1.1,2.2,2.3,3.4,3.4C296.5,118.6,297.1,119,297.8,119.5z"/>
<path d="M297.3,110.2c-1.7,0-3.4,0-5.2,0C292.5,109.8,296.6,109.7,297.3,110.2z"/>
<path d="M382.3,119.2c-1.1,1.1-2.4,1.6-3.9,1.6s-2.8-0.5-3.9-1.6c-1.1-1.1-1.6-2.4-1.7-3.9c0-1.5,0.5-2.9,1.6-3.9 c0.3-0.3,0.6-0.5,0.9-0.8l-0.4-0.5l-5.6,3.9c-0.2,1.4-0.6,2.4-1,2.9c-0.4,0.4-0.9,0.6-1.5,0.5c-0.5,0-1.1-0.5-1.7-1.5h-0.8 c-0.3,1.2-0.8,2.1-1.5,2.9c-1.1,1.1-2.4,1.6-4,1.6c-1.6,0-2.9-0.6-3.9-1.6s-1.5-2.3-1.5-3.9c0-1.5,0.5-2.8,1.6-3.9 c0.7-0.7,1.6-1.2,2.6-1.5c1-0.2,2-0.2,3,0.1l1.1-3.4h-1.5v-1h5.2l0.1,0.8c-1.2-0.1-2,0-2.4,0.3c-0.1,0.1-0.2,0.3-0.2,0.4h10.7v-2.2 h-4.4v-1h4.6l0.7-0.3l0.2,1h0.5c-0.3,0.9-0.4,1.8-0.3,2.8l1.9,3c2.2-0.8,4.1-0.4,5.8,1.2c1.1,1.1,1.6,2.3,1.7,3.8 C384,116.6,383.5,118,382.3,119.2z M363.1,115.9h-4.9l0.2-1h0.4l1.4-4.2c-1.7-0.6-3.2-0.2-4.6,1.1c-0.9,0.9-1.3,1.9-1.3,3.2 c0,1.3,0.4,2.3,1.2,3.1s1.9,1.3,3.2,1.3s2.4-0.4,3.2-1.3C362.5,117.4,362.9,116.7,363.1,115.9z M363.2,114.7 c-0.1-1.2-0.5-2.1-1.3-2.9c-0.2-0.2-0.4-0.4-0.7-0.6c-0.2,0.9-0.7,2-1.3,3.5H363.2z M365.9,113.7l-3.5-6.1l-0.8,2.5 c0.4,0.3,0.8,0.6,1.2,0.9c1,1,1.5,2.2,1.5,3.7h0.6L365.9,113.7z M374.6,109.2l-0.7-1.3h-10.4l3.1,5.3l2.2,0.2L374.6,109.2z  M367.1,116.4c0.4,0,0.7-0.1,1-0.4c0.3-0.3,0.4-0.6,0.4-0.9c0-0.4-0.1-0.7-0.4-1c-0.2-0.2-0.5-0.4-0.9-0.4c-0.4,0-0.7,0.1-0.9,0.3 c-0.2,0.3-0.4,0.6-0.4,1c0,0.4,0.1,0.7,0.4,1C366.5,116.3,366.8,116.4,367.1,116.4z M381.6,118.4c0.9-0.9,1.4-2.1,1.3-3.3 c-0.1-1.2-0.5-2.2-1.4-3.1c-1.3-1.3-2.7-1.6-4.4-1l2.1,3.4l-0.5,1.2l-2.8-4c-0.3,0.2-0.5,0.4-0.7,0.6c-0.9,0.9-1.3,1.9-1.3,3.2 c0,1.2,0.5,2.3,1.3,3.1c0.8,0.8,1.9,1.3,3.1,1.3S380.7,119.3,381.6,118.4z"/>
<path fill="#FFFFFF" d="M276.9,166.6h-11.3c-1.2,2.9-2.8,6.7-3.8,9.3h-4.9l12.6-31.9h3.3l12.6,31.9h-4.9L276.9,166.6z M267.4,162.3 h7.8l-3.9-11.1L267.4,162.3z"/>
<path fill="#FFFFFF" d="M286.2,166.4v-22h4.6v22c0,3.5,3.7,5.2,7.1,5.2c3.3,0,7-1.8,7-5.2v-22h4.6v22c0,6.4-6.2,9.7-11.6,9.7 C292.3,176.2,286.2,172.8,286.2,166.4z"/>
<path fill="#FFFFFF" d="M318.8,159.9h5.3c3.8,0,5.7-2.7,5.7-5.5c0-2.7-1.9-5.4-5.7-5.4h-7v26.9h-4.5v-31.5h11.5 c6.8,0,10.2,5,10.2,10c0,4.5-2.7,8.7-8.1,9.6l9.9,11.8h-5.9L318.7,162L318.8,159.9L318.8,159.9z"/>
<path fill="#FFFFFF" d="M341.1,171.3h14.6v4.5h-19.2v-31.4h19.2v4.5h-14.6v8.9h14.3v4.6h-14.3V171.3L341.1,171.3z"/>
<path fill="#FFFFFF" d="M253.6,63.7c6.4,0,9.6,4.9,9.6,9.7s-3.2,9.7-9.6,9.7h-7V63.7H253.6L253.6,63.7z M253.6,80.4 c4.5,0,6.8-3.4,6.8-6.9s-2.3-6.9-6.8-6.9h-4.2v13.8H253.6z"/>
<path fill="#FFFFFF" d="M267.4,80.4h9v2.8h-11.9V63.8h11.9v2.8h-9v5.5h8.8v2.8h-8.8V80.4z"/>
<path fill="#FFFFFF" d="M284.7,63.7c4.2,0,6.3,3.2,6.3,6.5c0,3.3-2.1,6.5-6.3,6.5h-4.3v6.5h-2.8V63.8h7.1V63.7L284.7,63.7z  M284.7,73.9c2.4,0,3.5-1.8,3.5-3.7c0-1.9-1.2-3.7-3.5-3.7h-4.3v7.4H284.7L284.7,73.9z"/>
<path fill="#FFFFFF" d="M294.7,66.4c1.8-1.8,4.3-2.9,7-2.9c2.7,0,5.2,1.1,7,2.9c1.7,1.8,2.9,4.3,2.9,7s-1.1,5.2-2.9,7 s-4.3,2.9-7,2.9c-2.7,0-5.2-1.1-7-2.9c-1.7-1.8-2.9-4.3-2.9-7S292.9,68.2,294.7,66.4z M306.7,68.4c-1.3-1.3-3.1-2.1-5-2.1 c-1.9,0-3.7,0.8-5,2.1c-1.3,1.3-2.1,3.1-2.1,5c0,2,0.8,3.7,2.1,5c1.3,1.3,3.1,2.1,5,2.1c1.9,0,3.7-0.8,5-2.1c1.2-1.3,2.1-3,2.1-5 C308.7,71.4,307.9,69.7,306.7,68.4z"/>
<path fill="#FFFFFF" d="M317.1,73.3h3.3c2.4,0,3.5-1.7,3.5-3.4s-1.2-3.4-3.5-3.4h-4.3v16.6h-2.8V63.7h7.1c4.2,0,6.3,3.1,6.3,6.2 c0,2.7-1.7,5.4-5,5.9l6.1,7.3h-3.6l-7.1-8.5V73.3L317.1,73.3z"/>
<path fill="#FFFFFF" d="M332.8,83.2V66.6h-5.9v-2.8h14.5v2.8h-5.9v16.7h-2.7V83.2z"/>
<path fill="#FFFFFF" d="M345.5,80.4h9v2.8h-11.9V63.8h11.8v2.8h-9v5.5h8.8v2.8h-8.8L345.5,80.4L345.5,80.4z"/>
<path fill="#FFFFFF" d="M366.4,68.7c-0.4-1.7-2.3-2.5-4-2.5c-1.3,0-2.7,0.5-3.5,1.5c-0.4,0.5-0.5,1.1-0.5,1.8c0.1,2,2.3,2.2,4.4,2.4 c2.7,0.3,6,1,6.7,4.1c0.1,0.4,0.1,0.9,0.1,1.3c0,3.7-3.7,5.9-7.2,5.9c-3,0-6.6-1.8-7-5.2v-0.5l2.8-0.1v0.4v-0.1 c0.2,1.8,2.4,2.7,4.2,2.7c2.1,0,4.4-1.2,4.4-3.2c0-0.2,0-0.4-0.1-0.7c-0.3-1.5-2.3-1.7-4.3-1.9c-3-0.3-6.6-1-6.9-5l0,0 c-0.1-1.3,0.2-2.6,1.1-3.7c1.3-1.7,3.6-2.6,5.9-2.6c3,0,6.1,1.6,6.6,5.1L366.4,68.7z"/>
</svg>
