<svg version="1.1" xmlns="http://www.w3.org/2000/svg" xmlns:xlink="http://www.w3.org/1999/xlink" x="0px" y="0px" width="595.301px" height="299px">
<rect x="0.001" fill="#E0E6E4" width="595.3" height="299"/>
	<path fill="#5DCF95" d="M327.401,172c-3.601,2.8-8.101,4.5-13,4.5c-11.601,0-21.001-9.301-21.001-21c0-11.7,9.4-21,21.001-21 c5,0,9.5,1.699,13.1,4.6l-1.7,1.7c-3.2-2.4-7.1-3.9-11.399-3.9c-10.301,0-18.601,8.3-18.601,18.5c0,10.3,8.3,18.5,18.601,18.5 c3.899,0,7.6-1.2,10.6-3.3v-14.3h2.5L327.401,172z"/>
	<path fill="#5DCF95" d="M352.501,135.1c7.1,0,12.3,4.3,12.3,11.1c0,6.301-4.5,10.4-10.7,11L366.201,176h-2.9l-12-18.7h-9.8V176 h-2.4v-40.9H352.501z M352.501,154.899c5.6,0,9.8-3.3,9.8-8.7c0-5.399-4.3-8.699-9.8-8.699h-11v17.399H352.501L352.501,154.899z"/>
	<path fill="#5DCF95" d="M376.801,135.1h2.5V176h-2.5V135.1z"/>
	<path fill="#5DCF95" d="M394.6,135.1l24.801,36.8v-36.8h2.5V176h-2.7l-24.8-36.9V176h-2.5v-40.9H394.6z"/>
	<path d="M305.7,103.3c3.701,0,6.701,2.2,6.701,5.8c0,2.5-1.4,4.2-3.5,5.1c2.699,0.7,4.6,2.801,4.6,5.7c0,3.601-3,6.101-6.7,6.101 h-8.7v-22.7H305.7z M305.6,113.699c3.101,0,5.4-1.6,5.4-4.5c0-2.899-2.4-4.5-5.4-4.5h-6.1v9.101L305.6,113.699z M306.7,124.699 c3.001,0,5.4-1.899,5.4-4.8c0-2.899-2.399-4.8-5.4-4.8h-7.199v9.7L306.7,124.699z"/>
	<path d="M320.1,103.3v21.399h11.801V126h-13.2v-22.7H320.1L320.1,103.3z"/>
	<path d="M346.201,103.3L356.1,126h-1.5l-3.399-7.7h-11.7l-3.4,7.7h-1.5l9.9-22.7H346.201z M345.401,104.899L340.1,117h10.601 L345.401,104.899z"/>
	<path d="M379.201,123.8c-2.101,1.7-4.601,2.6-7.3,2.6c-6.4,0-11.7-5.2-11.7-11.7s5.2-11.699,11.7-11.699c2.8,0,5.3,1,7.3,2.6 l-0.9,0.9c-1.8-1.4-4-2.2-6.3-2.2c-5.7,0-10.3,4.6-10.3,10.3s4.6,10.3,10.3,10.3c2.4,0,4.5-0.8,6.3-2.1L379.201,123.8z"/>
	<path d="M398.1,103.3l-7.6,8.7l9,14h-1.6l-8.301-13l-3.699,4.3v8.7h-1.5v-22.7h1.399v12.1l10.601-12.2L398.1,103.3z"/>
	<path d="M404.301,103.3h1.4V126h-1.4V103.3z"/>
	<path d="M426.301,103.3v1.3h-12.2v8.9h12.101v1.3H414.1v9.899h12.301V126h-13.601v-22.7H426.301L426.301,103.3z"/>
 	<path d="M264.7,89.6h-64.3c-9.2,0-16.6,7.4-16.6,16.6V170.5c0,9.199,7.399,16.6,16.6,16.6h64.3c9.2,0,16.601-7.4,16.601-16.6 	v-64.301C281.2,97,273.801,89.6,264.7,89.6z"/>
	<path opacity="0.8" fill="#83E0B0" d="M219.2,104.1c-22.399,13.6-25.6,49.5-15.8,64.3 C232.301,149.5,219.2,104.1,219.2,104.1z"/>
	<path fill="#83E0B0" d="M247.7,119.3c-26.199,1.399-45.899,31.5-44.399,49.2C237.9,165.399,247.7,119.3,247.7,119.3z"/>
	<path opacity="0.8" fill="#83E0B0" d="M266.9,149.8c-23.1-12.5-55.6,2.7-63.6,18.6 C234.301,184,266.9,149.8,266.9,149.8z"/>
</svg>
