<svg version="1.1" xmlns="http://www.w3.org/2000/svg" xmlns:xlink="http://www.w3.org/1999/xlink" x="0px" y="0px" width="595.301px" height="299px">
<rect x="0.001" fill="#E0E6E4" width="595.3" height="299"/>
	<path fill="#64A986" d="M343.6,147.899h8v12.4c-1,0.5-2,0.8-3.1,1.1s-2.1,0.4-3.2,0.4c-2,0-3.8-0.4-5.5-1.101 c-1.7-0.699-3.2-1.699-4.5-3c-1.3-1.3-2.3-2.699-3-4.399s-1.1-3.4-1.1-5.3c0-1.801,0.399-3.601,1.1-5.301 c0.7-1.699,1.7-3.1,3-4.399s2.7-2.2,4.5-3c1.7-0.7,3.5-1.101,5.5-1.101c1.101,0,2.101,0.101,3.2,0.4s2.1,0.6,3.1,1.1v4.5 c-1.399-0.899-2.5-1.6-3.5-1.899c-0.899-0.3-1.899-0.5-2.8-0.5c-1.3,0-2.6,0.3-3.7,0.8c-1.199,0.5-2.199,1.2-3.1,2.1 c-0.9,0.9-1.6,2-2.1,3.2s-0.801,2.601-0.801,4c0,1.5,0.301,2.8,0.801,4.101c0.5,1.199,1.199,2.3,2.1,3.199 c0.9,0.9,1.9,1.601,3.1,2.101c1.2,0.5,2.4,0.8,3.7,0.8c0.3,0,0.601,0,0.8,0c0.2,0,0.5-0.1,0.801-0.2v-6.3H343.6V147.899 L343.6,147.899L343.6,147.899z"/>
	<path fill="#64A986" d="M357.801,161.399h-4.8v-26.8h4.1c2.5,0,4.5,0.7,6,2.1c1.601,1.4,2.4,3.4,2.4,6.101c0,1.5-0.4,2.899-1.1,4.2 c-0.7,1.3-1.7,2.199-2.801,2.899l4.601,11.5h-4.7l-3.7-9.5V161.399L357.801,161.399L357.801,161.399z M360.901,142.899 c0-1.5-0.301-2.6-0.801-3.3c-0.6-0.7-1.3-1.1-2.199-1.2v8.8c0.899-0.1,1.699-0.5,2.199-1.1 C360.6,145.399,360.901,144.3,360.901,142.899z"/>
	<path fill="#64A986" d="M379.301,134.6v3.1h-7v8.801h7v3.1h-7v8.8h7v3.101h-11.8v-26.9H379.301z"/>
	<path fill="#64A986" d="M392.501,134.6v3.1h-7v8.801h7v3.1h-7v8.8h7v3.101h-11.8v-26.9H392.501z"/>
	<path fill="#64A986" d="M393.901,161.399v-27.2h1.399l8.101,13.7v-13.3h4.399v27.3h-1.399l-7.9-14.2v13.7H393.901L393.901,161.399z "/>
	<path fill="#84E1B2" d="M371.001,78.199c9.9,0,19.2,1.9,27.8,5.601c8.601,3.7,16.2,8.8,22.601,15.1 c6.5,6.3,11.5,13.7,15.199,22.101c3.7,8.399,5.5,17.3,5.5,26.6s-1.8,18.2-5.5,26.6c-3.699,8.4-8.8,15.801-15.199,22.101 c-6.5,6.3-14,11.399-22.601,15.1c-8.6,3.7-17.899,5.601-27.8,5.601s-19.2-1.9-27.8-5.601c-8.601-3.7-16.2-8.8-22.601-15.1 c-6.5-6.3-11.5-13.7-15.2-22.101c-3.7-8.399-5.5-17.3-5.5-26.6s1.8-18.2,5.5-26.6c3.7-8.4,8.801-15.801,15.2-22.101 c6.5-6.3,14-11.399,22.601-15.1C351.801,80.1,361.1,78.199,371.001,78.199z M371.001,96.699c-6.7,0-13,1.301-18.9,3.9 c-5.899,2.6-11.1,6.2-15.6,10.8c-4.4,4.601-8,10.101-10.5,16.3c-2.6,6.301-3.9,13-3.9,20.301c0,7.399,1.301,14.199,3.9,20.5 c2.6,6.3,6.1,11.699,10.5,16.3c4.4,4.6,9.6,8.2,15.6,10.8c5.9,2.6,12.2,3.9,18.9,3.9s13-1.301,18.9-3.9 c5.899-2.6,11.1-6.2,15.6-10.8c4.4-4.601,8-10.101,10.5-16.3c2.6-6.301,3.9-13.101,3.9-20.5c0-7.301-1.301-14-3.9-20.301 c-2.6-6.3-6.1-11.699-10.5-16.3c-4.4-4.6-9.6-8.2-15.6-10.8C384.001,98,377.701,96.699,371.001,96.699z"/>
	<path fill="#84E1B2" d="M423.6,95.8c-5.3-30.2,16.5-39.3,17.5-39.8C443.6,89.199,426.701,96.6,423.6,95.8z"/>
	<path fill="#62D99C" d="M423.6,95.8c10.2-28.9,33.801-26.101,34.9-26C444.301,100,425.901,98,423.6,95.8z"/>
	<path opacity="0.8" fill="#62D99C" d="M423.6,95.8c24.5-18.5,42.601-3.101,43.5-2.4 C438.501,110.6,424.301,98.899,423.6,95.8z"/>
	<path d="M167.7,158.899c-0.1,0-0.199-0.1-0.199-0.2v-22.6c0-0.1,0.1-0.2,0.199-0.2h6.7c2.9,0,5.2,2.3,5.2,5.2 c0,1.3-0.5,2.5-1.3,3.4c2.2,1.399,3.6,3.8,3.6,6.6c0,4.3-3.5,7.8-7.8,7.8H167.7L167.7,158.899z M170.4,138.8v4.5h3.9 c1.2,0,2.2-1,2.2-2.3c0-1.2-1-2.2-2.2-2.2H170.4L170.4,138.8z M170.4,146.3v9.6h3.7c2.6,0,4.8-2.2,4.8-4.8c0-2.7-2.2-4.8-4.8-4.8 H170.4L170.4,146.3z"/>
	<path d="M188.301,135.899c0.1,0,0.2,0.101,0.2,0.2v19.8h11.5c0.1,0,0.199,0.101,0.199,0.2v2.5c0,0.1-0.1,0.2-0.199,0.2h-14.2 c-0.101,0-0.2-0.101-0.2-0.2V136c0-0.101,0.1-0.2,0.2-0.2L188.301,135.899L188.301,135.899z"/>
	<path d="M224.2,158.6L224.2,158.6c0,0.2-0.1,0.2-0.199,0.2H221.2c-0.1,0-0.1,0-0.199-0.101l-3.801-8.5h-7.6 c-1.2,2.9-2.5,5.7-3.7,8.5c0,0.101-0.1,0.101-0.2,0.101h-2.699c-0.2,0-0.301,0-0.301-0.101c0,0,0,0,0.101-0.1l10.399-23.5 c0-0.1,0.101-0.1,0.2-0.1c0,0,0.101,0,0.2,0.1L224.2,158.6z M213.6,141.899c-0.8,1.9-1.6,3.5-2.4,5.5h4.9L213.6,141.899z"/>
	<path d="M234.001,135.899c1,0,4.699,0.5,4.699,1.101v0.1l-1,2.3c0,0.101-0.1,0.101-0.199,0.101H237.4c-1.1-0.5-2.2-0.7-3.399-0.7 c-4.7,0-8.601,3.8-8.601,8.6c0,4.7,3.8,8.601,8.601,8.601c1.399,0,2.8-0.4,3.899-0.9h0.101c0.1,0,0.1,0,0.1,0.1l1.1,2.2v0.2 c0,0,0,0.1-0.1,0.1c-1.6,0.801-3.4,1.301-5.3,1.301c-6.3,0-11.5-5.101-11.5-11.5C222.501,141.1,227.6,135.899,234.001,135.899z"/>
	<path d="M253.501,135.899h3.899c0.101,0,0.2,0.101,0.2,0.2s0,0.1-0.1,0.2l-9,7.6c3.8,5,7.6,9.7,11.399,14.601v0.1 c0,0.1-0.1,0.2-0.2,0.2h-3.199c-0.101,0-0.101,0-0.2-0.101l-10.2-13l-0.3,0.301v12.6c0,0.1-0.101,0.2-0.2,0.2h-2.5 c-0.1,0-0.2-0.101-0.2-0.2v-22.5c0-0.1,0.101-0.2,0.2-0.2h2.5c0.1,0,0.2,0.101,0.2,0.2v6.1L253.501,135.899z"/>
	<path d="M287.1,138.6c0,0.1-0.1,0.2-0.2,0.2h-4.2v19.8c0,0.1-0.1,0.2-0.199,0.2h-2.5c-0.101,0-0.2-0.101-0.2-0.2v-19.8h-4.2 c-0.1,0-0.2-0.101-0.2-0.2v-2.5c0-0.1,0.101-0.2,0.2-0.2h11.3c0.101,0,0.2,0.101,0.2,0.2V138.6L287.1,138.6z"/>
</svg>
