<svg version="1.1" xmlns="http://www.w3.org/2000/svg" xmlns:xlink="http://www.w3.org/1999/xlink" x="0px" y="0px"
	 width="595.301px" height="299px">
		<rect x="0" fill="#ECE899" width="595.301" height="299"/>
	<rect x="32.8" y="84.5" fill="#E8445E" width="259.101" height="129.5"/>
		<circle fill="#E7DDCB" cx="164.5" cy="152.5" r="49.7"/>
		<circle fill="#F4E398" cx="164.5" cy="152.5" r="47.8"/>
		<circle fill="#F2B385" cx="164.5" cy="152.5" r="45.9"/>
			<path fill="#FFFFFF" d="M79.4,106.3c-0.5,0-0.8,0.3-0.8,1v1.1h-1.5v-1c0-1.6,0.8-2.5,2.399-2.5c1.601,0,2.4,0.9,2.4,2.5 c0,3.3-3.4,4.5-3.101,6.2h3v1.4h-4.6v-1.2c0-3,3.1-3.5,3.1-6.4C80.2,106.5,79.9,106.3,79.4,106.3z"/>
			<path fill="#FFFFFF" d="M82.6,107.399c0-1.6,0.899-2.5,2.399-2.5c1.601,0,2.4,0.9,2.4,2.5v5.3c0,1.601-0.9,2.5-2.4,2.5 s-2.399-0.899-2.399-2.5V107.399z M84.2,112.699c0,0.7,0.3,1,0.8,1s0.8-0.3,0.8-1v-5.5c0-0.699-0.3-1-0.8-1s-0.8,0.301-0.8,1 V112.699z"/>
			<path fill="#FFFFFF" d="M88.5,104.899H91c1.601,0,2.4,0.9,2.4,2.5v5.101c0,1.6-0.8,2.5-2.4,2.5h-2.5V104.899z M90.1,106.399v7.2 H91c0.5,0,0.8-0.3,0.8-1v-5.3c0-0.7-0.3-1-0.8-1L90.1,106.399L90.1,106.399z"/>
			<path fill="#FFFFFF" d="M96.9,102.8l-1.5,1.6H94.3l1-1.6H96.9z M94.4,104.899H96V115h-1.6V104.899z"/>
			<path fill="#FFFFFF" d="M102.3,115h-1.6l-0.3-1.801h-1.9L98.2,115h-1.5l1.6-10.101h2.301L102.3,115z M98.6,111.8h1.5 l-0.801-5.101L98.6,111.8z"/>
			<path fill="#FFFFFF" d="M105.1,104.8c1.5,0,2.3,0.899,2.3,2.5v0.3H106v-0.4c0-0.699-0.3-1-0.8-1s-0.8,0.301-0.8,1 c0,2.101,3.1,2.5,3.1,5.4c0,1.6-0.8,2.5-2.399,2.5c-1.601,0-2.4-0.9-2.4-2.5V112h1.5v0.699c0,0.7,0.3,1,0.8,1s0.8-0.3,0.8-1 c0-2.1-3.1-2.5-3.1-5.399C102.8,105.699,103.6,104.8,105.1,104.8z"/>
			<path fill="#FFFFFF" d="M61.9,123.8L64.8,117h1.7v6.8h0.7v1.399h-0.7V127H65v-1.801h-3L61.9,123.8L61.9,123.8z M65,123.8v-3.7 l-1.6,3.7H65z"/>
			<path fill="#FFFFFF" d="M70.3,127.199c-1.6,0-2.5-0.899-2.5-2.5v-0.8c0-1,0.301-1.7,1-2.1c-0.699-0.4-1-1-1-2v-0.3 c0-1.601,0.9-2.5,2.5-2.5c1.601,0,2.5,0.899,2.5,2.5v0.3c0,1-0.3,1.7-1,2c0.7,0.399,1,1.1,1,2.1v0.8 C72.8,126.199,71.9,127.199,70.3,127.199z M69.4,120c0,0.8,0.399,1.1,0.899,1.1s0.9-0.3,0.9-1.1v-0.601c0-0.899-0.4-1.2-0.9-1.2 s-0.899,0.2-0.899,1.2V120z M70.3,125.699c0.5,0,0.9-0.199,0.9-1.1v-1c0-0.8-0.3-1.1-0.9-1.1c-0.6,0-0.899,0.3-0.899,1.1v0.9 C69.4,125.5,69.8,125.699,70.3,125.699z"/>
			<path fill="#FFFFFF" d="M73.6,119.399c0-1.6,0.899-2.5,2.399-2.5c1.601,0,2.4,0.9,2.4,2.5v5.3c0,1.601-0.9,2.5-2.4,2.5 c-1.6,0-2.399-0.899-2.399-2.5V119.399z M75.2,124.699c0,0.7,0.3,1,0.8,1s0.8-0.3,0.8-1v-5.5c0-0.699-0.3-1-0.8-1 s-0.8,0.301-0.8,1V124.699z"/>
			<path fill="#FFFFFF" d="M81,127.1h-1.6V117H81v4.3h1.8V117H84.4v10.1H82.8v-4.3H81V127.1z"/>
			<path fill="#FFFFFF" d="M85.5,119.399c0-1.6,0.9-2.5,2.4-2.5c1.6,0,2.399,0.9,2.399,2.5v5.3c0,1.601-0.899,2.5-2.399,2.5 c-1.601,0-2.4-0.899-2.4-2.5V119.399z M87.1,124.699c0,0.7,0.3,1,0.8,1s0.8-0.3,0.8-1v-5.5c0-0.699-0.3-1-0.8-1s-0.8,0.301-0.8,1 V124.699z"/>
			<path fill="#FFFFFF" d="M94.6,127.1c-0.101-0.3-0.101-0.4-0.101-1.2v-1.6c0-0.9-0.3-1.3-1-1.3H93v4.1h-1.6V117H93.8 c1.601,0,2.4,0.8,2.4,2.3v0.8c0,1-0.3,1.7-1,2c0.8,0.3,1.1,1.1,1.1,2.1v1.601c0,0.5,0,0.899,0.2,1.2L94.6,127.1L94.6,127.1z  M92.9,118.399v3.101h0.6c0.601,0,1-0.301,1-1.101v-1c0-0.7-0.2-1-0.8-1H92.9L92.9,118.399z"/>
			<path fill="#FFFFFF" d="M102.3,127.1h-1.6l-0.3-1.8h-1.9l-0.3,1.8h-1.5l1.6-10.1h2.301L102.3,127.1z M98.6,123.899h1.5 l-0.801-5.1L98.6,123.899z"/>
			<path fill="#FFFFFF" d="M105.1,116.8c1.5,0,2.3,0.899,2.3,2.5v0.3H106v-0.4c0-0.699-0.3-1-0.8-1s-0.8,0.301-0.8,1 c0,2.101,3.1,2.5,3.1,5.4c0,1.6-0.8,2.5-2.399,2.5c-1.601,0-2.4-0.9-2.4-2.5V124h1.5v0.699c0,0.7,0.3,1,0.8,1s0.8-0.3,0.8-1 c0-2.1-3.1-2.5-3.1-5.399C102.8,117.8,103.6,116.8,105.1,116.8z"/>
			<path fill="#FFFFFF" d="M43.4,130.3c-0.5,0-0.8,0.3-0.8,1v1.1h-1.5v-1c0-1.6,0.8-2.5,2.399-2.5c1.601,0,2.4,0.9,2.4,2.5 c0,3.3-3.4,4.5-3.101,6.2h3v1.4h-4.6v-1.2c0-3,3.1-3.5,3.1-6.4C44.3,130.6,43.9,130.3,43.4,130.3z"/>
			<path fill="#FFFFFF" d="M49.1,139.199c-1.601,0-2.5-0.899-2.5-2.5v-0.8c0-1,0.3-1.7,1-2.1c-0.7-0.4-1-1-1-2v-0.3 c0-1.601,0.899-2.5,2.5-2.5c1.6,0,2.5,0.899,2.5,2.5v0.3c0,1-0.301,1.7-1,2c0.699,0.399,1,1.1,1,2.1v0.8 C51.6,138.3,50.7,139.199,49.1,139.199z M48.2,132c0,0.8,0.4,1.1,0.9,1.1S50,132.8,50,132v-0.601c0-0.899-0.399-1.2-0.899-1.2 s-0.9,0.2-0.9,1.2V132z M49.1,137.8c0.5,0,0.899-0.2,0.899-1.101V135.8c0-0.8-0.3-1.101-0.899-1.101 c-0.601,0-0.9,0.301-0.9,1.101v0.899C48.2,137.5,48.6,137.8,49.1,137.8z"/>
			<path fill="#FFFFFF" d="M54.8,139.199c-1.6,0-2.5-0.899-2.5-2.5v-0.8c0-1,0.301-1.7,1-2.1c-0.699-0.4-1-1-1-2v-0.3 c0-1.601,0.9-2.5,2.5-2.5c1.601,0,2.5,0.899,2.5,2.5v0.3c0,1-0.3,1.7-1,2c0.7,0.399,1,1.1,1,2.1v0.8 C57.3,138.3,56.4,139.199,54.8,139.199z M53.9,132c0,0.8,0.399,1.1,0.899,1.1s0.9-0.3,0.9-1.1v-0.601c0-0.899-0.4-1.2-0.9-1.2 s-0.899,0.2-0.899,1.2V132z M54.8,137.8c0.5,0,0.9-0.2,0.9-1.101V135.8c0-0.8-0.3-1.101-0.9-1.101 c-0.6,0-0.899,0.301-0.899,1.101v0.899C53.9,137.5,54.3,137.8,54.8,137.8z"/>
			<path fill="#FFFFFF" d="M58.1,131.399c0-1.6,0.899-2.5,2.399-2.5c1.601,0,2.4,0.9,2.4,2.5v5.3c0,1.601-0.9,2.5-2.4,2.5 c-1.6,0-2.399-0.899-2.399-2.5V131.399z M59.7,136.8c0,0.7,0.3,1,0.8,1s0.8-0.3,0.8-1v-5.5c0-0.7-0.3-1-0.8-1s-0.8,0.3-0.8,1 V136.8z"/>
			<path fill="#FFFFFF" d="M63.8,131.399c0-1.6,0.9-2.5,2.4-2.5c1.6,0,2.4,0.9,2.4,2.5v5.3c0,1.601-0.9,2.5-2.4,2.5 c-1.6,0-2.4-0.899-2.4-2.5V131.399z M65.4,136.8c0,0.7,0.3,1,0.8,1s0.8-0.3,0.8-1v-5.5c0-0.7-0.3-1-0.8-1s-0.8,0.3-0.8,1V136.8z" />
			<path fill="#FFFFFF" d="M73,136.1l1.101-7.2H76.3V139h-1.5v-7.2l-1.1,7.2h-1.5l-1.2-7.101V139H69.6v-10.101H71.8L73,136.1z"/>
			<path fill="#FFFFFF" d="M77.5,129H79.1v10.1H77.5V129z"/>
			<path fill="#FFFFFF" d="M81.6,131.8v7.3h-1.4V129h2l1.6,6v-6h1.4v10.1h-1.6L81.6,131.8z"/>
			<path fill="#FFFFFF" d="M87.9,129v7.8c0,0.7,0.3,1,0.8,1s0.8-0.3,0.8-1V129H91v7.699c0,1.601-0.8,2.5-2.399,2.5 c-1.601,0-2.4-0.899-2.4-2.5V129H87.9z"/>
			<path fill="#FFFFFF" d="M91.7,129h4.9v1.399h-1.7v8.7H93.3v-8.7H91.6L91.7,129L91.7,129z"/>
			<path fill="#FFFFFF" d="M97.1,131.399c0-1.6,0.899-2.5,2.399-2.5s2.4,0.9,2.4,2.5v5.3c0,1.601-0.9,2.5-2.4,2.5 c-1.6,0-2.399-0.899-2.399-2.5V131.399z M98.7,136.8c0,0.7,0.3,1,0.8,1s0.8-0.3,0.8-1v-5.5c0-0.7-0.3-1-0.8-1s-0.8,0.3-0.8,1 V136.8z"/>
			<path fill="#FFFFFF" d="M105.1,128.899c1.5,0,2.3,0.9,2.3,2.5v0.3H106V131.3c0-0.7-0.3-1-0.8-1s-0.8,0.3-0.8,1 c0,2.1,3.1,2.5,3.1,5.399c0,1.601-0.8,2.5-2.399,2.5c-1.601,0-2.4-0.899-2.4-2.5v-0.6h1.5v0.7c0,0.7,0.3,1,0.8,1s0.8-0.3,0.8-1 c0-2.101-3.1-2.5-3.1-5.4C102.8,129.8,103.6,128.899,105.1,128.899z"/>
			<path fill="#FFFFFF" d="M219.3,111.699c-1.6,0-2.5-0.899-2.5-2.5v-0.8c0-1,0.301-1.7,1-2.1c-0.699-0.4-1-1-1-2V104 c0-1.601,0.9-2.5,2.5-2.5c1.601,0,2.5,0.899,2.5,2.5v0.3c0,1-0.3,1.7-1,2c0.7,0.399,1,1.1,1,2.1v0.8 C221.8,110.8,220.9,111.699,219.3,111.699z M218.4,104.5c0,0.8,0.399,1.1,0.899,1.1s0.9-0.3,0.9-1.1v-0.601 c0-0.899-0.4-1.2-0.9-1.2s-0.899,0.2-0.899,1.2V104.5z M219.3,110.3c0.5,0,0.9-0.2,0.9-1.101V108.3c0-0.8-0.3-1.101-0.9-1.101 c-0.6,0-0.899,0.301-0.899,1.101v0.899C218.4,110,218.8,110.3,219.3,110.3z"/>
			<path fill="#FFFFFF" d="M222.7,101.5h2.5c1.6,0,2.4,0.899,2.4,2.5v5.1c0,1.6-0.801,2.5-2.4,2.5h-2.5V101.5z M224.3,102.899v7.2 h0.9c0.5,0,0.8-0.3,0.8-1v-5.3c0-0.7-0.3-1-0.8-1L224.3,102.899L224.3,102.899z"/>
			<path fill="#FFFFFF" d="M231.1,99.399L229.6,101H228.5l1-1.601H231.1z M228.6,101.5h1.6v10.1h-1.6V101.5z"/>
			<path fill="#FFFFFF" d="M236.5,111.6h-1.6l-0.3-1.8h-1.9l-0.3,1.8h-1.5l1.6-10.1h2.3L236.5,111.6z M232.9,108.399h1.5l-0.8-5.1 L232.9,108.399z"/>
			<path fill="#FFFFFF" d="M239.4,101.399c1.5,0,2.3,0.9,2.3,2.5v0.3h-1.5V103.8c0-0.7-0.3-1-0.8-1s-0.8,0.3-0.8,1 c0,2.1,3.1,2.5,3.1,5.399c0,1.601-0.8,2.5-2.4,2.5c-1.6,0-2.399-0.899-2.399-2.5v-0.6h1.5v0.7c0,0.7,0.3,1,0.8,1s0.8-0.3,0.8-1 c0-2.101-3.1-2.5-3.1-5.4C237,102.3,237.8,101.399,239.4,101.399z"/>
			<path fill="#FFFFFF" d="M218,114.8c1.2,0,1.5-0.601,1.7-1.3h1.1v10.1h-1.6v-7.7H218V114.8L218,114.8z"/>
			<path fill="#FFFFFF" d="M227.4,121.1c0,1.7-0.8,2.6-2.4,2.6c-1.6,0-2.399-0.899-2.399-2.5v-0.3h1.5v0.4c0,0.7,0.3,1,0.8,1 c0.6,0,0.899-0.3,0.899-1.2v-1.8c-0.3,0.6-0.8,0.899-1.5,0.899c-1.199,0-1.8-0.8-1.8-2.3v-1.8c0-1.6,0.9-2.5,2.4-2.5 s2.399,0.9,2.399,2.5L227.4,121.1L227.4,121.1L227.4,121.1z M225.8,117.699v-1.8c0-0.7-0.3-1-0.8-1s-0.8,0.3-0.8,1v1.8 c0,0.7,0.3,1,0.8,1C225.5,118.6,225.8,118.399,225.8,117.699z"/>
			<path fill="#FFFFFF" d="M230.8,114.8c-0.5,0-0.8,0.3-0.8,1v1.1h-1.5v-1c0-1.6,0.8-2.5,2.4-2.5c1.6,0,2.399,0.9,2.399,2.5 c0,3.3-3.399,4.5-3.1,6.2h3v1.4h-4.6v-1.2c0-3,3.1-3.5,3.1-6.4C231.6,115.1,231.3,114.8,230.8,114.8z"/>
			<path fill="#FFFFFF" d="M235.7,123.6h-1.6v-10.1h1.6v4.3h1.8v-4.3h1.601v10.1H237.5v-4.3h-1.8V123.6z"/>
			<path fill="#FFFFFF" d="M240.2,115.899c0-1.6,0.9-2.5,2.4-2.5c1.6,0,2.399,0.9,2.399,2.5v5.3c0,1.601-0.899,2.5-2.399,2.5 s-2.4-0.899-2.4-2.5V115.899z M241.8,121.3c0,0.7,0.301,1,0.801,1s0.8-0.3,0.8-1v-5.5c0-0.7-0.3-1-0.8-1s-0.801,0.3-0.801,1 V121.3z"/>
			<path fill="#FFFFFF" d="M249.3,123.6c-0.1-0.3-0.1-0.4-0.1-1.2v-1.6c0-0.9-0.3-1.3-1-1.3h-0.5v4.1H246v-10.1h2.4 c1.6,0,2.399,0.8,2.399,2.3v0.8c0,1-0.3,1.7-1,2c0.801,0.3,1.101,1.1,1.101,2.2v1.6c0,0.5,0,0.9,0.2,1.2H249.3L249.3,123.6 L249.3,123.6z M247.6,115v3.1h0.6c0.6,0,1-0.3,1-1.1v-1c0-0.7-0.2-1-0.8-1H247.6L247.6,115z"/>
			<path fill="#FFFFFF" d="M257,123.6h-1.6l-0.3-1.8h-1.9l-0.3,1.8h-1.5l1.6-10.1h2.3L257,123.6z M253.3,120.399h1.5l-0.8-5.1 L253.3,120.399z"/>
			<path fill="#FFFFFF" d="M259.8,113.399c1.5,0,2.301,0.9,2.301,2.5v0.3h-1.5V115.8c0-0.7-0.301-1-0.801-1s-0.8,0.3-0.8,1 c0,2.1,3.101,2.5,3.101,5.399c0,1.601-0.801,2.5-2.4,2.5s-2.4-0.899-2.4-2.5v-0.6h1.5v0.7c0,0.7,0.301,1,0.801,1s0.8-0.3,0.8-1 c0-2.101-3.101-2.5-3.101-5.4C257.5,114.3,258.3,113.399,259.8,113.399z"/>
			<path fill="#FFFFFF" d="M218,126.8c1.2,0,1.5-0.601,1.7-1.3h1.1v10.1h-1.6v-7.7H218V126.8L218,126.8z"/>
			<path fill="#FFFFFF" d="M223.7,126.8c1.2,0,1.5-0.601,1.7-1.3h1.1v10.1h-1.6v-7.7h-1.2V126.8L223.7,126.8z"/>
			<path fill="#FFFFFF" d="M229.9,132.399v0.9c0,0.7,0.3,1,0.8,1s0.8-0.3,0.8-1v-2.2c0-0.7-0.3-1-0.8-1s-0.8,0.3-0.8,1v0.3h-1.5 l0.3-5.899h4.2v1.399h-2.8L230,129.3c0.3-0.5,0.8-0.7,1.4-0.7c1.2,0,1.8,0.8,1.8,2.3v2.3c0,1.601-0.8,2.5-2.4,2.5 c-1.6,0-2.399-0.899-2.399-2.5v-0.8H229.9L229.9,132.399z"/>
			<path fill="#FFFFFF" d="M236.5,126.899c-0.5,0-0.8,0.3-0.8,1V129h-1.5v-1c0-1.601,0.8-2.5,2.4-2.5c1.6,0,2.399,0.899,2.399,2.5 c0,3.3-3.399,4.5-3.1,6.199h3v1.4H234.3v-1.2c0-3,3.101-3.5,3.101-6.399C237.3,127.1,237,126.899,236.5,126.899z"/>
			<path fill="#FFFFFF" d="M239.7,128c0-1.601,0.9-2.5,2.4-2.5c1.6,0,2.399,0.899,2.399,2.5v5.3c0,1.6-0.899,2.5-2.399,2.5 c-1.601,0-2.4-0.9-2.4-2.5V128z M241.3,133.3c0,0.7,0.301,1,0.801,1s0.8-0.3,0.8-1v-5.5c0-0.7-0.3-1-0.8-1s-0.801,0.3-0.801,1 V133.3z"/>
			<path fill="#FFFFFF" d="M248.9,132.699l1.1-7.199h2.2v10.1h-1.5v-7.2l-1.1,7.2h-1.5l-1.2-7.1v7.1h-1.4v-10.1h2.2L248.9,132.699z" />
			<path fill="#FFFFFF" d="M253.4,125.5h1.6v10.1h-1.6V125.5z"/>
			<path fill="#FFFFFF" d="M257.5,128.3v7.3H256.1v-10.1h2l1.6,6v-6h1.4v10.1H259.5L257.5,128.3z"/>
			<path fill="#FFFFFF" d="M263.8,125.5v7.8c0,0.7,0.301,1,0.801,1s0.8-0.3,0.8-1v-7.8h1.5v7.699c0,1.601-0.8,2.5-2.4,2.5 c-1.6,0-2.399-0.899-2.399-2.5V125.5H263.8z"/>
			<path fill="#FFFFFF" d="M267.6,125.5h4.899v1.399h-1.7v8.7h-1.6v-8.7h-1.7L267.6,125.5L267.6,125.5z"/>
			<path fill="#FFFFFF" d="M273,128c0-1.601,0.9-2.5,2.4-2.5c1.6,0,2.399,0.899,2.399,2.5v5.3c0,1.6-0.899,2.5-2.399,2.5 c-1.601,0-2.4-0.9-2.4-2.5V128z M274.6,133.3c0,0.7,0.3,1,0.8,1s0.8-0.3,0.8-1v-5.5c0-0.7-0.3-1-0.8-1s-0.8,0.3-0.8,1V133.3z"/>
			<path fill="#FFFFFF" d="M281,125.399c1.5,0,2.3,0.9,2.3,2.5v0.3h-1.5V127.8c0-0.7-0.3-1-0.8-1s-0.8,0.3-0.8,1 c0,2.1,3.1,2.5,3.1,5.399c0,1.601-0.8,2.5-2.399,2.5c-1.601,0-2.4-0.899-2.4-2.5v-0.6h1.5v0.7c0,0.7,0.3,1,0.8,1 s0.801-0.3,0.801-1c0-2.101-3.101-2.5-3.101-5.4C278.7,126.3,279.5,125.399,281,125.399z"/>
			<path fill="#FFFFFF" d="M228.1,173.3c0-1.601,0.899-2.5,2.399-2.5c1.601,0,2.4,0.899,2.4,2.5v5.3c0,0.6-0.101,1-0.3,1.4 c0.1,0.199,0.199,0.199,0.399,0.199h0.101v1.4H233c-0.7,0-1.2-0.3-1.399-0.7c-0.301,0.101-0.7,0.2-1.101,0.2 c-1.6,0-2.399-0.9-2.399-2.5V173.3L228.1,173.3z M229.7,178.699c0,0.7,0.3,1,0.8,1s0.8-0.3,0.8-1v-5.5c0-0.699-0.3-1-0.8-1 s-0.8,0.301-0.8,1V178.699z"/>
			<path fill="#FFFFFF" d="M235.5,170.899v7.8c0,0.7,0.3,1,0.8,1s0.801-0.3,0.801-1v-7.8h1.5v7.7c0,1.6-0.801,2.5-2.4,2.5 s-2.4-0.9-2.4-2.5v-7.7H235.5z"/>
			<path fill="#FFFFFF" d="M239.7,170.899h1.6V181h-1.6V170.899z"/>
			<path fill="#FFFFFF" d="M244,175.1h2.2v1.4H244v3h2.7v1.399h-4.3v-10.1h4.3v1.399H244V175.1z"/>
			<path fill="#FFFFFF" d="M251.1,181C251,180.699,251,180.6,251,179.8v-1.601c0-0.899-0.3-1.3-1-1.3h-0.5V181h-1.6v-10.101h2.399 c1.601,0,2.4,0.8,2.4,2.3V174c0,1-0.3,1.699-1,2c0.8,0.3,1.1,1.1,1.1,2.1v1.6c0,0.5,0,0.9,0.2,1.2L251.1,181L251.1,181z  M249.3,172.3v3.1h0.601c0.6,0,1-0.3,1-1.1v-1c0-0.7-0.2-1-0.8-1H249.3L249.3,172.3z"/>
			<path fill="#FFFFFF" d="M255.1,175.1h2.199v1.4H255.1v3h2.699v1.399h-4.3v-10.1h4.3v1.399H255.1V175.1L255.1,175.1z"/>
			<path fill="#FFFFFF" d="M258.4,170.899h4.899v1.4H261.6v8.7H260v-8.7h-1.7L258.4,170.899L258.4,170.899z"/>
			<path fill="#FFFFFF" d="M265.6,175.1h2.199v1.4H265.6v3h2.699v1.399H264v-10.1h4.3v1.399H265.6V175.1L265.6,175.1z"/>
			<path fill="#FFFFFF" d="M229.7,189.699l-2-6.8h1.7l1.2,4.601l1.199-4.601h1.5l-2,6.8V193h-1.6V189.699L229.7,189.699z"/>
			<path fill="#FFFFFF" d="M237.6,185.699V193h-1.4v-10.101h2l1.6,6v-6h1.4V193h-1.6L237.6,185.699z"/>
			<path fill="#FFFFFF" d="M242.2,185.3c0-1.601,0.9-2.5,2.4-2.5c1.6,0,2.399,0.899,2.399,2.5v5.3c0,1.6-0.899,2.5-2.399,2.5 c-1.601,0-2.4-0.9-2.4-2.5V185.3z M243.8,190.699c0,0.7,0.301,1,0.801,1s0.8-0.3,0.8-1v-5.5c0-0.699-0.3-1-0.8-1 s-0.801,0.301-0.801,1V190.699z"/>
			<path fill="#FFFFFF" d="M250.3,182.899h1.601v8.7h2.6v1.4h-4.2V182.899L250.3,182.899z"/>
			<path fill="#FFFFFF" d="M255.1,185.3c0-1.601,0.899-2.5,2.399-2.5s2.4,0.899,2.4,2.5v5.3c0,1.6-0.9,2.5-2.4,2.5 c-1.6,0-2.399-0.9-2.399-2.5V185.3L255.1,185.3z M256.7,190.699c0,0.7,0.3,1,0.8,1s0.8-0.3,0.8-1v-5.5c0-0.699-0.3-1-0.8-1 s-0.8,0.301-0.8,1V190.699z"/>
			<path fill="#FFFFFF" d="M232.8,201.3v1.3c0,1.6-0.8,2.5-2.399,2.5c-1.601,0-2.4-0.9-2.4-2.5v-5.3c0-1.601,0.8-2.5,2.4-2.5 c1.6,0,2.399,0.899,2.399,2.5v1h-1.5v-1.101c0-0.699-0.3-1-0.8-1s-0.8,0.301-0.8,1v5.5c0,0.7,0.3,1,0.8,1s0.8-0.3,0.8-1V201.3 H232.8z"/>
			<path fill="#FFFFFF" d="M235.4,199.199h2.2v1.4h-2.2v3h2.7v1.4H233.8v-10.101h4.301v1.4h-2.7V199.199L235.4,199.199z"/>
			<path fill="#FFFFFF" d="M239.1,194.899h1.6v8.7h2.6v1.4H239.1V194.899L239.1,194.899z"/>
			<path fill="#FFFFFF" d="M245.6,199.199h2.199v1.4H245.6v3h2.699v1.4H244v-10.101h4.3v1.4H245.6V199.199z"/>
			<path fill="#FFFFFF" d="M254.1,197.3v0.399c0,1-0.301,1.7-1,2c0.899,0.301,1.199,1.101,1.199,2.2v0.8c0,1.601-0.8,2.4-2.399,2.4 h-2.5V195h2.399C253.4,194.899,254.1,195.699,254.1,197.3z M250.9,196.399v2.7h0.6c0.601,0,1-0.3,1-1.1v-0.601c0-0.7-0.2-1-0.8-1 H250.9L250.9,196.399z M250.9,200.5v3.1h0.899c0.5,0,0.801-0.2,0.801-1v-0.9c0-0.899-0.301-1.199-1-1.199H250.9L250.9,200.5z"/>
			<path fill="#FFFFFF" d="M258.5,205c-0.1-0.301-0.1-0.4-0.1-1.2v-1.601c0-0.899-0.3-1.3-1-1.3h-0.5V205H255.3v-10.101h2.4 c1.6,0,2.4,0.8,2.4,2.3V198c0,1-0.301,1.699-1,2c0.8,0.3,1.1,1.1,1.1,2.1v1.6c0,0.5,0,0.9,0.2,1.2L258.5,205L258.5,205z  M256.8,196.399v3.101h0.601c0.6,0,1-0.301,1-1.101v-1c0-0.7-0.2-1-0.8-1H256.8L256.8,196.399z"/>
			<path fill="#FFFFFF" d="M262.6,199.199h2.199v1.4H262.6v3h2.699v1.4H261v-10.101h4.3v1.4H262.6V199.199L262.6,199.199z"/>
			<path fill="#FFFFFF" d="M268.4,194.8c1.5,0,2.3,0.899,2.3,2.5v0.3h-1.5v-0.4c0-0.699-0.3-1-0.8-1s-0.8,0.301-0.8,1 c0,2.101,3.1,2.5,3.1,5.4c0,1.6-0.8,2.5-2.4,2.5c-1.6,0-2.399-0.9-2.399-2.5V202h1.5v0.699c0,0.7,0.3,1,0.8,1s0.8-0.3,0.8-1 c0-2.1-3.1-2.5-3.1-5.399C266.1,195.8,266.9,194.8,268.4,194.8z"/>
		<path fill="#E43F1D" d="M164.2,154.6c0,0,44.9,6.8,45.1,7.5c0.101,0.6-2,7.6-3.8,11.3C205.2,173.899,164.2,154.6,164.2,154.6z"/>
			<path fill="#1D1D1B" d="M126.5,160.8h4.9v1.399h-1.7v8.7h-1.6v-8.7h-1.7L126.5,160.8L126.5,160.8z"/>
			<path fill="#1D1D1B" d="M135.4,170.899c-0.101-0.3-0.101-0.399-0.101-1.2v-1.6c0-0.9-0.3-1.3-1-1.3h-0.5v4.1h-1.6v-10.1h2.4 c1.6,0,2.399,0.8,2.399,2.3v0.8c0,1-0.3,1.7-1,2c0.8,0.3,1.101,1.101,1.101,2.101v1.6c0,0.5,0,0.9,0.199,1.2L135.4,170.899 L135.4,170.899z M133.7,162.199v3.101h0.6c0.601,0,1-0.3,1-1.101v-1c0-0.699-0.199-1-0.8-1H133.7L133.7,162.199z"/>
			<path fill="#1D1D1B" d="M143,170.899h-1.6l-0.3-1.8h-1.9l-0.3,1.8h-1.5l1.6-10.1h2.3L143,170.899z M139.4,167.699h1.5l-0.8-5.1 L139.4,167.699z"/>
			<path fill="#1D1D1B" d="M148.5,163.1v0.4c0,1-0.3,1.699-1,2c0.9,0.3,1.2,1.1,1.2,2.199v0.801c0,1.6-0.8,2.399-2.4,2.399h-2.5 v-10.1h2.4C147.8,160.8,148.5,161.6,148.5,163.1z M145.3,162.199v2.7h0.601c0.6,0,1-0.3,1-1.1v-0.601c0-0.699-0.2-1-0.8-1H145.3 L145.3,162.199L145.3,162.199z M145.3,166.3v3.1h0.9c0.5,0,0.8-0.2,0.8-1v-0.8c0-0.9-0.3-1.2-1-1.2L145.3,166.3L145.3,166.3z"/>
			<path fill="#1D1D1B" d="M154.7,170.899h-1.6l-0.301-1.8H150.9l-0.3,1.8h-1.5l1.6-10.1h2.3L154.7,170.899z M151.1,167.699h1.5 l-0.801-5.1L151.1,167.699z"/>
			<path fill="#1D1D1B" d="M155,169.399c0.2,0,0.4,0,0.5,0c0.5,0,0.9-0.2,0.9-1v-7.7h1.6v7.601c0,2-1.1,2.5-2.3,2.5 c-0.3,0-0.5,0-0.8,0L155,169.399L155,169.399z"/>
			<path fill="#1D1D1B" d="M164.3,170.899h-1.6l-0.3-1.8h-1.9l-0.3,1.8h-1.5l1.6-10.1h2.301L164.3,170.899z M160.7,167.699h1.5 l-0.8-5.1L160.7,167.699z"/>
			<path fill="#1D1D1B" d="M168.4,170.899c-0.101-0.3-0.101-0.399-0.101-1.2v-1.6c0-0.9-0.3-1.3-1-1.3h-0.5v4.1H165v-10.1h2.4 c1.6,0,2.399,0.8,2.399,2.3v0.8c0,1-0.3,1.7-1,2c0.801,0.3,1.101,1.101,1.101,2.101v1.6c0,0.5,0,0.9,0.2,1.2L168.4,170.899 L168.4,170.899z M166.6,162.199v3.101h0.6c0.6,0,1-0.3,1-1.101v-1c0-0.699-0.2-1-0.8-1H166.6L166.6,162.199z"/>

		<path fill="#EB711F" d="M209.3,162.1c7-34-22.199-56.7-45.1-55.5v48L209.3,162.1z"/>
			<path fill="#1D1D1B" d="M169,140.3l-0.2-3.7v-4.2h1.601v4.2l-0.2,3.7H169z M170.3,141v1.5h-1.5V141H170.3z"/>
			<path fill="#1D1D1B" d="M173.1,136.899h2v1.4h-2v4.2H171.5v-10.101h4.2v1.4h-2.6V136.899L173.1,136.899z"/>
			<path fill="#1D1D1B" d="M176.5,132.399h1.601V142.5H176.5V132.399z"/>
			<path fill="#1D1D1B" d="M180.8,136.6h2.2v1.4h-2.2v3h2.7v1.399h-4.3v-10.1h4.3v1.399h-2.7V136.6z"/>
			<path fill="#1D1D1B" d="M186.7,132.3c1.5,0,2.3,0.899,2.3,2.5v0.3h-1.5v-0.4c0-0.699-0.3-1-0.8-1s-0.8,0.301-0.8,1 c0,2.101,3.1,2.5,3.1,5.4c0,1.6-0.8,2.5-2.399,2.5c-1.601,0-2.4-0.9-2.4-2.5v-0.6h1.5v0.699c0,0.7,0.3,1,0.8,1s0.8-0.3,0.8-1 c0-2.1-3.1-2.5-3.1-5.399C184.3,133.199,185.1,132.3,186.7,132.3z"/>
			<path fill="#1D1D1B" d="M189.5,132.399h4.9v1.4h-1.7v8.7h-1.6v-8.7h-1.7L189.5,132.399L189.5,132.399z"/>
			<path fill="#1D1D1B" d="M199.6,142.5H198l-0.3-1.801h-1.9l-0.3,1.801H194l1.601-10.101h2.3L199.6,142.5z M196,139.3h1.5 l-0.8-5.101L196,139.3z"/>
			<path fill="#1D1D1B" d="M201.8,134.6l0.2,3.6v4.2h-1.6v-4.2l0.2-3.6H201.8z M200.4,133.899v-1.5h1.5v1.5H200.4z"/>
			<path fill="#FFFFFF" d="M184.4,158.6l0.1-0.3l0.5,0.2l-0.1,0.3c0.399,0.2,0.5,0.6,0.3,1.1V160l-0.6-0.2v-0.2 c0.1-0.3,0-0.4-0.2-0.5s-0.3,0-0.4,0.3c-0.2,0.8,0.9,1.2,0.601,2.2c-0.2,0.5-0.5,0.8-0.9,0.7l-0.1,0.3l-0.5-0.1l0.1-0.301 c-0.4-0.199-0.5-0.6-0.4-1.1l0.101-0.3l0.6,0.2l-0.1,0.3c-0.101,0.3,0,0.399,0.2,0.5c0.199,0.1,0.3,0,0.399-0.3 	c0.2-0.801-0.899-1.2-0.6-2.2C183.6,158.8,183.9,158.6,184.4,158.6z"/>
			<path fill="#FFFFFF" d="M186.6,163.399l-0.601-0.2l0.101-0.699l-0.7-0.2l-0.3,0.6l-0.5-0.2l1.8-3.6l0.899,0.3L186.6,163.399z M185.7,161.8l0.6,0.2l0.301-2L185.7,161.8z"/>
			<path fill="#FFFFFF" d="M188.3,161l-0.899,2.699l-0.5-0.199l1.2-3.801l0.699,0.2l-0.1,2.4l0.7-2.2l0.5,0.2l-1.2,3.8l-0.6-0.2 L188.3,161z"/>
			<path fill="#FFFFFF" d="M191.1,164.1l1.399-2.9l0.5,0.2L191.2,165l-0.9-0.301l0.601-3.899l0.6,0.2L191.1,164.1z"/> <path fill="#FFFFFF" d="M194,165.699l-0.6-0.199l0.1-0.7l-0.7-0.2l-0.3,0.6L192,165l1.8-3.601l0.9,0.3L194,165.699z M193,164.1 l0.601,0.2l0.3-2L193,164.1z"/>
			<path fill="#E43F1D" d="M195.4,162.1l0.6,0.2l-1,3.2l1,0.3l-0.2,0.5l-1.6-0.5L195.4,162.1z"/>
			<path fill="#FFFFFF" d="M196.7,164L196.7,164l0.3-0.5c0.2-0.601,0.601-0.9,1.2-0.7s0.8,0.6,0.6,1.2l-0.1,0.3l-0.6-0.2l0.1-0.3 c0.1-0.3,0-0.4-0.2-0.5c-0.2-0.101-0.3,0-0.399,0.3l-0.2,0.6l0.8,0.301l-0.1,0.3l-0.801-0.3l-0.1,0.3l0.8,0.3l-0.1,0.3l-0.8-0.3 l-0.2,0.6c-0.101,0.301,0,0.4,0.2,0.5c0.199,0.101,0.3,0,0.399-0.3l0.101-0.3l0.6,0.2l-0.1,0.3c-0.2,0.6-0.601,0.9-1.2,0.7 c-0.601-0.2-0.8-0.601-0.601-1.2l0.2-0.5h-0.2l0.101-0.3h0.1l0.101-0.3H196.5L196.7,164z"/>
			<path fill="#FFFFFF" d="M199.6,164.5l-0.9,2.699L198.2,167l1.2-3.801l0.7,0.2L200,165.8l0.7-2.2l0.5,0.2l-1.2,3.7l-0.6-0.2 L199.6,164.5z"/>
			<path fill="#FFFFFF" d="M201.5,164l1.8,0.6l-0.199,0.5l-0.601-0.2l-1,3.2l-0.6-0.2l1-3.2L201.3,164.5L201.5,164z"/> <path fill="#FFFFFF" d="M203.6,164.6l0.6,0.2l-1.2,3.8l-0.6-0.2L203.6,164.6z"/>
			<path fill="#FFFFFF" d="M204.8,166.1l-0.899,2.7l-0.5-0.2l1.2-3.8l0.699,0.2l-0.1,2.399l0.7-2.2l0.5,0.2l-1.2,3.8L204.6,169 L204.8,166.1z"/>
			<path fill="#FFFFFF" d="M194.8,164.199l0.4,0.101c0-0.4-0.2-0.7,0-1.4c0.2-0.6,0.6-0.899,1.2-0.7c0.6,0.2,0.8,0.601,0.6,1.2 l-0.1,0.4l-0.601-0.2l0.101-0.4c0.1-0.3,0-0.399-0.2-0.5c-0.2-0.1-0.3,0-0.4,0.301c-0.199,0.699,0,1-0.1,1.399l0.7,0.2 l-0.101,0.5l-0.6-0.2c-0.1,0.3-0.3,0.4-0.5,0.5l1,0.3l-0.2,0.5l-1.8-0.6l0.2-0.5c0.3,0.1,0.6-0.1,0.7-0.5l-0.4-0.1 L194.8,164.199z"/>
		<line fill="none" stroke="#1D1D1B" x1="148.3" y1="158.5" x2="109.9" y2="120.1"/>
		<line fill="none" stroke="#1D1D1B" x1="185.4" y1="124.5" x2="217.6" y2="114"/>
		<line fill="none" stroke="#1D1D1B" x1="207" y1="168.399" x2="226.2" y2="187.6"/>
	<rect x="303.5" y="84.5" fill="#8CCED9" width="259.101" height="129.5"/>
			<path fill="#FFFFFF" d="M380.9,131.5c7.101,0,12.9,5.8,12.9,13c0,7.199-5.7,13-12.8,13c-7.101,0-12.9-5.801-12.9-13 C368.1,137.399,373.801,131.5,380.9,131.5z M381.001,152.3c3.899,0,7.199-3.5,7.199-7.7s-3.3-7.8-7.199-7.8c-4,0-7.2,3.5-7.2,7.8 C373.7,148.8,377.001,152.3,381.001,152.3z"/>
			<path fill="#FFFFFF" d="M404.4,157.5l-11-25.601h5.7l5.3,13.9l5.3-13.9h5.7L404.4,157.5z"/>
			<path fill="#FFFFFF" d="M418.1,132h15.5v5.199h-10.1v3.601h9.6v5.2h-9.6v5.899h10.3v5.3h-15.7V132L418.1,132z"/>
			<path fill="#FFFFFF" d="M500.7,143.699c1.5,1,2.9,3.101,2.9,5.601c0,4.2-3.4,7.8-7.7,7.8h-10V132h9.8c4,0,7.2,3.199,7.2,7.3 C502.9,141.199,501.7,143,500.7,143.699z M491.2,141.6h3.9c1.3,0,2.3-1,2.3-2.3s-1-2.3-2.3-2.3h-3.9V141.6z M495.2,152.1 c1.601,0,2.9-1.3,2.9-2.9c0-1.6-1.3-2.899-2.9-2.899h-4.1v5.7L495.2,152.1L495.2,152.1z"/>
			<path fill="#FFFFFF" d="M507.4,132h15.5v5.199h-10.1v3.601h9.6v5.2h-9.6v5.899h10.2v5.3h-15.7L507.4,132L507.4,132z"/>
			<path fill="#FFFFFF" d="M542.2,147.899c2.9,2.2,3.5,4.7,3.5,7.3v1.9h-5.399v-1.9c0-2.699-1.8-4.8-4.5-4.8h-3.3v6.8h-5.4v-25.1 h9.3c5.1,0,9.3,4.2,9.3,9.3C545.7,144.6,544.001,146.399,542.2,147.899z M535.9,136.899h-3.399v8.601h3.399 c2.4,0,4.3-1.9,4.3-4.301C540.2,138.899,538.2,136.899,535.9,136.899z"/>
			<path fill="#FFFFFF" d="M395.801,162.3h1v1.2h0.8v-1.2h1v3.399h-1V164.5h-0.8v1.199h-1V162.3z"/>
			<path fill="#FFFFFF" d="M399.9,163.3h-0.7v-1h2.4v1h-0.7v2.399h-1V163.3L399.9,163.3z"/>
			<path fill="#FFFFFF" d="M402.6,163.3h-0.7v-1h2.4v1h-0.7v2.399h-1V163.3L402.6,163.3z"/>
			<path fill="#FFFFFF" d="M406.4,164.699h-0.5v1h-1V162.3h1.5c0.7,0,1.2,0.5,1.2,1.2C407.6,164.1,407.1,164.699,406.4,164.699z M406.301,163.199h-0.4v0.601h0.4c0.2,0,0.3-0.101,0.3-0.3C406.6,163.3,406.4,163.199,406.301,163.199z"/>
			<path fill="#FFFFFF" d="M408.6,162.3c0.3,0,0.6,0.3,0.6,0.6s-0.3,0.601-0.6,0.601s-0.6-0.301-0.6-0.601 S408.301,162.3,408.6,162.3z M408.6,164.5c0.3,0,0.6,0.3,0.6,0.6s-0.3,0.6-0.6,0.6s-0.6-0.3-0.6-0.6S408.301,164.5,408.6,164.5z" />
			<path fill="#FFFFFF" d="M413.2,160.6l-2.699,6.1l-0.9-0.399l2.7-6.2L413.2,160.6z"/>
			<path fill="#FFFFFF" d="M417.1,160.6l-2.7,6.1l-0.899-0.399l2.699-6.2L417.1,160.6z"/>
			<path fill="#FFFFFF" d="M417.6,162.3h2.2v0.899h-1.2v0.301h1.1v0.899h-1.1v0.4h1.2v0.899h-2.2V162.3L417.6,162.3z"/>
			<path fill="#FFFFFF" d="M421.7,163.5c0.601,0,1.101,0.5,1.101,1.1s-0.5,1.1-1.101,1.1h-1.3V164.8h1.2c0.1,0,0.2-0.101,0.2-0.2 s-0.101-0.2-0.2-0.2h-0.3c-0.601,0-1.101-0.5-1.101-1.1c0-0.601,0.5-1.101,1.101-1.101h1.1v0.9h-1.1 c-0.101,0-0.101,0.1-0.101,0.1l0.101,0.101L421.7,163.5L421.7,163.5z"/>
			<path fill="#FFFFFF" d="M423.6,164.5c0.3,0,0.6,0.3,0.6,0.6s-0.3,0.6-0.6,0.6s-0.6-0.3-0.6-0.6S423.301,164.5,423.6,164.5z"/>
			<path fill="#FFFFFF" d="M426.6,165.8l-0.7-1.2l-0.2,1.1h-1l0.7-3.5l1.101,1.9l1.1-1.9l0.7,3.5h-1l-0.2-1.1L426.6,165.8z"/>
			<path fill="#FFFFFF" d="M428.7,164c0-1,0.801-1.801,1.801-1.801s1.8,0.801,1.8,1.801s-0.8,1.8-1.8,1.8S428.7,165,428.7,164z M429.7,164c0,0.399,0.301,0.8,0.7,0.8c0.4,0,0.7-0.4,0.7-0.8c0-0.4-0.3-0.801-0.7-0.801C430.1,163.199,429.7,163.6,429.7,164z"/>
			<path fill="#FFFFFF" d="M433.801,163.699l0.5-1.399h1l-1.601,3.5l-1.6-3.5h1L433.801,163.699z"/>
			<path fill="#FFFFFF" d="M435.7,162.3h2.2v0.899h-1.2v0.301h1.101v0.899H436.7v0.4h1.2v0.899h-2.2V162.3L435.7,162.3z"/>
			<path fill="#FFFFFF" d="M440.1,165.8l-0.7-1.2l-0.2,1.1h-1l0.8-3.5l1.101,1.9l1.1-1.9l0.7,3.5h-1l-0.2-1.1L440.1,165.8z"/>
			<path fill="#FFFFFF" d="M445.001,163.899c0.199,0.2,0.3,0.4,0.3,0.7c0,0.6-0.5,1.1-1.101,1.1h-1.7V162.3h1.601c0.5,0,1,0.399,1,1 C445.2,163.5,445.1,163.699,445.001,163.899z M443.501,163.6h0.5c0.1,0,0.199-0.1,0.199-0.2c0-0.1-0.1-0.2-0.199-0.2h-0.5V163.6z M444.001,164.8c0.1,0,0.199-0.101,0.199-0.2s-0.1-0.2-0.199-0.2h-0.5v0.4H444.001L444.001,164.8z"/>
			<path fill="#FFFFFF" d="M445.801,162.3h2.2v0.899h-1.2v0.301h1.1v0.899h-1.1v0.4h1.2v0.899h-2.2V162.3L445.801,162.3z"/>
			<path fill="#FFFFFF" d="M449.6,164.899v0.8h-1V162.3h1.4c0.699,0,1.3,0.6,1.3,1.3c0,0.4-0.2,0.7-0.4,0.9 c0.3,0.199,0.4,0.399,0.4,0.8v0.399h-1v-0.3c0-0.3-0.2-0.5-0.5-0.5H449.6L449.6,164.899z M449.801,163.199h-0.3V164h0.3 c0.2,0,0.399-0.2,0.399-0.4S450.1,163.199,449.801,163.199z"/>
			<path fill="#FFFFFF" d="M452.301,164.5c0.3,0,0.6,0.3,0.6,0.6s-0.3,0.6-0.6,0.6c-0.301,0-0.601-0.3-0.601-0.6 S452.001,164.5,452.301,164.5z"/>
			<path fill="#FFFFFF" d="M455.2,164.8c0.301,0,0.5-0.101,0.7-0.3v1.199c-0.3,0.101-0.5,0.101-0.7,0.101c-1,0-1.8-0.8-1.8-1.8 s0.8-1.801,1.8-1.801c0.2,0,0.4,0,0.7,0.101v1.2c-0.2-0.2-0.399-0.301-0.7-0.301c-0.399,0-0.699,0.301-0.699,0.801 S454.801,164.8,455.2,164.8z"/>
			<path fill="#FFFFFF" d="M456.2,164c0-1,0.801-1.801,1.801-1.801s1.8,0.801,1.8,1.801s-0.8,1.8-1.8,1.8S456.2,165,456.2,164z M457.301,164c0,0.399,0.3,0.8,0.8,0.8s0.7-0.4,0.7-0.8c0-0.4-0.3-0.801-0.7-0.801C457.6,163.199,457.301,163.6,457.301,164z"/>
			<path fill="#FFFFFF" d="M461.801,165.8l-0.7-1.2l-0.2,1.1h-1l0.7-3.5l1.1,1.9l1.101-1.9l0.8,3.5h-1l-0.2-1.1L461.801,165.8z"/>
			<path fill="#FFFFFF" d="M467.6,160.6l-2.7,6.1l-0.899-0.399l2.699-6.2L467.6,160.6z"/>
			<rect x="318.6" y="163.699" fill="#1D1D1B" width="71.9" height="0.7"/>
			<rect x="471.6" y="163.699" fill="#1D1D1B" width="76" height="0.7"/>
		<path fill="#FFFFFF" d="M437.301,140.6c0,0,2.399,5.3,7.2,4.9c4.5-1.601,2-5,10.3-6.2c1.7-0.601,5.2,2,5.2,2s2.399-2.4,5.8-2.101 c3.8-0.199,8.7,6.4,9.7,6.101c1.1-0.3,4.3,0.399,7.199-4.7c2.5,10.8-8.6,11.5-8.6,11.5h-3.3c0,0-5.4-0.4-11-4 c-5.601,3.3-10.601,4-10.601,4s-0.8,0-3.899,0C434.301,150.5,437.301,140.6,437.301,140.6z"/>
		<path fill="#FFFFFF" d="M319.6,140.6c0,0,2.4,5.3,7.2,4.9c4.5-1.601,2-5,10.3-6.2c1.7-0.601,5.2,2,5.2,2s2.399-2.4,5.8-2.101 c3.8-0.199,8.7,6.4,9.7,6.101c1.1-0.3,4.3,0.399,7.2-4.7c2.5,10.8-8.601,11.5-8.601,11.5h-3.3c0,0-5.4-0.4-11-4 c-5.6,3.3-10.6,4-10.6,4s-0.801,0-3.9,0C316.6,150.5,319.6,140.6,319.6,140.6z"/>
</svg>
