<svg version="1.1" xmlns="http://www.w3.org/2000/svg" xmlns:xlink="http://www.w3.org/1999/xlink" x="0px" y="0px"
	 width="319.6px" height="241.4px">
	<path fill="#BDC3C7" d="M319.6,237.5c0,2.2-2.4,4-5.4,4H5.4c-3,0-5.4-1.8-5.4-4V4c0-2.2,2.4-4,5.4-4h308.8c3,0,5.4,1.8,5.4,4V237.5z"/>
	<path fill="#FEE470" d="M319.6,238.9c0,1.4-2.4,2.6-5.4,2.6H5.4c-3,0-5.4-1.1-5.4-2.6V88.1c0-1.4,2.4-2.6,5.4-2.6h308.8 c3,0,5.4,1.1,5.4,2.6V238.9z"/>
	<rect x="0" y="23.5" fill="#FEE470" width="319.6" height="111.1"/>
	<circle fill="#E74C3C" cx="5.7" cy="4.7" r="2.3"/>
	<circle fill="#F1C40F" cx="13.4" cy="4.7" r="2.3"/>
	<circle fill="#2ECC71" cx="21.1" cy="4.7" r="2.3"/>
	<rect x="0" y="10.3" fill="#7F8C8D" width="319.6" height="13.2"/>
	<rect x="4.1" y="12.9" fill="#95A5A6" width="18.5" height="8"/>
	<rect x="26.1" y="12.9" fill="#95A5A6" width="24.6" height="8"/>
	<rect x="267.1" y="12.9" fill="#95A5A6" width="24.6" height="8"/>
	<rect x="295.1" y="12.9" fill="#95A5A6" width="20.8" height="8"/>
	<rect x="55.9" y="12.9" fill="#FFFFFF" width="205.9" height="8"/>
	<text transform="matrix(1 0 0 1 23.0676 126.6494)" font-family="'ArialMT'" font-size="5.8968">/* ==========================================================================</text>
	<text transform="matrix(1 0 0 1 117.0515 133.7256)" font-family="'ArialMT'" font-size="5.8968">   HTML5 display definitions</text>
	<text transform="matrix(1 0 0 1 20.6106 140.8018)" font-family="'ArialMT'" font-size="5.8968">   ========================================================================== */</text>
	<text transform="matrix(1 0 0 1 150.1526 154.9541)" font-family="'ArialMT'" font-size="5.8968">/**</text>
	<text transform="matrix(1 0 0 1 70.3425 162.0303)" font-family="'ArialMT'" font-size="5.8968"> * Correct `block` display not defined in IE 6/7/8/9 and Firefox 3.</text>
	<text transform="matrix(1 0 0 1 150.4817 169.1064)" font-family="'ArialMT'" font-size="5.8968"> */</text>
	<text transform="matrix(1 0 0 1 144.5828 183.2588)" font-family="'ArialMT'" font-size="5.8968">article,</text>
	<text transform="matrix(1 0 0 1 145.3997 190.334)" font-family="'ArialMT'" font-size="5.8968">aside,</text>
	<text transform="matrix(1 0 0 1 143.9246 197.4102)" font-family="'ArialMT'" font-size="5.8968">details,</text>
	<text transform="matrix(1 0 0 1 139.8264 204.4863)" font-family="'ArialMT'" font-size="5.8968">figcaption,</text>
	<text transform="matrix(1 0 0 1 145.0725 211.5625)" font-family="'ArialMT'" font-size="5.8968">figure,</text>
	<text transform="matrix(1 0 0 1 144.9084 218.6387)" font-family="'ArialMT'" font-size="5.8968">footer,</text>
	<text transform="matrix(1 0 0 1 143.2678 225.7148)" font-family="'ArialMT'" font-size="5.8968">header,</text>
	<text transform="matrix(1 0 0 1 143.2678 232.791)" font-family="'ArialMT'" font-size="5.8968">hgroup,</text>
	<text transform="matrix(1 0 0 1 146.0579 239.8672)" font-family="'ArialMT'" font-size="5.8968">main,</text>
	<title>HTML5 Logo</title>
	<polygon fill="#E44D26" points="76.4,109.5 72.1,61 119.6,61 115.3,109.5 95.8,114.9"/>
	<polygon fill="#F16529" points="95.8,110.7 111.6,106.4 115.3,64.9 95.8,64.9"/>
	<polygon fill="#EBEBEB" points="95.8,82.9 88,82.9 87.4,76.8 95.8,76.8 95.8,70.9 95.8,70.9 80.9,70.9 81.1,72.5 82.5,88.9 95.8,88.9"/>
	<polygon fill="#EBEBEB" points="95.8,98.4 95.8,98.4 89.2,96.6 88.8,91.9 85.6,91.9 82.8,91.9 83.6,101.2 95.8,104.6 95.8,104.6"/>
	<path d="M76.5,47.8h3v3h2.8v-3h3v9h-3v-3h-2.8v3h-3V47.8L76.5,47.8z"/>
	<path d="M89.3,50.8h-2.7v-3H95v3h-2.7v6h-3V50.8L89.3,50.8z"/>
	<path d="M96.3,47.8h3.2l1.9,3.2l1.9-3.2h3.2v9h-3v-4.5l-2.1,3.2h-0.1l-2.1-3.2v4.5h-3L96.3,47.8L96.3,47.8z"/>
	<path d="M108,47.8h3v6.1h4.2v3H108V47.8z"/>
	<polygon fill="#FFFFFF" points="95.8,82.9 95.8,88.9 103.1,88.9 102.5,96.6 95.8,98.4 95.8,104.6 108,101.2 108.1,100.2 109.5,84.5 109.7,82.9 108.1,82.9"/>
	<polygon fill="#FFFFFF" points="95.8,70.9 95.8,74.6 95.8,76.8 95.8,76.8 110.2,76.8 110.2,76.8 110.2,76.8 110.3,75.5 110.6,72.5 110.7,70.9"/>
			<path id="Shape" fill="#131313" d="M249.2,47.6h-4.3l4.4,4.8v2.3h-9.2V52h4.4l-4.4-4.8v-2.3h9V47.6L249.2,47.6z M238.4,47.6h-4.3 l4.4,4.8v2.3h-9.2V52h4.4l-4.4-4.8v-2.3h9V47.6L238.4,47.6z M227.7,47.7H223v4.2h4.6v2.8h-7.9v-9.8h7.9V47.7L227.7,47.7z"/>
			<path id="Shape_1_" fill="#1572B6" d="M213.5,111.8l-4.7-52.6h51.5l-4.7,52.6l-21.1,5.9L213.5,111.8z"/>
			<path id="Shape_2_" fill="#33A9DC" d="M234.5,113.2l17.1-4.7l4-44.9h-21.1L234.5,113.2L234.5,113.2z"/>
			<g id="Group" transform="translate(55.000000, 142.000000)">
			<path id="Shape_3_" fill="#FFFFFF" d="M179.5-59.4h8.5l0.6-6.6h-9.1v-6.5h0h16.2l-0.2,1.7L194-53h-14.4L179.5-59.4L179.5-59.4z"/>
			<path id="Shape_4_" fill="#EBEBEB" d="M179.6-42.7L179.6-42.7l-7.2-1.9l-0.5-5.1h-3.5h-3l0.9,10.1l13.2,3.7l0,0V-42.7z"/>
			<path id="Shape_5_" fill="#FFFFFF" d="M187.5-53.2l-0.8,8.6l-7.2,1.9v6.7l13.2-3.7l0.1-1.1l1.1-12.5L187.5-53.2L187.5-53.2z"/>
			<path id="Shape_6_" fill="#EBEBEB" d="M179.6-72.5v4v2.4v0H164h0l-0.1-1.4l-0.3-3.3l-0.2-1.7H179.6z"/>
			<path id="Shape_7_" fill="#EBEBEB" d="M179.5-59.4v4v2.4v0h-7.1h0l-0.1-1.5l-0.3-3.3l-0.2-1.7H179.5z"/>
			</g>

</svg>
