<svg version="1.1" xmlns="http://www.w3.org/2000/svg" xmlns:xlink="http://www.w3.org/1999/xlink" x="0px" y="0px" width="595.301px" height="299px">
<rect x="0.001" fill="#E0E6E4" width="595.3" height="299"/>
<polygon fill="#1BAEC4" points="319.501,141.8 348.1,141.8 333.401,156.899 340.1,156.899 317.001,183.6 323.701,164.3  313.901,164.3"/>
<path fill="#098BA5" d="M313.901,138.6h36.899c0,0,0-1,0-15.3c-0.5-18.2-32-26.101-36.899,0"/>
<path fill="#EDF0EE" d="M322.6,129.3h19.301c0,0,0,4.1,0-5.601c-1.601-9.399-17.4-10.1-19.301,0 C322.6,134.1,322.6,129.3,322.6,129.3z"/>
<path fill="#085E79" d="M373.6,145.5h-4.1v-4.101h-8.2v4.101h-4.1v-12.301c0-1.1,0.2-2.199,0.6-3.199c0.4-1,1-1.9,1.8-2.601 c0.7-0.7,1.601-1.3,2.601-1.8c1-0.4,2.1-0.6,3.2-0.6c1.1,0,2.199,0.199,3.199,0.6s1.9,1,2.601,1.8c0.7,0.7,1.3,1.601,1.8,2.601 c0.4,1,0.6,2.1,0.6,3.199V145.5L373.6,145.5z M369.501,137.3v-4.101c0-0.6-0.1-1.1-0.3-1.6s-0.5-0.9-0.9-1.3 c-0.399-0.4-0.8-0.7-1.3-0.9s-1-0.3-1.6-0.3c-0.601,0-1.101,0.1-1.601,0.3s-0.899,0.5-1.3,0.9c-0.4,0.399-0.7,0.8-0.9,1.3 c-0.199,0.5-0.3,1-0.3,1.6v4.101H369.501z"/>
<path fill="#085E79" d="M381.301,145.5h-4.1V125h8.2c0.8,0,1.5,0.1,2.199,0.3c0.7,0.2,1.301,0.5,2,0.8c0.7,0.3,1.2,0.8,1.7,1.3 s0.9,1.101,1.3,1.7c0.4,0.6,0.601,1.3,0.801,2c0.199,0.7,0.3,1.4,0.3,2.2c0,0.7-0.101,1.399-0.3,2.1c-0.2,0.7-0.4,1.3-0.801,1.9 c-0.3,0.6-0.699,1.2-1.199,1.7s-1,0.899-1.601,1.3l2.3,5.399h-4.399l-1.8-4.1h-4.601V145.5L381.301,145.5z M381.301,129.1v8.2 h4.101c0.6,0,1.1-0.101,1.6-0.3c0.5-0.2,0.9-0.5,1.3-0.9c0.4-0.4,0.7-0.8,0.9-1.3s0.3-1,0.3-1.601c0-0.6-0.101-1.1-0.3-1.6 c-0.2-0.5-0.5-0.9-0.9-1.3c-0.399-0.4-0.8-0.7-1.3-0.9s-1-0.3-1.6-0.3H381.301L381.301,129.1z"/>
<path fill="#085E79" d="M412.401,145.5h-4.101v-4.101h-8.2v4.101h-4.1v-12.301c0-1.1,0.2-2.199,0.6-3.199c0.4-1,1-1.9,1.8-2.601 c0.7-0.7,1.601-1.3,2.601-1.8c1-0.4,2.1-0.6,3.2-0.6c1.1,0,2.2,0.199,3.2,0.6s1.899,1,2.6,1.8c0.7,0.7,1.3,1.601,1.8,2.601 c0.4,1,0.601,2.1,0.601,3.199V145.5L412.401,145.5z M408.301,137.3v-4.101c0-0.6-0.1-1.1-0.3-1.6s-0.5-0.9-0.9-1.3 c-0.399-0.4-0.8-0.7-1.3-0.9s-1-0.3-1.6-0.3c-0.601,0-1.101,0.1-1.601,0.3s-0.899,0.5-1.3,0.9c-0.399,0.399-0.7,0.8-0.899,1.3 c-0.2,0.5-0.301,1-0.301,1.6v4.101H408.301z"/>
<path fill="#085E79" d="M432.301,143.399c-1,0.8-2,1.4-3.2,1.9c-1.2,0.399-2.399,0.7-3.7,0.7c-1,0-1.899-0.101-2.8-0.4 c-0.899-0.3-1.7-0.6-2.5-1.1s-1.5-1-2.1-1.7c-0.601-0.7-1.2-1.4-1.7-2.101c-0.5-0.8-0.8-1.6-1.1-2.5c-0.301-0.899-0.4-1.8-0.4-2.8 s0.1-1.899,0.4-2.8c0.3-0.9,0.6-1.7,1.1-2.5s1-1.5,1.7-2.1c0.6-0.601,1.399-1.2,2.1-1.7c0.8-0.5,1.601-0.8,2.5-1.101 c0.9-0.3,1.8-0.399,2.8-0.399c1.301,0,2.5,0.2,3.7,0.7c1.2,0.399,2.2,1.1,3.2,1.899l-2.1,3.601c-0.601-0.601-1.3-1.101-2.101-1.5 c-0.8-0.4-1.7-0.5-2.6-0.5c-0.9,0-1.7,0.199-2.5,0.5c-0.8,0.3-1.5,0.8-2.101,1.399c-0.6,0.601-1.1,1.3-1.399,2.101 c-0.3,0.8-0.5,1.6-0.5,2.5c0,0.899,0.2,1.8,0.5,2.5c0.3,0.8,0.8,1.5,1.399,2.1c0.601,0.6,1.301,1.1,2.101,1.4 c0.8,0.3,1.6,0.5,2.5,0.5c0.5,0,1-0.101,1.5-0.2c0.5-0.101,0.899-0.3,1.399-0.5v-5.8h4L432.301,143.399L432.301,143.399z"/>
<path fill="#085E79" d="M455.6,135.3c0,1-0.1,1.899-0.399,2.8s-0.601,1.7-1.101,2.5s-1,1.5-1.699,2.2c-0.601,0.6-1.4,1.2-2.101,1.7 c-0.8,0.5-1.6,0.8-2.5,1.1c-0.899,0.3-1.8,0.4-2.8,0.4s-1.9-0.101-2.8-0.4c-0.9-0.3-1.7-0.6-2.5-1.1s-1.5-1-2.2-1.7 c-0.6-0.601-1.2-1.4-1.7-2.2s-0.8-1.6-1.1-2.5c-0.301-0.9-0.4-1.8-0.4-2.8s0.101-1.9,0.4-2.8c0.3-0.9,0.6-1.7,1.1-2.5 c0.5-0.801,1-1.5,1.7-2.101c0.6-0.6,1.4-1.2,2.2-1.7s1.6-0.8,2.5-1.1c0.899-0.3,1.8-0.4,2.8-0.4s1.9,0.101,2.8,0.4 c0.9,0.3,1.7,0.6,2.5,1.1s1.5,1,2.101,1.7c0.6,0.601,1.199,1.4,1.699,2.101c0.5,0.8,0.801,1.6,1.101,2.5 C455.401,133.399,455.6,134.3,455.6,135.3z M451.501,135.3c0-0.9-0.2-1.7-0.5-2.5s-0.8-1.5-1.4-2.101c-0.6-0.6-1.3-1.1-2.1-1.399 s-1.6-0.5-2.5-0.5s-1.8,0.2-2.5,0.5c-0.8,0.3-1.5,0.8-2.1,1.399c-0.601,0.601-1.101,1.301-1.4,2.101s-0.5,1.6-0.5,2.5 c0,0.899,0.2,1.7,0.5,2.5s0.8,1.5,1.4,2.1c0.6,0.601,1.3,1.101,2.1,1.4s1.6,0.5,2.5,0.5s1.7-0.2,2.5-0.5s1.5-0.8,2.1-1.4 c0.601-0.6,1-1.3,1.4-2.1C451.301,137,451.501,136.199,451.501,135.3z M445.1,123.5l-1.6-2.101l4.2-4l2.3,3L445.1,123.5z"/>
<path fill="#085E79" d="M474.6,145.5h-4.399l-7.9-13.5v13.5h-4.1V125h4.399l7.9,13.5V125h4.1V145.5z"/>
<path fill="#085E79" d="M125.001,145.5H110.9V125h14.101v4.1h-9.9v4.1h6.7v4.101h-6.7v4.1h9.9V145.5z"/>
<path fill="#085E79" d="M142.2,145.5h-14.399V125h4.1v16.399h10.2L142.2,145.5L142.2,145.5z"/>
<path fill="#085E79" d="M158.4,145.5h-14.1V125h14.1v4.1h-9.899v4.1h6.699v4.101h-6.699v4.1h9.899V145.5z"/>
<path fill="#085E79" d="M177.1,143.399c-1,0.8-2,1.4-3.2,1.9c-1.2,0.399-2.399,0.7-3.7,0.7c-1,0-1.899-0.101-2.8-0.4 c-0.899-0.3-1.7-0.6-2.5-1.1s-1.5-1-2.2-1.7c-0.6-0.601-1.199-1.4-1.699-2.2s-0.801-1.6-1.101-2.5s-0.399-1.8-0.399-2.8 s0.1-1.9,0.399-2.8c0.3-0.9,0.601-1.801,1.101-2.5c0.5-0.801,1-1.5,1.699-2.2c0.601-0.601,1.4-1.2,2.2-1.7s1.601-0.8,2.5-1.1 c0.9-0.301,1.8-0.4,2.8-0.4c1.301,0,2.5,0.2,3.7,0.6c1.2,0.4,2.2,1.101,3.2,1.9l-2.2,3.6c-0.6-0.6-1.3-1.1-2.1-1.5 c-0.8-0.3-1.7-0.5-2.601-0.5c-0.899,0-1.8,0.2-2.5,0.5c-0.8,0.301-1.5,0.801-2.1,1.4s-1.1,1.3-1.4,2.1 c-0.3,0.801-0.5,1.601-0.5,2.5c0,0.9,0.2,1.7,0.5,2.5c0.301,0.801,0.801,1.5,1.4,2.101c0.6,0.6,1.3,1.1,2.1,1.399 c0.801,0.301,1.601,0.5,2.5,0.5c0.9,0,1.801-0.199,2.601-0.5c0.8-0.3,1.5-0.8,2.1-1.5L177.1,143.399z"/>
<path fill="#085E79" d="M188.1,145.5h-4.1v-16.4h-6.2V125H194.2v4.1h-6.1V145.5L188.1,145.5z"/>
<path fill="#085E79" d="M200.501,145.5H196.4V125h8.2c0.8,0,1.5,0.1,2.2,0.3s1.3,0.5,2,0.8s1.2,0.8,1.7,1.3s0.899,1.101,1.3,1.7 c0.399,0.6,0.6,1.3,0.8,2s0.3,1.4,0.3,2.2c0,0.7-0.1,1.399-0.3,2.1s-0.4,1.3-0.8,1.9c-0.3,0.6-0.7,1.2-1.2,1.7s-1,0.899-1.6,1.3 l2.3,5.399h-4.4l-1.8-4.1h-4.6V145.5L200.501,145.5z M200.501,129.1v8.2h4.1c0.6,0,1.1-0.101,1.6-0.3c0.5-0.2,0.9-0.5,1.301-0.9 c0.399-0.4,0.699-0.8,0.899-1.3s0.3-1,0.3-1.601c0-0.6-0.1-1.1-0.3-1.6s-0.5-0.9-0.899-1.3c-0.4-0.4-0.801-0.7-1.301-0.9 s-1-0.3-1.6-0.3H200.501L200.501,129.1z"/>
<path fill="#085E79" d="M219.6,145.5h-4.1V125h4.1V145.5z"/>
<path fill="#085E79" d="M239.801,143.399c-1,0.8-2,1.4-3.2,1.9c-1.2,0.399-2.4,0.7-3.7,0.7c-1,0-1.899-0.101-2.8-0.4 s-1.7-0.6-2.5-1.1s-1.5-1-2.2-1.7c-0.6-0.601-1.2-1.4-1.7-2.2s-0.8-1.6-1.1-2.5s-0.4-1.8-0.4-2.8s0.101-1.9,0.4-2.8 c0.3-0.9,0.6-1.801,1.1-2.5c0.5-0.801,1-1.5,1.7-2.2c0.601-0.601,1.4-1.2,2.2-1.7s1.6-0.8,2.5-1.1c0.9-0.301,1.8-0.4,2.8-0.4 c1.3,0,2.5,0.2,3.7,0.6c1.2,0.4,2.2,1.101,3.2,1.9l-2.2,3.6c-0.6-0.6-1.3-1.1-2.1-1.5c-0.801-0.3-1.7-0.5-2.601-0.5 c-0.899,0-1.8,0.2-2.5,0.5c-0.8,0.301-1.5,0.801-2.1,1.4c-0.601,0.6-1.101,1.3-1.4,2.1c-0.3,0.801-0.5,1.601-0.5,2.5 c0,0.9,0.2,1.7,0.5,2.5c0.3,0.801,0.8,1.5,1.4,2.101c0.6,0.6,1.3,1.1,2.1,1.399c0.8,0.301,1.601,0.5,2.5,0.5 c0.9,0,1.8-0.199,2.601-0.5c0.8-0.3,1.5-0.8,2.1-1.5L239.801,143.399z"/>
<path fill="#085E79" d="M246.301,145.5H242.2V125h4.101V145.5z"/>
<path fill="#085E79" d="M266.501,135.199c0,0.9-0.101,1.9-0.4,2.7c-0.2,0.9-0.6,1.7-1,2.4c-0.4,0.8-1,1.399-1.6,2.1 C262.9,143,262.2,143.6,261.4,144c-0.8,0.399-1.6,0.8-2.5,1c-0.899,0.199-1.8,0.399-2.7,0.399h-6.199v-20.5h6.199 c0.9,0,1.9,0.101,2.7,0.4c0.9,0.2,1.7,0.6,2.5,1c0.8,0.399,1.5,1,2.101,1.6c0.6,0.601,1.199,1.3,1.6,2.101c0.4,0.8,0.8,1.6,1,2.399 C266.4,133.399,266.501,134.3,266.501,135.199z M262.4,135.199c0-0.8-0.2-1.6-0.5-2.399c-0.3-0.7-0.8-1.4-1.3-2 c-0.6-0.601-1.2-1-2-1.3c-0.7-0.301-1.5-0.5-2.4-0.5h-2v12.3h2c0.801,0,1.601-0.2,2.4-0.5c0.7-0.3,1.4-0.8,2-1.3s1-1.2,1.3-2 C262.2,136.899,262.4,136.1,262.4,135.199z"/>
<path fill="#085E79" d="M285.4,145.5h-4.1v-4.101h-8.2v4.101h-4.1v-12.301c0-1.1,0.199-2.199,0.6-3.199s1-1.9,1.8-2.601 c0.7-0.7,1.601-1.3,2.601-1.8c1-0.4,2.1-0.6,3.199-0.6c1.101,0,2.2,0.199,3.2,0.6s1.9,1,2.601,1.8c0.699,0.7,1.3,1.601,1.8,2.601 c0.399,1,0.6,2.1,0.6,3.199V145.5L285.4,145.5z M281.301,137.3v-4.101c0-0.6-0.101-1.1-0.3-1.6c-0.2-0.5-0.5-0.9-0.9-1.3 c-0.4-0.4-0.8-0.7-1.3-0.9s-1-0.3-1.601-0.3c-0.6,0-1.1,0.1-1.6,0.3s-0.9,0.5-1.3,0.9c-0.4,0.399-0.7,0.8-0.9,1.3 c-0.199,0.5-0.3,1-0.3,1.6v4.101H281.301z"/>
<path fill="#085E79" d="M305.4,135.199c0,0.9-0.1,1.9-0.399,2.7c-0.301,0.8-0.601,1.7-1,2.4c-0.4,0.8-1,1.399-1.601,2.1 c-0.6,0.601-1.3,1.2-2.1,1.601c-0.8,0.399-1.601,0.8-2.5,1c-0.9,0.199-1.8,0.399-2.7,0.399h-6.2v-20.5h6.2c0.9,0,1.9,0.101,2.7,0.4 c0.899,0.2,1.7,0.6,2.5,1c0.8,0.399,1.5,1,2.1,1.6c0.601,0.601,1.2,1.3,1.601,2.101c0.5,0.8,0.8,1.6,1,2.399 C305.2,133.399,305.4,134.3,305.4,135.199z M301.301,135.199c0-0.8-0.2-1.6-0.5-2.399c-0.3-0.7-0.8-1.4-1.3-2 c-0.601-0.601-1.2-1-2-1.3c-0.801-0.301-1.5-0.5-2.4-0.5h-2v12.3h2c0.8,0,1.6-0.2,2.4-0.5c0.8-0.3,1.399-0.8,2-1.3 c0.6-0.601,1-1.2,1.3-2C301.1,136.899,301.301,136.1,301.301,135.199z"/>
</svg>
