<svg version="1.1" xmlns="http://www.w3.org/2000/svg" xmlns:xlink="http://www.w3.org/1999/xlink" x="0px" y="0px" width="538.6px" height="270.6px">
<rect x="-0.2" y="-0.2" fill="#77BACF" width="539" height="271"/>
<polygon fill="#C6A233" points="295.3,26.4 288,39 280.7,26.4"/>
<polygon fill="#E9D9A5" points="273.4,39 266.1,51.6 258.8,39"/>
<polygon fill="#DBC06C" points="266.1,51.6 273.4,39 280.7,51.6"/>
<polygon fill="#D2AC2E" points="288,39 280.7,51.6 273.4,39"/>
<polygon fill="#CFA92E" points="280.7,51.6 288,39 295.3,51.6"/>
<polygon fill="#D2AC2E" points="302.6,39 295.3,51.6 288,39"/>
<polygon fill="#DCC170" points="295.3,51.6 302.6,39 309.8,51.6"/>
<polygon fill="#EADAA9" points="317.1,39 309.8,51.6 302.6,39"/>
<polygon fill="#E0C259" points="266.1,51.6 258.8,64.3 251.5,51.6"/>
<polygon fill="#DAB83D" points="258.8,64.3 266.1,51.6 273.4,64.3"/>
<polygon fill="#E0BC30" points="280.7,51.6 273.4,64.3 266.1,51.6"/>
<polygon fill="#DCB72E" points="273.4,64.3 280.7,51.6 288,64.3"/>
<polygon fill="#E0BC31" points="295.3,51.6 288,64.3 280.7,51.6"/>
<polygon fill="#DCB72E" points="288,64.3 295.3,51.6 302.6,64.3"/>
<polygon fill="#E0BC30" points="309.8,51.6 302.6,64.3 295.3,51.6"/>
<polygon fill="#DBBA40" points="302.6,64.3 309.8,51.6 317.1,64.3"/>
<polygon fill="#E3C55D" points="324.4,51.6 317.1,64.3 309.8,51.6"/>
<polygon fill="#ECDEAC" points="236.9,76.9 244.2,64.3 251.5,76.9"/>
<polygon fill="#E1BF39" points="258.8,64.3 251.5,76.9 244.2,64.3"/>
<polygon fill="#E1BF38" points="251.5,76.9 258.8,64.3 266.1,76.9"/>
<polygon fill="#E3C347" points="273.4,64.3 266.1,76.9 258.8,64.3"/>
<polygon fill="#E3C243" points="266.1,76.9 273.4,64.3 280.7,76.9"/>
<polygon fill="#E4C550" points="288,64.3 280.7,76.9 273.4,64.3"/>
<polygon fill="#E3C347" points="280.7,76.9 288,64.3 295.3,76.9"/>
<polygon fill="#E3C552" points="302.6,64.3 295.3,76.9 288,64.3"/>
<polygon fill="#E3C241" points="295.3,76.9 302.6,64.3 309.8,76.9"/>
<polygon fill="#E3C347" points="317.1,64.3 309.8,76.9 302.6,64.3"/>
<polygon fill="#E1BF36" points="309.8,76.9 317.1,64.3 324.4,76.9"/>
<polygon fill="#E1BF39" points="331.7,64.3 324.4,76.9 317.1,64.3"/>
<polygon fill="#EDDFB0" points="324.4,76.9 331.7,64.3 339,76.9"/>
<polygon fill="#EBD896" points="236.9,76.9 229.6,89.5 222.3,76.9"/>
<polygon fill="#E6CA66" points="229.6,89.5 236.9,76.9 244.2,89.5"/>
<polygon fill="#E3C449" points="251.5,76.9 244.2,89.5 236.9,76.9"/>
<polygon fill="#E3C44C" points="244.2,89.5 251.5,76.9 258.8,89.5"/>
<polygon fill="#E5CA5E" points="266.1,76.9 258.8,89.5 251.5,76.9"/>
<polygon fill="#E5CA5D" points="258.8,89.5 266.1,76.9 273.4,89.5"/>
<polygon fill="#E8D06F" points="280.7,76.9 273.4,89.5 266.1,76.9"/>
<polygon fill="#E6CD68" points="273.4,89.5 280.7,76.9 288,89.5"/>
<polygon fill="#C3B872" points="295.3,76.9 288,89.5 280.7,76.9"/>
<polygon fill="#708168" points="288,89.5 295.3,76.9 302.6,89.5"/>
<polygon fill="#537466" points="309.8,76.9 302.6,89.5 295.3,76.9"/>
<polygon fill="#CDB95F" points="302.6,89.5 309.8,76.9 317.1,89.5"/>
<polygon fill="#CEBA60" points="324.4,76.9 317.1,89.5 309.8,76.9"/>
<polygon fill="#E3C44A" points="317.1,89.5 324.4,76.9 331.7,89.5"/>
<polygon fill="#E3C347" points="339,76.9 331.7,89.5 324.4,76.9"/>
<polygon fill="#E6CA68" points="331.7,89.5 339,76.9 346.3,89.5"/>
<polygon fill="#EBD99B" points="353.6,76.9 346.3,89.5 339,76.9"/>
<polygon fill="#E3C349" points="229.6,89.5 222.3,102.2 215,89.5"/>
<polygon fill="#E3C244" points="222.3,102.2 229.6,89.5 236.9,102.2"/>
<polygon fill="#E4C653" points="244.2,89.5 236.9,102.2 229.6,89.5"/>
<polygon fill="#E5C95B" points="236.9,102.2 244.2,89.5 251.5,102.2"/>
<polygon fill="#C5974B" points="258.8,89.5 251.5,102.2 244.2,89.5"/>
<polygon fill="#BA8742" points="251.5,102.2 258.8,89.5 266.1,102.2"/>
<polygon fill="#CCAB64" points="273.4,89.5 266.1,102.2 258.8,89.5"/>
<polygon fill="#E9D683" points="266.1,102.2 273.4,89.5 280.7,102.2"/>
<polygon fill="#E6D78E" points="288,89.5 280.7,102.2 273.4,89.5"/>
<polygon fill="#8E9979" points="280.7,102.2 288,89.5 295.3,102.2"/>
<polygon fill="#436E68" points="302.6,89.5 295.3,102.2 288,89.5"/>
<polygon fill="#3E6C64" points="295.3,102.2 302.6,89.5 309.8,102.2"/>
<polygon fill="#3A675F" points="317.1,89.5 309.8,102.2 302.6,89.5"/>
<polygon fill="#4C6B5C" points="309.8,102.2 317.1,89.5 324.4,102.2"/>
<polygon fill="#4A6656" points="331.7,89.5 324.4,102.2 317.1,89.5"/>
<polygon fill="#CDB75A" points="324.4,102.2 331.7,89.5 339,102.2"/>
<polygon fill="#CDB654" points="346.3,89.5 339,102.2 331.7,89.5"/>
<polygon fill="#E3C244" points="339,102.2 346.3,89.5 353.6,102.2"/>
<polygon fill="#E3C34B" points="360.9,89.5 353.6,102.2 346.3,89.5"/>
<polygon fill="#E9D693" points="200.4,114.8 207.7,102.2 215,114.8"/>
<polygon fill="#E0BC32" points="222.3,102.2 215,114.8 207.7,102.2"/>
<polygon points="215,114.8 222.3,102.2 229.6,114.8"/>
<polygon points="236.9,102.2 229.6,114.8 222.3,102.2"/>
<polygon fill="#DFBF5F" points="229.6,114.8 236.9,102.2 244.2,114.8"/>
<polygon fill="#AC613F" points="251.5,102.2 244.2,114.8 236.9,102.2"/>
<polygon points="244.2,114.8 251.5,102.2 258.8,114.8"/>
<polygon points="266.1,102.2 258.8,114.8 251.5,102.2"/>
<polygon fill="#A6703C" points="258.8,114.8 266.1,102.2 273.4,114.8"/>
<polygon fill="#E4D290" points="280.7,102.2 273.4,114.8 266.1,102.2"/>
<polygon points="273.4,114.8 280.7,102.2 288,114.8"/>
<polygon points="295.3,102.2 288,114.8 280.7,102.2"/>
<polygon points="288,114.8 295.3,102.2 302.6,114.8"/>
<polygon points="309.8,102.2 302.6,114.8 295.3,102.2"/>
<polygon points="302.6,114.8 309.8,102.2 317.1,114.8"/>
<polygon points="324.4,102.2 317.1,114.8 309.8,102.2"/>
<polygon fill="#345B52" points="317.1,114.8 324.4,102.2 331.7,114.8"/>
<polygon fill="#32564D" points="339,102.2 331.7,114.8 324.4,102.2"/>
<polygon points="331.7,114.8 339,102.2 346.3,114.8"/>
<polygon points="353.6,102.2 346.3,114.8 339,102.2"/>
<polygon fill="#E2C03D" points="346.3,114.8 353.6,102.2 360.9,114.8"/>
<polygon fill="#E0BC32" points="368.2,102.2 360.9,114.8 353.6,102.2"/>
<polygon points="360.9,114.8 368.2,102.2 375.5,114.8"/>
<polygon fill="#DDC57B" points="200.4,114.8 193.1,127.4 185.8,114.8"/>
<polygon fill="#DABA51" points="193.1,127.4 200.4,114.8 207.7,127.4"/>
<polygon fill="#DDB830" points="215,114.8 207.7,127.4 200.4,114.8"/>
<polygon points="207.7,127.4 215,114.8 222.3,127.4"/>
<polygon points="229.6,114.8 222.3,127.4 215,114.8"/>
<polygon fill="#C88D5D" points="222.3,127.4 229.6,114.8 236.9,127.4"/>
<polygon fill="#B4694C" points="244.2,114.8 236.9,127.4 229.6,114.8"/>
<polygon points="236.9,127.4 244.2,114.8 251.5,127.4"/>
<polygon points="258.8,114.8 251.5,127.4 244.2,114.8"/>
<polygon fill="#914024" points="251.5,127.4 258.8,114.8 266.1,127.4"/>
<polygon fill="#833A22" points="273.4,114.8 266.1,127.4 258.8,114.8"/>
<polygon points="266.1,127.4 273.4,114.8 280.7,127.4"/>
<polygon points="288,114.8 280.7,127.4 273.4,114.8"/>
<polygon fill="#47726C" points="280.7,127.4 288,114.8 295.3,127.4"/>
<polygon fill="#436E68" points="302.6,114.8 295.3,127.4 288,114.8"/>
<polygon points="295.3,127.4 302.6,114.8 309.8,127.4"/>
<polygon points="317.1,114.8 309.8,127.4 302.6,114.8"/>
<polygon fill="#386159" points="309.8,127.4 317.1,114.8 324.4,127.4"/>
<polygon fill="#345B52" points="331.7,114.8 324.4,127.4 317.1,114.8"/>
<polygon points="324.4,127.4 331.7,114.8 339,127.4"/>
<polygon points="346.3,114.8 339,127.4 331.7,114.8"/>
<polygon fill="#CDB75B" points="339,127.4 346.3,114.8 353.6,127.4"/>
<polygon fill="#E4C54C" points="360.9,114.8 353.6,127.4 346.3,114.8"/>
<polygon points="353.6,127.4 360.9,114.8 368.2,127.4"/>
<polygon points="375.5,114.8 368.2,127.4 360.9,114.8"/>
<polygon fill="#DABA52" points="368.2,127.4 375.5,114.8 382.8,127.4"/>
<polygon fill="#DEC87F" points="390.1,114.8 382.8,127.4 375.5,114.8"/>
<polygon fill="#C9A437" points="193.1,127.4 185.8,140.1 178.5,127.4"/>
<polygon fill="#CFA92F" points="185.8,140.1 193.1,127.4 200.4,140.1"/>
<polygon fill="#D6B22D" points="207.7,127.4 200.4,140.1 193.1,127.4"/>
<polygon points="200.4,140.1 207.7,127.4 215,140.1"/>
<polygon points="222.3,127.4 215,140.1 207.7,127.4"/>
<polygon points="215,140.1 222.3,127.4 229.6,140.1"/>
<polygon points="236.9,127.4 229.6,140.1 222.3,127.4"/>
<polygon points="229.6,140.1 236.9,127.4 244.2,140.1"/>
<polygon points="251.5,127.4 244.2,140.1 236.9,127.4"/>
<polygon fill="#9C4B2C" points="244.2,140.1 251.5,127.4 258.8,140.1"/>
<polygon fill="#914024" points="266.1,127.4 258.8,140.1 251.5,127.4"/>
<polygon points="258.8,140.1 266.1,127.4 273.4,140.1"/>
<polygon points="280.7,127.4 273.4,140.1 266.1,127.4"/>
<polygon fill="#59796F" points="273.4,140.1 280.7,127.4 288,140.1"/>
<polygon fill="#47726C" points="295.3,127.4 288,140.1 280.7,127.4"/>
<polygon points="288,140.1 295.3,127.4 302.6,140.1"/>
<polygon points="309.8,127.4 302.6,140.1 295.3,127.4"/>
<polygon fill="#3A675F" points="302.6,140.1 309.8,127.4 317.1,140.1"/>
<polygon fill="#386159" points="324.4,127.4 317.1,140.1 309.8,127.4"/>
<polygon points="317.1,140.1 324.4,127.4 331.7,140.1"/>
<polygon points="339,127.4 331.7,140.1 324.4,127.4"/>
<polygon points="331.7,140.1 339,127.4 346.3,140.1"/>
<polygon points="353.6,127.4 346.3,140.1 339,127.4"/>
<polygon points="346.3,140.1 353.6,127.4 360.9,140.1"/>
<polygon points="368.2,127.4 360.9,140.1 353.6,127.4"/>
<polygon fill="#DEB930" points="360.9,140.1 368.2,127.4 375.5,140.1"/>
<polygon fill="#D5B12D" points="382.8,127.4 375.5,140.1 368.2,127.4"/>
<polygon fill="#CFA931" points="375.5,140.1 382.8,127.4 390.1,140.1"/>
<polygon fill="#C9A438" points="397.4,127.4 390.1,140.1 382.8,127.4"/>
<polygon fill="#D4B862" points="178.5,152.7 185.8,140.1 193.1,152.7"/>
<polygon fill="#D2AE41" points="200.4,140.1 193.1,152.7 185.8,140.1"/>
<polygon fill="#D5B12D" points="193.1,152.7 200.4,140.1 207.7,152.7"/>
<polygon fill="#DEB930" points="215,140.1 207.7,152.7 200.4,140.1"/>
<polygon fill="#E2C03D" points="207.7,152.7 215,140.1 222.3,152.7"/>
<polygon fill="#E4C550" points="229.6,140.1 222.3,152.7 215,140.1"/>
<polygon points="222.3,152.7 229.6,140.1 236.9,152.7"/>
<polygon points="244.2,140.1 236.9,152.7 229.6,140.1"/>
<polygon fill="#A9593B" points="236.9,152.7 244.2,140.1 251.5,152.7"/>
<polygon fill="#9C4B2C" points="258.8,140.1 251.5,152.7 244.2,140.1"/>
<polygon points="251.5,152.7 258.8,140.1 266.1,152.7"/>
<polygon points="273.4,140.1 266.1,152.7 258.8,140.1"/>
<polygon fill="#676652" points="266.1,152.7 273.4,140.1 280.7,152.7"/>
<polygon fill="#4C7570" points="288,140.1 280.7,152.7 273.4,140.1"/>
<polygon points="280.7,152.7 288,140.1 295.3,152.7"/>
<polygon points="302.6,140.1 295.3,152.7 288,140.1"/>
<polygon fill="#3E6C64" points="295.3,152.7 302.6,140.1 309.8,152.7"/>
<polygon fill="#3A675F" points="317.1,140.1 309.8,152.7 302.6,140.1"/>
<polygon fill="#386159" points="309.8,152.7 317.1,140.1 324.4,152.7"/>
<polygon fill="#8F9471" points="331.7,140.1 324.4,152.7 317.1,140.1"/>
<polygon fill="#DACB82" points="324.4,152.7 331.7,140.1 339,152.7"/>
<polygon fill="#E7D176" points="346.3,140.1 339,152.7 331.7,140.1"/>
<polygon points="339,152.7 346.3,140.1 353.6,152.7"/>
<polygon points="360.9,140.1 353.6,152.7 346.3,140.1"/>
<polygon fill="#E2C03C" points="353.6,152.7 360.9,140.1 368.2,152.7"/>
<polygon fill="#DEB92E" points="375.5,140.1 368.2,152.7 360.9,140.1"/>
<polygon fill="#D5B12D" points="368.2,152.7 375.5,140.1 382.8,152.7"/>
<polygon fill="#D2AF44" points="390.1,140.1 382.8,152.7 375.5,140.1"/>
<polygon fill="#D6BA67" points="382.8,152.7 390.1,140.1 397.4,152.7"/>
<polygon fill="#DFC778" points="207.7,152.7 200.4,165.3 193.1,152.7"/>
<polygon fill="#DCB72E" points="200.4,165.3 207.7,152.7 215,165.3"/>
<polygon fill="#E1BF35" points="222.3,152.7 215,165.3 207.7,152.7"/>
<polygon points="215,165.3 222.3,152.7 229.6,165.3"/>
<polygon points="236.9,152.7 229.6,165.3 222.3,152.7"/>
<polygon fill="#DDBF69" points="229.6,165.3 236.9,152.7 244.2,165.3"/>
<polygon fill="#BA7F49" points="251.5,152.7 244.2,165.3 236.9,152.7"/>
<polygon points="244.2,165.3 251.5,152.7 258.8,165.3"/>
<polygon points="266.1,152.7 258.8,165.3 251.5,152.7"/>
<polygon points="258.8,165.3 266.1,152.7 273.4,165.3"/>
<polygon points="280.7,152.7 273.4,165.3 266.1,152.7"/>
<polygon points="273.4,165.3 280.7,152.7 288,165.3"/>
<polygon points="295.3,152.7 288,165.3 280.7,152.7"/>
<polygon fill="#436E68" points="288,165.3 295.3,152.7 302.6,165.3"/>
<polygon fill="#3E6C64" points="309.8,152.7 302.6,165.3 295.3,152.7"/>
<polygon fill="#3A675F" points="302.6,165.3 309.8,152.7 317.1,165.3"/>
<polygon fill="#999E78" points="324.4,152.7 317.1,165.3 309.8,152.7"/>
<polygon fill="#DED08A" points="317.1,165.3 324.4,152.7 331.7,165.3"/>
<polygon fill="#E8D37C" points="339,152.7 331.7,165.3 324.4,152.7"/>
<polygon points="331.7,165.3 339,152.7 346.3,165.3"/>
<polygon points="353.6,152.7 346.3,165.3 339,152.7"/>
<polygon fill="#E3C449" points="346.3,165.3 353.6,152.7 360.9,165.3"/>
<polygon fill="#E1BD34" points="368.2,152.7 360.9,165.3 353.6,152.7"/>
<polygon fill="#DCB72E" points="360.9,165.3 368.2,152.7 375.5,165.3"/>
<polygon fill="#E1C97C" points="382.8,152.7 375.5,165.3 368.2,152.7"/>
<polygon fill="#E0BD39" points="207.7,178 215,165.3 222.3,178"/>
<polygon fill="#E1BF3C" points="229.6,165.3 222.3,178 215,165.3"/>
<polygon fill="#E3C44F" points="222.3,178 229.6,165.3 236.9,178"/>
<polygon fill="#BEA454" points="244.2,165.3 236.9,178 229.6,165.3"/>
<polygon fill="#D2B160" points="236.9,178 244.2,165.3 251.5,178"/>
<polygon fill="#9A6A3C" points="258.8,165.3 251.5,178 244.2,165.3"/>
<polygon fill="#8F4225" points="251.5,178 258.8,165.3 266.1,178"/>
<polygon fill="#6E7460" points="273.4,165.3 266.1,178 258.8,165.3"/>
<polygon fill="#507772" points="266.1,178 273.4,165.3 280.7,178"/>
<polygon fill="#617466" points="288,165.3 280.7,178 273.4,165.3"/>
<polygon fill="#48706A" points="280.7,178 288,165.3 295.3,178"/>
<polygon fill="#5B6F61" points="302.6,165.3 295.3,178 288,165.3"/>
<polygon fill="#406A62" points="295.3,178 302.6,165.3 309.8,178"/>
<polygon fill="#8D8D6A" points="317.1,165.3 309.8,178 302.6,165.3"/>
<polygon fill="#DACB85" points="309.8,178 317.1,165.3 324.4,178"/>
<polygon fill="#C0AC67" points="331.7,165.3 324.4,178 317.1,165.3"/>
<polygon fill="#DFC86F" points="324.4,178 331.7,165.3 339,178"/>
<polygon fill="#C9AE53" points="346.3,165.3 339,178 331.7,165.3"/>
<polygon fill="#E4C54E" points="339,178 346.3,165.3 353.6,178"/>
<polygon fill="#E1BF3C" points="360.9,165.3 353.6,178 346.3,165.3"/>
<polygon fill="#E0BD3A" points="353.6,178 360.9,165.3 368.2,178"/>
<polygon fill="#E8D07D" points="215,190.6 222.3,178 229.6,190.6"/>
<polygon fill="#E4C656" points="236.9,178 229.6,190.6 222.3,178"/>
<polygon fill="#E4C54D" points="229.6,190.6 236.9,178 244.2,190.6"/>
<polygon fill="#E4C652" points="251.5,178 244.2,190.6 236.9,178"/>
<polygon fill="#E6CD68" points="244.2,190.6 251.5,178 258.8,190.6"/>
<polygon fill="#E7CE6A" points="266.1,178 258.8,190.6 251.5,178"/>
<polygon fill="#E8D47D" points="258.8,190.6 266.1,178 273.4,190.6"/>
<polygon fill="#E8D37B" points="280.7,178 273.4,190.6 266.1,178"/>
<polygon fill="#EAD888" points="273.4,190.6 280.7,178 288,190.6"/>
<polygon fill="#E8D47F" points="295.3,178 288,190.6 280.7,178"/>
<polygon fill="#EAD888" points="288,190.6 295.3,178 302.6,190.6"/>
<polygon fill="#E8D37B" points="309.8,178 302.6,190.6 295.3,178"/>
<polygon fill="#E8D37D" points="302.6,190.6 309.8,178 317.1,190.6"/>
<polygon fill="#E6CD69" points="324.4,178 317.1,190.6 309.8,178"/>
<polygon fill="#E6CD68" points="317.1,190.6 324.4,178 331.7,190.6"/>
<polygon fill="#E4C652" points="339,178 331.7,190.6 324.4,178"/>
<polygon fill="#E3C44C" points="331.7,190.6 339,178 346.3,190.6"/>
<polygon fill="#E4C657" points="353.6,178 346.3,190.6 339,178"/>
<polygon fill="#E9D280" points="346.3,190.6 353.6,178 360.9,190.6"/>
<polygon fill="#EAD793" points="244.2,190.6 236.9,203.2 229.6,190.6"/>
<polygon fill="#E3C241" points="236.9,203.2 244.2,190.6 251.5,203.2"/>
<polygon fill="#E3C243" points="258.8,190.6 251.5,203.2 244.2,190.6"/>
<polygon fill="#E4C756" points="251.5,203.2 258.8,190.6 266.1,203.2"/>
<polygon fill="#E4C653" points="273.4,190.6 266.1,203.2 258.8,190.6"/>
<polygon fill="#E5CB63" points="266.1,203.2 273.4,190.6 280.7,203.2"/>
<polygon fill="#E5CA5D" points="288,190.6 280.7,203.2 273.4,190.6"/>
<polygon fill="#E6CD69" points="280.7,203.2 288,190.6 295.3,203.2"/>
<polygon fill="#E5CA5D" points="302.6,190.6 295.3,203.2 288,190.6"/>
<polygon fill="#E5CB63" points="295.3,203.2 302.6,190.6 309.8,203.2"/>
<polygon fill="#E4C653" points="317.1,190.6 309.8,203.2 302.6,190.6"/>
<polygon fill="#E4C756" points="309.8,203.2 317.1,190.6 324.4,203.2"/>
<polygon fill="#E3C241" points="331.7,190.6 324.4,203.2 317.1,190.6"/>
<polygon fill="#E3C13F" points="324.4,203.2 331.7,190.6 339,203.2"/>
<polygon fill="#EAD897" points="346.3,190.6 339,203.2 331.7,190.6"/>
<polygon fill="#E2C044" points="244.2,215.9 251.5,203.2 258.8,215.9"/>
<polygon fill="#E0BD38" points="266.1,203.2 258.8,215.9 251.5,203.2"/>
<polygon fill="#E3C13D" points="258.8,215.9 266.1,203.2 273.4,215.9"/>
<polygon fill="#E1BF39" points="280.7,203.2 273.4,215.9 266.1,203.2"/>
<polygon fill="#E3C245" points="273.4,215.9 280.7,203.2 288,215.9"/>
<polygon fill="#E2C03C" points="295.3,203.2 288,215.9 280.7,203.2"/>
<polygon fill="#E3C245" points="288,215.9 295.3,203.2 302.6,215.9"/>
<polygon fill="#E1BF38" points="309.8,203.2 302.6,215.9 295.3,203.2"/>
<polygon fill="#E2C03E" points="302.6,215.9 309.8,203.2 317.1,215.9"/>
<polygon fill="#E0BD39" points="324.4,203.2 317.1,215.9 309.8,203.2"/>
<polygon fill="#E3C146" points="317.1,215.9 324.4,203.2 331.7,215.9"/>
<polygon fill="#E7D38F" points="251.5,228.5 258.8,215.9 266.1,228.5"/>
<polygon fill="#DDBF5B" points="273.4,215.9 266.1,228.5 258.8,215.9"/>
<polygon fill="#DBB72F" points="266.1,228.5 273.4,215.9 280.7,228.5"/>
<polygon fill="#D7B12D" points="288,215.9 280.7,228.5 273.4,215.9"/>
<polygon fill="#DCB82F" points="280.7,228.5 288,215.9 295.3,228.5"/>
<polygon fill="#D7B12D" points="302.6,215.9 295.3,228.5 288,215.9"/>
<polygon fill="#DBB72F" points="295.3,228.5 302.6,215.9 309.8,228.5"/>
<polygon fill="#DEC060" points="317.1,215.9 309.8,228.5 302.6,215.9"/>
<polygon fill="#E7D494" points="309.8,228.5 317.1,215.9 324.4,228.5"/>
<polygon fill="#CEA82E" points="273.4,241.2 280.7,228.5 288,241.2"/>
<polygon fill="#CBA52E" points="295.3,228.5 288,241.2 280.7,228.5"/>
<polygon fill="#CEA82E" points="288,241.2 295.3,228.5 302.6,241.2"/>
<polygon fill="#D2B869" points="280.7,253.8 288,241.2 295.3,253.8"/>
</svg>
