<svg version="1.1" xmlns="http://www.w3.org/2000/svg" xmlns:xlink="http://www.w3.org/1999/xlink" x="0px" y="0px" width="361px" height="248px">
	<path fill="#BDC3C7" d="M353-1H8C3.6-1,0,2.6,0,7v207h361V7C361,2.6,357.4-1,353-1z"/>
	<path fill="#ECF0F1" d="M0,214v25c0,4.4,3.6,8,8,8h345c4.4,0,8-3.6,8-8v-25H0z"/>
	<rect x="14.3" y="12" fill="#ED6F58" width="325.3" height="186.9"/>
	<circle fill="#BDC3C7" cx="177.8" cy="230.8" r="11.2"/>
	<rect id="XMLID_3_" x="147.7" y="64.5" transform="matrix(-0.7071 -0.7071 0.7071 -0.7071 243.7994 304.7405)" fill="#EFBF00" width="74.7" height="74.7"/>
	<rect id="XMLID_2_" x="147.7" y="64.5" transform="matrix(-0.7071 -0.7071 0.7071 -0.7071 243.7994 304.7405)" fill="none" stroke="#F2D98B" width="74.7" height="74.7"/>
	<polygon fill="#A93C17" points="153.3,94.9 171.2,80.2 181,107.2 185.3,119.9 166.5,119.9"/>
	<polygon fill="#006860" points="186.3,73.1 211.7,88.1 192.3,119.9 171.7,119.9 "/>
	<line fill="none" stroke="#1D1D1B" stroke-width="0.56" sx1="156.6" y1="119.9" x2="208.9" y2="119.9"/>
</svg>
