<svg version="1.1" id="Capa_1" xmlns="http://www.w3.org/2000/svg" xmlns:xlink="http://www.w3.org/1999/xlink" x="0px" y="0px" width="595.301px" height="299px">
<rect x="0" fill="#9DF5AA" width="595.301" height="299"/>
<path d="M104.5,110.6c-1.8,1-3.7,1.5-5.5,1.5c-2.8,0-5.3-1-7.399-3c-2.101-2-3.101-4.4-3.101-7.2c0-2.7,1.101-5,3.3-6.899 c2.101-1.801,4.5-2.801,7.2-2.801c1.101,0,2,0.101,2.8,0.301c0.7,0.199,1.601,0.5,2.601,1l-1.9,2.199c-0.6-0.399-1.8-0.6-3.6-0.6 s-3.4,0.7-4.8,2C92.7,98.399,92,100,92,101.8c0,1.899,0.7,3.6,2,5c1.3,1.399,3,2.1,4.9,2.1c1.7,0,2.899-0.399,3.6-1.1L104.5,110.6z "/>
	<path d="M125.3,111.8H121.9l-0.101-10.3l-5.899,6.199L110,101.5v10.3h-3.6v-19.9L115.8,102.5l9.5-10.5V111.8L125.3,111.8z"/>
	<path d="M143.8,92.6l-6.5,10.8v8.3H133.9v-8.3l-6.5-10.8h3.899l4.301,7.3L140,92.6H143.8z"/>
	<path d="M160.9,111.699h-4.5l-7-8.199l-0.4,0.399v7.9H145.6V92.6H149v7.1l7.3-7.1h4.5l-9,8.6L160.9,111.699z"/>
	<path d="M179.3,95.5l-5.699,0.1v4.1h5.5l-0.101,3L173.6,102.8v8.899h-3.4V92.6h9.1V95.5L179.3,95.5z"/>
	<path d="M189.4,98.399c-0.601-1.8-2.101-2.7-4.601-2.6v8.2v7.6H181.4v-19h3.899c2.4,0,4.2,0.5,5.5,1.5c1.5,1.3,2.301,3.2,2.4,5.6 c-0.1,1.801-0.7,3.2-1.8,4.301l-1.2,1.199l4.5,6.4h-4.1L185.3,104c2.101-0.301,3.4-1.2,4-2.801 C189.7,100.3,189.7,99.3,189.4,98.399z"/>
	<path d="M205.8,111.699h-9.1V92.6h9.1L205.9,96h-5.8v3.899h5.399v3.3H200.1v5h5.8L205.8,111.699z"/>
	<path d="M216.8,111.699h-9.1V92.6h9.1L216.9,96h-5.8v3.899h5.399v3.3H211.1v5h5.8L216.8,111.699z"/>
	<path d="M229.5,111.699H226.1V92.6h3.399V111.699z"/>
	<path d="M247.2,110.6c-1.8,1-3.7,1.5-5.5,1.5c-2.8,0-5.3-1-7.4-3c-2.1-2-3.1-4.4-3.1-7.2c0-2.7,1.1-5,3.3-6.899 c2.101-1.801,4.5-2.801,7.2-2.801c1.1,0,2,0.101,2.8,0.301c0.7,0.199,1.601,0.5,2.601,1l-1.9,2.199c-0.6-0.399-1.8-0.6-3.6-0.6 c-1.801,0-3.4,0.7-4.801,2c-1.399,1.3-2.1,2.9-2.1,4.7c0,1.899,0.7,3.6,2,5c1.3,1.399,3,2.1,4.9,2.1c1.699,0,2.899-0.399,3.6-1.1 L247.2,110.6z"/>
	<path d="M269.4,102.1c0,2.8-1,5.2-3.101,7.1c-2.1,1.9-4.5,2.9-7.3,2.9s-5.3-1-7.3-2.9c-2.1-1.899-3.1-4.3-3.1-7.1s1-5.2,3.1-7.1 c2-1.9,4.5-2.801,7.3-2.801s5.2,0.9,7.3,2.801C268.3,96.899,269.4,99.3,269.4,102.1z M266,102.1c0-1.9-0.7-3.6-2.1-4.9 c-1.4-1.3-3-2-5-2s-3.601,0.7-5,2c-1.4,1.301-2.101,3-2.101,4.9s0.7,3.5,2.101,4.9c1.399,1.3,3,2,4.899,2c1.9,0,3.601-0.7,4.9-2 C265.3,105.6,266,104,266,102.1z"/>
	<path d="M286,112l-11.1-11.101v11h-3.7v-20l11,11v-10.5h3.8V112L286,112z"/>
	<path d="M301.1,106c0,1.699-0.7,3.1-2,4.3c-1.301,1.2-2.801,1.8-4.5,1.8c-1.801,0-3.301-0.5-4.5-1.6 c-0.801-0.801-1.601-1.5-2.301-2.2l2.2-2.2c1.3,1.6,2.9,2.5,4.8,2.8c0.9,0,1.601-0.3,2.101-0.899c0.6-0.601,0.8-1.301,0.8-2.201 c0-1.1-0.7-1.899-2.2-2.6c-1.399-0.699-2.8-1.3-4.2-1.9c-1.5-1-2.199-2.299-2.199-4.1c0-1.5,0.699-2.8,2-3.699 c1.199-0.9,2.6-1.301,4.1-1.301c2.3,0,4.1,0.7,5.3,2l-2,2.301c-1.1-0.801-2.2-1.201-3.399-1.201c-0.601,0-1.2,0.201-1.7,0.5 c-0.601,0.4-0.9,0.9-0.9,1.5c0,0.801,0.5,1.4,1.4,1.9c0.1,0.1,0.899,0.301,2.3,0.9c0.9,0.3,1.8,0.8,2.6,1.3 c1,0.7,1.601,1.399,1.9,2.101c0.1,0.299,0.2,0.699,0.4,1.299C301,105.1,301.1,105.6,301.1,106z"/>
	<path d="M323.001,106c0,1.699-0.7,3.1-2,4.3c-1.301,1.2-2.801,1.8-4.5,1.8c-1.801,0-3.301-0.5-4.5-1.6 c-0.801-0.801-1.601-1.5-2.301-2.2l2.2-2.2c1.3,1.6,2.9,2.5,4.8,2.8c0.9,0,1.601-0.3,2.101-0.899c0.6-0.601,0.8-1.301,0.8-2.201 c0-1.1-0.7-1.899-2.2-2.6c-1.399-0.699-2.8-1.3-4.2-1.9c-1.5-1-2.2-2.299-2.2-4.1c0-1.5,0.7-2.8,2-3.699 c1.2-0.9,2.601-1.301,4.101-1.301c2.3,0,4.1,0.7,5.3,2l-2,2.301c-1.1-0.801-2.2-1.201-3.4-1.201c-0.6,0-1.199,0.201-1.699,0.5 c-0.601,0.4-0.9,0.9-0.9,1.5c0,0.801,0.5,1.4,1.4,1.9c0.1,0.1,0.899,0.301,2.3,0.9c0.899,0.3,1.8,0.8,2.6,1.3 c1,0.7,1.601,1.399,1.9,2.101c0.1,0.299,0.2,0.699,0.399,1.299C323.001,105.1,323.001,105.6,323.001,106z"/>
	<path d="M345.2,102.1c0,2.8-1,5.2-3.1,7.1c-2.1,1.9-4.5,2.9-7.3,2.9s-5.3-1-7.3-2.9c-2-1.899-3.101-4.3-3.101-7.1s1-5.2,3.101-7.1 c2-1.9,4.5-2.801,7.3-2.801s5.2,0.9,7.3,2.801C344.2,96.899,345.2,99.3,345.2,102.1z M341.801,102.1c0-1.9-0.7-3.6-2.101-4.9 c-1.399-1.3-3-2-5-2s-3.6,0.7-5,2c-1.399,1.301-2.1,3-2.1,4.9s0.7,3.5,2.1,4.9c1.4,1.3,3,2,4.9,2c1.899,0,3.6-0.7,4.899-2 C341.1,105.6,341.801,104,341.801,102.1z"/>
	<path d="M362.4,110.6c-1.8,1-3.7,1.5-5.5,1.5c-2.8,0-5.3-1-7.399-3c-2.101-2-3.101-4.4-3.101-7.2c0-2.7,1.101-5,3.3-6.899 c2.101-1.801,4.5-2.801,7.2-2.801c1.101,0,2,0.101,2.8,0.301c0.7,0.199,1.601,0.5,2.601,1l-1.9,2.199c-0.6-0.399-1.8-0.6-3.6-0.6 c-1.801,0-3.4,0.7-4.8,2c-1.4,1.3-2.101,2.9-2.101,4.7c0,1.899,0.7,3.6,2,5c1.3,1.399,3,2.1,4.9,2.1c1.7,0,2.899-0.399,3.6-1.1 L362.4,110.6z"/>
	<path d="M367.7,111.699h-3.399V92.6h3.399V111.699z"/>
	<path d="M388.501,111.699H384.9l-1.3-2.5h-9.9l-1.1,2.5h-3.7l9.8-19.899L388.501,111.699z M382.1,106.199l-3.5-7.3l-3.7,7.3H382.1z "/>
	<path d="M398.7,111.699h-9.1V92.6h3.4v16h5.699V111.699L398.7,111.699z"/>
	<path d="M427.301,111.8h-3.4l-0.1-10.3l-5.9,6.199l-5.899-6.199v10.3H408.4v-19.9l9.4,10.601l9.5-10.5V111.8L427.301,111.8z"/>
	<path d="M438.6,111.699h-9.1V92.6h9.1l0.1,3.4h-5.8v3.899h5.4v3.3h-5.4v5h5.8L438.6,111.699z"/>
	<path d="M456.001,101.899c0,3.101-1.101,5.601-3.2,7.3c-2,1.601-4.601,2.5-7.8,2.5h-4.7V92.6h4.399c3.101,0,5.7,0.8,7.7,2.3 C454.9,96.5,456.001,98.899,456.001,101.899z M452.6,102.1c0-4.3-2.9-6.5-8.8-6.5v13h0.899c2.301,0,4.101-0.5,5.5-1.5 C451.801,106,452.6,104.3,452.6,102.1z"/>
	<path d="M461.6,111.699h-3.4V92.6h3.4V111.699z"/>
	<path d="M482.301,111.699H478.7l-1.3-2.5h-9.899l-1.101,2.5h-3.7l9.8-19.899L482.301,111.699z M476.001,106.199l-3.5-7.3l-3.7,7.3 H476.001z"/>
<circle fill="#E5007D" cx="58.9" cy="154.6" r="11.3"/>
<path fill="#FFFFFF" d="M65,153.1c0,0-2.5-7.1-6.2-0.8c-0.3,0-5.899-2.101-5.899-2.101s3.5,6.2,3.7,6.4 c0.199,1.4-5.801,0.9-5.801,0.9s4.9,3.8,9.7,2.5c2.4,0,5.2-5.601,5.2-5.601l1.6-0.6L65,153.1z"/>
<circle fill="#E5007D" cx="448.001" cy="154.8" r="11.3"/>
<path fill="#FFFFFF" d="M445.6,154.399c-0.2,0.8-1.2,5.3-1.2,5.3v3.7c0,0,2.5-3,2.601-5.899c-0.301-0.101,5.699,4.3,7.8-4.4 c0-1.1,0-1.6,0-1.9c-4.101-11.199-19-0.8-11.101,5.101c0,0,0.4-0.9,0.7-1.3c-0.6-0.101-3.2-7,5-7c7.601,2.3-0.399,13.5-1.7,7.1 c0,0,0.8-2.6,0.8-2.9C448.7,148.199,444.4,150.5,445.6,154.399z"/>
<circle fill="#E5007D" cx="525.9" cy="154.8" r="11.3"/>
<path fill="#FFFFFF" d="M526.501,149.399c0.1,0.101,0.199,0.2,0.399,0.3c0.101,0.101,0.3,0.301,0.4,0.5c0.1,0.2,0.3,0.4,0.399,0.7 c0.101,0.3,0.101,0.601,0.101,0.9s0,0.7-0.101,0.899c-0.1,0.301-0.199,0.5-0.399,0.7c-0.101,0.2-0.3,0.4-0.5,0.601 c-0.2,0.199-0.4,0.3-0.601,0.5c-0.1,0.1-0.199,0.3-0.399,0.399c-0.101,0.101-0.2,0.3-0.2,0.5s0.1,0.4,0.2,0.5 c0.1,0.101,0.2,0.2,0.3,0.3l0.7,0.5c0.2,0.2,0.399,0.301,0.6,0.5c0.2,0.2,0.4,0.4,0.5,0.601c0.101,0.2,0.3,0.399,0.3,0.7 c0.101,0.199,0.101,0.5,0.101,0.899c0,0.4-0.101,0.9-0.3,1.3c-0.2,0.4-0.5,0.801-0.9,1.101s-0.9,0.6-1.5,0.8s-1.3,0.3-2.1,0.3 c-0.7,0-1.301-0.1-1.801-0.2c-0.5-0.1-0.899-0.3-1.3-0.6c-0.3-0.2-0.6-0.5-0.7-0.8c-0.199-0.3-0.199-0.601-0.199-1 c0-0.3,0.1-0.7,0.3-1.101c0.2-0.399,0.6-0.8,1.1-1.1c0.3-0.2,0.6-0.3,0.9-0.4c0.3-0.1,0.7-0.199,1-0.199 c0.3-0.101,0.6-0.101,0.899-0.101c0.301,0,0.5,0,0.7-0.1c-0.1-0.2-0.3-0.4-0.399-0.5c-0.101-0.2-0.2-0.4-0.2-0.7 c0-0.2,0-0.3,0.1-0.4c0-0.1,0.1-0.199,0.1-0.3c-0.1,0-0.199,0-0.3,0c-0.1,0-0.2,0-0.3,0c-0.5,0-0.9-0.1-1.3-0.3 c-0.4-0.2-0.7-0.4-1-0.7s-0.5-0.6-0.6-0.899c-0.101-0.4-0.2-0.7-0.2-1.101c0-0.399,0.1-0.899,0.3-1.3s0.5-0.8,0.9-1.2 c0.5-0.399,1.1-0.7,1.699-0.8c0.601-0.1,1.101-0.2,1.601-0.2h3.8l-1.2,0.601L526.501,149.399L526.501,149.399L526.501,149.399 L526.501,149.399z M527.2,160.1c0-0.2,0-0.4-0.1-0.6c-0.1-0.2-0.2-0.4-0.4-0.601c-0.199-0.2-0.399-0.399-0.6-0.6 c-0.3-0.2-0.6-0.4-0.9-0.7c-0.1,0-0.1,0-0.199,0c-0.101,0-0.101,0-0.2,0c0,0-0.101,0-0.3,0c-0.101,0-0.301,0-0.5,0 c-0.2,0-0.4,0.1-0.601,0.1s-0.399,0.101-0.6,0.2c-0.101,0-0.2,0.101-0.4,0.2s-0.399,0.2-0.5,0.3c-0.2,0.101-0.3,0.3-0.5,0.601 c-0.1,0.199-0.2,0.5-0.2,0.8c0,0.7,0.301,1.2,0.9,1.6c0.6,0.4,1.4,0.601,2.4,0.601c0.899,0,1.6-0.2,2-0.601 C527.001,161.199,527.2,160.699,527.2,160.1z M524.501,154.699c0.199,0,0.5,0,0.699-0.1c0.2-0.1,0.4-0.2,0.601-0.4 c0.2-0.199,0.3-0.399,0.399-0.699c0-0.301,0.101-0.5,0.101-0.7c0-0.3,0-0.7-0.101-1.101c-0.1-0.399-0.199-0.8-0.399-1.1 c-0.2-0.4-0.4-0.6-0.7-0.9c-0.3-0.199-0.6-0.3-1-0.3c-0.2,0-0.5,0.101-0.7,0.2s-0.4,0.3-0.6,0.4c-0.2,0.199-0.3,0.399-0.3,0.699 c-0.101,0.2-0.101,0.5-0.101,0.7c0,0.3,0,0.7,0.101,1c0.1,0.4,0.199,0.7,0.399,1.101c0.2,0.3,0.4,0.6,0.7,0.899 C523.7,154.6,524.1,154.699,524.501,154.699z"/>
<path fill="#FFFFFF" d="M534.7,152h-2.699v2.6H531.2V152h-2.6v-0.801h2.6v-2.6h0.801v2.6h2.6L534.7,152L534.7,152z"/>
<circle fill="#E5007D" cx="487.001" cy="154.8" r="11.3"/>
<polygon fill="#FFFFFF" points="479.6,160.5 485.501,160.5 485.501,153.399 487.6,153.399 487.6,160.5 494.301,160.5 487.001,145.1"/>
<line fill="none" stroke="#E5007D" x1="484.2" y1="156.3" x2="486.4" y2="157.899"/>
<line fill="none" stroke="#E5007D" x1="487.301" y1="156.699" x2="489.301" y2="154.6"/>
<line fill="none" stroke="#E5007D" x1="487.1" y1="158.6" x2="490.7" y2="156.199"/>
<circle fill="#E5007D" cx="331.301" cy="155.8" r="11.3"/>
<path fill="#FFFFFF" d="M325.1,149.5c0,0,11.5-1.101,12.6,11.6c0.801,0-2.5,0-2.5,0s0.4-9.8-10.1-9.4 C325.1,151,325.1,149.5,325.1,149.5z"/>
<circle fill="#FFFFFF" cx="327.501" cy="159.4" r="2.1"/>
<path fill="#FFFFFF" d="M325.1,153.1c0,0,7.8-1.1,8.6,8.1c0.5,0-2.1,0-2.1,0s-0.1-6.6-6.4-6.5C325.1,154.1,325.1,153.1,325.1,153.1z"/>
<circle fill="#E5007D" cx="409.1" cy="154.8" r="11.3"/>
<path fill="#FFFFFF" d="M410.4,157l-2-3.801l0.8-0.199h1.601l1.2,1.8c0,0,2.8-0.5,2.8-0.601c-1.2-2.3-7.3-1.5-7.3-1.5l2.5,4.601 l-8.601,2.399c0,0-2.8-5.899,3.3-7.5c-0.1-0.3-0.7-1.6-0.7-1.6l2-0.6l0.801,1.399c0,0,10.5-1.2,12.5,3.2 C420.001,154.399,410.4,157,410.4,157z"/>
<path fill="#E5007D" d="M406.6,156l-2.8,0.8c0,0-0.2-3.101,1.399-3.3C405.301,153.399,406.6,156,406.6,156z"/>
<circle fill="#E5007D" cx="292.4" cy="155.1" r="11.3"/>
<circle fill="#FFFFFF" cx="288.5" cy="155" r="3.5"/>
<circle fill="#FFFFFF" cx="296.9" cy="155" r="3.5"/>
<circle fill="#E5007D" cx="370.2" cy="155.1" r="11.3"/>
<path fill="#FFFFFF" d="M377.4,152c-0.1,1.399-1.1,3.399-3,5.899c-2,2.601-3.7,3.9-5.1,3.9c-0.9,0-1.601-0.8-2.2-2.4 c-0.4-1.5-0.8-2.899-1.2-4.399c-0.4-1.601-0.9-2.4-1.4-2.4c-0.1,0-0.5,0.2-1.199,0.7l-0.7-0.9c0.7-0.6,1.399-1.3,2.2-1.899 c1-0.801,1.699-1.301,2.199-1.301c1.101-0.1,1.9,0.7,2.101,2.4c0.3,1.8,0.5,2.9,0.6,3.4c0.3,1.5,0.7,2.3,1.101,2.3 c0.3,0,0.8-0.5,1.399-1.5c0.601-1,1-1.7,1-2.2c0.101-0.8-0.2-1.3-1-1.3c-0.399,0-0.7,0.1-1.1,0.2c0.7-2.4,2.1-3.5,4.2-3.5 C376.801,149.1,377.501,150.1,377.4,152z"/>
<circle fill="#E5007D" cx="97.8" cy="155" r="11.3"/>
<path fill="#FFFFFF" d="M95.7,162.8v-7.5h-1.4v-2.9H95.6v-3.3c0,0,0.3-1.7,2.199-1.6c0.101,0,3.5,0,3.5,0v3h-2.1v1.899h2.1v2.8h-2 v7.7L95.7,162.8L95.7,162.8L95.7,162.8z"/>
<circle fill="#E5007D" cx="136.7" cy="155.1" r="11.3"/>
<path fill="#FFFFFF" d="M133,150.199c0,0.7-0.5,1.301-1.5,1.301c-0.899,0-1.399-0.601-1.399-1.301c0-0.8,0.6-1.399,1.399-1.399 C132.4,148.899,133,149.5,133,150.199z M130.2,161.3v-8.7h2.7v8.7H130.2z"/>
	<path fill="#FFFFFF" d="M135,155.399c0-1.1,0-2-0.1-2.8h2.3l0.1,1.2h0.101c0.399-0.601,1.2-1.4,2.7-1.4c1.8,0,3.1,1.2,3.1,3.7v5.1 h-2.7v-4.8c0-1.1-0.399-1.899-1.399-1.899c-0.7,0-1.2,0.5-1.4,1c-0.1,0.199-0.1,0.399-0.1,0.699v5H135V155.399L135,155.399z"/>
<circle fill="#E5007D" cx="175.6" cy="155.1" r="11.3"/>
	<rect x="167.4" y="149.899" fill="#FFFFFF" width="2.3" height="10.2"/>
	<rect x="169.6" y="149.899" fill="#FFFFFF" width="3.1" height="1.8"/>
	<rect x="169.6" y="158.3" fill="#FFFFFF" width="3.1" height="1.8"/>
	<rect x="169.6" y="154" fill="#FFFFFF" width="3.1" height="1.6"/>
	<path fill="#FFFFFF" d="M172.7,160.1c0,0,3.3,0.1,3.3-3c0,0,0.101-2.5-1.899-2.5c0,0,1.6-0.1,1.6-1.9c0-1.8-1.3-2.699-2.9-2.699 c-1.6,0-1.5,0.899-1.5,0.899l1.2,0.9h0.4c0,0,0.7,0,0.7,1.1c0,1.101-0.4,1.2-0.9,1.2s-0.7,0.8-0.7,0.8l0.9,0.8c0,0,1.1,0,1.1,1.4 s-1.1,1.3-1.399,1.3c-0.301,0-0.2,0.7-0.2,0.7L172.7,160.1z"/>
	<path fill="#FFFFFF" d="M180.3,152.5c-3.899,0-3.899,3.899-3.899,3.899s-0.3,3.9,3.899,3.9c0,0,3.5,0.2,3.5-2.7H182 c0,0,0.101,1.1-1.6,1.1c0,0-1.8,0.101-1.8-1.8h5.3C183.8,156.899,184.4,152.5,180.3,152.5z M178.5,155.6c0,0,0.2-1.6,1.8-1.6 c1.601,0,1.601,1.6,1.601,1.6H178.5z"/>
	<rect x="178.1" y="150.5" fill="#FFFFFF" width="4.199" height="1.3"/>
<circle fill="#E5007D" cx="214.5" cy="155.1" r="11.3"/>
	<circle fill="none" stroke="#FFFFFF" stroke-width="2" cx="214.7" cy="155.2" r="7.4"/>
<path fill="none" stroke="#FFFFFF" stroke-width="2" d="M218.3,161.699C217.5,155,211.4,148.5,211.4,148.5"/>
	<path fill="none" stroke="#FFFFFF" stroke-width="2" d="M207.3,154c8.5,1.8,11.9-4.7,11.9-4.7"/>
	<path fill="none" stroke="#FFFFFF" stroke-width="2" d="M209.1,160.1c4.3-6.9,13-4.6,13-4.6"/>
<circle fill="#E5007D" cx="253.4" cy="155.1" r="11.3"/>
	<rect x="246.8" y="150.5" fill="none" stroke="#FFFFFF" stroke-width="1.5" width="13.2" height="9.199"/>
	<polyline fill="none" stroke="#FFFFFF" stroke-width="1.5" points="246.8,150.5 253.5,155.399 260.1,150.5"/>
	<line fill="none" stroke="#FFFFFF" stroke-width="1.5" x1="260.1" y1="159.699" x2="255.2" y2="154.1"/>
	<line fill="none" stroke="#FFFFFF" stroke-width="1.5" x1="246.8" y1="159.699" x2="251.7" y2="154.1"/>
</svg>