<svg version="1.1" xmlns="http://www.w3.org/2000/svg" xmlns:xlink="http://www.w3.org/1999/xlink" x="0px" y="0px" width="538.6px" height="270.6px">
	<rect x="0" y="0" fill="#B06B9C" width="538.6" height="270.6"/>
	<polygon fill="#2C3E50" points="301.8,233.5 294.3,207.4 243.9,207.4 236.4,233.5 227.3,234.7 227.3,237.1 311,237.1 311,234.7"/>
	<path fill="#2C3E50" d="M390.5,32.9H147.8c-3.1,0-5.6,2.5-5.6,5.6v145.7h254V38.6C396.1,35.5,393.6,32.9,390.5,32.9z"/>
	<path fill="#BDC3C7" d="M142.1,184.2v17.6c0,3.1,2.5,5.6,5.6,5.6h242.8c3.1,0,5.6-2.5,5.6-5.6v-17.6H142.1z"/>
	<rect x="152.1" y="42.2" fill="#FFFFFF" width="235" height="130.8"/>
	<path fill="#2C3E50" d="M282.8,51.2h-33.1c-4.8,0-8.7,3.9-8.7,8.7v90.7c0,4.8,3.9,8.7,8.7,8.7h33.1c4.8,0,8.7-3.9,8.7-8.7V60 C291.5,55.1,287.6,51.2,282.8,51.2z"/>
	<path fill="#718799" d="M266.2,147.9c2,0,3.6,1.6,3.6,3.6c0,2-1.6,3.6-3.6,3.6c-2,0-3.6-1.6-3.6-3.6 C262.6,149.5,264.2,147.9,266.2,147.9z"/>
	<rect x="244.3" y="62" fill="#45BCD2" width="43.6" height="80.3"/>
</svg>
