<svg version="1.1" xmlns="http://www.w3.org/2000/svg" xmlns:xlink="http://www.w3.org/1999/xlink" x="0px" y="0px" width="595.301px" height="299px">
<rect fill="#E0E6E4" width="595.3" height="299"/>
<path fill="#8C837A" d="M191.9,138.5c0,14.699,10.8,26.6,24.101,26.6c13.3,0,24.1-11.9,24.1-26.6c0-14.7-10.8-26.601-24.1-26.601 C202.7,111.899,191.9,123.8,191.9,138.5L191.9,138.5z M259.501,97.1v70c-3.101,64.5-77.9,52.7-86.101,18.8h23.601 c6.5,16.601,42.1,13,44.8-16.2c-7.4,7.601-17.601,12.4-28.8,12.4c-22.801,0-41.301-19.5-41.301-43.6 c0-24.101,18.5-43.601,41.301-43.601c10.699,0,20.5,4.3,27.8,11.4v-9L259.501,97.1L259.501,97.1z"/>
<path fill="#E13B35" d="M267.2,210.199V189h84.101c15.601-0.101,25.2-12.101,28.601-36H266.6c0.7-52.2,16.7-78.2,47.801-78h83.6 v20.6h-78.5c-21.4,1.1-32.7,13.3-34,36.4h112.6c-0.6,50.5-16.399,76.5-47.5,78L267.2,210.199L267.2,210.199z"/>
<path d="M275.501,178.199c-2,0-3.7-0.699-5.101-2.1c-1.399-1.4-2.1-3.2-2.1-5.2s0.7-3.8,2.1-5.2c1.4-1.399,3.101-2.199,5.101-2.199 s3.699,0.699,5.1,2.199c1.4,1.4,2.1,3.2,2.1,5.2c0,0.5,0,1-0.1,1.5h-10.7c0.2,0.601,0.5,1.101,0.9,1.601 c0.8,0.8,1.7,1.199,2.8,1.199c0.7,0,1.3-0.199,1.9-0.5c0.6-0.3,1-0.699,1.3-1.3h3.5c-0.4,1.5-1.3,2.601-2.5,3.5 C278.6,177.8,277.1,178.199,275.501,178.199L275.501,178.199z M279.301,169.699c-0.2-0.699-0.5-1.399-1-1.899 c-0.7-0.8-1.7-1.3-2.8-1.3c-1.101,0-2,0.399-2.801,1.3c-0.5,0.6-0.8,1.2-1,1.899H279.301L279.301,169.699z"/>
<path d="M290.301,167.699c-0.101-0.399-0.2-0.699-0.5-0.899c-0.2-0.2-0.5-0.3-0.9-0.3c-0.399,0-0.7,0.1-0.899,0.3 c-0.2,0.2-0.4,0.5-0.4,0.8s0.1,0.6,0.4,0.8c0.3,0.2,0.899,0.4,1.699,0.7c1.4,0.4,2.5,1,3.101,1.7c0.6,0.7,0.899,1.5,0.899,2.6 c0,1.4-0.5,2.5-1.399,3.4c-0.9,0.899-2.101,1.3-3.5,1.3c-1.4,0-2.601-0.4-3.601-1.3c-0.899-0.9-1.399-2-1.5-3.5h3.4 c0.1,0.6,0.3,1,0.6,1.3c0.301,0.3,0.7,0.5,1.2,0.5s0.8-0.1,1.101-0.4c0.3-0.3,0.399-0.6,0.399-1c0-0.399-0.1-0.8-0.399-1 c-0.3-0.199-0.8-0.5-1.5-0.699c-1.5-0.5-2.601-1-3.3-1.7c-0.7-0.7-1-1.5-1-2.601c0-1.3,0.399-2.3,1.3-3.1c0.899-0.8,2-1.2,3.399-1.2 c1.2,0,2.2,0.4,3.101,1.2c0.899,0.8,1.3,1.8,1.399,3L290.301,167.699L290.301,167.699L290.301,167.699z"/>
<polygon points="296.501,177.699 296.501,166.899 294.9,166.899 294.9,164 296.501,164 296.501,159.399 299.801,159.399  299.801,164 301.801,164 301.801,166.899 299.801,166.899 299.801,177.699 "/>
<path d="M309.701,178.199c-2,0-3.801-0.699-5.2-2.1c-1.4-1.4-2.101-3.2-2.101-5.2s0.7-3.8,2.101-5.2 c1.399-1.399,3.2-2.199,5.2-2.199s3.8,0.699,5.2,2.199c1.399,1.4,2.1,3.2,2.1,5.2s-0.7,3.8-2.1,5.2 C313.501,177.5,311.801,178.199,309.701,178.199L309.701,178.199z M309.701,175.199c1.1,0,2.1-0.399,2.899-1.199 c0.8-0.801,1.101-1.9,1.101-3.101s-0.4-2.3-1.101-3.1c-0.8-0.8-1.7-1.2-2.899-1.2c-1.101,0-2.101,0.4-2.8,1.2 c-0.801,0.8-1.101,1.899-1.101,3.1s0.399,2.3,1.101,3.101C307.701,174.8,308.6,175.199,309.701,175.199L309.701,175.199z"/>
<path d="M319.301,164h1.5h1.5v1l0.2-0.2c0.6-0.9,1.6-1.3,2.9-1.3h0.199v3.199c-0.899,0.101-1.6,0.301-2.1,0.7 c-0.6,0.5-0.9,1.3-0.9,2.4v8h-1.6h-1.7V164L319.301,164z"/>
<path d="M327.1,164h1.601h1.7v13.8h-1.601h-1.7V164L327.1,164z M326.301,159.899l5.601-3.2l1.399,2.601l-5.7,2.899L326.301,159.899 L326.301,159.899z"/>
<path d="M339.1,178.199c-1.899,0-3.5-0.699-4.8-2.1s-2-3.2-2-5.2s0.7-3.8,2-5.2c1.3-1.399,2.9-2.199,4.8-2.199 c1.801,0,3.4,0.699,4.7,2V164h3.101v13.8h-1.5h-1.5v-1.5C342.501,177.6,340.901,178.199,339.1,178.199L339.1,178.199z  M339.701,166.5c-1.2,0-2.101,0.399-2.9,1.3c-0.8,0.8-1.2,1.899-1.2,3.1s0.4,2.3,1.2,3.101c0.8,0.8,1.7,1.3,2.9,1.3 c1.199,0,2.1-0.4,2.899-1.3c0.8-0.801,1.2-1.9,1.2-3.101s-0.399-2.3-1.2-3.1C341.801,166.899,340.801,166.5,339.701,166.5 L339.701,166.5z"/>
<path d="M313.001,124.899c-2,0-3.8-0.7-5.2-2.1c-1.4-1.4-2.101-3.2-2.101-5.2s0.7-3.8,2.101-5.2c1.4-1.399,3.2-2.2,5.2-2.2 s3.8,0.7,5.2,2.2c1.399,1.4,2.1,3.2,2.1,5.2s-0.7,3.8-2.1,5.2C316.801,124.1,315.1,124.899,313.001,124.899L313.001,124.899z  M313.001,121.8c1.1,0,2.1-0.4,2.9-1.2c0.8-0.8,1.1-1.9,1.1-3.1c0-1.2-0.4-2.301-1.1-3.101c-0.7-0.8-1.7-1.2-2.9-1.2 c-1.1,0-2.1,0.4-2.8,1.2c-0.8,0.8-1.101,1.9-1.101,3.101c0,1.199,0.4,2.3,1.101,3.1C311.001,121.399,311.901,121.8,313.001,121.8 L313.001,121.8z"/>
<polygon points="322.301,106 324.001,106 325.6,106 325.6,124.399 324.001,124.399 322.301,124.399 "/>
<path d="M334.501,124.899c-1.9,0-3.5-0.7-4.8-2.1c-1.3-1.4-2-3.2-2-5.2s0.7-3.8,2-5.2c1.3-1.399,2.899-2.2,4.8-2.2 c1.8,0,3.4,0.7,4.7,2v-1.6h3.1v13.8h-1.5h-1.5v-1.5C337.801,124.199,336.301,124.899,334.501,124.899L334.501,124.899z  M335.001,113.199c-1.1,0-2.1,0.4-2.9,1.301c-0.8,0.8-1.199,1.899-1.199,3.1s0.399,2.3,1.199,3.1c0.801,0.801,1.7,1.2,2.9,1.2 s2.1-0.399,2.9-1.2c0.8-0.8,1.199-1.899,1.199-3.1s-0.399-2.3-1.199-3.1C337.1,113.6,336.201,113.199,335.001,113.199 L335.001,113.199z"/>
<path d="M344.701,110.6h1.5h1.5v1.2c1.1-1.101,2.3-1.601,3.8-1.601c1.6,0,2.899,0.601,3.899,1.7c1,1.101,1.4,2.601,1.4,4.5v8.101 h-1.6h-1.7v-7.4c0-1.3-0.2-2.2-0.7-2.9c-0.5-0.699-1.2-1-2.1-1c-1,0-1.7,0.301-2.2,1c-0.5,0.7-0.7,1.7-0.7,3v7.301h-1.6h-1.7v-13.9 H344.701z"/>
<path d="M365.701,124.899c-1.9,0-3.5-0.7-4.8-2.1c-1.301-1.4-2-3.2-2-5.2s0.699-3.8,2-5.2c1.3-1.399,2.899-2.2,4.8-2.2 c1.8,0,3.399,0.7,4.7,2v-1.6h3.1v13.8h-1.5h-1.6v-1.5C369.1,124.199,367.6,124.899,365.701,124.899L365.701,124.899z  M366.301,113.199c-1.1,0-2.1,0.4-2.899,1.301c-0.801,0.8-1.2,1.899-1.2,3.1s0.399,2.3,1.2,3.1c0.8,0.801,1.699,1.2,2.899,1.2 s2.101-0.399,2.9-1.2c0.8-0.8,1.2-1.899,1.2-3.1s-0.4-2.3-1.2-3.1C368.401,113.6,367.401,113.199,366.301,113.199L366.301,113.199z" />
<path d="M381.501,114.3c-0.1-0.4-0.2-0.7-0.5-0.9c-0.2-0.2-0.5-0.3-0.9-0.3c-0.399,0-0.699,0.1-0.899,0.3s-0.4,0.5-0.4,0.8 c0,0.301,0.2,0.601,0.5,0.801c0.3,0.199,0.9,0.399,1.7,0.699c1.5,0.4,2.5,1,3.1,1.7c0.601,0.7,0.9,1.5,0.9,2.601 c0,1.399-0.5,2.5-1.4,3.399c-0.899,0.9-2.1,1.3-3.5,1.3c-1.399,0-2.6-0.399-3.6-1.3c-0.9-0.899-1.4-2-1.5-3.5h3.4 c0.1,0.601,0.3,1,0.6,1.3c0.3,0.301,0.7,0.4,1.2,0.4s0.8-0.1,1.1-0.4c0.3-0.3,0.4-0.6,0.4-1c0-0.399-0.101-0.8-0.4-1 c-0.3-0.199-0.8-0.5-1.5-0.699c-1.5-0.5-2.6-1-3.3-1.7s-1-1.5-1-2.601c0-1.3,0.4-2.3,1.3-3.1c0.9-0.8,2-1.2,3.4-1.2 c1.2,0,2.2,0.4,3.1,1.2c0.9,0.8,1.3,1.8,1.4,3L381.501,114.3L381.501,114.3L381.501,114.3z"/>
</svg>
