
<svg version="1.1" id="Capa_1" xmlns="http://www.w3.org/2000/svg" xmlns:xlink="http://www.w3.org/1999/xlink" x="0px" y="0px"
	 viewBox="0 0 846 296.984" enable-background="new 0 0 846 296.984" xml:space="preserve">
<g id="fondo" display="none">
	<rect x="0" y="-120.488" display="inline" fill="#CECECC" width="846" height="601.035"/>
</g>
<g id="letras">
	<g>
		<g>

				<radialGradient id="XMLID_3_" cx="90.0447" cy="462.6853" r="134.7876" gradientTransform="matrix(1 0 0 1 58.9448 -314.6553)" gradientUnits="userSpaceOnUse">
				<stop  offset="0" style="stop-color:#FFFAD2"/>
				<stop  offset="0.1171" style="stop-color:#FEF3C0"/>
				<stop  offset="0.3487" style="stop-color:#F3DE92"/>
				<stop  offset="0.3708" style="stop-color:#F2DC8E"/>
				<stop  offset="0.6854" style="stop-color:#F0BF00"/>
				<stop  offset="1" style="stop-color:#C9961A"/>
			</radialGradient>
			<polygon id="XMLID_20_" fill="url(#XMLID_3_)" points="148.99,13.242 283.778,148.029 148.99,282.817 14.201,148.029 			"/>
		</g>
		<g>
			<polygon id="XMLID_1_" fill="none" stroke="#F2E9CE" stroke-width="5" stroke-miterlimit="10" points="148.99,13.242
				283.778,148.029 148.99,282.817 14.201,148.029 			"/>
		</g>
	</g>
	<text transform="matrix(1 0 0 1 149.6804 186.3875)" fill="#010202" font-family="'NexaBold'" font-size="8.3404"> </text>

		<linearGradient id="SVGID_1_" gradientUnits="userSpaceOnUse" x1="12.8113" y1="457.1697" x2="94.572" y2="457.1697" gradientTransform="matrix(1 0 0 1 58.9448 -314.6553)">
		<stop  offset="0" style="stop-color:#E58A76"/>
		<stop  offset="0.5112" style="stop-color:#AA3C17"/>
		<stop  offset="1" style="stop-color:#611C01"/>
	</linearGradient>
	<polygon fill="url(#SVGID_1_)" points="71.756,129.275 117.463,91.895 142.574,160.682 153.517,193.133 105.468,193.133 	"/>

		<linearGradient id="SVGID_2_" gradientUnits="userSpaceOnUse" x1="59.6912" y1="448.0876" x2="161.7791" y2="448.0876" gradientTransform="matrix(1 0 0 1 58.9448 -314.6553)">
		<stop  offset="0" style="stop-color:#3C7F7A"/>
		<stop  offset="0.5169" style="stop-color:#006860"/>
		<stop  offset="1" style="stop-color:#00473C"/>
	</linearGradient>
	<polygon fill="url(#SVGID_2_)" points="155.977,73.733 220.724,112.043 171.37,193.133 118.636,193.133 	"/>
	<line fill="none" stroke="#000000" stroke-miterlimit="10" x1="80.273" y1="193.133" x2="213.561" y2="193.133"/>
</g>
<text transform="matrix(1 0 0 1 309.3386 177.863)" fill="#211C40" font-family="'SlugSingle'" font-size="75.3341" letter-spacing="3">JORGE </text>
<text transform="matrix(1 0 0 1 577.3313 177.863)" fill="#211C40" font-family="'SlugSingle'" font-size="75.3341" letter-spacing="3">ATGU</text>
</svg>
