<svg version="1.1" xmlns="http://www.w3.org/2000/svg" xmlns:xlink="http://www.w3.org/1999/xlink" x="0px" y="0px" width="595.301px" height="299px">
	<rect x="0" fill="#E0B16B" width="595.301" height="299"/>
		<path fill="#31286A" d="M138.8,71H150.6v138h25.5v11.399H138.8V71L138.8,71z"/>
		<path fill="#31286A" d="M184.7,216.3c-2.8-2.4-4.6-5.7-5.7-8.7c-2.2-6-2.2-11.1-2.2-11.6V95.399c0-0.399,0-3.399,0.9-7.5 c0.9-3.899,2.8-9.1,7-12.8c2.8-2.5,6.6-4,10.8-4s7.9,1.5,10.8,4c2.801,2.4,4.601,5.7,5.801,8.7c2.1,6,2.1,11.1,2.1,11.6V196 c0,0.399,0,3.399-0.9,7.5c-0.899,3.899-2.699,9.1-7,12.8c-2.8,2.5-6.399,4-10.6,4h-0.1C191.3,220.399,187.6,218.899,184.7,216.3z  M188.8,196.8c0.101,0.6,0.101,1.5,0.4,2.5c0.4,1.899,1.2,3.7,2.4,4.6c0.699,0.7,1.8,1.3,3.899,1.3c2.101,0,3-0.6,3.7-1.199 c0.7-0.601,1.3-1.301,1.8-2.5c0.9-1.9,1.2-5.101,1.2-5.5V95.399c0-0.1,0-0.399,0-0.7c-0.1-0.6-0.1-1.5-0.4-2.5 C201.4,90.3,200.6,88.5,199.4,87.6c-0.7-0.7-1.8-1.3-3.9-1.3c-1.899,0-3,0.6-3.7,1.2c-0.699,0.6-1.3,1.3-1.8,2.5 c-0.899,1.899-1.2,5.1-1.2,5.5v100.6C188.8,196.199,188.8,196.5,188.8,196.8z"/>
		<path fill="#31286A" d="M221,207.699c-2.2-6-2.2-11-2.2-11.6v-100.7c0-0.399,0-3.399,0.9-7.5c0.9-3.899,2.8-9.1,7-12.8 c2.8-2.5,6.6-4,10.8-4s7.9,1.5,10.8,4c2.801,2.4,4.601,5.7,5.7,8.7c2.2,6,2.2,11.1,2.2,11.6h-11.9c0-0.1,0-0.399,0-0.7 c-0.1-0.6-0.1-1.5-0.399-2.5c-0.4-1.899-1.2-3.699-2.4-4.6c-0.7-0.7-1.8-1.3-3.899-1.3c-2.101,0-3,0.6-3.7,1.2 c-0.7,0.6-1.3,1.3-1.8,2.5c-0.9,1.899-1.2,5.1-1.2,5.5v100.6c0,0.1,0,0.4,0,0.7c0.1,0.6,0.1,1.5,0.399,2.5 c0.4,1.899,1.2,3.7,2.4,4.6c0.7,0.7,1.8,1.3,3.9,1.3c0,0,0.3,0,0.399-0.1c0.4,0,1-0.2,1.8-0.4c0.7-0.3,1.301-0.6,1.9-1h-4.2V188.5 h18.7v7.6c0,5.4-1,10.2-3,13.7c-1.8,3.7-4.3,6.1-6.6,7.6c-4.601,3-8.7,3-9.101,3h-0.1c-4.2,0-7.8-1.5-10.601-4 C223.9,213.899,222.1,210.6,221,207.699z"/>
		<path fill="#31286A" d="M265.7,216.3c-2.8-2.4-4.6-5.7-5.7-8.7c-2.2-6-2.2-11.1-2.2-11.6V95.399c0-0.399,0-3.399,0.9-7.5 c0.9-3.899,2.8-9.1,7-12.8c2.8-2.5,6.6-4,10.8-4s7.9,1.5,10.8,4c2.801,2.4,4.601,5.7,5.801,8.7c2.1,6,2.1,11.1,2.1,11.6V196 c0,0.399,0,3.399-0.9,7.5c-0.899,3.899-2.699,9.1-7,12.8c-2.8,2.5-6.399,4-10.6,4h-0.1C272.2,220.399,268.5,218.899,265.7,216.3z  M269.7,196.8c0.1,0.6,0.1,1.5,0.4,2.5c0.399,1.899,1.199,3.7,2.399,4.6c0.7,0.7,1.8,1.3,3.9,1.3c2.1,0,3-0.6,3.7-1.199 c0.699-0.601,1.3-1.301,1.8-2.5c0.899-1.9,1.2-5.101,1.2-5.5V95.399c0-0.1,0-0.399,0-0.7c-0.101-0.6-0.101-1.5-0.4-2.5 c-0.4-1.899-1.2-3.699-2.4-4.6c-0.699-0.7-1.8-1.3-3.899-1.3c-1.9,0-3,0.6-3.7,1.2c-0.7,0.6-1.3,1.3-1.8,2.5 c-0.9,1.899-1.2,5.1-1.2,5.5v100.6C269.7,196.199,269.7,196.5,269.7,196.8z"/>
		<path fill="#31286A" d="M337.001,83.699H323.7V220.3h-11.399V83.699h-12.7V71h37.4V83.699L337.001,83.699z"/>
		<path fill="#31286A" d="M339.1,71h10.9v149.3h-10.9V71z"/>
		<path fill="#31286A" d="M355.1,71h18.7c0.399,0,2.7,0,5.8,1.3c3.1,1.2,7.2,4,10,9.7c1.8,3.899,2.8,8.8,2.8,14.5 c0,5.699-1,10.8-2.8,14.5c-1.9,3.899-4.3,6.399-6.7,8.1c-4.6,3.1-8.5,3-9.1,3.1h-6.8V220.3h-11.9V71z M374.2,106.3 c0.4,0,1.2-0.101,1.801-0.4c1.5-0.6,2.699-1.6,3.399-3.3c0.601-1,1-2.7,1-6c0-3-0.399-4.6-0.899-5.7c-0.4-1.2-1-1.899-1.9-2.5 c-1.3-1.2-3.4-1.5-3.9-1.5h-6.699V106.5h6.699C373.9,106.399,374.1,106.399,374.2,106.3z"/>
		<path fill="#31286A" d="M401.801,216.3c-2.8-2.4-4.601-5.7-5.7-8.7c-2.2-6-2.2-11.1-2.2-11.6V95.399c0-0.399,0-3.399,0.9-7.5 c0.899-3.899,2.8-9.1,7-12.8c2.8-2.5,6.6-4,10.8-4s7.899,1.5,10.8,4c2.8,2.4,4.6,5.7,5.8,8.7c2.101,6,2.101,11.1,2.101,11.6V196 c0,0.399,0,3.399-0.9,7.5c-0.9,3.899-2.7,9.1-7,12.8c-2.8,2.5-6.4,4-10.6,4H412.7C408.4,220.399,404.7,218.899,401.801,216.3z  M405.9,196.8c0.101,0.6,0.101,1.5,0.4,2.5c0.399,1.899,1.2,3.7,2.399,4.6c0.7,0.7,1.8,1.3,3.9,1.3c2.1,0,3-0.6,3.7-1.199 c0.7-0.601,1.3-1.301,1.8-2.5c0.899-1.9,1.2-5.101,1.2-5.5V95.399c0-0.1,0-0.399,0-0.7c-0.101-0.6-0.101-1.5-0.4-2.5 c-0.399-1.899-1.2-3.699-2.399-4.6c-0.7-0.7-1.801-1.3-3.9-1.3c-1.9,0-3,0.6-3.7,1.2c-0.7,0.6-1.3,1.3-1.8,2.5 c-0.9,1.899-1.2,5.1-1.2,5.5v100.6C405.9,196.199,405.9,196.5,405.9,196.8z"/>
		<path fill="#31286A" d="M459.9,142.399c13.101,34.5,13.4,52.4,13.4,53.601c0,0.399,0,3.399-0.9,7.5c-0.899,3.899-2.8,9.1-7.2,12.8 c-2.7,2.5-6.399,4-10.6,4c0,0,0,0-0.101,0c-4.199,0-7.899-1.5-10.8-4c-2.8-2.4-4.6-5.7-5.7-8.7c-2.199-6-2.199-11.1-2.199-11.6 H447.7c0,0.1,0,0.399,0,0.699c0.101,0.601,0.3,1.5,0.4,2.5c0.399,1.9,1.3,3.7,2.399,4.601c0.7,0.7,1.801,1.3,3.9,1.3 s3.1-0.6,3.9-1.2c0.699-0.6,1.199-1.3,1.6-2.5c1-1.899,1.2-4.899,1.2-5.5c0,0,0-0.1,0-0.3c0-0.4,0-1-0.101-1.9 c-0.1-1.8-0.399-4.6-1.199-8.5c-1.5-7.899-4.5-20-10.801-36.3c-13-34.5-13.3-52.399-13.3-53.6c0-0.4,0-3.4,0.9-7.5 c0.899-3.9,2.8-9.101,7-12.8c2.8-2.5,6.6-4,10.8-4s8.1,1.5,10.8,4c2.8,2.399,4.8,5.699,5.8,8.699c2.2,6,2.101,11.101,2.2,11.601 h-12.1c0-0.101,0-0.4,0-0.7c0-0.6-0.101-1.5-0.4-2.5c-0.399-1.9-1.2-3.7-2.2-4.6c-0.699-0.7-1.8-1.301-4-1.301 c-1.899,0-3,0.601-3.699,1.2c-0.7,0.601-1.301,1.3-1.801,2.5c-0.899,1.9-1.199,4.9-1.199,5.5c0,0,0,0.101,0,0.3 c0,0.4,0.1,1,0.1,1.9c0.1,1.8,0.6,4.6,1.3,8.5C450.801,114,453.801,126.1,459.9,142.399z"/>
</svg>