
<svg version="1.1" id="GN" xmlns="http://www.w3.org/2000/svg" xmlns:xlink="http://www.w3.org/1999/xlink" x="0px" y="0px"
	 width="250px" height="293px" viewBox="0 0 250 293" enable-background="new 0 0 250 293" xml:space="preserve">
<g>
	<path fill="#FFFFFF" d="M36.455,42.884h8.92v13.785c0,6.954-3.244,10.927-9.5,10.927s-9.5-3.974-9.5-10.927V34.068
		c0-6.954,3.245-10.928,9.5-10.928s9.5,3.974,9.5,10.928v4.222h-6.024v-4.656c0-3.105-1.275-4.284-3.302-4.284
		s-3.301,1.179-3.301,4.284v23.47c0,3.104,1.274,4.222,3.301,4.222s3.302-1.118,3.302-4.222v-8.01h-2.896V42.884z"/>
	<path fill="#FFFFFF" d="M55.165,35.62V67.1H49.43V23.636h7.994l6.546,26.016V23.636h5.677V67.1h-6.546L55.165,35.62z"/>
</g>
<g id="_189263792" transform="matrix(4.675013,0,0,4.675013,-1353.75,-678.4329)">
	<rect id="_151141056" x="289.571" y="145.12" fill="#FF9900" width="53.476" height="62.531"/>
	<rect id="_151140504" x="320.836" y="176.385" display="none" fill="#DE8500" width="31.266" height="31.17"/>
	<rect id="_151140120" x="289.572" y="145.119" fill="#FFB13B" width="31.267" height="31.267"/>
	<g id="g107">
		<circle id="_151139416" fill="#FF9900" cx="299.477" cy="171.816" r="9.824"/>
		<circle id="_151137016" fill="#FF9900" cx="304.419" cy="159.885" r="9.824"/>
		<circle id="_151136448" fill="#FF9900" cx="316.35" cy="154.943" r="9.824"/>
		<circle id="_151135880" fill="#FF9900" cx="328.281" cy="159.885" r="9.824"/>
		<circle id="_151135312" fill="#FF9900" cx="333.223" cy="171.816" r="9.824"/>
		<circle id="_151134744" fill="#FF9900" cx="328.281" cy="183.748" r="9.824"/>
		<circle id="_151134176" fill="#FF9900" cx="316.35" cy="188.69" r="9.824"/>
		<circle id="_151038344" fill="#FF9900" cx="304.419" cy="183.748" r="9.824"/>
	</g>
	<path id="_151038768" d="M323.339,154.943c0-3.859-3.13-6.989-6.989-6.989c-3.859,0-6.989,3.13-6.989,6.989
		c-2.73-2.728-7.155-2.728-9.885,0c-2.728,2.73-2.728,7.155,0,9.885c-3.859,0-6.989,3.13-6.989,6.989
		c0,3.859,3.13,6.989,6.989,6.989c-2.728,2.73-2.728,7.155,0,9.885c2.73,2.727,7.155,2.727,9.885,0c0,3.859,3.13,6.989,6.989,6.989
		c3.859,0,6.989-3.13,6.989-6.989c2.73,2.727,7.155,2.727,9.885,0c2.728-2.73,2.728-7.155,0-9.885c3.859,0,6.987-3.13,6.987-6.989
		c0-3.859-3.128-6.989-6.987-6.989c2.728-2.73,2.728-7.155,0-9.885C330.494,152.215,326.069,152.215,323.339,154.943z"/>
	<path id="_151037224" fill="#FFFFFF" d="M319.024,157.619v7.739l5.473-5.473c0-0.967,0.369-1.936,1.107-2.675
		c1.478-1.478,3.875-1.478,5.351,0c1.479,1.476,1.479,3.873,0,5.351c-0.738,0.738-1.707,1.107-2.675,1.107l-5.473,5.473h7.739
		c0.685-0.685,1.63-1.109,2.676-1.109c2.088,0,3.782,1.695,3.782,3.784c0,2.088-1.693,3.784-3.782,3.784
		c-1.046,0-1.992-0.424-2.676-1.109h-7.739l5.473,5.473c0.967,0,1.936,0.369,2.675,1.107c1.479,1.478,1.479,3.874,0,5.351
		c-1.476,1.479-3.873,1.479-5.351,0c-0.738-0.738-1.107-1.707-1.107-2.674l-5.473-5.473v7.739c0.685,0.685,1.109,1.631,1.109,2.677
		c0,2.088-1.696,3.782-3.784,3.782c-2.088,0-3.784-1.693-3.784-3.782c0-1.046,0.424-1.992,1.11-2.677v-7.739l-5.473,5.473
		c0,0.967-0.369,1.936-1.107,2.674c-1.478,1.479-3.874,1.479-5.351,0c-1.478-1.476-1.478-3.872,0-5.351
		c0.738-0.738,1.707-1.107,2.674-1.107l5.473-5.473h-7.739c-0.685,0.685-1.63,1.109-2.676,1.109c-2.088,0-3.782-1.695-3.782-3.784
		c0-2.089,1.693-3.784,3.782-3.784c1.046,0,1.991,0.424,2.676,1.109h7.739l-5.473-5.473c-0.967,0-1.936-0.369-2.674-1.107
		c-1.478-1.478-1.478-3.874,0-5.351c1.476-1.478,3.872-1.478,5.351,0c0.738,0.738,1.107,1.707,1.107,2.675l5.473,5.473v-7.739
		c-0.685-0.685-1.11-1.63-1.11-2.676c0-2.088,1.696-3.782,3.784-3.782c2.088,0,3.784,1.694,3.784,3.782
		C320.134,155.989,319.709,156.934,319.024,157.619z"/>
	<rect id="_151036536" x="292.489" y="171.857" width="47.72" height="23.82"/>
	<rect id="_151035984" x="292.489" y="185.224" width="47.72" height="10.454"/>
	<path id="_151164400" fill="#3F3F3F" d="M297.49,174.066h38.106c1.561,0,2.836,1.275,2.836,2.837v9.567
		c-14.726-1.822-29.326-4.341-43.779-4.107v-5.46C294.654,175.342,295.929,174.066,297.49,174.066L297.49,174.066z"/>
	<polygon id="_151164136" fill="#FFFFFF" stroke="#000000" stroke-width="0.5035" points="322.539,173.423 318.134,194.7
		314.483,194.7 310.075,173.423 313.727,173.423 316.308,185.885 318.888,173.423 	"/>
	<path id="_151163752" fill="#FFFFFF" stroke="#000000" stroke-width="0.5035" d="M328.773,182.236h6.233v6.231l0,0
		c0,3.442-2.791,6.233-6.231,6.233c-3.442,0-6.233-2.791-6.233-6.233l0,0v-8.813h-0.002c0-3.44,2.791-6.231,6.233-6.231
		c3.442,0,6.233,2.791,6.233,6.231h-3.651c0-1.425-1.157-2.58-2.581-2.58c-1.425,0-2.58,1.155-2.58,2.58v8.813l0,0
		c0,1.425,1.155,2.581,2.58,2.581c1.425,0,2.581-1.157,2.581-2.58v-0.002v-2.58h-2.581V182.236L328.773,182.236z"/>
	<path id="_151162704" fill="#FFFFFF" stroke="#000000" stroke-width="0.5035" d="M299.437,184.061
		c-1.127-1.129-1.826-2.686-1.826-4.407c0-3.442,2.791-6.231,6.233-6.231c3.44,0,6.231,2.789,6.231,6.231h-3.65
		c0-1.425-1.157-2.582-2.582-2.582c-1.425,0-2.582,1.157-2.582,2.582c0,0.713,0.288,1.356,0.754,1.824h0.002
		c0.468,0.468,1.113,0.756,1.826,0.756v0.002c1.721,0,3.278,0.697,4.406,1.826l0,0c1.129,1.127,1.826,2.687,1.826,4.406
		c0,3.442-2.791,6.233-6.231,6.233c-3.442,0-6.233-2.791-6.233-6.233h3.651c0,1.427,1.157,2.581,2.582,2.581
		c1.425,0,2.582-1.155,2.582-2.581c0-0.711-0.288-1.356-0.756-1.824l0,0c-0.468-0.466-1.113-0.756-1.826-0.756l0,0
		C302.123,185.887,300.566,185.189,299.437,184.061L299.437,184.061L299.437,184.061z"/>
</g>
</svg>
