<svg version="1.1" xmlns="http://www.w3.org/2000/svg" xmlns:xlink="http://www.w3.org/1999/xlink" x="0px" y="0px" width="595.301px" height="299px">
<rect x="1.301" fill="#34495E" width="594" height="299"/>
	<path fill="#FFFFFF" d="M206.9,90.699c0,1.801,1.5,3.4,3.4,3.4c1.899,0,3.399-1.5,3.399-3.4V82.3h-3.5v-6.7h10.101v15.1 c0,5.601-4.5,10.101-10.101,10.101c-5.6,0-10.1-4.5-10.1-10.101H206.9L206.9,90.699z"/>
	<path fill="#FFFFFF" d="M234.2,75.199c7,0,12.8,5.7,12.8,12.7s-5.699,12.7-12.8,12.7c-7,0-12.8-5.7-12.8-12.7 S227.2,75.199,234.2,75.199z M234.2,94c3.3,0,6-2.7,6-6c0-3.301-2.7-6-6-6s-6,2.699-6,6C228.2,91.3,230.9,94,234.2,94z"/>
	<path fill="#FFFFFF" d="M248.1,75.6H259c5.601,0,10.101,4.5,10.101,10.1c0,4.101-2.4,7.5-5.7,9.101l5.7,5.7h-9.4l-4.8-4.801v4.801 h-6.7L248.1,75.6L248.1,75.6z M259.1,89c1.8,0,3.399-1.5,3.399-3.4c0-1.8-1.5-3.4-3.399-3.4h-4.2v6.7L259.1,89L259.1,89z"/>
	<path fill="#FFFFFF" d="M282.4,75.6h10.2v6.7h-10.2c-3.1,0-5.7,2.6-5.7,5.7c0,3.1,2.601,5.699,5.7,5.699h3.5v-9.1h6.7v15.8h-10.2 c-6.8,0-12.5-5.6-12.5-12.399C270,81.1,275.6,75.6,282.4,75.6z"/>
	<path fill="#FFFFFF" d="M294.301,75.6h16.8v6.7H301v2.3h8.4v6.7H301v2.3H311.1v6.7h-16.8V75.6z"/>
	<path fill="#FFFFFF" d="M331.801,74.899l13.2,25.5h-26.3L331.801,74.899z M333.9,93.699l-2.1-4.199l-2.2,4.199H333.9z"/>
	<path fill="#FFFFFF" d="M347.4,82.3h-5v-6.7h16.801v6.7h-5v18.1h-6.7V82.3H347.4z"/>
	<path fill="#FFFFFF" d="M372.801,75.6h10.2v6.7h-10.2c-3.1,0-5.7,2.6-5.7,5.7c0,3.1,2.601,5.699,5.7,5.699h3.5v-9.1h6.7v15.8h-10.2 c-6.8,0-12.4-5.6-12.4-12.399C360.301,81.1,365.9,75.6,372.801,75.6z"/>
	<path fill="#FFFFFF" d="M384.701,75.6h6.699v14.2c0,2.3,1.9,4.2,4.2,4.2s4.2-1.9,4.2-4.2V75.6h6.7v14.2c0,6-4.9,10.899-10.9,10.899 S384.701,95.8,384.701,89.8V75.6L384.701,75.6z"/>
	<path fill="#FFFFFF" d="M243.6,186.199h6.7v9.101H257v-9.101h6.7V211H257v-9.101h-6.699V211h-6.7V186.199z"/>
	<path fill="#FFFFFF" d="M270.4,192.899h-5v-6.7h16.8v6.7h-5V211h-6.7L270.4,192.899L270.4,192.899z"/>
	<path fill="#FFFFFF" d="M283.9,196c0-5.601,4.5-10.101,10.1-10.101c2.601,0,4.9,1,6.7,2.601c1.8-1.601,4.101-2.601,6.7-2.601 c5.601,0,10.101,4.5,10.101,10.101v15.1h-6.7V196c0-1.801-1.5-3.4-3.4-3.4c-1.8,0-3.399,1.5-3.399,3.4v15.1h-6.7V196 c0-1.801-1.5-3.4-3.4-3.4c-1.8,0-3.399,1.5-3.399,3.4v15.1h-6.7L283.9,196L283.9,196z"/>
	<path fill="#FFFFFF" d="M319.1,186.199h6.7V204.3h10.1v6.7h-16.8V186.199L319.1,186.199z"/>
	<path fill="#FFFFFF" d="M345.9,204.3h10.301c0.6,0,1.199-0.5,1.199-1.2c0-0.6-0.5-1.2-1.199-1.2h-10.2v-15.8H363.4v6.7h-10.7v2.3 h3.5c4.4,0,7.9,3.5,7.9,7.9c0,4.399-3.5,7.899-7.9,7.899h-10.199v-6.6H345.9L345.9,204.3z"/>
	<path fill="#FFD484" d="M75,131.899l-12.6,12.5l12.6,12.5c-6.899,6.9-18.199,6.9-25.1,0c-6.9-6.899-6.9-18.1,0-25 C56.9,125,68.1,125,75,131.899z"/>
	<path fill="#FFD484" d="M76.301,127.6c34.5,0-0.801,0,33.699,0v17.6C110,154.5,102.4,162,93.1,162s-16.9-7.5-16.9-16.801v-17.6 H76.301z"/>
	<path fill="#FFD484" d="M142.6,141.3c0,4.399-2,8.2-5.3,10.7l5,9.3c-9.9,0-19.801,0-29.601,0c0-37.2,0-7.7,0-33.601h16.2 C136.5,127.6,142.6,133.699,142.6,141.3z"/>
	<path fill="#FFD484" d="M174.5,141.3c0,4.399-2,8.2-5.199,10.7l5,9.3c-9.9,0-19.801,0-29.601,0c0-37.2,0-7.7,0-33.601h16.2 C168.4,127.6,174.5,133.699,174.5,141.3z"/>
	<path fill="#FFD484" d="M194,127.6v33.6h-17.5v-33.6H194z"/>
	<path fill="#FFD484" d="M226.301,131.899l-12.601,12.5l12.601,12.5c-6.9,6.9-18.2,6.9-25.101,0c-6.899-6.899-6.899-18.1,0-25 C208.1,125,219.301,125,226.301,131.899z"/>
	<path fill="#FFD484" d="M227.5,127.6c34.5,0-0.8,0,33.7,0v17.6c0,9.301-7.6,16.801-16.899,16.801c-9.301,0-16.9-7.5-16.9-16.801 L227.5,127.6L227.5,127.6z"/>
	<path fill="#FFD484" d="M290.1,144.399v16.8h-26.2c0-11.199,0-22.399,0-33.6h16.9v16.8H290.1L290.1,144.399z"/>
	<path fill="#FFD484" d="M292.7,127.6c34.501,0-0.8,0,33.7,0v17.6c0,9.301-7.6,16.801-16.899,16.801c-9.301,0-16.9-7.5-16.9-16.801 L292.7,127.6L292.7,127.6z"/>
	<path fill="#FFD484" d="M329.001,126.399l16.899,12.7l16.9-12.7l0.1,34.9h-33.699L329.001,126.399z"/>
	<path fill="#FFD484" d="M403.701,163.6l-21.301-36c37.2,0,5.601,0,42.601,0L403.701,163.6z"/>
	<path fill="#FFD484" d="M442.801,127.6v33.6h-17.5v-33.6H442.801z"/>
	<path fill="#FFD484" d="M469.1,161.3h-16.899v-16.8h-7v-16.9H475.6v16.8h-6.6L469.1,161.3L469.1,161.3z"/>
	<path fill="#FFD484" d="M491.6,125.3l21.3,35.899c-37.199,0-5.5,0-42.6,0L491.6,125.3z"/>
	<path fill="#FFD484" d="M540.701,127.6v11.3h-7v1.4h7v8.1h-7v1.4h7v11.3h-27.9v-33.5H540.701L540.701,127.6z"/>
</svg>
