<svg version="1.1" xmlns="http://www.w3.org/2000/svg" xmlns:xlink="http://www.w3.org/1999/xlink" x="0px" y="0px" width="595.301px" height="299px">
<rect x="0.001" fill="#E0E6E4" width="595.3" height="299"/>
	<path fill="#DE582B" d="M220.6,155.399l-0.7-13.899c0-0.301-0.1-0.5-0.2-0.7c-0.199-0.2-0.8-0.3-1.8-0.3h-0.7c-0.6,0-1,0-1.1,0.1 c-0.2,0.1-0.2,0.1-0.2,0.2v14.6h-3.399v-39.3c0-0.5,0.3-0.8,1-1.2c0.699-0.3,2.199-0.5,4.399-0.5s3.7,0.2,4.4,0.5s1,0.7,1,1.2v21.3 c0,0.5-0.3,0.8-0.9,1.2c-0.6,0.3-2,0.5-4,0.5c2,0.1,3.4,0.4,4,0.7c0.601,0.3,0.9,0.7,0.9,1l0.7,14.6H220.6L220.6,155.399z  M220.001,118.1c0-0.3-0.101-0.5-0.2-0.7c-0.2-0.2-0.8-0.3-1.8-0.3s-1.601,0.1-1.801,0.3c-0.199,0.2-0.199,0.4-0.199,0.7v19.3 c0,0.101,0.1,0.2,0.199,0.2c0.2,0.1,0.5,0.1,1.101,0.1h0.7c1,0,1.6-0.1,1.8-0.3s0.2-0.399,0.2-0.7V118.1L220.001,118.1z"/>
	<path fill="#DE582B" d="M233.2,155.399l-3.399-35.2H229.7l0.5,7.5V155.5h-3.399v-40.601h5.399l3.4,35.2h0.1l-0.5-7.5v-27.8h3.4 v40.6H233.2z"/>
	<path fill="#DE582B" d="M250.001,155.399l-0.5-9.5h-4.5l-0.5,9.5h-3.4l1.8-39.7c0-0.399,0.3-0.699,0.8-0.899 c0.601-0.2,1.7-0.4,3.4-0.4s2.9,0.101,3.4,0.4c0.6,0.2,0.8,0.6,0.8,0.899l1.8,39.7H250.001z M248.1,117.5 c0-0.2-0.3-0.301-0.8-0.301s-0.8,0.101-0.8,0.301l-1.301,25.699h4.2L248.1,117.5z"/>
	<path fill="#DE582B" d="M258.2,155.399V117.5h-3.699v-2.7h10.8v2.7h-3.7v37.899H258.2z"/>
	<path fill="#DE582B" d="M358.001,155.399l-0.7-13.899c0-0.301-0.1-0.5-0.2-0.7c-0.2-0.2-0.8-0.3-1.8-0.3h-0.7c-0.6,0-1,0-1.1,0.1 c-0.2,0.1-0.2,0.1-0.2,0.2v14.6h-3.4v-39.3c0-0.5,0.301-0.8,1-1.2c0.7-0.3,2.2-0.5,4.4-0.5s3.7,0.2,4.4,0.5c0.699,0.3,1,0.7,1,1.2 v21.3c0,0.5-0.301,0.8-0.9,1.2c-0.6,0.3-2,0.5-4,0.5c2,0.1,3.4,0.4,4,0.7s0.9,0.7,0.9,1l0.699,14.6H358.001L358.001,155.399z  M357.301,118.1c0-0.3-0.1-0.5-0.2-0.7c-0.2-0.2-0.8-0.3-1.8-0.3s-1.6,0.1-1.8,0.3s-0.2,0.4-0.2,0.7v19.3 c0,0.101,0.101,0.2,0.2,0.2c0.2,0.1,0.5,0.1,1.1,0.1h0.7c1,0,1.601-0.1,1.8-0.3c0.2-0.2,0.2-0.399,0.2-0.7V118.1L357.301,118.1z"/>
	<path fill="#DE582B" d="M375.201,154c0,0.5-0.4,0.8-1,1.199c-0.7,0.301-2.2,0.5-4.4,0.5s-3.7-0.199-4.399-0.5 c-0.7-0.3-1-0.699-1-1.199v-37.9c0-0.5,0.3-0.8,1-1.2c0.699-0.3,2.199-0.5,4.399-0.5s3.7,0.2,4.4,0.5s1,0.7,1,1.2V154z  M367.701,152c0,0.3,0.1,0.5,0.2,0.699c0.199,0.2,0.8,0.301,1.8,0.301s1.6-0.101,1.8-0.301c0.2-0.199,0.2-0.399,0.2-0.699v-33.9 c0-0.3-0.101-0.5-0.2-0.7c-0.2-0.2-0.8-0.3-1.8-0.3s-1.601,0.1-1.8,0.3c-0.2,0.2-0.2,0.4-0.2,0.7V152z"/>
	<path fill="#DE582B" d="M378.6,116.1c0-0.5,0.4-0.8,1-1.2c0.7-0.3,2.2-0.5,4.4-0.5s3.7,0.2,4.4,0.5c0.699,0.3,1,0.7,1,1.2v17.3 c0,0.5-0.301,0.8-0.9,1.2c-0.6,0.3-2,0.5-4,0.5c2,0.1,3.4,0.4,4,0.7s0.9,0.7,0.9,1v17.3c0,0.5-0.4,0.8-1,1.2 c-0.7,0.3-2.2,0.5-4.4,0.5s-3.7-0.2-4.4-0.5c-0.699-0.3-1-0.7-1-1.2V116.1z M386.001,118.1c0-0.3-0.1-0.5-0.2-0.7 c-0.2-0.2-0.8-0.3-1.8-0.3s-1.6,0.1-1.8,0.3s-0.2,0.4-0.2,0.7v15.2c0,0.1,0.1,0.2,0.2,0.2c0.2,0.1,0.5,0.1,1.1,0.1h0.7 c1,0,1.6-0.1,1.8-0.3s0.2-0.4,0.2-0.7V118.1L386.001,118.1z M386.001,137.399c0-0.3-0.1-0.5-0.2-0.7c-0.2-0.199-0.8-0.3-1.8-0.3 h-0.7c-0.6,0-1,0-1.1,0.101c-0.2,0.1-0.2,0.1-0.2,0.199v15.2c0,0.3,0.1,0.5,0.2,0.7c0.1,0.2,0.8,0.3,1.8,0.3s1.6-0.1,1.8-0.3 s0.2-0.4,0.2-0.7V137.399L386.001,137.399z"/>
	<path fill="#DE582B" d="M403.6,154c0,0.5-0.399,0.8-1,1.199c-0.699,0.301-2.199,0.5-4.399,0.5s-3.7-0.199-4.4-0.5 c-0.7-0.3-1-0.699-1-1.199v-37.9c0-0.5,0.3-0.8,1-1.2c0.7-0.3,2.2-0.5,4.4-0.5s3.7,0.2,4.399,0.5c0.7,0.3,1,0.7,1,1.2V154z  M396.201,152c0,0.3,0.1,0.5,0.2,0.699c0.1,0.2,0.8,0.301,1.8,0.301s1.6-0.101,1.8-0.301c0.2-0.199,0.2-0.399,0.2-0.699v-33.9 c0-0.3-0.101-0.5-0.2-0.7c-0.2-0.2-0.8-0.3-1.8-0.3s-1.601,0.1-1.8,0.3c-0.2,0.2-0.2,0.4-0.2,0.7V152z"/>
	<path fill="#DE582B" d="M410.001,155.399V117.5h-3.7v-2.7h10.8v2.7h-3.699v37.899H410.001z"/>
	<path fill="#DE582B" d="M427.201,137.399c0-0.3-0.101-0.5-0.2-0.7c-0.2-0.199-0.8-0.3-1.8-0.3c-2.2,0-3.7-0.2-4.4-0.5s-1-0.7-1-1.2 v-18.6c0-0.5,0.4-0.8,1-1.2c0.7-0.3,2.2-0.5,4.4-0.5c2.199,0,3.7,0.2,4.399,0.5c0.7,0.3,1,0.7,1,1.2v13.5h-3.399v-11.5 c0-0.3-0.101-0.5-0.2-0.7c-0.2-0.2-0.8-0.3-1.8-0.3s-1.601,0.1-1.8,0.3c-0.2,0.2-0.2,0.4-0.2,0.7v14.6c0,0.301,0.1,0.5,0.2,0.7 c0.199,0.2,0.8,0.3,1.8,0.3c2.2,0,3.7,0.2,4.399,0.5c0.7,0.301,1,0.7,1,1.2V154c0,0.5-0.399,0.8-1,1.199 c-0.7,0.301-2.2,0.5-4.399,0.5c-2.2,0-3.7-0.199-4.4-0.5c-0.7-0.3-1-0.699-1-1.199v-13.5h3.4V152c0,0.3,0.1,0.5,0.2,0.699 c0.1,0.2,0.8,0.301,1.8,0.301s1.6-0.101,1.8-0.301c0.2-0.199,0.2-0.399,0.2-0.699V137.399L427.201,137.399z"/>
<rect x="289.2" y="67.6" fill="#1E89AD" width="40.3" height="40.9"/>
<rect x="289.2" y="115.699" fill="#28A8D2" width="40.3" height="69.6"/>
<rect x="289.2" y="193.399" fill="#2BB1DE" width="40.3" height="5.6"/>
<rect x="289.2" y="55.6" fill="#2BB1DE" width="40.3" height="5.6"/>
<rect x="272.001" y="115.699" fill="#28A5D1" width="5.6" height="39.7"/>
<rect x="337.001" y="115.699" fill="#26A1C9" width="6" height="39.7"/>
</svg>
