<svg version="1.1" xmlns="http://www.w3.org/2000/svg" xmlns:xlink="http://www.w3.org/1999/xlink" x="0px" y="0px" width="595.301px" height="299px">
<rect x="0" fill="#E9C1AB" width="595.301" height="299"/>
	<polygon fill="#2C3E50" points="335.501,240.1 328.001,214.1 277.6,214.1 270.1,240.1 261,241.3 261,243.699 344.7,243.699 344.7,241.3"/>
	<path fill="#2C3E50" d="M424.2,39.6H181.5c-3.1,0-5.6,2.5-5.6,5.6v145.7h254v-145.7C429.801,42.1,427.301,39.6,424.2,39.6z"/>
	<path fill="#BDC3C7" d="M175.8,190.899V208.5c0,3.1,2.5,5.6,5.601,5.6h242.8c3.101,0,5.601-2.5,5.601-5.6v-17.601H175.8z"/>
	<rect x="185.8" y="64.899" fill="#45BCD2" width="235.001" height="94.3"/>
	<rect x="185.8" y="48.8" fill="#FFFFFF" width="235.001" height="16.2"/>
	<rect x="185.8" y="159.199" fill="#FFFFFF" width="235.001" height="21.101"/>
	<rect id="XMLID_3_" x="293.221" y="79.678" transform="matrix(-0.7071 -0.7071 0.7071 -0.7071 454.3775 367.8575)" fill="#1D1D1B" width="20.3" height="20.3"/>
	<rect id="XMLID_1_" x="293.221" y="79.678" transform="matrix(-0.7071 -0.7071 0.7071 -0.7071 454.3775 367.8575)" fill="none" stroke="#FFFFFF" stroke-width="5" width="20.3" height="20.3"/>
	<polygon fill="#FFFFFF" points="295.2,87.899 300,83.899 302.7,91.199 303.9,94.699 298.8,94.699 	"/>
	<polygon fill="#FFFFFF" points="304.1,82 311.001,86.1 305.8,94.699 300.2,94.699 	"/>
	<line fill="none" stroke="#FFFFFF" x1="296.1" y1="94.699" x2="310.2" y2="94.699"/>
	<rect id="XMLID_2_" x="292.899" y="124.071" transform="matrix(-0.7071 -0.7071 0.7071 -0.7071 422.4686 443.5426)" fill="#FFFFFF" width="20.4" height="20.4"/>
	<rect id="XMLID_4_" x="292.899" y="124.071" transform="matrix(-0.7071 -0.7071 0.7071 -0.7071 422.4686 443.5426)" fill="none" stroke="#1D1D1B" stroke-width="5" width="20.4" height="20.4"/>
	<polygon fill="#1D1D1B" points="294.9,132.3 299.8,128.3 302.5,135.699 303.6,139.1 298.5,139.1"/>
	<polygon fill="#1D1D1B" points="303.9,126.399 310.801,130.5 305.6,139.1 299.9,139.1"/>
	<line fill="none" stroke="#1D1D1B" x1="295.8" y1="139.1" x2="310.1" y2="139.1"/>
	<polygon fill="#D5A420" points="306.4,65.1 303.4,70.399 300.4,65.1 	"/>
	<polygon fill="#F0DBA5" points="297.4,70.399 294.4,75.6 291.3,70.399 	"/>
	<polygon fill="#E7C267" points="294.4,75.6 297.4,70.399 300.4,75.6 	"/>
	<polygon fill="#E1AF11" points="303.4,70.399 300.4,75.6 297.4,70.399 	"/>
	<polygon fill="#DEAC12" points="300.4,75.6 303.4,70.399 306.4,75.6 	"/>
	<polygon fill="#E1AF11" points="309.4,70.399 306.4,75.6 303.4,70.399 	"/>
	<polygon fill="#E7C36B" points="306.4,75.6 309.4,70.399 312.4,75.6 	"/>
	<polygon fill="#F1DCA9" points="315.4,70.399 312.4,75.6 309.4,70.399 	"/>
	<polygon fill="#EDC44F" points="294.4,75.6 291.3,80.8 288.3,75.6"/>
	<polygon fill="#E8BA2B" points="291.3,80.8 294.4,75.6 297.4,80.8"/>
	<polygon fill="#EEBE0F" points="300.4,75.6 297.4,80.8 294.4,75.6"/>
	<polygon fill="#EAB90C" points="297.4,80.8 300.4,75.6 303.4,80.8"/>
	<polygon fill="#EEBE11" points="306.4,75.6 303.4,80.8 300.4,75.6"/>
	<polygon fill="#EAB90C" points="303.4,80.8 306.4,75.6 309.4,80.8"/>
	<polygon fill="#EEBE0F" points="312.4,75.6 309.4,80.8 306.4,75.6"/>
	<polygon fill="#E9BC2F" points="309.4,80.8 312.4,75.6 315.4,80.8"/>
	<polygon fill="#EFC754" points="318.4,75.6 315.4,80.8 312.4,75.6"/>
	<polygon fill="#F3E0AC" points="282.3,86 285.3,80.8 288.3,86"/>
	<polygon fill="#EFC122" points="291.3,80.8 288.3,86 285.3,80.8"/>
	<polygon fill="#EFC120" points="288.3,86 291.3,80.8 294.4,86"/>
	<polygon fill="#F0C538" points="297.4,80.8 294.4,86 291.3,80.8"/>
	<polygon fill="#F0C432" points="294.4,86 297.4,80.8 300.4,86"/>
	<polygon fill="#F0C744" points="303.4,80.8 300.4,86 297.4,80.8"/>
	<polygon fill="#F0C537" points="300.4,86 303.4,80.8 306.4,86"/>
	<polygon fill="#EFC746" points="309.4,80.8 306.4,86 303.4,80.8"/>
	<polygon fill="#F0C42F" points="306.4,86 309.4,80.8 312.4,86"/>
	<polygon fill="#F0C537" points="315.4,80.8 312.4,86 309.4,80.8"/>
	<polygon fill="#EFC11C" points="312.4,86 315.4,80.8 318.4,86"/>
	<polygon fill="#EFC122" points="321.4,80.8 318.4,86 315.4,80.8"/>
	<polygon fill="#F3E1B0" points="318.4,86 321.4,80.8 324.4,86"/>
	<polygon fill="#F3DA95" points="282.3,86 279.3,91.199 276.3,86"/>
	<polygon fill="#F1CC5E" points="279.3,91.199 282.3,86 285.3,91.199"/>
	<polygon fill="#F0C63A" points="288.3,86 285.3,91.199 282.3,86"/>
	<polygon fill="#EFC63E" points="285.3,91.199 288.3,86 291.3,91.199"/>
	<polygon fill="#F0CC55" points="294.4,86 291.3,91.199 288.3,86"/>
	<polygon fill="#F0CC54" points="291.3,91.199 294.4,86 297.4,91.199"/>
	<polygon fill="#F2D268" points="300.4,86 297.4,91.199 294.4,86"/>
	<polygon fill="#F0CF61" points="297.4,91.199 300.4,86 303.4,91.199"/>
	<polygon fill="#CABA6E" points="306.4,86 303.4,91.199 300.4,86"/>
	<polygon fill="#688367" points="303.4,91.199 306.4,86 309.4,91.199"/>
	<polygon fill="#3D7565" points="312.4,86 309.4,91.199 306.4,86"/>
	<polygon fill="#D7BB58" points="309.4,91.199 312.4,86 315.4,91.199"/>
	<polygon fill="#D7BC59" points="318.4,86 315.4,91.199 312.4,86"/>
	<polygon fill="#EFC63C" points="315.4,91.199 318.4,86 321.4,91.199"/>
	<polygon fill="#F0C538" points="324.4,86 321.4,91.199 318.4,86"/>
	<polygon fill="#F1CC61" points="321.4,91.199 324.4,86 327.501,91.199"/>
	<polygon fill="#F3DB9A" points="330.501,86 327.501,91.199 324.4,86"/>
	<polygon fill="#F0C53A" points="279.3,91.199 276.3,96.399 273.3,91.199"/>
	<polygon fill="#F0C433" points="276.3,96.399 279.3,91.199 282.3,96.399"/>
	<polygon fill="#F0C847" points="285.3,91.199 282.3,96.399 279.3,91.199"/>
	<polygon fill="#F0CB51" points="282.3,96.399 285.3,91.199 288.3,96.399"/>
	<polygon fill="#D69943" points="291.3,91.199 288.3,96.399 285.3,91.199"/>
	<polygon fill="#CC893A" points="288.3,96.399 291.3,91.199 294.4,96.399"/>
	<polygon fill="#DAAE5F" points="297.4,91.199 294.4,96.399 291.3,91.199"/>
	<polygon fill="#F1D880" points="294.4,96.399 297.4,91.199 300.4,96.399"/>
	<polygon fill="#EDD98C" points="303.4,91.199 300.4,96.399 297.4,91.199"/>
	<polygon fill="#8C9B78" points="300.4,96.399 303.4,91.199 306.4,96.399"/>
	<polygon fill="#196F68" points="309.4,91.199 306.4,96.399 303.4,91.199"/>
	<polygon fill="#096C64" points="306.4,96.399 309.4,91.199 312.4,96.399"/>
	<polygon fill="#00675E" points="315.4,91.199 312.4,96.399 309.4,91.199"/>
	<polygon fill="#386B5B" points="312.4,96.399 315.4,91.199 318.4,96.399"/>
	<polygon fill="#386655" points="321.4,91.199 318.4,96.399 315.4,91.199"/>
	<polygon fill="#D7B952" points="318.4,96.399 321.4,91.199 324.4,96.399"/>
	<polygon fill="#D7B84B" points="327.501,91.199 324.4,96.399 321.4,91.199"/>
	<polygon fill="#F0C433" points="324.4,96.399 327.501,91.199 330.501,96.399"/>
	<polygon fill="#F0C53D" points="333.501,91.199 330.501,96.399 327.501,91.199"/>
	<polygon fill="#F1D892" points="267.3,101.6 270.3,96.399 273.3,101.6"/>
	<polygon fill="#EEBE14" points="276.3,96.399 273.3,101.6 270.3,96.399"/>
	<polygon fill="#F0C22A" points="273.3,101.6 276.3,96.399 279.3,101.6"/>
	<polygon fill="#EFC34A" points="282.3,96.399 279.3,101.6 276.3,96.399"/>
	<polygon fill="#ECC157" points="279.3,101.6 282.3,96.399 285.3,101.6"/>
	<polygon fill="#C3613A" points="288.3,96.399 285.3,101.6 282.3,96.399"/>
	<polygon fill="#B54E28" points="285.3,101.6 288.3,96.399 291.3,101.6"/>
	<polygon fill="#A83E1D" points="294.4,96.399 291.3,101.6 288.3,96.399"/>
	<polygon fill="#B97136" points="291.3,101.6 294.4,96.399 297.4,101.6"/>
	<polygon fill="#EDD48F" points="300.4,96.399 297.4,101.6 294.4,96.399"/>
	<polygon fill="#DDD296" points="297.4,101.6 300.4,96.399 303.4,101.6"/>
	<polygon fill="#26746C" points="306.4,96.399 303.4,101.6 300.4,96.399"/>
	<polygon fill="#196F68" points="303.4,101.6 306.4,96.399 309.4,101.6"/>
	<polygon fill="#096C64" points="312.4,96.399 309.4,101.6 306.4,96.399"/>
	<polygon fill="#00675E" points="309.4,101.6 312.4,96.399 315.4,101.6"/>
	<polygon fill="#056158" points="318.4,96.399 315.4,101.6 312.4,96.399"/>
	<polygon fill="#015B51" points="315.4,101.6 318.4,96.399 321.4,101.6"/>
	<polygon fill="#06554B" points="324.4,96.399 321.4,101.6 318.4,96.399"/>
	<polygon fill="#385D49" points="321.4,101.6 324.4,96.399 327.501,101.6"/>
	<polygon fill="#8B8549" points="330.501,96.399 327.501,101.6 324.4,96.399"/>
	<polygon fill="#F0C228" points="327.501,101.6 330.501,96.399 333.501,101.6"/>
	<polygon fill="#EEBE14" points="336.501,96.399 333.501,101.6 330.501,96.399"/>
	<polygon fill="#F1D898" points="333.501,101.6 336.501,96.399 339.501,101.6"/>
	<polygon fill="#E7C777" points="267.3,101.6 264.3,106.8 261.2,101.6"/>
	<polygon fill="#E7BC46" points="264.3,106.8 267.3,101.6 270.3,106.8"/>
	<polygon fill="#ECBA11" points="273.3,101.6 270.3,106.8 267.3,101.6"/>
	<polygon fill="#EFC120" points="270.3,106.8 273.3,101.6 276.3,106.8"/>
	<polygon fill="#EAB451" points="279.3,101.6 276.3,106.8 273.3,101.6"/>
	<polygon fill="#DD8F5A" points="276.3,106.8 279.3,101.6 282.3,106.8"/>
	<polygon fill="#CC6949" points="285.3,101.6 282.3,106.8 279.3,101.6"/>
	<polygon fill="#C15936" points="282.3,106.8 285.3,101.6 288.3,106.8"/>
	<polygon fill="#B34A26" points="291.3,101.6 288.3,106.8 285.3,101.6"/>
	<polygon fill="#A83E1D" points="288.3,106.8 291.3,101.6 294.4,106.8"/>
	<polygon fill="#98371B" points="297.4,101.6 294.4,106.8 291.3,101.6"/>
	<polygon fill="#D1A468" points="294.4,106.8 297.4,101.6 300.4,106.8"/>
	<polygon fill="#7A9580" points="303.4,101.6 300.4,106.8 297.4,101.6"/>
	<polygon fill="#22736C" points="300.4,106.8 303.4,101.6 306.4,106.8"/>
	<polygon fill="#196F68" points="309.4,101.6 306.4,106.8 303.4,101.6"/>
	<polygon fill="#096C64" points="306.4,106.8 309.4,101.6 312.4,106.8"/>
	<polygon fill="#00675E" points="315.4,101.6 312.4,106.8 309.4,101.6"/>
	<polygon fill="#056158" points="312.4,106.8 315.4,101.6 318.4,106.8"/>
	<polygon fill="#015B51" points="321.4,101.6 318.4,106.8 315.4,101.6"/>
	<polygon fill="#06554B" points="318.4,106.8 321.4,101.6 324.4,106.8"/>
	<polygon fill="#7A8057" points="327.501,101.6 324.4,106.8 321.4,101.6"/>
	<polygon fill="#D7B954" points="324.4,106.8 327.501,101.6 330.501,106.8"/>
	<polygon fill="#F0C73E" points="333.501,101.6 330.501,106.8 327.501,101.6"/>
	<polygon fill="#EFC11C" points="330.501,106.8 333.501,101.6 336.501,106.8"/>
	<polygon fill="#ECBA0A" points="339.501,101.6 336.501,106.8 333.501,101.6"/>
	<polygon fill="#E7BC48" points="336.501,106.8 339.501,101.6 342.501,106.8"/>
	<polygon fill="#E8CA7C" points="345.501,101.6 342.501,106.8 339.501,101.6"/>
	<polygon fill="#D7A725" points="264.3,106.8 261.2,112.1 258.2,106.8"/>
	<polygon fill="#DEAC16" points="261.2,112.1 264.3,106.8 267.3,112.1"/>
	<polygon fill="#E4B40C" points="270.3,106.8 267.3,112.1 264.3,106.8"/>
	<polygon fill="#ECBC10" points="267.3,112.1 270.3,106.8 273.3,112.1"/>
	<polygon fill="#F0C228" points="276.3,106.8 273.3,112.1 270.3,106.8"/>
	<polygon fill="#EFC348" points="273.3,112.1 276.3,106.8 279.3,112.1"/>
	<polygon fill="#E19E5C" points="282.3,106.8 279.3,112.1 276.3,106.8"/>
	<polygon fill="#CC6949" points="279.3,112.1 282.3,106.8 285.3,112.1"/>
	<polygon fill="#C15936" points="288.3,106.8 285.3,112.1 282.3,106.8"/>
	<polygon fill="#B34A26" points="285.3,112.1 288.3,106.8 291.3,112.1"/>
	<polygon fill="#A83E1D" points="294.4,106.8 291.3,112.1 288.3,106.8"/>
	<polygon fill="#98371B" points="291.3,112.1 294.4,106.8 297.4,112.1"/>
	<polygon fill="#804C2F" points="300.4,106.8 297.4,112.1 294.4,106.8"/>
	<polygon fill="#457A6F" points="297.4,112.1 300.4,106.8 303.4,112.1"/>
	<polygon fill="#22736C" points="306.4,106.8 303.4,112.1 300.4,106.8"/>
	<polygon fill="#196F68" points="303.4,112.1 306.4,106.8 309.4,112.1"/>
	<polygon fill="#096C64" points="312.4,106.8 309.4,112.1 306.4,106.8"/>
	<polygon fill="#00675E" points="309.4,112.1 312.4,106.8 315.4,112.1"/>
	<polygon fill="#056158" points="318.4,106.8 315.4,112.1 312.4,106.8"/>
	<polygon fill="#015B51" points="315.4,112.1 318.4,106.8 321.4,112.1"/>
	<polygon fill="#818A64" points="324.4,106.8 321.4,112.1 318.4,106.8"/>
	<polygon fill="#DDC56C" points="321.4,112.1 324.4,106.8 327.501,112.1"/>
	<polygon fill="#F0CD5B" points="330.501,106.8 327.501,112.1 324.4,106.8"/>
	<polygon fill="#F0C743" points="327.501,112.1 330.501,106.8 333.501,112.1"/>
	<polygon fill="#F0C226" points="336.501,106.8 333.501,112.1 330.501,106.8"/>
	<polygon fill="#ECBB10" points="333.501,112.1 336.501,106.8 339.501,112.1"/>
	<polygon fill="#E4B30D" points="342.501,106.8 339.501,112.1 336.501,106.8"/>
	<polygon fill="#DEAC1A" points="339.501,112.1 342.501,106.8 345.501,112.1"/>
	<polygon fill="#D7A727" points="348.501,106.8 345.501,112.1 342.501,106.8"/>
	<polygon fill="#E0BA5C" points="258.2,117.3 261.2,112.1 264.3,117.3"/>
	<polygon fill="#E0B132" points="267.3,112.1 264.3,117.3 261.2,112.1"/>
	<polygon fill="#E4B30D" points="264.3,117.3 267.3,112.1 270.3,117.3"/>
	<polygon fill="#ECBB10" points="273.3,112.1 270.3,117.3 267.3,112.1"/>
	<polygon fill="#F0C228" points="270.3,117.3 273.3,112.1 276.3,117.3"/>
	<polygon fill="#F0C743" points="279.3,112.1 276.3,117.3 273.3,112.1"/>
	<polygon fill="#EEC45C" points="276.3,117.3 279.3,112.1 282.3,117.3"/>
	<polygon fill="#D89254" points="285.3,112.1 282.3,117.3 279.3,112.1"/>
	<polygon fill="#C15936" points="282.3,117.3 285.3,112.1 288.3,117.3"/>
	<polygon fill="#B34A26" points="291.3,112.1 288.3,117.3 285.3,112.1"/>
	<polygon fill="#A83E1D" points="288.3,117.3 291.3,112.1 294.4,117.3"/>
	<polygon fill="#943F1F" points="297.4,112.1 294.4,117.3 291.3,112.1"/>
	<polygon fill="#686650" points="294.4,117.3 297.4,112.1 300.4,117.3"/>
	<polygon fill="#2C7670" points="303.4,112.1 300.4,117.3 297.4,112.1"/>
	<polygon fill="#22736C" points="300.4,117.3 303.4,112.1 306.4,117.3"/>
	<polygon fill="#196F68" points="309.4,112.1 306.4,117.3 303.4,112.1"/>
	<polygon fill="#096C64" points="306.4,117.3 309.4,112.1 312.4,117.3"/>
	<polygon fill="#00675E" points="315.4,112.1 312.4,117.3 309.4,112.1"/>
	<polygon fill="#056158" points="312.4,117.3 315.4,112.1 318.4,117.3"/>
	<polygon fill="#8F9670" points="321.4,112.1 318.4,117.3 315.4,112.1"/>
	<polygon fill="#E1CD80" points="318.4,117.3 321.4,112.1 324.4,117.3"/>
	<polygon fill="#F1D370" points="327.501,112.1 324.4,117.3 321.4,112.1"/>
	<polygon fill="#F0CD5A" points="324.4,117.3 327.501,112.1 330.501,117.3"/>
	<polygon fill="#F0C741" points="333.501,112.1 330.501,117.3 327.501,112.1"/>
	<polygon fill="#F0C226" points="330.501,117.3 333.501,112.1 336.501,117.3"/>
	<polygon fill="#ECBB0A" points="339.501,112.1 336.501,117.3 333.501,112.1"/>
	<polygon fill="#E4B30D" points="336.501,117.3 339.501,112.1 342.501,117.3"/>
	<polygon fill="#E0B237" points="345.501,112.1 342.501,117.3 339.501,112.1"/>
	<polygon fill="#E2BC61" points="342.501,117.3 345.501,112.1 348.501,117.3"/>
	<polygon fill="#EAC974" points="270.3,117.3 267.3,122.5 264.3,117.3"/>
	<polygon fill="#EAB90C" points="267.3,122.5 270.3,117.3 273.3,122.5"/>
	<polygon fill="#EFC11A" points="276.3,117.3 273.3,122.5 270.3,117.3"/>
	<polygon fill="#F0C63C" points="273.3,122.5 276.3,117.3 279.3,122.5"/>
	<polygon fill="#F0CB50" points="282.3,117.3 279.3,122.5 276.3,117.3"/>
	<polygon fill="#EAC163" points="279.3,122.5 282.3,117.3 285.3,122.5"/>
	<polygon fill="#CE8044" points="288.3,117.3 285.3,122.5 282.3,117.3"/>
	<polygon fill="#B34A26" points="285.3,122.5 288.3,117.3 291.3,122.5"/>
	<polygon fill="#A83E1D" points="294.4,117.3 291.3,122.5 288.3,117.3"/>
	<polygon fill="#8C502F" points="291.3,122.5 294.4,117.3 297.4,122.5"/>
	<polygon fill="#327A74" points="300.4,117.3 297.4,122.5 294.4,117.3"/>
	<polygon fill="#2C7670" points="297.4,122.5 300.4,117.3 303.4,122.5"/>
	<polygon fill="#22736C" points="306.4,117.3 303.4,122.5 300.4,117.3"/>
	<polygon fill="#196F68" points="303.4,122.5 306.4,117.3 309.4,122.5"/>
	<polygon fill="#096C64" points="312.4,117.3 309.4,122.5 306.4,117.3"/>
	<polygon fill="#00675E" points="309.4,122.5 312.4,117.3 315.4,122.5"/>
	<polygon fill="#99A077" points="318.4,117.3 315.4,122.5 312.4,117.3"/>
	<polygon fill="#E5D288" points="315.4,122.5 318.4,117.3 321.4,122.5"/>
	<polygon fill="#F1D577" points="324.4,117.3 321.4,122.5 318.4,117.3"/>
	<polygon fill="#F2D268" points="321.4,122.5 324.4,117.3 327.501,122.5"/>
	<polygon fill="#F0CB50" points="330.501,117.3 327.501,122.5 324.4,117.3"/>
	<polygon fill="#F0C63A" points="327.501,122.5 330.501,117.3 333.501,122.5"/>
	<polygon fill="#EFBF18" points="336.501,117.3 333.501,122.5 330.501,117.3"/>
	<polygon fill="#EAB90C" points="333.501,122.5 336.501,117.3 339.501,122.5"/>
	<polygon fill="#EBCB78" points="342.501,117.3 339.501,122.5 336.501,117.3"/>
	<polygon fill="#EEBF22" points="270.3,127.699 273.3,122.5 276.3,127.699"/>
	<polygon fill="#EFC127" points="279.3,122.5 276.3,127.699 273.3,122.5"/>
	<polygon fill="#EFC643" points="276.3,127.699 279.3,122.5 282.3,127.699"/>
	<polygon fill="#C9A74D" points="285.3,122.5 282.3,127.699 279.3,122.5"/>
	<polygon fill="#DFB35A" points="282.3,127.699 285.3,122.5 288.3,127.699"/>
	<polygon fill="#AB6A36" points="291.3,122.5 288.3,127.699 285.3,122.5"/>
	<polygon fill="#A5401E" points="288.3,127.699 291.3,122.5 294.4,127.699"/>
	<polygon fill="#6B755F" points="297.4,122.5 294.4,127.699 291.3,122.5"/>
	<polygon fill="#357872" points="294.4,127.699 297.4,122.5 300.4,127.699"/>
	<polygon fill="#577565" points="303.4,122.5 300.4,127.699 297.4,122.5"/>
	<polygon fill="#27716A" points="300.4,127.699 303.4,122.5 306.4,127.699"/>
	<polygon fill="#507060" points="309.4,122.5 306.4,127.699 303.4,122.5"/>
	<polygon fill="#196A62" points="306.4,127.699 309.4,122.5 312.4,127.699"/>
	<polygon fill="#908F68" points="315.4,122.5 312.4,127.699 309.4,122.5"/>
	<polygon fill="#E1CD83" points="312.4,127.699 315.4,122.5 318.4,127.699"/>
	<polygon fill="#CAAF63" points="321.4,122.5 318.4,127.699 315.4,122.5"/>
	<polygon fill="#E9CA69" points="318.4,127.699 321.4,122.5 324.4,127.699"/>
	<polygon fill="#D4B14B" points="327.501,122.5 324.4,127.699 321.4,122.5"/>
	<polygon fill="#F0C741" points="324.4,127.699 327.501,122.5 330.501,127.699"/>
	<polygon fill="#EFC127" points="333.501,122.5 330.501,127.699 327.501,122.5"/>
	<polygon fill="#EEBF24" points="330.501,127.699 333.501,122.5 336.501,127.699"/>
	<polygon fill="#F2D279" points="273.3,132.899 276.3,127.699 279.3,132.899"/>
	<polygon fill="#F0C84B" points="282.3,127.699 279.3,132.899 276.3,127.699"/>
	<polygon fill="#F0C73F" points="279.3,132.899 282.3,127.699 285.3,132.899"/>
	<polygon fill="#F0C846" points="288.3,127.699 285.3,132.899 282.3,127.699"/>
	<polygon fill="#F0CF61" points="285.3,132.899 288.3,127.699 291.3,132.899"/>
	<polygon fill="#F1D063" points="294.4,127.699 291.3,132.899 288.3,127.699"/>
	<polygon fill="#F1D678" points="291.3,132.899 294.4,127.699 297.4,132.899"/>
	<polygon fill="#F1D576" points="300.4,127.699 297.4,132.899 294.4,127.699"/>
	<polygon fill="#F2DA85" points="297.4,132.899 300.4,127.699 303.4,132.899"/>
	<polygon fill="#F1D67B" points="306.4,127.699 303.4,132.899 300.4,127.699"/>
	<polygon fill="#F2DA85" points="303.4,132.899 306.4,127.699 309.4,132.899"/>
	<polygon fill="#F1D576" points="312.4,127.699 309.4,132.899 306.4,127.699"/>
	<polygon fill="#F1D578" points="309.4,132.899 312.4,127.699 315.4,132.899"/>
	<polygon fill="#F0CF62" points="318.4,127.699 315.4,132.899 312.4,127.699"/>
	<polygon fill="#F0CF61" points="315.4,132.899 318.4,127.699 321.4,132.899"/>
	<polygon fill="#F0C846" points="324.4,127.699 321.4,132.899 318.4,127.699"/>
	<polygon fill="#EFC63E" points="321.4,132.899 324.4,127.699 327.501,132.899"/>
	<polygon fill="#F0C84D" points="330.501,127.699 327.501,132.899 324.4,127.699"/>
	<polygon fill="#F3D47D" points="327.501,132.899 330.501,127.699 333.501,132.899"/>
	<polygon fill="#F3D991" points="285.3,132.899 282.3,138.1 279.3,132.899"/>
	<polygon fill="#F0C42E" points="282.3,138.1 285.3,132.899 288.3,138.1"/>
	<polygon fill="#F0C432" points="291.3,132.899 288.3,138.1 285.3,132.899"/>
	<polygon fill="#F0C94B" points="288.3,138.1 291.3,132.899 294.4,138.1"/>
	<polygon fill="#F0C847" points="297.4,132.899 294.4,138.1 291.3,132.899"/>
	<polygon fill="#F0CD5B" points="294.4,138.1 297.4,132.899 300.4,138.1"/>
	<polygon fill="#F0CC54" points="303.4,132.899 300.4,138.1 297.4,132.899"/>
	<polygon fill="#F0CF62" points="300.4,138.1 303.4,132.899 306.4,138.1"/>
	<polygon fill="#F0CC54" points="309.4,132.899 306.4,138.1 303.4,132.899"/>
	<polygon fill="#F0CD5B" points="306.4,138.1 309.4,132.899 312.4,138.1"/>
	<polygon fill="#F0C847" points="315.4,132.899 312.4,138.1 309.4,132.899"/>
	<polygon fill="#F0C94B" points="312.4,138.1 315.4,132.899 318.4,138.1"/>
	<polygon fill="#F0C42F" points="321.4,132.899 318.4,138.1 315.4,132.899"/>
	<polygon fill="#F0C32C" points="318.4,138.1 321.4,132.899 324.4,138.1"/>
	<polygon fill="#F2DA96" points="327.501,132.899 324.4,138.1 321.4,132.899"/>
	<polygon fill="#F0C233" points="285.3,143.3 288.3,138.1 291.3,143.3"/>
	<polygon fill="#EEBF20" points="294.4,138.1 291.3,143.3 288.3,138.1"/>
	<polygon fill="#F0C329" points="291.3,143.3 294.4,138.1 297.4,143.3"/>
	<polygon fill="#EFC122" points="300.4,138.1 297.4,143.3 294.4,138.1"/>
	<polygon fill="#F0C435" points="297.4,143.3 300.4,138.1 303.4,143.3"/>
	<polygon fill="#F0C226" points="306.4,138.1 303.4,143.3 300.4,138.1"/>
	<polygon fill="#F0C435" points="303.4,143.3 306.4,138.1 309.4,143.3"/>
	<polygon fill="#EFC120" points="312.4,138.1 309.4,143.3 306.4,138.1"/>
	<polygon fill="#F0C22A" points="309.4,143.3 312.4,138.1 315.4,143.3"/>
	<polygon fill="#EEBF22" points="318.4,138.1 315.4,143.3 312.4,138.1"/>
	<polygon fill="#F0C337" points="315.4,143.3 318.4,138.1 321.4,143.3"/>
	<polygon fill="#F0D58E" points="288.3,148.5 291.3,143.3 294.4,148.5"/>
	<polygon fill="#E9C153" points="297.4,143.3 294.4,148.5 291.3,143.3"/>
	<polygon fill="#E9B90D" points="294.4,148.5 297.4,143.3 300.4,148.5"/>
	<polygon fill="#E6B30C" points="303.4,143.3 300.4,148.5 297.4,143.3"/>
	<polygon fill="#EABA0C" points="300.4,148.5 303.4,143.3 306.4,148.5"/>
	<polygon fill="#E6B30C" points="309.4,143.3 306.4,148.5 303.4,143.3"/>
	<polygon fill="#E9B90D" points="306.4,148.5 309.4,143.3 312.4,148.5"/>
	<polygon fill="#EAC258" points="315.4,143.3 312.4,148.5 309.4,143.3"/>
	<polygon fill="#F0D693" points="312.4,148.5 315.4,143.3 318.4,148.5"/>
	<polygon fill="#DDAB13" points="297.4,153.8 300.4,148.5 303.4,153.8"/>
	<polygon fill="#DAA815" points="306.4,148.5 303.4,153.8 300.4,148.5"/>
	<polygon fill="#DDAB13" points="303.4,153.8 306.4,148.5 309.4,153.8"/>
	<polygon fill="#DEBA64" points="300.4,159 303.4,153.8 306.4,159"/>
			<path fill="#FFFFFF" d="M277.8,112.199c0,0.5,0.4,0.9,0.9,0.9s0.9-0.4,0.9-0.9V110h-0.9v-1.7h2.6v3.899 c0,1.4-1.199,2.601-2.6,2.601s-2.6-1.2-2.6-2.601H277.8L277.8,112.199z"/>
			<path fill="#FFFFFF" d="M284.8,108.199c1.801,0,3.301,1.5,3.301,3.301c0,1.8-1.5,3.3-3.301,3.3c-1.8,0-3.3-1.5-3.3-3.3 C281.5,109.699,283,108.199,284.8,108.199z M284.8,113c0.9,0,1.601-0.7,1.601-1.5c0-0.9-0.7-1.601-1.601-1.601 c-0.8,0-1.5,0.7-1.5,1.601C283.3,112.3,284,113,284.8,113z"/>
			<path fill="#FFFFFF" d="M288.4,108.3h2.8c1.4,0,2.6,1.2,2.6,2.6c0,1.101-0.6,1.9-1.5,2.3l1.5,1.5H291.4l-1.2-1.199v1.199h-1.7 L288.4,108.3L288.4,108.3z M291.2,111.699c0.5,0,0.9-0.399,0.9-0.899s-0.4-0.9-0.9-0.9h-1.1v1.7L291.2,111.699L291.2,111.699z"/>
			<path fill="#FFFFFF" d="M297.1,108.3h2.6v1.7h-2.6c-0.801,0-1.5,0.699-1.5,1.5c0,0.8,0.699,1.5,1.5,1.5H298v-2.4h1.7v4.1h-2.6 c-1.801,0-3.2-1.399-3.2-3.199C293.9,109.699,295.4,108.3,297.1,108.3z"/>
			<path fill="#FFFFFF" d="M300.1,108.3h4.3v1.7H301.8v0.6h2.2v1.7h-2.2v0.6h2.601v1.7h-4.3V108.3L300.1,108.3z"/>
			<path fill="#FFFFFF" d="M309.2,108.1l3.4,6.6H305.8L309.2,108.1z M309.801,112.899l-0.601-1.1l-0.6,1.1H309.801z"/>
			<path fill="#FFFFFF" d="M313.6,110h-1.3v-1.7h4.3v1.7h-1.3v4.699h-1.7V110L313.6,110z"/>
			<path fill="#FFFFFF" d="M320.1,108.3h2.6v1.7h-2.6c-0.8,0-1.5,0.699-1.5,1.5c0,0.8,0.7,1.5,1.5,1.5h0.9v-2.4h1.699v4.1h-2.6 c-1.8,0-3.2-1.399-3.2-3.199C316.9,109.699,318.301,108.3,320.1,108.3z"/>
			<path fill="#FFFFFF" d="M323.1,108.3h1.7v3.7c0,0.6,0.5,1.1,1.1,1.1c0.601,0,1.101-0.5,1.101-1.1v-3.7h1.699v3.7 c0,1.6-1.3,2.8-2.8,2.8c-1.6,0-2.8-1.2-2.8-2.8V108.3L323.1,108.3z"/>
	<circle fill="#E5007D" cx="382.7" cy="55.5" r="3.7"/>
	<path fill="#FFFFFF" d="M384.7,55c0,0-0.8-2.301-2.1-0.301c-0.1,0-1.9-0.699-1.9-0.699l1.2,2.1c0.101,0.5-1.899,0.3-1.899,0.3 s1.6,1.3,3.199,0.8c0.801,0,1.7-1.899,1.7-1.899l0.5-0.2L384.7,55z"/>
	<circle fill="#E5007D" cx="391.4" cy="55.7" r="3.7"/>
	<path fill="#FFFFFF" d="M390.7,58.3v-2.5h-0.5v-1h0.4v-1.101c0,0,0.1-0.6,0.7-0.5h1.1v1h-0.7V54.8h0.7v0.899h-0.7V58.3H390.7 L390.7,58.3z"/>
	<circle fill="#E5007D" cx="400.301" cy="55.7" r="3.7"/>
		<rect x="397.6" y="54" fill="#FFFFFF" width="0.8" height="3.399"/>
		<rect x="398.3" y="54" fill="#FFFFFF" width="1" height="0.6"/>
		<rect x="398.3" y="56.8" fill="#FFFFFF" width="1" height="0.6"/>
		<rect x="398.3" y="55.399" fill="#FFFFFF" width="1" height="0.5"/>
		<path fill="#FFFFFF" d="M399.4,57.399c0,0,1.101,0,1.101-1c0,0,0-0.8-0.601-0.8c0,0,0.5,0,0.5-0.6c0-0.601-0.399-0.9-1-0.9 c-0.6,0-0.5,0.3-0.5,0.3l0.4,0.3h0.1c0,0,0.2,0,0.2,0.4s-0.1,0.4-0.3,0.4s-0.2,0.3-0.2,0.3l0.3,0.3c0,0,0.4,0,0.4,0.5 s-0.4,0.4-0.5,0.4c-0.101,0-0.101,0.199-0.101,0.199L399.4,57.399z"/>
		<path fill="#FFFFFF" d="M401.9,54.899c-1.3,0-1.3,1.3-1.3,1.3s-0.1,1.301,1.3,1.301c0,0,1.2,0.1,1.2-0.9h-0.6c0,0,0,0.4-0.5,0.4 c0,0-0.601,0-0.601-0.601h1.8C403.1,56.3,403.2,54.899,401.9,54.899z M401.301,55.899c0,0,0.1-0.5,0.6-0.5s0.5,0.5,0.5,0.5 H401.301z"/>
		<rect x="401.1" y="54.199" fill="#FFFFFF" width="1.4" height="0.4"/>
	<circle fill="#E5007D" cx="409.001" cy="55.7" r="3.7"/>
		<circle fill="none" stroke="#FFFFFF" stroke-width="0.6" cx="409.1" cy="55.699" r="2.5"/>
		<path fill="none" stroke="#FFFFFF" stroke-width="0.6" d="M410.301,57.899c-0.3-2.2-2.3-4.399-2.3-4.399"/>
		<path fill="none" stroke="#FFFFFF" stroke-width="0.6" d="M406.6,55.3c2.8,0.6,3.9-1.601,3.9-1.601"/>
		<path fill="none" stroke="#FFFFFF" stroke-width="0.6" d="M407.2,57.399c1.4-2.3,4.301-1.5,4.301-1.5"/>
	<line fill="none" stroke="#BDC3C7" stroke-width="3" x1="199.1" y1="57.6" x2="217.4" y2="57.6"/>
	<line fill="none" stroke="#BDC3C7" stroke-width="3" x1="221.6" y1="57.6" x2="244.9" y2="57.6"/>
	<line fill="none" stroke="#BDC3C7" stroke-width="3" x1="289.9" y1="164.5" x2="313.1" y2="164.5"/>
	<line fill="none" stroke="#BDC3C7" stroke-width="3" x1="244.9" y1="170.1" x2="342.7" y2="170.1"/>
	<line fill="none" stroke="#BDC3C7" stroke-width="3" x1="244.9" y1="174.399" x2="333.501" y2="174.399"/>
	<line fill="none" stroke="#BDC3C7" stroke-width="3" x1="247.7" y1="57.6" x2="270.9" y2="57.6"/>
	<line fill="none" stroke="#BDC3C7" stroke-width="3" x1="274.4" y1="57.6" x2="287.1" y2="57.6"/>
</svg>
