<svg version="1.1" xmlns="http://www.w3.org/2000/svg" xmlns:xlink="http://www.w3.org/1999/xlink" x="0px" y="0px" width="595.301px" height="299px">
	<rect x="0" fill="#DAE3EB" width="595.301" height="299"/>
		<polygon fill="#2C3E50" points="329.9,253.3 322.4,227.3 272,227.3 264.5,253.3 255.3,254.5 255.3,256.9 339.1,256.9 339.1,254.5"/>
		<path fill="#2C3E50" d="M418.6,52.7H175.8c-3.1,0-5.6,2.5-5.6,5.6V204h254V58.4C424.2,55.3,421.7,52.7,418.6,52.7z"/>
		<path fill="#BDC3C7" d="M170.2,204v17.6c0,3.101,2.5,5.601,5.6,5.601H418.6c3.1,0,5.6-2.5,5.6-5.601V204H170.2z"/>
	<rect x="180.1" y="62" fill="#FFFFFF" width="235" height="130.8"/>
<line fill="none" stroke="#BDC3C7" stroke-width="3" x1="284.3" y1="129.9" x2="307.5" y2="129.9"/>
<line fill="none" stroke="#BDC3C7" stroke-width="3" x1="245.2" y1="165.4" x2="343.0" y2="165.4"/>
<line fill="none" stroke="#BDC3C7" stroke-width="3" x1="245.2" y1="160.4" x2="343.0" y2="160.4"/>
<line fill="none" stroke="#BDC3C7" stroke-width="3" x1="245.2" y1="155.8" x2="343.0" y2="155.8"/>
<line fill="none" stroke="#BDC3C7" stroke-width="3" x1="245.2" y1="151.4" x2="343.0" y2="151.4"/>
<line fill="none" stroke="#BDC3C7" stroke-width="3" x1="245.2" y1="146.6" x2="343.0" y2="146.6"/>
<line fill="none" stroke="#BDC3C7" stroke-width="3" x1="245.2" y1="142.6" x2="343.0" y2="142.6"/>
<line fill="none" stroke="#BDC3C7" stroke-width="3" x1="245.2" y1="169.6" x2="333.9" y2="169.6"/>
				<radialGradient id="XMLID_3_" cx="-1471.4182" cy="496.3809" r="26.3924" gradientTransform="matrix(0.5974 0 0 -0.5974 1173.8221 398.2031)" gradientUnits="userSpaceOnUse">
				<stop  offset="0" style="stop-color:#FFF9D1"/>
				<stop  offset="0.1146" style="stop-color:#FBF2C0"/>
				<stop  offset="0.3413" style="stop-color:#F2DF93"/>
				<stop  offset="0.3708" style="stop-color:#F1DC8D"/>
				<stop  offset="0.6854" style="stop-color:#EFBF00"/>
				<stop  offset="1" style="stop-color:#C8951A"/>
			</radialGradient>
			<polygon id="XMLID_20_" fill="url(#XMLID_3_)" points="294.9,85.9 310.6,101.7 294.9,117.5 279.1,101.7"/>
			<polygon id="XMLID_1_" fill="none" stroke="#F2E9CE" stroke-width="0.7" points="294.9,85.9 310.6,101.7 294.9,117.5 279.1,101.7"/>
		<linearGradient id="SVGID_1_" gradientUnits="userSpaceOnUse" x1="-1486.5422" y1="497.4102" x2="-1470.5325" y2="497.4102" gradientTransform="matrix(0.5974 0 0 -0.5974 1173.8221 398.2031)">
		<stop  offset="0" style="stop-color:#E48976"/>
		<stop  offset="0.5112" style="stop-color:#A93C17"/>
		<stop  offset="1" style="stop-color:#611C01"/>
	</linearGradient>
	<polygon fill="url(#SVGID_1_)" points="285.8,99.5 291.2,95.1 294.1,103.2 295.4,107 289.8,107"/>
		<linearGradient id="SVGID_2_" gradientUnits="userSpaceOnUse" x1="-1477.3645" y1="499.168" x2="-1457.3743" y2="499.168" gradientTransform="matrix(0.5974 0 0 -0.5974 1173.8221 398.2031)">
		<stop  offset="0" style="stop-color:#3B7F7A"/>
		<stop  offset="0.5169" style="stop-color:#006860"/>
		<stop  offset="1" style="stop-color:#00473C"/>
	</linearGradient>
	<polygon fill="url(#SVGID_2_)" points="295.7,93 303.3,97.5 297.5,107 291.3,107 	"/>
	<line fill="none" stroke="#1D1D1B" stroke-width="0.4" x1="286.8" y1="107" x2="302.4" y2="107"/>
		<path fill="#211C40" d="M219.5,101.6c0,2.5-1.5,5-4.899,5c-1.2,0-2.7,0-3.9,0V96.7c1.2,0,2.7,0,3.9,0 C217.9,96.7,219.4,99.1,219.5,101.6z M212.5,104.8h2c2.2,0,3.101-1.6,3.101-3.2c0-1.5-0.9-3.1-3.101-3.1h-2V104.8z"/>
		<path fill="#211C40" d="M226.8,99.1c-0.3-0.6-1.3-1.1-2.3-1.1c-1.399,0-2,0.6-2,1.3c0,0.9,1,1.101,2.2,1.2c2.1,0.3,4,0.8,4,3.1 c0,2.2-1.9,3.101-4.1,3.101c-2,0-3.601-0.601-4.301-2.4l1.601-0.8c0.399,1.1,1.6,1.6,2.8,1.6s2.3-0.399,2.3-1.5 c0-0.899-1-1.3-2.3-1.5c-2-0.199-3.9-0.8-3.9-3c0-2,2-2.899,3.801-2.899c1.5,0,3.1,0.399,3.899,2L226.8,99.1z"/>
		<path fill="#211C40" d="M236.5,96.7h1.9v9.899h-1.2l0,0L232,99.9v6.699H230.1V96.7h1.5l4.8,6.1L236.5,96.7L236.5,96.7z M232,95.1 c0.3-0.8,0.9-1.399,1.8-1.199c0.7,0.199,1.301,0.899,1.7,0l1.101,0.5c-0.4,1.1-1.101,1.399-1.801,1.199c-0.699-0.199-1.3-1-1.8,0 L232,95.1z"/>
		<path fill="#211C40" d="M244.9,100.9V98.8h1.7v2.101h2.1v1.6h-2.1v2.1h-1.7v-2.1H242.8v-1.6H244.9z"/>
		<path fill="#211C40" d="M252.7,106.6V96.7h1.8v9.899H252.7z"/>
		<path fill="#211C40" d="M263.7,106.6h-7.4c0-3.3,0-6.6,0-9.899h7.4v1.8h-5.5v2.3h5.3v1.7h-5.3v2.2h5.5V106.6z"/>
		<path fill="#211C40" d="M274.8,101.7c0,2.6-1.6,5.1-5.1,5.1s-5.1-2.5-5.1-5.1c0-2.601,1.699-5.2,5.1-5.2 C273.2,96.5,274.9,99.1,274.8,101.7z M266.5,101.7c0,1.6,0.9,3.399,3.2,3.399s3.2-1.699,3.2-3.399s-0.9-3.5-3.2-3.5 S266.5,100.1,266.5,101.7z"/>
		<path fill="#211C40" d="M322.301,99.1c-0.7-0.6-1.601-1-2.5-1c-2.101,0-3.4,1.601-3.4,3.601c0,1.6,0.9,3.3,3.4,3.3 c0.8,0,1.5-0.2,2.2-0.8v-1.7h-2.5v-1.7h4.199v4.2c-1,1.1-2.199,1.8-3.899,1.8c-3.7,0-5.2-2.399-5.2-5c0-2.8,1.7-5.3,5.2-5.3 c1.3,0,2.7,0.5,3.7,1.5L322.301,99.1z"/>
		<path fill="#211C40" d="M333.9,106.6h-2.2l-2.899-3.3h-1.8v3.3h-1.9V96.7c1.6,0,3.1,0,4.7,0c2.3,0,3.6,1.6,3.6,3.3 c0,1.4-0.6,2.7-2.5,3.1l3,3.4V106.6L333.9,106.6z M327.001,98.4v3.199h2.8c1.2,0,1.7-0.8,1.7-1.6s-0.5-1.6-1.7-1.6H327.001z"/>
		<path fill="#211C40" d="M334.6,106.6v-9.8h7.1v1.8h-5.199v2.7h4.899v1.7h-4.899v3.6H334.6L334.6,106.6z"/>
		<path fill="#211C40" d="M351.7,105.3c-1,1-2.3,1.5-3.699,1.5c-3.7,0-5.2-2.5-5.2-5.1c0-2.601,1.7-5.2,5.2-5.2 c1.3,0,2.6,0.5,3.6,1.5l-1.2,1.2c-0.6-0.601-1.5-0.9-2.399-0.9c-2.4,0-3.4,1.8-3.4,3.4c0,1.6,1,3.3,3.4,3.3c0.899,0,1.8-0.4,2.5-1 L351.7,105.3z"/>
		<path fill="#211C40" d="M356.7,100.9V98.8h1.7v2.101h2.101v1.6H358.4v2.1h-1.7v-2.1h-2.1v-1.6H356.7z"/>
		<path fill="#211C40" d="M371.6,104.7h-5.2l-0.8,1.899h-2l4.4-9.899h2l4.399,9.899h-2L371.6,104.7z M370.801,103l-1.8-4.2 L367.2,103H370.801z M371.301,93.7h-2l-1,1.899V95.7h1.5L371.301,93.7L371.301,93.7L371.301,93.7z"/>
		<path fill="#211C40" d="M375.2,106.6V96.7h1.801v9.899H375.2z"/>
		<path fill="#211C40" d="M388.7,101.7c0,2.6-1.6,5.1-5.1,5.1s-5.1-2.5-5.1-5.1c0-2.601,1.699-5.2,5.1-5.2 C387.1,96.5,388.801,99.1,388.7,101.7z M380.4,101.7c0,1.6,0.9,3.399,3.2,3.399s3.2-1.699,3.2-3.399s-0.9-3.5-3.2-3.5 C381.4,98.2,380.4,100.1,380.4,101.7z"/>
</svg>
