<svg version="1.1" xmlns="http://www.w3.org/2000/svg" xmlns:xlink="http://www.w3.org/1999/xlink" x="0px" y="0px" width="538.6px" height="270.6px">
<g id="fondo">
	<rect x="0" y="0" fill="#9AE9C7" width="538.6" height="270.6"/>
</g>
<g id="iphone">
	<path fill="#F7F8F9" d="M299.8,23.1h-74.2c-11.399,0-17.8,7.601-17.8,17.3v196c0,10.801,8.4,18,17.8,18h74.2c10,0,17.2-8.3,17.2-18 v-196C317,30.7,310.6,23.1,299.8,23.1z M308.5,220.8h-92.3V55.4h92.3V220.8z"/>
		<linearGradient id="SVGID_1_" gradientUnits="userSpaceOnUse" x1="299.1204" y1="634.467" x2="299.1204" y2="881.4098" gradientTransform="matrix(1 0 0 1 -36.5698 -612.6758)">
		<stop  offset="0" style="stop-color:#787878"/>
		<stop  offset="0.4909" style="stop-color:#E0E0E0"/>
		<stop  offset="0.5879" style="stop-color:#EBEBEB"/>
		<stop  offset="1" style="stop-color:#787878"/>
	</linearGradient>
	<path fill="url(#SVGID_1_)" d="M299.8,23h-74.2c-11.399,0-17.7,7.7-17.7,17.399v196c0,10.801,8.4,17.801,17.7,17.801h74.2 c10,0,17.399-8.101,17.399-17.801v-196C317.1,30.7,310.6,23,299.8,23z M315.6,236.4c0,9-6.8,16.2-15.899,16.2h-74.2 c-8,0-16.2-5.7-16.2-16.2v-196c0-9.699,6.5-15.899,16.2-15.899h74.2C309.1,24.5,315.6,30.9,315.6,40.4V236.4z"/>
	<path fill="#595E6C" d="M299.8,251.9h-74.2c-7.399,0-15.5-5.899-15.5-15.5v-196c0-8.6,6.7-15.1,15.5-15.1h74.2 c8.5,0,15.1,6.6,15.1,15.1v196C314.8,244.5,307.699,251.9,299.8,251.9z M225.6,25.7c-8.6,0-15.1,6.3-15.1,14.699v196 c0,10.301,9,15.101,15.1,15.101h74.2c7.7,0,14.7-7.2,14.7-15.101v-196c0-8.3-6.5-14.699-14.7-14.699H225.6z"/>
 <linearGradient id="SVGID_2_" gradientUnits="userSpaceOnUse" x1="317.6409" y1="635.2756" x2="335.0941" y2="635.2756" gradientTransform="matrix(1 0 0 1 -36.5698 -612.6758)">
		<stop  offset="0" style="stop-color:#3C424F"/>
		<stop  offset="0.0182" style="stop-color:#636A74"/>
		<stop  offset="0.0909" style="stop-color:#2B2E34"/>
		<stop  offset="0.8909" style="stop-color:#272B33"/>
		<stop  offset="0.9394" style="stop-color:#4A5057"/>
		<stop  offset="1" style="stop-color:#282C33"/>
	</linearGradient>
	<rect x="281.1" y="22.2" fill="url(#SVGID_2_)" width="17.5" height="0.8"/>

		<linearGradient id="SVGID_3_" gradientUnits="userSpaceOnUse" x1="317.6409" y1="634.7258" x2="335.0951" y2="634.7258" gradientTransform="matrix(1 0 0 1 -36.5698 -612.6758)">
		<stop  offset="0" style="stop-color:#3C424F"/>
		<stop  offset="0.0182" style="stop-color:#636A74"/>
		<stop  offset="0.0909" style="stop-color:#2B2E34"/>
		<stop  offset="0.3091" style="stop-color:#828791"/>
		<stop  offset="0.7273" style="stop-color:#828791"/>
		<stop  offset="0.8909" style="stop-color:#272B33"/>
		<stop  offset="0.9394" style="stop-color:#4A5057"/>
		<stop  offset="1" style="stop-color:#282C33"/>
	</linearGradient>
	<polygon fill="url(#SVGID_3_)" points="298.5,22.2 281.1,22.2 281.8,21.9 297.8,21.9 	"/>

		<linearGradient id="SVGID_4_" gradientUnits="userSpaceOnUse" x1="-78.7156" y1="-70.0315" x2="-68.0869" y2="-70.0315" gradientTransform="matrix(0 -1 1 0 277.5312 -13.5757)">
		<stop  offset="0" style="stop-color:#353540"/>
		<stop  offset="0.0303" style="stop-color:#5C626C"/>
		<stop  offset="0.0727" style="stop-color:#2B2F36"/>
		<stop  offset="0.8909" style="stop-color:#2B2F36"/>
		<stop  offset="0.9394" style="stop-color:#6C757E"/>
		<stop  offset="1" style="stop-color:#262C31"/>
	</linearGradient>
	<rect x="207.1" y="54.5" fill="url(#SVGID_4_)" width="0.8" height="10.6"/>

		<linearGradient id="SVGID_5_" gradientUnits="userSpaceOnUse" x1="-78.7014" y1="-70.6311" x2="-68.0807" y2="-70.6311" gradientTransform="matrix(0 -1 1 0 277.5312 -13.5757)">
		<stop  offset="0" style="stop-color:#989EA8"/>
		<stop  offset="0.0545" style="stop-color:#2B303A"/>
		<stop  offset="0.1576" style="stop-color:#828791"/>
		<stop  offset="0.8727" style="stop-color:#828791"/>
		<stop  offset="0.9333" style="stop-color:#2B303A"/>
		<stop  offset="1" style="stop-color:#989EA8"/>
	</linearGradient>
	<polygon fill="url(#SVGID_5_)" points="207.1,54.5 207.1,65.1 206.7,64.7 206.7,55 	"/>

		<linearGradient id="SVGID_6_" gradientUnits="userSpaceOnUse" x1="-98.0759" y1="-70.0315" x2="-90.1028" y2="-70.0315" gradientTransform="matrix(0 -1 1 0 277.5312 -13.5757)">
		<stop  offset="0" style="stop-color:#353540"/>
		<stop  offset="0.0303" style="stop-color:#5C626C"/>
		<stop  offset="0.0727" style="stop-color:#2B2F36"/>
		<stop  offset="0.8909" style="stop-color:#2B2F36"/>
		<stop  offset="0.9394" style="stop-color:#6C757E"/>
		<stop  offset="1" style="stop-color:#262C31"/>
	</linearGradient>
	<rect x="207.1" y="76.5" fill="url(#SVGID_6_)" width="0.8" height="8"/>

		<linearGradient id="SVGID_7_" gradientUnits="userSpaceOnUse" x1="-98.0759" y1="-70.6311" x2="-90.1123" y2="-70.6311" gradientTransform="matrix(0 -1 1 0 277.5312 -13.5757)">
		<stop  offset="0" style="stop-color:#989EA8"/>
		<stop  offset="0.0545" style="stop-color:#2B303A"/>
		<stop  offset="0.1576" style="stop-color:#828791"/>
		<stop  offset="0.8727" style="stop-color:#828791"/>
		<stop  offset="0.9333" style="stop-color:#2B303A"/>
		<stop  offset="1" style="stop-color:#989EA8"/>
	</linearGradient>
	<polygon fill="url(#SVGID_7_)" points="207.1,76.5 207.1,84.5 206.7,84 206.7,77 	"/>

		<linearGradient id="SVGID_8_" gradientUnits="userSpaceOnUse" x1="-117.4373" y1="-70.0315" x2="-109.4637" y2="-70.0315" gradientTransform="matrix(0 -1 1 0 277.5312 -13.5757)">
		<stop  offset="0" style="stop-color:#353540"/>
		<stop  offset="0.0303" style="stop-color:#5C626C"/>
		<stop  offset="0.0727" style="stop-color:#2B2F36"/>
		<stop  offset="0.8909" style="stop-color:#2B2F36"/>
		<stop  offset="0.9394" style="stop-color:#6C757E"/>
		<stop  offset="1" style="stop-color:#262C31"/>
	</linearGradient>
	<rect x="207.1" y="95.9" fill="url(#SVGID_8_)" width="0.8" height="8"/>

		<linearGradient id="SVGID_9_" gradientUnits="userSpaceOnUse" x1="-117.4236" y1="-70.6311" x2="-109.4597" y2="-70.6311" gradientTransform="matrix(0 -1 1 0 277.5312 -13.5757)">
		<stop  offset="0" style="stop-color:#989EA8"/>
		<stop  offset="0.0545" style="stop-color:#2B303A"/>
		<stop  offset="0.1576" style="stop-color:#828791"/>
		<stop  offset="0.8727" style="stop-color:#828791"/>
		<stop  offset="0.9333" style="stop-color:#2B303A"/>
		<stop  offset="1" style="stop-color:#989EA8"/>
	</linearGradient>
	<polygon fill="url(#SVGID_9_)" points="207.1,95.9 207.1,103.9 206.7,103.4 206.7,96.4 	"/>

		<linearGradient id="SVGID_10_" gradientUnits="userSpaceOnUse" x1="250.7981" y1="639.7786" x2="258.333" y2="636.606" gradientTransform="matrix(1 0 0 1 -36.5698 -612.6758)">
		<stop  offset="0.1394" style="stop-color:#838383"/>
		<stop  offset="0.47" style="stop-color:#EBEBEB"/>
		<stop  offset="0.7455" style="stop-color:#B1B1B1"/>
		<stop  offset="0.903" style="stop-color:#7C7C7C"/>
	</linearGradient>
	<path fill="url(#SVGID_10_)" d="M214.6,28.1c2.3-1.8,5.101-3,8.4-3.5l-0.7-1.399c-3.5,0.5-6.3,1.8-8.6,3.6L214.6,28.1z"/>
	<circle fill="#B2B2B2" cx="262.7" cy="236.3" r="10"/>

		<linearGradient id="SVGID_11_" gradientUnits="userSpaceOnUse" x1="299.2698" y1="859.3645" x2="299.2698" y2="839.2446" gradientTransform="matrix(1 0 0 1 -36.5698 -612.6758)">
		<stop  offset="0.6061" style="stop-color:#E4E5E9"/>
		<stop  offset="0.9333" style="stop-color:#F8F9FB"/>
	</linearGradient>
	<circle fill="url(#SVGID_11_)" cx="262.7" cy="236.6" r="10"/>

		<linearGradient id="SVGID_12_" gradientUnits="userSpaceOnUse" x1="299.2708" y1="849.1936" x2="299.2708" y2="859.3654" gradientTransform="matrix(1 0 0 1 -36.5698 -612.6758)">
		<stop  offset="0.1515" style="stop-color:#C9CACE"/>
		<stop  offset="0.8121" style="stop-color:#F8F9FB"/>
	</linearGradient>
	<path fill="url(#SVGID_12_)" d="M262.7,237.8c-3.801,0-7.301-0.5-10-1.3v0.1c0,5.601,4.5,10,10,10c5.6,0,10-4.5,10-10v-0.1
		C269.9,237.3,266.4,237.8,262.7,237.8z"/>

		<linearGradient id="SVGID_13_" gradientUnits="userSpaceOnUse" x1="299.0862" y1="845.2629" x2="298.85" y2="853.9702" gradientTransform="matrix(1 0 0 1 -36.5698 -612.6758)">
		<stop  offset="0" style="stop-color:#C6C6C6"/>
		<stop  offset="1" style="stop-color:#EBECEF"/>
	</linearGradient>
	<path fill="url(#SVGID_13_)" d="M264.7,240.5H260.1c-0.8,0-1.5-0.7-1.5-1.5V234.4c0-0.8,0.7-1.5,1.5-1.5h4.601
		c0.8,0,1.5,0.7,1.5,1.5V239C266.3,239.8,265.6,240.5,264.7,240.5z M260.2,233.3c-0.601,0-1.101,0.5-1.101,1.1V239
		c0,0.6,0.5,1.1,1.101,1.1h4.6c0.6,0,1.1-0.5,1.1-1.1V234.4c0-0.6-0.5-1.1-1.1-1.1H260.2z"/>

		<linearGradient id="SVGID_14_" gradientUnits="userSpaceOnUse" x1="344.9778" y1="637.8499" x2="352.1294" y2="646.5908" gradientTransform="matrix(1 0 0 1 -36.5698 -612.6758)">
		<stop  offset="0.1394" style="stop-color:#7A7A7A"/>
		<stop  offset="0.47" style="stop-color:#EBEBEB"/>
		<stop  offset="0.8" style="stop-color:#B1B1B1"/>
		<stop  offset="0.9879" style="stop-color:#848484"/>
	</linearGradient>
	<path fill="url(#SVGID_14_)" d="M309,25.3l-1.101,1.2c3.4,1.8,5.8,4.8,6.9,8.7l1.1-1.5C314.699,30.1,312.3,27.2,309,25.3z"/>

		<linearGradient id="SVGID_15_" gradientUnits="userSpaceOnUse" x1="248.9871" y1="858.5139" x2="255.4527" y2="864.9797" gradientTransform="matrix(1 0 0 1 -36.5698 -612.6758)">
		<stop  offset="0" style="stop-color:#939393"/>
		<stop  offset="0.47" style="stop-color:#EBEBEB"/>
		<stop  offset="1" style="stop-color:#8A8A8A"/>
	</linearGradient>
	<path fill="url(#SVGID_15_)" d="M220.2,253.4l1.199-1.3c-3.899-1-7.399-3.3-9.6-6.899l-1.3,0.699
		C212.6,249.5,216.1,252.2,220.2,253.4z"/>

		<linearGradient id="SVGID_16_" gradientUnits="userSpaceOnUse" x1="349.4329" y1="855.8801" x2="346.3322" y2="864.271" gradientTransform="matrix(1 0 0 1 -36.5698 -612.6758)">
		<stop  offset="0" style="stop-color:#989898"/>
		<stop  offset="0.47" style="stop-color:#EBEBEB"/>
		<stop  offset="1" style="stop-color:#989898"/>
	</linearGradient>
	<path fill="url(#SVGID_16_)" d="M315.5,243.9l-1.301-0.8c-1.399,3.3-3.899,6-7,7.601L308,252C311.4,250.3,314,247.4,315.5,243.9z"
		/>
	<path fill="#010104" d="M272,42.8c0,1-0.8,1.8-1.8,1.8H254.4c-1,0-1.8-0.8-1.8-1.8v-0.2c0-1,0.8-1.8,1.8-1.8H270.2
		c1,0,1.8,0.8,1.8,1.8V42.8z"/>
	<rect x="254" y="40.8" fill="#7F7F81" width="0.5" height="0.5"/>
	<rect x="254.9" y="40.8" fill="#7F7F81" width="0.5" height="0.5"/>
	<rect x="255.8" y="40.8" fill="#7F7F81" width="0.5" height="0.5"/>
	<rect x="256.7" y="40.8" fill="#7F7F81" width="0.5" height="0.5"/>
	<rect x="257.7" y="40.8" fill="#7F7F81" width="0.5" height="0.5"/>
	<rect x="258.6" y="40.8" fill="#7F7F81" width="0.5" height="0.5"/>
	<rect x="259.5" y="40.8" fill="#7F7F81" width="0.5" height="0.5"/>
	<rect x="260.4" y="40.8" fill="#7F7F81" width="0.5" height="0.5"/>
	<rect x="261.4" y="40.8" fill="#7F7F81" width="0.5" height="0.5"/>
	<rect x="262.3" y="40.8" fill="#7F7F81" width="0.5" height="0.5"/>
	<rect x="263.2" y="40.8" fill="#7F7F81" width="0.5" height="0.5"/>
	<rect x="253.5" y="41.3" fill="#7F7F81" width="0.5" height="0.5"/>
	<rect x="254.4" y="41.3" fill="#7F7F81" width="0.5" height="0.5"/>
	<rect x="255.3" y="41.3" fill="#7F7F81" width="0.5" height="0.5"/>
	<rect x="256.3" y="41.3" fill="#7F7F81" width="0.5" height="0.5"/>
	<rect x="257.2" y="41.3" fill="#7F7F81" width="0.5" height="0.5"/>
	<rect x="258.1" y="41.3" fill="#7F7F81" width="0.5" height="0.5"/>
	<rect x="259" y="41.3" fill="#7F7F81" width="0.5" height="0.5"/>
	<rect x="260" y="41.3" fill="#7F7F81" width="0.5" height="0.5"/>
	<rect x="260.9" y="41.3" fill="#7F7F81" width="0.5" height="0.5"/>
	<rect x="261.8" y="41.3" fill="#7F7F81" width="0.5" height="0.5"/>
	<rect x="262.8" y="41.3" fill="#7F7F81" width="0.5" height="0.5"/>
	<rect x="253" y="41.7" fill="#7F7F81" width="0.5" height="0.5"/>
	<rect x="254" y="41.7" fill="#7F7F81" width="0.5" height="0.5"/>
	<rect x="254.9" y="41.7" fill="#7F7F81" width="0.5" height="0.5"/>
	<rect x="255.8" y="41.7" fill="#7F7F81" width="0.5" height="0.5"/>
	<rect x="256.7" y="41.7" fill="#7F7F81" width="0.5" height="0.5"/>
	<rect x="257.7" y="41.7" fill="#7F7F81" width="0.5" height="0.5"/>
	<rect x="258.6" y="41.7" fill="#7F7F81" width="0.5" height="0.5"/>
	<rect x="259.5" y="41.7" fill="#7F7F81" width="0.5" height="0.5"/>
	<rect x="260.4" y="41.7" fill="#7F7F81" width="0.5" height="0.5"/>
	<rect x="261.4" y="41.7" fill="#7F7F81" width="0.5" height="0.5"/>
	<rect x="262.3" y="41.7" fill="#7F7F81" width="0.5" height="0.5"/>
	<rect x="263.2" y="41.7" fill="#7F7F81" width="0.5" height="0.5"/>
	<rect x="252.6" y="42.2" fill="#7F7F81" width="0.5" height="0.5"/>
	<rect x="253.5" y="42.2" fill="#7F7F81" width="0.5" height="0.5"/>
	<rect x="254.4" y="42.2" fill="#7F7F81" width="0.5" height="0.5"/>
	<rect x="255.3" y="42.2" fill="#7F7F81" width="0.5" height="0.5"/>
	<rect x="256.3" y="42.2" fill="#7F7F81" width="0.5" height="0.5"/>
	<rect x="257.2" y="42.2" fill="#7F7F81" width="0.5" height="0.5"/>
	<rect x="258.1" y="42.2" fill="#7F7F81" width="0.5" height="0.5"/>
	<rect x="259" y="42.2" fill="#7F7F81" width="0.5" height="0.5"/>
	<rect x="260" y="42.2" fill="#7F7F81" width="0.5" height="0.5"/>
	<rect x="260.9" y="42.2" fill="#7F7F81" width="0.5" height="0.5"/>
	<rect x="261.8" y="42.2" fill="#7F7F81" width="0.5" height="0.5"/>
	<rect x="262.8" y="42.2" fill="#7F7F81" width="0.5" height="0.5"/>
	<rect x="253" y="42.7" fill="#7F7F81" width="0.5" height="0.5"/>
	<rect x="254" y="42.7" fill="#7F7F81" width="0.5" height="0.5"/>
	<rect x="254.9" y="42.7" fill="#7F7F81" width="0.5" height="0.5"/>
	<rect x="255.8" y="42.7" fill="#7F7F81" width="0.5" height="0.5"/>
	<rect x="256.7" y="42.7" fill="#7F7F81" width="0.5" height="0.5"/>
	<rect x="257.7" y="42.7" fill="#7F7F81" width="0.5" height="0.5"/>
	<rect x="258.6" y="42.7" fill="#7F7F81" width="0.5" height="0.5"/>
	<rect x="259.5" y="42.7" fill="#7F7F81" width="0.5" height="0.5"/>
	<rect x="260.4" y="42.7" fill="#7F7F81" width="0.5" height="0.5"/>
	<rect x="261.4" y="42.7" fill="#7F7F81" width="0.5" height="0.5"/>
	<rect x="262.3" y="42.7" fill="#7F7F81" width="0.5" height="0.5"/>
	<rect x="263.2" y="42.7" fill="#7F7F81" width="0.5" height="0.5"/>
	<rect x="252.6" y="43.2" fill="#7F7F81" width="0.5" height="0.5"/>
	<rect x="253.5" y="43.2" fill="#7F7F81" width="0.5" height="0.5"/>
	<rect x="254.4" y="43.2" fill="#7F7F81" width="0.5" height="0.5"/>
	<rect x="255.3" y="43.2" fill="#7F7F81" width="0.5" height="0.5"/>
	<rect x="256.3" y="43.2" fill="#7F7F81" width="0.5" height="0.5"/>
	<rect x="257.2" y="43.2" fill="#7F7F81" width="0.5" height="0.5"/>
	<rect x="258.1" y="43.2" fill="#7F7F81" width="0.5" height="0.5"/>
	<rect x="259" y="43.2" fill="#7F7F81" width="0.5" height="0.5"/>
	<rect x="260" y="43.2" fill="#7F7F81" width="0.5" height="0.5"/>
	<rect x="260.9" y="43.2" fill="#7F7F81" width="0.5" height="0.5"/>
	<rect x="261.8" y="43.2" fill="#7F7F81" width="0.5" height="0.5"/>
	<rect x="262.8" y="43.2" fill="#7F7F81" width="0.5" height="0.5"/>
	<rect x="253" y="43.6" fill="#7F7F81" width="0.5" height="0.5"/>
	<rect x="254" y="43.6" fill="#7F7F81" width="0.5" height="0.5"/>
	<rect x="254.9" y="43.6" fill="#7F7F81" width="0.5" height="0.5"/>
	<rect x="255.8" y="43.6" fill="#7F7F81" width="0.5" height="0.5"/>
	<rect x="256.7" y="43.6" fill="#7F7F81" width="0.5" height="0.5"/>
	<rect x="257.7" y="43.6" fill="#7F7F81" width="0.5" height="0.5"/>
	<rect x="258.6" y="43.6" fill="#7F7F81" width="0.5" height="0.5"/>
	<rect x="259.5" y="43.6" fill="#7F7F81" width="0.5" height="0.5"/>
	<rect x="260.4" y="43.6" fill="#7F7F81" width="0.5" height="0.5"/>
	<rect x="261.4" y="43.6" fill="#7F7F81" width="0.5" height="0.5"/>
	<rect x="262.3" y="43.6" fill="#7F7F81" width="0.5" height="0.5"/>
	<rect x="263.2" y="43.6" fill="#7F7F81" width="0.5" height="0.5"/>
	<rect x="253.5" y="44.1" fill="#7F7F81" width="0.5" height="0.5"/>
	<rect x="254.4" y="44.1" fill="#7F7F81" width="0.5" height="0.5"/>
	<rect x="255.3" y="44.1" fill="#7F7F81" width="0.5" height="0.5"/>
	<rect x="256.3" y="44.1" fill="#7F7F81" width="0.5" height="0.5"/>
	<rect x="257.2" y="44.1" fill="#7F7F81" width="0.5" height="0.5"/>
	<rect x="258.1" y="44.1" fill="#7F7F81" width="0.5" height="0.5"/>
	<rect x="259" y="44.1" fill="#7F7F81" width="0.5" height="0.5"/>
	<rect x="260" y="44.1" fill="#7F7F81" width="0.5" height="0.5"/>
	<rect x="260.9" y="44.1" fill="#7F7F81" width="0.5" height="0.5"/>
	<rect x="261.8" y="44.1" fill="#7F7F81" width="0.5" height="0.5"/>
	<rect x="262.8" y="44.1" fill="#7F7F81" width="0.5" height="0.5"/>
	<rect x="264.2" y="40.8" fill="#7F7F81" width="0.5" height="0.5"/>
	<rect x="265.1" y="40.8" fill="#7F7F81" width="0.5" height="0.5"/>
	<rect x="266" y="40.8" fill="#7F7F81" width="0.5" height="0.5"/>
	<rect x="266.9" y="40.8" fill="#7F7F81" width="0.5" height="0.5"/>
	<rect x="267.9" y="40.8" fill="#7F7F81" width="0.5" height="0.5"/>
	<rect x="268.8" y="40.8" fill="#7F7F81" width="0.5" height="0.5"/>
	<rect x="269.7" y="40.8" fill="#7F7F81" width="0.5" height="0.5"/>
	<rect x="270.6" y="40.8" fill="#7F7F81" width="0.5" height="0.5"/>
	<rect x="263.7" y="41.3" fill="#7F7F81" width="0.5" height="0.5"/>
	<rect x="264.6" y="41.3" fill="#7F7F81" width="0.5" height="0.5"/>
	<rect x="265.5" y="41.3" fill="#7F7F81" width="0.5" height="0.5"/>
	<rect x="266.5" y="41.3" fill="#7F7F81" width="0.5" height="0.5"/>
	<rect x="267.4" y="41.3" fill="#7F7F81" width="0.5" height="0.5"/>
	<rect x="268.3" y="41.3" fill="#7F7F81" width="0.5" height="0.5"/>
	<rect x="269.2" y="41.3" fill="#7F7F81" width="0.5" height="0.5"/>
	<rect x="270.2" y="41.3" fill="#7F7F81" width="0.5" height="0.5"/>
	<rect x="271.1" y="41.3" fill="#7F7F81" width="0.5" height="0.5"/>
	<rect x="264.2" y="41.7" fill="#7F7F81" width="0.5" height="0.5"/>
	<rect x="265.1" y="41.7" fill="#7F7F81" width="0.5" height="0.5"/>
	<rect x="266" y="41.7" fill="#7F7F81" width="0.5" height="0.5"/>
	<rect x="266.9" y="41.7" fill="#7F7F81" width="0.5" height="0.5"/>
	<rect x="267.9" y="41.7" fill="#7F7F81" width="0.5" height="0.5"/>
	<rect x="268.8" y="41.7" fill="#7F7F81" width="0.5" height="0.5"/>
	<rect x="269.7" y="41.7" fill="#7F7F81" width="0.5" height="0.5"/>
	<rect x="270.6" y="41.7" fill="#7F7F81" width="0.5" height="0.5"/>
	<rect x="271.6" y="41.7" fill="#7F7F81" width="0.5" height="0.5"/>
	<rect x="263.7" y="42.2" fill="#7F7F81" width="0.5" height="0.5"/>
	<rect x="264.6" y="42.2" fill="#7F7F81" width="0.5" height="0.5"/>
	<rect x="265.5" y="42.2" fill="#7F7F81" width="0.5" height="0.5"/>
	<rect x="266.5" y="42.2" fill="#7F7F81" width="0.5" height="0.5"/>
	<rect x="267.4" y="42.2" fill="#7F7F81" width="0.5" height="0.5"/>
	<rect x="268.3" y="42.2" fill="#7F7F81" width="0.5" height="0.5"/>
	<rect x="269.2" y="42.2" fill="#7F7F81" width="0.5" height="0.5"/>
	<rect x="270.2" y="42.2" fill="#7F7F81" width="0.5" height="0.5"/>
	<rect x="271.1" y="42.2" fill="#7F7F81" width="0.5" height="0.5"/>
	<rect x="264.2" y="42.7" fill="#7F7F81" width="0.5" height="0.5"/>
	<rect x="265.1" y="42.7" fill="#7F7F81" width="0.5" height="0.5"/>
	<rect x="266" y="42.7" fill="#7F7F81" width="0.5" height="0.5"/>
	<rect x="266.9" y="42.7" fill="#7F7F81" width="0.5" height="0.5"/>
	<rect x="267.9" y="42.7" fill="#7F7F81" width="0.5" height="0.5"/>
	<rect x="268.8" y="42.7" fill="#7F7F81" width="0.5" height="0.5"/>
	<rect x="269.7" y="42.7" fill="#7F7F81" width="0.5" height="0.5"/>
	<rect x="270.6" y="42.7" fill="#7F7F81" width="0.5" height="0.5"/>
	<rect x="271.6" y="42.7" fill="#7F7F81" width="0.5" height="0.5"/>
	<rect x="263.7" y="43.2" fill="#7F7F81" width="0.5" height="0.5"/>
	<rect x="264.6" y="43.2" fill="#7F7F81" width="0.5" height="0.5"/>
	<rect x="265.5" y="43.2" fill="#7F7F81" width="0.5" height="0.5"/>
	<rect x="266.5" y="43.2" fill="#7F7F81" width="0.5" height="0.5"/>
	<rect x="267.4" y="43.2" fill="#7F7F81" width="0.5" height="0.5"/>
	<rect x="268.3" y="43.2" fill="#7F7F81" width="0.5" height="0.5"/>
	<rect x="269.2" y="43.2" fill="#7F7F81" width="0.5" height="0.5"/>
	<rect x="270.2" y="43.2" fill="#7F7F81" width="0.5" height="0.5"/>
	<rect x="271.1" y="43.2" fill="#7F7F81" width="0.5" height="0.5"/>
	<rect x="264.2" y="43.6" fill="#7F7F81" width="0.5" height="0.5"/>
	<rect x="265.1" y="43.6" fill="#7F7F81" width="0.5" height="0.5"/>
	<rect x="266" y="43.6" fill="#7F7F81" width="0.5" height="0.5"/>
	<rect x="266.9" y="43.6" fill="#7F7F81" width="0.5" height="0.5"/>
	<rect x="267.9" y="43.6" fill="#7F7F81" width="0.5" height="0.5"/>
	<rect x="268.8" y="43.6" fill="#7F7F81" width="0.5" height="0.5"/>
	<rect x="269.7" y="43.6" fill="#7F7F81" width="0.5" height="0.5"/>
	<rect x="270.6" y="43.6" fill="#7F7F81" width="0.5" height="0.5"/>
	<rect x="263.7" y="44.1" fill="#7F7F81" width="0.5" height="0.5"/>
	<rect x="264.6" y="44.1" fill="#7F7F81" width="0.5" height="0.5"/>
	<rect x="265.5" y="44.1" fill="#7F7F81" width="0.5" height="0.5"/>
	<rect x="266.5" y="44.1" fill="#7F7F81" width="0.5" height="0.5"/>
	<rect x="267.4" y="44.1" fill="#7F7F81" width="0.5" height="0.5"/>
	<rect x="268.3" y="44.1" fill="#7F7F81" width="0.5" height="0.5"/>
	<rect x="269.2" y="44.1" fill="#7F7F81" width="0.5" height="0.5"/>
	<rect x="270.2" y="44.1" fill="#7F7F81" width="0.5" height="0.5"/>

		<linearGradient id="SVGID_17_" gradientUnits="userSpaceOnUse" x1="298.8206" y1="653.1418" x2="298.8206" y2="657.5093" gradientTransform="matrix(1 0 0 1 -36.5698 -612.6758)">
		<stop  offset="0" style="stop-color:#787878"/>
		<stop  offset="0.47" style="stop-color:#EBEBEB"/>
		<stop  offset="1" style="stop-color:#B1B1B1"/>
	</linearGradient>
	<path fill="url(#SVGID_17_)" d="M272.3,42.4c0-1-0.8-1.899-1.9-1.899h-16.3c-1,0-1.899,0.8-1.899,1.899v0.4c0,1,0.8,1.9,1.899,1.9
		h16.3c1,0,1.9-0.801,1.9-1.9V42.4z M271.6,42.7c0,0.6-0.5,1.1-1.1,1.1h-16.3c-0.601,0-1.101-0.5-1.101-1.1v-0.4
		c0-0.6,0.5-1.1,1.101-1.1h16.3c0.6,0,1.1,0.5,1.1,1.1V42.7z"/>

		<linearGradient id="SVGID_18_" gradientUnits="userSpaceOnUse" x1="289.8303" y1="656.6252" x2="308.6292" y2="656.6252" gradientTransform="matrix(1 0 0 1 -36.5698 -612.6758)">
		<stop  offset="0.0424" style="stop-color:#F4F4F4"/>
		<stop  offset="1" style="stop-color:#B1B1B1"/>
	</linearGradient>
	<path fill="url(#SVGID_18_)" d="M270.5,44.6c0.7,0,1.3-0.3,1.6-0.899l-0.6-0.4c-0.2,0.3-0.601,0.6-1,0.6h-14.8l-2.4,0.5
		c0.3,0.101,0.6,0.2,0.9,0.2H270.5z"/>
	<g>

			<linearGradient id="SVGID_19_" gradientUnits="userSpaceOnUse" x1="299.0696" y1="649.302" x2="299.0696" y2="644.1411" gradientTransform="matrix(1 0 0 1 -36.5698 -612.6758)">
			<stop  offset="0" style="stop-color:#5D5C5E"/>
			<stop  offset="1" style="stop-color:#010104"/>
		</linearGradient>
		<circle fill="url(#SVGID_19_)" cx="262.5" cy="34.2" r="2.6"/>

			<linearGradient id="SVGID_20_" gradientUnits="userSpaceOnUse" x1="950.3918" y1="-487.0544" x2="950.3918" y2="-489.1035" gradientTransform="matrix(-1 0 0 -1 1212.8911 -453.8618)">
			<stop  offset="0" style="stop-color:#0B131C"/>
			<stop  offset="1" style="stop-color:#354043"/>
		</linearGradient>
		<circle fill="url(#SVGID_20_)" cx="262.5" cy="34.2" r="1"/>

			<linearGradient id="SVGID_21_" gradientUnits="userSpaceOnUse" x1="299.0696" y1="647.6331" x2="299.0696" y2="645.9778" gradientTransform="matrix(1 0 0 1 -36.5698 -612.6738)">
			<stop  offset="0" style="stop-color:#4B4E4F"/>
			<stop  offset="0.6061" style="stop-color:#2F3232"/>
			<stop  offset="1" style="stop-color:#1C201F"/>
		</linearGradient>
		<circle fill="url(#SVGID_21_)" cx="262.5" cy="34.2" r="0.8"/>

			<radialGradient id="SVGID_22_" cx="299.0979" cy="646.843" r="0.6386" gradientTransform="matrix(1 0 0 1 -36.5698 -612.6738)" gradientUnits="userSpaceOnUse">
			<stop  offset="0" style="stop-color:#120C1A"/>
			<stop  offset="0.5758" style="stop-color:#1320A4"/>
			<stop  offset="1" style="stop-color:#2D5CFD"/>
		</radialGradient>
		<circle fill="url(#SVGID_22_)" cx="262.5" cy="34.2" r="0.6"/>
	</g>
	<circle fill="#131514" cx="244.3" cy="42.7" r="2.1"/>
	<rect x="216.2" y="55.3" display="none" fill="#242426" width="92.199" height="165.5"/>
</g>
<g id="pantalla_codigo">
	<rect x="216.3" y="55.4" opacity="0.9" enable-background="new    " width="92.3" height="165.4"/>
	<g>
		<path fill="#FFFFFF" d="M237.5,75v4.1h-0.4V75H237.5z"/>
		<path fill="#FFFFFF" d="M238.7,76.2v0.5l0,0c0.1-0.2,0.199-0.301,0.399-0.4s0.4-0.2,0.601-0.2c0.199,0,0.399,0,0.5,0.101dc0.1,0.1,0.3,0.1,0.3,0.199c0,0.101,0.2,0.2,0.2,0.301c0,0.199,0.1,0.3,0.1,0.5V79.1h-0.4V77.2c0-0.101,0-0.301,0-0.301dc0-0.1-0.1-0.199-0.1-0.3c-0.1-0.1-0.1-0.2-0.2-0.2c-0.1,0-0.2-0.1-0.399-0.1c-0.2,0-0.301,0-0.4,0.1dc-0.1,0.101-0.2,0.101-0.3,0.2c-0.101,0.101-0.101,0.2-0.2,0.3c0,0.101-0.1,0.301-0.1,0.4V79h-0.4v-3h0.4V76.2z"/>
		<path fill="#FFFFFF" d="M242.6,76.2v0.3H242v2c0,0.1,0,0.2,0.1,0.3c0,0.1,0.101,0.1,0.3,0.1c0.101,0,0.2,0,0.301,0V79.2dc-0.101,0-0.101,0-0.2,0c-0.101,0-0.101,0-0.2,0c-0.3,0-0.4,0-0.5-0.101c-0.1-0.1-0.2-0.3-0.1-0.5v-2h-0.5v-0.3h0.5v-0.9h0.399dv0.9h0.5V76.2z"/>
		<path fill="#FFFFFF" d="M243.4,76.2V76.9l0,0c0.101-0.3,0.2-0.399,0.4-0.6c0.2-0.1,0.4-0.2,0.7-0.2v0.4c-0.2,0-0.3,0-0.4,0.1dc-0.1,0.101-0.3,0.101-0.3,0.2c-0.1,0.1-0.2,0.2-0.2,0.3c-0.1,0.101-0.1,0.3-0.1,0.4v1.6h-0.4v-3h0.3V76.2z"/>
		<path fill="#FFFFFF" d="M246.7,76.2c0.199,0.1,0.3,0.199,0.399,0.3c0.101,0.2,0.2,0.3,0.3,0.5c0.101,0.2,0.101,0.399,0.101,0.6ds0,0.4-0.101,0.601c-0.1,0.199-0.199,0.3-0.3,0.5C247,78.9,246.8,79,246.7,79c-0.2,0.1-0.4,0.1-0.601,0.1s-0.399,0-0.6-0.1dc-0.2-0.101-0.3-0.2-0.4-0.3c-0.1-0.101-0.2-0.301-0.3-0.5c-0.1-0.2-0.1-0.4-0.1-0.601s0-0.399,0.1-0.6s0.2-0.3,0.3-0.5dc0.101-0.2,0.3-0.3,0.4-0.3c0.2-0.101,0.399-0.101,0.6-0.101S246.5,76.1,246.7,76.2z M245.6,76.5c-0.1,0.1-0.3,0.2-0.3,0.3dc-0.1,0.1-0.2,0.3-0.2,0.4c0,0.199-0.1,0.3-0.1,0.5c0,0.199,0,0.3,0.1,0.5c0,0.199,0.101,0.3,0.2,0.399c0.1,0.101,0.2,0.2,0.3,0.3dC245.7,79,245.9,79,246,79c0.2,0,0.3,0,0.399-0.101c0.101-0.1,0.301-0.199,0.301-0.3c0.1-0.1,0.199-0.3,0.199-0.399dC246.9,78,247,77.9,247,77.7c0-0.2,0-0.301-0.101-0.5c0-0.2-0.1-0.301-0.199-0.4c-0.101-0.1-0.2-0.2-0.301-0.3dC246.3,76.4,246.1,76.4,246,76.4C245.9,76.4,245.7,76.4,245.6,76.5z"/>
		<path fill="#FFFFFF" d="M250.3,79.1v-0.6l0,0c0,0.1-0.1,0.2-0.2,0.3c-0.1,0.1-0.2,0.2-0.3,0.2c-0.1,0.1-0.2,0.1-0.3,0.1dc-0.101,0-0.2,0-0.3,0c-0.2,0-0.4,0-0.601-0.1c-0.2-0.101-0.3-0.2-0.399-0.3c-0.101-0.2-0.2-0.301-0.301-0.5dc-0.1-0.2-0.1-0.4-0.1-0.601s0-0.399,0.1-0.6C248,76.8,248,76.7,248.2,76.5c0.1-0.2,0.199-0.3,0.399-0.3dC248.8,76.1,249,76.1,249.2,76.1c0.1,0,0.199,0,0.3,0c0.1,0,0.2,0.101,0.3,0.101c0.1,0.1,0.2,0.1,0.3,0.199dc0.101,0.101,0.101,0.2,0.2,0.301l0,0V75h0.4v4L250.3,79.1L250.3,79.1z M248.3,78.1c0,0.2,0.1,0.3,0.2,0.4dc0.1,0.1,0.2,0.2,0.3,0.3s0.3,0.1,0.4,0.1c0.199,0,0.3,0,0.5-0.1c0.1-0.1,0.3-0.2,0.3-0.3c0.1-0.101,0.2-0.3,0.2-0.4dc0-0.2,0.1-0.3,0.1-0.5s0-0.3-0.1-0.5c0-0.2-0.101-0.3-0.2-0.399c-0.101-0.101-0.2-0.2-0.3-0.301c-0.101-0.1-0.301-0.1-0.5-0.1dc-0.2,0-0.301,0-0.4,0.1c-0.1,0.101-0.2,0.2-0.3,0.301c-0.101,0.1-0.101,0.3-0.2,0.399c0,0.2-0.1,0.3-0.1,0.5S248.3,78,248.3,78.1dz"/>
		<path fill="#FFFFFF" d="M253.4,79.1v-0.5l0,0c-0.1,0.2-0.199,0.3-0.399,0.5c-0.2,0.101-0.4,0.2-0.601,0.2c-0.199,0-0.3,0-0.5-0.1dc-0.1-0.101-0.3-0.101-0.3-0.2c-0.1-0.101-0.2-0.2-0.2-0.3c0-0.101-0.1-0.301-0.1-0.5v-1.9h0.4v1.9c0,0.3,0.1,0.5,0.199,0.6dC252,78.9,252.2,79,252.5,79c0.2,0,0.3,0,0.399-0.101c0.101-0.1,0.2-0.199,0.301-0.3c0.1-0.1,0.1-0.3,0.199-0.399dc0-0.2,0.101-0.301,0.101-0.4v-1.6h0.399v3L253.4,79.1L253.4,79.1z"/>
		<path fill="#FFFFFF" d="M256.6,78.8v0.3h-2.5v-0.3l1.9-2.4h-1.8v-0.3h2.3v0.3l-1.9,2.4H256.6L256.6,78.8z"/>
		<path fill="#FFFFFF" d="M258.8,76.6c-0.1-0.1-0.3-0.2-0.6-0.2c-0.2,0-0.301,0-0.4,0.101c-0.1,0.1-0.3,0.2-0.3,0.3dc-0.101,0.1-0.2,0.3-0.2,0.4c0,0.199-0.1,0.3-0.1,0.5c0,0.199,0,0.3,0.1,0.5c0,0.199,0.1,0.3,0.2,0.399c0.1,0.101,0.2,0.2,0.3,0.3dC257.9,79,258.1,79,258.2,79c0.1,0,0.199,0,0.3-0.101c0.1,0,0.2-0.1,0.3-0.199c0.1-0.101,0.1-0.2,0.2-0.301dc0.1-0.1,0.1-0.199,0.1-0.3h0.4c-0.101,0.3-0.2,0.601-0.4,0.8c-0.2,0.2-0.5,0.301-0.8,0.301c-0.2,0-0.4,0-0.6-0.101dc-0.2-0.1-0.301-0.2-0.4-0.3c-0.1-0.2-0.2-0.3-0.3-0.5c-0.101-0.2-0.101-0.4-0.101-0.6c0-0.2,0-0.4,0.101-0.601dc0.1-0.2,0.2-0.3,0.3-0.5s0.3-0.3,0.4-0.3c0.199-0.1,0.399-0.1,0.6-0.1c0.3,0,0.6,0.1,0.8,0.3s0.3,0.399,0.4,0.8h-0.4dC259.1,76.9,259,76.7,258.8,76.6z"/>
		<path fill="#FFFFFF" d="M260.1,76.6c0.101-0.1,0.2-0.2,0.3-0.3c0.101-0.1,0.2-0.1,0.4-0.2c0.2-0.1,0.3-0.1,0.5-0.1dc0.1,0,0.3,0,0.4,0c0.1,0,0.3,0.1,0.3,0.1c0.1,0.101,0.2,0.2,0.3,0.3c0.1,0.101,0.1,0.301,0.1,0.5V78.5c0,0.2,0.101,0.2,0.2,0.2dh0.101V79H262.6h-0.1c-0.101,0-0.2,0-0.2,0c-0.101,0-0.101-0.101-0.101-0.101s-0.1-0.1-0.1-0.199c0-0.101,0-0.101,0-0.2l0,0dc-0.1,0.1-0.1,0.2-0.2,0.3c-0.1,0.1-0.2,0.1-0.2,0.2c-0.1,0.1-0.199,0.1-0.3,0.1c-0.1,0-0.2,0-0.399,0c-0.101,0-0.301,0-0.4-0.1dc-0.1,0-0.2-0.101-0.3-0.2c-0.101-0.1-0.2-0.2-0.2-0.3c-0.1-0.101-0.1-0.3-0.1-0.4c0-0.2,0-0.399,0.1-0.5c0.1-0.1,0.2-0.2,0.4-0.3dc0.199-0.1,0.3-0.1,0.5-0.1c0.199,0,0.399-0.101,0.6-0.101c0.1,0,0.2,0,0.2,0s0.1,0,0.2-0.1c0.1,0,0.1-0.101,0.1-0.101dc0-0.1,0-0.1,0-0.199c0-0.101,0-0.2-0.1-0.301c0-0.1-0.101-0.1-0.2-0.199c-0.101,0-0.2-0.101-0.3-0.101c-0.101,0-0.2,0-0.3,0dc-0.2,0-0.4,0.101-0.601,0.2s-0.2,0.3-0.2,0.5H260C260,76.9,260,76.7,260.1,76.6z M261.9,77.5l-0.1,0.1c-0.1,0-0.1,0-0.2,0dc-0.2,0-0.3,0.101-0.5,0.101s-0.3,0.1-0.399,0.1c-0.101,0-0.301,0.1-0.301,0.2c-0.1,0.1-0.1,0.2-0.1,0.3s0,0.2,0.1,0.3dc0,0.101,0.101,0.101,0.2,0.2c0.101,0.1,0.101,0.1,0.2,0.1s0.2,0,0.3,0c0.101,0,0.3,0,0.4-0.1c0.1-0.1,0.3-0.1,0.3-0.2dc0.1-0.1,0.2-0.2,0.2-0.3c0.1-0.1,0.1-0.3,0.1-0.4L261.9,77.5L261.9,77.5z"/>
		<path fill="#FFFFFF" d="M264.8,78.2c0,0.1,0.1,0.3,0.2,0.399c0.1,0.101,0.2,0.2,0.3,0.3C265.4,79,265.6,79,265.7,79dc0.3,0,0.5-0.101,0.6-0.2c0.2-0.2,0.3-0.3,0.3-0.6h0.4c-0.101,0.3-0.2,0.6-0.4,0.8s-0.5,0.3-0.899,0.3c-0.2,0-0.4,0-0.601-0.1dc-0.2-0.101-0.3-0.2-0.399-0.301c-0.101-0.199-0.2-0.3-0.301-0.5c-0.1-0.199-0.1-0.399-0.1-0.6s0-0.4,0.1-0.6 C264.5,77,264.5,76.9,264.7,76.7c0.1-0.2,0.3-0.301,0.399-0.301c0.2-0.1,0.4-0.1,0.601-0.1c0.3,0,0.399,0.1,0.6,0.2 c0.2,0.1,0.3,0.2,0.4,0.399c0.1,0.2,0.199,0.301,0.199,0.5C266.9,77.6,267,77.8,267,78h-2.3C264.8,77.9,264.8,78,264.8,78.2z  M266.6,77.1c0-0.1-0.1-0.3-0.2-0.3c-0.1-0.1-0.199-0.2-0.3-0.2c-0.1,0-0.3-0.1-0.399-0.1c-0.2,0-0.301,0-0.4,0.1 c-0.1,0.101-0.2,0.101-0.3,0.2c-0.101,0.1-0.2,0.2-0.2,0.3c0,0.101-0.1,0.3-0.1,0.4h1.899C266.7,77.3,266.7,77.2,266.6,77.1z"/>
		<path fill="#FFFFFF" d="M267.9,75v4.1H267.5V75H267.9z"/>
		<path fill="#FFFFFF" d="M272,76.6c-0.101-0.1-0.3-0.2-0.601-0.2c-0.199,0-0.3,0-0.399,0.101c-0.101,0.1-0.3,0.2-0.3,0.3 c-0.101,0.1-0.2,0.3-0.2,0.4c0,0.199-0.101,0.3-0.101,0.5c0,0.199,0,0.3,0.101,0.5c0.1,0.199,0.1,0.3,0.2,0.399 c0.1,0.101,0.199,0.2,0.3,0.3C271.1,79,271.3,79,271.4,79c0.101,0,0.2,0,0.301-0.101c0.1-0.1,0.199-0.1,0.3-0.199 c0.1-0.101,0.1-0.2,0.2-0.301c0.1-0.1,0.1-0.199,0.1-0.3h0.4c-0.101,0.3-0.2,0.601-0.4,0.8c-0.2,0.2-0.5,0.301-0.8,0.301 c-0.2,0-0.4,0-0.601-0.101c-0.199-0.1-0.3-0.2-0.399-0.3c-0.101-0.2-0.2-0.3-0.3-0.5c-0.101-0.2-0.101-0.4-0.101-0.6 c0-0.2,0-0.4,0.101-0.601c0.1-0.2,0.199-0.3,0.3-0.5c0.1-0.2,0.3-0.3,0.399-0.3c0.2-0.1,0.4-0.1,0.601-0.1c0.3,0,0.6,0.1,0.8,0.3 s0.3,0.399,0.4,0.8h-0.4C272.3,76.9,272.2,76.7,272,76.6z"/>
		<path fill="#FFFFFF" d="M275,76.2c0.2,0.1,0.3,0.199,0.399,0.3c0.101,0.2,0.2,0.3,0.301,0.5c0.1,0.2,0.1,0.399,0.1,0.6 s0,0.4-0.1,0.601c-0.101,0.199-0.2,0.3-0.301,0.5C275.3,78.9,275.1,79,275,79c-0.2,0.1-0.4,0.1-0.601,0.1 c-0.199,0-0.399,0-0.6-0.1c-0.2-0.101-0.3-0.2-0.4-0.3c-0.1-0.2-0.199-0.301-0.3-0.5C273,78,273,77.8,273,77.6s0-0.399,0.1-0.6 c0.101-0.2,0.2-0.3,0.3-0.5c0.101-0.2,0.2-0.3,0.4-0.3c0.2-0.101,0.4-0.101,0.6-0.101C274.6,76.1,274.9,76.1,275,76.2z M274,76.5 c-0.101,0.1-0.3,0.2-0.3,0.3c-0.101,0.1-0.2,0.3-0.2,0.4c0,0.199-0.101,0.3-0.101,0.5c0,0.199,0,0.3,0.101,0.5 c0,0.199,0.1,0.3,0.2,0.399c0.1,0.101,0.199,0.2,0.3,0.3C274.1,79,274.3,79,274.4,79c0.2,0,0.301,0,0.4-0.101 c0.1-0.1,0.3-0.199,0.3-0.3c0.101-0.1,0.2-0.3,0.2-0.399c0-0.2,0.1-0.301,0.1-0.5c0-0.2,0-0.301-0.1-0.5c0-0.2-0.1-0.301-0.2-0.4 c-0.1-0.1-0.2-0.2-0.3-0.3c-0.1-0.101-0.3-0.101-0.4-0.101C274.3,76.4,274.1,76.4,274,76.5z M274.1,75.8L274.7,75h0.399l-0.8,0.8 H274.1z"/>
		<path fill="#FFFFFF" d="M278.7,79.1v-0.6l0,0c0,0.1-0.101,0.2-0.2,0.3c-0.101,0.1-0.2,0.2-0.3,0.2c-0.101,0.1-0.2,0.1-0.301,0.1 c-0.1,0-0.199,0-0.3,0c-0.2,0-0.399,0-0.6-0.1c-0.2-0.101-0.3-0.2-0.4-0.3c-0.1-0.2-0.2-0.301-0.3-0.5c-0.1-0.2-0.1-0.4-0.1-0.601 s0-0.399,0.1-0.6s0.1-0.3,0.3-0.5c0.101-0.2,0.3-0.3,0.4-0.3c0.2-0.101,0.399-0.101,0.6-0.101c0.101,0,0.2,0,0.3,0 c0.101,0,0.2,0.101,0.301,0.101c0.1,0.1,0.199,0.1,0.3,0.199c0.1,0.101,0.1,0.2,0.2,0.301l0,0V75h0.399v4L278.7,79.1L278.7,79.1z  M276.7,78.1c0,0.2,0.1,0.3,0.199,0.4c0.101,0.1,0.2,0.2,0.301,0.3c0.1,0.1,0.3,0.1,0.399,0.1c0.2,0,0.3,0,0.5-0.1 c0.101-0.1,0.3-0.2,0.3-0.3c0.101-0.101,0.2-0.3,0.2-0.4c0-0.2,0.101-0.3,0.101-0.5s0-0.3-0.101-0.5c0-0.2-0.1-0.3-0.2-0.399 c-0.1-0.101-0.199-0.2-0.3-0.301c-0.1-0.1-0.3-0.1-0.5-0.1s-0.3,0-0.399,0.1C277.1,76.5,277,76.6,276.9,76.7 c-0.1,0.1-0.1,0.3-0.199,0.399c0,0.2-0.101,0.3-0.101,0.5S276.6,78,276.7,78.1z"/>
		<path fill="#FFFFFF" d="M280,75v0.6h-0.4V75H280z M280,76.2v3h-0.4v-3H280z"/>
		<path fill="#FFFFFF" d="M283.1,79.5c-0.1,0.2-0.1,0.3-0.2,0.399c-0.1,0.101-0.3,0.2-0.399,0.301c-0.2,0.1-0.4,0.1-0.601,0.1 c-0.199,0-0.3,0-0.399-0.1c-0.2,0-0.3-0.101-0.4-0.2c-0.1-0.101-0.2-0.2-0.3-0.3c-0.1-0.101-0.1-0.301-0.1-0.4h0.399 c0,0.1,0.101,0.2,0.101,0.3c0.1,0.101,0.1,0.101,0.199,0.2c0.101,0,0.2,0.1,0.301,0.1c0.1,0,0.199,0,0.3,0c0.3,0,0.6-0.1,0.7-0.3 c0.199-0.2,0.199-0.5,0.199-0.8v-0.4l0,0c-0.1,0.2-0.199,0.301-0.399,0.4S282.2,79,281.9,79c-0.199,0-0.399,0-0.6-0.101 c-0.2-0.1-0.3-0.199-0.4-0.3c-0.1-0.1-0.199-0.3-0.3-0.5c-0.1-0.2-0.1-0.399-0.1-0.6s0-0.4,0.1-0.601c0.101-0.199,0.2-0.3,0.3-0.5 c0.101-0.1,0.301-0.3,0.4-0.3c0.2-0.1,0.3-0.1,0.6-0.1c0.101,0,0.2,0,0.301,0c0.1,0,0.199,0.1,0.3,0.1 c0.1,0.101,0.2,0.101,0.2,0.2c0.1,0.1,0.1,0.2,0.199,0.2l0,0V76h0.4v2.7C283.2,79.1,283.2,79.3,283.1,79.5z M282.3,78.7 c0.1-0.101,0.2-0.2,0.3-0.301c0.1-0.1,0.101-0.199,0.2-0.399s0.1-0.3,0.1-0.4c0-0.2,0-0.3-0.1-0.399c0-0.2-0.1-0.301-0.2-0.4 c-0.1-0.1-0.2-0.2-0.3-0.3c-0.1-0.101-0.3-0.101-0.4-0.101c-0.199,0-0.3,0-0.399,0.101c-0.101,0.1-0.2,0.2-0.3,0.3 c-0.101,0.1-0.101,0.3-0.2,0.4c0,0.199-0.101,0.3-0.101,0.399c0,0.2,0,0.3,0.101,0.4c0,0.2,0.1,0.3,0.2,0.399 c0.1,0.101,0.199,0.2,0.3,0.301c0.1,0.1,0.3,0.1,0.399,0.1C282.1,78.8,282.2,78.7,282.3,78.7z"/>
		<path fill="#FFFFFF" d="M285.8,76.2c0.2,0.1,0.3,0.199,0.4,0.3c0.1,0.2,0.199,0.3,0.3,0.5c0.1,0.2,0.1,0.399,0.1,0.6 s0,0.4-0.1,0.601c-0.101,0.199-0.2,0.3-0.3,0.5C286.1,78.9,285.9,79,285.8,79c-0.2,0.1-0.4,0.1-0.6,0.1c-0.2,0-0.4,0-0.601-0.1 c-0.2-0.101-0.3-0.2-0.399-0.3c-0.101-0.2-0.2-0.301-0.301-0.5c-0.1-0.2-0.1-0.4-0.1-0.601s0-0.399,0.1-0.6 c0.101-0.2,0.2-0.3,0.301-0.5c0.1-0.2,0.3-0.3,0.399-0.3C284.8,76.1,285,76.1,285.2,76.1C285.4,76.1,285.6,76.1,285.8,76.2z  M284.7,76.5c-0.101,0.1-0.301,0.2-0.301,0.3c-0.1,0.1-0.199,0.3-0.199,0.4c0,0.199-0.101,0.3-0.101,0.5c0,0.199,0,0.3,0.101,0.5 c0,0.199,0.1,0.3,0.199,0.399c0.101,0.101,0.2,0.2,0.301,0.3C284.8,79,285,79,285.1,79c0.101,0,0.3,0,0.4-0.101 c0.1-0.1,0.3-0.199,0.3-0.3c0.1-0.1,0.2-0.3,0.2-0.399c0-0.2,0.1-0.301,0.1-0.5c0-0.2,0-0.301-0.1-0.5c0-0.2-0.101-0.301-0.2-0.4 s-0.2-0.2-0.3-0.3c-0.101-0.101-0.3-0.101-0.4-0.101C285,76.4,284.8,76.4,284.7,76.5z"/>
	</g>
	<circle fill="none" stroke="#FF20AA" cx="245" cy="85.8" r="1.8"/>
	<circle fill="none" stroke="#FF20AA" cx="256.1" cy="85.8" r="1.8"/>
	<circle fill="none" stroke="#FF20AA" cx="267.3" cy="85.8" r="1.8"/>
	<circle fill="none" stroke="#FF20AA" cx="279.2" cy="85.8" r="1.8"/>
	<circle fill="none" stroke="#FF20A9" cx="232.4" cy="111.9" r="11.5"/>
	<circle fill="none" stroke="#FF20A9" cx="261.9" cy="111.9" r="11.5"/>
	<circle fill="none" stroke="#FF20A9" cx="291.7" cy="111.9" r="11.5"/>
	<circle fill="none" stroke="#FF20A9" cx="232.4" cy="139.3" r="11.5"/>
	<circle fill="none" stroke="#FF20A9" cx="261.9" cy="139.3" r="11.5"/>
	<circle fill="none" stroke="#FF20A9" cx="291.7" cy="139.3" r="11.5"/>
	<circle fill="none" stroke="#FF20A9" cx="232.4" cy="166.4" r="11.5"/>
	<circle fill="none" stroke="#FF20A9" cx="261.9" cy="166.4" r="11.5"/>
	<circle fill="none" stroke="#FF20A9" cx="261.9" cy="193.5" r="11.5"/>
	<circle fill="none" stroke="#FF20A9" cx="291.7" cy="166.4" r="11.5"/>
	<g>
		<path fill="#FFFFFF" d="M232.4,106.4C232.2,106.7,231.9,107,231.5,107.2c-0.4,0.199-0.7,0.399-1.101,0.5v-0.2 c0.2-0.101,0.4-0.2,0.601-0.3c0.2-0.101,0.3-0.2,0.5-0.301c0.2-0.1,0.3-0.199,0.399-0.399c0.2-0.101,0.301-0.3,0.4-0.5h0.3v7.5 h-0.2V106.4L232.4,106.4z"/>
	</g>
	<g>
		<path fill="#FFFFFF" d="M264.5,113.6h-5c0-0.3,0.1-0.6,0.2-0.8c0.1-0.3,0.3-0.5,0.5-0.7c0.199-0.2,0.5-0.399,0.8-0.6 s0.6-0.4,0.8-0.601c0.3-0.199,0.6-0.399,0.8-0.6c0.3-0.2,0.5-0.4,0.7-0.6c0.2-0.2,0.4-0.5,0.5-0.7c0.1-0.3,0.2-0.5,0.2-0.8 c0-0.301-0.101-0.601-0.2-0.801c-0.1-0.199-0.3-0.399-0.4-0.6c-0.199-0.2-0.399-0.3-0.699-0.3c-0.301-0.101-0.5-0.101-0.801-0.101 c-0.399,0-0.699,0.101-1,0.2c-0.3,0.101-0.5,0.3-0.699,0.5c-0.2,0.2-0.301,0.5-0.4,0.8c-0.1,0.301-0.1,0.601-0.1,0.9h-0.2 c0-0.8,0.2-1.4,0.6-1.9c0.4-0.399,1-0.699,1.8-0.699c0.3,0,0.601,0,0.9,0.1s0.5,0.2,0.7,0.4c0.2,0.199,0.399,0.399,0.5,0.6 c0.1,0.3,0.2,0.5,0.2,0.9c0,0.399-0.101,0.8-0.301,1.1c-0.199,0.3-0.5,0.7-0.8,0.9c-0.3,0.3-0.7,0.6-1.1,0.8 c-0.4,0.3-0.8,0.5-1.101,0.8c-0.3,0.3-0.6,0.5-0.899,0.8s-0.4,0.601-0.4,0.9h4.8v0.1H264.5z"/>
	</g>
	<g>
		<path fill="#FFFFFF" d="M289.3,107.3c0.1-0.3,0.3-0.6,0.5-0.8s0.5-0.3,0.8-0.5c0.3-0.101,0.7-0.2,1.101-0.2c0.3,0,0.6,0,0.899,0.1 c0.3,0.101,0.5,0.2,0.8,0.301c0.3,0.1,0.4,0.3,0.5,0.6c0.101,0.2,0.2,0.5,0.2,0.8c0,0.5-0.2,0.9-0.5,1.2s-0.7,0.5-1.2,0.5l0,0 c0.2,0,0.4,0.1,0.601,0.2c0.2,0.1,0.399,0.2,0.6,0.399c0.2,0.2,0.3,0.301,0.4,0.601c0.1,0.2,0.2,0.5,0.2,0.8s-0.101,0.7-0.2,0.9 c-0.101,0.3-0.3,0.5-0.5,0.699c-0.2,0.2-0.5,0.301-0.8,0.4c-0.301,0.1-0.601,0.2-1,0.2c-0.4,0-0.801-0.101-1.2-0.2 c-0.4-0.1-0.601-0.3-0.9-0.5s-0.399-0.5-0.5-0.8c-0.1-0.3-0.2-0.7-0.1-1.101h0.2c0,0.4,0,0.801,0.1,1 c0.1,0.301,0.3,0.601,0.5,0.801c0.2,0.199,0.5,0.3,0.8,0.5c0.3,0.1,0.7,0.199,1.101,0.199c0.3,0,0.6,0,0.899-0.1s0.5-0.2,0.7-0.4 c0.2-0.199,0.4-0.399,0.5-0.6c0.1-0.3,0.2-0.5,0.2-0.8s-0.101-0.601-0.2-0.8c-0.1-0.2-0.3-0.4-0.4-0.601 c-0.199-0.2-0.399-0.2-0.699-0.3c-0.301-0.1-0.5-0.1-0.801-0.1h-0.6v-0.2h0.5c0.2,0,0.5,0,0.7-0.101c0.2-0.1,0.399-0.199,0.6-0.3 c0.2-0.1,0.3-0.3,0.5-0.5c0.101-0.2,0.2-0.5,0.2-0.8s-0.1-0.6-0.2-0.8c-0.1-0.2-0.3-0.4-0.5-0.5c-0.2-0.101-0.399-0.2-0.7-0.3 c-0.3-0.101-0.5-0.101-0.8-0.101s-0.7,0-1,0.101c-0.3,0.1-0.5,0.199-0.8,0.399C289.6,106.8,289.5,107,289.3,107.3 c-0.1,0.3-0.2,0.6-0.2,1h-0.2C289.1,108,289.2,107.7,289.3,107.3z"/>
	</g>
	<g>
		<path fill="#FFFFFF" d="M229.5,138.6l3.7-5.2h0.3v5.301h1.3v0.199h-1.3v1.9h-0.2v-1.9h-3.8V138.6z M233.3,133.7l-3.5,5h3.6 L233.3,133.7L233.3,133.7z"/>
	</g>
	<g>
		<path fill="#FFFFFF" d="M259.8,136.8L259.8,136.8c0.2-0.3,0.5-0.6,0.9-0.8c0.3-0.2,0.8-0.2,1.199-0.2c0.4,0,0.801,0.1,1.101,0.2 c0.3,0.1,0.6,0.3,0.8,0.5s0.4,0.5,0.5,0.8s0.2,0.7,0.2,1c0,0.4-0.101,0.8-0.2,1.1c-0.1,0.301-0.3,0.601-0.5,0.801 c-0.2,0.199-0.5,0.399-0.8,0.5c-0.3,0.1-0.7,0.199-1.101,0.199c-0.399,0-0.699-0.1-1.1-0.199c-0.3-0.101-0.6-0.301-0.8-0.5 c-0.2-0.2-0.4-0.5-0.5-0.801c-0.101-0.3-0.2-0.699-0.2-1.1h0.2c0,0.4,0,0.7,0.2,1c0.1,0.3,0.3,0.5,0.5,0.7 c0.199,0.2,0.5,0.3,0.8,0.399c0.3,0.101,0.6,0.2,1,0.2c0.399,0,0.7-0.1,1-0.2c0.3-0.1,0.5-0.3,0.8-0.5c0.2-0.199,0.4-0.5,0.5-0.8 s0.2-0.6,0.2-1c0-0.399-0.101-0.7-0.2-0.899c-0.1-0.301-0.3-0.5-0.5-0.801c-0.2-0.199-0.4-0.399-0.8-0.5 c-0.3-0.1-0.601-0.199-1-0.199c-0.4,0-0.8,0.1-1.2,0.3s-0.7,0.5-0.9,0.8h-0.3l0.8-3.8h3.801v0.2H260.6L259.8,136.8z"/>
	</g>
	<g>
		<path fill="#FFFFFF" d="M293.5,134.3c-0.2-0.2-0.3-0.4-0.5-0.5s-0.4-0.2-0.601-0.3C292.2,133.4,292,133.4,291.8,133.4 c-0.6,0-1,0.101-1.4,0.4c-0.3,0.3-0.6,0.6-0.8,1.1c-0.2,0.4-0.3,0.9-0.399,1.4c-0.101,0.5-0.101,0.9-0.101,1.4l0,0 c0.101-0.301,0.2-0.5,0.3-0.7c0.2-0.2,0.301-0.4,0.5-0.601c0.2-0.199,0.5-0.3,0.7-0.399c0.3-0.101,0.601-0.2,0.8-0.2 c0.301,0,0.601,0.1,0.9,0.2c0.3,0.1,0.6,0.3,0.8,0.5c0.3,0.2,0.4,0.5,0.601,0.8c0.199,0.3,0.199,0.7,0.199,1.1 c0,0.4-0.1,0.7-0.199,1C293.6,139.7,293.4,140,293.1,140.2c-0.3,0.199-0.5,0.399-0.8,0.5c-0.3,0.1-0.6,0.199-1,0.199 c-0.2,0-0.5,0-0.7-0.1s-0.399-0.2-0.6-0.2c-0.2-0.1-0.3-0.2-0.5-0.399c-0.2-0.101-0.3-0.301-0.3-0.4c-0.2-0.3-0.301-0.7-0.4-1.1 c-0.1-0.4-0.1-0.9-0.1-1.4s0-0.9,0.1-1.4s0.3-0.899,0.5-1.3c0.2-0.399,0.5-0.7,0.8-1c0.3-0.2,0.8-0.399,1.4-0.399 c0.3,0,0.6,0.1,0.899,0.199c0.3,0.101,0.5,0.2,0.7,0.4s0.3,0.4,0.5,0.6c0.101,0.2,0.2,0.5,0.3,0.801h-0.2 C293.8,134.8,293.6,134.5,293.5,134.3z M293.8,137.5c-0.1-0.3-0.3-0.5-0.5-0.8c-0.2-0.2-0.5-0.4-0.8-0.5 c-0.3-0.101-0.601-0.2-0.9-0.2s-0.6,0.1-0.899,0.2c-0.301,0.1-0.5,0.3-0.801,0.5c-0.199,0.199-0.399,0.5-0.5,0.8 c-0.1,0.3-0.199,0.6-0.199,0.899c0,0.301,0.1,0.601,0.199,0.9c0.101,0.3,0.301,0.5,0.5,0.8c0.2,0.2,0.5,0.4,0.801,0.5 c0.3,0.101,0.6,0.2,0.899,0.2s0.601-0.1,0.9-0.2c0.3-0.1,0.5-0.3,0.8-0.5c0.2-0.2,0.4-0.5,0.5-0.8s0.2-0.6,0.2-0.9 C294,138.1,293.9,137.8,293.8,137.5z"/>
	</g>
	<g>
		<path fill="#FFFFFF" d="M229.8,160.3h4.8v0.3c-0.5,0.5-1,1-1.399,1.601c-0.4,0.5-0.801,1.1-1.101,1.699 c-0.3,0.601-0.5,1.2-0.7,1.9c-0.199,0.7-0.3,1.3-0.3,2.1H231c0-0.699,0.1-1.399,0.2-2.1c0.199-0.7,0.399-1.3,0.699-1.9 c0.301-0.6,0.7-1.199,1.101-1.699c0.399-0.5,0.899-1.101,1.399-1.601h-4.5v-0.3H229.8z"/>
	</g>
	<g>
		<path fill="#FFFFFF" d="M264.2,164.3c0.3,0.3,0.5,0.8,0.5,1.4c0,0.399-0.101,0.699-0.2,1c-0.101,0.3-0.3,0.5-0.601,0.699 c-0.3,0.2-0.5,0.301-0.8,0.4s-0.7,0.1-1,0.1c-0.399,0-0.7,0-1-0.1s-0.6-0.2-0.8-0.4c-0.3-0.199-0.4-0.399-0.6-0.699 c-0.2-0.301-0.2-0.601-0.2-1c0-0.601,0.2-1,0.5-1.4c0.3-0.3,0.8-0.6,1.399-0.6l0,0c-0.199,0-0.399-0.101-0.6-0.2 c-0.2-0.101-0.3-0.2-0.5-0.3c-0.1-0.101-0.3-0.301-0.3-0.5c-0.101-0.2-0.101-0.4-0.101-0.601c0-0.3,0.101-0.6,0.2-0.8 c0.101-0.3,0.3-0.4,0.5-0.6c0.2-0.2,0.5-0.301,0.8-0.301c0.301-0.1,0.601-0.1,0.9-0.1s0.6,0,0.9,0.1c0.3,0.101,0.5,0.2,0.8,0.301 c0.3,0.1,0.399,0.3,0.5,0.6c0.1,0.3,0.2,0.5,0.2,0.8c0,0.2,0,0.4-0.101,0.601c-0.1,0.199-0.2,0.3-0.3,0.5 c-0.1,0.1-0.3,0.3-0.5,0.3c-0.2,0.1-0.4,0.2-0.6,0.2l0,0C263.3,163.8,263.8,164,264.2,164.3z M264.2,164.8 c-0.101-0.3-0.301-0.4-0.601-0.6c-0.2-0.2-0.5-0.301-0.8-0.301c-0.3-0.1-0.6-0.1-0.9-0.1c-0.3,0-0.6,0-0.899,0.1 c-0.3,0.101-0.601,0.2-0.8,0.301c-0.2,0.199-0.4,0.3-0.601,0.6c-0.1,0.3-0.2,0.5-0.2,0.9c0,0.3,0.101,0.699,0.2,0.899 c0.101,0.2,0.3,0.5,0.5,0.601c0.2,0.1,0.5,0.3,0.8,0.3c0.301,0.1,0.601,0.1,0.9,0.1s0.7,0,0.9-0.1c0.3-0.101,0.6-0.2,0.8-0.3 c0.2-0.101,0.399-0.4,0.5-0.601c0.1-0.3,0.2-0.6,0.2-0.899C264.4,165.4,264.4,165.1,264.2,164.8z M263.9,161.3 c-0.1-0.2-0.3-0.4-0.5-0.5c-0.199-0.1-0.399-0.2-0.699-0.3c-0.301-0.101-0.5-0.101-0.801-0.101c-0.3,0-0.5,0-0.8,0.101 c-0.3,0.1-0.5,0.2-0.7,0.3c-0.199,0.1-0.3,0.3-0.5,0.5c-0.199,0.2-0.199,0.5-0.199,0.8s0.1,0.5,0.199,0.7 c0.101,0.2,0.301,0.3,0.5,0.5c0.2,0.1,0.4,0.2,0.7,0.3c0.3,0.101,0.5,0.101,0.8,0.101c0.301,0,0.5,0,0.801-0.101 c0.3-0.1,0.5-0.2,0.699-0.3c0.2-0.1,0.4-0.3,0.5-0.5c0.101-0.2,0.2-0.4,0.2-0.7S264,161.5,263.9,161.3z"/>
	</g>
	<g>
		<path fill="#FFFFFF" d="M264.6,195c-0.1,0.5-0.3,0.899-0.5,1.3s-0.5,0.7-0.899,0.9c-0.301,0.199-0.801,0.3-1.4,0.3 c-0.5,0-1-0.101-1.3-0.3c-0.4-0.2-0.7-0.5-0.9-0.9s-0.399-0.8-0.5-1.3c-0.1-0.5-0.1-0.9-0.1-1.4s0-0.899,0.1-1.399 c0.101-0.5,0.3-0.9,0.5-1.301c0.2-0.399,0.5-0.699,0.9-0.899c0.399-0.2,0.8-0.3,1.3-0.3s1,0.1,1.4,0.3 c0.3,0.2,0.699,0.5,0.899,0.899c0.2,0.301,0.4,0.801,0.5,1.301c0.101,0.5,0.101,0.899,0.101,1.399 C264.7,194,264.7,194.5,264.6,195z M264.4,192.3c-0.1-0.4-0.199-0.8-0.399-1.2c-0.2-0.3-0.5-0.6-0.8-0.8 c-0.301-0.2-0.801-0.3-1.301-0.3s-0.899,0.1-1.3,0.3c-0.3,0.2-0.6,0.5-0.8,0.8s-0.3,0.8-0.4,1.2c-0.1,0.4-0.1,0.8-0.1,1.3 c0,0.4,0,0.8,0.1,1.3c0.101,0.4,0.2,0.801,0.4,1.2c0.2,0.3,0.5,0.601,0.8,0.8c0.3,0.2,0.8,0.301,1.3,0.301s0.9-0.101,1.301-0.301 c0.3-0.199,0.6-0.5,0.8-0.8s0.3-0.8,0.399-1.2c0.101-0.399,0.101-0.8,0.101-1.3C264.5,193.2,264.5,192.7,264.4,192.3z"/>
	</g>
	<g>
		<path fill="#FFFFFF" d="M289.6,166.9c0.2,0.2,0.3,0.4,0.5,0.5c0.2,0.101,0.4,0.2,0.601,0.301c0.199,0,0.399,0.1,0.6,0.1 c0.4,0,0.7-0.1,1-0.2c0.3-0.1,0.5-0.3,0.7-0.5s0.3-0.5,0.5-0.8c0.1-0.3,0.2-0.6,0.3-0.9c0.1-0.3,0.1-0.6,0.1-0.899s0-0.601,0-0.9 l0,0c-0.1,0.3-0.199,0.5-0.3,0.7c-0.2,0.2-0.3,0.4-0.5,0.6c-0.2,0.2-0.5,0.301-0.7,0.4c-0.3,0.1-0.6,0.2-0.8,0.2 c-0.3,0-0.6-0.101-0.899-0.2c-0.301-0.1-0.601-0.3-0.801-0.5c-0.3-0.2-0.399-0.5-0.6-0.8s-0.2-0.7-0.2-1c0-0.4,0.101-0.7,0.2-1 c0.2-0.3,0.3-0.601,0.6-0.8c0.301-0.2,0.5-0.4,0.801-0.5c0.3-0.101,0.6-0.2,1-0.2c0.3,0,0.5,0,0.699,0.1 c0.2,0.101,0.4,0.2,0.601,0.3c0.2,0.101,0.3,0.2,0.5,0.4c0.2,0.1,0.3,0.3,0.3,0.4c0.2,0.3,0.3,0.699,0.4,1.1 c0.1,0.4,0.1,0.9,0.1,1.3c0,0.4,0,0.9-0.1,1.4c-0.101,0.5-0.301,0.899-0.5,1.3c-0.2,0.4-0.5,0.7-0.9,1s-0.8,0.4-1.4,0.4 c-0.3,0-0.6-0.101-0.899-0.2c-0.3-0.101-0.5-0.2-0.7-0.4s-0.3-0.399-0.5-0.6c-0.1-0.2-0.2-0.5-0.3-0.8h0.2 C289.4,166.4,289.5,166.7,289.6,166.9z M293.7,161.9c-0.101-0.3-0.301-0.5-0.5-0.8c-0.2-0.2-0.5-0.399-0.801-0.5 c-0.3-0.1-0.6-0.2-0.899-0.2s-0.601,0.101-0.9,0.2c-0.3,0.101-0.5,0.3-0.8,0.5c-0.2,0.2-0.4,0.5-0.5,0.8 c-0.1,0.301-0.2,0.601-0.2,0.9s0.101,0.6,0.2,0.9c0.1,0.3,0.3,0.5,0.5,0.8c0.2,0.2,0.5,0.399,0.8,0.5c0.3,0.1,0.601,0.2,0.9,0.2 s0.6-0.101,0.899-0.2c0.301-0.101,0.5-0.3,0.801-0.5c0.199-0.2,0.399-0.5,0.5-0.8c0.1-0.301,0.199-0.601,0.199-0.9 S293.8,162.2,293.7,161.9z"/>
	</g>
	<g>
		<path fill="#FFFFFF" d="M258.8,117.5L258.8,117.5l0.6-1.7h0.101l0.7,1.7H260.1l-0.2-0.601H259L258.8,117.5z M259.5,115.8 L259.5,115.8l-0.4,1.1h0.8L259.5,115.8z"/>
		<path fill="#FFFFFF" d="M262.1,115.8c0.101,0,0.101,0,0.2,0s0.1,0,0.2,0.1l0.1,0.101c0,0.1,0,0.1,0,0.2c0,0.1,0,0.1,0,0.199 c0,0,0,0.101-0.1,0.101l-0.101,0.1c0,0-0.1,0-0.199,0l0,0c0.1,0,0.1,0,0.199,0l0.101,0.101l0.1,0.1c0,0.1,0,0.1,0,0.2 c0,0.1,0,0.2,0,0.2c0,0.1-0.1,0.1-0.1,0.199c-0.101,0-0.101,0.101-0.2,0.101s-0.2,0-0.2,0h-0.7v-1.7H262.1L262.1,115.8z  M262.1,116.6c0.101,0,0.101,0,0.2,0s0.1,0,0.1-0.1l0.101-0.101c0,0,0-0.1,0-0.199c0-0.101,0-0.101,0-0.2 c0-0.101-0.101-0.101-0.101-0.101l-0.1-0.1c0,0-0.1,0-0.2,0h-0.7v0.8H262.1L262.1,116.6z M262,117.5c0.1,0,0.1,0,0.2,0 c0.1,0,0.1,0,0.199-0.101l0.101-0.1c0-0.1,0-0.1,0-0.2c0-0.1,0-0.1,0-0.2c0-0.1-0.101-0.1-0.101-0.1s-0.1-0.1-0.199-0.1 c-0.101,0-0.101,0-0.2,0h-0.7v0.8H262L262,117.5z"/>
		<path fill="#FFFFFF" d="M265.3,117.1c0,0.101-0.1,0.2-0.2,0.2c-0.1,0.1-0.1,0.1-0.2,0.2c-0.1,0-0.2,0.1-0.3,0.1s-0.2,0-0.3-0.1 c-0.1,0-0.2-0.101-0.3-0.2c-0.101-0.1-0.101-0.2-0.2-0.3c0-0.101-0.1-0.2-0.1-0.3c0-0.101,0-0.2,0-0.301 c0-0.1,0.1-0.199,0.199-0.3c0.101-0.1,0.2-0.2,0.301-0.2c0.1-0.1,0.199-0.1,0.399-0.1c0.101,0,0.2,0,0.3,0.1 c0.101,0,0.2,0.101,0.2,0.2c0.101,0.101,0.101,0.101,0.101,0.2s0,0.1,0,0.2H265.1c0-0.101,0-0.101-0.1-0.2 c0-0.1-0.101-0.1-0.101-0.2c-0.1-0.1-0.1-0.1-0.2-0.1c-0.1,0-0.199,0-0.3,0c-0.2,0-0.3,0-0.3,0.1c-0.1,0.101-0.2,0.101-0.3,0.2 s-0.1,0.2-0.1,0.3c0,0.101,0,0.2,0,0.3c0,0.101,0,0.2,0.1,0.301c0,0.1,0.1,0.199,0.2,0.3c0.1,0.1,0.1,0.1,0.2,0.2 c0.1,0,0.199,0.1,0.3,0.1c0.1,0,0.2,0,0.3-0.1c0.1,0,0.2-0.101,0.2-0.101C265.2,117.3,265.2,117.3,265.3,117.1 c0,0,0.1-0.1,0.1-0.2h0.101C265.3,116.9,265.3,117,265.3,117.1z"/>
	</g>
	<g>
		<path fill="#FFFFFF" d="M289.4,115.8c0.101,0,0.2,0,0.301,0c0.1,0,0.199,0.1,0.199,0.1C290,116,290,116.1,290.1,116.2 c0,0.1,0.101,0.199,0.101,0.399s0,0.3-0.101,0.4c0,0.1-0.1,0.2-0.2,0.3c-0.1,0.1-0.199,0.1-0.3,0.2c-0.1,0-0.2,0.1-0.3,0.1h-0.5 v-1.7h0.6V115.8z M289.3,117.5c0.1,0,0.2,0,0.3-0.101c0.101,0,0.2-0.1,0.3-0.199C290,117.1,290,117,290.1,116.9 c0-0.1,0.101-0.199,0.101-0.399s0-0.3-0.101-0.4c0-0.1-0.1-0.2-0.2-0.3c-0.1-0.1-0.2-0.1-0.2-0.1c-0.1,0-0.199,0-0.3,0h-0.5v1.6 L289.3,117.5L289.3,117.5z"/>
		<path fill="#FFFFFF" d="M292.5,117.5L292.5,117.5l-1.2,0.1v-1.7h1.2V116H291.4v0.8h1v0.1h-1v0.801L292.5,117.5L292.5,117.5z"/>
		<path fill="#FFFFFF" d="M294.7,116.6L294.7,116.6l-0.9,0.101v0.899h-0.1v-1.7h1.1V116h-1v0.8L294.7,116.6L294.7,116.6z"/>
	</g>
	<g>
		<path fill="#FFFFFF" d="M290.4,142.9v1.7h-0.1L290.4,142.9L290.4,142.9l-0.8,1.7h-0.1l-0.7-1.7l0,0v1.7h-0.1v-1.7h0.1l0.7,1.7l0,0 L290.4,142.9L290.4,142.9z"/>
		<path fill="#FFFFFF" d="M291.7,142.9l1.199,1.7l0,0v-1.7H293v1.7H292.9L291.7,142.9L291.7,142.9v1.7H291.6L291.7,142.9 L291.7,142.9z"/>
		<path fill="#FFFFFF" d="M294.3,143.4c0-0.1,0.1-0.199,0.2-0.3c0.1-0.1,0.2-0.2,0.3-0.2c0.1-0.1,0.2-0.1,0.3-0.1 c0.101,0,0.3,0,0.3,0.1c0.101,0.101,0.2,0.101,0.3,0.2c0.101,0.101,0.101,0.2,0.2,0.3c0,0.101,0.101,0.2,0.101,0.301 c0,0.1,0,0.3-0.101,0.3c0,0.1-0.1,0.2-0.2,0.3c-0.1,0.1-0.199,0.2-0.3,0.2c-0.1,0-0.2,0.1-0.3,0.1s-0.2,0-0.3-0.1 c-0.1-0.101-0.2-0.101-0.3-0.2c-0.101-0.1-0.101-0.2-0.2-0.3c0-0.101-0.1-0.2-0.1-0.3C294.2,143.7,294.2,143.6,294.3,143.4z  M294.3,144.1c0,0.101,0.1,0.2,0.2,0.3c0.1,0.101,0.2,0.101,0.2,0.2c0.1,0,0.199,0.101,0.3,0.101c0.1,0,0.2,0,0.3-0.101 c0.1,0,0.2-0.1,0.2-0.2c0-0.1,0.1-0.199,0.2-0.3c0-0.1,0.1-0.2,0.1-0.3s0-0.3-0.1-0.3c-0.101,0-0.101-0.2-0.2-0.3 c-0.101-0.101-0.2-0.101-0.2-0.2c-0.1-0.101-0.2-0.101-0.3-0.101c-0.101,0-0.2,0-0.3,0.101c-0.101,0-0.2,0.1-0.2,0.2 c-0.101,0.1-0.101,0.199-0.2,0.3c0,0.1-0.1,0.2-0.1,0.3C294.3,143.9,294.3,144,294.3,144.1z"/>
	</g>
	<g>
		<path fill="#FFFFFF" d="M260.1,142.9v1.301c0,0.1,0,0.1,0,0.199c0,0.101,0,0.101-0.1,0.2c0,0-0.101,0.101-0.2,0.101s-0.1,0-0.2,0 c-0.1,0-0.2,0-0.2,0c-0.1,0-0.1-0.101-0.2-0.101c0,0-0.1-0.1-0.1-0.2c0-0.1,0-0.1,0-0.199V144.1h0.1v0.101 c0,0.199,0,0.199,0.101,0.3c0.1,0.1,0.2,0.1,0.3,0.1s0.1,0,0.2,0c0.1,0,0.1,0,0.1-0.1c0,0,0.101-0.101,0.101-0.2s0-0.1,0-0.2 L260.1,142.9L260.1,142.9L260.1,142.9z"/>
		<path fill="#FFFFFF" d="M261.5,144.7L261.5,144.7L261.4,143h0.101v1.1l1.2-1.1h0.1l-0.8,0.8l0.899,1h-0.1l-0.8-1l-0.4,0.3 L261.5,144.7L261.5,144.7z"/>
		<path fill="#FFFFFF" d="M264.9,144.7h-1.1V143h0.1v1.7H264.9L264.9,144.7z"/>
	</g>
	<g>
		<path fill="#FFFFFF" d="M230.1,143.9h0.7v0.801h-0.1v-0.4l0,0c0,0.2-0.101,0.2-0.301,0.3c-0.1,0.101-0.3,0.101-0.399,0.101 c-0.101,0-0.3,0-0.3-0.101c-0.101-0.1-0.2-0.1-0.301-0.2c-0.1-0.1-0.1-0.199-0.199-0.3c0-0.1-0.101-0.2-0.101-0.3s0-0.3,0.101-0.3 c0-0.101,0.1-0.2,0.199-0.3c0.101-0.101,0.2-0.2,0.301-0.2c0.1,0,0.199-0.101,0.3-0.101c0.1,0,0.2,0,0.3,0s0.2,0.101,0.2,0.101 c0.1,0.1,0.1,0.1,0.2,0.2c0,0.1,0.1,0.199,0.1,0.3h-0.1c0-0.101,0-0.2-0.101-0.2c-0.1-0.1-0.1-0.1-0.2-0.2 c-0.1,0-0.1-0.1-0.199-0.1c-0.101,0-0.2,0-0.301,0c-0.1,0-0.199,0-0.3,0.1c-0.1,0-0.2,0.101-0.3,0.2s-0.1,0.2-0.2,0.3 c0,0.101-0.1,0.2-0.1,0.3c0,0.101,0,0.2,0.1,0.301c0,0.1,0.101,0.199,0.2,0.3c0.1,0.1,0.2,0.1,0.3,0.2c0.101,0.1,0.2,0.1,0.3,0.1 c0.101,0,0.2,0,0.301-0.1c0.1,0,0.199-0.101,0.199-0.101c0.101-0.1,0.101-0.1,0.2-0.2c0.101-0.1,0.101-0.199,0.101-0.199V144 L230.1,143.9L230.1,143.9L230.1,143.9z"/>
		<path fill="#FFFFFF" d="M232.1,144.7L232.1,144.7L232,143h0.1v0.8h1.2V143h0.1v1.7h-0.1v-0.9h-1.2V144.7z"/>
		<path fill="#FFFFFF" d="M234.7,142.9v1.7H234.6L234.7,142.9L234.7,142.9z"/>
	</g>
	<g>
		<path fill="#FFFFFF" d="M228,172v-1.7h0.7c0.199,0,0.3,0,0.399,0.1c0.101,0.101,0.101,0.2,0.101,0.301c0,0.1,0,0.199,0,0.199 c0,0.101-0.101,0.101-0.101,0.2c-0.1,0-0.1,0.101-0.2,0.101c-0.1,0-0.199,0-0.199,0H228V172L228,172z M228.7,171.2 c0.1,0,0.1,0,0.199,0c0.101,0,0.101,0,0.2-0.101c0.101-0.1,0.101-0.1,0.101-0.1c0-0.101,0-0.101,0-0.2s0-0.3-0.101-0.3 c-0.1-0.101-0.2-0.101-0.3-0.101H228v0.801H228.7L228.7,171.2z"/>
		<path fill="#FFFFFF" d="M231.4,172c-0.1,0-0.199,0.1-0.3,0.1c-0.1,0-0.3,0-0.3-0.1c-0.1,0-0.2-0.101-0.3-0.2 c-0.101-0.1-0.101-0.2-0.2-0.3c0-0.101-0.1-0.2-0.1-0.3c0-0.101,0-0.301,0.1-0.301c0-0.1,0.1-0.199,0.2-0.3 c0.1-0.1,0.2-0.2,0.3-0.2c0.1-0.1,0.2-0.1,0.3-0.1c0.101,0,0.3,0,0.3,0.1c0.101,0.101,0.2,0.101,0.301,0.2 c0.1,0.101,0.1,0.2,0.199,0.3c0,0.101,0.101,0.2,0.101,0.301c0,0.1,0,0.3-0.101,0.399c0,0.101-0.1,0.2-0.199,0.3l0.3,0.2l0,0 l-0.3-0.2C231.6,171.9,231.5,171.9,231.4,172z M231.3,171.6l0.3,0.2c0.101-0.1,0.101-0.2,0.2-0.3c0.1-0.101,0.1-0.3,0.1-0.4 c0-0.1,0-0.2-0.1-0.3c0-0.1-0.1-0.2-0.2-0.3c-0.1-0.101-0.2-0.101-0.2-0.2c-0.1,0-0.199-0.1-0.3-0.1c-0.1,0-0.2,0-0.3,0.1 c-0.1,0-0.2,0.1-0.2,0.2c-0.1,0.1-0.1,0.2-0.2,0.3c0,0.1-0.1,0.2-0.1,0.3c0,0.101,0,0.3,0.1,0.3c0,0.101,0.101,0.2,0.2,0.301 c0.101,0.1,0.2,0.1,0.2,0.199C230.9,172,231,172,231.1,172c0.101,0,0.2,0,0.3,0c0.101,0,0.2-0.101,0.2-0.101L231.3,171.6 L231.3,171.6z"/>
		<path fill="#FFFFFF" d="M233.2,172v-1.7h0.699c0.2,0,0.301,0,0.4,0.1c0.1,0.101,0.1,0.2,0.1,0.301c0,0.1,0,0.199-0.1,0.3 c-0.1,0.1-0.2,0.1-0.3,0.2l0,0c0.1,0,0.1,0,0.2,0.1c0.1,0,0.1,0.1,0.1,0.1s0,0.101,0.1,0.2c0,0.101,0,0.101,0,0.2v0.1V172v0.1 v0.101h-0.1c0,0,0,0,0-0.101V172V171.9v-0.1c0-0.1,0-0.1,0-0.2c0-0.1,0-0.1-0.1-0.1L234.1,171.4c-0.1,0-0.1,0-0.3,0h-0.7 L233.2,172L233.2,172L233.2,172z M233.9,171.1c0.101,0,0.101,0,0.2,0c0.101,0,0.101,0,0.2-0.1l0.1-0.101c0-0.1,0-0.1,0-0.199 c0-0.101,0-0.2-0.1-0.301c-0.1-0.1-0.2-0.1-0.3-0.1h-0.7v0.8H233.9L233.9,171.1z"/>
		<path fill="#FFFFFF" d="M236.8,170.5c0-0.101-0.1-0.101-0.1-0.2c-0.101,0-0.101-0.1-0.2-0.1c-0.101,0-0.101,0-0.2,0s-0.1,0-0.2,0 c-0.1,0-0.1,0-0.2,0.1c-0.1,0-0.1,0.1-0.1,0.1c0,0.101-0.1,0.101-0.1,0.2c0,0.101,0,0.101,0.1,0.2c0,0.1,0.1,0.1,0.1,0.1 C236,170.9,236,171,236.1,171c0.101,0,0.2,0,0.2,0.1c0.1,0,0.2,0,0.2,0.101c0.1,0,0.1,0,0.2,0.1c0.1,0,0.1,0.1,0.1,0.1 c0,0.101,0.1,0.101,0.1,0.2c0,0.101,0,0.2-0.1,0.2c0,0.1-0.1,0.1-0.1,0.2c0,0.1-0.101,0.1-0.2,0.1c-0.101,0-0.2,0-0.2,0 c-0.1,0-0.2,0-0.3,0c-0.101,0-0.2-0.1-0.2-0.1c-0.1,0-0.1-0.101-0.1-0.2s-0.101-0.2-0.101-0.3h0.101c0,0.1,0,0.2,0,0.2 c0,0.1,0.1,0.1,0.1,0.199C235.9,172,235.9,172,236,172c0.1,0,0.2,0,0.3,0s0.1,0,0.2,0c0.1,0,0.1,0,0.2-0.101 c0.1,0,0.1-0.1,0.1-0.1c0-0.1,0.1-0.1,0.1-0.2c0-0.1,0-0.2-0.1-0.2c0-0.1-0.1-0.1-0.2-0.1c-0.1,0-0.1-0.1-0.2-0.1 c-0.1,0-0.199,0-0.199-0.101c-0.101,0-0.101,0-0.2-0.1c-0.101,0-0.101,0-0.2-0.101c-0.1,0-0.1-0.1-0.1-0.1 c0-0.1-0.101-0.1-0.101-0.2c0-0.1,0-0.2,0.101-0.2c0-0.1,0.1-0.1,0.1-0.1s0.1-0.1,0.2-0.1c0.1,0,0.1,0,0.2,0c0.1,0,0.199,0,0.3,0 c0.1,0,0.1,0.1,0.2,0.1C236.7,170.4,236.7,170.5,236.8,170.5c0,0.1,0,0.2,0,0.3h-0.1C236.8,170.7,236.8,170.6,236.8,170.5z"/>
	</g>
	<g>
		<path fill="#FFFFFF" d="M259.1,170.3h1.3v0.1h-0.6v1.7h-0.1v-1.7L259.1,170.3L259.1,170.3L259.1,170.3z"/>
		<path fill="#FFFFFF" d="M262.7,170.3v1.1c0,0.2-0.101,0.4-0.2,0.5c-0.101,0.101-0.3,0.2-0.5,0.2s-0.4-0.1-0.5-0.2 c-0.101-0.1-0.2-0.3-0.2-0.5v-1.1h0.1v1.1c0,0.2,0.101,0.4,0.2,0.5c0.101,0.101,0.3,0.2,0.4,0.2c0.2,0,0.3-0.1,0.399-0.2 c0.101-0.1,0.2-0.3,0.2-0.5v-1.1H262.7z"/>
		<path fill="#FFFFFF" d="M265.3,170.3l-0.7,1.7h-0.1l-0.7-1.7l0,0l0.7,1.7l0,0L265.3,170.3L265.3,170.3z"/>
	</g>
	<g>
		<path fill="#FFFFFF" d="M289,170.3l-0.5,1.7H288.4l-0.5-1.7l0,0l-0.5,1.7h-0.1l-0.5-1.7h0.1l0.5,1.7l0,0l0.5-1.7H288l0.5,1.7l0,0 L289,170.3L289,170.3z"/>
		<path fill="#FFFFFF" d="M291.3,170.3l-0.6,0.8l0.699,0.9h-0.1l-0.6-0.8L290,172l0,0l0.7-0.9l-0.601-0.8h0.101l0.6,0.8L291.3,170.3 L291.3,170.3z"/>
		<path fill="#FFFFFF" d="M293.7,170.3l-0.7,1v0.7H292.9v-0.7l-0.699-1h0.1l0.7,0.9L293.7,170.3L293.7,170.3z"/>
		<path fill="#FFFFFF" d="M295.9,172h-1.3V171.9l1.2-1.6h-1.1v-0.1h1.199v0.1l-1.199,1.6L295.9,172L295.9,172L295.9,172z"/>
	</g>
	<g>
		<path fill="#FFFFFF" d="M221.4,208.3c0.101,0.1,0.2,0.2,0.301,0.3c0.1,0.101,0.3,0.101,0.399,0.2c0.2,0,0.3,0.1,0.5,0.1 c0.101,0,0.2,0,0.3,0c0.101,0,0.2-0.1,0.301-0.1c0.1-0.1,0.199-0.1,0.3-0.2c0.1-0.1,0.1-0.2,0.1-0.3s0-0.2-0.1-0.3 c0-0.101-0.101-0.101-0.2-0.2s-0.2-0.1-0.3-0.1c-0.101,0-0.2-0.101-0.3-0.101l-0.801-0.2c-0.1,0-0.199-0.1-0.3-0.1 c-0.1,0-0.2-0.1-0.3-0.2c-0.1-0.1-0.1-0.2-0.2-0.3c0-0.1-0.1-0.2-0.1-0.4c0-0.1,0-0.199,0.1-0.3c0-0.1,0.101-0.2,0.2-0.3 s0.2-0.2,0.4-0.3c0.199-0.101,0.399-0.101,0.6-0.101s0.3,0,0.5,0.101c0.2,0.1,0.3,0.1,0.4,0.2c0.1,0.1,0.199,0.199,0.3,0.3 c0.1,0.2,0.1,0.3,0.1,0.5h-0.3c0-0.2,0-0.3-0.1-0.4c-0.101-0.1-0.101-0.2-0.2-0.3c-0.101-0.1-0.2-0.1-0.3-0.2 c-0.101,0-0.301-0.1-0.4-0.1s-0.3,0-0.3,0c-0.101,0-0.2,0.1-0.3,0.1c-0.101,0.101-0.2,0.101-0.2,0.2 c-0.101,0.1-0.101,0.2-0.101,0.3c0,0.101,0,0.2,0,0.2c0,0.1,0.101,0.1,0.101,0.2c0.1,0,0.1,0.1,0.2,0.1 c0.1,0,0.1,0.101,0.199,0.101l0.9,0.199c0.1,0,0.3,0.101,0.4,0.101c0.1,0.1,0.199,0.1,0.3,0.2c0.1,0.1,0.2,0.199,0.2,0.3 c0.1,0.1,0.1,0.3,0.1,0.399c0,0,0,0.101,0,0.2c0,0.101,0,0.2-0.1,0.2c0,0.1-0.101,0.2-0.101,0.2c-0.1,0.1-0.2,0.2-0.3,0.2 c-0.101,0.1-0.3,0.1-0.4,0.199c-0.199,0-0.3,0.101-0.6,0.101c-0.2,0-0.4,0-0.601-0.101c-0.199-0.1-0.3-0.1-0.5-0.199 c-0.1-0.101-0.199-0.301-0.3-0.4c-0.1-0.2-0.1-0.3-0.1-0.6h0.3C221.3,208,221.4,208.1,221.4,208.3z"/>
		<path fill="#FFFFFF" d="M224.3,206.4c0.1-0.199,0.2-0.399,0.3-0.6c0.2-0.2,0.3-0.3,0.5-0.4c0.2-0.1,0.5-0.199,0.8-0.199 c0.301,0,0.5,0.1,0.801,0.199c0.199,0.101,0.399,0.301,0.5,0.4c0.199,0.2,0.3,0.4,0.3,0.6c0.1,0.301,0.1,0.5,0.1,0.7 c0,0.3,0,0.5-0.1,0.7c-0.101,0.2-0.2,0.4-0.3,0.6c-0.2,0.2-0.301,0.301-0.5,0.4c-0.2,0.1-0.5,0.2-0.801,0.2 c-0.3,0-0.5-0.101-0.8-0.2c-0.2-0.1-0.399-0.3-0.5-0.4c-0.2-0.199-0.3-0.399-0.3-0.6c-0.1-0.2-0.1-0.5-0.1-0.7 C224.3,206.9,224.3,206.6,224.3,206.4z M224.7,207.7c0.1,0.199,0.1,0.399,0.3,0.5c0.1,0.199,0.3,0.3,0.399,0.399 c0.2,0.101,0.4,0.101,0.601,0.101c0.3,0,0.5,0,0.6-0.101c0.2-0.1,0.3-0.2,0.4-0.399c0.1-0.2,0.2-0.301,0.3-0.5 c0.1-0.2,0.1-0.4,0.1-0.601s0-0.399-0.1-0.6s-0.1-0.4-0.3-0.5c-0.101-0.2-0.3-0.3-0.4-0.4c-0.2-0.1-0.399-0.1-0.6-0.1 c-0.3,0-0.5,0-0.601,0.1c-0.199,0.101-0.3,0.2-0.399,0.4c-0.101,0.2-0.2,0.3-0.3,0.5c-0.101,0.2-0.101,0.399-0.101,0.6 C224.6,207.4,224.6,207.5,224.7,207.7z"/>
		<path fill="#FFFFFF" d="M228.6,208.3c0.101,0.1,0.2,0.2,0.3,0.3c0.101,0.101,0.301,0.101,0.4,0.2c0.2,0,0.3,0.1,0.5,0.1 c0.1,0,0.2,0,0.3,0c0.101,0,0.2-0.1,0.3-0.1c0.101-0.1,0.2-0.1,0.301-0.2c0.1-0.1,0.1-0.2,0.1-0.3s0-0.2-0.1-0.3 c0-0.101-0.101-0.101-0.2-0.2c-0.101-0.1-0.2-0.1-0.3-0.1c-0.101,0-0.2-0.101-0.301-0.101l-0.8-0.2c-0.1,0-0.2-0.1-0.3-0.1 s-0.2-0.1-0.3-0.2c-0.101-0.1-0.101-0.2-0.2-0.3c0-0.1-0.1-0.2-0.1-0.4c0-0.1,0-0.199,0.1-0.3c0-0.1,0.1-0.2,0.2-0.3 c0.1-0.1,0.2-0.2,0.399-0.3c0.2-0.101,0.4-0.101,0.601-0.101s0.3,0,0.5,0.101c0.2,0.1,0.3,0.1,0.399,0.2 c0.101,0.1,0.2,0.199,0.301,0.3c0.1,0.2,0.1,0.3,0.1,0.5h-0.3c0-0.2,0-0.3-0.101-0.4c-0.1-0.1-0.1-0.2-0.199-0.3 c-0.101-0.1-0.2-0.1-0.301-0.2c-0.1,0-0.3-0.1-0.399-0.1c-0.101,0-0.3,0-0.3,0c-0.101,0-0.2,0.1-0.301,0.1 c-0.1,0.101-0.199,0.101-0.199,0.2c-0.101,0.1-0.101,0.2-0.101,0.3c0,0.101,0,0.2,0,0.2c0,0.1,0.101,0.1,0.101,0.2 c0.1,0,0.1,0.1,0.199,0.1c0.101,0,0.101,0.101,0.2,0.101l0.9,0.199c0.1,0,0.3,0.101,0.399,0.101c0.101,0.1,0.2,0.1,0.301,0.2 c0.1,0.1,0.199,0.199,0.199,0.3C231,207.6,231,207.8,231,207.9c0,0,0,0.101,0,0.2c0,0.101,0,0.2-0.101,0.2c0,0.1-0.1,0.2-0.1,0.2 c-0.1,0.1-0.2,0.2-0.3,0.2c-0.101,0.1-0.3,0.1-0.4,0.199c-0.2,0-0.3,0.101-0.6,0.101c-0.2,0-0.4,0-0.601-0.101 c-0.199-0.1-0.3-0.1-0.5-0.199c-0.1-0.101-0.199-0.301-0.3-0.4c-0.1-0.2-0.1-0.3-0.1-0.6h0.3C228.5,208,228.5,208.1,228.6,208.3z" />
	</g>
	<g>
		<path fill="#FFFFFF" d="M286,206c-0.101-0.101-0.2-0.2-0.3-0.3c-0.101-0.101-0.2-0.101-0.301-0.2c-0.1,0-0.3-0.101-0.399-0.101 c-0.2,0-0.5,0-0.601,0.101c-0.199,0.1-0.3,0.2-0.399,0.399c-0.101,0.2-0.2,0.301-0.3,0.5c-0.101,0.2-0.101,0.4-0.101,0.601 s0,0.399,0.101,0.6c0.1,0.2,0.1,0.4,0.3,0.5c0.1,0.2,0.3,0.3,0.399,0.4c0.2,0.1,0.4,0.1,0.601,0.1s0.3,0,0.5-0.1 c0.1-0.101,0.3-0.2,0.3-0.3c0.1-0.101,0.2-0.2,0.3-0.4c0.101-0.2,0.101-0.3,0.101-0.5h0.3c0,0.2-0.101,0.4-0.2,0.6 c-0.1,0.2-0.2,0.301-0.3,0.5c-0.101,0.101-0.3,0.2-0.5,0.301c-0.2,0.1-0.4,0.1-0.601,0.1c-0.3,0-0.5-0.1-0.8-0.2 c-0.2-0.1-0.399-0.3-0.5-0.399c-0.2-0.2-0.2-0.4-0.3-0.601c-0.1-0.3-0.1-0.5-0.1-0.7c0-0.3,0-0.5,0.1-0.699 c0.1-0.2,0.2-0.4,0.3-0.601c0.2-0.2,0.3-0.3,0.5-0.399c0.2-0.101,0.5-0.2,0.8-0.2c0.2,0,0.301,0,0.5,0.1 c0.2,0.101,0.301,0.101,0.5,0.2c0.2,0.1,0.301,0.2,0.301,0.4c0.1,0.199,0.199,0.3,0.199,0.5h-0.3C286.1,206.3,286,206.1,286,206z" />
		<path fill="#FFFFFF" d="M287.1,206.7c0.101-0.101,0.101-0.2,0.2-0.301c0.1-0.1,0.2-0.1,0.3-0.199c0.101,0,0.3-0.101,0.4-0.101 c0.1,0,0.3,0,0.3,0c0.1,0,0.2,0.101,0.3,0.101c0.101,0.1,0.2,0.199,0.2,0.3c0.1,0.1,0.1,0.3,0.1,0.399v1.4 c0,0.1,0.101,0.2,0.2,0.2h0.101v0.3H289.1H289c-0.101,0-0.2,0-0.2,0l-0.1-0.1c0,0,0-0.101-0.101-0.2c0-0.101,0-0.101,0-0.2l0,0 c-0.1,0.1-0.1,0.2-0.2,0.2c-0.1,0.1-0.1,0.1-0.2,0.2c-0.1,0-0.199,0.1-0.3,0.1c-0.1,0-0.2,0-0.3,0s-0.3,0-0.3,0 c-0.1,0-0.2-0.1-0.3-0.1c-0.101-0.101-0.2-0.2-0.2-0.301c0-0.1-0.1-0.199-0.1-0.3c0-0.2,0-0.3,0.1-0.399 c0.1-0.101,0.2-0.2,0.3-0.301c0.101-0.1,0.3-0.1,0.5-0.1s0.3,0,0.5-0.1c0.101,0,0.101,0,0.2,0s0.1,0,0.1-0.101l0.101-0.1 c0,0,0-0.101,0-0.2s0-0.2-0.101-0.3c0-0.101-0.1-0.101-0.199-0.2c-0.101,0-0.101-0.1-0.2-0.1c-0.101,0-0.2,0-0.3,0 c-0.2,0-0.4,0.1-0.5,0.199c-0.101,0.101-0.2,0.301-0.2,0.5l0,0C287,207,287,206.9,287.1,206.7z M288.7,207.5l-0.101,0.1 c-0.1,0-0.1,0-0.2,0c-0.1,0-0.3,0-0.399,0.101c-0.2,0-0.3,0.1-0.4,0.1c-0.1,0-0.2,0.1-0.3,0.2c-0.1,0.1-0.1,0.2-0.1,0.3 s0,0.2,0.1,0.2c0,0.1,0.1,0.1,0.1,0.2c0.101,0,0.101,0.1,0.2,0.1c0.101,0,0.2,0,0.2,0c0.1,0,0.3,0,0.3-0.1 c0.101,0,0.2-0.101,0.3-0.2c0.101-0.101,0.2-0.2,0.2-0.3c0.101-0.101,0.101-0.2,0.101-0.301V207.5L288.7,207.5z"/>
		<path fill="#FFFFFF" d="M290,206.3v0.5l0,0c0.1-0.2,0.2-0.3,0.3-0.4c0.2-0.1,0.3-0.199,0.5-0.199s0.3,0,0.5,0.1 c0.1,0.1,0.2,0.1,0.3,0.2c0.101,0.1,0.101,0.2,0.2,0.3c0,0.1,0,0.3,0,0.4v1.699h-0.3V207.2c0-0.101,0-0.2,0-0.301 c0-0.1-0.101-0.199-0.101-0.3c-0.1-0.1-0.1-0.1-0.199-0.2c-0.101,0-0.2-0.1-0.301-0.1c-0.1,0-0.3,0-0.3,0.1 c-0.1,0-0.2,0.101-0.3,0.2c-0.1,0.101-0.1,0.2-0.2,0.3c-0.1,0.101-0.1,0.2-0.1,0.4v1.6h-0.3V206.2L290,206.3L290,206.3z"/>
		<path fill="#FFFFFF" d="M294.1,206.7c-0.1-0.101-0.3-0.2-0.5-0.2s-0.3,0-0.399,0.1c-0.101,0.101-0.2,0.2-0.301,0.3 c-0.1,0.101-0.1,0.2-0.199,0.4c-0.101,0.2-0.101,0.3-0.101,0.4c0,0.1,0,0.3,0.101,0.399c0,0.101,0.1,0.2,0.199,0.4 c0.101,0.1,0.2,0.2,0.301,0.3c0.1,0.1,0.3,0.1,0.399,0.1c0.101,0,0.2,0,0.3-0.1c0.101,0,0.2-0.1,0.2-0.2 c0.101-0.1,0.101-0.2,0.2-0.3c0-0.1,0.1-0.2,0.1-0.3h0.301c0,0.3-0.2,0.6-0.301,0.8c-0.199,0.2-0.399,0.3-0.8,0.3 c-0.2,0-0.399,0-0.5-0.1c-0.2-0.101-0.3-0.2-0.399-0.3c-0.101-0.101-0.2-0.301-0.301-0.4c-0.1-0.2-0.1-0.3-0.1-0.5s0-0.4,0.1-0.5 c0.101-0.2,0.101-0.3,0.301-0.4c0.1-0.1,0.199-0.199,0.399-0.3c0.2-0.1,0.3-0.1,0.5-0.1c0.3,0,0.5,0.1,0.7,0.2 c0.2,0.199,0.3,0.399,0.3,0.699h-0.3C294.3,206.9,294.3,206.8,294.1,206.7z"/>
		<path fill="#FFFFFF" d="M295.4,208.1c0,0.101,0.101,0.3,0.2,0.3c0.101,0.101,0.2,0.2,0.3,0.301c0.101,0.1,0.301,0.1,0.4,0.1 c0.3,0,0.4-0.1,0.6-0.2c0.101-0.1,0.2-0.3,0.301-0.5h0.3c-0.101,0.3-0.2,0.5-0.4,0.7s-0.399,0.3-0.8,0.3c-0.2,0-0.4,0-0.5-0.1 c-0.2-0.101-0.3-0.2-0.4-0.3c-0.1-0.101-0.199-0.301-0.199-0.4c0-0.2-0.101-0.3-0.101-0.5s0-0.3,0.101-0.5 c0-0.2,0.1-0.3,0.199-0.4c0.101-0.1,0.2-0.3,0.4-0.3c0.2-0.1,0.3-0.1,0.5-0.1s0.4,0,0.6,0.1c0.2,0.101,0.301,0.2,0.4,0.3 c0.1,0.101,0.2,0.301,0.2,0.5c0,0.2,0.1,0.4,0.1,0.601h-2.1C295.4,207.9,295.4,208,295.4,208.1z M297,207.1 c0-0.1-0.101-0.2-0.2-0.3s-0.2-0.2-0.3-0.2c-0.101-0.1-0.2-0.1-0.3-0.1c-0.101,0-0.2,0-0.301,0.1c-0.1,0.101-0.199,0.101-0.3,0.2 c-0.1,0.1-0.1,0.2-0.2,0.3c0,0.101-0.1,0.2-0.1,0.3h1.7C297.1,207.4,297.1,207.2,297,207.1z"/>
		<path fill="#FFFFFF" d="M298.2,205.3v3.7H297.9v-3.7H298.2z"/>
		<path fill="#FFFFFF" d="M298.9,206.7c0.101-0.101,0.101-0.2,0.2-0.301c0.101-0.1,0.2-0.1,0.3-0.199c0.101,0,0.301-0.101,0.4-0.101 s0.3,0,0.3,0c0.101,0,0.2,0.101,0.3,0.101c0.101,0.1,0.2,0.199,0.2,0.3c0.101,0.1,0.101,0.3,0.101,0.399v1.4 c0,0.1,0.1,0.2,0.199,0.2H301v0.3H300.9h-0.1c-0.1,0-0.2,0-0.2,0l-0.1-0.1c0,0,0-0.101-0.101-0.2c0-0.101,0-0.101,0-0.2l0,0 c-0.1,0.1-0.1,0.2-0.2,0.2c-0.1,0.1-0.1,0.1-0.199,0.2c-0.101,0-0.2,0.1-0.301,0.1c-0.1,0-0.199,0-0.3,0c-0.1,0-0.3,0-0.3,0 c-0.1,0-0.2-0.1-0.3-0.1c-0.1-0.101-0.2-0.2-0.2-0.301c0-0.1-0.1-0.199-0.1-0.3c0-0.2,0-0.3,0.1-0.399 c0.101-0.101,0.2-0.2,0.3-0.301c0.101-0.1,0.3-0.1,0.5-0.1s0.3,0,0.5-0.1c0.101,0,0.101,0,0.2,0c0.101,0,0.101,0,0.101-0.101 l0.1-0.1c0,0,0-0.101,0-0.2s0-0.2-0.1-0.3c0-0.101-0.101-0.101-0.2-0.2c-0.101,0-0.101-0.1-0.2-0.1c-0.101,0-0.2,0-0.3,0 c-0.2,0-0.4,0.1-0.5,0.199c-0.101,0.101-0.2,0.301-0.2,0.5h-0.3C298.8,207,298.8,206.9,298.9,206.7z M300.5,207.5l-0.101,0.1 c-0.1,0-0.1,0-0.199,0c-0.101,0-0.301,0-0.4,0.101c-0.2,0-0.3,0.1-0.4,0.1c-0.1,0-0.199,0.1-0.3,0.2c-0.1,0.1-0.1,0.2-0.1,0.3 s0,0.2,0.1,0.2c0,0.1,0.101,0.1,0.101,0.2c0.1,0,0.1,0.1,0.199,0.1c0.101,0,0.2,0,0.2,0c0.101,0,0.3,0,0.3-0.1 c0.101,0,0.2-0.101,0.301-0.2c0.1-0.101,0.199-0.2,0.199-0.3c0.101-0.101,0.101-0.2,0.101-0.301V207.5L300.5,207.5z"/>
		<path fill="#FFFFFF" d="M301.8,206.3v0.6l0,0c0.1-0.199,0.2-0.399,0.4-0.5c0.199-0.1,0.399-0.199,0.6-0.199v0.3 c-0.2,0-0.3,0-0.4,0.1c-0.1,0-0.199,0.101-0.3,0.2c-0.1,0.1-0.2,0.2-0.2,0.3c-0.1,0.101-0.1,0.2-0.1,0.4v1.399h-0.3V206.2 L301.8,206.3L301.8,206.3z"/>
	</g>
</g>
</svg>
