<svg version="1.1" xmlns="http://www.w3.org/2000/svg" xmlns:xlink="http://www.w3.org/1999/xlink" x="0px" y="0px" width="595.301px" height="299px">
	<rect x="0" fill="#FFBFAD" width="595.301" height="299"/>
	<circle fill="#666666" cx="91.2" cy="154.5" r="54.8"/>
	<circle fill="#EAEBE4" cx="89.5" cy="151.7" r="54.8"/>
		<path d="M89.6,156.5c0,0-0.1-1.8-0.2-4.399c-0.1-1.3-0.199-2.8-0.199-4.5C89.1,146,89,144.2,89,142.5c0-1.8-0.3-3.5-0.3-5.1 c0-0.8,0-1.6,0.1-2.3c0-0.8,0.1-1.5,0.2-2.101c0.1-0.699,0.2-1.3,0.2-1.8c0.1-0.5,0.199-1,0.199-1.399c0.2-0.801,0.2-1.2,0.2-1.2 h0.2c0,0,0.1,0.5,0.3,1.2c0.101,0.399,0.2,0.8,0.2,1.399c0.1,0.5,0.2,1.101,0.2,1.8c0.1,0.7,0.1,1.4,0.2,2.101 c0,0.7,0.1,1.5,0.1,2.3c0,1.6-0.2,3.4-0.2,5.1c-0.1,1.801-0.1,3.5-0.2,5.101c-0.1,1.6-0.199,3.2-0.199,4.5 C90.1,154.7,89.9,156.5,89.9,156.5H89.6z"/>
		<path d="M89.6,156.5c0,0-0.1-2.8-0.3-6.899c0-1-0.1-2.2-0.1-3.4s-0.101-2.5-0.101-3.8c-0.1-2.6-0.2-5.4-0.3-8.1 c0-1.4-0.1-2.801-0.2-4.101c-0.1-1.399-0.1-2.7-0.1-4s0-2.5,0-3.8c0-0.6,0-1.2,0.1-1.8c0-0.5,0.101-1.101,0.101-1.601 c0-1,0.1-2,0.199-2.8c0.101-0.8,0.2-1.6,0.2-2.2c0.101-1.199,0.2-1.899,0.2-1.899h0.2c0,0,0.1,0.7,0.3,1.899 c0.1,0.601,0.2,1.301,0.2,2.2c0.1,0.8,0.2,1.8,0.3,2.8c0,0.5,0.1,1,0.1,1.601c0,0.5,0,1.1,0.101,1.8c0,1.2,0.1,2.5,0.1,3.8 s0,2.601-0.1,4c0,1.4-0.101,2.8-0.101,4.101c-0.1,2.8-0.1,5.5-0.199,8.1c0,1.3-0.101,2.5-0.101,3.8c0,1.2-0.1,2.3-0.1,3.4 c-0.101,4.2-0.3,6.899-0.3,6.899H89.6z"/>
	<circle fill="#FFFFFF" cx="89.6" cy="152.5" r="2.2"/>
		<path d="M83.2,108.5h1.3v-5.699h-1.3v-1.4H86.1v7.1h1.2v1.4h-4L83.2,108.5L83.2,108.5z"/>
		<path d="M88.2,103.9c0-1.8,1.699-2.6,3.3-2.6c1.7,0,3.5,0.699,3.5,2.699c0,2.2-1.601,2.601-3.4,2.601c-0.7,0-1.8,0.2-1.8,1.1v0.7 H95v1.5h-6.9c0-0.8,0-1.5,0-2.2c0-2,1.8-2.5,3.4-2.5c0.6,0,1.8-0.1,1.8-1.1c0-0.9-0.8-1.4-1.9-1.4c-0.8,0-1.699,0.4-1.699,1.2 H88.2L88.2,103.9z"/>
		<path d="M87.3,196v1.2c0.4-0.6,1.3-0.899,2-0.899c1.7,0,3.5,0.699,3.5,2.8c0,1.899-1.8,2.8-3.5,2.8c-1.8,0-3.5-0.9-3.5-2.8v-3.2 c0-1.9,1.8-2.8,3.5-2.8c1.8,0,3.5,0.7,3.5,2.5h-1.6c0-0.8-1-1.101-1.801-1.101C88.3,194.601,87.4,195.101,87.3,196L87.3,196 L87.3,196z M91.2,199.2c0-0.899-0.801-1.399-1.9-1.399s-2,0.5-2,1.399c0,0.9,0.9,1.4,2,1.4C90.2,200.5,91.2,200.101,91.2,199.2z" />
		<path d="M135.9,152.301V151h1.2c0.9,0,1.8-0.3,1.8-1c0-0.5-0.399-1.1-1.8-1.1c-0.8,0-1.8,0.3-1.8,1h-1.6c0-1.8,1.8-2.5,3.399-2.5 c1.601,0,3.3,0.8,3.3,2.6c0,0.7-0.399,1.5-1.199,1.7c0.8,0.3,1.399,1.101,1.399,1.8c0,2.101-2,2.7-3.6,2.7 c-1.601,0-3.5-0.7-3.5-2.6h1.6c0,0.899,1.2,1.2,1.9,1.2c0.8,0,1.899-0.301,1.899-1.301c0-0.5-0.3-1.1-1.8-1.1L135.9,152.301 L135.9,152.301z"/>
		<path d="M44.8,153.4v-1.3c-0.4,0.6-1.3,0.899-2,0.899c-1.7,0-3.5-0.699-3.5-2.8c0-1.899,1.8-2.8,3.5-2.8c1.8,0,3.5,0.9,3.5,2.8 v3.2c0,1.9-1.8,2.8-3.5,2.8c-1.8,0-3.5-0.7-3.5-2.5H41c0,0.8,1,1.101,1.899,1.101C43.9,154.801,44.8,154.301,44.8,153.4 L44.8,153.4z M41,150.2c0,0.9,0.8,1.4,1.899,1.4c1.101,0,2-0.5,2-1.4c0-0.899-0.899-1.399-2-1.399 C41.9,148.801,41,149.301,41,150.2z"/>
	<rect x="199.3" y="60.2" fill="#6E959E" stroke="#E6E8D7" stroke-width="8" width="289" height="193.5"/>
	<rect x="195.2" y="48.101" fill="#E6E8D7" width="299.8" height="9.6"/>
	<rect x="190.1" y="40.2" fill="#E6E8D7" width="310.7" height="10"/>
	<rect x="190.1" y="259.5" fill="#E6E8D7" width="310.7" height="9.2"/>
	<rect x="195.2" y="250.801" fill="#E6E8D7" width="299.8" height="10"/>
	<rect x="214.8" y="184.101" fill="#D5635A" width="29.2" height="64.2"/>
	<polygon fill="#D5635A" points="415.3,248.301 359.9,248.301 359.9,172.801 415.3,184.101"/>
	<polygon fill="#D5635A" points="484.5,248.301 420.3,248.301 420.3,209.301 484.5,196.601"/>
	<rect x="295.6" y="191.2" fill="#D5635A" width="53.4" height="57.101"/>
	<rect x="305.7" y="130.7" fill="#D5635A" width="33.399" height="60.5"/>
	<rect x="247.3" y="144.9" fill="#D5635A" width="29.2" height="103.4"/>
	<rect x="216.6" y="185.9" fill="#FFFFFF" stroke="#608074" width="5.4" height="5.4"/>
	<rect x="236.2" y="193" fill="#FFFFFF" stroke="#608074" width="5.399" height="5.4"/>
	<rect x="230" y="193" fill="#FFFFFF" stroke="#608074" width="5.399" height="5.4"/>
	<rect x="223.3" y="193" fill="#FFFFFF" stroke="#608074" width="5.4" height="5.4"/>
	<rect x="255.4" y="147.601" fill="#FFFFFF" stroke="#608074" width="5.4" height="5.399"/>
	<rect x="249.2" y="147.601" fill="#FFFFFF" stroke="#608074" width="5.399" height="5.399"/>
	<rect x="255.4" y="153.801" fill="#FFFFFF" stroke="#608074" width="5.4" height="5.399"/>
	<rect x="249.2" y="153.801" fill="#FFFFFF" stroke="#608074" width="5.399" height="5.399"/>
	<rect x="216.6" y="199.301" fill="#FFFFFF" stroke="#608074" width="5.4" height="5.399"/>
	<rect x="222.9" y="186.4" fill="#FFFFFF" stroke="#608074" width="18.301" height="5.4"/>
	<rect x="267.9" y="160.9" fill="#FFFFFF" stroke="#608074" width="5.4" height="5.4"/>
	<rect x="261.7" y="160.9" fill="#FFFFFF" stroke="#608074" width="5.399" height="5.4"/>
	<rect x="267.9" y="167.2" fill="#FFFFFF" stroke="#608074" width="5.4" height="5.4"/>
	<rect x="261.7" y="167.2" fill="#FFFFFF" stroke="#608074" width="5.399" height="5.4"/>
	<rect x="365.1" y="208.9" fill="#FFFFFF" stroke="#608074" width="44.2" height="16.3"/>
	<rect x="322.1" y="152.601" fill="#FFFFFF" stroke="#608074" width="15" height="7.1"/>
	<rect x="303.8" y="193.9" fill="#FFFFFF" stroke="#608074" width="5.399" height="5.4"/>
	<rect x="297.5" y="193.9" fill="#FFFFFF" stroke="#608074" width="5.399" height="5.4"/>
	<rect x="323.4" y="193.9" fill="#FFFFFF" stroke="#608074" width="5.4" height="5.4"/>
	<rect x="342.6" y="193.9" fill="#FFFFFF" stroke="#608074" width="5.4" height="5.4"/>
	<rect x="342.6" y="200.5" fill="#FFFFFF" stroke="#608074" width="5.4" height="17.9"/>
	<rect x="303.8" y="200.5" fill="#FFFFFF" stroke="#608074" width="5.399" height="36.7"/>
	<rect x="297.5" y="200.5" fill="#FFFFFF" stroke="#608074" width="5.399" height="9.601"/>
	<rect x="336.3" y="193.9" fill="#FFFFFF" stroke="#608074" width="5.399" height="5.4"/>
	<rect x="314.6" y="161.301" fill="#FFFFFF" stroke="#608074" width="15" height="7.1"/>
	<rect x="309.199" y="169.7" fill="#FFFFFF" stroke="#608074" width="27.9" height="7.101"/>
	<polygon fill="#D5635A" points="309.699,130.7 322.199,108.9 334.8,130.7 	"/>
	<circle fill="#FFFFFF" stroke="#608074" cx="322.3" cy="123.3" r="5.3"/>
	<rect x="365.1" y="191.801" fill="#FFFFFF" stroke="#608074" width="5.4" height="5.399"/>
	<rect x="365.1" y="188.5" fill="#FFFFFF" stroke="#608074" width="5.4" height="2.5"/>
	<rect x="403.9" y="191.801" fill="#FFFFFF" stroke="#608074" width="5.4" height="5.399"/>
	<rect x="403.9" y="188.5" fill="#FFFFFF" stroke="#608074" width="5.4" height="2.5"/>
	<path fill="#FFFFFF" stroke="#608074" d="M481,228.5c0,1.2-0.9,2.101-2.101,2.101H456c-1.2,0-2.101-0.9-2.101-2.101v-12.1 c0-1.2,0.9-2.1,2.101-2.1H478.9c1.2,0,2.101,0.899,2.101,2.1V228.5z"/>
	<path fill="#FFFFFF" stroke="#608074" d="M450.6,228.5c0,1.2-0.9,2.101-2.1,2.101h-22.9c-1.2,0-2.1-0.9-2.1-2.101v-12.1 c0-1.2,0.899-2.1,2.1-2.1h22.9c1.199,0,2.1,0.899,2.1,2.1V228.5z"/>
	<rect x="249.2" y="173.9" fill="#FFFFFF" stroke="#608074" width="11.699" height="11.7"/>
	<rect x="229.6" y="206.801" fill="#FFFFFF" stroke="#608074" width="5.4" height="5.399"/>
	<rect x="223.3" y="206.801" fill="#FFFFFF" stroke="#608074" width="5.4" height="5.399"/>
	<rect x="216.6" y="206.801" fill="#FFFFFF" stroke="#608074" width="5.4" height="5.399"/>
	<polygon fill="#FFFFFF" stroke="#608074" points="423.699,211 481,211 481,198.7 	"/>
	<circle fill="#F7931E" cx="262.3" cy="184.201" r="14.1"/>
	<polygon fill="#F7931E" points="262,166.5 262.9,168 263.7,169.5 262,169.5 260.5,169.5 261.2,168"/>
	<polygon fill="#F7931E" points="266.5,167 267,168.601 267.5,170.2 265.9,169.9 264.3,169.5 265.5,168.2"/>
	<polygon fill="#F7931E" points="271.1,168.801 271.1,170.5 271.1,172.101 269.7,171.4 268.3,170.601 269.7,169.7"/>
	<polygon fill="#F7931E" points="274.7,171.5 274.3,173.101 274,174.7 272.8,173.7 271.5,172.601 273.1,172.101"/>
	<polygon fill="#F7931E" points="277.4,174.601 276.7,176.2 276,177.601 275,176.4 274.1,175.101 275.8,174.9"/>
	<polygon fill="#F7931E" points="279.3,178.2 278.2,179.601 277.2,180.9 276.5,179.4 275.9,178 277.6,178.101"/>
	<polygon fill="#F7931E" points="280.2,183 278.7,183.801 277.3,184.601 277.3,183 277.3,181.4 278.7,182.2"/>
	<polygon fill="#F7931E" points="244.2,183.5 245.7,184.301 247.3,185.101 247.3,183.5 247.3,181.9 245.7,182.7"/>
	<polygon fill="#F7931E" points="244.6,188 246.3,188.5 247.9,189 247.5,187.4 247.2,185.801 245.9,186.9"/>
	<polygon fill="#F7931E" points="246.5,192.601 248.2,192.601 249.8,192.5 249.1,191.2 248.3,189.7 247.4,191.2"/>
	<polygon fill="#F7931E" points="249.2,196.2 250.8,195.801 252.4,195.5 251.4,194.2 250.3,193 249.7,194.601"/>
	<polygon fill="#F7931E" points="252.3,198.9 253.8,198.2 255.4,197.5 254.1,196.5 252.7,195.601 252.5,197.2"/>
	<polygon fill="#F7931E" points="255.9,200.801 257.2,199.7 258.6,198.7 257.1,198 255.7,197.4 255.8,199"/>
	<polygon fill="#F7931E" points="260.7,201.7 261.5,200.2 262.3,198.801 260.7,198.801 259.1,198.801 259.9,200.2"/>
	<polygon fill="#F7931E" points="257.9,167 257.4,168.601 256.9,170.2 258.5,169.9 260.1,169.5 259,168.2"/>
	<polygon fill="#F7931E" points="253.3,168.801 253.3,170.5 253.4,172.101 254.7,171.4 256.2,170.601 254.7,169.7"/>
	<polygon fill="#F7931E" points="249.7,171.5 250.1,173.101 250.4,174.7 251.7,173.7 252.9,172.601 251.3,172.101"/>
	<polygon fill="#F7931E" points="247,175.101 247.7,176.601 248.4,178.101 249.4,176.801 250.3,175.5 248.7,175.301"/>
	<polygon fill="#F7931E" points="245.1,178.7 246.2,180 247.2,181.301 247.9,179.9 248.5,178.4 246.9,178.5"/>
	<polygon fill="#F7931E" points="279.8,187.2 278.1,187.7 276.5,188 276.9,186.5 277.3,184.9 278.5,186.101"/>
	<polygon fill="#F7931E" points="278.2,191.7 276.5,191.7 274.8,191.601 275.7,190.2 276.5,188.9 277.3,190.301"/>
	<polygon fill="#F7931E" points="275.8,195.2 274.2,194.801 272.6,194.4 273.7,193.2 274.8,192.101 275.3,193.7"/>
	<polygon fill="#F7931E" points="272.6,198.301 271.1,197.5 269.6,196.7 270.9,195.801 272.3,195 272.4,196.601"/>
	<polygon fill="#F7931E" points="269,200.4 267.7,199.4 266.3,198.301 267.8,197.7 269.3,197.101 269.1,198.801"/>
	<polygon fill="#F7931E" points="264.9,201.801 263.8,200.5 262.8,199.101 264.4,198.801 266,198.601 265.4,200.2"/>
	<path fill="#F7931E" d="M204.3,84h4.2l2.1,2.101c0,0,13,0,17.101,0c4.1,0,4.3,3.3,0,3.3c-4.301,0-18.801,0-18.801,0L204.3,84z"/>
	<polygon fill="#F7931E" points="211.6,84 215.6,89.4 211.5,92.301 214.8,92.301 220.7,88.601 214.7,84"/>
	<path fill="#FFFFFF" d="M326.3,93.5c-2.101,0-23.6,0.5-24.1,0C289.3,88,299.1,76.9,304.9,78.9c1.5-9.2,11.5-5.8,12.2-1.1 c6-3.7,10.4,4.3,8,6.399C333.9,84.101,329.8,94.4,326.3,93.5z"/>
	<path fill="#FFFFFF" d="M397.1,126.4c-2.1,0-23.6,0.5-24.1,0c-12.9-5.5-3.101-16.6,2.699-14.6c1.5-9.2,11.5-5.801,12.2-1.101 c6-3.7,10.4,4.3,8,6.4C404.8,117.101,400.699,127.301,397.1,126.4z"/>
	<polygon fill="#BDC3C7" points="232.7,79.5 232,78.5 230.7,78.5 231.5,77.5 231.1,76.301 232.3,76.7 233.3,75.9 233.3,77.2 234.3,77.9 233.1,78.301"/>
	<polygon fill="#BDC3C7" points="280.7,125 279.9,123.9 278.7,123.9 279.4,122.9 279,121.7 280.3,122.101 281.3,121.4 281.3,122.601 282.3,123.4 281.1,123.801"/>
	<polygon fill="#BDC3C7" points="280.7,125 279.9,123.9 278.7,123.9 279.4,122.9 279,121.7 280.3,122.101 281.3,121.4 281.3,122.601 282.3,123.4 281.1,123.801"/>
	<polygon fill="#BDC3C7" points="295.7,69.9 294.9,68.9 293.7,68.9 294.4,67.9 294.1,66.7 295.3,67.101 296.3,66.4 296.3,67.601 297.3,68.4 296.1,68.7"/>
	<polygon fill="#BDC3C7" points="342,74.9 341.199,73.9 340,73.9 340.699,72.9 340.3,71.7 341.6,72.101 342.6,71.4 342.6,72.601 343.6,73.4 342.3,73.7"/>
	<polygon fill="#BDC3C7" points="318.199,103.7 317.5,102.7 316.199,102.7 317,101.7 316.6,100.5 317.8,100.9 318.8,100.101 318.8,101.4 319.8,102.101 318.6,102.5"/>
	<polygon fill="#BDC3C7" points="358.199,90.801 357.5,89.7 356.199,89.7 357,88.7 356.6,87.5 357.8,88 358.9,87.2 358.8,88.5 359.9,89.2 358.6,89.601"/>
	<polygon fill="#BDC3C7" points="396.199,93.7 395.4,92.7 394.199,92.7 394.9,91.7 394.6,90.5 395.8,90.9 396.8,90.101 396.8,91.4 397.8,92.101 396.6,92.5"/>
	<polygon fill="#BDC3C7" points="352.8,113.7 352.1,112.7 350.8,112.7 351.6,111.7 351.199,110.5 352.4,110.9 353.4,110.101 353.4,111.4 354.4,112.101 353.199,112.5"/>
	<polygon fill="#BDC3C7" points="443.3,80 442.5,78.9 441.3,78.9 442,77.9 441.699,76.7 442.9,77.101 443.9,76.4 443.9,77.601 444.9,78.4 443.699,78.7"/>
	<polygon fill="#BDC3C7" points="423.699,112.101 423,111 421.699,111 422.5,110 422.1,108.801 423.3,109.2 424.3,108.5 424.3,109.7 425.3,110.5 424.1,110.801"/>
	<polygon fill="#BDC3C7" points="448.699,99.5 448,98.5 446.699,98.5 447.5,97.5 447.1,96.301 448.3,96.7 449.3,96 449.3,97.2 450.3,98 449.1,98.301"/>
	<polygon fill="#BDC3C7" points="415.4,74.5 414.6,73.5 413.4,73.5 414.1,72.5 413.699,71.301 414.9,71.7 416,70.9 415.9,72.2 417,72.9 415.699,73.301"/>
</svg>
