<?xml version="1.0" encoding="utf-8"?>
<!-- Generator: Adobe Illustrator 16.0.4, SVG Export Plug-In . SVG Version: 6.00 Build 0)  -->
<!DOCTYPE svg PUBLIC "-//W3C//DTD SVG 1.1//EN" "http://www.w3.org/Graphics/SVG/1.1/DTD/svg11.dtd">
<svg version="1.1" xmlns="http://www.w3.org/2000/svg" xmlns:xlink="http://www.w3.org/1999/xlink" x="0px" y="0px" width="538.6px"
	 height="270.6px" viewBox="0 0 538.6 270.6" enable-background="new 0 0 538.6 270.6" xml:space="preserve">
<g id="Capa_2">
	<rect y="0" fill="#FEE470" width="538.6" height="270.6"/>
</g>
<g id="Capa_1">
	<line fill="none" stroke="#95A5A6" stroke-width="7" x1="217" y1="144" x2="132.1" y2="144"/>
	<line fill="none" stroke="#95A5A6" stroke-width="9" x1="310.5" y1="230.3" x2="310.5" y2="146.3"/>
	<line fill="none" stroke="#6D7575" stroke-width="15" x1="310.5" y1="158.2" x2="310.5" y2="146.3"/>
	<path fill="#34495E" d="M398.8,147H211.5c0,0,0.2-83.2,2.3-89.5c1.4,0,179.4-0.1,180.4,0C400.1,58.5,398.8,147,398.8,147z"/>
	<path fill="#2C3E50" d="M398.8,147H211.5c0,0,181.7-89.6,182.7-89.5C400.1,58.5,398.8,147,398.8,147z"/>
	<polygon fill="#47C9AF" points="158,108.4 203.1,135.1 203.1,78.6 	"/>
	<polygon fill="#16A085" points="113.9,78.6 113.9,135.1 203.4,135.1 	"/>
	<line fill="none" stroke="#E74C3C" stroke-width="8" x1="226.9" y1="31.1" x2="265.3" y2="31.1"/>
	<line fill="none" stroke="#E74C3C" stroke-width="8" x1="232.4" y1="106.5" x2="232.4" y2="28.5"/>
	<polygon fill="#47C9AF" points="162.9,105.3 113.9,78.6 113.9,135.1 	"/>
	<polyline fill="#237C6B" points="203.1,78.6 160.1,109.9 113.9,78.6 	"/>
	<rect x="229.6" y="98.7" fill="#2C3E50" width="5.9" height="5.9"/>
</g>
</svg>
