<?xml version="1.0" encoding="utf-8"?>
<!-- Generator: Adobe Illustrator 16.0.0, SVG Export Plug-In . SVG Version: 6.00 Build 0)  -->
<!DOCTYPE svg PUBLIC "-//W3C//DTD SVG 1.1//EN" "http://www.w3.org/Graphics/SVG/1.1/DTD/svg11.dtd">
<svg version="1.1" id="Capa_1" xmlns="http://www.w3.org/2000/svg" xmlns:xlink="http://www.w3.org/1999/xlink" x="0px" y="0px"
	 width="453px" height="326.9px" viewBox="0 0 453 326.9" enable-background="new 0 0 453 326.9" xml:space="preserve">
<line fill="none" stroke="#E74C3C" stroke-width="19" x1="179.7" y1="10.201" x2="240.601" y2="10.201"/>
<line fill="none" stroke="#95A5A6" stroke-width="7" x1="163.901" y1="189.801" x2="28.901" y2="189.801"/>
<line fill="none" stroke="#95A5A6" stroke-width="15" x1="312.401" y1="326.9" x2="312.401" y2="193.4"/>
<line fill="none" stroke="#6D7575" stroke-width="15" x1="312.401" y1="212.2" x2="312.401" y2="193.4"/>
<path fill="#34495E" d="M452.8,194.501H155.101c0,0,0.399-132.3,3.6-142.3c2.2,0,285.1-0.101,286.8,0
	C454.901,53.801,452.8,194.501,452.8,194.501z"/>
<path fill="#2C3E50" d="M452.8,194.501H155.101c0,0,288.8-142.4,290.399-142.3C454.901,53.801,452.8,194.501,452.8,194.501z"/>
<polygon fill="#47C9AF" points="70,133.201 141.801,175.6 141.801,85.701 "/>
<polygon fill="#16A085" points="0,85.801 0,175.6 142.2,175.6 "/>
<line fill="none" stroke="#E74C3C" stroke-width="13" x1="188.401" y1="130.001" x2="188.401" y2="6.1"/>
<polygon fill="#47C9AF" points="77.901,128.1 0,85.701 0,175.6 "/>
<polyline fill="#237C6B" points="141.801,85.701 73.401,135.501 0,85.801 "/>
<rect x="183.901" y="117.701" fill="#2C3E50" width="9.3" height="9.3"/>
<path id="C" fill="#FFFFFF" d="M241.7,172.001c-0.1,0.1-0.3,0.3-0.4,0.3c-0.6-1.4-3.1-1.8-3.5-0.6c-0.5,1.199-0.5,2.1-0.399,3.199 c0.1,1.9,0,2.801,0.1,3.5c0.101,0.801,0.5,1.2,1.8,1.4c0.5,0.1,1.801-1.1,2-1.9c0.101-0.199,1,0.2,1,0.4c-0.899,1.4-0.6,1.9-2.6,2.6 c-2.2,0.7-3.2-1.8-3.3-2.199c-0.2-0.7-0.2-1.2-0.2-1.601c0-0.2,0-0.399,0-0.6s0-0.7,0-1.4c-0.1-1.899-0.3-2.2,0.7-4 c0.7-1.5,4.6-0.899,4.899,0.4C242.101,171.801,241.8,171.801,241.7,172.001z"/>
<path id="O" fill="#FFFFFF" d="M244.3,174.4c0-1.3,0.101-2.6,1-3.5c0.5-0.5,1.4-0.699,2.4-0.699c2.6,0,2.5,3.699,2.5,6.399 c0,2.9-0.6,4.3-2.6,4.3c-2.9,0-3.301-2.5-3.301-5.199C244.3,175.4,244.2,174.801,244.3,174.4z M248.401,179.501L248.401,179.501 c0,0,0-0.101,0.1-0.2c0.3-0.5,0.4-0.7,0.4-2.9c0-2.6-0.101-5.199-1.3-5.199c-0.601,0-1.301,0.199-1.601,0.5 c-0.6,0.6-0.7,1.6-0.7,2.699v0.5c0,0.101,0,0.101,0,0.2v0.601c0,0.1,0,0.1,0,0.1v0.6c0,1.601,0.3,3.2,2,3.2h0.3l0.601-0.2 C248.3,179.501,248.3,179.501,248.401,179.501L248.401,179.501z"/>
<path fill="#FFFFFF" d="M253.8,180.701c0,0.1-0.899,0.1-0.899,0.1c-0.101,0-0.101-0.2-0.2-0.3c-0.1-0.3-0.1-0.601-0.1-0.9v-1.7 c0-0.899,0-1.5,0-1.8c0-0.6,0-1.2,0-2.399c0-1.101,0.1-2.4,0.1-3.5c0-0.2,0.9-0.2,1.2,0v0.6c0.2-0.4,0.6-0.4,1-0.6 c0.2-0.101,0.6-0.2,1.1-0.301c0.5-0.1,0.9-0.1,1.2,0.101c0.8,0.3,1.2,1.2,1.4,2c0.5,2.1,0.3,3.8,0.3,5.899 c0,1.101,0.1,1.601,0,2.801c-0.3-0.101-1.101,0.3-1.101-0.101v-0.2v-0.1c0.101-1.5,0-2.2,0-3.6v-0.5c0-0.101,0-0.601-0.1-1.5 c0-0.9-0.1-1.601-0.2-2c-0.1-0.9-0.399-1.601-1.2-1.601c-0.7,0-1.1,0.2-1.899,0.7c-0.4,0.2-0.601,0.7-0.601,1.4 c0,0.699,0,1.899-0.1,3.6c0,1.7,0,2.7-0.101,3.1C253.8,180.001,254,180.701,253.8,180.701z"/>
<path id="T" fill="#FFFFFF" d="M261.7,168.201c0-2.2,0-2.5,0.1-3.101c0.2-0.1,0.9,0,1.101,0c-0.101,1.2-0.101,2.3,0,3.2 c1,0,1.399,0.1,2.2,0.2c0.199,0.1,0.199,0.7,0,0.899c-0.801,0-1.2,0-2.2-0.1c0,2.4-0.101,7,0.1,9.4c0.101,2.5,2.101,0.8,2,0.699 l0.5,0.5c0.4,0.601-2.6,1.9-3.3,0.5c-0.5-1.5-0.3-1.5-0.4-4.199c0-2.301,0-1.2-0.1-3.5V168.201z"/>
<path id="A" fill="#FFFFFF" d="M267.601,170.801c1.199-0.3,1.399-0.7,2.699-0.6c3.801,0.399,2.7,4.5,2.801,7.3 C273,178.701,273,179.4,273,179.6s0,0.3,0,0.5l-0.1,0.8c-0.2,0.101-0.9,0.101-1.101,0c-1,0-3.5,0.7-4.2-1c-0.6-1.5-0.6-4.5,0.7-5.5 c1.101-0.899,2-0.5,3.5-0.199c0-0.5,0.2,0.399,0.101-0.2c-0.101-1.3-0.2-2.7-1.601-2.601c-1.399,0.101-1.3,0.2-2.399,0.5 C267.901,171.801,267.3,171.001,267.601,170.801z M271.8,177.6c0-0.399,0-2.1,0-2.5c-1.1-0.2-1.5-0.399-2.5-0.2 c-0.899,0.301-1.199,2.2-0.8,4.2c0.3,1.2,1.8,0.7,2.9,0.7c0.1,0,0.2,0,0.2,0c0-0.6,0.1-1.4,0.199-2V177.6L271.8,177.6z"/>
<path id="C_1_" fill="#FFFFFF" d="M281.2,172.001c-0.1,0.1-0.3,0.3-0.4,0.3c-0.6-1.4-3.1-1.8-3.5-0.6 c-0.5,1.199-0.5,2.1-0.399,3.199c0.1,1.9,0,2.801,0.1,3.5c0.101,0.801,0.5,1.2,1.8,1.4c0.5,0.1,1.801-1.1,2-1.9 c0.101-0.199,1,0.2,1,0.4c-0.899,1.4-0.6,1.9-2.6,2.6c-2.2,0.7-3.2-1.8-3.3-2.199c-0.2-0.7-0.2-1.2-0.2-1.601c0-0.2,0-0.399,0-0.6 s0-0.7,0-1.4c-0.1-1.899-0.3-2.2,0.7-4c0.7-1.5,4.6-0.899,4.899,0.4C281.601,171.801,281.3,171.801,281.2,172.001z"/>
<path id="T_1_" fill="#FFFFFF" d="M284.2,168.201c0-2.2,0-2.5,0.1-3.101c0.2-0.1,0.9,0,1.101,0c-0.101,1.2-0.101,2.3,0,3.2 c1,0,1.399,0.1,2.2,0.2c0.199,0.1,0.199,0.7,0,0.899c-0.801,0-1.2,0-2.2-0.1c0,2.4-0.101,7,0.1,9.4c0.101,2.5,2.101,0.8,2,0.699 l0.5,0.5c0.4,0.601-2.6,1.9-3.3,0.5c-0.5-1.5-0.3-1.5-0.4-4.199c0-2.301,0-1.2-0.1-3.5V168.201z"/>
<path id="O_1_" fill="#FFFFFF" d="M288.8,174.4c0-1.3,0.101-2.6,1-3.5c0.5-0.5,1.4-0.699,2.4-0.699c2.6,0,2.5,3.699,2.5,6.399 c0,2.9-0.6,4.3-2.6,4.3c-2.9,0-3.301-2.5-3.301-5.199C288.8,175.4,288.7,174.801,288.8,174.4z M292.901,179.501L292.901,179.501 c0,0,0-0.101,0.1-0.2c0.3-0.5,0.4-0.7,0.4-2.9c0-2.6-0.101-5.199-1.3-5.199c-0.601,0-1.301,0.199-1.601,0.5 c-0.6,0.6-0.7,1.6-0.7,2.699v0.5c0,0.101,0,0.101,0,0.2v0.601c0,0.1,0,0.1,0,0.1v0.6c0,1.601,0.3,3.2,2,3.2h0.3l0.601-0.2 C292.8,179.501,292.8,179.501,292.901,179.501L292.901,179.501z"/>
<path fill="#FFFFFF" d="M298.401,162.6c0.899-0.1,2.6,0,3.399,0.2c0.101,0.3,0.2,0.9-0.1,0.8c-0.5-0.2-2.2-0.2-2.5-0.1l0,0 c0.3,4.3-0.101,8.7,0.2,13.3c0.1,1.1-0.4,4.4,0.2,4.6c0.199,0.101,0.899,0.2,1.899,0c0.3,0.2,0.2,0.801,0.2,0.801 c-3.8,0.6-3.5,0.3-3.5,0c-0.2-0.9-0.1-4.2-0.1-5.301c-0.101-4.699-0.2-9.199-0.2-13.899C297.901,162.801,298.2,162.6,298.401,162.6z "/>
<path id="A_1_" fill="#FFFFFF" d="M304.101,170.801c1.199-0.3,1.399-0.7,2.699-0.6c3.801,0.399,2.7,4.5,2.801,7.3 c-0.101,1.2-0.101,1.899-0.101,2.1s0,0.3,0,0.5l-0.1,0.8c-0.2,0.101-0.9,0.101-1.101,0c-1,0-3.5,0.7-4.2-1c-0.6-1.5-0.6-4.5,0.7-5.5 c1.101-0.899,2-0.5,3.5-0.199c0-0.5,0.2,0.399,0.101-0.2c-0.101-1.3-0.2-2.7-1.601-2.601c-1.399,0.101-1.3,0.2-2.399,0.5 C304.401,171.801,303.8,171.001,304.101,170.801z M308.3,177.6c0-0.399,0-2.1,0-2.5c-1.1-0.2-1.5-0.399-2.5-0.2 c-0.899,0.301-1.199,2.2-0.8,4.2c0.3,1.2,1.8,0.7,2.9,0.7c0.1,0,0.2,0,0.2,0c0-0.6,0.1-1.4,0.199-2V177.6L308.3,177.6z"/>
<path id="T_2_" fill="#FFFFFF" d="M312.2,168.201c0-2.2,0-2.5,0.1-3.101c0.2-0.1,0.9,0,1.101,0c-0.101,1.2-0.101,2.3,0,3.2 c1,0,1.399,0.1,2.2,0.2c0.199,0.1,0.199,0.7,0,0.899c-0.801,0-1.2,0-2.2-0.1c0,2.4-0.101,7,0.1,9.4c0.101,2.5,2.101,0.8,2,0.699 l0.5,0.5c0.4,0.601-2.6,1.9-3.3,0.5c-0.5-1.5-0.3-1.5-0.4-4.199c0-2.301,0-1.2-0.1-3.5V168.201z"/>
<path fill="#FFFFFF" d="M317.2,162.9c0.8-0.199,1.4-0.1,2.2-0.199c0.2-0.2,0.8-0.101,1,0.1s0.2,0.5,0.1,0.7c-0.2,2.8,0,5.7,0.2,8.5 c0.2,2.6,0.1,6.399,0.2,9.6c0.399,1.5,0.2,0.601-0.601,0.9c-0.8,0-3,0.1-3-0.101c0-0.199-0.3-0.6,0.101-0.8 c0.7-0.399,1.399,0.101,2.2,0c0.1-2.8,0-6.6-0.2-9.5c0.1-2.7-0.3-5.7-0.2-8.399c-0.6,0-1,0-1.7,0.199 C317.2,163.801,317,163.301,317.2,162.9z"/>
<path fill="#FFFFFF" d="M325.2,171.201c0,2.199,0.3,3.399,0.1,5.699c0.101,0.601,0.101,1.2,0.101,1.601c0,0.399,0.1,1,0,1.6 c0,1.3,0.1,1.9-0.101,3.2c0,0.8-0.6,3.4-3.6,2.6c-0.2,0.301,0.1-0.6,0.1-0.8c1.5,0.601,2.5-0.899,2.5-1.7 c0.101-0.6,0.101-1.199,0.101-1.6v-1.6c0-0.7,0-1.2,0-1.601c0-0.399-0.101-1-0.101-1.6c0.2-2.2-0.199-3.7,0-6.3 c0.2-0.2,0.801-0.101,1.101,0.1c0,0.1,0,0.1,0,0.1C325.3,171.001,325.2,171.1,325.2,171.201z M324,167.701 c0-0.101,0-0.301,0.101-0.5l0.1-0.101c0.2-0.1,0.4,0,0.6,0c0.7,0,0.801,0.9,0.5,1.4c-0.199,0.2-0.3,0.2-0.6,0.1 c-0.4,0.101-0.6,0-0.6-0.3c-0.101-0.2-0.101-0.4-0.101-0.5S324,167.701,324,167.701z"/>
<path id="O_2_" fill="#FFFFFF" d="M327.8,174.4c0-1.3,0.101-2.6,1-3.5c0.5-0.5,1.4-0.699,2.4-0.699c2.6,0,2.5,3.699,2.5,6.399 c0,2.9-0.6,4.3-2.6,4.3c-2.9,0-3.301-2.5-3.301-5.199C327.8,175.4,327.7,174.801,327.8,174.4z M331.901,179.501L331.901,179.501 c0,0,0-0.101,0.1-0.2c0.3-0.5,0.4-0.7,0.4-2.9c0-2.6-0.101-5.199-1.3-5.199c-0.601,0-1.301,0.199-1.601,0.5 c-0.6,0.6-0.7,1.6-0.7,2.699v0.5c0,0.101,0,0.101,0,0.2v0.601c0,0.1,0,0.1,0,0.1v0.6c0,1.601,0.3,3.2,2,3.2h0.3l0.601-0.2 C331.8,179.501,331.8,179.501,331.901,179.501L331.901,179.501z"/>
<path fill="#FFFFFF" d="M341.101,172.001c-0.7-0.601-1.5-1.101-2.5-0.7c-1.101,0.4-0.9,2.3-0.9,3.3c-0.1,1,0.1,0.601,0.1,1.5 c0,1.101-0.199,2.101,0,3.2c0,0.3-0.1,1.4,0,1.7c0,0.1-0.3,0.1-0.6,0.1h-0.4c-0.1,0-0.199,0-0.199,0c0.1-1.3,0.1-3.5,0-4.899 c-0.101-1.101,0-2.2,0-3.5c0-0.101-0.101-0.2-0.101-0.2s0.2-1.3-0.7-1.5c-0.2-0.101,0.2-0.5,0.5-0.8c0.4,0,1.2,0.6,1.101,0.899 c0.5-0.399,1.399-0.899,2.7-0.8c0.8,0.1,0.8,0.5,1.5,0.7C341.601,171.201,341.3,171.9,341.101,172.001z"/>
<path id="G" fill="#FFFFFF" d="M344.401,182.801c0,0.5,0.1,0.9,0.1,1.2c0.101,0.6,0.7,0.8,1.2,0.8s1-0.3,1.2-0.9 c0.399-0.899,0.5-1.8,0.5-2.6c0-0.6,0-0.5,0-1.2c-0.9,0.101-1.8,0.101-2.3-0.1s-1.2-0.5-1.4-0.9c-0.6-0.899-0.8-1.399-0.7-2.5 c0-2.5-0.1-6,2.4-6.3c0.899-0.1,2.6-0.4,3.1,0.1c0.101,0.101,0,3,0.2,4.2c0.1,0.5,0.1,0.9,0,1.2c0,0.3-0.1,0.6-0.1,0.9 c0,0.3,0,0.8,0,1.6v1.1c0,0.9,0.1,1.101,0.1,2c0,1.2,0.1,2.601-1,3.5c-0.6,0.5-1.1,0.7-1.8,0.7s-1.101,0-1.5-0.399 c-0.5-0.4-0.8-1.101-0.8-2.4C343.401,182.501,344.101,182.501,344.401,182.801z M343.8,174.501c-0.1,1.2,0,0.8,0,2 c0,0.399,0.101,0.8,0.301,1.2c0.199,0.5,0.399,0.8,0.6,0.899c0.7,0.4,1.1,0.4,2.7,0.3c-0.101-0.899,0-1.899,0-3.399 s-0.101-3.101,0-4.101c0-0.1-0.7-0.1-0.8-0.1c-0.9,0-1.301,0-1.801,0.4c-0.5,0.399-0.8,1.199-0.899,2.6L343.8,174.501L343.8,174.501 z"/>
<path fill="#FFFFFF" d="M357.101,176.1c-0.801,0.101-3.601,0.101-4.5,0H352.5c0,0.3,0,0.2,0,1c0,1,0.3,2.5,1,2.7 c1.2,0.4,2.5-0.5,2.601-1.5c0-0.3,1-0.1,1.1,0.1c-0.4,1.7-3,3.301-4.8,2.101c-1.2-0.8-1.101-3.9-1.2-5.3c-0.1-1.301,0-3.301,0.8-4.4 c0.5-0.7,0.7-0.6,1.601-0.9c0.399-0.1,0.899-0.1,1.399,0c2.2,0.101,2.3,4.2,2.2,5.601C357.101,175.701,357.101,176.1,357.101,176.1z  M352.8,171.801c-0.399,0.9-0.5,2.1-0.399,3.2c1.1,0.2,2.3,0.3,3.7,0.1c0.3-1.5-0.101-5.6-2.601-4.1 C353.101,171.201,353,171.501,352.8,171.801z"/>
<path id="A_2_" fill="#FFFFFF" d="M359.601,170.801c1.199-0.3,1.399-0.7,2.699-0.6c3.801,0.399,2.7,4.5,2.801,7.3 C365,178.701,365,179.4,365,179.6s0,0.3,0,0.5l-0.1,0.8c-0.2,0.101-0.9,0.101-1.101,0c-1,0-3.5,0.7-4.2-1c-0.6-1.5-0.6-4.5,0.7-5.5 c1.101-0.899,2-0.5,3.5-0.199c0-0.5,0.2,0.399,0.101-0.2c-0.101-1.3-0.2-2.7-1.601-2.601c-1.399,0.101-1.3,0.2-2.399,0.5 C359.901,171.801,359.3,171.001,359.601,170.801z M363.8,177.6c0-0.399,0-2.1,0-2.5c-1.1-0.2-1.5-0.399-2.5-0.2 c-0.899,0.301-1.199,2.2-0.8,4.2c0.3,1.2,1.8,0.7,2.9,0.7c0.1,0,0.2,0,0.2,0c0-0.6,0.1-1.4,0.199-2V177.6L363.8,177.6z"/>
<path id="T_3_" fill="#FFFFFF" d="M367.7,168.201c0-2.2,0-2.5,0.1-3.101c0.2-0.1,0.9,0,1.101,0c-0.101,1.2-0.101,2.3,0,3.2 c1,0,1.399,0.1,2.2,0.2c0.199,0.1,0.199,0.7,0,0.899c-0.801,0-1.2,0-2.2-0.1c0,2.4-0.101,7,0.1,9.4c0.101,2.5,2.101,0.8,2,0.699 l0.5,0.5c0.4,0.601-2.6,1.9-3.3,0.5c-0.5-1.5-0.3-1.5-0.4-4.199c0-2.301,0-1.2-0.1-3.5V168.201z"/>
<path id="G_1_" fill="#FFFFFF" d="M374.401,182.801c0,0.5,0.1,0.9,0.1,1.2c0.101,0.6,0.7,0.8,1.2,0.8s1-0.3,1.2-0.9 c0.399-0.899,0.5-1.8,0.5-2.6c0-0.6,0-0.5,0-1.2c-0.9,0.101-1.8,0.101-2.3-0.1s-1.2-0.5-1.4-0.9c-0.6-0.899-0.8-1.399-0.7-2.5 c0-2.5-0.1-6,2.4-6.3c0.899-0.1,2.6-0.4,3.1,0.1c0.101,0.101,0,3,0.2,4.2c0.1,0.5,0.1,0.9,0,1.2c0,0.3-0.1,0.6-0.1,0.9 c0,0.3,0,0.8,0,1.6v1.1c0,0.9,0.1,1.101,0.1,2c0,1.2,0.1,2.601-1,3.5c-0.6,0.5-1.1,0.7-1.8,0.7s-1.101,0-1.5-0.399 c-0.5-0.4-0.8-1.101-0.8-2.4C373.401,182.501,374.101,182.501,374.401,182.801z M373.8,174.501c-0.1,1.2,0,0.8,0,2 c0,0.399,0.101,0.8,0.301,1.2c0.199,0.5,0.399,0.8,0.6,0.899c0.7,0.4,1.1,0.4,2.7,0.3c-0.101-0.899,0-1.899,0-3.399 s-0.101-3.101,0-4.101c0-0.1-0.7-0.1-0.8-0.1c-0.9,0-1.301,0-1.801,0.4c-0.5,0.399-0.8,1.199-0.899,2.6L373.8,174.501L373.8,174.501 z"/>
<path fill="#FFFFFF" d="M382.601,170.501c0.399,0.1-0.101,0.7,0,3.1c0,2.101-0.2,2.5,0.199,4.5c0.301,1.7,2.301,3.101,3.301,1.101 c0.199-0.4,0.199-2.301,0.199-4.2c0-1.601,0.101-2.8,0.101-4.4c0-0.2,0.8-0.2,1.2,0c0,1.601-0.101,2.7-0.101,4.4 c0,1.6,0.4,3.2-0.5,4.7c-1.3,2.3-4.6,1.5-5.2-0.7c-0.6-2.3-0.399-3.101-0.3-5.4c0-0.7,0.101-2.2,0-2.899 C381.5,170.4,382.401,170.4,382.601,170.501z"/>
<path fill="#FFFFFF" d="M390.101,180.9c-0.5-0.199-0.601-0.699-0.101-1.3l0.101-0.1c0.399,0,0.6,0,0.699,0.1 c0.301,0.2,0.301,0.3,0.301,0.601C391,181.201,390.601,181.1,390.101,180.9z"/>
<path id="C_2_" fill="#FFFFFF" d="M399.7,172.001c-0.1,0.1-0.3,0.3-0.4,0.3c-0.6-1.4-3.1-1.8-3.5-0.6 c-0.5,1.199-0.5,2.1-0.399,3.199c0.1,1.9,0,2.801,0.1,3.5c0.101,0.801,0.5,1.2,1.8,1.4c0.5,0.1,1.801-1.1,2-1.9 c0.101-0.199,1,0.2,1,0.4c-0.899,1.4-0.6,1.9-2.6,2.6c-2.2,0.7-3.2-1.8-3.3-2.199c-0.2-0.7-0.2-1.2-0.2-1.601c0-0.2,0-0.399,0-0.6 s0-0.7,0-1.4c-0.1-1.899-0.3-2.2,0.7-4c0.7-1.5,4.6-0.899,4.899,0.4C400.101,171.801,399.8,171.801,399.7,172.001z"/>
<path id="O_3_" fill="#FFFFFF" d="M402.3,174.4c0-1.3,0.101-2.6,1-3.5c0.5-0.5,1.4-0.699,2.4-0.699c2.6,0,2.5,3.699,2.5,6.399 c0,2.9-0.6,4.3-2.6,4.3c-2.9,0-3.301-2.5-3.301-5.199C402.3,175.4,402.2,174.801,402.3,174.4z M406.401,179.501L406.401,179.501 c0,0,0-0.101,0.1-0.2c0.3-0.5,0.4-0.7,0.4-2.9c0-2.6-0.101-5.199-1.3-5.199c-0.601,0-1.301,0.199-1.601,0.5 c-0.6,0.6-0.7,1.6-0.7,2.699v0.5c0,0.101,0,0.101,0,0.2v0.601c0,0.1,0,0.1,0,0.1v0.6c0,1.601,0.3,3.2,2,3.2h0.3l0.601-0.2 C406.3,179.501,406.3,179.501,406.401,179.501L406.401,179.501z"/>
<path fill="#FFFFFF" d="M411.901,171.701c0,0.399-0.101,0.6,0,0.699c-0.101,1.301-0.101,2.2-0.101,2.7c0,3.101-0.1,5.101-0.1,5.7 c0,0.2-1,0.3-1.2,0c0-0.7,0-2.6,0.1-5.7c0-0.899-0.1-1.8-0.1-2.7c0-0.3,0.1-1.5,0-2.6c0.1-0.1,1.2-0.1,1.3,0.2 c-0.1,0.3,0.101,0.6,0.101,0.8c1.199-0.9,2.6-1.3,3.3-0.1c0,0.1,0,0.1,0.1,0.199l0.9-0.5c0.5-0.199,0.4-0.199,0.9-0.399 c1.8-0.3,2.199,2.1,2.1,3.899c0,0.301-0.1,1.4-0.1,3.2s0,3.101,0.1,3.7c-0.1,0.2-0.5,0.1-1,0.1c-0.2,0-0.3-0.3-0.2-1.5 c0-0.6,0.1-1.6,0-2.8v-3c0.1-2.1-0.2-2.899-1.4-2.3c-0.5,0.3-0.6,0.3-1.1,0.8c0,1,0.1,2.4,0,4.101v2.8c0,0.3,0,0.7,0.1,1.6 c0,0.101,0,0.101,0,0.3v0.101c-0.199,0-1.399,0-1.3-0.101c0-0.8,0-2,0-3.8s0-3.1,0-3.899c0.101-2-0.8-2.5-1.7-1.8 C412.5,171.301,412.2,171.501,411.901,171.701z"/>
</svg>
