
<svg version="1.1" id="Capa_1" xmlns="http://www.w3.org/2000/svg" xmlns:xlink="http://www.w3.org/1999/xlink" x="0px" y="0px"
	 width="727.7px" height="400px" viewBox="0 0 727.7 400" enable-background="new 0 0 727.7 400" xml:space="preserve">
<g id="Capa_4">
	<path fill="#7F8C8D" d="M727.7,393.4c0,3.6-5.5,6.6-12.3,6.6h-703C5.5,400,0,397,0,393.4V6.6C0,2.9,5.5,0,12.3,0h703
		c6.8,0,12.3,2.9,12.3,6.6V393.4z"/>
	<path fill="#FFFFFF" d="M727.7,395.7c0,2.3-5.5,4.3-12.3,4.3h-703C5.5,400,0,398.1,0,395.7V145.9c0-2.3,5.5-4.3,12.3-4.3h703
		c6.8,0,12.3,1.9,12.3,4.3V395.7z"/>
	<rect x="0" y="17.9" fill="#FFFFFF" width="727.7" height="205"/>
	<path fill="#E6E6E6" d="M39.4,395.7c0,2.3-0.3,4.3-0.7,4.3h-38c-0.4,0-0.7-1.9-0.7-4.3V145.9c0-2.3,0.3-4.3,0.7-4.3h38
		c0.4,0,0.7,1.9,0.7,4.3V395.7z"/>
	<rect x="0" y="17.9" fill="#E6E6E6" width="39.4" height="205"/>
	<rect x="25.4" y="386.9" fill="#E6E6E6" width="13.9" height="13.1"/>
</g>
<g id="Capa_5">
	<circle fill="#E74C3C" cx="9.4" cy="7.8" r="3.9"/>
	<circle fill="#F1C40F" cx="22.3" cy="7.8" r="3.9"/>
	<circle fill="#2ECC71" cx="35" cy="7.8" r="3.9"/>
	<text transform="matrix(1 0 0 1 50.1257 35.7139)" fill="#7F8C8D" font-family="'ArialMT'" font-size="9.9399">1</text>

		<text transform="matrix(1 0 0 1 55.6536 35.7139)" fill="#230AFE" font-family="'ArialMT'" font-size="9.9399" letter-spacing="20"> </text>
	<text transform="matrix(1 0 0 1 79.4319 35.7139)" fill="#230AFE" font-family="'ArialMT'" font-size="9.9399">&lt;!DOCTYPE html&gt;</text>
	<text transform="matrix(1 0 0 1 50.1257 47.6416)" fill="#7F8C8D" font-family="'ArialMT'" font-size="9.9399">2</text>
	<text transform="matrix(1 0 0 1 50.1257 59.5693)" fill="#7F8C8D" font-family="'ArialMT'" font-size="9.9399">3</text>

		<text transform="matrix(1 0 0 1 55.6536 59.5693)" fill="#230AFE" font-family="'ArialMT'" font-size="9.9399" letter-spacing="20"> </text>
	<text transform="matrix(1 0 0 1 79.4319 59.5693)" fill="#230AFE" font-family="'ArialMT'" font-size="9.9399">&lt;svg class=</text>
	<text transform="matrix(1 0 0 1 131.9167 59.5693)" fill="#1C7920" font-family="'ArialMT'" font-size="9.9399">&quot;svgfondo&quot;</text>
	<text transform="matrix(1 0 0 1 179.3147 59.5693)" fill="#230AFE" font-family="'ArialMT'" font-size="9.9399"> version=</text>
	<text transform="matrix(1 0 0 1 219.9246 59.5693)" fill="#1C7920" font-family="'ArialMT'" font-size="9.9399">&quot;1.1&quot;</text>
	<text transform="matrix(1 0 0 1 240.7996 59.5693)" fill="#230AFE" font-family="'ArialMT'" font-size="9.9399"> x=</text>
	<text transform="matrix(1 0 0 1 254.3347 59.5693)" fill="#1C7920" font-family="'ArialMT'" font-size="9.9399">&quot;0px&quot;</text>
	<text transform="matrix(1 0 0 1 277.4187 59.5693)" fill="#230AFE" font-family="'ArialMT'" font-size="9.9399"> y=</text>
	<text transform="matrix(1 0 0 1 290.9539 59.5693)" fill="#1C7920" font-family="'ArialMT'" font-size="9.9399">&quot;0px&quot; </text>
	<text transform="matrix(1 0 0 1 316.7996 59.5693)" fill="#230AFE" font-family="'ArialMT'" font-size="9.9399">viewBox=</text>
	<text transform="matrix(1 0 0 1 359.616 59.5693)" fill="#1C7920" font-family="'ArialMT'" font-size="9.9399">&quot;0 0 2000 800&quot;</text>
	<text transform="matrix(1 0 0 1 424.7131 59.5693)" fill="#230AFE" font-family="'ArialMT'" font-size="9.9399">&gt;</text>
	<text transform="matrix(1 0 0 1 50.1257 71.498)" fill="#7F8C8D" font-family="'ArialMT'" font-size="9.9399">4</text>
	<text transform="matrix(1 0 0 1 55.6536 71.498)" fill="#230AFE" font-family="'ArialMT'" font-size="9.9399" letter-spacing="20"> </text>
	<text transform="matrix(1 0 0 1 79.4319 71.498)" fill="#230AFE" font-family="'ArialMT'" font-size="9.9399"> &lt;g id=</text>
	<text transform="matrix(1 0 0 1 109.8289 71.498)" fill="#1C7920" font-family="'ArialMT'" font-size="9.9399">&quot;negro&quot;</text>
	<text transform="matrix(1 0 0 1 142.3098 71.498)" fill="#230AFE" font-family="'ArialMT'" font-size="9.9399">&gt;</text>
	<text transform="matrix(1 0 0 1 50.1257 83.4248)" fill="#7F8C8D" font-family="'ArialMT'" font-size="9.9399">5</text>

		<text transform="matrix(1 0 0 1 55.6536 83.4248)" fill="#230AFE" font-family="'ArialMT'" font-size="9.9399" letter-spacing="20"> </text>
	<text transform="matrix(1 0 0 1 79.4319 83.4248)" fill="#230AFE" font-family="'ArialMT'" font-size="9.9399">    &lt;rect x=</text>
	<text transform="matrix(1 0 0 1 126.3899 83.4248)" fill="#1C7920" font-family="'ArialMT'" font-size="9.9399">&quot;911.754&quot;</text>
	<text transform="matrix(1 0 0 1 169.3777 83.4248)" fill="#230AFE" font-family="'ArialMT'" font-size="9.9399"> y=</text>
	<text transform="matrix(1 0 0 1 182.9128 83.4248)" fill="#1C7920" font-family="'ArialMT'" font-size="9.9399">&quot;514.605&quot;</text>
	<text transform="matrix(1 0 0 1 225.9006 83.4248)" fill="#230AFE" font-family="'ArialMT'" font-size="9.9399"> transform=</text>
	<text transform="matrix(1 0 0 1 276.4456 83.4248)" fill="#1C7920" font-family="'ArialMT'" font-size="9.9399">&quot;matrix(-0.7071 -0.7071 0.7071 -0.7071 1278.7383 1731.1619)&quot;</text>
	<text transform="matrix(1 0 0 1 556.5061 83.4248)" fill="#230AFE" font-family="'ArialMT'" font-size="9.9399"> overflow=</text>
	<text transform="matrix(1 0 0 1 602.0842 83.4248)" fill="#1C7920" font-family="'ArialMT'" font-size="9.9399">&quot;visible&quot;</text>
	<text transform="matrix(1 0 0 1 636.7629 83.4248)" fill="#230AFE" font-family="'ArialMT'" font-size="9.9399">  stroke=</text>
	<text transform="matrix(1 0 0 1 675.1565 83.4248)" fill="#1C7920" font-family="'ArialMT'" font-size="9.9399">&quot;#FFF&quot;</text>
	<text transform="matrix(1 0 0 1 705.9553 83.4248)" fill="#230AFE" font-family="'ArialMT'" font-size="9.9399"> </text>
	<text transform="matrix(1 0 0 1 50.1257 95.3525)" fill="#7F8C8D" font-family="'ArialMT'" font-size="9.9399">6</text>

		<text transform="matrix(1 0 0 1 55.6536 95.3525)" fill="#230AFE" font-family="'ArialMT'" font-size="9.9399" letter-spacing="20"> </text>
	<text transform="matrix(1 0 0 1 79.4319 95.3525)" fill="#230AFE" font-family="'ArialMT'" font-size="9.9399">    stroke-width=</text>
	<text transform="matrix(1 0 0 1 149.866 95.3525)" fill="#1C7920" font-family="'ArialMT'" font-size="9.9399">&quot;5&quot;</text>
	<text transform="matrix(1 0 0 1 162.45 95.3525)" fill="#230AFE" font-family="'ArialMT'" font-size="9.9399"> stroke-miterlimit=</text>
	<text transform="matrix(1 0 0 1 241.1467 95.3525)" fill="#1C7920" font-family="'ArialMT'" font-size="9.9399">&quot;10&quot;</text>
	<text transform="matrix(1 0 0 1 259.261 95.3525)" fill="#230AFE" font-family="'ArialMT'" font-size="9.9399"> width=</text>
	<text transform="matrix(1 0 0 1 291.032 95.3525)" fill="#1C7920" font-family="'ArialMT'" font-size="9.9399">&quot;172.289&quot;</text>
	<text transform="matrix(1 0 0 1 334.0208 95.3525)" fill="#230AFE" font-family="'ArialMT'" font-size="9.9399"> height=</text>
	<text transform="matrix(1 0 0 1 369.6702 95.3525)" fill="#1C7920" font-family="'ArialMT'" font-size="9.9399">&quot;172.29&quot;</text>
	<text transform="matrix(1 0 0 1 407.1292 95.3525)" fill="#230AFE" font-family="'ArialMT'" font-size="9.9399">/&gt;</text>
	<text transform="matrix(1 0 0 1 50.1257 107.2812)" fill="#7F8C8D" font-family="'ArialMT'" font-size="9.9399">7</text>

		<text transform="matrix(1 0 0 1 55.6536 107.2812)" fill="#230AFE" font-family="'ArialMT'" font-size="9.9399" letter-spacing="20"> </text>
	<text transform="matrix(1 0 0 1 79.4319 107.2812)" fill="#230AFE" font-family="'ArialMT'" font-size="9.9399">    &lt;polygon fill=</text>
	<text transform="matrix(1 0 0 1 149.0559 107.2812)" fill="#1C7920" font-family="'ArialMT'" font-size="9.9399">&quot;#FFFFFF&quot;</text>
	<text transform="matrix(1 0 0 1 198.0667 107.2812)" fill="#230AFE" font-family="'ArialMT'" font-size="9.9399"> points=</text>
	<text transform="matrix(1 0 0 1 233.1589 107.2812)" fill="#1C7920" font-family="'ArialMT'" font-size="9.9399">&quot;928.092,583.799 969.402,550.014 992.101,612.187 1001.988,641.518 958.561,641.518&quot;</text>
	<text transform="matrix(1 0 0 1 629.9143 107.2812)" fill="#230AFE" font-family="'ArialMT'" font-size="9.9399">/&gt;</text>
	<text transform="matrix(1 0 0 1 50.1257 119.209)" fill="#7F8C8D" font-family="'ArialMT'" font-size="9.9399">8</text>

		<text transform="matrix(1 0 0 1 55.6536 119.209)" fill="#230AFE" font-family="'ArialMT'" font-size="9.9399" letter-spacing="20"> </text>
	<text transform="matrix(1 0 0 1 79.4319 119.209)" fill="#230AFE" font-family="'ArialMT'" font-size="9.9399">    &lt;polygon fill=</text>
	<text transform="matrix(1 0 0 1 149.0559 119.209)" fill="#1C7920" font-family="'ArialMT'" font-size="9.9399">&quot;#FFFFFF&quot;</text>
	<text transform="matrix(1 0 0 1 198.0667 119.209)" fill="#230AFE" font-family="'ArialMT'" font-size="9.9399"> points=</text>
	<text transform="matrix(1 0 0 1 233.1589 119.209)" fill="#1C7920" font-family="'ArialMT'" font-size="9.9399">&quot;1004.213,533.598 1062.734,568.224 1018.125,641.518 970.463,641.518&quot;</text>
	<text transform="matrix(1 0 0 1 563.5842 119.209)" fill="#230AFE" font-family="'ArialMT'" font-size="9.9399">/&gt;</text>
	<text transform="matrix(1 0 0 1 50.1257 131.1367)" fill="#7F8C8D" font-family="'ArialMT'" font-size="9.9399">9</text>

		<text transform="matrix(1 0 0 1 55.6536 131.1367)" fill="#230AFE" font-family="'ArialMT'" font-size="9.9399" letter-spacing="20"> </text>
	<text transform="matrix(1 0 0 1 79.4319 131.1367)" fill="#230AFE" font-family="'ArialMT'" font-size="9.9399">    &lt;line fill=</text>
	<text transform="matrix(1 0 0 1 129.7097 131.1367)" fill="#1C7920" font-family="'ArialMT'" font-size="9.9399">&quot;none&quot;</text>
	<text transform="matrix(1 0 0 1 158.8796 131.1367)" fill="#230AFE" font-family="'ArialMT'" font-size="9.9399"> stroke=</text>
	<text transform="matrix(1 0 0 1 194.5129 131.1367)" fill="#1C7920" font-family="'ArialMT'" font-size="9.9399">&quot;#FFFFFF&quot;</text>
	<text transform="matrix(1 0 0 1 243.5256 131.1367)" fill="#230AFE" font-family="'ArialMT'" font-size="9.9399"> stroke-miterlimit=</text>
	<text transform="matrix(1 0 0 1 322.2239 131.1367)" fill="#1C7920" font-family="'ArialMT'" font-size="9.9399">&quot;10&quot;</text>
	<text transform="matrix(1 0 0 1 340.3367 131.1367)" fill="#230AFE" font-family="'ArialMT'" font-size="9.9399"> x1=</text>
	<text transform="matrix(1 0 0 1 359.4006 131.1367)" fill="#1C7920" font-family="'ArialMT'" font-size="9.9399">&quot;935.789&quot;</text>
	<text transform="matrix(1 0 0 1 402.3899 131.1367)" fill="#230AFE" font-family="'ArialMT'" font-size="9.9399"> y1=</text>
	<text transform="matrix(1 0 0 1 421.4534 131.1367)" fill="#1C7920" font-family="'ArialMT'" font-size="9.9399">&quot;641.518&quot;</text>
	<text transform="matrix(1 0 0 1 464.4417 131.1367)" fill="#230AFE" font-family="'ArialMT'" font-size="9.9399"> x2=</text>
	<text transform="matrix(1 0 0 1 483.5061 131.1367)" fill="#1C7920" font-family="'ArialMT'" font-size="9.9399">&quot;1056.261&quot;</text>
	<text transform="matrix(1 0 0 1 532.0217 131.1367)" fill="#230AFE" font-family="'ArialMT'" font-size="9.9399"> y2=</text>
	<text transform="matrix(1 0 0 1 551.0862 131.1367)" fill="#1C7920" font-family="'ArialMT'" font-size="9.9399">&quot;641.518&quot;</text>
	<text transform="matrix(1 0 0 1 594.0745 131.1367)" fill="#230AFE" font-family="'ArialMT'" font-size="9.9399">/&gt;</text>
	<text transform="matrix(1 0 0 1 50.1257 143.0645)" fill="#7F8C8D" font-family="'ArialMT'" font-size="9.9399">10</text>

		<text transform="matrix(1 0 0 1 61.1819 143.0645)" fill="#230AFE" font-family="'ArialMT'" font-size="9.9399" letter-spacing="14"> </text>
	<text transform="matrix(1 0 0 1 79.4329 143.0645)" fill="#230AFE" font-family="'ArialMT'" font-size="9.9399">  &lt;/g&gt;</text>
	<text transform="matrix(1 0 0 1 50.1257 154.9922)" fill="#7F8C8D" font-family="'ArialMT'" font-size="9.9399">11</text>

		<text transform="matrix(1 0 0 1 61.1819 154.9922)" fill="#230AFE" font-family="'ArialMT'" font-size="9.9399" letter-spacing="14"> </text>
	<text transform="matrix(1 0 0 1 79.4329 154.9922)" fill="#230AFE" font-family="'ArialMT'" font-size="9.9399">  &lt;animateTransform id=</text>
	<text transform="matrix(1 0 0 1 187.7136 154.9922)" fill="#1C7920" font-family="'ArialMT'" font-size="9.9399">&quot;derechas&quot;</text>
	<text transform="matrix(1 0 0 1 235.6609 154.9922)" fill="#230AFE" font-family="'ArialMT'" font-size="9.9399"> attributeName=</text>
	<text transform="matrix(1 0 0 1 306.6589 154.9922)" fill="#1C7920" font-family="'ArialMT'" font-size="9.9399">&quot;transform&quot;</text>
	<text transform="matrix(1 0 0 1 355.6917 154.9922)" fill="#230AFE" font-family="'ArialMT'" font-size="9.9399"> type=</text>
	<text transform="matrix(1 0 0 1 383.0471 154.9922)" fill="#1C7920" font-family="'ArialMT'" font-size="9.9399">&quot;translate&quot;</text>
	<text transform="matrix(1 0 0 1 428.2278 154.9922)" fill="#230AFE" font-family="'ArialMT'" font-size="9.9399"> from=</text>
	<text transform="matrix(1 0 0 1 456.6741 154.9922)" fill="#1C7920" font-family="'ArialMT'" font-size="9.9399">&quot;1&quot;</text>
	<text transform="matrix(1 0 0 1 469.2581 154.9922)" fill="#230AFE" font-family="'ArialMT'" font-size="9.9399"> to=</text>
	<text transform="matrix(1 0 0 1 486.1155 154.9922)" fill="#1C7920" font-family="'ArialMT'" font-size="9.9399">&quot;30&quot;</text>
	<text transform="matrix(1 0 0 1 504.2297 154.9922)" fill="#230AFE" font-family="'ArialMT'" font-size="9.9399"> begin=</text>
	<text transform="matrix(1 0 0 1 537.1155 154.9922)" fill="#1C7920" font-family="'ArialMT'" font-size="9.9399">&quot;0s&quot;</text>
	<text transform="matrix(1 0 0 1 554.6702 154.9922)" fill="#230AFE" font-family="'ArialMT'" font-size="9.9399"> dur=</text>
	<text transform="matrix(1 0 0 1 577.6047 154.9922)" fill="#1C7920" font-family="'ArialMT'" font-size="9.9399">&quot;6s&quot;</text>
	<text transform="matrix(1 0 0 1 595.1584 154.9922)" fill="#230AFE" font-family="'ArialMT'" font-size="9.9399">/&gt;</text>
	<text transform="matrix(1 0 0 1 50.1257 166.9199)" fill="#7F8C8D" font-family="'ArialMT'" font-size="9.9399">12</text>

		<text transform="matrix(1 0 0 1 61.1819 166.9199)" fill="#230AFE" font-family="'ArialMT'" font-size="9.9399" letter-spacing="14"> </text>
	<text transform="matrix(1 0 0 1 79.4329 166.9199)" fill="#230AFE" font-family="'ArialMT'" font-size="9.9399">  &lt;animateTransform id=</text>
	<text transform="matrix(1 0 0 1 187.7136 166.9199)" fill="#1C7920" font-family="'ArialMT'" font-size="9.9399">&quot;izquierdas&quot;</text>
	<text transform="matrix(1 0 0 1 240.0769 166.9199)" fill="#230AFE" font-family="'ArialMT'" font-size="9.9399"> attributeName=</text>
	<text transform="matrix(1 0 0 1 311.075 166.9199)" fill="#1C7920" font-family="'ArialMT'" font-size="9.9399">&quot;transform&quot;</text>
	<text transform="matrix(1 0 0 1 360.1077 166.9199)" fill="#230AFE" font-family="'ArialMT'" font-size="9.9399"> type=</text>
	<text transform="matrix(1 0 0 1 387.4631 166.9199)" fill="#1C7920" font-family="'ArialMT'" font-size="9.9399">&quot;translate&quot;</text>
	<text transform="matrix(1 0 0 1 432.6438 166.9199)" fill="#230AFE" font-family="'ArialMT'" font-size="9.9399"> from=</text>
	<text transform="matrix(1 0 0 1 461.0901 166.9199)" fill="#1C7920" font-family="'ArialMT'" font-size="9.9399">&quot;30&quot;</text>
	<text transform="matrix(1 0 0 1 479.2034 166.9199)" fill="#230AFE" font-family="'ArialMT'" font-size="9.9399"> to=</text>
	<text transform="matrix(1 0 0 1 496.0598 166.9199)" fill="#1C7920" font-family="'ArialMT'" font-size="9.9399">&quot;1&quot;</text>
	<text transform="matrix(1 0 0 1 508.6458 166.9199)" fill="#230AFE" font-family="'ArialMT'" font-size="9.9399"> begin=</text>
	<text transform="matrix(1 0 0 1 541.5315 166.9199)" fill="#1C7920" font-family="'ArialMT'" font-size="9.9399">&quot;derechas.end&quot;</text>
	<text transform="matrix(1 0 0 1 608.8264 166.9199)" fill="#230AFE" font-family="'ArialMT'" font-size="9.9399"> dur=</text>
	<text transform="matrix(1 0 0 1 631.7581 166.9199)" fill="#1C7920" font-family="'ArialMT'" font-size="9.9399">&quot;6s&quot;</text>
	<text transform="matrix(1 0 0 1 649.3137 166.9199)" fill="#230AFE" font-family="'ArialMT'" font-size="9.9399">/&gt;</text>
	<text transform="matrix(1 0 0 1 50.1257 178.8477)" fill="#7F8C8D" font-family="'ArialMT'" font-size="9.9399">13</text>

		<text transform="matrix(1 0 0 1 61.1819 178.8477)" fill="#230AFE" font-family="'ArialMT'" font-size="9.9399" letter-spacing="14"> </text>
	<text transform="matrix(1 0 0 1 79.4329 178.8477)" fill="#230AFE" font-family="'ArialMT'" font-size="9.9399">   &lt;polygon fill=</text>
	<text transform="matrix(1 0 0 1 146.2937 178.8477)" fill="#1C7920" font-family="'ArialMT'" font-size="9.9399">&quot;#F0DBA5&quot;</text>
	<text transform="matrix(1 0 0 1 196.4436 178.8477)" fill="#230AFE" font-family="'ArialMT'" font-size="9.9399"> points=</text>
	<text transform="matrix(1 0 0 1 231.5359 178.8477)" fill="#1C7920" font-family="'ArialMT'" font-size="9.9399">&quot;948.742,46.109 923.149,90.439 897.556,46.109&quot;</text>
	<text transform="matrix(1 0 0 1 451.4045 178.8477)" fill="#230AFE" font-family="'ArialMT'" font-size="9.9399">&gt;</text>
	<text transform="matrix(1 0 0 1 50.1257 190.7764)" fill="#7F8C8D" font-family="'ArialMT'" font-size="9.9399">14</text>

		<text transform="matrix(1 0 0 1 61.1819 190.7764)" fill="#230AFE" font-family="'ArialMT'" font-size="9.9399" letter-spacing="14"> </text>
	<text transform="matrix(1 0 0 1 79.4329 190.7764)" fill="#230AFE" font-family="'ArialMT'" font-size="9.9399">      &lt;animate attributeName=</text>
	<text transform="matrix(1 0 0 1 208.1687 190.7764)" fill="#1C7920" font-family="'ArialMT'" font-size="9.9399">&quot;fill&quot;</text>
	<text transform="matrix(1 0 0 1 224.6096 190.7764)" fill="#230AFE" font-family="'ArialMT'" font-size="9.9399"> dur=</text>
	<text transform="matrix(1 0 0 1 247.5437 190.7764)" fill="#1C7920" font-family="'ArialMT'" font-size="9.9399">&quot;5s&quot;</text>
	<text transform="matrix(1 0 0 1 265.0989 190.7764)" fill="#230AFE" font-family="'ArialMT'" font-size="9.9399"> values=</text>
	<text transform="matrix(1 0 0 1 302.3967 190.7764)" fill="#1C7920" font-family="'ArialMT'" font-size="9.9399">&quot;#056158&quot;</text>
	<text transform="matrix(1 0 0 1 348.1506 190.7764)" fill="#230AFE" font-family="'ArialMT'" font-size="9.9399"> begin=</text>
	<text transform="matrix(1 0 0 1 381.0393 190.7764)" fill="#1C7920" font-family="'ArialMT'" font-size="9.9399">&quot;mouseover&quot;</text>
	<text transform="matrix(1 0 0 1 437.2668 190.7764)" fill="#230AFE" font-family="'ArialMT'" font-size="9.9399">/&gt;</text>
	<text transform="matrix(1 0 0 1 50.1257 202.7041)" fill="#7F8C8D" font-family="'ArialMT'" font-size="9.9399">15</text>

		<text transform="matrix(1 0 0 1 61.1819 202.7041)" fill="#230AFE" font-family="'ArialMT'" font-size="9.9399" letter-spacing="14"> </text>
	<text transform="matrix(1 0 0 1 79.4329 202.7041)" fill="#230AFE" font-family="'ArialMT'" font-size="9.9399">     &lt;animateTransform attributeName=</text>
	<text transform="matrix(1 0 0 1 250.6936 202.7041)" fill="#1C7920" font-family="'ArialMT'" font-size="9.9399">&quot;transform&quot;</text>
	<text transform="matrix(1 0 0 1 299.7278 202.7041)" fill="#230AFE" font-family="'ArialMT'" font-size="9.9399"> type=</text>
	<text transform="matrix(1 0 0 1 327.0828 202.7041)" fill="#1C7920" font-family="'ArialMT'" font-size="9.9399">&quot;rotate&quot;</text>
	<text transform="matrix(1 0 0 1 359.5579 202.7041)" fill="#230AFE" font-family="'ArialMT'" font-size="9.9399"> from=</text>
	<text transform="matrix(1 0 0 1 388.0022 202.7041)" fill="#1C7920" font-family="'ArialMT'" font-size="9.9399">&quot;0 32 32&quot;</text>
	<text transform="matrix(1 0 0 1 428.2258 202.7041)" fill="#230AFE" font-family="'ArialMT'" font-size="9.9399"> to=</text>
	<text transform="matrix(1 0 0 1 445.0803 202.7041)" fill="#1C7920" font-family="'ArialMT'" font-size="9.9399">&quot;-360 32 32&quot;</text>
	<text transform="matrix(1 0 0 1 499.6682 202.7041)" fill="#230AFE" font-family="'ArialMT'" font-size="9.9399"> dur=</text>
	<text transform="matrix(1 0 0 1 522.6028 202.7041)" fill="#1C7920" font-family="'ArialMT'" font-size="9.9399">&quot;15s&quot;</text>
	<text transform="matrix(1 0 0 1 545.6848 202.7041)" fill="#230AFE" font-family="'ArialMT'" font-size="9.9399"> repeatDur=</text>
	<text transform="matrix(1 0 0 1 598.4514 202.7041)" fill="#1C7920" font-family="'ArialMT'" font-size="9.9399">&quot;5&quot;</text>
	<text transform="matrix(1 0 0 1 611.0374 202.7041)" fill="#230AFE" font-family="'ArialMT'" font-size="9.9399"> begin=</text>
	<text transform="matrix(1 0 0 1 643.9241 202.7041)" fill="#1C7920" font-family="'ArialMT'" font-size="9.9399">&quot;mouseover&quot;</text>
	<text transform="matrix(1 0 0 1 700.1526 202.7041)" fill="#230AFE" font-family="'ArialMT'" font-size="9.9399">/&gt;</text>
	<text transform="matrix(1 0 0 1 50.1257 214.6318)" fill="#7F8C8D" font-family="'ArialMT'" font-size="9.9399">16</text>

		<text transform="matrix(1 0 0 1 61.1819 214.6318)" fill="#230AFE" font-family="'ArialMT'" font-size="9.9399" letter-spacing="14"> </text>
	<text transform="matrix(1 0 0 1 79.4329 214.6318)" fill="#230AFE" font-family="'ArialMT'" font-size="9.9399">    &lt;/polygon&gt;</text>
	<text transform="matrix(1 0 0 1 50.1257 226.5596)" fill="#7F8C8D" font-family="'ArialMT'" font-size="9.9399">17</text>

		<text transform="matrix(1 0 0 1 61.1819 226.5596)" fill="#230AFE" font-family="'ArialMT'" font-size="9.9399" letter-spacing="14"> </text>
	<text transform="matrix(1 0 0 1 79.4329 226.5596)" fill="#230AFE" font-family="'ArialMT'" font-size="9.9399">  &lt;animate id=</text>
	<text transform="matrix(1 0 0 1 142.427 226.5596)" fill="#1C7920" font-family="'ArialMT'" font-size="9.9399">&quot;letras&quot;</text>
	<text transform="matrix(1 0 0 1 173.7878 226.5596)" fill="#230AFE" font-family="'ArialMT'" font-size="9.9399"> attributeName=</text>
	<text transform="matrix(1 0 0 1 244.7859 226.5596)" fill="#1C7920" font-family="'ArialMT'" font-size="9.9399">&quot;fill&quot;</text>
	<text transform="matrix(1 0 0 1 261.2297 226.5596)" fill="#230AFE" font-family="'ArialMT'" font-size="9.9399"> dur=</text>
	<text transform="matrix(1 0 0 1 284.1609 226.5596)" fill="#1C7920" font-family="'ArialMT'" font-size="9.9399">&quot;5s&quot;</text>
	<text transform="matrix(1 0 0 1 301.7156 226.5596)" fill="#230AFE" font-family="'ArialMT'" font-size="9.9399"> values=</text>
	<text transform="matrix(1 0 0 1 339.0149 226.5596)" fill="#1C7920" font-family="'ArialMT'" font-size="9.9399">&quot;black;white;&quot;</text>
	<text transform="matrix(1 0 0 1 398.0042 226.5596)" fill="#230AFE" font-family="'ArialMT'" font-size="9.9399"> begin=</text>
	<text transform="matrix(1 0 0 1 430.8918 226.5596)" fill="#1C7920" font-family="'ArialMT'" font-size="9.9399">&quot;12s&quot;</text>
	<text transform="matrix(1 0 0 1 453.9758 226.5596)" fill="#230AFE" font-family="'ArialMT'" font-size="9.9399"> fill=</text>
	<text transform="matrix(1 0 0 1 471.927 226.5596)" fill="#1C7920" font-family="'ArialMT'" font-size="9.9399">&quot;freeze&quot;</text>
	<text transform="matrix(1 0 0 1 506.6096 226.5596)" fill="#230AFE" font-family="'ArialMT'" font-size="9.9399">/&gt;</text>
	<text transform="matrix(1 0 0 1 50.1257 238.4873)" fill="#7F8C8D" font-family="'ArialMT'" font-size="9.9399">18</text>

		<text transform="matrix(1 0 0 1 61.1819 238.4873)" fill="#230AFE" font-family="'ArialMT'" font-size="9.9399" letter-spacing="14"> </text>
	<text transform="matrix(1 0 0 1 79.4329 238.4873)" fill="#230AFE" font-family="'ArialMT'" font-size="9.9399">    &lt;text xlink:href=</text>
	<text transform="matrix(1 0 0 1 160.6458 238.4873)" fill="#1C7920" font-family="'ArialMT'" font-size="9.9399">&quot;#letras&quot;</text>
	<text transform="matrix(1 0 0 1 197.5359 238.4873)" fill="#230AFE" font-family="'ArialMT'" font-size="9.9399"> x=</text>
	<text transform="matrix(1 0 0 1 211.0706 238.4873)" fill="#1C7920" font-family="'ArialMT'" font-size="9.9399">&quot;394.968&quot;</text>
	<text transform="matrix(1 0 0 1 254.0598 238.4873)" fill="#230AFE" font-family="'ArialMT'" font-size="9.9399"> y=</text>
	<text transform="matrix(1 0 0 1 267.5969 238.4873)" fill="#1C7920" font-family="'ArialMT'" font-size="9.9399">&quot;419&quot;</text>
	<text transform="matrix(1 0 0 1 291.2366 238.4873)" fill="#230AFE" font-family="'ArialMT'" font-size="9.9399"> font-family=</text>
	<text transform="matrix(1 0 0 1 345.6487 238.4873)" fill="#1C7920" font-family="'ArialMT'" font-size="9.9399">&quot;&apos;NexaBold&apos;&quot;</text>
	<text transform="matrix(1 0 0 1 399.6008 238.4873)" fill="#230AFE" font-family="'ArialMT'" font-size="9.9399"> font-size=</text>
	<text transform="matrix(1 0 0 1 445.7327 238.4873)" fill="#1C7920" font-family="'ArialMT'" font-size="9.9399">&quot;42&quot;</text>
	<text transform="matrix(1 0 0 1 463.8469 238.4873)" fill="#230AFE" font-family="'ArialMT'" font-size="9.9399">&gt;D</text>
	<text transform="matrix(1 0 0 1 50.1257 250.415)" fill="#7F8C8D" font-family="'ArialMT'" font-size="9.9399">19</text>

		<text transform="matrix(1 0 0 1 61.1819 250.415)" fill="#230AFE" font-family="'ArialMT'" font-size="9.9399" letter-spacing="14"> </text>
	<text transform="matrix(1 0 0 1 79.4329 250.415)" fill="#230AFE" font-family="'ArialMT'" font-size="9.9399">      &lt;animateTransform attributeName=</text>
	<text transform="matrix(1 0 0 1 253.4558 250.415)" fill="#1C7920" font-family="'ArialMT'" font-size="9.9399">&quot;transform&quot;</text>
	<text transform="matrix(1 0 0 1 302.4885 250.415)" fill="#230AFE" font-family="'ArialMT'" font-size="9.9399">  type=</text>
	<text transform="matrix(1 0 0 1 332.6057 250.415)" fill="#1C7920" font-family="'ArialMT'" font-size="9.9399">&quot;translate&quot;</text>
	<text transform="matrix(1 0 0 1 377.7854 250.415)" fill="#230AFE" font-family="'ArialMT'" font-size="9.9399"> from=</text>
	<text transform="matrix(1 0 0 1 406.2327 250.415)" fill="#1C7920" font-family="'ArialMT'" font-size="9.9399">&quot;0&quot;</text>
	<text transform="matrix(1 0 0 1 418.8167 250.415)" fill="#230AFE" font-family="'ArialMT'" font-size="9.9399"> to=</text>
	<text transform="matrix(1 0 0 1 435.6741 250.415)" fill="#1C7920" font-family="'ArialMT'" font-size="9.9399">&quot;3&quot;</text>
	<text transform="matrix(1 0 0 1 448.2581 250.415)" fill="#230AFE" font-family="'ArialMT'" font-size="9.9399"> begin=</text>
	<text transform="matrix(1 0 0 1 481.1467 250.415)" fill="#1C7920" font-family="'ArialMT'" font-size="9.9399">&quot;12s&quot;</text>
	<text transform="matrix(1 0 0 1 504.2297 250.415)" fill="#230AFE" font-family="'ArialMT'" font-size="9.9399"> dur=</text>
	<text transform="matrix(1 0 0 1 527.1624 250.415)" fill="#1C7920" font-family="'ArialMT'" font-size="9.9399">&quot;4s&quot;</text>
	<text transform="matrix(1 0 0 1 544.718 250.415)" fill="#230AFE" font-family="'ArialMT'" font-size="9.9399"> fill=</text>
	<text transform="matrix(1 0 0 1 562.6682 250.415)" fill="#1C7920" font-family="'ArialMT'" font-size="9.9399">&quot;freeze&quot;</text>
	<text transform="matrix(1 0 0 1 597.3528 250.415)" fill="#230AFE" font-family="'ArialMT'" font-size="9.9399">/&gt;</text>
	<text transform="matrix(1 0 0 1 50.1257 262.3428)" fill="#7F8C8D" font-family="'ArialMT'" font-size="9.9399">20</text>

		<text transform="matrix(1 0 0 1 61.1819 262.3428)" fill="#230AFE" font-family="'ArialMT'" font-size="9.9399" letter-spacing="14"> </text>
	<text transform="matrix(1 0 0 1 79.4329 262.3428)" fill="#230AFE" font-family="'ArialMT'" font-size="9.9399">    &lt;/text&gt;</text>
	<text transform="matrix(1 0 0 1 50.1257 274.2705)" fill="#7F8C8D" font-family="'ArialMT'" font-size="9.9399">21</text>

		<text transform="matrix(1 0 0 1 61.1819 274.2705)" fill="#230AFE" font-family="'ArialMT'" font-size="9.9399" letter-spacing="14"> </text>
	<text transform="matrix(1 0 0 1 79.4329 274.2705)" fill="#230AFE" font-family="'ArialMT'" font-size="9.9399">    &lt;text xlink:href=</text>
	<text transform="matrix(1 0 0 1 160.6458 274.2705)" fill="#1C7920" font-family="'ArialMT'" font-size="9.9399">&quot;#letras&quot;</text>
	<text transform="matrix(1 0 0 1 197.5359 274.2705)" fill="#230AFE" font-family="'ArialMT'" font-size="9.9399"> x=</text>
	<text transform="matrix(1 0 0 1 211.0706 274.2705)" fill="#1C7920" font-family="'ArialMT'" font-size="9.9399">&quot;424.2878&quot;</text>
	<text transform="matrix(1 0 0 1 259.5886 274.2705)" fill="#230AFE" font-family="'ArialMT'" font-size="9.9399"> y=</text>
	<text transform="matrix(1 0 0 1 273.1238 274.2705)" fill="#1C7920" font-family="'ArialMT'" font-size="9.9399">&quot;419&quot;</text>
	<text transform="matrix(1 0 0 1 296.7668 274.2705)" fill="#230AFE" font-family="'ArialMT'" font-size="9.9399"> font-family=</text>
	<text transform="matrix(1 0 0 1 351.179 274.2705)" fill="#1C7920" font-family="'ArialMT'" font-size="9.9399">&quot;&apos;NexaBold&apos;&quot;</text>
	<text transform="matrix(1 0 0 1 405.1292 274.2705)" fill="#230AFE" font-family="'ArialMT'" font-size="9.9399"> font-size=</text>
	<text transform="matrix(1 0 0 1 451.261 274.2705)" fill="#1C7920" font-family="'ArialMT'" font-size="9.9399">&quot;42&quot;</text>
	<text transform="matrix(1 0 0 1 469.3733 274.2705)" fill="#230AFE" font-family="'ArialMT'" font-size="9.9399">&gt;S</text>
	<text transform="matrix(1 0 0 1 50.1257 286.1982)" fill="#7F8C8D" font-family="'ArialMT'" font-size="9.9399">22</text>

		<text transform="matrix(1 0 0 1 61.1819 286.1982)" fill="#230AFE" font-family="'ArialMT'" font-size="9.9399" letter-spacing="14"> </text>
	<text transform="matrix(1 0 0 1 79.4329 286.1982)" fill="#230AFE" font-family="'ArialMT'" font-size="9.9399">      &lt;animateTransform attributeName=</text>
	<text transform="matrix(1 0 0 1 253.4558 286.1982)" fill="#1C7920" font-family="'ArialMT'" font-size="9.9399">&quot;transform&quot;</text>
	<text transform="matrix(1 0 0 1 302.4885 286.1982)" fill="#230AFE" font-family="'ArialMT'" font-size="9.9399"> type=</text>
	<text transform="matrix(1 0 0 1 329.845 286.1982)" fill="#1C7920" font-family="'ArialMT'" font-size="9.9399">&quot;translate&quot;</text>
	<text transform="matrix(1 0 0 1 375.0237 286.1982)" fill="#230AFE" font-family="'ArialMT'" font-size="9.9399"> from=</text>
	<text transform="matrix(1 0 0 1 403.4719 286.1982)" fill="#1C7920" font-family="'ArialMT'" font-size="9.9399">&quot;-30&quot;</text>
	<text transform="matrix(1 0 0 1 424.8938 286.1982)" fill="#230AFE" font-family="'ArialMT'" font-size="9.9399"> to=</text>
	<text transform="matrix(1 0 0 1 441.7502 286.1982)" fill="#1C7920" font-family="'ArialMT'" font-size="9.9399">&quot;-1&quot;</text>
	<text transform="matrix(1 0 0 1 457.6458 286.1982)" fill="#230AFE" font-family="'ArialMT'" font-size="9.9399"> begin=</text>
	<text transform="matrix(1 0 0 1 490.5315 286.1982)" fill="#1C7920" font-family="'ArialMT'" font-size="9.9399">&quot;0s&quot;</text>
	<text transform="matrix(1 0 0 1 508.0862 286.1982)" fill="#230AFE" font-family="'ArialMT'" font-size="9.9399"> dur=</text>
	<text transform="matrix(1 0 0 1 531.0208 286.1982)" fill="#1C7920" font-family="'ArialMT'" font-size="9.9399">&quot;4s&quot;</text>
	<text transform="matrix(1 0 0 1 548.5745 286.1982)" fill="#230AFE" font-family="'ArialMT'" font-size="9.9399"> repeatCount=</text>
	<text transform="matrix(1 0 0 1 611.8508 286.1982)" fill="#1C7920" font-family="'ArialMT'" font-size="9.9399">&quot;1&quot;</text>
	<text transform="matrix(1 0 0 1 624.4368 286.1982)" fill="#230AFE" font-family="'ArialMT'" font-size="9.9399">/&gt;</text>
	<text transform="matrix(1 0 0 1 50.1257 298.126)" fill="#7F8C8D" font-family="'ArialMT'" font-size="9.9399">23</text>

		<text transform="matrix(1 0 0 1 61.1819 298.126)" fill="#230AFE" font-family="'ArialMT'" font-size="9.9399" letter-spacing="14"> </text>
	<text transform="matrix(1 0 0 1 79.4329 298.126)" fill="#230AFE" font-family="'ArialMT'" font-size="9.9399">      &lt;animateTransform attributeName=</text>
	<text transform="matrix(1 0 0 1 253.4558 298.126)" fill="#1C7920" font-family="'ArialMT'" font-size="9.9399">&quot;transform&quot;</text>
	<text transform="matrix(1 0 0 1 302.4885 298.126)" fill="#230AFE" font-family="'ArialMT'" font-size="9.9399"> type=</text>
	<text transform="matrix(1 0 0 1 329.845 298.126)" fill="#1C7920" font-family="'ArialMT'" font-size="9.9399">&quot;translate&quot;</text>
	<text transform="matrix(1 0 0 1 375.0237 298.126)" fill="#230AFE" font-family="'ArialMT'" font-size="9.9399"> from=</text>
	<text transform="matrix(1 0 0 1 403.4719 298.126)" fill="#1C7920" font-family="'ArialMT'" font-size="9.9399">&quot;0&quot;</text>
	<text transform="matrix(1 0 0 1 416.0559 298.126)" fill="#230AFE" font-family="'ArialMT'" font-size="9.9399"> to=</text>
	<text transform="matrix(1 0 0 1 432.9124 298.126)" fill="#1C7920" font-family="'ArialMT'" font-size="9.9399">&quot;20&quot;</text>
	<text transform="matrix(1 0 0 1 451.0256 298.126)" fill="#230AFE" font-family="'ArialMT'" font-size="9.9399"> begin=</text>
	<text transform="matrix(1 0 0 1 483.9124 298.126)" fill="#1C7920" font-family="'ArialMT'" font-size="9.9399">&quot;12s&quot;</text>
	<text transform="matrix(1 0 0 1 506.9963 298.126)" fill="#230AFE" font-family="'ArialMT'" font-size="9.9399"> dur=</text>
	<text transform="matrix(1 0 0 1 529.929 298.126)" fill="#1C7920" font-family="'ArialMT'" font-size="9.9399">&quot;4s&quot;</text>
	<text transform="matrix(1 0 0 1 547.4827 298.126)" fill="#230AFE" font-family="'ArialMT'" font-size="9.9399"> fill=</text>
	<text transform="matrix(1 0 0 1 565.4368 298.126)" fill="#1C7920" font-family="'ArialMT'" font-size="9.9399">&quot;freeze&quot;</text>
	<text transform="matrix(1 0 0 1 600.1174 298.126)" fill="#230AFE" font-family="'ArialMT'" font-size="9.9399">/&gt;</text>
	<text transform="matrix(1 0 0 1 50.1257 310.0547)" fill="#7F8C8D" font-family="'ArialMT'" font-size="9.9399">24</text>

		<text transform="matrix(1 0 0 1 61.1819 310.0547)" fill="#230AFE" font-family="'ArialMT'" font-size="9.9399" letter-spacing="14"> </text>
	<text transform="matrix(1 0 0 1 79.4329 310.0547)" fill="#230AFE" font-family="'ArialMT'" font-size="9.9399">    &lt;/text&gt;</text>
	<text transform="matrix(1 0 0 1 50.1257 321.9834)" fill="#7F8C8D" font-family="'ArialMT'" font-size="9.9399">25</text>

		<text transform="matrix(1 0 0 1 61.1819 321.9834)" fill="#230AFE" font-family="'ArialMT'" font-size="9.9399" letter-spacing="14"> </text>
	<text transform="matrix(1 0 0 1 79.4329 321.9834)" fill="#230AFE" font-family="'ArialMT'" font-size="9.9399">    &lt;text xlink:href=</text>
	<text transform="matrix(1 0 0 1 160.6458 321.9834)" fill="#1C7920" font-family="'ArialMT'" font-size="9.9399">&quot;#letras&quot;</text>
	<text transform="matrix(1 0 0 1 197.5359 321.9834)" fill="#230AFE" font-family="'ArialMT'" font-size="9.9399"> x=</text>
	<text transform="matrix(1 0 0 1 211.0706 321.9834)" fill="#1C7920" font-family="'ArialMT'" font-size="9.9399">&quot;452.032&quot;</text>
	<text transform="matrix(1 0 0 1 254.0598 321.9834)" fill="#230AFE" font-family="'ArialMT'" font-size="9.9399"> y=</text>
	<text transform="matrix(1 0 0 1 267.5969 321.9834)" fill="#1C7920" font-family="'ArialMT'" font-size="9.9399">&quot;419&quot;</text>
	<text transform="matrix(1 0 0 1 291.2366 321.9834)" fill="#230AFE" font-family="'ArialMT'" font-size="9.9399"> font-family=</text>
	<text transform="matrix(1 0 0 1 345.6487 321.9834)" fill="#1C7920" font-family="'ArialMT'" font-size="9.9399">&quot;&apos;NexaBold&apos;&quot;</text>
	<text transform="matrix(1 0 0 1 399.6008 321.9834)" fill="#230AFE" font-family="'ArialMT'" font-size="9.9399"> font-size=</text>
	<text transform="matrix(1 0 0 1 445.7327 321.9834)" fill="#1C7920" font-family="'ArialMT'" font-size="9.9399">&quot;42&quot;</text>
	<text transform="matrix(1 0 0 1 463.8469 321.9834)" fill="#230AFE" font-family="'ArialMT'" font-size="9.9399">&gt;Ñ</text>
	<text transform="matrix(1 0 0 1 50.1257 333.9102)" fill="#7F8C8D" font-family="'ArialMT'" font-size="9.9399">26</text>

		<text transform="matrix(1 0 0 1 61.1819 333.9102)" fill="#230AFE" font-family="'ArialMT'" font-size="9.9399" letter-spacing="14"> </text>
	<text transform="matrix(1 0 0 1 79.4329 333.9102)" fill="#230AFE" font-family="'ArialMT'" font-size="9.9399">      &lt;animateTransform attributeName=</text>
	<text transform="matrix(1 0 0 1 253.4558 333.9102)" fill="#1C7920" font-family="'ArialMT'" font-size="9.9399">&quot;transform&quot;</text>
	<text transform="matrix(1 0 0 1 302.4885 333.9102)" fill="#230AFE" font-family="'ArialMT'" font-size="9.9399"> type=</text>
	<text transform="matrix(1 0 0 1 329.845 333.9102)" fill="#1C7920" font-family="'ArialMT'" font-size="9.9399">&quot;translate&quot;</text>
	<text transform="matrix(1 0 0 1 375.0237 333.9102)" fill="#230AFE" font-family="'ArialMT'" font-size="9.9399"> from=</text>
	<text transform="matrix(1 0 0 1 403.4719 333.9102)" fill="#1C7920" font-family="'ArialMT'" font-size="9.9399">&quot;-60&quot;</text>
	<text transform="matrix(1 0 0 1 424.8938 333.9102)" fill="#230AFE" font-family="'ArialMT'" font-size="9.9399"> to=</text>
	<text transform="matrix(1 0 0 1 441.7502 333.9102)" fill="#1C7920" font-family="'ArialMT'" font-size="9.9399">&quot;0&quot;</text>
	<text transform="matrix(1 0 0 1 454.3342 333.9102)" fill="#230AFE" font-family="'ArialMT'" font-size="9.9399"> begin=</text>
	<text transform="matrix(1 0 0 1 487.2239 333.9102)" fill="#1C7920" font-family="'ArialMT'" font-size="9.9399">&quot;0s&quot;</text>
	<text transform="matrix(1 0 0 1 504.7776 333.9102)" fill="#230AFE" font-family="'ArialMT'" font-size="9.9399"> dur=</text>
	<text transform="matrix(1 0 0 1 527.7092 333.9102)" fill="#1C7920" font-family="'ArialMT'" font-size="9.9399">&quot;4s&quot;</text>
	<text transform="matrix(1 0 0 1 545.2649 333.9102)" fill="#230AFE" font-family="'ArialMT'" font-size="9.9399"> repeatCount=</text>
	<text transform="matrix(1 0 0 1 608.5413 333.9102)" fill="#1C7920" font-family="'ArialMT'" font-size="9.9399">&quot;1&quot;</text>
	<text transform="matrix(1 0 0 1 621.1252 333.9102)" fill="#230AFE" font-family="'ArialMT'" font-size="9.9399">/&gt;</text>
	<text transform="matrix(1 0 0 1 50.1257 345.8379)" fill="#7F8C8D" font-family="'ArialMT'" font-size="9.9399">27</text>

		<text transform="matrix(1 0 0 1 61.1819 345.8379)" fill="#230AFE" font-family="'ArialMT'" font-size="9.9399" letter-spacing="14"> </text>
	<text transform="matrix(1 0 0 1 79.4329 345.8379)" fill="#230AFE" font-family="'ArialMT'" font-size="9.9399">      &lt;animateTransform attributeName=</text>
	<text transform="matrix(1 0 0 1 253.4558 345.8379)" fill="#1C7920" font-family="'ArialMT'" font-size="9.9399">&quot;transform&quot;</text>
	<text transform="matrix(1 0 0 1 302.4885 345.8379)" fill="#230AFE" font-family="'ArialMT'" font-size="9.9399"> type=</text>
	<text transform="matrix(1 0 0 1 329.845 345.8379)" fill="#1C7920" font-family="'ArialMT'" font-size="9.9399">&quot;translate&quot;</text>
	<text transform="matrix(1 0 0 1 375.0237 345.8379)" fill="#230AFE" font-family="'ArialMT'" font-size="9.9399"> from=</text>
	<text transform="matrix(1 0 0 1 403.4719 345.8379)" fill="#1C7920" font-family="'ArialMT'" font-size="9.9399">&quot;0&quot;</text>
	<text transform="matrix(1 0 0 1 416.0559 345.8379)" fill="#230AFE" font-family="'ArialMT'" font-size="9.9399"> to=</text>
	<text transform="matrix(1 0 0 1 432.9124 345.8379)" fill="#1C7920" font-family="'ArialMT'" font-size="9.9399">&quot;50&quot;</text>
	<text transform="matrix(1 0 0 1 451.0256 345.8379)" fill="#230AFE" font-family="'ArialMT'" font-size="9.9399"> begin=</text>
	<text transform="matrix(1 0 0 1 483.9124 345.8379)" fill="#1C7920" font-family="'ArialMT'" font-size="9.9399">&quot;12s&quot;</text>
	<text transform="matrix(1 0 0 1 506.9963 345.8379)" fill="#230AFE" font-family="'ArialMT'" font-size="9.9399"> dur=</text>
	<text transform="matrix(1 0 0 1 529.929 345.8379)" fill="#1C7920" font-family="'ArialMT'" font-size="9.9399">&quot;4s&quot;</text>
	<text transform="matrix(1 0 0 1 547.4827 345.8379)" fill="#230AFE" font-family="'ArialMT'" font-size="9.9399"> fill=</text>
	<text transform="matrix(1 0 0 1 565.4368 345.8379)" fill="#1C7920" font-family="'ArialMT'" font-size="9.9399">&quot;freeze&quot;</text>
	<text transform="matrix(1 0 0 1 600.1174 345.8379)" fill="#230AFE" font-family="'ArialMT'" font-size="9.9399">/&gt;</text>
	<text transform="matrix(1 0 0 1 50.1257 357.7656)" fill="#7F8C8D" font-family="'ArialMT'" font-size="9.9399">28</text>

		<text transform="matrix(1 0 0 1 61.1819 357.7656)" fill="#230AFE" font-family="'ArialMT'" font-size="9.9399" letter-spacing="14"> </text>
	<text transform="matrix(1 0 0 1 79.4329 357.7656)" fill="#230AFE" font-family="'ArialMT'" font-size="9.9399">    &lt;/text&gt;</text>
	<text transform="matrix(1 0 0 1 50.1257 369.6934)" fill="#7F8C8D" font-family="'ArialMT'" font-size="9.9399">29</text>

		<text transform="matrix(1 0 0 1 61.1819 369.6934)" fill="#230AFE" font-family="'ArialMT'" font-size="9.9399" letter-spacing="14"> </text>
	<text transform="matrix(1 0 0 1 79.4329 369.6934)" fill="#230AFE" font-family="'ArialMT'" font-size="9.9399">&lt;/svg&gt;</text>
</g>
<g id="Capa_6">
	<g>
		<polygon fill="#868686" points="3,23.3 3,28.2 7,25.7 		"/>
		<polygon fill="#868686" points="3,33.7 3,38.5 7,36.1 		"/>
		<polygon fill="#868686" points="3,43.9 3,48.8 7,46.4 		"/>
	</g>
	<text transform="matrix(1 0 0 1 9.0261 26.9707)" fill="#868686" font-family="'MyriadPro-Regular'" font-size="4.9699">svg</text>
	<text transform="matrix(1 0 0 1 47.1643 10.2607)" fill="#E6E6E6" font-family="'MyriadPro-Regular'" font-size="4.9699">killthepixel.svg</text>
	<text transform="matrix(1 0 0 1 9.0261 37.6348)" fill="#868686" font-family="'MyriadPro-Regular'" font-size="4.9699">animate</text>
	<text transform="matrix(1 0 0 1 9.0261 47.8359)" fill="#868686" font-family="'MyriadPro-Regular'" font-size="4.9699">defs</text>
</g>
</svg>
