
<svg version="1.1" id="Capa_2" xmlns="http://www.w3.org/2000/svg" xmlns:xlink="http://www.w3.org/1999/xlink" x="0px" y="0px"
	 width="538.6px" height="270.6px" viewBox="0 0 538.6 270.6" enable-background="new 0 0 538.6 270.6" xml:space="preserve">
<rect x="0" y="0" fill="#2C3E50" stroke="#000000" stroke-miterlimit="10" width="538.6" height="270.6"/>
<g id="twitter">
	<g>
		<circle fill="#EF395F" cx="34.977" cy="130.577" r="10.377"/>
		<path fill="#FFFFFF" d="M40.619,129.151c0,0-2.334-6.486-5.772-0.779c-0.324,0-5.383-1.945-5.383-1.945s3.243,5.772,3.437,5.967
			c0.26,1.362-5.317,0.843-5.317,0.843s4.54,3.502,8.95,2.334c2.14,0,4.734-5.188,4.734-5.188l1.492-0.519L40.619,129.151z"/>
	</g>
</g>
<g id="pinterest">
	<circle fill="#EF395F" cx="393.695" cy="130.772" r="10.377"/>
	<path fill="#FFFFFF" d="M391.361,130.448c-0.195,0.778-1.104,4.864-1.104,4.864v3.373c0,0,2.335-2.79,2.4-5.449
		c-0.324-0.13,5.188,3.957,7.199-4.021c0-0.973,0-1.427,0-1.751c-3.826-10.377-17.512-0.713-10.248,4.67c0,0,0.39-0.843,0.584-1.232
		c-0.584-0.065-2.918-6.421,4.605-6.485c7.004,2.075-0.389,12.452-1.492,6.55c0,0,0.778-2.399,0.778-2.659
		C394.279,124.74,390.388,126.815,391.361,130.448z"/>
</g>
<g id="google_plus">
	<circle fill="#EF395F" cx="465.426" cy="130.772" r="10.377"/>
	<g>
		<path fill="#FFFFFF" d="M466.009,125.843c0.13,0.065,0.195,0.195,0.39,0.324c0.194,0.13,0.259,0.26,0.389,0.454
			s0.26,0.39,0.324,0.648c0.065,0.26,0.13,0.519,0.13,0.843c0,0.324-0.064,0.584-0.13,0.843c-0.064,0.259-0.194,0.454-0.324,0.649
			c-0.13,0.194-0.259,0.389-0.454,0.519c-0.194,0.13-0.324,0.324-0.519,0.454c-0.13,0.129-0.194,0.259-0.324,0.389
			s-0.13,0.26-0.13,0.454c0,0.195,0.065,0.325,0.13,0.454c0.13,0.129,0.194,0.195,0.26,0.259l0.648,0.454
			c0.194,0.13,0.389,0.324,0.519,0.454c0.194,0.13,0.324,0.324,0.454,0.519c0.13,0.195,0.26,0.389,0.324,0.649
			c0.065,0.26,0.13,0.519,0.13,0.778c0,0.389-0.13,0.778-0.26,1.167c-0.129,0.389-0.454,0.714-0.843,1.038
			c-0.39,0.324-0.843,0.519-1.427,0.713c-0.584,0.195-1.232,0.26-1.945,0.26c-0.648,0-1.168-0.064-1.622-0.194
			s-0.843-0.324-1.167-0.52c-0.324-0.259-0.519-0.519-0.714-0.778c-0.129-0.259-0.194-0.583-0.194-0.907s0.065-0.648,0.26-1.038
			c0.194-0.389,0.519-0.713,1.037-1.038c0.26-0.13,0.519-0.259,0.844-0.389c0.324-0.065,0.584-0.195,0.908-0.259
			c0.324-0.065,0.584-0.065,0.843-0.13c0.26,0,0.519-0.064,0.714-0.064c-0.13-0.13-0.26-0.324-0.324-0.52
			c-0.13-0.194-0.195-0.389-0.195-0.648c0-0.129,0-0.259,0.065-0.389c0.064-0.065,0.064-0.195,0.13-0.325c-0.065,0-0.195,0-0.26,0
			s-0.194,0-0.26,0c-0.454,0-0.843-0.064-1.232-0.259c-0.324-0.129-0.648-0.325-0.908-0.583c-0.26-0.26-0.454-0.519-0.519-0.843
			c-0.13-0.325-0.194-0.649-0.194-0.973c0-0.39,0.064-0.778,0.259-1.232c0.194-0.389,0.454-0.778,0.844-1.103
			c0.519-0.389,1.038-0.649,1.557-0.779c0.519-0.129,1.037-0.194,1.491-0.194h3.503l-1.104,0.584h-1.103V125.843z M466.657,135.7
			c0-0.194-0.064-0.389-0.129-0.583c-0.065-0.195-0.195-0.324-0.324-0.52c-0.13-0.194-0.324-0.324-0.584-0.519
			s-0.519-0.389-0.843-0.648c-0.065,0-0.13,0-0.194,0c-0.065,0-0.13,0-0.195,0c-0.064,0-0.129,0-0.259,0s-0.26,0-0.454,0.065
			c-0.194,0.064-0.324,0.064-0.519,0.064c-0.195,0.065-0.39,0.065-0.584,0.13c-0.065,0.065-0.194,0.065-0.39,0.195
			c-0.194,0.064-0.324,0.194-0.519,0.324c-0.13,0.13-0.324,0.324-0.39,0.519c-0.13,0.194-0.194,0.454-0.194,0.778
			c0,0.648,0.26,1.103,0.843,1.491c0.52,0.39,1.298,0.584,2.206,0.584c0.843,0,1.427-0.194,1.88-0.519
			C466.463,136.739,466.657,136.219,466.657,135.7z M464.129,130.642c0.194,0,0.454-0.064,0.648-0.13
			c0.194-0.064,0.389-0.194,0.519-0.324c0.194-0.194,0.324-0.389,0.389-0.648c0.065-0.259,0.065-0.454,0.065-0.583
			c0-0.324-0.065-0.648-0.13-1.038c-0.065-0.389-0.26-0.713-0.39-1.037c-0.194-0.324-0.389-0.584-0.648-0.778
			c-0.259-0.195-0.583-0.325-0.907-0.325c-0.26,0-0.454,0.065-0.648,0.13c-0.194,0.13-0.39,0.259-0.52,0.389
			c-0.129,0.194-0.259,0.389-0.324,0.584c-0.064,0.194-0.064,0.454-0.064,0.648c0,0.259,0.064,0.583,0.13,0.973
			c0.064,0.389,0.194,0.713,0.389,0.973c0.195,0.324,0.39,0.583,0.648,0.778C463.415,130.577,463.74,130.642,464.129,130.642z"/>
	</g>
	<g>
		<path fill="#FFFFFF" d="M473.533,128.177h-2.465v2.4h-0.778v-2.4h-2.399v-0.778h2.399v-2.4h0.778v2.4h2.399v0.778H473.533z"/>
	</g>
</g>
<circle fill="#EF395F" cx="501.097" cy="130.772" r="10.377"/>
<polygon id="codepen2" fill="none" stroke="#FFFFFF" stroke-width="2" stroke-linejoin="round" points="501.227,124.416
	494.741,128.697 501.227,133.106 507.841,128.697 "/>
<g transform="translate(0,15)">
	<polygon id="codepen2_1_" fill="none" stroke="#FFFFFF" stroke-width="2" stroke-linejoin="round" points="501.227,113.437
		494.741,117.652 501.227,122.063 507.841,117.652 	"/>
</g>
<line fill="none" stroke="#FFFFFF" stroke-width="2" x1="501.227" y1="124.416" x2="501.227" y2="129.021"/>
<line fill="none" stroke="#FFFFFF" stroke-width="2" x1="501.227" y1="133.106" x2="501.227" y2="136.479"/>
<line fill="none" stroke="#FFFFFF" stroke-width="2" x1="494.741" y1="128.697" x2="494.741" y2="132.458"/>
<line fill="none" stroke="#FFFFFF" stroke-width="2" x1="507.841" y1="128.697" x2="507.841" y2="132.458"/>
<g id="forrst">
	<circle fill="#EF395F" cx="429.561" cy="130.772" r="10.377"/>
	<polygon fill="#FFFFFF" points="422.751,136.284 428.264,136.284 428.264,129.799 430.209,129.799 430.209,136.284 436.37,136.284
		429.625,122.146 	"/>
	<line fill="none" stroke="#EF395F" stroke-miterlimit="10" x1="426.967" y1="132.134" x2="428.977" y2="133.625"/>
	<line fill="none" stroke="#EF395F" stroke-miterlimit="10" x1="430.144" y1="132.199" x2="431.7" y2="130.577"/>
	<line fill="none" stroke="#EF395F" stroke-miterlimit="10" x1="430.144" y1="134.014" x2="432.933" y2="132.004"/>
</g>
<g id="RSS">
	<circle fill="#EF395F" cx="286.034" cy="131.679" r="10.377"/>
	<g>
		<path fill="#FFFFFF" d="M280.392,125.907c0,0,10.506-0.648,11.545,11.025c0.713,0-2.271,0-2.271,0s0.454-9.274-9.274-8.95
			C280.392,127.269,280.392,125.907,280.392,125.907z"/>
		<circle fill="#FFFFFF" cx="282.597" cy="135.052" r="1.946"/>
		<path fill="#FFFFFF" d="M280.392,129.151c0,0,7.135-0.649,7.848,7.782c0.519,0-1.945,0-1.945,0s0-6.355-5.838-6.291
			C280.392,130.123,280.392,129.151,280.392,129.151z"/>
	</g>
</g>
<g id="deviantart">
	<circle fill="#EF395F" cx="357.765" cy="130.772" r="10.377"/>
	<g>
		<path fill="#FFFFFF" d="M358.933,132.782l-1.816-3.501l0.778-0.195h1.491l1.104,1.687c0,0,2.529-0.39,2.529-0.584
			c-1.168-2.075-6.681-1.362-6.681-1.362l2.271,4.216l-7.913,2.205c0,0-2.595-5.447,3.048-6.939
			c-0.129-0.26-0.648-1.427-0.648-1.427l1.816-0.519l0.778,1.297c0,0,9.729-1.103,11.479,2.983
			C367.882,130.382,358.933,132.782,358.933,132.782z"/>
		<path fill="#EF395F" d="M355.43,131.874l-2.595,0.778c0,0-0.193-2.853,1.298-3.047C354.263,129.539,355.43,131.874,355.43,131.874
			z"/>
	</g>
</g>
<g id="flickr">
	<circle fill="#EF395F" cx="250.169" cy="131.031" r="10.377"/>
	<circle fill="#FFFFFF" cx="246.602" cy="131.031" r="3.243"/>
	<circle fill="#FFFFFF" cx="254.385" cy="131.031" r="3.243"/>
</g>
<g id="vimeo">
	<circle fill="#EF395F" cx="321.9" cy="131.031" r="10.377"/>
	<g>
		<path fill="#FFFFFF" d="M328.515,128.177c-0.064,1.297-0.973,3.113-2.789,5.448c-1.881,2.399-3.438,3.632-4.734,3.632
			c-0.778,0-1.491-0.714-2.01-2.205c-0.39-1.362-0.714-2.659-1.104-4.021c-0.389-1.492-0.842-2.205-1.297-2.205
			c-0.129,0-0.453,0.195-1.037,0.649l-0.649-0.843c0.649-0.584,1.362-1.168,2.011-1.751c0.908-0.778,1.557-1.167,2.011-1.233
			c1.038-0.129,1.687,0.649,1.945,2.14c0.26,1.687,0.454,2.724,0.519,3.114c0.324,1.362,0.648,2.075,1.039,2.075
			c0.258,0,0.713-0.453,1.297-1.361c0.583-0.908,0.907-1.557,0.907-2.076c0.065-0.778-0.194-1.167-0.907-1.167
			c-0.324,0-0.648,0.065-1.039,0.195c0.649-2.205,1.946-3.243,3.828-3.178C327.931,125.518,328.645,126.427,328.515,128.177z"/>
	</g>
</g>
<g id="facebook">
	<circle fill="#EF395F" cx="70.842" cy="130.966" r="10.377"/>
	<path fill="#FFFFFF" d="M68.962,138.165v-6.939h-1.297v-2.724h1.167v-3.048c0,0,0.26-1.557,2.01-1.491c0.13,0,3.178,0,3.178,0
		v2.789h-1.946v1.751h1.946v2.529h-1.881v7.07L68.962,138.165L68.962,138.165z"/>
</g>
<g id="linkedin">
	<circle fill="#EF395F" cx="106.708" cy="131.031" r="10.377"/>
	<g>
		<path fill="#FFFFFF" d="M103.27,126.556c0,0.713-0.519,1.231-1.362,1.231c-0.778,0-1.297-0.583-1.297-1.231
			c0-0.714,0.519-1.233,1.297-1.233C102.751,125.323,103.27,125.907,103.27,126.556z M100.676,136.803v-7.977h2.465v7.977H100.676z"
			/>
		<path fill="#FFFFFF" d="M105.151,131.355c0-0.973,0-1.816-0.064-2.529h2.14l0.13,1.103h0.064c0.324-0.52,1.103-1.297,2.464-1.297
			c1.622,0,2.854,1.102,2.854,3.438v4.734h-2.464v-4.41c0-1.038-0.39-1.751-1.233-1.751c-0.713,0-1.103,0.454-1.297,0.908
			c-0.064,0.195-0.064,0.389-0.064,0.649v4.604h-2.465v-5.448H105.151z"/>
	</g>
</g>
<g id="behance">
	<circle fill="#EF395F" cx="142.573" cy="131.031" r="10.377"/>
	<g>
		<rect x="134.985" y="126.232" fill="#FFFFFF" width="2.14" height="9.404"/>
		<rect x="137.06" y="126.232" fill="#FFFFFF" width="2.854" height="1.686"/>
		<rect x="137.06" y="134.014" fill="#FFFFFF" width="2.854" height="1.686"/>
		<rect x="137.06" y="130.058" fill="#FFFFFF" width="2.854" height="1.427"/>
		<path fill="#FFFFFF" d="M139.849,135.7c0,0,2.983,0.065,2.983-2.789c0,0,0.13-2.334-1.75-2.334c0,0,1.426-0.13,1.426-1.816
			c0-1.686-1.167-2.529-2.659-2.529c-1.491,0-1.427,0.843-1.427,0.843l1.038,0.843h0.324c0,0,0.648,0,0.648,0.973
			c0,0.973-0.389,1.103-0.843,1.103c-0.454,0-0.583,0.713-0.583,0.713l0.778,0.713c0,0,0.973,0,0.973,1.297
			c0,1.297-1.038,1.232-1.297,1.232c-0.26,0-0.195,0.648-0.195,0.648L139.849,135.7z"/>
		<path fill="#FFFFFF" d="M146.853,128.632c-3.631,0-3.631,3.632-3.631,3.632s-0.26,3.631,3.631,3.631c0,0,3.243,0.195,3.243-2.529
			h-1.686c0,0,0.064,1.038-1.492,1.038c0,0-1.687,0.13-1.687-1.622h4.864C150.161,132.718,150.68,128.632,146.853,128.632z
			 M145.232,131.485c0,0,0.194-1.427,1.687-1.427c1.492,0,1.426,1.427,1.426,1.427H145.232z"/>
		<rect x="144.843" y="126.815" fill="#FFFFFF" width="3.892" height="1.168"/>
	</g>
</g>
<g id="dribbble">
	<circle fill="#EF395F" cx="178.438" cy="131.031" r="10.377"/>
	<g>
		<circle fill="none" stroke="#FFFFFF" stroke-width="2" stroke-miterlimit="10" cx="178.568" cy="131.096" r="6.875"/>
		<path fill="none" stroke="#FFFFFF" stroke-width="2" stroke-miterlimit="10" d="M181.876,137.127
			c-0.778-6.161-6.356-12.128-6.356-12.128"/>
		<path fill="none" stroke="#FFFFFF" stroke-width="2" stroke-miterlimit="10" d="M171.823,130.058
			c7.847,1.622,10.961-4.345,10.961-4.345"/>
		<path fill="none" stroke="#FFFFFF" stroke-width="2" stroke-miterlimit="10" d="M173.444,135.7
			c3.956-6.355,11.999-4.28,11.999-4.28"/>
	</g>
</g>
<g id="mail">
	<circle fill="#EF395F" cx="214.303" cy="131.031" r="10.377"/>
	<g>

			<rect x="208.207" y="126.815" fill="none" stroke="#FFFFFF" stroke-width="1.5" stroke-miterlimit="10" width="12.193" height="8.497"/>
		<polyline fill="none" stroke="#FFFFFF" stroke-width="1.5" stroke-miterlimit="10" points="208.207,126.815 214.303,131.355
			220.4,126.815 		"/>

			<line fill="none" stroke="#FFFFFF" stroke-width="1.5" stroke-miterlimit="10" x1="220.4" y1="135.312" x2="215.925" y2="130.123"/>

			<line fill="none" stroke="#FFFFFF" stroke-width="1.5" stroke-miterlimit="10" x1="208.207" y1="135.312" x2="212.747" y2="130.123"/>
	</g>
</g>
</svg>
