<svg xmlns="http://www.w3.org/2000/svg" xmlns:xlink="http://www.w3.org/1999/xlink" version="1.1" width="312.326px" height="221.388px" viewBox="0 0 312.326 221.388">

<defs>
    <path id="L" fill="#FFFFFF" d="M118.714,194.683c-5.46,0.74-9.392,0.6-11.793-0.423c-2.401-1.023-3.872-3.519-4.409-7.49l-5.74-42.375 l9.361-1.268l5.737,42.365c0.284,2.103,0.72,3.271,1.309,3.509c0.454,0.415,2.044,0.435,4.774,0.066l10.063-1.362l0.761,5.613 L118.714,194.683z"/>
    <g id="letras">
      <path d="M54.476,52.049c-0.589,0.179-1.232,0.41-1.916,0.64c-0.688,0.252-1.703,0.634-3.051,1.166 c-9.593,3.747-16.172,8.622-19.725,14.594c-3.542,5.97-3.864,12.675-0.958,20.106c2.941,7.504,7.734,12.251,14.394,14.228 c6.665,1.981,14.798,1.105,24.387-2.657c1.351-0.528,2.379-0.941,3.065-1.234c0.685-0.296,1.305-0.539,1.84-0.757l7.935,20.295 l-2.278,0.889c-7.66,2.994-14.583,5.014-20.799,6.044c-6.208,1.034-11.762,1.088-16.663,0.165 c-8.021-1.562-15.009-4.79-20.97-9.673c-5.951-4.884-10.396-11.066-13.314-18.535c-2.922-7.483-3.852-15-2.806-22.583 c1.052-7.581,4.015-14.675,8.888-21.283c2.974-3.998,7.093-7.728,12.351-11.195c5.264-3.442,11.718-6.673,19.39-9.673l2.27-0.885 L54.476,52.049z"/>
      <path d="M237.154,66.987c1.364,10.236-0.193,18.165-4.699,23.788c-4.511,5.62-12.091,9.146-22.764,10.57 l-22.477,3.045l1.836-21.688l17.461-2.328c3.105-0.421,5.345-1.514,6.707-3.278c1.375-1.753,1.842-4.177,1.441-7.234 l-8.008-59.849l22.479-3.02L237.154,66.987z"/>
      <path d="M237.545,72.233c1.756,2.297,3.637,3.601,5.665,3.902c2.016,0.302,4.142-0.402,6.393-2.107l12.582-9.596 l12.045,15.79l-12.858,9.806c-7.686,5.861-14.811,8.356-21.349,7.501c-6.547-0.867-12.742-5.153-18.613-12.844L237.545,72.233z"/>
      <path d="M59.822,92.199c-0.69-5.097-0.396-10.061,0.891-14.894c1.283-4.833,3.486-9.344,6.617-13.538 c3.113-4.082,6.809-7.376,11.111-9.878c4.299-2.499,8.98-4.092,14.053-4.779c5.063-0.685,10.025-0.377,14.877,0.911 c4.846,1.305,9.292,3.508,13.343,6.617c4.011,3.089,7.265,6.805,9.771,11.136c2.508,4.335,4.104,9.068,4.801,14.206 c0.701,5.183,0.426,10.202-0.833,15.086c-1.261,4.875-3.41,9.316-6.457,13.332c-3.073,4.111-6.771,7.437-11.096,9.976 c-4.333,2.543-9.036,4.156-14.1,4.84c-5.029,0.683-9.957,0.372-14.771-0.929c-4.818-1.304-9.287-3.521-13.406-6.659 c-4.132-3.207-7.455-6.964-9.975-11.261C62.125,102.059,60.52,97.34,59.822,92.199 M78.543,89.556 c0.746,5.521,3.238,9.962,7.51,13.315c4.256,3.364,9.012,4.693,14.261,3.981c5.252-0.711,9.446-3.247,12.618-7.59 c3.16-4.357,4.363-9.309,3.611-14.854c-0.75-5.542-3.217-9.979-7.404-13.301c-4.188-3.314-8.916-4.624-14.194-3.909 c-5.315,0.721-9.562,3.253-12.749,7.582C79.012,79.117,77.796,84.043,78.543,89.556"/>
      <path d="M131.067,81.16c-0.665-4.919-0.382-9.691,0.847-14.345c1.236-4.647,3.357-8.995,6.368-13.026 c2.993-3.928,6.558-7.097,10.696-9.51c4.134-2.402,8.65-3.931,13.52-4.591c4.885-0.662,9.656-0.373,14.324,0.873 s8.951,3.372,12.847,6.364c3.862,2.976,6.997,6.54,9.401,10.711c2.418,4.177,3.957,8.735,4.625,13.687 c0.674,4.975,0.41,9.818-0.807,14.516c-1.201,4.692-3.277,8.967-6.213,12.827c-2.955,3.961-6.516,7.157-10.685,9.605 c-4.169,2.442-8.688,3.993-13.575,4.655c-4.832,0.654-9.576,0.356-14.207-0.894c-4.637-1.257-8.939-3.386-12.908-6.409 c-3.975-3.088-7.174-6.704-9.6-10.845C133.282,90.64,131.737,86.099,131.067,81.16 M149.078,78.607 c0.719,5.309,3.121,9.58,7.224,12.815c4.101,3.236,8.681,4.513,13.72,3.83c5.054-0.684,9.102-3.119,12.16-7.308 c3.035-4.188,4.191-8.948,3.468-14.29c-0.723-5.338-3.095-9.609-7.126-12.803c-4.025-3.196-8.578-4.449-13.668-3.76 c-5.109,0.692-9.203,3.125-12.258,7.299C149.53,68.564,148.359,73.297,149.078,78.607"/>
    </g>
  </defs>

    <path fill="#751114" d="M304,109 c2-17-10-30-21-30 c3,3,8,15,5,53"/>
    <rect fill="#751114" width="300" height="75" rx="9px" transform="rotate(-8)" x="-15" y="144"/>
    <path fill="#FFFFFF" d="M58.145,206.665l-25.021-53.649l9.562-1.285l11.599,27.114l4.285-29.293l9.246-1.235L58.145,206.665z"/>
    <path fill="#FFFFFF" d="M81.858,199.674l-7.083-52.3l9.244-1.252l7.082,52.298L81.858,199.674z"/>
    <use xlink:href="#L" transform="rotate(000)"/>
    <use xlink:href="#L" transform="translate(29,-4)"/>
    <use xlink:href="#letras" fill="#000"/>
    <use xlink:href="#letras" fill="#F48220" transform="translate(-1,-4)"/>
    <path fill="#FFFFFF" d="M185.871,185.587l-1.473-10.88l-11.117,1.505l1.475,10.88l-9.127,1.237l-1.473-10.88l-8.074,1.093 l-6.111-4.653l13.457-1.822l-3.662-27.03c-0.454-3.352,0.539-6.147,2.976-8.385c2.438-2.237,5.957-3.666,10.56-4.289 c4.682-0.636,8.394-0.184,11.146,1.35c2.748,1.535,4.352,3.979,4.804,7.333l5.865,43.291L185.871,185.587z M180.008,142.296 c-0.243-1.792-0.82-2.989-1.736-3.577c-0.912-0.591-2.424-0.746-4.529-0.46c-1.949,0.264-3.306,0.807-4.07,1.623 c-0.765,0.817-1.021,2.127-0.781,3.919l3.662,27.028l11.115-1.505L180.008,142.296z"/>
    <path fill="#FFFFFF" d="M227.396,179.009c-6.613-1.326-12.23-3.505-16.852-6.532c-6.281-4.156-9.865-9.508-10.753-16.058 c-0.865-6.397,1.108-12.345,5.923-17.841c3.737-4.082,8.574-7.675,14.508-10.783c4.135-2.305,6.865-3.551,8.192-3.729l0.81,5.967 c-0.705,0.095-2.607,0.988-5.715,2.68c-4.138,2.306-7.535,5.069-10.195,8.291c-3.451,4.439-4.838,9.155-4.162,14.148 c0.676,4.989,3.559,9.284,8.654,12.883c1.751,1.195,4.264,2.446,7.539,3.748l-2.439-18.017l9.359-1.268l3.756,27.728 C235.006,180.363,232.131,179.957,227.396,179.009z"/>
    <path fill="#FFFFFF" d="M264.61,174.923c-8.345,1.131-12.915-1.229-13.706-7.079l-0.285-2.104l-8.073,1.092l-6.112-4.652 l13.455-1.823l-4.879-36.036l26.443-3.581l0.76,5.614l-17.317,2.346l4.12,30.422l17.318-2.346l0.73,5.384l-17.318,2.346 l0.427,3.156c0.189,1.406,1.416,1.956,3.678,1.649l13.924-1.887l0.762,5.615L264.61,174.923z"/>
</svg>