
<svg version="1.1" id="fondo" xmlns="http://www.w3.org/2000/svg" xmlns:xlink="http://www.w3.org/1999/xlink" x="0px" y="0px"
	 width="595.3px" height="299px" viewBox="0 271.4 595.3 299" enable-background="new 0 271.4 595.3 299" xml:space="preserve">
<rect x="-0.4" y="271.4" fill="#E0E6E4" width="595.3" height="299"/>
<polygon fill="#04D5F9" points="234.2,406.1 227.6,397.4 251.1,387 270.6,412.1 247.5,409.4 252.1,415.2 213.2,413.2 "/>
<polygon fill="#06CEF9" points="255.9,429.8 245.8,460.2 235.2,439.3 232.9,446.4 213.2,413.2 230.6,426.4 233.9,416 "/>
<polygon fill="#09AEF7" points="213.2,413.5 196.7,448.8 203.5,447 192.4,467.4 223.3,458.7 222.3,432.6 212.1,435.6 "/>
<polygon fill="#0D92F6" points="213.2,413.5 193,423.7 200.5,431.2 178.7,444.8 155.7,422.4 179.2,422.3 173.8,416.6 "/>
<polygon fill="#0D8CF6" points="213.2,413.5 193.8,401.6 191.4,411.9 168.2,400.2 175.2,369.1 187.6,388.6 189.3,381.5 "/>
<polyline fill="#09B3F8" points="234.9,359.7 223.4,379.9 230.4,377.9 213.4,413.5 215,390.8 204.7,393.8 204,367.8 234.9,359.7 "/>
<line fill="none" stroke="#107CF5" stroke-miterlimit="10" x1="278.6" y1="444.5" x2="458.7" y2="444.5"/>
<line fill="none" stroke="#107CF5" stroke-miterlimit="10" x1="278.6" y1="380.3" x2="458.7" y2="380.3"/>
<g>
	<path fill="#FF7A00" d="M308.5,428.6h-29.7l16.4-30.7h-16.4v-7.7h29.7L292.2,421h16.3V428.6L308.5,428.6z"/>
	<path fill="#FF7A00" d="M321,428.6h-7.7v-38.3h15.3c1.4,0,2.8,0.2,4.1,0.5c1.3,0.4,2.5,0.9,3.6,1.6c1.1,0.7,2.2,1.5,3.1,2.4
		c0.9,0.9,1.7,2,2.4,3.1c0.7,1.1,1.2,2.4,1.5,3.7c0.4,1.3,0.5,2.7,0.5,4.1c0,1.3-0.2,2.6-0.5,3.8s-0.8,2.4-1.4,3.6
		c-0.6,1.1-1.4,2.2-2.3,3.1c-0.9,0.9-1.9,1.8-3,2.5l4.2,10h-8.2l-3.3-7.7H321V428.6z M321,398v15.3h7.7c1.1,0,2-0.2,3-0.6
		c0.9-0.4,1.7-0.9,2.4-1.6c0.7-0.7,1.2-1.5,1.6-2.4c0.4-0.9,0.6-1.9,0.6-3c0-1.1-0.2-2-0.6-3c-0.4-1-0.9-1.8-1.6-2.4
		c-0.7-0.6-1.5-1.2-2.4-1.6c-0.9-0.4-1.9-0.6-3-0.6L321,398L321,398z"/>
	<path fill="#FF7A00" d="M356.6,428.6H349v-38.3h7.7v15.3H372v-15.3h7.7v38.3H372v-15.3h-15.3L356.6,428.6L356.6,428.6z"/>
	<path fill="#FF7A00" d="M424.3,409.6c0,1.8-0.2,3.6-0.7,5.3c-0.5,1.7-1.1,3.3-2,4.7c-0.9,1.5-1.9,2.8-3.1,4c-1.2,1.2-2.5,2.2-4,3.1
		c-1.5,0.9-3,1.5-4.7,2c-1.7,0.5-3.4,0.7-5.3,0.7c-1.8,0-3.6-0.2-5.3-0.7s-3.3-1.1-4.7-2c-1.5-0.9-2.8-1.9-4-3.1
		c-1.2-1.2-2.2-2.6-3.1-4c-0.9-1.5-1.5-3-2-4.7c-0.5-1.7-0.7-3.4-0.7-5.3c0-1.8,0.2-3.6,0.7-5.3s1.1-3.3,2-4.7
		c0.9-1.5,1.9-2.8,3.1-4c1.2-1.2,2.6-2.2,4-3.1c1.5-0.9,3-1.5,4.7-2s3.4-0.7,5.3-0.7c1.8,0,3.6,0.2,5.3,0.7c1.7,0.5,3.3,1.1,4.7,2
		c1.5,0.9,2.8,1.9,4,3.1c1.2,1.2,2.2,2.5,3.1,4c0.9,1.5,1.5,3,2,4.7C424,406,424.3,407.8,424.3,409.6z M416.7,409.6
		c0-1.7-0.3-3.3-1-4.7c-0.6-1.5-1.5-2.8-2.6-3.9s-2.4-2-3.9-2.6c-1.5-0.6-3.1-1-4.7-1c-1.7,0-3.3,0.3-4.8,1
		c-1.5,0.6-2.8,1.5-3.9,2.6c-1.1,1.1-2,2.4-2.6,3.9c-0.6,1.5-1,3.1-1,4.7c0,1.7,0.3,3.2,1,4.7c0.6,1.5,1.5,2.8,2.6,3.9
		c1.1,1.1,2.4,2,3.9,2.6c1.5,0.6,3.1,1,4.8,1c1.7,0,3.3-0.3,4.7-1c1.4-0.7,2.8-1.5,3.9-2.6c1.1-1.1,2-2.4,2.6-3.9
		C416.3,412.9,416.7,411.3,416.7,409.6z"/>
	<path fill="#FF7A00" d="M444.2,428.6h-7.6V398H425v-7.7h30.6v7.7h-11.5L444.2,428.6L444.2,428.6z"/>
</g>
</svg>
