<?xml version="1.0" encoding="utf-8"?>
<!-- Generator: Adobe Illustrator 16.0.0, SVG Export Plug-In . SVG Version: 6.00 Build 0)  -->
<!DOCTYPE svg PUBLIC "-//W3C//DTD SVG 1.1//EN" "http://www.w3.org/Graphics/SVG/1.1/DTD/svg11.dtd">
<svg version="1.1" id="Capa_1" xmlns="http://www.w3.org/2000/svg" xmlns:xlink="http://www.w3.org/1999/xlink" x="0px" y="0px"
	 width="72px" height="274px" viewBox="385.445 160.14 72 274" enable-background="new 385.445 160.14 72 274" xml:space="preserve"
	>
<circle fill="#EF395F" cx="421" cy="233.976" r="16.445"/>
<circle fill="#EF395F" cx="421.308" cy="276.663" r="16.445"/>
<circle fill="#EF395F" cx="421.385" cy="319.158" r="16.445"/>
<circle fill="#EF395F" cx="421.184" cy="361.742" r="16.445"/>
<circle fill="#EF395F" cx="420.987" cy="404.767" r="16.445"/>
<circle fill="#EF395F" cx="420.554" cy="190.726" r="16.446"/>
<path fill="#FFFFFF" d="M428.924,188.206c0,0-3.595-10.042-8.862-1.183c-0.491,0-8.318-2.954-8.318-2.954s5.023,8.862,5.317,9.156
	c0.354,2.055-8.222,1.33-8.222,1.33s6.99,5.366,13.834,3.593c3.348,0,7.335-7.975,7.335-7.975l2.265-0.837L428.924,188.206z"/>
<path fill="#FFFFFF" d="M418.106,245.072V234.36h-2.004v-4.146h1.797v-4.7c0,0,0.433-2.424,3.101-2.281c0.158,0,4.916,0,4.916,0
	v4.285h-3.04v2.696h3.04v3.938h-2.901v10.919H418.106z"/>
<g>
	<path fill="#FFFFFF" d="M416.018,269.748c0,1.058-0.781,1.915-2.065,1.915c-1.209,0-1.99-0.856-1.99-1.915
		c0-1.083,0.807-1.915,2.041-1.915C415.239,267.833,415.993,268.665,416.018,269.748z M412.063,285.493v-12.319h3.829v12.319
		H412.063z"/>
	<path fill="#FFFFFF" d="M418.963,277.104c0-1.537-0.05-2.82-0.101-3.93h3.326l0.177,1.713h0.075c0.504-0.806,1.738-1.99,3.804-1.99
		c2.521,0,4.409,1.688,4.409,5.315v7.281h-3.829v-6.827c0-1.587-0.555-2.67-1.939-2.67c-1.059,0-1.688,0.729-1.965,1.436
		c-0.102,0.252-0.126,0.604-0.126,0.958v7.104h-3.831V277.104L418.963,277.104z"/>
</g>
<g>
	<rect x="409.657" y="311.73" fill="#FFFFFF" width="3.335" height="14.546"/>
	<rect x="412.868" y="311.73" fill="#FFFFFF" width="4.358" height="2.585"/>
	<rect x="412.868" y="323.691" fill="#FFFFFF" width="4.358" height="2.585"/>
	<rect x="412.868" y="317.562" fill="#FFFFFF" width="4.358" height="2.241"/>
	<path fill="#FFFFFF" d="M417.226,326.276c0,0,4.621,0.146,4.621-4.293c0,0,0.202-3.612-2.725-3.612c0,0,2.221-0.165,2.221-2.768
		c0-2.604-1.817-3.873-4.117-3.873s-2.18,1.293-2.18,1.293l1.635,1.292h0.545c0,0,1.028,0,1.028,1.514s-0.604,1.733-1.291,1.733
		s-0.948,1.12-0.948,1.12l1.211,1.121c0,0,1.533-0.021,1.533,1.998c0,2.018-1.614,1.89-2.019,1.89s-0.283,1.036-0.283,1.036
		L417.226,326.276z"/>
	<path fill="#FFFFFF" d="M428.01,315.432c-5.594,0-5.589,5.588-5.589,5.588s-0.385,5.561,5.589,5.561c0,0,4.978,0.284,4.978-3.866
		h-2.56c0,0,0.085,1.562-2.333,1.562c0,0-2.561,0.171-2.561-2.53h7.537C433.072,321.745,433.897,315.432,428.01,315.432z
		 M425.508,319.804c0,0,0.312-2.241,2.56-2.241s2.219,2.241,2.219,2.241H425.508z"/>
	<rect x="424.882" y="312.587" fill="#FFFFFF" width="6.001" height="1.792"/>
</g>
<g>
	<circle fill="none" stroke="#FFFFFF" stroke-width="2" stroke-miterlimit="10" cx="421.184" cy="361.741" r="10.576"/>
	<path fill="none" stroke="#FFFFFF" stroke-width="2" stroke-miterlimit="10" d="M426.289,371.005
		c-1.192-9.506-9.813-18.729-9.813-18.729"/>
	<path fill="none" stroke="#FFFFFF" stroke-width="2" stroke-miterlimit="10" d="M410.751,360.044
		c12.125,2.519,16.897-6.672,16.897-6.672"/>
	<path fill="none" stroke="#FFFFFF" stroke-width="2" stroke-miterlimit="10" d="M413.281,368.761
		c6.116-9.771,18.479-6.584,18.479-6.584"/>
</g>
<g>
	
		<rect x="411.582" y="398.203" fill="none" stroke="#FFFFFF" stroke-width="1.5" stroke-miterlimit="10" width="18.812" height="13.126"/>
	<polyline fill="none" stroke="#FFFFFF" stroke-width="1.5" stroke-miterlimit="10" points="411.582,398.203 421.013,405.185 
		430.393,398.203 	"/>
	
		<line fill="none" stroke="#FFFFFF" stroke-width="1.5" stroke-miterlimit="10" x1="430.393" y1="411.329" x2="423.479" y2="403.35"/>
	
		<line fill="none" stroke="#FFFFFF" stroke-width="1.5" stroke-miterlimit="10" x1="411.582" y1="411.329" x2="418.534" y2="403.35"/>
</g>
</svg>
