<svg version="1.1" xmlns="http://www.w3.org/2000/svg" xmlns:xlink="http://www.w3.org/1999/xlink" x="0px" y="0px" width="32px" height="32px" viewBox="0 0 32 32">
<g id="vimeo">
	<circle fill="cyan" cx="16" cy="16" r="16"/>
	<path fill="#FFFFFF" d="M26.2,11.6c-0.1,2-1.5,4.8-4.3,8.4c-2.9,3.7-5.3,5.6-7.3,5.6c-1.2,0-2.3-1.1-3.1-3.4 c-0.6-2.1-1.1-4.1-1.7-6.2c-0.6-2.3-1.3-3.4-2-3.4c-0.2,0-0.7,0.3-1.6,1l-1-1.3c1-0.9,2.1-1.8,3.1-2.7c1.4-1.2,2.4-1.8,3.1-1.9 c1.6-0.2,2.6,1,3,3.3c0.4,2.6,0.7,4.2,0.8,4.8c0.5,2.1,1,3.2,1.6,3.2c0.4,0,1.1-0.7,2-2.1c0.9-1.4,1.4-2.4,1.4-3.2 c0.1-1.2-0.3-1.8-1.4-1.8c-0.5,0-1,0.1-1.6,0.3c1-3.4,3-5,5.9-4.9C25.3,7.5,26.4,8.9,26.2,11.6z"/>
</g>
</svg>