<svg xmlns="http://www.w3.org/2000/svg" viewBox="0 0 595.3 299">
	<rect fill="#45BCD2" width="595.3" height="299"/>
	<polygon fill="#D5A420" points="656.7,1 631.1,45.4 605.5,1"/>
	<polygon fill="#F0DBA5" points="579.9,45.4 554.4,89.7 528.8,45."/>
	<polygon fill="#E7C267" points="554.4,89.7 579.9,45.4 605.5,89."/>
	<polygon fill="#E1AF11" points="631.1,45.4 605.5,89.7 579.9,45."/>
	<polygon fill="#DEAC12" points="605.5,89.7 631.1,45.4 656.7,89."/>
	<polygon fill="#E1AF11" points="682.3,45.4 656.7,89.7 631.1,45."/>
	<polygon fill="#E7C36B" points="656.7,89.7 682.3,45.4 707.9,89."/>
	<polygon fill="#F1DCA9" points="733.5,45.4 707.9,89.7 682.3,45."/>
	<polygon fill="#EDC44F" points="554.4,89.7 528.8,134 503.2,89."/>
	<polygon fill="#E8BA2B" points="528.8,134 554.4,89.7 579.9,13"/>
	<polygon fill="#EEBE0F" points="605.5,89.7 579.9,134 554.4,89."/>
	<polygon fill="#EAB90C" points="579.9,134 605.5,89.7 631.1,13"/>
	<polygon fill="#EEBE11" points="656.7,89.7 631.1,134 605.5,89."/>
	<polygon fill="#EAB90C" points="631.1,134 656.7,89.7 682.3,13"/>
	<polygon fill="#EEBE0F" points="707.9,89.7 682.3,134 656.7,89."/>
	<polygon fill="#E9BC2F" points="682.3,134 707.9,89.7 733.5,13"/>
	<polygon fill="#EFC754" points="759.1,89.7 733.5,134 707.9,89."/>
	<polygon fill="#F3E0AC" points="452,178.3 477.6,134 503.2,178."/>
	<polygon fill="#EFC122" points="528.8,134 503.2,178.3 477.6,13"/>
	<polygon fill="#EFC120" points="503.2,178.3 528.8,134 554.4,178."/>
	<polygon fill="#F0C538" points="579.9,134 554.4,178.3 528.8,13"/>
	<polygon fill="#F0C432" points="554.4,178.3 579.9,134 605.5,178."/>
	<polygon fill="#F0C744" points="631.1,134 605.5,178.3 579.9,13"/>
	<polygon fill="#F0C537" points="605.5,178.3 631.1,134 656.7,178."/>
	<polygon fill="#EFC746" points="682.3,134 656.7,178.3 631.1,13"/>
	<polygon fill="#F0C42F" points="656.7,178.3 682.3,134 707.9,178."/>
	<polygon fill="#F0C537" points="733.5,134 707.9,178.3 682.3,13"/>
	<polygon fill="#EFC11C" points="707.9,178.3 733.5,134 759.1,178."/>
	<polygon fill="#EFC122" points="784.7,134 759.1,178.3 733.5,13"/>
	<polygon fill="#F3E1B0" points="759.1,178.3 784.7,134 810.3,178."/>
	<polygon fill="#F3DA95" points="452,178.3 426.4,222.7 400.8,178."/>
	<polygon fill="#F1CC5E" points="426.4,222.7 452,178.3 477.6,222."/>
	<polygon fill="#F0C63A" points="503.2,178.3 477.6,222.7 452,178."/>
	<polygon fill="#EFC63E" points="477.6,222.7 503.2,178.3 528.8,222."/>
	<polygon fill="#F0CC55" points="554.4,178.3 528.8,222.7 503.2,178."/>
	<polygon fill="#F0CC54" points="528.8,222.7 554.4,178.3 579.9,222."/>
	<polygon fill="#F2D268" points="605.5,178.3 579.9,222.7 554.4,178."/>
	<polygon fill="#F0CF61" points="579.9,222.7 605.5,178.3 631.1,222."/>
	<polygon fill="#CABA6E" points="656.7,178.3 631.1,222.7 605.5,178."/>
	<polygon fill="#688367" points="631.1,222.7 656.7,178.3 682.3,222."/>
	<polygon fill="#3D7565" points="707.9,178.3 682.3,222.7 656.7,178."/>
	<polygon fill="#D7BB58" points="682.3,222.7 707.9,178.3 733.5,222."/>
	<polygon fill="#D7BC59" points="759.1,178.3 733.5,222.7 707.9,178."/>
	<polygon fill="#EFC63C" points="733.5,222.7 759.1,178.3 784.7,222."/>
	<polygon fill="#F0C538" points="810.3,178.3 784.7,222.7 759.1,178."/>
	<polygon fill="#F1CC61" points="784.7,222.7 810.3,178.3 835.9,222."/>
	<polygon fill="#F3DB9A" points="861.5,178.3 835.9,222.7 810.3,178."/>
	<polygon fill="#F0C53A" points="426.4,222.7 400.8,267 375.2,222."/>
	<polygon fill="#F0C433" points="400.8,267 426.4,222.7 452,26"/>
	<polygon fill="#F0C847" points="477.6,222.7 452,267 426.4,222."/>
	<polygon fill="#F0CB51" points="452,267 477.6,222.7 503.2,26"/>
	<polygon fill="#D69943" points="528.8,222.7 503.2,267 477.6,222."/>
	<polygon fill="#CC893A" points="503.2,267 528.8,222.7 554.4,26"/>
	<polygon fill="#DAAE5F" points="579.9,222.7 554.4,267 528.8,222."/>
	<polygon fill="#F1D880" points="554.4,267 579.9,222.7 605.5,26"/>
	<polygon fill="#EDD98C" points="631.1,222.7 605.5,267 579.9,222."/>
	<polygon fill="#8C9B78" points="605.5,267 631.1,222.7 656.7,26"/>
	<polygon fill="#196F68" points="682.3,222.7 656.7,267 631.1,222."/>
	<polygon fill="#096C64" points="656.7,267 682.3,222.7 707.9,26"/>
	<polygon fill="#00675E" points="733.5,222.7 707.9,267 682.3,222."/>
	<polygon fill="#386B5B" points="707.9,267 733.5,222.7 759.1,26"/>
	<polygon fill="#386655" points="784.7,222.7 759.1,267 733.5,222."/>
	<polygon fill="#D7B952" points="759.1,267 784.7,222.7 810.3,26"/>
	<polygon fill="#D7B84B" points="835.9,222.7 810.3,267 784.7,222."/>
	<polygon fill="#F0C433" points="810.3,267 835.9,222.7 861.5,26"/>
	<polygon fill="#F0C53D" points="887.1,222.7 861.5,267 835.9,222."/>
	<polygon fill="#F1D892" points="324,311.3 349.6,267 375.2,311."/>
	<polygon fill="#EEBE14" points="400.8,267 375.2,311.3 349.6,26"/>
	<polygon fill="#F0C22A" points="375.2,311.3 400.8,267 426.4,311."/>
	<polygon fill="#EFC34A" points="452,267 426.4,311.3 400.8,26"/>
	<polygon fill="#ECC157" points="426.4,311.3 452,267 477.6,311."/>
	<polygon fill="#C3613A" points="503.2,267 477.6,311.3 452,26"/>
	<polygon fill="#B54E28" points="477.6,311.3 503.2,267 528.8,311."/>
	<polygon fill="#A83E1D" points="554.4,267 528.8,311.3 503.2,26"/>
	<polygon fill="#B97136" points="528.8,311.3 554.4,267 579.9,311."/>
	<polygon fill="#EDD48F" points="605.5,267 579.9,311.3 554.4,26"/>
	<polygon fill="#DDD296" points="579.9,311.3 605.5,267 631.1,311."/>
	<polygon fill="#26746C" points="656.7,267 631.1,311.3 605.5,26"/>
	<polygon fill="#196F68" points="631.1,311.3 656.7,267 682.3,311."/>
	<polygon fill="#096C64" points="707.9,267 682.3,311.3 656.7,26"/>
	<polygon fill="#00675E" points="682.3,311.3 707.9,267 733.5,311."/>
	<polygon fill="#056158" points="759.1,267 733.5,311.3 707.9,26"/>
	<polygon fill="#015B51" points="733.5,311.3 759.1,267 784.7,311."/>
	<polygon fill="#06554B" points="810.3,267 784.7,311.3 759.1,26"/>
	<polygon fill="#385D49" points="784.7,311.3 810.3,267 835.9,311."/>
	<polygon fill="#8B8549" points="861.5,267 835.9,311.3 810.3,26"/>
	<polygon fill="#F0C228" points="835.9,311.3 861.5,267 887.1,311."/>
	<polygon fill="#EEBE14" points="912.7,267 887.1,311.3 861.5,26"/>
	<polygon fill="#F1D898" points="887.1,311.3 912.7,267 938.3,311."/>
	<polygon fill="#E7C777" points="324,311.3 298.4,355.7 272.8,311."/>
	<polygon fill="#E7BC46" points="298.4,355.7 324,311.3 349.6,355."/>
	<polygon fill="#ECBA11" points="375.2,311.3 349.6,355.7 324,311."/>
	<polygon fill="#EFC120" points="349.6,355.7 375.2,311.3 400.8,355."/>
	<polygon fill="#EAB451" points="426.4,311.3 400.8,355.7 375.2,311."/>
	<polygon fill="#DD8F5A" points="400.8,355.7 426.4,311.3 452,355."/>
	<polygon fill="#CC6949" points="477.6,311.3 452,355.7 426.4,311."/>
	<polygon fill="#C15936" points="452,355.7 477.6,311.3 503.2,355."/>
	<polygon fill="#B34A26" points="528.8,311.3 503.2,355.7 477.6,311."/>
	<polygon fill="#A83E1D" points="503.2,355.7 528.8,311.3 554.4,355."/>
	<polygon fill="#98371B" points="579.9,311.3 554.4,355.7 528.8,311."/>
	<polygon fill="#D1A468" points="554.4,355.7 579.9,311.3 605.5,355."/>
	<polygon fill="#7A9580" points="631.1,311.3 605.5,355.7 579.9,311."/>
	<polygon fill="#22736C" points="605.5,355.7 631.1,311.3 656.7,355."/>
	<polygon fill="#196F68" points="682.3,311.3 656.7,355.7 631.1,311."/>
	<polygon fill="#096C64" points="656.7,355.7 682.3,311.3 707.9,355."/>
	<polygon fill="#00675E" points="733.5,311.3 707.9,355.7 682.3,311."/>
	<polygon fill="#056158" points="707.9,355.7 733.5,311.3 759.1,355."/>
	<polygon fill="#015B51" points="784.7,311.3 759.1,355.7 733.5,311."/>
	<polygon fill="#06554B" points="759.1,355.7 784.7,311.3 810.3,355."/>
	<polygon fill="#7A8057" points="835.9,311.3 810.3,355.7 784.7,311."/>
	<polygon fill="#D7B954" points="810.3,355.7 835.9,311.3 861.5,355."/>
	<polygon fill="#F0C73E" points="887.1,311.3 861.5,355.7 835.9,311."/>
	<polygon fill="#EFC11C" points="861.5,355.7 887.1,311.3 912.7,355."/>
	<polygon fill="#ECBA0A" points="938.3,311.3 912.7,355.7 887.1,311."/>
	<polygon fill="#E7BC48" points="912.7,355.7 938.3,311.3 963.8,355."/>
	<polygon fill="#E8CA7C" points="989.4,311.3 963.8,355.7 938.3,311."/>
	<polygon fill="#D7A725" points="298.4,355.7 272.8,400 247.2,355."/>
	<polygon fill="#DEAC16" points="272.8,400 298.4,355.7 324,40"/>
	<polygon fill="#E4B40C" points="349.6,355.7 324,400 298.4,355."/>
	<polygon fill="#ECBC10" points="324,400 349.6,355.7 375.2,40"/>
	<polygon fill="#F0C228" points="400.8,355.7 375.2,400 349.6,355."/>
	<polygon fill="#EFC348" points="375.2,400 400.8,355.7 426.4,40"/>
	<polygon fill="#E19E5C" points="452,355.7 426.4,400 400.8,355."/>
	<polygon fill="#CC6949" points="426.4,400 452,355.7 477.6,40"/>
	<polygon fill="#C15936" points="503.2,355.7 477.6,400 452,355."/>
	<polygon fill="#B34A26" points="477.6,400 503.2,355.7 528.8,40"/>
	<polygon fill="#A83E1D" points="554.4,355.7 528.8,400 503.2,355."/>
	<polygon fill="#98371B" points="528.8,400 554.4,355.7 579.9,40"/>
	<polygon fill="#804C2F" points="605.5,355.7 579.9,400 554.4,355."/>
	<polygon fill="#457A6F" points="579.9,400 605.5,355.7 631.1,40"/>
	<polygon fill="#22736C" points="656.7,355.7 631.1,400 605.5,355."/>
	<polygon fill="#196F68" points="631.1,400 656.7,355.7 682.3,40"/>
	<polygon fill="#096C64" points="707.9,355.7 682.3,400 656.7,355."/>
	<polygon fill="#00675E" points="682.3,400 707.9,355.7 733.5,40"/>
	<polygon fill="#056158" points="759.1,355.7 733.5,400 707.9,355."/>
	<polygon fill="#015B51" points="733.5,400 759.1,355.7 784.7,40"/>
	<polygon fill="#818A64" points="810.3,355.7 784.7,400 759.1,355."/>
	<polygon fill="#DDC56C" points="784.7,400 810.3,355.7 835.9,40"/>
	<polygon fill="#F0CD5B" points="861.5,355.7 835.9,400 810.3,355."/>
	<polygon fill="#F0C743" points="835.9,400 861.5,355.7 887.1,40"/>
	<polygon fill="#F0C226" points="912.7,355.7 887.1,400 861.5,355."/>
	<polygon fill="#ECBB10" points="887.1,400 912.7,355.7 938.3,40"/>
	<polygon fill="#E4B30D" points="963.8,355.7 938.3,400 912.7,355."/>
	<polygon fill="#DEAC1A" points="938.3,400 963.8,355.7 989.4,40"/>
	<polygon fill="#D7A727" points="1015,355.7 989.4,400 963.8,355."/>
	<polygon fill="#E0BA5C" points="247.2,444.3 272.8,400 298.4,444."/>
	<polygon fill="#E0B132" points="324,400 298.4,444.3 272.8,40"/>
	<polygon fill="#E4B30D" points="298.4,444.3 324,400 349.6,444."/>
	<polygon fill="#ECBB10" points="375.2,400 349.6,444.3 324,40"/>
	<polygon fill="#F0C228" points="349.6,444.3 375.2,400 400.8,444."/>
	<polygon fill="#F0C743" points="426.4,400 400.8,444.3 375.2,40"/>
	<polygon fill="#EEC45C" points="400.8,444.3 426.4,400 452,444."/>
	<polygon fill="#D89254" points="477.6,400 452,444.3 426.4,40"/>
	<polygon fill="#C15936" points="452,444.3 477.6,400 503.2,444."/>
	<polygon fill="#B34A26" points="528.8,400 503.2,444.3 477.6,40"/>
	<polygon fill="#A83E1D" points="503.2,444.3 528.8,400 554.4,444."/>
	<polygon fill="#943F1F" points="579.9,400 554.4,444.3 528.8,40"/>
	<polygon fill="#686650" points="554.4,444.3 579.9,400 605.5,444."/>
	<polygon fill="#2C7670" points="631.1,400 605.5,444.3 579.9,40"/>
	<polygon fill="#22736C" points="605.5,444.3 631.1,400 656.7,444."/>
	<polygon fill="#196F68" points="682.3,400 656.7,444.3 631.1,40"/>
	<polygon fill="#096C64" points="656.7,444.3 682.3,400 707.9,444."/>
	<polygon fill="#00675E" points="733.5,400 707.9,444.3 682.3,40"/>
	<polygon fill="#056158" points="707.9,444.3 733.5,400 759.1,444."/>
	<polygon fill="#8F9670" points="784.7,400 759.1,444.3 733.5,40"/>
	<polygon fill="#E1CD80" points="759.1,444.3 784.7,400 810.3,444."/>
	<polygon fill="#F1D370" points="835.9,400 810.3,444.3 784.7,40"/>
	<polygon fill="#F0CD5A" points="810.3,444.3 835.9,400 861.5,444."/>
	<polygon fill="#F0C741" points="887.1,400 861.5,444.3 835.9,40"/>
	<polygon fill="#F0C226" points="861.5,444.3 887.1,400 912.7,444."/>
	<polygon fill="#ECBB0A" points="938.3,400 912.7,444.3 887.1,40"/>
	<polygon fill="#E4B30D" points="912.7,444.3 938.3,400 963.8,444."/>
	<polygon fill="#E0B237" points="989.4,400 963.8,444.3 938.3,40"/>
	<polygon fill="#E2BC61" points="963.8,444.3 989.4,400 1015,444."/>
	<polygon fill="#EAC974" points="349.6,444.3 324,488.7 298.4,444."/>
	<polygon fill="#EAB90C" points="324,488.7 349.6,444.3 375.2,488."/>
	<polygon fill="#EFC11A" points="400.8,444.3 375.2,488.7 349.6,444."/>
	<polygon fill="#F0C63C" points="375.2,488.7 400.8,444.3 426.4,488."/>
	<polygon fill="#F0CB50" points="452,444.3 426.4,488.7 400.8,444."/>
	<polygon fill="#EAC163" points="426.4,488.7 452,444.3 477.6,488."/>
	<polygon fill="#CE8044" points="503.2,444.3 477.6,488.7 452,444."/>
	<polygon fill="#B34A26" points="477.6,488.7 503.2,444.3 528.8,488."/>
	<polygon fill="#A83E1D" points="554.4,444.3 528.8,488.7 503.2,444."/>
	<polygon fill="#8C502F" points="528.8,488.7 554.4,444.3 579.9,488."/>
	<polygon fill="#327A74" points="605.5,444.3 579.9,488.7 554.4,444."/>
	<polygon fill="#2C7670" points="579.9,488.7 605.5,444.3 631.1,488."/>
	<polygon fill="#22736C" points="656.7,444.3 631.1,488.7 605.5,444."/>
	<polygon fill="#196F68" points="631.1,488.7 656.7,444.3 682.3,488."/>
	<polygon fill="#096C64" points="707.9,444.3 682.3,488.7 656.7,444."/>
	<polygon fill="#00675E" points="682.3,488.7 707.9,444.3 733.5,488."/>
	<polygon fill="#99A077" points="759.1,444.3 733.5,488.7 707.9,444."/>
	<polygon fill="#E5D288" points="733.5,488.7 759.1,444.3 784.7,488."/>
	<polygon fill="#F1D577" points="810.3,444.3 784.7,488.7 759.1,444."/>
	<polygon fill="#F2D268" points="784.7,488.7 810.3,444.3 835.9,488."/>
	<polygon fill="#F0CB50" points="861.5,444.3 835.9,488.7 810.3,444."/>
	<polygon fill="#F0C63A" points="835.9,488.7 861.5,444.3 887.1,488."/>
	<polygon fill="#EFBF18" points="912.7,444.3 887.1,488.7 861.5,444."/>
	<polygon fill="#EAB90C" points="887.1,488.7 912.7,444.3 938.3,488."/>
	<polygon fill="#EBCB78" points="963.8,444.3 938.3,488.7 912.7,444."/>
	<polygon fill="#EEBF22" points="349.6,533 375.2,488.7 400.8,53"/>
	<polygon fill="#EFC127" points="426.4,488.7 400.8,533 375.2,488."/>
	<polygon fill="#EFC643" points="400.8,533 426.4,488.7 452,53"/>
	<polygon fill="#C9A74D" points="477.6,488.7 452,533 426.4,488."/>
	<polygon fill="#DFB35A" points="452,533 477.6,488.7 503.2,53"/>
	<polygon fill="#AB6A36" points="528.8,488.7 503.2,533 477.6,488."/>
	<polygon fill="#A5401E" points="503.2,533 528.8,488.7 554.4,53"/>
	<polygon fill="#6B755F" points="579.9,488.7 554.4,533 528.8,488."/>
	<polygon fill="#357872" points="554.4,533 579.9,488.7 605.5,53"/>
	<polygon fill="#577565" points="631.1,488.7 605.5,533 579.9,488."/>
	<polygon fill="#27716A" points="605.5,533 631.1,488.7 656.7,53"/>
	<polygon fill="#507060" points="682.3,488.7 656.7,533 631.1,488."/>
	<polygon fill="#196A62" points="656.7,533 682.3,488.7 707.9,53"/>
	<polygon fill="#908F68" points="733.5,488.7 707.9,533 682.3,488."/>
	<polygon fill="#E1CD83" points="707.9,533 733.5,488.7 759.1,53"/>
	<polygon fill="#CAAF63" points="784.7,488.7 759.1,533 733.5,488."/>
	<polygon fill="#E9CA69" points="759.1,533 784.7,488.7 810.3,53"/>
	<polygon fill="#D4B14B" points="835.9,488.7 810.3,533 784.7,488."/>
	<polygon fill="#F0C741" points="810.3,533 835.9,488.7 861.5,53"/>
	<polygon fill="#EFC127" points="887.1,488.7 861.5,533 835.9,488."/>
	<polygon fill="#EEBF24" points="861.5,533 887.1,488.7 912.7,53"/>
	<polygon fill="#F2D279" points="375.2,577.3 400.8,533 426.4,577."/>
	<polygon fill="#F0C84B" points="452,533 426.4,577.3 400.8,53"/>
	<polygon fill="#F0C73F" points="426.4,577.3 452,533 477.6,577."/>
	<polygon fill="#F0C846" points="503.2,533 477.6,577.3 452,53"/>
	<polygon fill="#F0CF61" points="477.6,577.3 503.2,533 528.8,577."/>
	<polygon fill="#F1D063" points="554.4,533 528.8,577.3 503.2,53"/>
	<polygon fill="#F1D678" points="528.8,577.3 554.4,533 579.9,577."/>
	<polygon fill="#F1D576" points="605.5,533 579.9,577.3 554.4,53"/>
	<polygon fill="#F2DA85" points="579.9,577.3 605.5,533 631.1,577."/>
	<polygon fill="#F1D67B" points="656.7,533 631.1,577.3 605.5,53"/>
	<polygon fill="#F2DA85" points="631.1,577.3 656.7,533 682.3,577."/>
	<polygon fill="#F1D576" points="707.9,533 682.3,577.3 656.7,53"/>
	<polygon fill="#F1D578" points="682.3,577.3 707.9,533 733.5,577."/>
	<polygon fill="#F0CF62" points="759.1,533 733.5,577.3 707.9,53"/>
	<polygon fill="#F0CF61" points="733.5,577.3 759.1,533 784.7,577."/>
	<polygon fill="#F0C846" points="810.3,533 784.7,577.3 759.1,53"/>
	<polygon fill="#EFC63E" points="784.7,577.3 810.3,533 835.9,577."/>
	<polygon fill="#F0C84D" points="861.5,533 835.9,577.3 810.3,53"/>
	<polygon fill="#F3D47D" points="835.9,577.3 861.5,533 887.1,577."/>
	<polygon fill="#F3D991" points="477.6,577.3 452,621.7 426.4,577."/>
	<polygon fill="#F0C42E" points="452,621.7 477.6,577.3 503.2,621."/>
	<polygon fill="#F0C432" points="528.8,577.3 503.2,621.7 477.6,577."/>
	<polygon fill="#F0C94B" points="503.2,621.7 528.8,577.3 554.4,621."/>
	<polygon fill="#F0C847" points="579.9,577.3 554.4,621.7 528.8,577."/>
	<polygon fill="#F0CD5B" points="554.4,621.7 579.9,577.3 605.5,621."/>
	<polygon fill="#F0CC54" points="631.1,577.3 605.5,621.7 579.9,577."/>
	<polygon fill="#F0CF62" points="605.5,621.7 631.1,577.3 656.7,621."/>
	<polygon fill="#F0CC54" points="682.3,577.3 656.7,621.7 631.1,577."/>
	<polygon fill="#F0CD5B" points="656.7,621.7 682.3,577.3 707.9,621."/>
	<polygon fill="#F0C847" points="733.5,577.3 707.9,621.7 682.3,577."/>
	<polygon fill="#F0C94B" points="707.9,621.7 733.5,577.3 759.1,621."/>
	<polygon fill="#F0C42F" points="784.7,577.3 759.1,621.7 733.5,577."/>
	<polygon fill="#F0C32C" points="759.1,621.7 784.7,577.3 810.3,621."/>
	<polygon fill="#F2DA96" points="835.9,577.3 810.3,621.7 784.7,577."/>
	<polygon fill="#F7ECCB" points="810.3,621.7 835.9,577.3 861.5,621."/>
	<polygon fill="#F0C233" points="477.6,666 503.2,621.7 528.8,66"/>
	<polygon fill="#EEBF20" points="554.4,621.7 528.8,666 503.2,621."/>
	<polygon fill="#F0C329" points="528.8,666 554.4,621.7 579.9,66"/>
	<polygon fill="#EFC122" points="605.5,621.7 579.9,666 554.4,621."/>
	<polygon fill="#F0C435" points="579.9,666 605.5,621.7 631.1,66"/>
	<polygon fill="#F0C226" points="656.7,621.7 631.1,666 605.5,621."/>
	<polygon fill="#F0C435" points="631.1,666 656.7,621.7 682.3,66"/>
	<polygon fill="#EFC120" points="707.9,621.7 682.3,666 656.7,621."/>
	<polygon fill="#F0C22A" points="682.3,666 707.9,621.7 733.5,66"/>
	<polygon fill="#EEBF22" points="759.1,621.7 733.5,666 707.9,621."/>
	<polygon fill="#F0C337" points="733.5,666 759.1,621.7 784.7,66"/>
	<polygon fill="#F0D58E" points="503.2,710.3 528.8,666 554.4,710."/>
	<polygon fill="#E9C153" points="579.9,666 554.4,710.3 528.8,66"/>
	<polygon fill="#E9B90D" points="554.4,710.3 579.9,666 605.5,710."/>
	<polygon fill="#E6B30C" points="631.1,666 605.5,710.3 579.9,66"/>
	<polygon fill="#EABA0C" points="605.5,710.3 631.1,666 656.7,710."/>
	<polygon fill="#E6B30C" points="682.3,666 656.7,710.3 631.1,66"/>
	<polygon fill="#E9B90D" points="656.7,710.3 682.3,666 707.9,710."/>
	<polygon fill="#EAC258" points="733.5,666 707.9,710.3 682.3,66"/>
	<polygon fill="#F0D693" points="707.9,710.3 733.5,666 759.1,710."/>
	<polygon fill="#DDAB13" points="579.9,754.6 605.5,710.3 631.1,754."/>
	<polygon fill="#DAA815" points="656.7,710.3 631.1,754.6 605.5,710."/>
	<polygon fill="#DDAB13" points="631.1,754.6 656.7,710.3 682.3,754."/>
	<polygon fill="#DEBA64" points="605.5,799 631.1,754.6 656.7,79"/>
</svg>