<svg xmlns="http://www.w3.org/2000/svg" viewBox="0 0 595.3 299"><path fill="#E0E6E4" d="M.001 0h595.3v299h-595.3z"/><path fill="#5DCF95" d="M327.401 172c-3.601 2.8-8.101 4.5-13 4.5-11.601 0-21.001-9.301-21.001-21 0-11.7 9.4-21 21.001-21 5 0 9.5 1.699 13.1 4.6l-1.7 1.7c-3.2-2.4-7.1-3.9-11.399-3.9-10.301 0-18.601 8.3-18.601 18.5 0 10.3 8.3 18.5 18.601 18.5 3.899 0 7.6-1.2 10.6-3.3v-14.3h2.5l-.101 15.7zM352.501 135.1c7.1 0 12.3 4.3 12.3 11.1 0 6.301-4.5 10.4-10.7 11l12.1 18.8h-2.9l-12-18.7h-9.8v18.7h-2.4v-40.9h13.4zm0 19.799c5.6 0 9.8-3.3 9.8-8.7 0-5.399-4.3-8.699-9.8-8.699h-11v17.399h11zM376.801 135.1h2.5v40.9h-2.5v-40.9zM394.6 135.1l24.801 36.8v-36.8h2.5v40.9h-2.7l-24.8-36.9v36.9h-2.5v-40.9h2.699z"/><path d="M305.7 103.3c3.701 0 6.701 2.2 6.701 5.8 0 2.5-1.4 4.2-3.5 5.1 2.699.7 4.6 2.801 4.6 5.7 0 3.601-3 6.101-6.7 6.101h-8.7v-22.7h7.599zm-.1 10.399c3.101 0 5.4-1.6 5.4-4.5 0-2.899-2.4-4.5-5.4-4.5h-6.1v9.101l6.1-.101zm1.1 11c3.001 0 5.4-1.899 5.4-4.8 0-2.899-2.399-4.8-5.4-4.8h-7.199v9.7l7.199-.1zM320.1 103.3v21.399h11.801v1.301h-13.2v-22.7h1.399zM346.201 103.3l9.899 22.7h-1.5l-3.399-7.7h-11.7l-3.4 7.7h-1.5l9.9-22.7h1.7zm-.8 1.599l-5.301 12.101h10.601l-5.3-12.101zM379.201 123.8c-2.101 1.7-4.601 2.6-7.3 2.6-6.4 0-11.7-5.2-11.7-11.7s5.2-11.699 11.7-11.699c2.8 0 5.3 1 7.3 2.6l-.9.9c-1.8-1.4-4-2.2-6.3-2.2-5.7 0-10.3 4.6-10.3 10.3s4.6 10.3 10.3 10.3c2.4 0 4.5-.8 6.3-2.1l.9.999zM398.1 103.3l-7.6 8.7 9 14h-1.6l-8.301-13-3.699 4.3v8.7h-1.5v-22.7h1.399v12.1l10.601-12.2 1.7.1zM404.301 103.3h1.4v22.7h-1.4v-22.7zM426.301 103.3v1.3h-12.2v8.9h12.101v1.3h-12.102v9.899h12.301v1.301h-13.601v-22.7h13.501zM264.7 89.6h-64.3c-9.2 0-16.6 7.4-16.6 16.6v64.3c0 9.199 7.399 16.6 16.6 16.6h64.3c9.2 0 16.601-7.4 16.601-16.6v-64.301c-.101-9.199-7.5-16.599-16.601-16.599z"/><path opacity=".8" fill="#83E0B0" d="M219.2 104.1c-22.399 13.6-25.6 49.5-15.8 64.3 28.901-18.9 15.8-64.3 15.8-64.3z"/><path fill="#83E0B0" d="M247.7 119.3c-26.199 1.399-45.899 31.5-44.399 49.2 34.599-3.101 44.399-49.2 44.399-49.2z"/><path opacity=".8" fill="#83E0B0" d="M266.9 149.8c-23.1-12.5-55.6 2.7-63.6 18.6 31.001 15.6 63.6-18.6 63.6-18.6z"/></svg>