<svg xmlns="http://www.w3.org/2000/svg" viewBox="0 0 595.3 299"><path fill-rule="evenodd" clip-rule="evenodd" fill="#F39B15" d="M0 0h606v299h-606z"/><g fill="#1D1D1B"><path d="M135.3 187.8v-16.3c40-29.6 51.8-39.7 51.8-51.8 0-8.5-7.8-12.8-15.8-12.8-11.1 0-19.7 4.4-26.3 11.3l-11.9-13.8c9.5-11 24.1-16 37.7-16 20.8 0 37.4 11.7 37.4 31.2 0 16.7-13.8 31.2-39.2 49.7h39.9v18.3h-73.6zM221.4 139c0-25.2 12.5-50.4 40.5-50.4 27.9 0 40.5 25.2 40.5 50.4s-12.6 50.6-40.5 50.6c-28.1-.1-40.5-25.4-40.5-50.6zm59.7 0c0-18-5.3-32-19.2-32-14.1 0-19.4 13.9-19.4 32 0 18 5.3 32.1 19.4 32.1 13.9 0 19.2-14.1 19.2-32.1zM337.1 187.8v-71l-16.3 16.6-11.9-12.5 30.8-30.9h18.2v97.8h-20.8zM418 187.8v-20.2h-46.8v-16.4l38.9-61.2h28.7v59.2h12.6v18.3h-12.6v20.2h-20.8zm0-79.4l-26.4 40.8h26.4v-40.8z"/></g><g><path fill="#BF392A" d="M397.7 58.1l18.5-15.1 14.6 40.9h-19.5z"/><path fill="#159F84" d="M431.8 35.6l26.2 15.5-20 32.8h-21.3z"/></g></svg>