<svg xmlns="http://www.w3.org/2000/svg" width="235" height="126" viewBox="0 0 235 126"><path fill="#FFBFAD" d="M0 0h235v126h-235z"/><circle fill="#666" cx="41.2" cy="60.4" r="22.3"/><circle fill="#EAEBE4" cx="40.5" cy="59.3" r="22.3"/><path d="M40.5 61.2s0-.7-.1-1.8c0-.5-.1-1.1-.1-1.8l-.1-2.1-.1-2.1v-.9c0-.3 0-.6.1-.9 0-.3.1-.5.1-.7l.1-.6c.1-.3.1-.5.1-.5h.1s0 .2.1.5c0 .2.1.3.1.6 0 .2.1.4.1.7 0 .3 0 .6.1.9v.9l-.1 2.1c0 .7 0 1.4-.1 2.1 0 .7-.1 1.3-.1 1.8 0 1.1-.1 1.8-.1 1.8h-.1zM40.5 61.2s0-1.1-.1-2.8v-2.9l-.1-3.3c0-.6 0-1.1-.1-1.7v-4.5c0-.4 0-.8.1-1.1 0-.3.1-.7.1-.9 0-.5.1-.8.1-.8h.1s0 .3.1.8c0 .2.1.5.1.9 0 .3.1.7.1 1.1v6.2c0 1.1 0 2.2-.1 3.3v2.9c-.1 1.7-.2 2.8-.3 2.8z"/><circle fill="#fff" cx="40.5" cy="59.6" r=".9"/><path d="M37.9 41.7h.5v-2.3h-.5v-.6h1.2v2.9h.5v.6h-1.6l-.1-.6zM40 39.8c0-.7.7-1.1 1.3-1.1.7 0 1.4.3 1.4 1.1 0 .9-.7 1.1-1.4 1.1-.3 0-.7.1-.7.4v.3h2.1v.6h-2.8v-.9c0-.8.7-1 1.4-1 .2 0 .7 0 .7-.4s-.3-.6-.8-.6c-.3 0-.7.2-.7.5h-.5zM39.6 77.3v.5c.2-.2.5-.4.8-.4.7 0 1.4.3 1.4 1.1s-.7 1.1-1.4 1.1-1.4-.4-1.4-1.1v-1.3c0-.8.7-1.1 1.4-1.1s1.4.3 1.4 1h-.7c0-.3-.4-.4-.7-.4-.4.1-.8.3-.8.6zm1.6 1.3c0-.4-.3-.6-.8-.6-.4 0-.8.2-.8.6 0 .4.4.6.8.6s.8-.2.8-.6zM59.4 59.5v-.5h.5c.4 0 .7-.1.7-.4 0-.2-.2-.4-.7-.4-.3 0-.7.1-.7.4h-.7c0-.7.7-1 1.4-1s1.3.3 1.3 1.1c0 .3-.2.6-.5.7.3.1.6.4.6.7 0 .9-.8 1.1-1.5 1.1s-1.4-.3-1.4-1.1h.7c0 .4.5.5.8.5.3 0 .8-.1.8-.5 0-.2-.1-.4-.7-.4l-.6-.2zM22.3 60v-.5c-.2.2-.5.4-.8.4-.7 0-1.4-.3-1.4-1.1s.7-1.1 1.4-1.1 1.4.4 1.4 1.1v1.2c0 .8-.7 1.1-1.4 1.1s-1.4-.3-1.4-1h.7c0 .3.4.4.8.4.3 0 .7-.2.7-.5zm-1.6-1.3c0 .4.3.6.8.6.4 0 .8-.2.8-.6 0-.4-.4-.6-.8-.6s-.8.2-.8.6z"/><path fill="#6E959E" stroke="#E6E8D7" stroke-width="3" d="M85.3 22h117.9v78.9h-117.9z"/><path fill="#E6E8D7" d="M83.6 17h122.3v3.9h-122.3zM81.5 13.8h126.7v4.1h-126.7zM81.5 103.2h126.7v3.8h-126.7zM83.6 99.7h122.3v4.1h-122.3z"/><path fill="#D5635A" d="M91.6 72.5h11.9v26.2h-11.9zM173.4 98.7h-22.6v-30.8l22.6 4.6zM201.6 98.7h-26.2v-15.9l26.2-5.2zM124.6 75.4h21.8v23.3h-21.8zM128.7 50.7h13.6v24.7h-13.6zM104.9 56.5h11.9v42.2h-11.9z"/><path fill="#fff" stroke="#608074" stroke-width=".5" d="M92.3 73.2h2.2v2.2h-2.2zM100.3 76.1h2.2v2.2h-2.2zM97.8 76.1h2.2v2.2h-2.2zM95.1 76.1h2.2v2.2h-2.2zM108.2 57.6h2.2v2.2h-2.2zM105.6 57.6h2.2v2.2h-2.2zM108.2 60.1h2.2v2.2h-2.2zM105.6 60.1h2.2v2.2h-2.2zM92.3 78.7h2.2v2.2h-2.2zM94.9 73.4h7.5v2.2h-7.5zM113.3 63h2.2v2.2h-2.2zM110.7 63h2.2v2.2h-2.2z"/><path fill="#fff" stroke="#608074" d="M113.3 65.6h2.2v2.2h-2.2zM110.7 65.6h2.2v2.2h-2.2z"/><path fill="#fff" stroke="#608074" stroke-width=".5" d="M152.9 82.6h18v6.6h-18zM135.4 59.6h6.1v2.9h-6.1zM127.9 76.5h2.2v2.2h-2.2zM125.3 76.5h2.2v2.2h-2.2zM135.9 76.5h2.2v2.2h-2.2zM143.7 76.5h2.2v2.2h-2.2zM143.7 79.2h2.2v7.3h-2.2zM127.9 79.2h2.2v15h-2.2zM125.3 79.2h2.2v3.9h-2.2zM141.1 76.5h2.2v2.2h-2.2zM132.3 63.2h6.1v2.9h-6.1zM130.1 66.6h11.4v2.9h-11.4z"/><path fill="#D5635A" d="M130.3 50.7l5.1-8.9 5.1 8.9z"/><circle fill="#fff" stroke="#608074" stroke-width=".5" cx="135.4" cy="47.7" r="2.2"/><path fill="#fff" stroke="#608074" stroke-width=".5" d="M152.9 75.6h2.2v2.2h-2.2zM152.9 74.3h2.2v1h-2.2zM168.7 75.6h2.2v2.2h-2.2zM168.7 74.3h2.2v1h-2.2zM200.2 90.6c0 .5-.4.9-.9.9h-9.3c-.5 0-.9-.4-.9-.9v-4.9c0-.5.4-.9.9-.9h9.3c.5 0 .9.4.9.9v4.9zM187.8 90.6c0 .5-.4.9-.9.9h-9.3c-.5 0-.9-.4-.9-.9v-4.9c0-.5.4-.9.9-.9h9.3c.5 0 .9.4.9.9v4.9z"/><path fill="#fff" stroke="#608074" d="M105.6 68.3h4.8v4.8h-4.8z"/><path fill="#fff" stroke="#608074" stroke-width=".5" d="M97.6 81.7h2.2v2.2h-2.2zM95.1 81.7h2.2v2.2h-2.2zM92.3 81.7h2.2v2.2h-2.2zM176.8 83.5h23.4v-5.1z"/><circle fill="#F7931E" cx="111" cy="72.5" r="5.8"/><path fill="#F7931E" d="M110.8 65.3l.4.6.3.6h-1.2999999999999998l.3-.6zM112.7 65.5l.2.7.2.6-.7-.1-.6-.2.5-.5zM114.6 66.2v1.4l-.6-.3-.6-.3.6-.4zM116 67.3l-.1.7-.2.7-.4-.5-.6-.4.7-.2zM117.1 68.6l-.3.7-.2.5-.4-.5-.4-.5.7-.1zM117.9 70.1l-.4.6-.5.5-.2-.6-.3-.6h.7zM118.3 72l-.6.4-.6.3v-1.2999999999999998l.6.3zM103.6 72.2l.6.4.7.3v-1.2999999999999998l-.7.3zM103.8 74.1l.6.2.7.2-.2-.7-.1-.6-.5.4zM104.5 76h.7l.7-.1-.3-.5-.3-.6-.4.6zM105.6 77.4l.7-.1.6-.2-.4-.5-.4-.5-.3.7zM106.9 78.5l.6-.3.7-.2-.6-.5-.5-.3-.1.6zM108.4 79.3l.5-.5.6-.4-.6-.2-.6-.3v.7zM110.3 79.7l.3-.6.4-.6h-1.2999999999999998l.3.6zM109.2 65.5l-.2.7-.2.6.6-.1.7-.2-.5-.5zM107.3 66.2v1.4l.6-.3.6-.3-.6-.4zM105.8 67.3l.2.7.1.7.5-.5.5-.4-.6-.2zM104.7 68.8l.3.6.3.6.4-.5.4-.5-.7-.1zM104 70.3l.4.5.4.5.3-.5.2-.6h-.6zM118.1 73.8l-.7.2-.6.1.1-.6.2-.7.5.5zM117.5 75.6h-.7l-.7-.1.3-.5.4-.6.3.6zM116.5 77l-.7-.1-.6-.2.4-.5.5-.4.2.6zM115.2 78.3l-.6-.3-.7-.4.6-.3.5-.4.1.7zM113.7 79.1l-.5-.4-.6-.4.6-.3.6-.2-.1.7zM112 79.7l-.4-.5-.4-.6.6-.1.7-.1-.3.7zM87.3 31.7h1.7l.9.9h7s1.8 1.3 0 1.3h-7.7l-1.9-2.2zM90.3 31.7l1.6 2.2-1.6 1.2h1.3l2.4-1.6-2.4-1.8z"/><path fill="#fff" d="M137.1 35.5c-.9 0-9.6.2-9.8 0-5.3-2.2-1.3-6.8 1.1-6 .6-3.8 4.7-2.4 5-.4 2.4-1.5 4.2 1.8 3.3 2.6 3.5 0 1.8 4.2.4 3.8zM165.9 49c-.9 0-9.6.2-9.8 0-5.3-2.2-1.3-6.8 1.1-6 .6-3.8 4.7-2.4 5-.4 2.4-1.5 4.2 1.8 3.3 2.6 3.6 0 1.9 4.1.4 3.8z"/><path fill="#BDC3C7" d="M98.9 29.8l-.3-.4h-.5l.3-.4-.2-.5.5.2.4-.3v.5l.5.3-.5.1zM118.5 48.4l-.4-.5h-.4l.2-.4-.1-.5.5.2.4-.3v.5l.4.3-.5.2zM118.5 48.4l-.4-.5h-.4l.2-.4-.1-.5.5.2.4-.3v.5l.4.3-.5.2zM124.6 25.9l-.3-.4h-.5l.3-.4-.2-.5.5.2.4-.3v.5l.4.3-.4.1zM143.5 28l-.4-.5h-.4l.2-.4-.1-.5.5.2.4-.3v.5l.4.3-.5.2zM133.8 39.7l-.3-.4h-.5l.3-.4-.2-.5.5.2.4-.4v.6l.4.2-.5.2zM150.1 34.4l-.3-.4h-.5l.3-.4-.2-.5.5.2.5-.3-.1.5.5.3-.6.1zM165.6 35.6l-.3-.4h-.5l.2-.4-.1-.5.5.2.4-.3v.5l.4.3-.5.1zM147.9 43.8l-.3-.4h-.5l.3-.4-.2-.5.5.1.4-.3v.5l.4.3-.5.2zM184.8 30l-.3-.4h-.5l.3-.4-.2-.5.5.2.4-.3v.5l.4.3-.5.1zM176.8 43.1l-.3-.4h-.5l.3-.4-.2-.5.5.1.4-.2v.4l.4.4-.4.1zM187 38l-.3-.4h-.5l.3-.4-.2-.5.5.1.4-.2v.4l.4.4-.4.1zM173.4 27.8l-.3-.4h-.5l.3-.4-.2-.5.5.1.5-.3-.1.6.5.2-.6.2z"/></svg>