<svg xmlns="http://www.w3.org/2000/svg" viewBox="0 0 595.3 299"><path fill="#E0E6E4" d="M.001 0h595.3v299h-595.3z"/><path fill="#1BAEC4" d="M319.501 141.8h28.599l-14.699 15.099h6.699l-23.099 26.701 6.7-19.3h-9.8z"/><path fill="#098BA5" d="M313.901 138.6h36.899v-15.3c-.5-18.2-32-26.101-36.899 0"/><path fill="#EDF0EE" d="M322.6 129.3h19.301v-5.601c-1.601-9.399-17.4-10.1-19.301 0v5.601z"/><path fill="#085E79" d="M373.6 145.5h-4.1v-4.101h-8.2v4.101h-4.1v-12.301c0-1.1.2-2.199.6-3.199.4-1 1-1.9 1.8-2.601.7-.7 1.601-1.3 2.601-1.8 1-.4 2.1-.6 3.2-.6s2.199.199 3.199.6 1.9 1 2.601 1.8c.7.7 1.3 1.601 1.8 2.601.4 1 .6 2.1.6 3.199v12.301h-.001zm-4.099-8.2v-4.101c0-.6-.1-1.1-.3-1.6s-.5-.9-.9-1.3c-.399-.4-.8-.7-1.3-.9s-1-.3-1.6-.3c-.601 0-1.101.1-1.601.3s-.899.5-1.3.9c-.4.399-.7.8-.9 1.3-.199.5-.3 1-.3 1.6v4.101h8.201zM381.301 145.5h-4.1v-20.5h8.2c.8 0 1.5.1 2.199.3.7.2 1.301.5 2 .8.7.3 1.2.8 1.7 1.3s.9 1.101 1.3 1.7c.4.6.601 1.3.801 2 .199.7.3 1.4.3 2.2 0 .7-.101 1.399-.3 2.1-.2.7-.4 1.3-.801 1.9-.3.6-.699 1.2-1.199 1.7s-1 .899-1.601 1.3l2.3 5.399h-4.399l-1.8-4.1h-4.601v3.901h.001zm0-16.4v8.2h4.101c.6 0 1.1-.101 1.6-.3.5-.2.9-.5 1.3-.9s.7-.8.9-1.3.3-1 .3-1.601c0-.6-.101-1.1-.3-1.6-.2-.5-.5-.9-.9-1.3-.399-.4-.8-.7-1.3-.9s-1-.3-1.6-.3h-4.101v.001zM412.401 145.5h-4.101v-4.101h-8.2v4.101h-4.1v-12.301c0-1.1.2-2.199.6-3.199.4-1 1-1.9 1.8-2.601.7-.7 1.601-1.3 2.601-1.8 1-.4 2.1-.6 3.2-.6s2.2.199 3.2.6 1.899 1 2.6 1.8c.7.7 1.3 1.601 1.8 2.601.4 1 .601 2.1.601 3.199v12.301h-.001zm-4.1-8.2v-4.101c0-.6-.1-1.1-.3-1.6s-.5-.9-.9-1.3c-.399-.4-.8-.7-1.3-.9s-1-.3-1.6-.3c-.601 0-1.101.1-1.601.3s-.899.5-1.3.9c-.399.399-.7.8-.899 1.3-.2.5-.301 1-.301 1.6v4.101h8.201zM432.301 143.399c-1 .8-2 1.4-3.2 1.9-1.2.399-2.399.7-3.7.7-1 0-1.899-.101-2.8-.4-.899-.3-1.7-.6-2.5-1.1s-1.5-1-2.1-1.7c-.601-.7-1.2-1.4-1.7-2.101-.5-.8-.8-1.6-1.1-2.5-.301-.899-.4-1.8-.4-2.8s.1-1.899.4-2.8c.3-.9.6-1.7 1.1-2.5s1-1.5 1.7-2.1c.6-.601 1.399-1.2 2.1-1.7.8-.5 1.601-.8 2.5-1.101.9-.3 1.8-.399 2.8-.399 1.301 0 2.5.2 3.7.7 1.2.399 2.2 1.1 3.2 1.899l-2.1 3.601c-.601-.601-1.3-1.101-2.101-1.5-.8-.4-1.7-.5-2.6-.5-.9 0-1.7.199-2.5.5-.8.3-1.5.8-2.101 1.399-.6.601-1.1 1.3-1.399 2.101-.3.8-.5 1.6-.5 2.5 0 .899.2 1.8.5 2.5.3.8.8 1.5 1.399 2.1.601.6 1.301 1.1 2.101 1.4.8.3 1.6.5 2.5.5.5 0 1-.101 1.5-.2.5-.101.899-.3 1.399-.5v-5.8h4l-.098 7.901zM455.6 135.3c0 1-.1 1.899-.399 2.8s-.601 1.7-1.101 2.5-1 1.5-1.699 2.2c-.601.6-1.4 1.2-2.101 1.7-.8.5-1.6.8-2.5 1.1-.899.3-1.8.4-2.8.4s-1.9-.101-2.8-.4c-.9-.3-1.7-.6-2.5-1.1s-1.5-1-2.2-1.7c-.6-.601-1.2-1.4-1.7-2.2s-.8-1.6-1.1-2.5c-.301-.9-.4-1.8-.4-2.8s.101-1.9.4-2.8c.3-.9.6-1.7 1.1-2.5.5-.801 1-1.5 1.7-2.101.6-.6 1.4-1.2 2.2-1.7s1.6-.8 2.5-1.1c.899-.3 1.8-.4 2.8-.4s1.9.101 2.8.4c.9.3 1.7.6 2.5 1.1s1.5 1 2.101 1.7c.6.601 1.199 1.4 1.699 2.101.5.8.801 1.6 1.101 2.5.2.899.399 1.8.399 2.8zm-4.099 0c0-.9-.2-1.7-.5-2.5s-.8-1.5-1.4-2.101c-.6-.6-1.3-1.1-2.1-1.399s-1.6-.5-2.5-.5-1.8.2-2.5.5c-.8.3-1.5.8-2.1 1.399-.601.601-1.101 1.301-1.4 2.101s-.5 1.6-.5 2.5c0 .899.2 1.7.5 2.5s.8 1.5 1.4 2.1c.6.601 1.3 1.101 2.1 1.4s1.6.5 2.5.5 1.7-.2 2.5-.5 1.5-.8 2.1-1.4c.601-.6 1-1.3 1.4-2.1.3-.8.5-1.601.5-2.5zm-6.401-11.8l-1.6-2.101 4.2-4 2.3 3-4.9 3.101zM474.6 145.5h-4.399l-7.9-13.5v13.5h-4.1v-20.5h4.399l7.9 13.5v-13.5h4.1v20.5zM125.001 145.5h-14.101v-20.5h14.101v4.1h-9.9v4.1h6.7v4.101h-6.7v4.1h9.9v4.099zM142.2 145.5h-14.399v-20.5h4.1v16.399h10.2l.099 4.101zM158.4 145.5h-14.1v-20.5h14.1v4.1h-9.899v4.1h6.699v4.101h-6.699v4.1h9.899v4.099zM177.1 143.399c-1 .8-2 1.4-3.2 1.9-1.2.399-2.399.7-3.7.7-1 0-1.899-.101-2.8-.4-.899-.3-1.7-.6-2.5-1.1s-1.5-1-2.2-1.7c-.6-.601-1.199-1.4-1.699-2.2s-.801-1.6-1.101-2.5-.399-1.8-.399-2.8.1-1.9.399-2.8c.3-.9.601-1.801 1.101-2.5.5-.801 1-1.5 1.699-2.2.601-.601 1.4-1.2 2.2-1.7s1.601-.8 2.5-1.1c.9-.301 1.8-.4 2.8-.4 1.301 0 2.5.2 3.7.6 1.2.4 2.2 1.101 3.2 1.9l-2.2 3.6c-.6-.6-1.3-1.1-2.1-1.5-.8-.3-1.7-.5-2.601-.5-.899 0-1.8.2-2.5.5-.8.301-1.5.801-2.1 1.4s-1.1 1.3-1.4 2.1c-.3.801-.5 1.601-.5 2.5 0 .9.2 1.7.5 2.5.301.801.801 1.5 1.4 2.101.6.6 1.3 1.1 2.1 1.399.801.301 1.601.5 2.5.5.9 0 1.801-.199 2.601-.5.8-.3 1.5-.8 2.1-1.5l2.2 3.7zM188.1 145.5h-4.1v-16.4h-6.2v-4.1h16.4v4.1h-6.1v16.4zM200.501 145.5h-4.101v-20.5h8.2c.8 0 1.5.1 2.2.3s1.3.5 2 .8 1.2.8 1.7 1.3.899 1.101 1.3 1.7c.399.6.6 1.3.8 2s.3 1.4.3 2.2c0 .7-.1 1.399-.3 2.1s-.4 1.3-.8 1.9c-.3.6-.7 1.2-1.2 1.7s-1 .899-1.6 1.3l2.3 5.399h-4.4l-1.8-4.1h-4.6v3.901h.001zm0-16.4v8.2h4.1c.6 0 1.1-.101 1.6-.3.5-.2.9-.5 1.301-.9.399-.4.699-.8.899-1.3s.3-1 .3-1.601c0-.6-.1-1.1-.3-1.6s-.5-.9-.899-1.3c-.4-.4-.801-.7-1.301-.9s-1-.3-1.6-.3h-4.1v.001zM219.6 145.5h-4.1v-20.5h4.1v20.5zM239.801 143.399c-1 .8-2 1.4-3.2 1.9-1.2.399-2.4.7-3.7.7-1 0-1.899-.101-2.8-.4s-1.7-.6-2.5-1.1-1.5-1-2.2-1.7c-.6-.601-1.2-1.4-1.7-2.2s-.8-1.6-1.1-2.5-.4-1.8-.4-2.8.101-1.9.4-2.8c.3-.9.6-1.801 1.1-2.5.5-.801 1-1.5 1.7-2.2.601-.601 1.4-1.2 2.2-1.7s1.6-.8 2.5-1.1c.9-.301 1.8-.4 2.8-.4 1.3 0 2.5.2 3.7.6 1.2.4 2.2 1.101 3.2 1.9l-2.2 3.6c-.6-.6-1.3-1.1-2.1-1.5-.801-.3-1.7-.5-2.601-.5-.899 0-1.8.2-2.5.5-.8.301-1.5.801-2.1 1.4-.601.6-1.101 1.3-1.4 2.1-.3.801-.5 1.601-.5 2.5 0 .9.2 1.7.5 2.5.3.801.8 1.5 1.4 2.101.6.6 1.3 1.1 2.1 1.399.8.301 1.601.5 2.5.5.9 0 1.8-.199 2.601-.5.8-.3 1.5-.8 2.1-1.5l2.2 3.7zM246.301 145.5h-4.101v-20.5h4.101v20.5zM266.501 135.199c0 .9-.101 1.9-.4 2.7-.2.9-.6 1.7-1 2.4-.4.8-1 1.399-1.6 2.1-.601.601-1.301 1.201-2.101 1.601-.8.399-1.6.8-2.5 1-.899.199-1.8.399-2.7.399h-6.199v-20.5h6.199c.9 0 1.9.101 2.7.4.9.2 1.7.6 2.5 1 .8.399 1.5 1 2.101 1.6.6.601 1.199 1.3 1.6 2.101.4.8.8 1.6 1 2.399.299 1 .4 1.901.4 2.8zm-4.101 0c0-.8-.2-1.6-.5-2.399-.3-.7-.8-1.4-1.3-2-.6-.601-1.2-1-2-1.3-.7-.301-1.5-.5-2.4-.5h-2v12.3h2c.801 0 1.601-.2 2.4-.5.7-.3 1.4-.8 2-1.3s1-1.2 1.3-2c.3-.601.5-1.4.5-2.301zM285.4 145.5h-4.1v-4.101h-8.2v4.101h-4.1v-12.301c0-1.1.199-2.199.6-3.199s1-1.9 1.8-2.601c.7-.7 1.601-1.3 2.601-1.8 1-.4 2.1-.6 3.199-.6 1.101 0 2.2.199 3.2.6s1.9 1 2.601 1.8c.699.7 1.3 1.601 1.8 2.601.399 1 .6 2.1.6 3.199v12.301h-.001zm-4.099-8.2v-4.101c0-.6-.101-1.1-.3-1.6-.2-.5-.5-.9-.9-1.3s-.8-.7-1.3-.9-1-.3-1.601-.3c-.6 0-1.1.1-1.6.3s-.9.5-1.3.9c-.4.399-.7.8-.9 1.3-.199.5-.3 1-.3 1.6v4.101h8.201zM305.4 135.199c0 .9-.1 1.9-.399 2.7-.301.8-.601 1.7-1 2.4-.4.8-1 1.399-1.601 2.1-.6.601-1.3 1.2-2.1 1.601-.8.399-1.601.8-2.5 1-.9.199-1.8.399-2.7.399h-6.2v-20.5h6.2c.9 0 1.9.101 2.7.4.899.2 1.7.6 2.5 1 .8.399 1.5 1 2.1 1.6.601.601 1.2 1.3 1.601 2.101.5.8.8 1.6 1 2.399.199 1 .399 1.901.399 2.8zm-4.099 0c0-.8-.2-1.6-.5-2.399-.3-.7-.8-1.4-1.3-2-.601-.601-1.2-1-2-1.3-.801-.301-1.5-.5-2.4-.5h-2v12.3h2c.8 0 1.6-.2 2.4-.5.8-.3 1.399-.8 2-1.3.6-.601 1-1.2 1.3-2 .299-.601.5-1.4.5-2.301z"/></svg>