<svg xmlns="http://www.w3.org/2000/svg" viewBox="0 0 538.6 270.6"><rect width="538.6" height="270.6" fill="#77BACF"/><path fill="#C6A233" d="M295.3 26.4l-7.3 12.6-7.3-12.6z"/><path fill="#E9D9A5" d="M273.4 39l-7.3 12.6-7.3-12.6z"/><path fill="#DBC06C" d="M266.1 51.6l7.3-12.6 7.3 12.6z"/><path fill="#D2AC2E" d="M288 39l-7.3 12.6-7.3-12.6z"/><path fill="#CFA92E" d="M280.7 51.6l7.3-12.6 7.3 12.6z"/><path fill="#D2AC2E" d="M302.6 39l-7.3 12.6-7.3-12.6z"/><path fill="#DCC170" d="M295.3 51.6l7.3-12.6 7.2 12.6z"/><path fill="#EADAA9" d="M317.1 39l-7.3 12.6-7.2-12.6z"/><path fill="#E0C259" d="M266.1 51.6l-7.3 12.7-7.3-12.7z"/><path fill="#DAB83D" d="M258.8 64.3l7.3-12.7 7.3 12.7z"/><path fill="#E0BC30" d="M280.7 51.6l-7.3 12.7-7.3-12.7z"/><path fill="#DCB72E" d="M273.4 64.3l7.3-12.7 7.3 12.7z"/><path fill="#E0BC31" d="M295.3 51.6l-7.3 12.7-7.3-12.7z"/><path fill="#DCB72E" d="M288 64.3l7.3-12.7 7.3 12.7z"/><path fill="#E0BC30" d="M309.8 51.6l-7.2 12.7-7.3-12.7z"/><path fill="#DBBA40" d="M302.6 64.3l7.2-12.7 7.3 12.7z"/><path fill="#E3C55D" d="M324.4 51.6l-7.3 12.7-7.3-12.7z"/><path fill="#ECDEAC" d="M236.9 76.9l7.3-12.6 7.3 12.6z"/><path fill="#E1BF39" d="M258.8 64.3l-7.3 12.6-7.3-12.6z"/><path fill="#E1BF38" d="M251.5 76.9l7.3-12.6 7.3 12.6z"/><path fill="#E3C347" d="M273.4 64.3l-7.3 12.6-7.3-12.6z"/><path fill="#E3C243" d="M266.1 76.9l7.3-12.6 7.3 12.6z"/><path fill="#E4C550" d="M288 64.3l-7.3 12.6-7.3-12.6z"/><path fill="#E3C347" d="M280.7 76.9l7.3-12.6 7.3 12.6z"/><path fill="#E3C552" d="M302.6 64.3l-7.3 12.6-7.3-12.6z"/><path fill="#E3C241" d="M295.3 76.9l7.3-12.6 7.2 12.6z"/><path fill="#E3C347" d="M317.1 64.3l-7.3 12.6-7.2-12.6z"/><path fill="#E1BF36" d="M309.8 76.9l7.3-12.6 7.3 12.6z"/><path fill="#E1BF39" d="M331.7 64.3l-7.3 12.6-7.3-12.6z"/><path fill="#EDDFB0" d="M324.4 76.9l7.3-12.6 7.3 12.6z"/><path fill="#EBD896" d="M236.9 76.9l-7.3 12.6-7.3-12.6z"/><path fill="#E6CA66" d="M229.6 89.5l7.3-12.6 7.3 12.6z"/><path fill="#E3C449" d="M251.5 76.9l-7.3 12.6-7.3-12.6z"/><path fill="#E3C44C" d="M244.2 89.5l7.3-12.6 7.3 12.6z"/><path fill="#E5CA5E" d="M266.1 76.9l-7.3 12.6-7.3-12.6z"/><path fill="#E5CA5D" d="M258.8 89.5l7.3-12.6 7.3 12.6z"/><path fill="#E8D06F" d="M280.7 76.9l-7.3 12.6-7.3-12.6z"/><path fill="#E6CD68" d="M273.4 89.5l7.3-12.6 7.3 12.6z"/><path fill="#C3B872" d="M295.3 76.9l-7.3 12.6-7.3-12.6z"/><path fill="#708168" d="M288 89.5l7.3-12.6 7.3 12.6z"/><path fill="#537466" d="M309.8 76.9l-7.2 12.6-7.3-12.6z"/><path fill="#CDB95F" d="M302.6 89.5l7.2-12.6 7.3 12.6z"/><path fill="#CEBA60" d="M324.4 76.9l-7.3 12.6-7.3-12.6z"/><path fill="#E3C44A" d="M317.1 89.5l7.3-12.6 7.3 12.6z"/><path fill="#E3C347" d="M339 76.9l-7.3 12.6-7.3-12.6z"/><path fill="#E6CA68" d="M331.7 89.5l7.3-12.6 7.3 12.6z"/><path fill="#EBD99B" d="M353.6 76.9l-7.3 12.6-7.3-12.6z"/><path fill="#E3C349" d="M229.6 89.5l-7.3 12.7-7.3-12.7z"/><path fill="#E3C244" d="M222.3 102.2l7.3-12.7 7.3 12.7z"/><path fill="#E4C653" d="M244.2 89.5l-7.3 12.7-7.3-12.7z"/><path fill="#E5C95B" d="M236.9 102.2l7.3-12.7 7.3 12.7z"/><path fill="#C5974B" d="M258.8 89.5l-7.3 12.7-7.3-12.7z"/><path fill="#BA8742" d="M251.5 102.2l7.3-12.7 7.3 12.7z"/><path fill="#CCAB64" d="M273.4 89.5l-7.3 12.7-7.3-12.7z"/><path fill="#E9D683" d="M266.1 102.2l7.3-12.7 7.3 12.7z"/><path fill="#E6D78E" d="M288 89.5l-7.3 12.7-7.3-12.7z"/><path fill="#8E9979" d="M280.7 102.2l7.3-12.7 7.3 12.7z"/><path fill="#436E68" d="M302.6 89.5l-7.3 12.7-7.3-12.7z"/><path fill="#3E6C64" d="M295.3 102.2l7.3-12.7 7.2 12.7z"/><path fill="#3A675F" d="M317.1 89.5l-7.3 12.7-7.2-12.7z"/><path fill="#4C6B5C" d="M309.8 102.2l7.3-12.7 7.3 12.7z"/><path fill="#4A6656" d="M331.7 89.5l-7.3 12.7-7.3-12.7z"/><path fill="#CDB75A" d="M324.4 102.2l7.3-12.7 7.3 12.7z"/><path fill="#CDB654" d="M346.3 89.5l-7.3 12.7-7.3-12.7z"/><path fill="#E3C244" d="M339 102.2l7.3-12.7 7.3 12.7z"/><path fill="#E3C34B" d="M360.9 89.5l-7.3 12.7-7.3-12.7z"/><path fill="#E9D693" d="M200.4 114.8l7.3-12.6 7.3 12.6z"/><path fill="#E0BC32" d="M222.3 102.2l-7.3 12.6-7.3-12.6z"/><path d="M215 114.8l7.3-12.6 7.3 12.6zM236.9 102.2l-7.3 12.6-7.3-12.6z"/><path fill="#DFBF5F" d="M229.6 114.8l7.3-12.6 7.3 12.6z"/><path fill="#AC613F" d="M251.5 102.2l-7.3 12.6-7.3-12.6z"/><path d="M244.2 114.8l7.3-12.6 7.3 12.6zM266.1 102.2l-7.3 12.6-7.3-12.6z"/><path fill="#A6703C" d="M258.8 114.8l7.3-12.6 7.3 12.6z"/><path fill="#E4D290" d="M280.7 102.2l-7.3 12.6-7.3-12.6z"/><path d="M273.4 114.8l7.3-12.6 7.3 12.6zM295.3 102.2l-7.3 12.6-7.3-12.6zM288 114.8l7.3-12.6 7.3 12.6zM309.8 102.2l-7.2 12.6-7.3-12.6zM302.6 114.8l7.2-12.6 7.3 12.6zM324.4 102.2l-7.3 12.6-7.3-12.6z"/><path fill="#345B52" d="M317.1 114.8l7.3-12.6 7.3 12.6z"/><path fill="#32564D" d="M339 102.2l-7.3 12.6-7.3-12.6z"/><path d="M331.7 114.8l7.3-12.6 7.3 12.6zM353.6 102.2l-7.3 12.6-7.3-12.6z"/><path fill="#E2C03D" d="M346.3 114.8l7.3-12.6 7.3 12.6z"/><path fill="#E0BC32" d="M368.2 102.2l-7.3 12.6-7.3-12.6z"/><path d="M360.9 114.8l7.3-12.6 7.3 12.6z"/><path fill="#DDC57B" d="M200.4 114.8l-7.3 12.6-7.3-12.6z"/><path fill="#DABA51" d="M193.1 127.4l7.3-12.6 7.3 12.6z"/><path fill="#DDB830" d="M215 114.8l-7.3 12.6-7.3-12.6z"/><path d="M207.7 127.4l7.3-12.6 7.3 12.6zM229.6 114.8l-7.3 12.6-7.3-12.6z"/><path fill="#C88D5D" d="M222.3 127.4l7.3-12.6 7.3 12.6z"/><path fill="#B4694C" d="M244.2 114.8l-7.3 12.6-7.3-12.6z"/><path d="M236.9 127.4l7.3-12.6 7.3 12.6zM258.8 114.8l-7.3 12.6-7.3-12.6z"/><path fill="#914024" d="M251.5 127.4l7.3-12.6 7.3 12.6z"/><path fill="#833A22" d="M273.4 114.8l-7.3 12.6-7.3-12.6z"/><path d="M266.1 127.4l7.3-12.6 7.3 12.6zM288 114.8l-7.3 12.6-7.3-12.6z"/><path fill="#47726C" d="M280.7 127.4l7.3-12.6 7.3 12.6z"/><path fill="#436E68" d="M302.6 114.8l-7.3 12.6-7.3-12.6z"/><path d="M295.3 127.4l7.3-12.6 7.2 12.6zM317.1 114.8l-7.3 12.6-7.2-12.6z"/><path fill="#386159" d="M309.8 127.4l7.3-12.6 7.3 12.6z"/><path fill="#345B52" d="M331.7 114.8l-7.3 12.6-7.3-12.6z"/><path d="M324.4 127.4l7.3-12.6 7.3 12.6zM346.3 114.8l-7.3 12.6-7.3-12.6z"/><path fill="#CDB75B" d="M339 127.4l7.3-12.6 7.3 12.6z"/><path fill="#E4C54C" d="M360.9 114.8l-7.3 12.6-7.3-12.6z"/><path d="M353.6 127.4l7.3-12.6 7.3 12.6zM375.5 114.8l-7.3 12.6-7.3-12.6z"/><path fill="#DABA52" d="M368.2 127.4l7.3-12.6 7.3 12.6z"/><path fill="#DEC87F" d="M390.1 114.8l-7.3 12.6-7.3-12.6z"/><path fill="#C9A437" d="M193.1 127.4l-7.3 12.7-7.3-12.7z"/><path fill="#CFA92F" d="M185.8 140.1l7.3-12.7 7.3 12.7z"/><path fill="#D6B22D" d="M207.7 127.4l-7.3 12.7-7.3-12.7z"/><path d="M200.4 140.1l7.3-12.7 7.3 12.7zM222.3 127.4l-7.3 12.7-7.3-12.7zM215 140.1l7.3-12.7 7.3 12.7zM236.9 127.4l-7.3 12.7-7.3-12.7zM229.6 140.1l7.3-12.7 7.3 12.7zM251.5 127.4l-7.3 12.7-7.3-12.7z"/><path fill="#9C4B2C" d="M244.2 140.1l7.3-12.7 7.3 12.7z"/><path fill="#914024" d="M266.1 127.4l-7.3 12.7-7.3-12.7z"/><path d="M258.8 140.1l7.3-12.7 7.3 12.7zM280.7 127.4l-7.3 12.7-7.3-12.7z"/><path fill="#59796F" d="M273.4 140.1l7.3-12.7 7.3 12.7z"/><path fill="#47726C" d="M295.3 127.4l-7.3 12.7-7.3-12.7z"/><path d="M288 140.1l7.3-12.7 7.3 12.7zM309.8 127.4l-7.2 12.7-7.3-12.7z"/><path fill="#3A675F" d="M302.6 140.1l7.2-12.7 7.3 12.7z"/><path fill="#386159" d="M324.4 127.4l-7.3 12.7-7.3-12.7z"/><path d="M317.1 140.1l7.3-12.7 7.3 12.7zM339 127.4l-7.3 12.7-7.3-12.7zM331.7 140.1l7.3-12.7 7.3 12.7zM353.6 127.4l-7.3 12.7-7.3-12.7zM346.3 140.1l7.3-12.7 7.3 12.7zM368.2 127.4l-7.3 12.7-7.3-12.7z"/><path fill="#DEB930" d="M360.9 140.1l7.3-12.7 7.3 12.7z"/><path fill="#D5B12D" d="M382.8 127.4l-7.3 12.7-7.3-12.7z"/><path fill="#CFA931" d="M375.5 140.1l7.3-12.7 7.3 12.7z"/><path fill="#C9A438" d="M397.4 127.4l-7.3 12.7-7.3-12.7z"/><path fill="#D4B862" d="M178.5 152.7l7.3-12.6 7.3 12.6z"/><path fill="#D2AE41" d="M200.4 140.1l-7.3 12.6-7.3-12.6z"/><path fill="#D5B12D" d="M193.1 152.7l7.3-12.6 7.3 12.6z"/><path fill="#DEB930" d="M215 140.1l-7.3 12.6-7.3-12.6z"/><path fill="#E2C03D" d="M207.7 152.7l7.3-12.6 7.3 12.6z"/><path fill="#E4C550" d="M229.6 140.1l-7.3 12.6-7.3-12.6z"/><path d="M222.3 152.7l7.3-12.6 7.3 12.6zM244.2 140.1l-7.3 12.6-7.3-12.6z"/><path fill="#A9593B" d="M236.9 152.7l7.3-12.6 7.3 12.6z"/><path fill="#9C4B2C" d="M258.8 140.1l-7.3 12.6-7.3-12.6z"/><path d="M251.5 152.7l7.3-12.6 7.3 12.6zM273.4 140.1l-7.3 12.6-7.3-12.6z"/><path fill="#676652" d="M266.1 152.7l7.3-12.6 7.3 12.6z"/><path fill="#4C7570" d="M288 140.1l-7.3 12.6-7.3-12.6z"/><path d="M280.7 152.7l7.3-12.6 7.3 12.6zM302.6 140.1l-7.3 12.6-7.3-12.6z"/><path fill="#3E6C64" d="M295.3 152.7l7.3-12.6 7.2 12.6z"/><path fill="#3A675F" d="M317.1 140.1l-7.3 12.6-7.2-12.6z"/><path fill="#386159" d="M309.8 152.7l7.3-12.6 7.3 12.6z"/><path fill="#8F9471" d="M331.7 140.1l-7.3 12.6-7.3-12.6z"/><path fill="#DACB82" d="M324.4 152.7l7.3-12.6 7.3 12.6z"/><path fill="#E7D176" d="M346.3 140.1l-7.3 12.6-7.3-12.6z"/><path d="M339 152.7l7.3-12.6 7.3 12.6zM360.9 140.1l-7.3 12.6-7.3-12.6z"/><path fill="#E2C03C" d="M353.6 152.7l7.3-12.6 7.3 12.6z"/><path fill="#DEB92E" d="M375.5 140.1l-7.3 12.6-7.3-12.6z"/><path fill="#D5B12D" d="M368.2 152.7l7.3-12.6 7.3 12.6z"/><path fill="#D2AF44" d="M390.1 140.1l-7.3 12.6-7.3-12.6z"/><path fill="#D6BA67" d="M382.8 152.7l7.3-12.6 7.3 12.6z"/><path fill="#DFC778" d="M207.7 152.7l-7.3 12.6-7.3-12.6z"/><path fill="#DCB72E" d="M200.4 165.3l7.3-12.6 7.3 12.6z"/><path fill="#E1BF35" d="M222.3 152.7l-7.3 12.6-7.3-12.6z"/><path d="M215 165.3l7.3-12.6 7.3 12.6zM236.9 152.7l-7.3 12.6-7.3-12.6z"/><path fill="#DDBF69" d="M229.6 165.3l7.3-12.6 7.3 12.6z"/><path fill="#BA7F49" d="M251.5 152.7l-7.3 12.6-7.3-12.6z"/><path d="M244.2 165.3l7.3-12.6 7.3 12.6zM266.1 152.7l-7.3 12.6-7.3-12.6zM258.8 165.3l7.3-12.6 7.3 12.6zM280.7 152.7l-7.3 12.6-7.3-12.6zM273.4 165.3l7.3-12.6 7.3 12.6zM295.3 152.7l-7.3 12.6-7.3-12.6z"/><path fill="#436E68" d="M288 165.3l7.3-12.6 7.3 12.6z"/><path fill="#3E6C64" d="M309.8 152.7l-7.2 12.6-7.3-12.6z"/><path fill="#3A675F" d="M302.6 165.3l7.2-12.6 7.3 12.6z"/><path fill="#999E78" d="M324.4 152.7l-7.3 12.6-7.3-12.6z"/><path fill="#DED08A" d="M317.1 165.3l7.3-12.6 7.3 12.6z"/><path fill="#E8D37C" d="M339 152.7l-7.3 12.6-7.3-12.6z"/><path d="M331.7 165.3l7.3-12.6 7.3 12.6zM353.6 152.7l-7.3 12.6-7.3-12.6z"/><path fill="#E3C449" d="M346.3 165.3l7.3-12.6 7.3 12.6z"/><path fill="#E1BD34" d="M368.2 152.7l-7.3 12.6-7.3-12.6z"/><path fill="#DCB72E" d="M360.9 165.3l7.3-12.6 7.3 12.6z"/><path fill="#E1C97C" d="M382.8 152.7l-7.3 12.6-7.3-12.6z"/><path fill="#E0BD39" d="M207.7 178l7.3-12.7 7.3 12.7z"/><path fill="#E1BF3C" d="M229.6 165.3l-7.3 12.7-7.3-12.7z"/><path fill="#E3C44F" d="M222.3 178l7.3-12.7 7.3 12.7z"/><path fill="#BEA454" d="M244.2 165.3l-7.3 12.7-7.3-12.7z"/><path fill="#D2B160" d="M236.9 178l7.3-12.7 7.3 12.7z"/><path fill="#9A6A3C" d="M258.8 165.3l-7.3 12.7-7.3-12.7z"/><path fill="#8F4225" d="M251.5 178l7.3-12.7 7.3 12.7z"/><path fill="#6E7460" d="M273.4 165.3l-7.3 12.7-7.3-12.7z"/><path fill="#507772" d="M266.1 178l7.3-12.7 7.3 12.7z"/><path fill="#617466" d="M288 165.3l-7.3 12.7-7.3-12.7z"/><path fill="#48706A" d="M280.7 178l7.3-12.7 7.3 12.7z"/><path fill="#5B6F61" d="M302.6 165.3l-7.3 12.7-7.3-12.7z"/><path fill="#406A62" d="M295.3 178l7.3-12.7 7.2 12.7z"/><path fill="#8D8D6A" d="M317.1 165.3l-7.3 12.7-7.2-12.7z"/><path fill="#DACB85" d="M309.8 178l7.3-12.7 7.3 12.7z"/><path fill="#C0AC67" d="M331.7 165.3l-7.3 12.7-7.3-12.7z"/><path fill="#DFC86F" d="M324.4 178l7.3-12.7 7.3 12.7z"/><path fill="#C9AE53" d="M346.3 165.3l-7.3 12.7-7.3-12.7z"/><path fill="#E4C54E" d="M339 178l7.3-12.7 7.3 12.7z"/><path fill="#E1BF3C" d="M360.9 165.3l-7.3 12.7-7.3-12.7z"/><path fill="#E0BD3A" d="M353.6 178l7.3-12.7 7.3 12.7z"/><path fill="#E8D07D" d="M215 190.6l7.3-12.6 7.3 12.6z"/><path fill="#E4C656" d="M236.9 178l-7.3 12.6-7.3-12.6z"/><path fill="#E4C54D" d="M229.6 190.6l7.3-12.6 7.3 12.6z"/><path fill="#E4C652" d="M251.5 178l-7.3 12.6-7.3-12.6z"/><path fill="#E6CD68" d="M244.2 190.6l7.3-12.6 7.3 12.6z"/><path fill="#E7CE6A" d="M266.1 178l-7.3 12.6-7.3-12.6z"/><path fill="#E8D47D" d="M258.8 190.6l7.3-12.6 7.3 12.6z"/><path fill="#E8D37B" d="M280.7 178l-7.3 12.6-7.3-12.6z"/><path fill="#EAD888" d="M273.4 190.6l7.3-12.6 7.3 12.6z"/><path fill="#E8D47F" d="M295.3 178l-7.3 12.6-7.3-12.6z"/><path fill="#EAD888" d="M288 190.6l7.3-12.6 7.3 12.6z"/><path fill="#E8D37B" d="M309.8 178l-7.2 12.6-7.3-12.6z"/><path fill="#E8D37D" d="M302.6 190.6l7.2-12.6 7.3 12.6z"/><path fill="#E6CD69" d="M324.4 178l-7.3 12.6-7.3-12.6z"/><path fill="#E6CD68" d="M317.1 190.6l7.3-12.6 7.3 12.6z"/><path fill="#E4C652" d="M339 178l-7.3 12.6-7.3-12.6z"/><path fill="#E3C44C" d="M331.7 190.6l7.3-12.6 7.3 12.6z"/><path fill="#E4C657" d="M353.6 178l-7.3 12.6-7.3-12.6z"/><path fill="#E9D280" d="M346.3 190.6l7.3-12.6 7.3 12.6z"/><path fill="#EAD793" d="M244.2 190.6l-7.3 12.6-7.3-12.6z"/><path fill="#E3C241" d="M236.9 203.2l7.3-12.6 7.3 12.6z"/><path fill="#E3C243" d="M258.8 190.6l-7.3 12.6-7.3-12.6z"/><path fill="#E4C756" d="M251.5 203.2l7.3-12.6 7.3 12.6z"/><path fill="#E4C653" d="M273.4 190.6l-7.3 12.6-7.3-12.6z"/><path fill="#E5CB63" d="M266.1 203.2l7.3-12.6 7.3 12.6z"/><path fill="#E5CA5D" d="M288 190.6l-7.3 12.6-7.3-12.6z"/><path fill="#E6CD69" d="M280.7 203.2l7.3-12.6 7.3 12.6z"/><path fill="#E5CA5D" d="M302.6 190.6l-7.3 12.6-7.3-12.6z"/><path fill="#E5CB63" d="M295.3 203.2l7.3-12.6 7.2 12.6z"/><path fill="#E4C653" d="M317.1 190.6l-7.3 12.6-7.2-12.6z"/><path fill="#E4C756" d="M309.8 203.2l7.3-12.6 7.3 12.6z"/><path fill="#E3C241" d="M331.7 190.6l-7.3 12.6-7.3-12.6z"/><path fill="#E3C13F" d="M324.4 203.2l7.3-12.6 7.3 12.6z"/><path fill="#EAD897" d="M346.3 190.6l-7.3 12.6-7.3-12.6z"/><path fill="#E2C044" d="M244.2 215.9l7.3-12.7 7.3 12.7z"/><path fill="#E0BD38" d="M266.1 203.2l-7.3 12.7-7.3-12.7z"/><path fill="#E3C13D" d="M258.8 215.9l7.3-12.7 7.3 12.7z"/><path fill="#E1BF39" d="M280.7 203.2l-7.3 12.7-7.3-12.7z"/><path fill="#E3C245" d="M273.4 215.9l7.3-12.7 7.3 12.7z"/><path fill="#E2C03C" d="M295.3 203.2l-7.3 12.7-7.3-12.7z"/><path fill="#E3C245" d="M288 215.9l7.3-12.7 7.3 12.7z"/><path fill="#E1BF38" d="M309.8 203.2l-7.2 12.7-7.3-12.7z"/><path fill="#E2C03E" d="M302.6 215.9l7.2-12.7 7.3 12.7z"/><path fill="#E0BD39" d="M324.4 203.2l-7.3 12.7-7.3-12.7z"/><path fill="#E3C146" d="M317.1 215.9l7.3-12.7 7.3 12.7z"/><path fill="#E7D38F" d="M251.5 228.5l7.3-12.6 7.3 12.6z"/><path fill="#DDBF5B" d="M273.4 215.9l-7.3 12.6-7.3-12.6z"/><path fill="#DBB72F" d="M266.1 228.5l7.3-12.6 7.3 12.6z"/><path fill="#D7B12D" d="M288 215.9l-7.3 12.6-7.3-12.6z"/><path fill="#DCB82F" d="M280.7 228.5l7.3-12.6 7.3 12.6z"/><path fill="#D7B12D" d="M302.6 215.9l-7.3 12.6-7.3-12.6z"/><path fill="#DBB72F" d="M295.3 228.5l7.3-12.6 7.2 12.6z"/><path fill="#DEC060" d="M317.1 215.9l-7.3 12.6-7.2-12.6z"/><path fill="#E7D494" d="M309.8 228.5l7.3-12.6 7.3 12.6z"/><path fill="#CEA82E" d="M273.4 241.2l7.3-12.7 7.3 12.7z"/><path fill="#CBA52E" d="M295.3 228.5l-7.3 12.7-7.3-12.7z"/><path fill="#CEA82E" d="M288 241.2l7.3-12.7 7.3 12.7z"/><path fill="#D2B869" d="M280.7 253.8l7.3-12.6 7.3 12.6z"/></svg>