<svg xmlns="http://www.w3.org/2000/svg" width="538.6px" height="270.6px" viewBox="0 0 538.6 270.6">
<linearGradient id="SVGID_1_" gradientUnits="userSpaceOnUse" x1="67" y1="-67" x2="471.6" y2="337.6">
	<stop  offset="0" style="stop-color:#FFFFFF"/>
	<stop  offset="0" style="stop-color:#FF6303"/>
	<stop  offset="1" style="stop-color:#FFA500"/>
</linearGradient>
<rect y="0" fill="url(#SVGID_1_)" width="538.6" height="270.6"/>
	<path d="M92.3,138l-1.3-3.5h-8.9l-1.3,3.5h-5l8-20.7h5.5l8,20.7H92.3z M86.6,121.7l-3.2,8.9h6.4L86.6,121.7z"/>
	<path d="M113.5,138l-9.9-13.5V138h-4.4v-20.7h4.5l9.6,13v-13h4.4V138H113.5z"/>
	<path d="M121.8,138v-20.7h4.4V138H121.8z"/>
	<path d="M148.3,138v-14.5l-5.8,14.5h-1.9l-5.8-14.5V138h-4.4v-20.7h6.2l5,12.5l5-12.5h6.2V138H148.3z"/>
	<path d="M171.1,138l-1.3-3.5H161l-1.3,3.5h-5l8-20.7h5.5l8,20.7H171.1z M165.4,121.7l-3.2,8.9h6.4L165.4,121.7z"/>
	<path d="M180.8,138v-16.8h-6v-3.9h16.5v3.9h-6V138H180.8z"/>
	<path d="M194.1,138v-20.7h14.6v3.9h-10.2v4.4h10v3.9h-10v4.7h10.2v3.9H194.1z"/>
	<path d="M218.7,135.1l2.4-3.3c1.5,1.5,3.7,2.8,6.6,2.8c2.4,0,3.6-1.1,3.6-2.3c0-3.7-11.9-1.1-11.9-8.9c0-3.4,3-6.3,7.8-6.3 c3.3,0,6,1,8.1,2.9l-2.4,3.2c-1.7-1.6-3.9-2.3-6-2.3c-1.9,0-2.9,0.8-2.9,2.1c0,3.3,11.9,1.1,11.9,8.8c0,3.8-2.7,6.6-8.3,6.6 C223.5,138.4,220.6,137,218.7,135.1z"/>
	<path d="M244.5,138l-8-20.7h5l5.7,15.9l5.7-15.9h5l-8,20.7H244.5z"/>
	<path d="M258.3,127.7c0-6.5,5-10.7,11-10.7c4.3,0,7,2.2,8.6,4.6l-3.7,2c-0.9-1.5-2.7-2.7-4.9-2.7c-3.8,0-6.5,2.9-6.5,6.8 c0,3.9,2.7,6.8,6.5,6.8c1.8,0,3.6-0.8,4.4-1.6v-2.5h-5.5v-3.8h9.9v7.9c-2.1,2.4-5.1,3.9-8.8,3.9 C263.3,138.4,258.3,134.2,258.3,127.7z"/>
	<path d="M289.6,138v-20.7h14.6v3.9H294v4.4h10v3.9h-10v8.6H289.6z"/>
	<path d="M307.3,138v-20.7h4.4V138H307.3z"/>
	<path d="M315.8,138v-20.7h4.4v16.8h8.7v3.9H315.8z"/>
	<path d="M333.6,138v-16.8h-6v-3.9h16.5v3.9h-6V138H333.6z"/>
	<path d="M346.9,138v-20.7h14.6v3.9h-10.2v4.4h10v3.9h-10v4.7h10.2v3.9H346.9z"/>
	<path d="M376.7,138l-4.1-7.3h-3.2v7.3H365v-20.7h9.7c4.3,0,6.9,2.8,6.9,6.7c0,3.7-2.3,5.6-4.5,6.1l4.7,7.9H376.7z M377.1,124 c0-1.7-1.3-2.8-3.1-2.8h-4.6v5.6h4.6C375.8,126.8,377.1,125.7,377.1,124z"/>
	<path d="M383.5,135.1l2.4-3.3c1.5,1.5,3.7,2.8,6.6,2.8c2.4,0,3.6-1.1,3.6-2.3c0-3.7-11.9-1.1-11.9-8.9c0-3.4,3-6.3,7.8-6.3 c3.3,0,6,1,8.1,2.9l-2.4,3.2c-1.7-1.6-3.9-2.3-6-2.3c-1.9,0-2.9,0.8-2.9,2.1c0,3.3,11.9,1.1,11.9,8.8c0,3.8-2.7,6.6-8.3,6.6 C388.3,138.4,385.4,137,383.5,135.1z"/>
	<path d="M410.1,135.1l2.4-3.3c1.5,1.5,3.7,2.8,6.6,2.8c2.4,0,3.6-1.1,3.6-2.3c0-3.7-11.9-1.1-11.9-8.9c0-3.4,3-6.3,7.8-6.3 c3.3,0,6,1,8.1,2.9l-2.4,3.2c-1.7-1.6-3.9-2.3-6-2.3c-1.9,0-2.9,0.8-2.9,2.1c0,3.3,11.9,1.1,11.9,8.8c0,3.8-2.7,6.6-8.3,6.6 C414.8,138.4,412,137,410.1,135.1z"/>
	<path d="M448,138v-14.5l-5.8,14.5h-1.9l-5.8-14.5V138H430v-20.7h6.2l5,12.5l5-12.5h6.2V138H448z"/>
	<path d="M456.6,138v-20.7h4.4V138H456.6z"/>
	<path d="M465,138v-20.7h4.4v16.8h8.7v3.9H465z"/>
</svg>