<svg xmlns="http://www.w3.org/2000/svg" xmlns:xlink="http://www.w3.org/1999/xlink" width="538.6px" height="270.6px" viewBox="0 0 538.6 270.6">
	<rect width="538.6px" height="270.6px" fill="navajowhite"/>
	<path fill="#436A61" d="M44.2,92.2c2.9,6.7,6.5,10.1,13.2,10.1c6.1,0,10.9-2.5,10.9-6.9c0-6.4-8.6-7.2-13.2-8.4 c-13.5-3.5-23.4-8.2-23.4-21.3c0-11.9,10.8-21.6,25.6-21.6c15.1,0,23.6,8.5,25.4,14.6l-13.5,6.1c-1.6-4.2-5.3-6.6-11-6.6 c-7.9,0-9.3,4.8-9.3,7.1c0,3.6,5.4,5.4,11.1,6.8c14.8,3.5,25.4,7.8,25.4,22.4c0,15.5-14.2,22.9-27.5,22.9 c-16.9,0-24.9-7.7-28.2-19.4L44.2,92.2z"/>
	<path fill="#436A61" d="M91,86.1V75.3c0-15.4,10.3-31.2,31-31.2c10.3,0,18.1,3.6,22.4,11.8L133,64.7c-1.3-2.8-4.2-5.9-10.9-5.9 c-9.1,0-14.3,7.9-14.3,16.4v10.8c0,8.9,5.9,16.6,14.5,16.6c4.1,0,8.4-1.6,13.8-7l9,10.1c-8,9.2-14.3,11.6-22.8,11.6 C103.1,117.4,91,102.2,91,86.1z"/>
	<path fill="#436A61" d="M166.9,106.4l-3.3,10.4h-17.4L172,44.7h12.7l25.9,72.1h-17.1l-3.6-10.4H166.9z M178.5,71.3l-7,20.2h14.2 L178.5,71.3z"/>
	<path fill="#436A61" d="M217.2,116.8V44.7h16.5v57.4h26.5v14.7H217.2z"/>
	<path fill="#436A61" d="M283.9,106.4l-3.3,10.4h-17.4l25.8-72.1h12.7l25.9,72.1h-17.1l-3.6-10.4H283.9z M295.5,71.3l-7,20.2h14.2 L295.5,71.3z"/>
	<path fill="#436A61" d="M332.5,102.1c3.1-0.5,4.2-2.7,4.2-5V64.3c0-2.3-1.2-4.5-4.2-4.9V44.7h24c13.3,0,28.4,3.2,28.4,19.5 c0,6.8-3.9,12.2-10.2,14.7c8.1,2,14.9,7.8,14.9,18.3c0,10.5-6.7,15.8-14.9,18.2c-4.4,1.3-9.2,1.5-14.8,1.5h-27.3V102.1z  M358.6,73.3c6.2,0,9.6-2.5,9.6-7.1c0-3.6-2.4-7.3-10.1-7.3h-6.3c1.2,2,1.2,3.5,1.2,4.9v9.4H358.6z M363.5,101.6 c5,0,8.3-2.8,8.3-6.9s-3.1-6.9-8.6-6.9H353v8.7c0,1.3-0.1,2.9-1.2,5H363.5z"/>
	<path fill="#436A61" d="M398.8,116.8V44.7h16.5v57.4h26.5v14.7H398.8z"/>
	<path fill="#436A61" d="M495.4,59.4h-30.5v13.7h26.1v14.8h-26.1v14.2h31.2v14.7h-47.7V44.7h47V59.4z"/>
	<path fill="#994C41" d="M118.8,157.9v-10.7h3.8v10.6c0,2.5,1.4,4.2,4.2,4.2c2.7,0,4.2-1.7,4.2-4.2v-10.6h3.9v10.7 c0,4.4-2.6,7.4-8,7.4S118.8,162.3,118.8,157.9z"/>
	<path fill="#994C41" d="M150.6,165l-8.5-11.6V165h-3.8v-17.8h3.9l8.2,11.2v-11.2h3.8V165H150.6z"/>
	<path fill="#994C41" d="M164.6,165v-17.8h3.8v14.5h7.5v3.3H164.6z"/>
	<path fill="#994C41" d="M178.6,165v-17.8h3.8V165H178.6z"/>
	<path fill="#994C41" d="M185.9,165v-17.8h9.4c3.4,0,5.1,2.2,5.1,4.5c0,2.2-1.4,3.7-3.1,4.1c1.9,0.3,3.4,2.1,3.4,4.4 c0,2.7-1.8,4.8-5.2,4.8H185.9z M196.5,152.4c0-1.1-0.8-1.9-2.1-1.9h-4.8v3.9h4.8C195.7,154.4,196.5,153.6,196.5,152.4z  M196.9,159.7c0-1.1-0.8-2.1-2.3-2.1h-4.9v4.1h4.9C196,161.8,196.9,161,196.9,159.7z"/>
	<path fill="#994C41" d="M213.7,165l-3.5-6.3h-2.8v6.3h-3.8v-17.8h8.3c3.7,0,6,2.4,6,5.7c0,3.1-2,4.8-3.9,5.3l4,6.8H213.7z M214,153 c0-1.5-1.1-2.4-2.7-2.4h-4v4.8h4C212.9,155.4,214,154.5,214,153z"/>
	<path fill="#994C41" d="M219.9,156.2c0-5.4,3.9-9.2,9.3-9.2c5.4,0,9.3,3.8,9.3,9.2s-3.9,9.2-9.3,9.2 C223.8,165.4,219.9,161.5,219.9,156.2z M234.6,156.2c0-3.3-2.1-5.8-5.4-5.8c-3.3,0-5.4,2.5-5.4,5.8c0,3.3,2.1,5.8,5.4,5.8 C232.5,162,234.6,159.5,234.6,156.2z"/>
	<path fill="#994C41" d="M246.8,162.5l2.1-2.9c1.3,1.3,3.2,2.4,5.7,2.4c2.1,0,3.1-1,3.1-2c0-3.1-10.2-1-10.2-7.7 c0-3,2.6-5.4,6.8-5.4c2.8,0,5.2,0.9,6.9,2.5l-2.1,2.8c-1.4-1.3-3.4-1.9-5.2-1.9c-1.6,0-2.5,0.7-2.5,1.8c0,2.8,10.2,0.9,10.2,7.6 c0,3.3-2.3,5.7-7.1,5.7C250.9,165.4,248.5,164.2,246.8,162.5z"/>
	<path fill="#994C41" d="M263.2,156.2c0-5.4,3.9-9.2,9.3-9.2c5.4,0,9.3,3.8,9.3,9.2s-3.9,9.2-9.3,9.2 C267.1,165.4,263.2,161.5,263.2,156.2z M277.9,156.2c0-3.3-2.1-5.8-5.4-5.8c-3.3,0-5.4,2.5-5.4,5.8c0,3.3,2.1,5.8,5.4,5.8 C275.7,162,277.9,159.5,277.9,156.2z"/>
	<path fill="#994C41" d="M284.4,165v-17.8h9.4c3.4,0,5.1,2.2,5.1,4.5c0,2.2-1.4,3.7-3.1,4.1c1.9,0.3,3.4,2.1,3.4,4.4 c0,2.7-1.8,4.8-5.2,4.8H284.4z M295.1,152.4c0-1.1-0.8-1.9-2.1-1.9h-4.8v3.9h4.8C294.3,154.4,295.1,153.6,295.1,152.4z  M295.4,159.7c0-1.1-0.8-2.1-2.3-2.1h-4.9v4.1h4.9C294.6,161.8,295.4,161,295.4,159.7z"/>
	<path fill="#994C41" d="M312.2,165l-3.5-6.3h-2.8v6.3h-3.8v-17.8h8.3c3.7,0,6,2.4,6,5.7c0,3.1-2,4.8-3.9,5.3l4,6.8H312.2z  M312.6,153c0-1.5-1.1-2.4-2.7-2.4h-4v4.8h4C311.4,155.4,312.6,154.5,312.6,153z"/>
	<path fill="#994C41" d="M319.3,165v-17.8h12.6v3.3h-8.8v3.8h8.6v3.3h-8.6v4h8.8v3.3H319.3z"/>
	<path fill="#994C41" d="M340.5,162.5l2.1-2.9c1.3,1.3,3.2,2.4,5.7,2.4c2.1,0,3.1-1,3.1-2c0-3.1-10.2-1-10.2-7.7 c0-3,2.6-5.4,6.8-5.4c2.8,0,5.2,0.9,6.9,2.5l-2.1,2.8c-1.4-1.3-3.4-1.9-5.2-1.9c-1.6,0-2.5,0.7-2.5,1.8c0,2.8,10.2,0.9,10.2,7.6 c0,3.3-2.3,5.7-7.1,5.7C344.6,165.4,342.1,164.2,340.5,162.5z"/>
	<path fill="#994C41" d="M362.7,165l-6.9-17.8h4.3l4.9,13.7l4.9-13.7h4.3l-6.9,17.8H362.7z"/>
	<path fill="#994C41" d="M374.6,156.2c0-5.6,4.3-9.2,9.5-9.2c3.7,0,6,1.9,7.4,4l-3.1,1.7c-0.8-1.3-2.3-2.3-4.2-2.3 c-3.2,0-5.6,2.5-5.6,5.8c0,3.4,2.3,5.8,5.6,5.8c1.6,0,3.1-0.7,3.8-1.4v-2.1h-4.7v-3.3h8.5v6.8c-1.8,2-4.4,3.4-7.6,3.4 C378.8,165.4,374.6,161.8,374.6,156.2z"/>
	<path fill="#222220" d="M149.1,219.8v4.9h-2.5v-13.4h2.5v1.2c0.7-0.9,1.8-1.5,3-1.5c2.5,0,4.3,1.8,4.3,5.1s-1.8,5.1-4.3,5.1 C150.9,221.3,149.8,220.8,149.1,219.8z M153.7,216.2c0-1.7-1-2.8-2.4-2.8c-0.8,0-1.8,0.5-2.2,1.1v3.4c0.4,0.6,1.4,1.1,2.2,1.1 C152.7,219.1,153.7,217.9,153.7,216.2z"/>
	<path fill="#222220" d="M157.6,216.2c0-2.7,1.9-5.1,5.1-5.1c3.2,0,5.1,2.3,5.1,5.1c0,2.8-1.9,5.1-5.1,5.1 C159.5,221.3,157.6,219,157.6,216.2z M165.2,216.2c0-1.5-0.9-2.8-2.5-2.8s-2.5,1.3-2.5,2.8c0,1.5,0.9,2.8,2.5,2.8 S165.2,217.8,165.2,216.2z"/>
	<path fill="#222220" d="M169.7,221.1v-9.7h2.5v1.3c0.7-0.9,1.9-1.6,3.1-1.6v2.5c-0.2,0-0.4-0.1-0.7-0.1c-0.8,0-2,0.5-2.4,1.1v6.4 H169.7z"/>
	<path fill="#222220" d="M180.9,220l1.2-2.2c0.5,0.5,1.2,1,2.1,1c1.3,0,2.1-0.8,2.1-2.1v-8.9h2.8v9c0,3.2-2,4.6-4.7,4.6 C183.1,221.3,181.8,221,180.9,220z"/>
	<path fill="#222220" d="M191.1,216.2c0-2.7,1.9-5.1,5.1-5.1c3.2,0,5.1,2.3,5.1,5.1c0,2.8-1.9,5.1-5.1,5.1 C193,221.3,191.1,219,191.1,216.2z M198.7,216.2c0-1.5-0.9-2.8-2.5-2.8s-2.5,1.3-2.5,2.8c0,1.5,0.9,2.8,2.5,2.8 S198.7,217.8,198.7,216.2z"/>
	<path fill="#222220" d="M203.2,221.1v-9.7h2.5v1.3c0.7-0.9,1.9-1.6,3.1-1.6v2.5c-0.2,0-0.4-0.1-0.7-0.1c-0.8,0-2,0.5-2.4,1.1v6.4 H203.2z"/>
	<path fill="#222220" d="M210.2,223.6l1.1-1.8c0.8,0.9,1.8,1.2,3,1.2s2.7-0.5,2.7-2.4v-1c-0.8,1-1.8,1.5-3,1.5 c-2.4,0-4.3-1.7-4.3-4.9c0-3.2,1.8-4.9,4.3-4.9c1.2,0,2.2,0.5,3,1.5v-1.2h2.6v9c0,3.7-2.8,4.6-5.2,4.6 C212.7,225,211.5,224.6,210.2,223.6z M217.1,217.7v-3.1c-0.4-0.6-1.3-1.1-2.2-1.1c-1.4,0-2.4,1-2.4,2.7c0,1.7,1,2.7,2.4,2.7 C215.7,218.8,216.6,218.3,217.1,217.7z"/>
	<path fill="#222220" d="M221.5,216.2c0-2.8,2.1-5.1,5-5.1c2.9,0,4.8,2.2,4.8,5.3v0.6h-7.2c0.2,1.2,1.1,2.2,2.8,2.2 c0.8,0,2-0.4,2.6-1l1.1,1.6c-1,0.9-2.5,1.3-4,1.3C223.7,221.3,221.5,219.3,221.5,216.2z M226.5,213.2c-1.6,0-2.3,1.2-2.4,2.1h4.8 C228.8,214.4,228.2,213.2,226.5,213.2z"/>
	<path fill="#222220" d="M247.6,221.1l-0.8-2.3h-5.7l-0.8,2.3H237l5.2-13.4h3.6l5.1,13.4H247.6z M243.9,210.6l-2.1,5.7h4.2 L243.9,210.6z"/>
	<path fill="#222220" d="M251.6,221.1v-1.9l4.4-5.5h-4.4v-2.2h7.8v1.8l-4.4,5.6h4.5v2.2H251.6z"/>
	<path fill="#222220" d="M268.1,221.1v-5.8c0-1.3-0.7-1.8-1.8-1.8c-1,0-1.8,0.6-2.2,1.1v6.5h-2.5v-9.7h2.5v1.3 c0.6-0.7,1.8-1.5,3.4-1.5c2.1,0,3.1,1.2,3.1,3.1v6.8H268.1z"/>
	<path fill="#222220" d="M279,221.1v-1c-0.7,0.8-1.8,1.2-3.1,1.2c-1.5,0-3.4-1-3.4-3.2c0-2.3,1.8-3.1,3.4-3.1c1.3,0,2.4,0.4,3.1,1.2 v-1.3c0-1-0.8-1.6-2.1-1.6c-1,0-2,0.4-2.8,1.1l-1-1.7c1.2-1,2.7-1.5,4.2-1.5c2.2,0,4.2,0.9,4.2,3.7v6.2H279z M279,218.8v-1.2 c-0.4-0.6-1.2-0.8-2-0.8c-1,0-1.8,0.5-1.8,1.5c0,0.9,0.8,1.4,1.8,1.4C277.8,219.6,278.6,219.3,279,218.8z"/>
	<path fill="#222220" d="M284.1,221.1v-9.7h2.5v1.3c0.7-0.9,1.9-1.6,3.1-1.6v2.5c-0.2,0-0.4-0.1-0.7-0.1c-0.8,0-2,0.5-2.4,1.1v6.4 H284.1z"/>
	<path fill="#222220" d="M299.5,221.1v-10.9h-3.9v-2.5h10.7v2.5h-3.9v10.9H299.5z"/>
	<path fill="#222220" d="M305.5,216.2c0-2.7,1.9-5.1,5.1-5.1c3.2,0,5.1,2.3,5.1,5.1c0,2.8-1.9,5.1-5.1,5.1 C307.4,221.3,305.5,219,305.5,216.2z M313.1,216.2c0-1.5-0.9-2.8-2.5-2.8c-1.6,0-2.5,1.3-2.5,2.8c0,1.5,0.9,2.8,2.5,2.8 C312.2,219.1,313.1,217.8,313.1,216.2z"/>
	<path fill="#222220" d="M317.6,221.1v-13.4h2.5v4.9c0.8-1,1.8-1.5,3-1.5c2.5,0,4.3,1.9,4.3,5.1c0,3.2-1.8,5.1-4.3,5.1 c-1.2,0-2.2-0.5-3-1.5v1.2H317.6z M322.3,219.1c1.5,0,2.5-1.1,2.5-2.8s-1-2.8-2.5-2.8c-0.8,0-1.8,0.5-2.2,1.1v3.4 C320.5,218.6,321.5,219.1,322.3,219.1z"/>
	<path fill="#222220" d="M335.1,221.1v-1c-0.7,0.8-1.8,1.2-3.1,1.2c-1.5,0-3.4-1-3.4-3.2c0-2.3,1.8-3.1,3.4-3.1 c1.3,0,2.4,0.4,3.1,1.2v-1.3c0-1-0.8-1.6-2.1-1.6c-1,0-2,0.4-2.8,1.1l-1-1.7c1.2-1,2.7-1.5,4.2-1.5c2.2,0,4.2,0.9,4.2,3.7v6.2 H335.1z M335.1,218.8v-1.2c-0.4-0.6-1.2-0.8-2-0.8c-1,0-1.8,0.5-1.8,1.5c0,0.9,0.8,1.4,1.8,1.4 C333.9,219.6,334.7,219.3,335.1,218.8z"/>
	<path fill="#222220" d="M336.8,224.3l0.7-1.9c0.4,0.3,0.7,0.5,1.3,0.5c0.8,0,1.3-0.5,1.3-1.6v-9.9h2.5v9.9c0,2.2-1.1,3.7-3.4,3.7 C338,225,337.5,224.8,336.8,224.3z M339.9,208.9c0-0.8,0.7-1.5,1.5-1.5c0.8,0,1.5,0.7,1.5,1.5c0,0.8-0.7,1.5-1.5,1.5 C340.6,210.4,339.9,209.7,339.9,208.9z"/>
	<path fill="#222220" d="M351,221.1v-1c-0.7,0.8-1.8,1.2-3.1,1.2c-1.5,0-3.4-1-3.4-3.2c0-2.3,1.8-3.1,3.4-3.1c1.3,0,2.4,0.4,3.1,1.2 v-1.3c0-1-0.8-1.6-2.1-1.6c-1,0-2,0.4-2.8,1.1l-1-1.7c1.2-1,2.7-1.5,4.2-1.5c2.2,0,4.2,0.9,4.2,3.7v6.2H351z M351,218.8v-1.2 c-0.4-0.6-1.2-0.8-2-0.8c-1,0-1.8,0.5-1.8,1.5c0,0.9,0.8,1.4,1.8,1.4C349.8,219.6,350.6,219.3,351,218.8z"/>
	<path fill="#222220" d="M355.3,219.8l1.1-1.8c0.7,0.7,2.1,1.3,3.3,1.3c1.1,0,1.6-0.4,1.6-1c0-1.6-5.7-0.3-5.7-4.1c0-1.6,1.4-3,4-3 c1.6,0,2.9,0.6,3.9,1.3l-1,1.7c-0.6-0.6-1.7-1.1-2.9-1.1c-0.9,0-1.5,0.4-1.5,1c0,1.4,5.7,0.2,5.7,4.1c0,1.8-1.5,3.1-4.2,3.1 C357.9,221.3,356.3,220.8,355.3,219.8z"/>
</svg>