<svg xmlns="http://www.w3.org/2000/svg" width="250" height="293" viewBox="0 0 250 293"><g fill="#fff"><path d="M36.455 42.884h8.92v13.785c0 6.954-3.244 10.927-9.5 10.927s-9.5-3.974-9.5-10.927v-22.601c0-6.954 3.245-10.928 9.5-10.928s9.5 3.974 9.5 10.928v4.222h-6.024v-4.656c0-3.105-1.275-4.284-3.302-4.284s-3.301 1.179-3.301 4.284v23.47c0 3.104 1.274 4.222 3.301 4.222s3.302-1.118 3.302-4.222v-8.01h-2.896v-6.21zM55.165 35.62v31.48h-5.735v-43.464h7.994l6.546 26.016v-26.016h5.677v43.464h-6.546l-7.936-31.48z"/></g><g><path fill="#f90" d="M-.002.005h250.001v292.333h-250.001z"/><path fill="#FFB13B" d="M.003 0h146.174v146.174h-146.174z"/><g fill="#f90" transform="matrix(4.675 0 0 4.675 -1353.75 -678.433)"><circle cx="299.477" cy="171.816" r="9.824"/><circle cx="304.419" cy="159.885" r="9.824"/><circle cx="316.35" cy="154.943" r="9.824"/><circle cx="328.281" cy="159.885" r="9.824"/><circle cx="333.223" cy="171.816" r="9.824"/><circle cx="328.281" cy="183.748" r="9.824"/><circle cx="316.35" cy="188.69" r="9.824"/><circle cx="304.419" cy="183.748" r="9.824"/></g><path d="M157.86 45.926c0-18.041-14.633-32.674-32.674-32.674s-32.674 14.633-32.674 32.674c-12.763-12.753-33.45-12.753-46.212 0-12.753 12.763-12.753 33.45 0 46.212-18.041 0-32.674 14.633-32.674 32.674s14.633 32.674 32.674 32.674c-12.753 12.763-12.753 33.45 0 46.212 12.763 12.749 33.45 12.749 46.212 0 0 18.041 14.633 32.674 32.674 32.674s32.674-14.633 32.674-32.674c12.763 12.749 33.45 12.749 46.212 0 12.753-12.763 12.753-33.45 0-46.212 18.041 0 32.664-14.633 32.664-32.674s-14.623-32.674-32.664-32.674c12.753-12.763 12.753-33.45 0-46.212-12.763-12.753-33.45-12.753-46.212 0z"/><path fill="#fff" d="M137.687 58.436v36.18l25.586-25.586c0-4.521 1.725-9.051 5.175-12.506 6.91-6.91 18.116-6.91 25.016 0 6.914 6.9 6.914 18.106 0 25.016-3.45 3.45-7.98 5.175-12.506 5.175l-25.586 25.586h36.18c3.202-3.202 7.62-5.185 12.51-5.185 9.761 0 17.681 7.924 17.681 17.69 0 9.761-7.915 17.69-17.681 17.69-4.89 0-9.313-1.982-12.51-5.185h-36.18l25.586 25.586c4.521 0 9.051 1.725 12.506 5.175 6.914 6.91 6.914 18.111 0 25.016-6.9 6.914-18.106 6.914-25.016 0-3.45-3.45-5.175-7.98-5.175-12.501l-25.586-25.586v36.18c3.202 3.202 5.185 7.625 5.185 12.515 0 9.761-7.929 17.681-17.69 17.681-9.761 0-17.69-7.915-17.69-17.681 0-4.89 1.982-9.313 5.189-12.515v-36.18l-25.586 25.586c0 4.521-1.725 9.051-5.175 12.501-6.91 6.914-18.111 6.914-25.016 0-6.91-6.9-6.91-18.102 0-25.016 3.45-3.45 7.98-5.175 12.501-5.175l25.586-25.586h-36.18c-3.202 3.202-7.62 5.185-12.51 5.185-9.761 0-17.681-7.924-17.681-17.69 0-9.766 7.915-17.69 17.681-17.69 4.89 0 9.308 1.982 12.51 5.185h36.18l-25.586-25.586c-4.521 0-9.051-1.725-12.501-5.175-6.91-6.91-6.91-18.111 0-25.016 6.9-6.91 18.102-6.91 25.016 0 3.45 3.45 5.175 7.98 5.175 12.506l25.586 25.586v-36.18c-3.202-3.202-5.189-7.62-5.189-12.51 0-9.761 7.929-17.681 17.69-17.681 9.761 0 17.69 7.919 17.69 17.681.005 4.89-1.982 9.308-5.185 12.51z"/><path d="M13.636 124.998h223.091v111.358h-223.091z"/><path d="M13.636 187.489h223.091v48.872h-223.091z"/><path fill="#3F3F3F" d="M37.016 135.326h178.146c7.298 0 13.258 5.961 13.258 13.263v44.726c-68.844-8.518-137.099-20.294-204.667-19.2v-25.525c.005-7.298 5.965-13.263 13.263-13.263z"/><path fill="#fff" stroke="#000" stroke-width="2.351525" d="M154.12 132.32l-20.593 99.47h-17.068l-20.607-99.47h17.073l12.066 58.26 12.061-58.26z"/><path fill="#fff" stroke="#000" stroke-width="2.351525" d="M183.264 173.52h29.139v29.13c0 16.091-13.048 29.139-29.13 29.139-16.091 0-29.139-13.048-29.139-29.139v-41.201h-.009c0-16.082 13.048-29.13 29.139-29.13s29.139 13.048 29.139 29.13h-17.068c0-6.662-5.409-12.062-12.066-12.062-6.662 0-12.062 5.4-12.062 12.062v41.201c0 6.662 5.4 12.066 12.062 12.066 6.662 0 12.066-5.409 12.066-12.062v-12.071h-12.066v-17.064h-.005z"/><path fill="#fff" stroke="#000" stroke-width="2.351525" d="M46.118 182.052c-5.269-5.278-8.537-12.557-8.537-20.603 0-16.091 13.048-29.13 29.139-29.13 16.082 0 29.13 13.039 29.13 29.13h-17.064c0-6.662-5.409-12.071-12.071-12.071s-12.071 5.409-12.071 12.071c0 3.333 1.346 6.339 3.525 8.527h.009c2.188 2.188 5.203 3.534 8.537 3.534v.009c8.046 0 15.325 3.258 20.598 8.537 5.278 5.269 8.537 12.562 8.537 20.598 0 16.091-13.048 29.139-29.13 29.139-16.091 0-29.139-13.048-29.139-29.139h17.068c0 6.671 5.409 12.066 12.071 12.066s12.071-5.4 12.071-12.066c0-3.324-1.346-6.339-3.534-8.527-2.188-2.179-5.203-3.534-8.537-3.534-8.046-.005-15.325-3.268-20.603-8.541z"/></g></svg>