<svg xmlns="http://www.w3.org/2000/svg" viewBox="0 0 595.3 299"><path fill="#E0E6E4" d="M.001 0h595.3v299h-595.3z"/><path fill="#DE582B" d="M220.6 155.399l-.7-13.899c0-.301-.1-.5-.2-.7-.199-.2-.8-.3-1.8-.3h-.7c-.6 0-1 0-1.1.1-.2.1-.2.1-.2.2v14.6h-3.399v-39.3c0-.5.3-.8 1-1.2.699-.3 2.199-.5 4.399-.5s3.7.2 4.4.5 1 .7 1 1.2v21.3c0 .5-.3.8-.9 1.2-.6.3-2 .5-4 .5 2 .1 3.4.4 4 .7.601.3.9.7.9 1l.7 14.6h-3.4v-.001zm-.599-37.299c0-.3-.101-.5-.2-.7-.2-.2-.8-.3-1.8-.3s-1.601.1-1.801.3c-.199.2-.199.4-.199.7v19.3c0 .101.1.2.199.2.2.1.5.1 1.101.1h.7c1 0 1.6-.1 1.8-.3s.2-.399.2-.7v-18.6zM233.2 155.399l-3.399-35.2h-.101l.5 7.5v27.801h-3.399v-40.601h5.399l3.4 35.2h.1l-.5-7.5v-27.8h3.4v40.6h-5.4zM250.001 155.399l-.5-9.5h-4.5l-.5 9.5h-3.4l1.8-39.7c0-.399.3-.699.8-.899.601-.2 1.7-.4 3.4-.4s2.9.101 3.4.4c.6.2.8.6.8.899l1.8 39.7h-3.1zm-1.901-37.899c0-.2-.3-.301-.8-.301s-.8.101-.8.301l-1.301 25.699h4.2l-1.299-25.699zM258.2 155.399v-37.899h-3.699v-2.7h10.8v2.7h-3.7v37.899h-3.401zM358.001 155.399l-.7-13.899c0-.301-.1-.5-.2-.7-.2-.2-.8-.3-1.8-.3h-.7c-.6 0-1 0-1.1.1-.2.1-.2.1-.2.2v14.6h-3.4v-39.3c0-.5.301-.8 1-1.2.7-.3 2.2-.5 4.4-.5s3.7.2 4.4.5c.699.3 1 .7 1 1.2v21.3c0 .5-.301.8-.9 1.2-.6.3-2 .5-4 .5 2 .1 3.4.4 4 .7s.9.7.9 1l.699 14.6h-3.399v-.001zm-.7-37.299c0-.3-.1-.5-.2-.7-.2-.2-.8-.3-1.8-.3s-1.6.1-1.8.3-.2.4-.2.7v19.3c0 .101.101.2.2.2.2.1.5.1 1.1.1h.7c1 0 1.601-.1 1.8-.3.2-.2.2-.399.2-.7v-18.6zM375.201 154c0 .5-.4.8-1 1.199-.7.301-2.2.5-4.4.5s-3.7-.199-4.399-.5c-.7-.3-1-.699-1-1.199v-37.9c0-.5.3-.8 1-1.2.699-.3 2.199-.5 4.399-.5s3.7.2 4.4.5 1 .7 1 1.2v37.9zm-7.5-2c0 .3.1.5.2.699.199.2.8.301 1.8.301s1.6-.101 1.8-.301c.2-.199.2-.399.2-.699v-33.9c0-.3-.101-.5-.2-.7-.2-.2-.8-.3-1.8-.3s-1.601.1-1.8.3c-.2.2-.2.4-.2.7v33.9zM378.6 116.1c0-.5.4-.8 1-1.2.7-.3 2.2-.5 4.4-.5s3.7.2 4.4.5c.699.3 1 .7 1 1.2v17.3c0 .5-.301.8-.9 1.2-.6.3-2 .5-4 .5 2 .1 3.4.4 4 .7s.9.7.9 1v17.3c0 .5-.4.8-1 1.2-.7.3-2.2.5-4.4.5s-3.7-.2-4.4-.5c-.699-.3-1-.7-1-1.2v-38zm7.401 2c0-.3-.1-.5-.2-.7-.2-.2-.8-.3-1.8-.3s-1.6.1-1.8.3-.2.4-.2.7v15.2c0 .1.1.2.2.2.2.1.5.1 1.1.1h.7c1 0 1.6-.1 1.8-.3s.2-.4.2-.7v-14.5zm0 19.299c0-.3-.1-.5-.2-.7-.2-.199-.8-.3-1.8-.3h-.7c-.6 0-1 0-1.1.101-.2.1-.2.1-.2.199v15.2c0 .3.1.5.2.7.1.2.8.3 1.8.3s1.6-.1 1.8-.3.2-.4.2-.7v-14.5zM403.6 154c0 .5-.399.8-1 1.199-.699.301-2.199.5-4.399.5s-3.7-.199-4.4-.5c-.7-.3-1-.699-1-1.199v-37.9c0-.5.3-.8 1-1.2.7-.3 2.2-.5 4.4-.5s3.7.2 4.399.5c.7.3 1 .7 1 1.2v37.9zm-7.399-2c0 .3.1.5.2.699.1.2.8.301 1.8.301s1.6-.101 1.8-.301c.2-.199.2-.399.2-.699v-33.9c0-.3-.101-.5-.2-.7-.2-.2-.8-.3-1.8-.3s-1.601.1-1.8.3c-.2.2-.2.4-.2.7v33.9zM410.001 155.399v-37.899h-3.7v-2.7h10.8v2.7h-3.699v37.899h-3.401zM427.201 137.399c0-.3-.101-.5-.2-.7-.2-.199-.8-.3-1.8-.3-2.2 0-3.7-.2-4.4-.5s-1-.7-1-1.2v-18.6c0-.5.4-.8 1-1.2.7-.3 2.2-.5 4.4-.5 2.199 0 3.7.2 4.399.5.7.3 1 .7 1 1.2v13.5h-3.399v-11.5c0-.3-.101-.5-.2-.7-.2-.2-.8-.3-1.8-.3s-1.601.1-1.8.3c-.2.2-.2.4-.2.7v14.6c0 .301.1.5.2.7.199.2.8.3 1.8.3 2.2 0 3.7.2 4.399.5.7.301 1 .7 1 1.2v18.601c0 .5-.399.8-1 1.199-.7.301-2.2.5-4.399.5-2.2 0-3.7-.199-4.4-.5-.7-.3-1-.699-1-1.199v-13.5h3.4v11.5c0 .3.1.5.2.699.1.2.8.301 1.8.301s1.6-.101 1.8-.301c.2-.199.2-.399.2-.699v-14.601z"/><path fill="#1E89AD" d="M289.2 67.6h40.3v40.9h-40.3z"/><path fill="#28A8D2" d="M289.2 115.699h40.3v69.6h-40.3z"/><path fill="#2BB1DE" d="M289.2 193.399h40.3v5.6h-40.3zM289.2 55.6h40.3v5.6h-40.3z"/><path fill="#28A5D1" d="M272.001 115.699h5.6v39.7h-5.6z"/><path fill="#26A1C9" d="M337.001 115.699h6v39.7h-6z"/></svg>