<svg xmlns="http://www.w3.org/2000/svg" viewBox="0 0 538.6 270.6"><rect width="538.6" height="270.6" fill="FEE470"><g><path stroke="#95A5A6" stroke-width="7" fill="none" d="M217 144h-84.9"/><path stroke="#95A5A6" stroke-width="9" fill="none" d="M310.5 230.3v-84"/><path stroke="#6D7575" stroke-width="15" fill="none" d="M310.5 158.2v-11.9"/><path fill="#34495E" d="M398.8 147h-187.3s.2-83.2 2.3-89.5c1.4 0 179.4-.1 180.4 0 5.9 1 4.6 89.5 4.6 89.5z"/><path fill="#2C3E50" d="M398.8 147h-187.3s181.7-89.6 182.7-89.5c5.9 1 4.6 89.5 4.6 89.5z"/><path fill="#47C9AF" d="M158 108.4l45.1 26.7v-56.5z"/><path fill="#16A085" d="M113.9 78.6v56.5h89.5z"/><path stroke="#E74C3C" stroke-width="8" fill="none" d="M226.9 31.1h38.4M232.4 106.5v-78"/><path fill="#47C9AF" d="M162.9 105.3l-49-26.7v56.5z"/><path fill="#237C6B" d="M203.1 78.6l-43 31.3-46.2-31.3"/><path fill="#2C3E50" d="M229.6 98.7h5.9v5.9h-5.9z"/></g></svg>