<svg xmlns="http://www.w3.org/2000/svg" xmlns:xlink="http://www.w3.org/1999/xlink" width="538.6px" height="270.6px" viewBox="0 0 538.6 270.6">
	<rect y="0" fill="#45BCD2" width="538.6" height="270.6"/>
	<path fill="#FFFFFF" d="M149.3,114.5l2.8-3.9c1.7,1.7,4.3,3.2,7.6,3.2c2.8,0,4.2-1.2,4.2-2.6c0-4.2-13.6-1.4-13.6-10.2 c0-4,3.4-7.2,8.9-7.2c3.7,0,6.9,1.1,9.3,3.2l-2.8,3.7c-1.9-1.7-4.5-2.6-6.9-2.6c-2.2,0-3.4,0.9-3.4,2.3c0,3.7,13.6,1.2,13.6,10 c0,4.3-3.1,7.6-9.4,7.6C154.9,118.3,151.5,116.8,149.3,114.5z"/>
	<path fill="#FFFFFF" d="M178.8,117.9l-9.1-23.6h5.7l6.6,18.2l6.5-18.2h5.7l-9.1,23.6H178.8z"/>
	<path fill="#FFFFFF" d="M194.7,106c0-7.6,5.7-12.2,12.6-12.2c4.9,0,8,2.5,9.7,5.2l-4.2,2.3c-1.1-1.7-3.1-3.1-5.6-3.1 c-4.3,0-7.4,3.2-7.4,7.7c0,4.5,3.1,7.7,7.4,7.7c2.2,0,4-0.9,5.1-1.9v-2.8h-6.2v-4.5h11.3v9.1c-2.5,2.6-5.7,4.5-10,4.5 C200.4,118.3,194.7,113.5,194.7,106z"/>
	<path fill="#FFFFFF" d="M220.1,111.2v-3.9h8.5v3.9H220.1z"/>
	<path fill="#FFFFFF" d="M230.3,114.5l2.8-3.9c1.7,1.7,4.3,3.2,7.6,3.2c2.8,0,4.2-1.2,4.2-2.6c0-4.2-13.6-1.4-13.6-10.2 c0-4,3.4-7.2,8.9-7.2c3.7,0,6.9,1.1,9.3,3.2l-2.8,3.7c-1.9-1.7-4.5-2.6-6.9-2.6c-2.2,0-3.4,0.9-3.4,2.3c0,3.7,13.6,1.2,13.6,10 c0,4.3-3.1,7.6-9.4,7.6C235.9,118.3,232.6,116.8,230.3,114.5z"/>
	<path fill="#FFFFFF" d="M269.6,117.9l-11.3-15.4v15.4h-5.1V94.3h5.2l11,14.8V94.3h5.1v23.6C274.6,117.9,269.6,117.9,269.6,117.9z" />
	<path fill="#FFFFFF" d="M279,117.9V94.3h5.1v23.6C284.1,117.9,279,117.9,279,117.9z"/>
	<path fill="#FFFFFF" d="M288.8,117.9V94.3h11.1c5.1,0,8,3.5,8,7.6c0,4.2-2.8,7.6-8,7.6h-6v8.3L288.8,117.9L288.8,117.9z  M302.6,101.8c0-2-1.5-3.2-3.5-3.2h-5.4v6.3h5.4C301.3,105.1,302.6,103.8,302.6,101.8z"/>
	<path fill="#FFFFFF" d="M311,117.9V94.3h11.1c5.1,0,8,3.5,8,7.6c0,4.2-2.8,7.6-8,7.6h-6v8.3L311,117.9L311,117.9z M324.9,101.8 c0-2-1.5-3.2-3.5-3.2h-5.4v6.3h5.4C323.3,105.1,324.9,103.8,324.9,101.8z"/>
	<path fill="#FFFFFF" d="M333.2,117.9V94.3H350v4.5h-11.7v4.9h11.4v4.3h-11.4v5.4H350v4.5H333.2z"/>
	<path fill="#FFFFFF" d="M359.3,117.9V98.6h-6.9v-4.5h18.8v4.5h-6.9v19.3H359.3z"/>
	<path fill="#FFFFFF" d="M372.7,114.5l2.8-3.9c1.7,1.7,4.3,3.2,7.6,3.2c2.8,0,4.2-1.2,4.2-2.6c0-4.2-13.6-1.4-13.6-10.2 c0-4,3.4-7.2,8.9-7.2c3.7,0,6.9,1.1,9.3,3.2l-2.8,3.7c-1.9-1.7-4.5-2.6-6.9-2.6c-2.2,0-3.4,0.9-3.4,2.3c0,3.7,13.6,1.2,13.6,10 c0,4.3-3.1,7.6-9.4,7.6C378.1,118.3,374.8,116.8,372.7,114.5z"/>
	<path fill="#FFFFFF" d="M117.7,157l2.8-3.9c1.7,1.7,4.3,3.2,7.6,3.2c2.8,0,4.2-1.2,4.2-2.6c0-4.2-13.6-1.4-13.6-10.2 c0-4,3.4-7.2,8.9-7.2c3.7,0,6.9,1.1,9.3,3.2l-2.9,3.9c-1.9-1.9-4.5-2.6-6.9-2.6c-2.2,0-3.4,0.9-3.4,2.3c0,3.7,13.6,1.2,13.6,10 c0,4.3-3.1,7.6-9.4,7.6C123.3,160.9,120,159.4,117.7,157z"/>
	<path fill="#FFFFFF" d="M140.7,151v-14.2h5.1v14c0,3.2,1.9,5.6,5.6,5.6c3.7,0,5.6-2.3,5.6-5.6v-14h5.1V151c0,5.9-3.5,9.9-10.6,9.9 S140.7,156.7,140.7,151z"/>
	<path fill="#FFFFFF" d="M166.6,160.4v-23.6h12.5c4.5,0,6.8,2.9,6.8,6c0,2.9-1.9,4.9-4,5.4c2.5,0.5,4.5,2.8,4.5,5.9 c0,3.5-2.3,6.3-6.9,6.3H166.6z M180.8,143.6c0-1.5-1.1-2.6-2.8-2.6h-6.3v5.1h6.3C179.7,146.2,180.8,145.2,180.8,143.6z  M181.3,153.3c0-1.5-1.1-2.8-3.1-2.8h-6.5v5.6h6.5C180,156.1,181.3,155,181.3,153.3z"/>
	<path fill="#FFFFFF" d="M190.2,160.4v-23.6h5.1v19.3h10v4.3H190.2z"/>
	<path fill="#FFFFFF" d="M208.7,160.4v-23.6h5.1v23.6H208.7z"/>
	<path fill="#FFFFFF" d="M238.9,160.4v-16.5l-6.6,16.5h-2.2l-6.6-16.5v16.5h-5.1v-23.6h7.1l5.7,14.3l5.7-14.3h7.1v23.6H238.9z"/>
	<path fill="#FFFFFF" d="M248.8,160.4v-23.6h16.8v4.5h-11.7v4.9h11.4v4.5h-11.4v5.4h11.7v4.3H248.8z"/>
	<path fill="#FFFFFF" d="M284,160.4v-19.3H277v-4.5h18.8v4.5h-6.9v19.3H284z"/>
	<path fill="#FFFFFF" d="M299.3,160.4v-23.6h16.8v4.5h-11.7v4.9h11.4v4.5h-11.4v5.4h11.7v4.3H299.3z"/>
	<path fill="#FFFFFF" d="M335.3,160.4l-5.9-8.6l-6,8.6h-6l8.6-12.2l-8-11.6h6l5.4,8l5.4-8h6l-8,11.6l8.6,12.2 C341.5,160.4,335.3,160.4,335.3,160.4z"/>
	<path fill="#FFFFFF" d="M349.1,160.4v-19.3h-6.9v-4.5H361v4.5h-6.8v19.3H349.1z"/>
	<path fill="#FFFFFF" d="M372.7,160.4v-4c9.7-7.1,12.5-9.6,12.5-12.5c0-2-1.9-3.1-3.9-3.1c-2.6,0-4.8,1.1-6.3,2.8l-2.9-3.4 c2.3-2.6,5.9-3.9,9.1-3.9c5.1,0,9.1,2.8,9.1,7.6c0,4-3.4,7.6-9.4,12h9.7v4.5H372.7z"/>
	<path fill="#FFFFFF" d="M392.3,161.1l8.5-25.1h3.2l-8.3,25.1H392.3z"/>
	<path fill="#FFFFFF" d="M404.6,157l2.6-3.4c1.7,1.7,4.2,2.6,6.5,2.6c2.9,0,4.5-1.2,4.5-3.1s-1.4-2.8-4.8-2.8c-0.9,0-2.6,0-2.9,0 v-4.5c0.5,0,2,0,2.9,0c2.6,0,4.3-0.8,4.3-2.5c0-1.9-1.9-2.8-4.5-2.8c-2.3,0-4.3,0.9-6,2.5l-2.5-3.1c1.9-2.2,4.9-3.7,9.1-3.7 c5.6,0,8.9,2.5,8.9,6.5c0,2.9-2.6,4.9-5.2,5.4c2.5,0.3,5.6,2.2,5.6,5.7c0,4-3.7,6.9-9.3,6.9C409.5,160.9,406.3,159.2,404.6,157z"/>
</svg>