<svg xmlns="http://www.w3.org/2000/svg" viewBox="0 0 538.6 270.6"><path fill="#2C3E50" stroke="#000" stroke-miterlimit="10" d="M0 0h538.6v270.6h-538.6z"/><g><circle fill="#EF395F" cx="34.977" cy="130.577" r="10.377"/><path fill="#fff" d="M40.619 129.151s-2.334-6.486-5.772-.779c-.324 0-5.383-1.945-5.383-1.945s3.243 5.772 3.437 5.967c.26 1.362-5.317.843-5.317.843s4.54 3.502 8.95 2.334c2.14 0 4.734-5.188 4.734-5.188l1.492-.519-2.141-.713z"/></g><g><circle fill="#EF395F" cx="393.695" cy="130.772" r="10.377"/><path fill="#fff" d="M391.361 130.448c-.195.778-1.104 4.864-1.104 4.864v3.373s2.335-2.79 2.4-5.449c-.324-.13 5.188 3.957 7.199-4.021v-1.751c-3.826-10.377-17.512-.713-10.248 4.67 0 0 .39-.843.584-1.232-.584-.065-2.918-6.421 4.605-6.485 7.004 2.075-.389 12.452-1.492 6.55 0 0 .778-2.399.778-2.659.196-3.568-3.695-1.493-2.722 2.14z"/></g><g><circle fill="#EF395F" cx="465.426" cy="130.772" r="10.377"/><path fill="#fff" d="M466.009 125.843l.39.324c.194.13.259.26.389.454s.26.39.324.648c.065.26.13.519.13.843 0 .324-.064.584-.13.843-.064.259-.194.454-.324.649-.13.194-.259.389-.454.519l-.519.454-.324.389s-.13.26-.13.454c0 .195.065.325.13.454l.26.259.648.454c.194.13.389.324.519.454.194.13.324.324.454.519s.26.389.324.649c.065.26.13.519.13.778 0 .389-.13.778-.26 1.167-.129.389-.454.714-.843 1.038-.39.324-.843.519-1.427.713-.584.195-1.232.26-1.945.26-.648 0-1.168-.064-1.622-.194s-.843-.324-1.167-.52c-.324-.259-.519-.519-.714-.778-.129-.259-.194-.583-.194-.907s.065-.648.26-1.038c.194-.389.519-.713 1.037-1.038.26-.13.519-.259.844-.389l.908-.259.843-.13.714-.064c-.13-.13-.26-.324-.324-.52-.13-.194-.195-.389-.195-.648 0-.129 0-.259.065-.389l.13-.325h-.52c-.454 0-.843-.064-1.232-.259-.324-.129-.648-.325-.908-.583-.26-.26-.454-.519-.519-.843-.13-.325-.194-.649-.194-.973 0-.39.064-.778.259-1.232.194-.389.454-.778.844-1.103.519-.389 1.038-.649 1.557-.779.519-.129 1.037-.194 1.491-.194h3.503l-1.104.584h-1.103v.259zm.648 9.857c0-.194-.064-.389-.129-.583-.065-.195-.195-.324-.324-.52-.13-.194-.324-.324-.584-.519s-.519-.389-.843-.648h-.648s-.26 0-.454.065c-.194.064-.324.064-.519.064l-.584.13-.39.195c-.194.064-.324.194-.519.324-.13.13-.324.324-.39.519-.13.194-.194.454-.194.778 0 .648.26 1.103.843 1.491.52.39 1.298.584 2.206.584.843 0 1.427-.194 1.88-.519.455-.322.649-.842.649-1.361zm-2.528-5.058c.194 0 .454-.064.648-.13.194-.064.389-.194.519-.324.194-.194.324-.389.389-.648s.065-.454.065-.583c0-.324-.065-.648-.13-1.038-.065-.389-.26-.713-.39-1.037-.194-.324-.389-.584-.648-.778-.259-.195-.583-.325-.907-.325-.26 0-.454.065-.648.13-.194.13-.39.259-.52.389-.129.194-.259.389-.324.584-.064.194-.064.454-.064.648 0 .259.064.583.13.973.064.389.194.713.389.973.195.324.39.583.648.778.129.323.454.388.843.388zM473.533 128.177h-2.465v2.4h-.778v-2.4h-2.399v-.778h2.399v-2.4h.778v2.4h2.399v.778h.066z"/></g><circle fill="#EF395F" cx="501.097" cy="130.772" r="10.377"/><path stroke="#fff" stroke-width="2" stroke-linejoin="round" fill="none" d="M501.227 124.416l-6.486 4.281 6.486 4.409 6.614-4.409z"/><path stroke="#fff" stroke-width="2" stroke-linejoin="round" fill="none" d="M501.227 128.437l-6.486 4.215 6.486 4.411 6.614-4.411z"/><path stroke="#fff" stroke-width="2" fill="none" d="M501.227 124.416v4.605M501.227 133.106v3.373M494.741 128.697v3.761M507.841 128.697v3.761"/><g><circle fill="#EF395F" cx="429.561" cy="130.772" r="10.377"/><path fill="#fff" d="M422.751 136.284h5.513v-6.485h1.945v6.485h6.161l-6.745-14.138z"/><path stroke="#EF395F" stroke-miterlimit="10" fill="none" d="M426.967 132.134l2.01 1.491M430.144 132.199l1.556-1.622M430.144 134.014l2.789-2.01"/></g><g><circle fill="#EF395F" cx="286.034" cy="131.679" r="10.377"/><g fill="#fff"><path d="M280.392 125.907s10.506-.648 11.545 11.025h-2.271s.454-9.274-9.274-8.95v-2.075z"/><circle cx="282.597" cy="135.052" r="1.946"/><path d="M280.392 129.151s7.135-.649 7.848 7.782h-1.945s0-6.355-5.838-6.291c-.065-.519-.065-1.491-.065-1.491z"/></g></g><g><circle fill="#EF395F" cx="357.765" cy="130.772" r="10.377"/><path fill="#fff" d="M358.933 132.782l-1.816-3.501.778-.195h1.491l1.104 1.687s2.529-.39 2.529-.584c-1.168-2.075-6.681-1.362-6.681-1.362l2.271 4.216-7.913 2.205s-2.595-5.447 3.048-6.939c-.129-.26-.648-1.427-.648-1.427l1.816-.519.778 1.297s9.729-1.103 11.479 2.983c.713-.261-8.236 2.139-8.236 2.139z"/><path fill="#EF395F" d="M355.43 131.874l-2.595.778s-.193-2.853 1.298-3.047c.13-.066 1.297 2.269 1.297 2.269z"/></g><g><circle fill="#EF395F" cx="250.169" cy="131.031" r="10.377"/><circle fill="#fff" cx="246.602" cy="131.031" r="3.243"/><circle fill="#fff" cx="254.385" cy="131.031" r="3.243"/></g><g><circle fill="#EF395F" cx="321.9" cy="131.031" r="10.377"/><path fill="#fff" d="M328.515 128.177c-.064 1.297-.973 3.113-2.789 5.448-1.881 2.399-3.438 3.632-4.734 3.632-.778 0-1.491-.714-2.01-2.205l-1.104-4.021c-.389-1.492-.842-2.205-1.297-2.205-.129 0-.453.195-1.037.649l-.649-.843 2.011-1.751c.908-.778 1.557-1.167 2.011-1.233 1.038-.129 1.687.649 1.945 2.14.26 1.687.454 2.724.519 3.114.324 1.362.648 2.075 1.039 2.075.258 0 .713-.453 1.297-1.361.583-.908.907-1.557.907-2.076.065-.778-.194-1.167-.907-1.167-.324 0-.648.065-1.039.195.649-2.205 1.946-3.243 3.828-3.178 1.425.128 2.139 1.037 2.009 2.787z"/></g><g><circle fill="#EF395F" cx="70.842" cy="130.966" r="10.377"/><path fill="#fff" d="M68.962 138.165v-6.939h-1.297v-2.724h1.167v-3.048s.26-1.557 2.01-1.491h3.178v2.789h-1.946v1.751h1.946v2.529h-1.881v7.07l-3.177.063z"/></g><g><circle fill="#EF395F" cx="106.708" cy="131.031" r="10.377"/><g fill="#fff"><path d="M103.27 126.556c0 .713-.519 1.231-1.362 1.231-.778 0-1.297-.583-1.297-1.231 0-.714.519-1.233 1.297-1.233.843 0 1.362.584 1.362 1.233zm-2.594 10.247v-7.977h2.465v7.977h-2.465zM105.151 131.355c0-.973 0-1.816-.064-2.529h2.14l.13 1.103h.064c.324-.52 1.103-1.297 2.464-1.297 1.622 0 2.854 1.102 2.854 3.438v4.734h-2.464v-4.41c0-1.038-.39-1.751-1.233-1.751-.713 0-1.103.454-1.297.908-.064.195-.064.389-.064.649v4.604h-2.465v-5.448h-.065z"/></g></g><g><circle fill="#EF395F" cx="142.573" cy="131.031" r="10.377"/><g fill="#fff"><path d="M134.985 126.232h2.14v9.404h-2.14zM137.06 126.232h2.854v1.686h-2.854zM137.06 134.014h2.854v1.686h-2.854zM137.06 130.058h2.854v1.427h-2.854zM139.849 135.7s2.983.065 2.983-2.789c0 0 .13-2.334-1.75-2.334 0 0 1.426-.13 1.426-1.816s-1.167-2.529-2.659-2.529c-1.491 0-1.427.843-1.427.843l1.038.843h.324s.648 0 .648.973-.389 1.103-.843 1.103c-.454 0-.583.713-.583.713l.778.713s.973 0 .973 1.297-1.038 1.232-1.297 1.232c-.26 0-.195.648-.195.648l.584 1.103zM146.853 128.632c-3.631 0-3.631 3.632-3.631 3.632s-.26 3.631 3.631 3.631c0 0 3.243.195 3.243-2.529h-1.686s.064 1.038-1.492 1.038c0 0-1.687.13-1.687-1.622h4.864c.066-.064.585-4.15-3.242-4.15zm-1.621 2.853s.194-1.427 1.687-1.427c1.492 0 1.426 1.427 1.426 1.427h-3.113zM144.843 126.815h3.892v1.168h-3.892z"/></g></g><g><circle fill="#EF395F" cx="178.438" cy="131.031" r="10.377"/><g stroke="#fff" stroke-width="2" stroke-miterlimit="10" fill="none"><circle cx="178.568" cy="131.096" r="6.875"/><path d="M181.876 137.127c-.778-6.161-6.356-12.128-6.356-12.128M171.823 130.058c7.847 1.622 10.961-4.345 10.961-4.345M173.444 135.7c3.956-6.355 11.999-4.28 11.999-4.28"/></g></g><g><circle fill="#EF395F" cx="214.303" cy="131.031" r="10.377"/><g stroke="#fff" stroke-width="1.5" stroke-miterlimit="10" fill="none"><path d="M208.207 126.815h12.193v8.497h-12.193zM208.207 126.815l6.096 4.54 6.097-4.54M220.4 135.312l-4.475-5.189M208.207 135.312l4.54-5.189"/></g></g></svg>