<svg xmlns="http://www.w3.org/2000/svg" xmlns:xlink="http://www.w3.org/1999/xlink" width="538.6px" height="270.6px" viewBox="0 0 538.6 270.6">
	<rect y="0" fill="#FEB99E" width="538.6" height="270.6"/>
	<path fill="#354265" d="M54.6,127.1c0-7.8,5.9-13,13.4-13c5.5,0,8.8,2.9,10.5,6.1l-4.6,2.3c-1-2.1-3.4-3.6-5.9-3.6 c-4.6,0-8,3.6-8,8.2c0,4.8,3.4,8.2,8,8.2c2.5,0,4.8-1.7,5.9-3.6l4.6,2.3c-1.9,3.1-5,6.3-10.5,6.3C60.5,140.1,54.6,134.9,54.6,127.1z "/>
	<path fill="#354265" d="M99,139.7v-10.5h-12v10.5h-5.5v-25.2h5.5v9.9h12v-9.9h5.5v25.2H99z"/>
	<path fill="#354265" d="M126.7,139.7l-1.5-4.2h-10.7l-1.7,4.2h-6.1l9.6-25.2h6.7l9.6,25.2H126.7z M119.8,119.8l-4,10.9h7.8 L119.8,119.8z"/>
	<path fill="#354265" d="M149.4,139.7l-5-9h-4v9h-5.2v-25.2h11.7c5.2,0,8.4,3.4,8.4,8.2c0,4.4-2.7,6.9-5.5,7.5l5.7,9.6h-6.1V139.7z  M150,122.7c0-2.1-1.7-3.4-3.8-3.4h-5.7v6.7h5.7C148.3,126.1,150,124.8,150,122.7z"/>
	<path fill="#354265" d="M159.4,139.7v-25.2h5.5v20.5h10.7v4.8h-16.1V139.7z"/>
	<path fill="#354265" d="M196.5,139.7l-1.5-4.2h-10.7l-1.7,4.2h-6.1l9.6-25.2h6.7l9.6,25.2H196.5z M189.6,119.8l-4,10.9h7.8 L189.6,119.8z"/>
	<path fill="#354265" d="M203,136.1l2.9-4c1.7,1.9,4.6,3.4,8,3.4c2.9,0,4.4-1.3,4.4-2.7c0-4.4-14.5-1.5-14.5-10.9 c0-4.2,3.6-7.8,9.6-7.8c4,0,7.3,1.3,9.9,3.6l-2.9,4c-2.1-1.9-4.8-2.7-7.3-2.7c-2.3,0-3.6,1-3.6,2.5c0,4,14.5,1.3,14.5,10.7 c0,4.6-3.4,8.2-10.1,8.2C208.9,140.1,205.3,138.4,203,136.1z"/>
	<path fill="#354265" d="M244.1,139.7l-9.6-25.2h6.1l6.9,19.3l6.9-19.3h6.1l-9.6,25.2H244.1z"/>
	<path fill="#354265" d="M262.8,139.7v-25.2h17.8v4.8h-12.4v5.2h12.2v4.8h-12.2v5.7h12.4v4.8h-17.8V139.7z"/>
	<path fill="#354265" d="M283.6,127.1c0-7.8,5.9-13,13.4-13c5.5,0,8.8,2.9,10.5,6.1l-4.6,2.3c-1-2.1-3.4-3.6-5.9-3.6 c-4.6,0-8,3.6-8,8.2c0,4.8,3.4,8.2,8,8.2c2.5,0,4.8-1.7,5.9-3.6l4.6,2.3c-1.9,3.1-5,6.3-10.5,6.3 C289.4,140.1,283.6,134.9,283.6,127.1z"/>
	<path fill="#354265" d="M316.5,139.7v-20.5h-7.3v-4.8h20.1v4.8h-7.3v20.5H316.5z"/>
	<path fill="#354265" d="M330.5,127.1c0-7.5,5.5-13,13.2-13c7.5,0,13.2,5.5,13.2,13c0,7.5-5.5,13-13.2,13 C336.2,140.1,330.5,134.7,330.5,127.1z M351.5,127.1c0-4.8-2.9-8.2-7.8-8.2c-4.6,0-7.5,3.6-7.5,8.2s2.9,8.2,7.5,8.2 C348.3,135.3,351.5,131.7,351.5,127.1z"/>
	<path fill="#354265" d="M375,139.7l-5-9h-4v9h-5.5v-25.2h11.7c5.2,0,8.4,3.4,8.4,8.2c0,4.4-2.7,6.9-5.5,7.5l5.7,9.6H375V139.7z  M375.4,122.7c0-2.1-1.7-3.4-3.8-3.4h-5.7v6.7h5.7C373.9,126.1,375.4,124.8,375.4,122.7z"/>
	<path fill="#354265" d="M385,139.7v-25.2h17.8v4.8h-12.4v5.2h12.2v4.8h-12.2v5.7h12.4v4.8H385V139.7z"/>
	<path fill="#354265" d="M405.2,136.1l2.9-4c1.7,1.9,4.6,3.4,8,3.4c2.9,0,4.4-1.3,4.4-2.7c0-4.4-14.5-1.5-14.5-10.9 c0-4.2,3.6-7.8,9.6-7.8c4,0,7.3,1.3,9.9,3.6l-2.9,4c-2.1-1.9-4.8-2.7-7.3-2.7c-2.3,0-3.6,1-3.6,2.5c0,4,14.5,1.3,14.5,10.7 c0,4.6-3.4,8.2-10.1,8.2C411,140.1,407.7,138.4,405.2,136.1z"/>
	<path fill="#354265" d="M439.3,139.7v-25.2h5.5v25.2H439.3z"/>
	<path fill="#354265" d="M448.3,127.1c0-7.5,5.5-13,13.2-13c7.5,0,13.2,5.5,13.2,13c0,7.5-5.5,13-13.2,13 C454,140.1,448.3,134.7,448.3,127.1z M469.1,127.1c0-4.8-2.9-8.2-7.8-8.2s-7.5,3.6-7.5,8.2s2.9,8.2,7.5,8.2S469.1,131.7,469.1,127.1 z"/>
</svg>