<svg xmlns="http://www.w3.org/2000/svg" xmlns:xlink="http://www.w3.org/1999/xlink"
	 viewBox="0 0 595.3 299">
	<path fill="#FFFFFF" d="M244.4,53.7c4.5-1.5,15.8-4.5,15.8-4.5h6l6.6,7c0,0,9.2-2.1,15.8-3.6C274.3,4.8,237.4,38.8,244.4,53.7z"/>
	<path fill="#FFFFFF" d="M305.7,77.4c5.3,14.5,16.2,45.9,18.4,51.2s20.3,0.6,17.7-6.6c-2.6-7-17.1-48.7-17.1-49.9 C320.4,57.8,300.4,62.9,305.7,77.4z"/>
	<path fill="#FFFFFF" d="M274.1,106.2l-6.6-14.5c0,0,0-0.6,0-9.2s12.2-13.7,12.2-13.7h11.1L301.6,80l17.7,49.7v6.6l-13.4,38.4 c0,0,11.3,39.5,12.8,44.6c4.7,19-17.5,23.3-21.6,9.8c-1.5-4.7-14.3-44.6-14.3-44.6v-17.9l6-32.2l-2.8-4.5v-2.1c0,0,1.9,0,4.7,0
	s6.4-6.8,6.4-6.8v-19.4h-3.8v17.9l-5.5,5.5c0,0-30.1,0-39.5,0s-10.9-18.6,0-18.6C266.6,106.2,274.1,106.2,274.1,106.2z"/>
	<path fill="#FFFFFF" d="M248.3,55.6l16.2-3.4c0,0,4.3,6,6.6,7c2.1,0.9,6.4,0,9.2,0c-0.9,6.8-9.4,9.4-9.4,9.4s-1.1,0-10.2,0 C251.5,68.6,248.3,55.6,248.3,55.6z"/>
	<circle fill="#FFFFFF" cx="331.7" cy="141.8" r="2.6"/>
	<circle fill="#FFFFFF" cx="337.1" cy="149.9" r="2.6"/>
	<circle fill="#FFFFFF" cx="337.7" cy="156.1" r="2.6"/>
	<circle fill="#FFFFFF" cx="337.7" cy="161.9" r="2.6"/>
	<circle fill="#FFFFFF" cx="337.9" cy="168.1" r="2.6"/>
	<circle fill="#FFFFFF" cx="338.8" cy="174.1" r="2.6"/>
	<circle fill="#FFFFFF" cx="339.4" cy="180.2" r="2.6"/>
	<circle fill="#FFFFFF" cx="340.3" cy="186.9" r="2.6"/>
	<circle fill="#FFFFFF" cx="342.6" cy="152.5" r="2.6"/>
	<circle fill="#FFFFFF" cx="341.1" cy="144.2" r="2.6"/>
	<circle fill="#FFFFFF" cx="345.4" cy="148.2" r="2.6"/>
	<circle fill="#FFFFFF" cx="348.4" cy="152.9" r="2.6"/>
	<circle fill="#FFFFFF" cx="351.6" cy="157.8" r="2.6"/>
	<circle fill="#FFFFFF" cx="354.8" cy="163" r="2.6"/>
	<circle fill="#FFFFFF" cx="358.4" cy="168.1" r="2.6"/>
	<circle fill="#FFFFFF" cx="361.8" cy="172.6" r="2.6"/>
	<circle fill="#FFFFFF" cx="365.9" cy="177.3" r="2.6"/>
	<circle fill="#FFFFFF" cx="344.1" cy="137.8" r="2.6"/>
	<circle fill="#FFFFFF" cx="347.5" cy="142" r="2.6"/>
	<circle fill="#FFFFFF" cx="352" cy="146.1" r="2.6"/>
	<circle fill="#FFFFFF" cx="355.6" cy="150.8" r="2.6"/>
	<circle fill="#FFFFFF" cx="359.2" cy="155.5" r="2.6"/>
	<circle fill="#FFFFFF" cx="362.7" cy="160.6" r="2.6"/>
	<circle fill="#FFFFFF" cx="366.7" cy="165.5" r="2.6"/>
	<circle fill="#FFFFFF" cx="344.3" cy="158.9" r="2.6"/>
	<circle fill="#FFFFFF" cx="345.8" cy="164.2" r="2.6"/>
	<circle fill="#FFFFFF" cx="347.9" cy="169.6" r="2.6"/>
	<circle fill="#FFFFFF" cx="349.6" cy="174.9" r="2.6"/>
	<circle fill="#FFFFFF" cx="352" cy="179.8" r="2.6"/>
	<circle fill="#FFFFFF" cx="354.1" cy="184.9" r="2.6"/>
	<circle fill="#FFFFFF" cx="356" cy="190.3" r="2.6"/>
	<circle fill="#FFFFFF" cx="358.6" cy="196" r="2.6"/>
	<circle fill="#FFFFFF" cx="361.2" cy="201.6" r="2.6"/>
	<circle fill="#FFFFFF" cx="331.1" cy="148.4" r="2.6"/>
	<circle fill="#FFFFFF" cx="330.4" cy="154.4" r="2.6"/>
	<circle fill="#FFFFFF" cx="329.4" cy="160.2" r="2.6"/>
	<circle fill="#FFFFFF" cx="328.5" cy="165.9" r="2.6"/>
	<circle fill="#FFFFFF" cx="327.5" cy="172.1" r="2.6"/>
	<path fill="#73C2AC" d="M0,0h595.3v299H0V0z"/>
	<path fill="#B54035" d="M191.5,95.8l-2.2-15.4c-0.4-2.2-0.9-3-2.2-3.6c-3-0.9-7.6-2.1-13.9-2.1c-14.2,0-21.2,6.4-21.2,16.1 c0,12.5,12.8,16,27.3,20.3c18.1,5.5,38.1,12.4,38.1,40.8c0,31.1-24.2,43.1-53.3,43.1c-17,0-36.1-4.3-43.4-7.8v-37h21.2l3.7,18.1 c0.4,2.2,0.7,2.8,3.3,3.4c2.2,0.6,8.7,2.1,16,2.1c15.4,0,23.9-6.1,23.9-17.6c0-12.1-10.7-16-23.4-19.6c-18.8-5.4-42-10.5-42-40.9 c0-29.1,21.9-42.7,50.8-42.7c16.3,0,30.3,4,38.8,7.6v37L191.5,95.8z"/>
	<path fill="#B54035" d="M272.6,192.8L234.5,75.6c-0.7-2.2-2.2-2.7-4.5-3.3l-8.5-2.1l1.9-14.8h57.5v14.8l-15.4,1.6l28.4,94.8h1.5 l27.5-94.8l-15.2-1.6l1.9-14.8h49.1v14.8l-7.9,2.1c-2.2,0.6-4.2,1.3-4.8,3.6l-34.6,116.8h-38.8V192.8z"/>
	<path fill="#B54035" d="M481.1,142.6c-2.2,0.1-3,0.7-3,2.7v40.8c-14.3,6.9-33.3,9.1-49.1,9.1c-51.8,0-69.6-30.5-69.6-71.2 c0-40.6,23.3-70.8,71.1-70.8c13.6,0,31.2,3.4,42.8,11v35.8l-21.1-1.5l-2.8-17c-0.6-2.7-1.3-3.4-3-3.7c-4.8-1.3-11.5-2.5-17.5-2.5 c-24.5,0-39.1,18.5-39.1,48.4c0,31.2,13.3,49.9,40.3,49.9c5.1,0,11.3-0.6,15.7-1.3c2.1-0.4,3-0.9,3-3.4V144h-21.1l2.7-17h58.2 v14.9L481.1,142.6z"/>
</svg>