<svg xmlns="http://www.w3.org/2000/svg" xmlns:xlink="http://www.w3.org/1999/xlink"
	 width="538.6px" height="270.6px" viewBox="0 0 538.6 270.6">
<rect y="0" fill="#9DD9B2" width="538.6" height="270.6"/>
<path d="M269.1,10.3c-68.6,0-124.9,56.3-124.9,124.9c0,55.4,35.8,102.4,85.9,118.7c6.3,0.7,8.6-2.3,8.6-6.3c0-3,0-10.9,0-21.2
	c-35.1,7.9-42.1-16.3-42.1-16.3c-5.4-14-14-17.9-14-17.9c-11.6-7.9,0.7-7.9,0.7-7.9c12.6,0.7,19.5,13.3,19.5,13.3
	c10.9,18.8,28.8,13.3,36.8,10.2c0.7-7.9,4.7-13.3,7.9-16.3c-28.2-3-57-14-57-61.7c0-13.3,4.7-24.9,12.6-33.5
	c-1.6-3-5.4-15.6,1.6-32.8c0,0,10.2-3,34.4,12.6c10.2-3,20.2-4,31.2-4s21.2,1.6,31.2,4c24.2-16.3,34.4-12.6,34.4-12.6
	c7,17.2,2.3,29.8,1.6,32.8c7.9,8.6,12.6,19.5,12.6,33.5c0,48.4-28.8,58.6-57,61.7c4.7,4,8.6,11.6,8.6,23.5c0,16.3,0,30.5,0,34.4
	c0,3,2.3,7,8.6,6.3c48.4-17.9,84.2-64.9,84.2-120.3C394,66.6,338.6,10.3,269.1,10.3z"/>
</svg>
