<svg xmlns="http://www.w3.org/2000/svg" xmlns:xlink="http://www.w3.org/1999/xlink" viewBox="0 0 644 342"><g><path fill="#ECF0F1" d="M256.846 302.965l-10.662-36.965h-71.629l-10.662 36.965-13.01 1.716v3.413h118.972v-3.413z"/><path fill="#2C3E50" d="M382.883 18h-345c-4.418 0-8 3.582-8 8v207h361v-207c0-4.418-3.582-8-8-8z"/><path fill="#BDC3C7" d="M29.883 233v25c0 4.418 3.582 8 8 8h345c4.418 0 8-3.582 8-8v-25h-361z"/><g><path fill="#45BCD2" d="M44 54h334v134h-334z"/><path fill="#fff" d="M44 31h334v23h-334zM44 188h334v30h-334z"/><defs><path id="a" d="M211.16 109.826l-20.357-20.357 20.357-20.357 20.357 20.357z"/></defs><use xlink:href="#a" overflow="visible" fill="#1D1D1B"/><clipPath><use xlink:href="#a" overflow="visible"/></clipPath><use xlink:href="#a" overflow="visible" stroke="#fff" stroke-width="5" stroke-miterlimit="10" fill="none"/><path fill="#fff" d="M199.49 86.637l6.904-5.646 3.792 10.389 1.652 4.901h-7.257zM212.21 78.249l9.778 5.785-7.454 12.247h-7.964z"/><path stroke="#fff" stroke-miterlimit="10" fill="none" d="M200.776 96.281h20.13"/><defs><path id="b" d="M210.842 173.112l-20.517-20.517 20.517-20.517 20.517 20.517z"/></defs><use xlink:href="#b" overflow="visible" fill="#fff"/><clipPath><use xlink:href="#b" overflow="visible"/></clipPath><use xlink:href="#b" overflow="visible" stroke="#1D1D1B" stroke-width="5" stroke-miterlimit="10" fill="none"/><path fill="#1D1D1B" d="M199.085 149.738l6.957-5.69 3.823 10.471 1.665 4.94h-7.313zM211.905 141.283l9.856 5.832-7.513 12.344h-8.027z"/><path stroke="#1D1D1B" stroke-miterlimit="10" fill="none" d="M200.381 159.459h20.289"/><path fill="#D5A420" d="M215.432 54.297l-4.278 7.408-4.276-7.408z"/><path fill="#F0DBA5" d="M202.602 61.705l-4.277 7.407-4.277-7.407z"/><path fill="#E7C267" d="M198.325 69.112l4.277-7.407 4.276 7.407z"/><path fill="#E1AF11" d="M211.154 61.705l-4.276 7.407-4.276-7.407z"/><path fill="#DEAC12" d="M206.878 69.112l4.276-7.407 4.278 7.407z"/><path fill="#E1AF11" d="M219.708 61.705l-4.276 7.407-4.278-7.407z"/><path fill="#E7C36B" d="M215.432 69.112l4.276-7.407 4.276 7.407z"/><path fill="#F1DCA9" d="M228.262 61.705l-4.278 7.407-4.276-7.407z"/><path fill="#EDC44F" d="M198.325 69.112l-4.277 7.408-4.277-7.408z"/><path fill="#E8BA2B" d="M194.048 76.52l4.277-7.408 4.277 7.408z"/><path fill="#EEBE0F" d="M206.878 69.112l-4.276 7.408-4.277-7.408z"/><path fill="#EAB90C" d="M202.602 76.52l4.276-7.408 4.276 7.408z"/><path fill="#EEBE11" d="M215.432 69.112l-4.278 7.408-4.276-7.408z"/><path fill="#EAB90C" d="M211.154 76.52l4.278-7.408 4.276 7.408z"/><path fill="#EEBE0F" d="M223.984 69.112l-4.276 7.408-4.276-7.408z"/><path fill="#E9BC2F" d="M219.708 76.52l4.276-7.408 4.278 7.408z"/><path fill="#EFC754" d="M232.538 69.112l-4.276 7.408-4.278-7.408z"/><path fill="#F3E0AC" d="M181.218 83.927l4.277-7.407 4.276 7.407z"/><path fill="#EFC122" d="M194.048 76.52l-4.277 7.407-4.276-7.407z"/><path fill="#EFC120" d="M189.771 83.927l4.277-7.407 4.277 7.407z"/><path fill="#F0C538" d="M202.602 76.52l-4.277 7.407-4.277-7.407z"/><path fill="#F0C432" d="M198.325 83.927l4.277-7.407 4.276 7.407z"/><path fill="#F0C744" d="M211.154 76.52l-4.276 7.407-4.276-7.407z"/><path fill="#F0C537" d="M206.878 83.927l4.276-7.407 4.278 7.407z"/><path fill="#EFC746" d="M219.708 76.52l-4.276 7.407-4.278-7.407z"/><path fill="#F0C42F" d="M215.432 83.927l4.276-7.407 4.276 7.407z"/><path fill="#F0C537" d="M228.262 76.52l-4.278 7.407-4.276-7.407z"/><path fill="#EFC11C" d="M223.984 83.927l4.278-7.407 4.276 7.407z"/><path fill="#EFC122" d="M236.814 76.52l-4.276 7.407-4.276-7.407z"/><path fill="#F3E1B0" d="M232.538 83.927l4.276-7.407 4.278 7.407z"/><path fill="#F3DA95" d="M181.218 83.927l-4.277 7.408-4.276-7.408z"/><path fill="#F1CC5E" d="M176.941 91.335l4.277-7.408 4.277 7.408z"/><path fill="#F0C63A" d="M189.771 83.927l-4.276 7.408-4.277-7.408z"/><path fill="#EFC63E" d="M185.495 91.335l4.276-7.408 4.277 7.408z"/><path fill="#F0CC55" d="M198.325 83.927l-4.277 7.408-4.277-7.408z"/><path fill="#F0CC54" d="M194.048 91.335l4.277-7.408 4.277 7.408z"/><path fill="#F2D268" d="M206.878 83.927l-4.276 7.408-4.277-7.408z"/><path fill="#F0CF61" d="M202.602 91.335l4.276-7.408 4.276 7.408z"/><path fill="#CABA6E" d="M215.432 83.927l-4.278 7.408-4.276-7.408z"/><path fill="#688367" d="M211.154 91.335l4.278-7.408 4.276 7.408z"/><path fill="#3D7565" d="M223.984 83.927l-4.276 7.408-4.276-7.408z"/><path fill="#D7BB58" d="M219.708 91.335l4.276-7.408 4.278 7.408z"/><path fill="#D7BC59" d="M232.538 83.927l-4.276 7.408-4.278-7.408z"/><path fill="#EFC63C" d="M228.262 91.335l4.276-7.408 4.276 7.408z"/><path fill="#F0C538" d="M241.092 83.927l-4.278 7.408-4.276-7.408z"/><path fill="#F1CC61" d="M236.814 91.335l4.278-7.408 4.276 7.408z"/><path fill="#F3DB9A" d="M249.645 83.927l-4.277 7.408-4.276-7.408z"/><path fill="#F0C53A" d="M176.941 91.335l-4.276 7.406-4.276-7.406z"/><path fill="#F0C433" d="M172.665 98.741l4.276-7.406 4.277 7.406z"/><path fill="#F0C847" d="M185.495 91.335l-4.277 7.406-4.277-7.406z"/><path fill="#F0CB51" d="M181.218 98.741l4.277-7.406 4.276 7.406z"/><path fill="#D69943" d="M194.048 91.335l-4.277 7.406-4.276-7.406z"/><path fill="#CC893A" d="M189.771 98.741l4.277-7.406 4.277 7.406z"/><path fill="#DAAE5F" d="M202.602 91.335l-4.277 7.406-4.277-7.406z"/><path fill="#F1D880" d="M198.325 98.741l4.277-7.406 4.276 7.406z"/><path fill="#EDD98C" d="M211.154 91.335l-4.276 7.406-4.276-7.406z"/><path fill="#8C9B78" d="M206.878 98.741l4.276-7.406 4.278 7.406z"/><path fill="#196F68" d="M219.708 91.335l-4.276 7.406-4.278-7.406z"/><path fill="#096C64" d="M215.432 98.741l4.276-7.406 4.276 7.406z"/><path fill="#00675E" d="M228.262 91.335l-4.278 7.406-4.276-7.406z"/><path fill="#386B5B" d="M223.984 98.741l4.278-7.406 4.276 7.406z"/><path fill="#386655" d="M236.814 91.335l-4.276 7.406-4.276-7.406z"/><path fill="#D7B952" d="M232.538 98.741l4.276-7.406 4.278 7.406z"/><path fill="#D7B84B" d="M245.368 91.335l-4.276 7.406-4.278-7.406z"/><path fill="#F0C433" d="M241.092 98.741l4.276-7.406 4.277 7.406z"/><path fill="#F0C53D" d="M253.921 91.335l-4.276 7.406-4.277-7.406z"/><path fill="#F1D892" d="M159.835 106.149l4.276-7.408 4.278 7.408z"/><path fill="#EEBE14" d="M172.665 98.741l-4.276 7.408-4.278-7.408z"/><path fill="#F0C22A" d="M168.389 106.149l4.276-7.408 4.276 7.408z"/><path fill="#EFC34A" d="M181.218 98.741l-4.277 7.408-4.276-7.408z"/><path fill="#ECC157" d="M176.941 106.149l4.277-7.408 4.277 7.408z"/><path fill="#C3613A" d="M189.771 98.741l-4.276 7.408-4.277-7.408z"/><path fill="#B54E28" d="M185.495 106.149l4.276-7.408 4.277 7.408z"/><path fill="#A83E1D" d="M198.325 98.741l-4.277 7.408-4.277-7.408z"/><path fill="#B97136" d="M194.048 106.149l4.277-7.408 4.277 7.408z"/><path fill="#EDD48F" d="M206.878 98.741l-4.276 7.408-4.277-7.408z"/><path fill="#DDD296" d="M202.602 106.149l4.276-7.408 4.276 7.408z"/><path fill="#26746C" d="M215.432 98.741l-4.278 7.408-4.276-7.408z"/><path fill="#196F68" d="M211.154 106.149l4.278-7.408 4.276 7.408z"/><path fill="#096C64" d="M223.984 98.741l-4.276 7.408-4.276-7.408z"/><path fill="#00675E" d="M219.708 106.149l4.276-7.408 4.278 7.408z"/><path fill="#056158" d="M232.538 98.741l-4.276 7.408-4.278-7.408z"/><path fill="#015B51" d="M228.262 106.149l4.276-7.408 4.276 7.408z"/><path fill="#06554B" d="M241.092 98.741l-4.278 7.408-4.276-7.408z"/><path fill="#385D49" d="M236.814 106.149l4.278-7.408 4.276 7.408z"/><path fill="#8B8549" d="M249.645 98.741l-4.277 7.408-4.276-7.408z"/><path fill="#F0C228" d="M245.368 106.149l4.277-7.408 4.276 7.408z"/><path fill="#EEBE14" d="M258.198 98.741l-4.277 7.408-4.276-7.408z"/><path fill="#F1D898" d="M253.921 106.149l4.277-7.408 4.277 7.408z"/><path fill="#E7C777" d="M159.835 106.149l-4.277 7.408-4.277-7.408z"/><path fill="#E7BC46" d="M155.558 113.557l4.277-7.408 4.276 7.408z"/><path fill="#ECBA11" d="M168.389 106.149l-4.278 7.408-4.276-7.408z"/><path fill="#EFC120" d="M164.111 113.557l4.278-7.408 4.276 7.408z"/><path fill="#EAB451" d="M176.941 106.149l-4.276 7.408-4.276-7.408z"/><path fill="#DD8F5A" d="M172.665 113.557l4.276-7.408 4.277 7.408z"/><path fill="#CC6949" d="M185.495 106.149l-4.277 7.408-4.277-7.408z"/><path fill="#C15936" d="M181.218 113.557l4.277-7.408 4.276 7.408z"/><path fill="#B34A26" d="M194.048 106.149l-4.277 7.408-4.276-7.408z"/><path fill="#A83E1D" d="M189.771 113.557l4.277-7.408 4.277 7.408z"/><path fill="#98371B" d="M202.602 106.149l-4.277 7.408-4.277-7.408z"/><path fill="#D1A468" d="M198.325 113.557l4.277-7.408 4.276 7.408z"/><path fill="#7A9580" d="M211.154 106.149l-4.276 7.408-4.276-7.408z"/><path fill="#22736C" d="M206.878 113.557l4.276-7.408 4.278 7.408z"/><path fill="#196F68" d="M219.708 106.149l-4.276 7.408-4.278-7.408z"/><path fill="#096C64" d="M215.432 113.557l4.276-7.408 4.276 7.408z"/><path fill="#00675E" d="M228.262 106.149l-4.278 7.408-4.276-7.408z"/><path fill="#056158" d="M223.984 113.557l4.278-7.408 4.276 7.408z"/><path fill="#015B51" d="M236.814 106.149l-4.276 7.408-4.276-7.408z"/><path fill="#06554B" d="M232.538 113.557l4.276-7.408 4.278 7.408z"/><path fill="#7A8057" d="M245.368 106.149l-4.276 7.408-4.278-7.408z"/><path fill="#D7B954" d="M241.092 113.557l4.276-7.408 4.277 7.408z"/><path fill="#F0C73E" d="M253.921 106.149l-4.276 7.408-4.277-7.408z"/><path fill="#EFC11C" d="M249.645 113.557l4.276-7.408 4.277 7.408z"/><path fill="#ECBA0A" d="M262.475 106.149l-4.277 7.408-4.277-7.408z"/><path fill="#E7BC48" d="M258.198 113.557l4.277-7.408 4.276 7.408z"/><path fill="#E8CA7C" d="M271.028 106.149l-4.277 7.408-4.276-7.408z"/><path fill="#D7A725" d="M155.558 113.557l-4.277 7.408-4.276-7.408z"/><path fill="#DEAC16" d="M151.281 120.965l4.277-7.408 4.277 7.408z"/><path fill="#E4B40C" d="M164.111 113.557l-4.276 7.408-4.277-7.408z"/><path fill="#ECBC10" d="M159.835 120.965l4.276-7.408 4.278 7.408z"/><path fill="#F0C228" d="M172.665 113.557l-4.276 7.408-4.278-7.408z"/><path fill="#EFC348" d="M168.389 120.965l4.276-7.408 4.276 7.408z"/><path fill="#E19E5C" d="M181.218 113.557l-4.277 7.408-4.276-7.408z"/><path fill="#CC6949" d="M176.941 120.965l4.277-7.408 4.277 7.408z"/><path fill="#C15936" d="M189.771 113.557l-4.276 7.408-4.277-7.408z"/><path fill="#B34A26" d="M185.495 120.965l4.276-7.408 4.277 7.408z"/><path fill="#A83E1D" d="M198.325 113.557l-4.277 7.408-4.277-7.408z"/><path fill="#98371B" d="M194.048 120.965l4.277-7.408 4.277 7.408z"/><path fill="#804C2F" d="M206.878 113.557l-4.276 7.408-4.277-7.408z"/><path fill="#457A6F" d="M202.602 120.965l4.276-7.408 4.276 7.408z"/><path fill="#22736C" d="M215.432 113.557l-4.278 7.408-4.276-7.408z"/><path fill="#196F68" d="M211.154 120.965l4.278-7.408 4.276 7.408z"/><path fill="#096C64" d="M223.984 113.557l-4.276 7.408-4.276-7.408z"/><path fill="#00675E" d="M219.708 120.965l4.276-7.408 4.278 7.408z"/><path fill="#056158" d="M232.538 113.557l-4.276 7.408-4.278-7.408z"/><path fill="#015B51" d="M228.262 120.965l4.276-7.408 4.276 7.408z"/><path fill="#818A64" d="M241.092 113.557l-4.278 7.408-4.276-7.408z"/><path fill="#DDC56C" d="M236.814 120.965l4.278-7.408 4.276 7.408z"/><path fill="#F0CD5B" d="M249.645 113.557l-4.277 7.408-4.276-7.408z"/><path fill="#F0C743" d="M245.368 120.965l4.277-7.408 4.276 7.408z"/><path fill="#F0C226" d="M258.198 113.557l-4.277 7.408-4.276-7.408z"/><path fill="#ECBB10" d="M253.921 120.965l4.277-7.408 4.277 7.408z"/><path fill="#E4B30D" d="M266.751 113.557l-4.276 7.408-4.277-7.408z"/><path fill="#DEAC1A" d="M262.475 120.965l4.276-7.408 4.277 7.408z"/><path fill="#D7A727" d="M275.305 113.557l-4.277 7.408-4.277-7.408z"/><path fill="#E0BA5C" d="M147.005 128.372l4.276-7.407 4.277 7.407z"/><path fill="#E0B132" d="M159.835 120.965l-4.277 7.407-4.277-7.407z"/><path fill="#E4B30D" d="M155.558 128.372l4.277-7.407 4.276 7.407z"/><path fill="#ECBB10" d="M168.389 120.965l-4.278 7.407-4.276-7.407z"/><path fill="#F0C228" d="M164.111 128.372l4.278-7.407 4.276 7.407z"/><path fill="#F0C743" d="M176.941 120.965l-4.276 7.407-4.276-7.407z"/><path fill="#EEC45C" d="M172.665 128.372l4.276-7.407 4.277 7.407z"/><path fill="#D89254" d="M185.495 120.965l-4.277 7.407-4.277-7.407z"/><path fill="#C15936" d="M181.218 128.372l4.277-7.407 4.276 7.407z"/><path fill="#B34A26" d="M194.048 120.965l-4.277 7.407-4.276-7.407z"/><path fill="#A83E1D" d="M189.771 128.372l4.277-7.407 4.277 7.407z"/><path fill="#943F1F" d="M202.602 120.965l-4.277 7.407-4.277-7.407z"/><path fill="#686650" d="M198.325 128.372l4.277-7.407 4.276 7.407z"/><path fill="#2C7670" d="M211.154 120.965l-4.276 7.407-4.276-7.407z"/><path fill="#22736C" d="M206.878 128.372l4.276-7.407 4.278 7.407z"/><path fill="#196F68" d="M219.708 120.965l-4.276 7.407-4.278-7.407z"/><path fill="#096C64" d="M215.432 128.372l4.276-7.407 4.276 7.407z"/><path fill="#00675E" d="M228.262 120.965l-4.278 7.407-4.276-7.407z"/><path fill="#056158" d="M223.984 128.372l4.278-7.407 4.276 7.407z"/><path fill="#8F9670" d="M236.814 120.965l-4.276 7.407-4.276-7.407z"/><path fill="#E1CD80" d="M232.538 128.372l4.276-7.407 4.278 7.407z"/><path fill="#F1D370" d="M245.368 120.965l-4.276 7.407-4.278-7.407z"/><path fill="#F0CD5A" d="M241.092 128.372l4.276-7.407 4.277 7.407z"/><path fill="#F0C741" d="M253.921 120.965l-4.276 7.407-4.277-7.407z"/><path fill="#F0C226" d="M249.645 128.372l4.276-7.407 4.277 7.407z"/><path fill="#ECBB0A" d="M262.475 120.965l-4.277 7.407-4.277-7.407z"/><path fill="#E4B30D" d="M258.198 128.372l4.277-7.407 4.276 7.407z"/><path fill="#E0B237" d="M271.028 120.965l-4.277 7.407-4.276-7.407z"/><path fill="#E2BC61" d="M266.751 128.372l4.277-7.407 4.277 7.407z"/><path fill="#EAC974" d="M164.111 128.372l-4.276 7.407-4.277-7.407z"/><path fill="#EAB90C" d="M159.835 135.779l4.276-7.407 4.278 7.407z"/><path fill="#EFC11A" d="M172.665 128.372l-4.276 7.407-4.278-7.407z"/><path fill="#F0C63C" d="M168.389 135.779l4.276-7.407 4.276 7.407z"/><path fill="#F0CB50" d="M181.218 128.372l-4.277 7.407-4.276-7.407z"/><path fill="#EAC163" d="M176.941 135.779l4.277-7.407 4.277 7.407z"/><path fill="#CE8044" d="M189.771 128.372l-4.276 7.407-4.277-7.407z"/><path fill="#B34A26" d="M185.495 135.779l4.276-7.407 4.277 7.407z"/><path fill="#A83E1D" d="M198.325 128.372l-4.277 7.407-4.277-7.407z"/><path fill="#8C502F" d="M194.048 135.779l4.277-7.407 4.277 7.407z"/><path fill="#327A74" d="M206.878 128.372l-4.276 7.407-4.277-7.407z"/><path fill="#2C7670" d="M202.602 135.779l4.276-7.407 4.276 7.407z"/><path fill="#22736C" d="M215.432 128.372l-4.278 7.407-4.276-7.407z"/><path fill="#196F68" d="M211.154 135.779l4.278-7.407 4.276 7.407z"/><path fill="#096C64" d="M223.984 128.372l-4.276 7.407-4.276-7.407z"/><path fill="#00675E" d="M219.708 135.779l4.276-7.407 4.278 7.407z"/><path fill="#99A077" d="M232.538 128.372l-4.276 7.407-4.278-7.407z"/><path fill="#E5D288" d="M228.262 135.779l4.276-7.407 4.276 7.407z"/><path fill="#F1D577" d="M241.092 128.372l-4.278 7.407-4.276-7.407z"/><path fill="#F2D268" d="M236.814 135.779l4.278-7.407 4.276 7.407z"/><path fill="#F0CB50" d="M249.645 128.372l-4.277 7.407-4.276-7.407z"/><path fill="#F0C63A" d="M245.368 135.779l4.277-7.407 4.276 7.407z"/><path fill="#EFBF18" d="M258.198 128.372l-4.277 7.407-4.276-7.407z"/><path fill="#EAB90C" d="M253.921 135.779l4.277-7.407 4.277 7.407z"/><path fill="#EBCB78" d="M266.751 128.372l-4.276 7.407-4.277-7.407z"/><path fill="#EEBF22" d="M164.111 143.188l4.278-7.409 4.276 7.409z"/><path fill="#EFC127" d="M176.941 135.779l-4.276 7.409-4.276-7.409z"/><path fill="#EFC643" d="M172.665 143.188l4.276-7.409 4.277 7.409z"/><path fill="#C9A74D" d="M185.495 135.779l-4.277 7.409-4.277-7.409z"/><path fill="#DFB35A" d="M181.218 143.188l4.277-7.409 4.276 7.409z"/><path fill="#AB6A36" d="M194.048 135.779l-4.277 7.409-4.276-7.409z"/><path fill="#A5401E" d="M189.771 143.188l4.277-7.409 4.277 7.409z"/><path fill="#6B755F" d="M202.602 135.779l-4.277 7.409-4.277-7.409z"/><path fill="#357872" d="M198.325 143.188l4.277-7.409 4.276 7.409z"/><path fill="#577565" d="M211.154 135.779l-4.276 7.409-4.276-7.409z"/><path fill="#27716A" d="M206.878 143.188l4.276-7.409 4.278 7.409z"/><path fill="#507060" d="M219.708 135.779l-4.276 7.409-4.278-7.409z"/><path fill="#196A62" d="M215.432 143.188l4.276-7.409 4.276 7.409z"/><path fill="#908F68" d="M228.262 135.779l-4.278 7.409-4.276-7.409z"/><path fill="#E1CD83" d="M223.984 143.188l4.278-7.409 4.276 7.409z"/><path fill="#CAAF63" d="M236.814 135.779l-4.276 7.409-4.276-7.409z"/><path fill="#E9CA69" d="M232.538 143.188l4.276-7.409 4.278 7.409z"/><path fill="#D4B14B" d="M245.368 135.779l-4.276 7.409-4.278-7.409z"/><path fill="#F0C741" d="M241.092 143.188l4.276-7.409 4.277 7.409z"/><path fill="#EFC127" d="M253.921 135.779l-4.276 7.409-4.277-7.409z"/><path fill="#EEBF24" d="M249.645 143.188l4.276-7.409 4.277 7.409z"/><path fill="#F2D279" d="M168.389 150.594l4.276-7.406 4.276 7.406z"/><path fill="#F0C84B" d="M181.218 143.188l-4.277 7.406-4.276-7.406z"/><path fill="#F0C73F" d="M176.941 150.594l4.277-7.406 4.277 7.406z"/><path fill="#F0C846" d="M189.771 143.188l-4.276 7.406-4.277-7.406z"/><path fill="#F0CF61" d="M185.495 150.594l4.276-7.406 4.277 7.406z"/><path fill="#F1D063" d="M198.325 143.188l-4.277 7.406-4.277-7.406z"/><path fill="#F1D678" d="M194.048 150.594l4.277-7.406 4.277 7.406z"/><path fill="#F1D576" d="M206.878 143.188l-4.276 7.406-4.277-7.406z"/><path fill="#F2DA85" d="M202.602 150.594l4.276-7.406 4.276 7.406z"/><path fill="#F1D67B" d="M215.432 143.188l-4.278 7.406-4.276-7.406z"/><path fill="#F2DA85" d="M211.154 150.594l4.278-7.406 4.276 7.406z"/><path fill="#F1D576" d="M223.984 143.188l-4.276 7.406-4.276-7.406z"/><path fill="#F1D578" d="M219.708 150.594l4.276-7.406 4.278 7.406z"/><path fill="#F0CF62" d="M232.538 143.188l-4.276 7.406-4.278-7.406z"/><path fill="#F0CF61" d="M228.262 150.594l4.276-7.406 4.276 7.406z"/><path fill="#F0C846" d="M241.092 143.188l-4.278 7.406-4.276-7.406z"/><path fill="#EFC63E" d="M236.814 150.594l4.278-7.406 4.276 7.406z"/><path fill="#F0C84D" d="M249.645 143.188l-4.277 7.406-4.276-7.406z"/><path fill="#F3D47D" d="M245.368 150.594l4.277-7.406 4.276 7.406z"/><path fill="#F3D991" d="M185.495 150.594l-4.277 7.408-4.277-7.408z"/><path fill="#F0C42E" d="M181.218 158.002l4.277-7.408 4.276 7.408z"/><path fill="#F0C432" d="M194.048 150.594l-4.277 7.408-4.276-7.408z"/><path fill="#F0C94B" d="M189.771 158.002l4.277-7.408 4.277 7.408z"/><path fill="#F0C847" d="M202.602 150.594l-4.277 7.408-4.277-7.408z"/><path fill="#F0CD5B" d="M198.325 158.002l4.277-7.408 4.276 7.408z"/><path fill="#F0CC54" d="M211.154 150.594l-4.276 7.408-4.276-7.408z"/><path fill="#F0CF62" d="M206.878 158.002l4.276-7.408 4.278 7.408z"/><path fill="#F0CC54" d="M219.708 150.594l-4.276 7.408-4.278-7.408z"/><path fill="#F0CD5B" d="M215.432 158.002l4.276-7.408 4.276 7.408z"/><path fill="#F0C847" d="M228.262 150.594l-4.278 7.408-4.276-7.408z"/><path fill="#F0C94B" d="M223.984 158.002l4.278-7.408 4.276 7.408z"/><path fill="#F0C42F" d="M236.814 150.594l-4.276 7.408-4.276-7.408z"/><path fill="#F0C32C" d="M232.538 158.002l4.276-7.408 4.278 7.408z"/><path fill="#F2DA96" d="M245.368 150.594l-4.276 7.408-4.278-7.408z"/><path fill="#F0C233" d="M185.495 165.409l4.276-7.407 4.277 7.407z"/><path fill="#EEBF20" d="M198.325 158.002l-4.277 7.407-4.277-7.407z"/><path fill="#F0C329" d="M194.048 165.409l4.277-7.407 4.277 7.407z"/><path fill="#EFC122" d="M206.878 158.002l-4.276 7.407-4.277-7.407z"/><path fill="#F0C435" d="M202.602 165.409l4.276-7.407 4.276 7.407z"/><path fill="#F0C226" d="M215.432 158.002l-4.278 7.407-4.276-7.407z"/><path fill="#F0C435" d="M211.154 165.409l4.278-7.407 4.276 7.407z"/><path fill="#EFC120" d="M223.984 158.002l-4.276 7.407-4.276-7.407z"/><path fill="#F0C22A" d="M219.708 165.409l4.276-7.407 4.278 7.407z"/><path fill="#EEBF22" d="M232.538 158.002l-4.276 7.407-4.278-7.407z"/><path fill="#F0C337" d="M228.262 165.409l4.276-7.407 4.276 7.407z"/><path fill="#F0D58E" d="M189.771 172.816l4.277-7.407 4.277 7.407z"/><path fill="#E9C153" d="M202.602 165.409l-4.277 7.407-4.277-7.407z"/><path fill="#E9B90D" d="M198.325 172.816l4.277-7.407 4.276 7.407z"/><path fill="#E6B30C" d="M211.154 165.409l-4.276 7.407-4.276-7.407z"/><path fill="#EABA0C" d="M206.878 172.816l4.276-7.407 4.278 7.407z"/><path fill="#E6B30C" d="M219.708 165.409l-4.276 7.407-4.278-7.407z"/><path fill="#E9B90D" d="M215.432 172.816l4.276-7.407 4.276 7.407z"/><path fill="#EAC258" d="M228.262 165.409l-4.278 7.407-4.276-7.407z"/><path fill="#F0D693" d="M223.984 172.816l4.278-7.407 4.276 7.407z"/><path fill="#DDAB13" d="M202.602 180.224l4.276-7.408 4.276 7.408z"/><path fill="#DAA815" d="M215.432 172.816l-4.278 7.408-4.276-7.408z"/><path fill="#DDAB13" d="M211.154 180.224l4.278-7.408 4.276 7.408z"/><path fill="#DEBA64" d="M206.878 187.631l4.276-7.407 4.278 7.407z"/><g fill="#fff"><path d="M174.872 121.11c0 .675.552 1.227 1.227 1.227s1.227-.552 1.227-1.227v-3.067h-1.227v-2.453h3.681v5.521c0 2.036-1.645 3.681-3.681 3.681s-3.681-1.645-3.681-3.681h2.454zM184.792 115.467c2.576 0 4.662 2.086 4.662 4.662s-2.086 4.662-4.662 4.662-4.661-2.086-4.661-4.662 2.085-4.662 4.661-4.662zm-.012 6.87c1.214 0 2.208-.993 2.208-2.196 0-1.214-.994-2.208-2.208-2.208-1.202 0-2.196.994-2.196 2.208 0 1.203.994 2.196 2.196 2.196zM189.806 115.59h3.987c2.036 0 3.681 1.644 3.681 3.68 0 1.497-.896 2.736-2.086 3.312l2.086 2.086h-3.448l-1.766-1.767v1.767h-2.454v-9.078zm3.987 4.907c.675 0 1.227-.553 1.227-1.228 0-.674-.552-1.227-1.227-1.227h-1.533v2.454h1.533zM202.253 115.59h3.729v2.453h-3.729c-1.141 0-2.085.945-2.085 2.086s.944 2.086 2.085 2.086h1.276v-3.312h2.453v5.766h-3.729c-2.503 0-4.551-2.036-4.551-4.539s2.048-4.54 4.551-4.54zM206.519 115.59h6.134v2.453h-3.68v.859h3.066v2.453h-3.066v.859h3.68v2.453h-6.134v-9.077z"/></g><g fill="#fff"><path d="M219.445 115.344l4.81 9.324h-9.618l4.808-9.324zm.785 6.871l-.785-1.534-.797 1.534h1.582zM225.709 118.043h-1.84v-2.453h6.134v2.453h-1.84v6.625h-2.454v-6.625zM234.907 115.59h3.729v2.453h-3.729c-1.141 0-2.085.945-2.085 2.086s.944 2.086 2.085 2.086h1.276v-3.312h2.453v5.766h-3.729c-2.503 0-4.551-2.036-4.551-4.539s2.048-4.54 4.551-4.54zM239.172 115.59h2.453v5.214c0 .847.688 1.533 1.534 1.533s1.533-.687 1.533-1.533v-5.214h2.454v5.214c0 2.208-1.779 3.987-3.987 3.987s-3.987-1.779-3.987-3.987v-5.214z"/></g></g></g><g><circle fill="#E5007D" cx="323.845" cy="40.639" r="5.324"/><path fill="#fff" d="M326.758 39.939s-1.192-3.334-2.941-.394c-.163 0-2.762-.98-2.762-.98s1.668 2.942 1.766 3.039c.117.682-2.73.442-2.73.442s2.321 1.782 4.594 1.193c1.11 0 2.435-2.647 2.435-2.647l.752-.278-1.114-.375z"/><circle fill="#E5007D" cx="336.205" cy="40.846" r="5.324"/><path fill="#fff" d="M335.242 44.529v-3.556h-.666v-1.376h.597v-1.561s.145-.805 1.029-.757h1.633v1.422h-1.01v.896h1.01v1.308h-.963v3.625l-1.63-.001z"/><circle fill="#E5007D" cx="348.929" cy="40.903" r="5.324"/><g fill="#fff"><path d="M345.036 38.438h1.106v4.829h-1.106zM346.102 38.438h1.447v.857h-1.447zM346.102 42.408h1.447v.858h-1.447zM346.102 40.374h1.447v.744h-1.447zM347.549 43.266s1.533.049 1.533-1.426c0 0 .067-1.198-.904-1.198 0 0 .737-.056.737-.92s-.604-1.285-1.366-1.285c-.764 0-.725.429-.725.429l.543.428h.182s.341 0 .341.503c0 .502-.2.576-.429.576l-.314.372.402.372s.509-.007.509.663-.536.628-.67.628c-.135 0-.094.344-.094.344l.255.514zM351.129 39.667c-1.857 0-1.855 1.855-1.855 1.855s-.128 1.846 1.855 1.846c0 0 1.652.094 1.652-1.283h-.85s.028.519-.775.519c0 0-.85.056-.85-.84h2.502c.002-.002.275-2.097-1.679-2.097zm-.831 1.45s.104-.744.851-.744c.745 0 .735.744.735.744h-1.586zM350.09 38.722h1.992v.595h-1.992z"/></g><circle fill="#E5007D" cx="361.292" cy="40.903" r="5.324"/><g stroke="#fff" stroke-width=".6" stroke-miterlimit="10" fill="none"><circle cx="361.355" cy="40.937" r="3.511"/><path d="M363.051 44.012c-.396-3.156-3.258-6.217-3.258-6.217M357.894 40.373c4.025.837 5.608-2.215 5.608-2.215M358.732 43.267c2.03-3.243 6.135-2.185 6.135-2.185"/></g><path stroke="#BDC3C7" stroke-width="3" stroke-miterlimit="10" fill="none" d="M63 43.5h26M95 43.5h33M192 195.5h33M128 203.5h139M128 209.5h126M132 43.5h33M170 43.5h18"/></g><g><path fill="#2C3E50" d="M510.354 87.167h-73c-5.523 0-10 4.478-10 10v118c0 5.523 4.477 10 10 10h73c5.523 0 10-4.477 10-10v-118c0-5.523-4.476-10-10-10z"/><circle fill="#718799" cx="472.336" cy="213.975" r="4.145"/></g><g><path fill="#45BCD2" d="M431 109h85v38h-85z"/><path fill="#fff" d="M431 96h85v13h-85zM431 147h85v14h-85z"/><path fill="#34495E" d="M431 161h85v44h-85z"/><defs><path id="c" d="M473.729 124.132l-5.201-5.201 5.201-5.201 5.201 5.201z"/></defs><use xlink:href="#c" overflow="visible" fill="#1D1D1B"/><clipPath><use xlink:href="#c" overflow="visible"/></clipPath><use xlink:href="#c" overflow="visible" stroke="#fff" stroke-width="5" stroke-miterlimit="10" fill="none"/><path fill="#fff" d="M470.728 118.215l1.763-1.443.969 2.655.422 1.252h-1.854zM473.977 116.072l2.499 1.478-1.905 3.129h-2.035z"/><path stroke="#fff" stroke-miterlimit="10" fill="none" d="M471.056 120.679h5.143"/><defs><path id="d" d="M473.631 140.313l-5.242-5.242 5.242-5.242 5.242 5.242z"/></defs><use xlink:href="#d" overflow="visible" fill="#fff"/><clipPath><use xlink:href="#d" overflow="visible"/></clipPath><use xlink:href="#d" overflow="visible" stroke="#1D1D1B" stroke-width="5" stroke-miterlimit="10" fill="none"/><path fill="#1D1D1B" d="M470.624 134.337l1.777-1.454.977 2.676.426 1.262h-1.869zM473.899 132.177l2.518 1.49-1.919 3.154h-2.051z"/><path stroke="#1D1D1B" stroke-miterlimit="10" fill="none" d="M470.955 136.821h5.184"/><path fill="#D5A420" d="M474.801 109.952l-1.094 1.893-1.092-1.893z"/><path fill="#F0DBA5" d="M471.522 111.845l-1.092 1.893-1.093-1.893z"/><path fill="#E7C267" d="M470.43 113.738l1.092-1.893 1.093 1.893z"/><path fill="#E1AF11" d="M473.707 111.845l-1.092 1.893-1.093-1.893z"/><path fill="#DEAC12" d="M472.615 113.738l1.092-1.893 1.094 1.893z"/><path fill="#E1AF11" d="M475.893 111.845l-1.092 1.893-1.094-1.893z"/><path fill="#E7C36B" d="M474.801 113.738l1.092-1.893 1.092 1.893z"/><path fill="#F1DCA9" d="M478.078 111.845l-1.093 1.893-1.092-1.893z"/><path fill="#EDC44F" d="M470.43 113.738l-1.093 1.892-1.093-1.892z"/><path fill="#E8BA2B" d="M469.337 115.63l1.093-1.892 1.092 1.892z"/><path fill="#EEBE0F" d="M472.615 113.738l-1.093 1.892-1.092-1.892z"/><path fill="#EAB90C" d="M471.522 115.63l1.093-1.892 1.092 1.892z"/><path fill="#EEBE11" d="M474.801 113.738l-1.094 1.892-1.092-1.892z"/><path fill="#EAB90C" d="M473.707 115.63l1.094-1.892 1.092 1.892z"/><path fill="#EEBE0F" d="M476.985 113.738l-1.092 1.892-1.092-1.892z"/><path fill="#E9BC2F" d="M475.893 115.63l1.092-1.892 1.093 1.892z"/><path fill="#EFC754" d="M479.171 113.738l-1.093 1.892-1.093-1.892z"/><path fill="#F3E0AC" d="M466.059 117.522l1.092-1.892 1.093 1.892z"/><path fill="#EFC122" d="M469.337 115.63l-1.093 1.892-1.093-1.892z"/><path fill="#EFC120" d="M468.244 117.522l1.093-1.892 1.093 1.892z"/><path fill="#F0C538" d="M471.522 115.63l-1.092 1.892-1.093-1.892z"/><path fill="#F0C432" d="M470.43 117.522l1.092-1.892 1.093 1.892z"/><path fill="#F0C744" d="M473.707 115.63l-1.092 1.892-1.093-1.892z"/><path fill="#F0C537" d="M472.615 117.522l1.092-1.892 1.094 1.892z"/><path fill="#EFC746" d="M475.893 115.63l-1.092 1.892-1.094-1.892z"/><path fill="#F0C42F" d="M474.801 117.522l1.092-1.892 1.092 1.892z"/><path fill="#F0C537" d="M478.078 115.63l-1.093 1.892-1.092-1.892z"/><path fill="#EFC11C" d="M476.985 117.522l1.093-1.892 1.093 1.892z"/><path fill="#EFC122" d="M480.264 115.63l-1.093 1.892-1.093-1.892z"/><path fill="#F3E1B0" d="M479.171 117.522l1.093-1.892 1.092 1.892z"/><path fill="#F3DA95" d="M466.059 117.522l-1.093 1.894-1.093-1.894z"/><path fill="#F1CC5E" d="M464.966 119.416l1.093-1.894 1.092 1.894z"/><path fill="#F0C63A" d="M468.244 117.522l-1.093 1.894-1.092-1.894z"/><path fill="#EFC63E" d="M467.151 119.416l1.093-1.894 1.093 1.894z"/><path fill="#F0CC55" d="M470.43 117.522l-1.093 1.894-1.093-1.894z"/><path fill="#F0CC54" d="M469.337 119.416l1.093-1.894 1.092 1.894z"/><path fill="#F2D268" d="M472.615 117.522l-1.093 1.894-1.092-1.894z"/><path fill="#F0CF61" d="M471.522 119.416l1.093-1.894 1.092 1.894z"/><path fill="#CABA6E" d="M474.801 117.522l-1.094 1.894-1.092-1.894z"/><path fill="#688367" d="M473.707 119.416l1.094-1.894 1.092 1.894z"/><path fill="#3D7565" d="M476.985 117.522l-1.092 1.894-1.092-1.894z"/><path fill="#D7BB58" d="M475.893 119.416l1.092-1.894 1.093 1.894z"/><path fill="#D7BC59" d="M479.171 117.522l-1.093 1.894-1.093-1.894z"/><path fill="#EFC63C" d="M478.078 119.416l1.093-1.894 1.093 1.894z"/><path fill="#F0C538" d="M481.356 117.522l-1.092 1.894-1.093-1.894z"/><path fill="#F1CC61" d="M480.264 119.416l1.092-1.894 1.093 1.894z"/><path fill="#F3DB9A" d="M483.541 117.522l-1.092 1.894-1.093-1.894z"/><path fill="#F0C53A" d="M464.966 119.416l-1.093 1.892-1.092-1.892z"/><path fill="#F0C433" d="M463.873 121.308l1.093-1.892 1.093 1.892z"/><path fill="#F0C847" d="M467.151 119.416l-1.092 1.892-1.093-1.892z"/><path fill="#F0CB51" d="M466.059 121.308l1.092-1.892 1.093 1.892z"/><path fill="#D69943" d="M469.337 119.416l-1.093 1.892-1.093-1.892z"/><path fill="#CC893A" d="M468.244 121.308l1.093-1.892 1.093 1.892z"/><path fill="#DAAE5F" d="M471.522 119.416l-1.092 1.892-1.093-1.892z"/><path fill="#F1D880" d="M470.43 121.308l1.092-1.892 1.093 1.892z"/><path fill="#EDD98C" d="M473.707 119.416l-1.092 1.892-1.093-1.892z"/><path fill="#8C9B78" d="M472.615 121.308l1.092-1.892 1.094 1.892z"/><path fill="#196F68" d="M475.893 119.416l-1.092 1.892-1.094-1.892z"/><path fill="#096C64" d="M474.801 121.308l1.092-1.892 1.092 1.892z"/><path fill="#00675E" d="M478.078 119.416l-1.093 1.892-1.092-1.892z"/><path fill="#386B5B" d="M476.985 121.308l1.093-1.892 1.093 1.892z"/><path fill="#386655" d="M480.264 119.416l-1.093 1.892-1.093-1.892z"/><path fill="#D7B952" d="M479.171 121.308l1.093-1.892 1.092 1.892z"/><path fill="#D7B84B" d="M482.449 119.416l-1.093 1.892-1.092-1.892z"/><path fill="#F0C433" d="M481.356 121.308l1.093-1.892 1.092 1.892z"/><path fill="#F0C53D" d="M484.634 119.416l-1.093 1.892-1.092-1.892z"/><path fill="#F1D892" d="M460.596 123.2l1.092-1.892 1.093 1.892z"/><path fill="#EEBE14" d="M463.873 121.308l-1.092 1.892-1.093-1.892z"/><path fill="#F0C22A" d="M462.781 123.2l1.092-1.892 1.093 1.892z"/><path fill="#EFC34A" d="M466.059 121.308l-1.093 1.892-1.093-1.892z"/><path fill="#ECC157" d="M464.966 123.2l1.093-1.892 1.092 1.892z"/><path fill="#C3613A" d="M468.244 121.308l-1.093 1.892-1.092-1.892z"/><path fill="#B54E28" d="M467.151 123.2l1.093-1.892 1.093 1.892z"/><path fill="#A83E1D" d="M470.43 121.308l-1.093 1.892-1.093-1.892z"/><path fill="#B97136" d="M469.337 123.2l1.093-1.892 1.092 1.892z"/><path fill="#EDD48F" d="M472.615 121.308l-1.093 1.892-1.092-1.892z"/><path fill="#DDD296" d="M471.522 123.2l1.093-1.892 1.092 1.892z"/><path fill="#26746C" d="M474.801 121.308l-1.094 1.892-1.092-1.892z"/><path fill="#196F68" d="M473.707 123.2l1.094-1.892 1.092 1.892z"/><path fill="#096C64" d="M476.985 121.308l-1.092 1.892-1.092-1.892z"/><path fill="#00675E" d="M475.893 123.2l1.092-1.892 1.093 1.892z"/><path fill="#056158" d="M479.171 121.308l-1.093 1.892-1.093-1.892z"/><path fill="#015B51" d="M478.078 123.2l1.093-1.892 1.093 1.892z"/><path fill="#06554B" d="M481.356 121.308l-1.092 1.892-1.093-1.892z"/><path fill="#385D49" d="M480.264 123.2l1.092-1.892 1.093 1.892z"/><path fill="#8B8549" d="M483.541 121.308l-1.092 1.892-1.093-1.892z"/><path fill="#F0C228" d="M482.449 123.2l1.092-1.892 1.093 1.892z"/><path fill="#EEBE14" d="M485.727 121.308l-1.093 1.892-1.093-1.892z"/><path fill="#F1D898" d="M484.634 123.2l1.093-1.892 1.092 1.892z"/><path fill="#E7C777" d="M460.596 123.2l-1.093 1.893-1.093-1.893z"/><path fill="#E7BC46" d="M459.503 125.093l1.093-1.893 1.092 1.893z"/><path fill="#ECBA11" d="M462.781 123.2l-1.093 1.893-1.092-1.893z"/><path fill="#EFC120" d="M461.688 125.093l1.093-1.893 1.092 1.893z"/><path fill="#EAB451" d="M464.966 123.2l-1.093 1.893-1.092-1.893z"/><path fill="#DD8F5A" d="M463.873 125.093l1.093-1.893 1.093 1.893z"/><path fill="#CC6949" d="M467.151 123.2l-1.092 1.893-1.093-1.893z"/><path fill="#C15936" d="M466.059 125.093l1.092-1.893 1.093 1.893z"/><path fill="#B34A26" d="M469.337 123.2l-1.093 1.893-1.093-1.893z"/><path fill="#A83E1D" d="M468.244 125.093l1.093-1.893 1.093 1.893z"/><path fill="#98371B" d="M471.522 123.2l-1.092 1.893-1.093-1.893z"/><path fill="#D1A468" d="M470.43 125.093l1.092-1.893 1.093 1.893z"/><path fill="#7A9580" d="M473.707 123.2l-1.092 1.893-1.093-1.893z"/><path fill="#22736C" d="M472.615 125.093l1.092-1.893 1.094 1.893z"/><path fill="#196F68" d="M475.893 123.2l-1.092 1.893-1.094-1.893z"/><path fill="#096C64" d="M474.801 125.093l1.092-1.893 1.092 1.893z"/><path fill="#00675E" d="M478.078 123.2l-1.093 1.893-1.092-1.893z"/><path fill="#056158" d="M476.985 125.093l1.093-1.893 1.093 1.893z"/><path fill="#015B51" d="M480.264 123.2l-1.093 1.893-1.093-1.893z"/><path fill="#06554B" d="M479.171 125.093l1.093-1.893 1.092 1.893z"/><path fill="#7A8057" d="M482.449 123.2l-1.093 1.893-1.092-1.893z"/><path fill="#D7B954" d="M481.356 125.093l1.093-1.893 1.092 1.893z"/><path fill="#F0C73E" d="M484.634 123.2l-1.093 1.893-1.092-1.893z"/><path fill="#EFC11C" d="M483.541 125.093l1.093-1.893 1.093 1.893z"/><path fill="#ECBA0A" d="M486.819 123.2l-1.092 1.893-1.093-1.893z"/><path fill="#E7BC48" d="M485.727 125.093l1.092-1.893 1.093 1.893z"/><path fill="#E8CA7C" d="M489.005 123.2l-1.093 1.893-1.093-1.893z"/><path fill="#D7A725" d="M459.503 125.093l-1.093 1.893-1.093-1.893z"/><path fill="#DEAC16" d="M458.41 126.986l1.093-1.893 1.093 1.893z"/><path fill="#E4B40C" d="M461.688 125.093l-1.092 1.893-1.093-1.893z"/><path fill="#ECBC10" d="M460.596 126.986l1.092-1.893 1.093 1.893z"/><path fill="#F0C228" d="M463.873 125.093l-1.092 1.893-1.093-1.893z"/><path fill="#EFC348" d="M462.781 126.986l1.092-1.893 1.093 1.893z"/><path fill="#E19E5C" d="M466.059 125.093l-1.093 1.893-1.093-1.893z"/><path fill="#CC6949" d="M464.966 126.986l1.093-1.893 1.092 1.893z"/><path fill="#C15936" d="M468.244 125.093l-1.093 1.893-1.092-1.893z"/><path fill="#B34A26" d="M467.151 126.986l1.093-1.893 1.093 1.893z"/><path fill="#A83E1D" d="M470.43 125.093l-1.093 1.893-1.093-1.893z"/><path fill="#98371B" d="M469.337 126.986l1.093-1.893 1.092 1.893z"/><path fill="#804C2F" d="M472.615 125.093l-1.093 1.893-1.092-1.893z"/><path fill="#457A6F" d="M471.522 126.986l1.093-1.893 1.092 1.893z"/><path fill="#22736C" d="M474.801 125.093l-1.094 1.893-1.092-1.893z"/><path fill="#196F68" d="M473.707 126.986l1.094-1.893 1.092 1.893z"/><path fill="#096C64" d="M476.985 125.093l-1.092 1.893-1.092-1.893z"/><path fill="#00675E" d="M475.893 126.986l1.092-1.893 1.093 1.893z"/><path fill="#056158" d="M479.171 125.093l-1.093 1.893-1.093-1.893z"/><path fill="#015B51" d="M478.078 126.986l1.093-1.893 1.093 1.893z"/><path fill="#818A64" d="M481.356 125.093l-1.092 1.893-1.093-1.893z"/><path fill="#DDC56C" d="M480.264 126.986l1.092-1.893 1.093 1.893z"/><path fill="#F0CD5B" d="M483.541 125.093l-1.092 1.893-1.093-1.893z"/><path fill="#F0C743" d="M482.449 126.986l1.092-1.893 1.093 1.893z"/><path fill="#F0C226" d="M485.727 125.093l-1.093 1.893-1.093-1.893z"/><path fill="#ECBB10" d="M484.634 126.986l1.093-1.893 1.092 1.893z"/><path fill="#E4B30D" d="M487.912 125.093l-1.093 1.893-1.092-1.893z"/><path fill="#DEAC1A" d="M486.819 126.986l1.093-1.893 1.093 1.893z"/><path fill="#D7A727" d="M490.098 125.093l-1.093 1.893-1.093-1.893z"/><path fill="#E0BA5C" d="M457.317 128.878l1.093-1.892 1.093 1.892z"/><path fill="#E0B132" d="M460.596 126.986l-1.093 1.892-1.093-1.892z"/><path fill="#E4B30D" d="M459.503 128.878l1.093-1.892 1.092 1.892z"/><path fill="#ECBB10" d="M462.781 126.986l-1.093 1.892-1.092-1.892z"/><path fill="#F0C228" d="M461.688 128.878l1.093-1.892 1.092 1.892z"/><path fill="#F0C743" d="M464.966 126.986l-1.093 1.892-1.092-1.892z"/><path fill="#EEC45C" d="M463.873 128.878l1.093-1.892 1.093 1.892z"/><path fill="#D89254" d="M467.151 126.986l-1.092 1.892-1.093-1.892z"/><path fill="#C15936" d="M466.059 128.878l1.092-1.892 1.093 1.892z"/><path fill="#B34A26" d="M469.337 126.986l-1.093 1.892-1.093-1.892z"/><path fill="#A83E1D" d="M468.244 128.878l1.093-1.892 1.093 1.892z"/><path fill="#943F1F" d="M471.522 126.986l-1.092 1.892-1.093-1.892z"/><path fill="#686650" d="M470.43 128.878l1.092-1.892 1.093 1.892z"/><path fill="#2C7670" d="M473.707 126.986l-1.092 1.892-1.093-1.892z"/><path fill="#22736C" d="M472.615 128.878l1.092-1.892 1.094 1.892z"/><path fill="#196F68" d="M475.893 126.986l-1.092 1.892-1.094-1.892z"/><path fill="#096C64" d="M474.801 128.878l1.092-1.892 1.092 1.892z"/><path fill="#00675E" d="M478.078 126.986l-1.093 1.892-1.092-1.892z"/><path fill="#056158" d="M476.985 128.878l1.093-1.892 1.093 1.892z"/><path fill="#8F9670" d="M480.264 126.986l-1.093 1.892-1.093-1.892z"/><path fill="#E1CD80" d="M479.171 128.878l1.093-1.892 1.092 1.892z"/><path fill="#F1D370" d="M482.449 126.986l-1.093 1.892-1.092-1.892z"/><path fill="#F0CD5A" d="M481.356 128.878l1.093-1.892 1.092 1.892z"/><path fill="#F0C741" d="M484.634 126.986l-1.093 1.892-1.092-1.892z"/><path fill="#F0C226" d="M483.541 128.878l1.093-1.892 1.093 1.892z"/><path fill="#ECBB0A" d="M486.819 126.986l-1.092 1.892-1.093-1.892z"/><path fill="#E4B30D" d="M485.727 128.878l1.092-1.892 1.093 1.892z"/><path fill="#E0B237" d="M489.005 126.986l-1.093 1.892-1.093-1.892z"/><path fill="#E2BC61" d="M487.912 128.878l1.093-1.892 1.093 1.892z"/><path fill="#EAC974" d="M461.688 128.878l-1.092 1.893-1.093-1.893z"/><path fill="#EAB90C" d="M460.596 130.771l1.092-1.893 1.093 1.893z"/><path fill="#EFC11A" d="M463.873 128.878l-1.092 1.893-1.093-1.893z"/><path fill="#F0C63C" d="M462.781 130.771l1.092-1.893 1.093 1.893z"/><path fill="#F0CB50" d="M466.059 128.878l-1.093 1.893-1.093-1.893z"/><path fill="#EAC163" d="M464.966 130.771l1.093-1.893 1.092 1.893z"/><path fill="#CE8044" d="M468.244 128.878l-1.093 1.893-1.092-1.893z"/><path fill="#B34A26" d="M467.151 130.771l1.093-1.893 1.093 1.893z"/><path fill="#A83E1D" d="M470.43 128.878l-1.093 1.893-1.093-1.893z"/><path fill="#8C502F" d="M469.337 130.771l1.093-1.893 1.092 1.893z"/><path fill="#327A74" d="M472.615 128.878l-1.093 1.893-1.092-1.893z"/><path fill="#2C7670" d="M471.522 130.771l1.093-1.893 1.092 1.893z"/><path fill="#22736C" d="M474.801 128.878l-1.094 1.893-1.092-1.893z"/><path fill="#196F68" d="M473.707 130.771l1.094-1.893 1.092 1.893z"/><path fill="#096C64" d="M476.985 128.878l-1.092 1.893-1.092-1.893z"/><path fill="#00675E" d="M475.893 130.771l1.092-1.893 1.093 1.893z"/><path fill="#99A077" d="M479.171 128.878l-1.093 1.893-1.093-1.893z"/><path fill="#E5D288" d="M478.078 130.771l1.093-1.893 1.093 1.893z"/><path fill="#F1D577" d="M481.356 128.878l-1.092 1.893-1.093-1.893z"/><path fill="#F2D268" d="M480.264 130.771l1.092-1.893 1.093 1.893z"/><path fill="#F0CB50" d="M483.541 128.878l-1.092 1.893-1.093-1.893z"/><path fill="#F0C63A" d="M482.449 130.771l1.092-1.893 1.093 1.893z"/><path fill="#EFBF18" d="M485.727 128.878l-1.093 1.893-1.093-1.893z"/><path fill="#EAB90C" d="M484.634 130.771l1.093-1.893 1.092 1.893z"/><path fill="#EBCB78" d="M487.912 128.878l-1.093 1.893-1.092-1.893z"/><path fill="#EEBF22" d="M461.688 132.664l1.093-1.893 1.092 1.893z"/><path fill="#EFC127" d="M464.966 130.771l-1.093 1.893-1.092-1.893z"/><path fill="#EFC643" d="M463.873 132.664l1.093-1.893 1.093 1.893z"/><path fill="#C9A74D" d="M467.151 130.771l-1.092 1.893-1.093-1.893z"/><path fill="#DFB35A" d="M466.059 132.664l1.092-1.893 1.093 1.893z"/><path fill="#AB6A36" d="M469.337 130.771l-1.093 1.893-1.093-1.893z"/><path fill="#A5401E" d="M468.244 132.664l1.093-1.893 1.093 1.893z"/><path fill="#6B755F" d="M471.522 130.771l-1.092 1.893-1.093-1.893z"/><path fill="#357872" d="M470.43 132.664l1.092-1.893 1.093 1.893z"/><path fill="#577565" d="M473.707 130.771l-1.092 1.893-1.093-1.893z"/><path fill="#27716A" d="M472.615 132.664l1.092-1.893 1.094 1.893z"/><path fill="#507060" d="M475.893 130.771l-1.092 1.893-1.094-1.893z"/><path fill="#196A62" d="M474.801 132.664l1.092-1.893 1.092 1.893z"/><path fill="#908F68" d="M478.078 130.771l-1.093 1.893-1.092-1.893z"/><path fill="#E1CD83" d="M476.985 132.664l1.093-1.893 1.093 1.893z"/><path fill="#CAAF63" d="M480.264 130.771l-1.093 1.893-1.093-1.893z"/><path fill="#E9CA69" d="M479.171 132.664l1.093-1.893 1.092 1.893z"/><path fill="#D4B14B" d="M482.449 130.771l-1.093 1.893-1.092-1.893z"/><path fill="#F0C741" d="M481.356 132.664l1.093-1.893 1.092 1.893z"/><path fill="#EFC127" d="M484.634 130.771l-1.093 1.893-1.092-1.893z"/><path fill="#EEBF24" d="M483.541 132.664l1.093-1.893 1.093 1.893z"/><path fill="#F2D279" d="M462.781 134.556l1.092-1.892 1.093 1.892z"/><path fill="#F0C84B" d="M466.059 132.664l-1.093 1.892-1.093-1.892z"/><path fill="#F0C73F" d="M464.966 134.556l1.093-1.892 1.092 1.892z"/><path fill="#F0C846" d="M468.244 132.664l-1.093 1.892-1.092-1.892z"/><path fill="#F0CF61" d="M467.151 134.556l1.093-1.892 1.093 1.892z"/><path fill="#F1D063" d="M470.43 132.664l-1.093 1.892-1.093-1.892z"/><path fill="#F1D678" d="M469.337 134.556l1.093-1.892 1.092 1.892z"/><path fill="#F1D576" d="M472.615 132.664l-1.093 1.892-1.092-1.892z"/><path fill="#F2DA85" d="M471.522 134.556l1.093-1.892 1.092 1.892z"/><path fill="#F1D67B" d="M474.801 132.664l-1.094 1.892-1.092-1.892z"/><path fill="#F2DA85" d="M473.707 134.556l1.094-1.892 1.092 1.892z"/><path fill="#F1D576" d="M476.985 132.664l-1.092 1.892-1.092-1.892z"/><path fill="#F1D578" d="M475.893 134.556l1.092-1.892 1.093 1.892z"/><path fill="#F0CF62" d="M479.171 132.664l-1.093 1.892-1.093-1.892z"/><path fill="#F0CF61" d="M478.078 134.556l1.093-1.892 1.093 1.892z"/><path fill="#F0C846" d="M481.356 132.664l-1.092 1.892-1.093-1.892z"/><path fill="#EFC63E" d="M480.264 134.556l1.092-1.892 1.093 1.892z"/><path fill="#F0C84D" d="M483.541 132.664l-1.092 1.892-1.093-1.892z"/><path fill="#F3D47D" d="M482.449 134.556l1.092-1.892 1.093 1.892z"/><path fill="#F3D991" d="M467.151 134.556l-1.092 1.893-1.093-1.893z"/><path fill="#F0C42E" d="M466.059 136.449l1.092-1.893 1.093 1.893z"/><path fill="#F0C432" d="M469.337 134.556l-1.093 1.893-1.093-1.893z"/><path fill="#F0C94B" d="M468.244 136.449l1.093-1.893 1.093 1.893z"/><path fill="#F0C847" d="M471.522 134.556l-1.092 1.893-1.093-1.893z"/><path fill="#F0CD5B" d="M470.43 136.449l1.092-1.893 1.093 1.893z"/><path fill="#F0CC54" d="M473.707 134.556l-1.092 1.893-1.093-1.893z"/><path fill="#F0CF62" d="M472.615 136.449l1.092-1.893 1.094 1.893z"/><path fill="#F0CC54" d="M475.893 134.556l-1.092 1.893-1.094-1.893z"/><path fill="#F0CD5B" d="M474.801 136.449l1.092-1.893 1.092 1.893z"/><path fill="#F0C847" d="M478.078 134.556l-1.093 1.893-1.092-1.893z"/><path fill="#F0C94B" d="M476.985 136.449l1.093-1.893 1.093 1.893z"/><path fill="#F0C42F" d="M480.264 134.556l-1.093 1.893-1.093-1.893z"/><path fill="#F0C32C" d="M479.171 136.449l1.093-1.893 1.092 1.893z"/><path fill="#F2DA96" d="M482.449 134.556l-1.093 1.893-1.092-1.893z"/><path fill="#F0C233" d="M467.151 138.341l1.093-1.892 1.093 1.892z"/><path fill="#EEBF20" d="M470.43 136.449l-1.093 1.892-1.093-1.892z"/><path fill="#F0C329" d="M469.337 138.341l1.093-1.892 1.092 1.892z"/><path fill="#EFC122" d="M472.615 136.449l-1.093 1.892-1.092-1.892z"/><path fill="#F0C435" d="M471.522 138.341l1.093-1.892 1.092 1.892z"/><path fill="#F0C226" d="M474.801 136.449l-1.094 1.892-1.092-1.892z"/><path fill="#F0C435" d="M473.707 138.341l1.094-1.892 1.092 1.892z"/><path fill="#EFC120" d="M476.985 136.449l-1.092 1.892-1.092-1.892z"/><path fill="#F0C22A" d="M475.893 138.341l1.092-1.892 1.093 1.892z"/><path fill="#EEBF22" d="M479.171 136.449l-1.093 1.892-1.093-1.892z"/><path fill="#F0C337" d="M478.078 138.341l1.093-1.892 1.093 1.892z"/><path fill="#F0D58E" d="M468.244 140.233l1.093-1.892 1.093 1.892z"/><path fill="#E9C153" d="M471.522 138.341l-1.092 1.892-1.093-1.892z"/><path fill="#E9B90D" d="M470.43 140.233l1.092-1.892 1.093 1.892z"/><path fill="#E6B30C" d="M473.707 138.341l-1.092 1.892-1.093-1.892z"/><path fill="#EABA0C" d="M472.615 140.233l1.092-1.892 1.094 1.892z"/><path fill="#E6B30C" d="M475.893 138.341l-1.092 1.892-1.094-1.892z"/><path fill="#E9B90D" d="M474.801 140.233l1.092-1.892 1.092 1.892z"/><path fill="#EAC258" d="M478.078 138.341l-1.093 1.892-1.092-1.892z"/><path fill="#F0D693" d="M476.985 140.233l1.093-1.892 1.093 1.892z"/><path fill="#DDAB13" d="M471.522 142.126l1.093-1.893 1.092 1.893z"/><path fill="#DAA815" d="M474.801 140.233l-1.094 1.893-1.092-1.893z"/><path fill="#DDAB13" d="M473.707 142.126l1.094-1.893 1.092 1.893z"/><path fill="#DEBA64" d="M472.615 144.019l1.092-1.893 1.094 1.893z"/><g fill="#fff"><path d="M464.438 127.024c0 .172.141.313.312.313s.312-.141.312-.313v-.782h-.312v-.626h.938v1.408c0 .52-.418.938-.938.938s-.939-.419-.939-.938h.627zM466.971 125.585c.656 0 1.188.532 1.188 1.189s-.531 1.188-1.188 1.188c-.658 0-1.189-.532-1.189-1.188-.001-.657.53-1.189 1.189-1.189zm-.004 1.752c.311 0 .564-.253.564-.56 0-.31-.254-.563-.564-.563-.307 0-.559.253-.559.563 0 .307.252.56.559.56zM468.254 125.617h1.016c.52 0 .939.419.939.938 0 .382-.229.698-.533.845l.533.532h-.879l-.451-.45v.45h-.625v-2.315zm1.016 1.251c.172 0 .312-.141.312-.313 0-.172-.141-.312-.312-.312h-.391v.625h.391zM471.432 125.617h.951v.626h-.951c-.291 0-.531.241-.531.532 0 .291.24.532.531.532h.324v-.845h.627v1.47h-.951c-.639 0-1.16-.519-1.16-1.157s.521-1.158 1.16-1.158zM472.523 125.617h1.564v.626h-.938v.219h.781v.625h-.781v.219h.938v.625h-1.564v-2.314z"/></g><g fill="#fff"><path d="M475.824 125.554l1.227 2.377h-2.453l1.226-2.377zm.199 1.752l-.199-.391-.203.391h.402zM477.426 126.243h-.469v-.626h1.564v.626h-.471v1.689h-.625v-1.689zM479.773 125.617h.951v.626h-.951c-.291 0-.531.241-.531.532 0 .291.24.532.531.532h.326v-.845h.625v1.47h-.951c-.637 0-1.16-.519-1.16-1.157s.524-1.158 1.16-1.158zM480.865 125.617h.627v1.33c0 .216.174.391.391.391.215 0 .391-.175.391-.391v-1.33h.625v1.33c0 .563-.453 1.017-1.016 1.017-.564 0-1.018-.454-1.018-1.017v-1.33z"/></g><path stroke="#BDC3C7" stroke-width="3" stroke-miterlimit="10" fill="none" d="M434 102.5h25"/><path stroke="#BDC3C7" stroke-width="2" stroke-miterlimit="10" fill="none" d="M465 151h20"/><path stroke="#fff" stroke-miterlimit="10" fill="none" d="M472 172.5h39M472 175.5h39M472 178.5h39M472 181.5h39"/><path stroke="#BDC3C7" stroke-width="2" stroke-miterlimit="10" fill="none" d="M446 155h53"/></g><g><circle fill="#E5007D" cx="483.213" cy="102.453" r="3.692"/><path fill="#fff" d="M485.232 101.967s-.827-2.312-2.04-.273c-.112 0-1.915-.68-1.915-.68s1.157 2.04 1.225 2.107c.081.473-1.894.307-1.894.307s1.61 1.236 3.186.827c.771 0 1.688-1.836 1.688-1.836l.521-.193-.771-.259z"/><circle fill="#E5007D" cx="491.784" cy="102.596" r="3.692"/><path fill="#fff" d="M491.116 105.15v-2.466h-.462v-.955h.414v-1.082s.1-.558.714-.525h1.132v.986h-.7v.621h.7v.907h-.668v2.514h-1.13z"/><circle fill="#E5007D" cx="500.607" cy="102.635" r="3.693"/><g fill="#fff"><path d="M497.908 100.926h.768v3.349h-.768zM498.646 100.926h1.004v.595h-1.004zM498.646 103.679h1.004v.595h-1.004zM498.646 102.268h1.004v.516h-1.004zM499.65 104.274s1.063.034 1.063-.989c0 0 .047-.831-.627-.831 0 0 .511-.039.511-.638s-.418-.891-.947-.891l-.502.297.376.297h.126s.236 0 .236.349c0 .348-.139.399-.297.399l-.219.258.279.258s.354-.005.354.459c0 .465-.372.436-.465.436-.094 0-.065.238-.065.238l.177.358zM502.133 101.778c-1.287 0-1.286 1.287-1.286 1.287s-.089 1.28 1.286 1.28c0 0 1.146.065 1.146-.89h-.59s.021.36-.537.36c0 0-.589.039-.589-.583h1.734c.002-.001.191-1.454-1.164-1.454zm-.576 1.006s.073-.516.59-.516c.518 0 .511.516.511.516h-1.101zM501.413 101.123h1.381v.413h-1.381z"/></g><circle fill="#E5007D" cx="509.182" cy="102.635" r="3.693"/><g stroke="#fff" stroke-width=".6" stroke-miterlimit="10" fill="none"><circle cx="509.226" cy="102.659" r="2.435"/><path d="M510.4 104.791c-.273-2.188-2.259-4.312-2.259-4.312M506.824 102.268c2.792.581 3.89-1.536 3.89-1.536M507.406 104.274c1.408-2.249 4.254-1.515 4.254-1.515"/></g></g><g><ellipse cx="579.624" cy="215.119" rx="34.5" ry="3" fill="none"/><path fill="#2C3E50" d="M599.124 91.12h-38c-5.523 0-10 4.478-10 10v104c0 5.523 4.477 10 10 10h38c5.523 0 10-4.477 10-10v-104c0-5.523-4.477-10-10-10z"/><circle fill="#718799" cx="580.124" cy="206.095" r="4.146"/></g><g><path fill="#45BCD2" d="M555 118h50v23h-50z"/><path fill="#fff" d="M555 110h50v8h-50zM555 141h50v7h-50z"/><path fill="#34495E" d="M555 148h50v26h-50z"/><path fill="#E74C3C" d="M555 174h50v23h-50z"/><defs><path id="e" d="M580.16 126.555l-3.066-3.066 3.066-3.066 3.066 3.066z"/></defs><use xlink:href="#e" overflow="visible" fill="#1D1D1B"/><clipPath><use xlink:href="#e" overflow="visible"/></clipPath><use xlink:href="#e" overflow="visible" stroke="#fff" stroke-width="5" stroke-miterlimit="10" fill="none"/><path fill="#fff" d="M578.42 123.096l1.04-.851.57 1.565.249.738h-1.092zM580.334 121.833l1.475.871-1.123 1.844h-1.201z"/><path stroke="#fff" stroke-miterlimit="10" fill="none" d="M578.613 124.548h3.033"/><defs><path id="f" d="M580.141 136.121l-3.092-3.091 3.09-3.091 3.092 3.091z"/></defs><use xlink:href="#f" overflow="visible" fill="#fff"/><clipPath><use xlink:href="#f" overflow="visible"/></clipPath><use xlink:href="#f" overflow="visible" stroke="#1D1D1B" stroke-width="5" stroke-miterlimit="10" fill="none"/><path fill="#1D1D1B" d="M578.358 132.6l1.048-.857.576 1.577.251.744h-1.102zM580.29 131.327l1.483.878-1.13 1.859h-1.209z"/><path stroke="#1D1D1B" stroke-miterlimit="10" fill="none" d="M578.555 134.064h3.054"/><path fill="#D5A420" d="M580.82 118.225l-.644 1.116-.644-1.116z"/><path fill="#F0DBA5" d="M578.889 119.341l-.645 1.116-.644-1.116z"/><path fill="#E7C267" d="M578.244 120.457l.645-1.116.643 1.116z"/><path fill="#E1AF11" d="M580.176 119.341l-.644 1.116-.643-1.116z"/><path fill="#DEAC12" d="M579.532 120.457l.644-1.116.644 1.116z"/><path fill="#E1AF11" d="M581.465 119.341l-.645 1.116-.644-1.116z"/><path fill="#E7C36B" d="M580.82 120.457l.645-1.116.643 1.116z"/><path fill="#F1DCA9" d="M582.753 119.341l-.645 1.116-.643-1.116z"/><path fill="#EDC44F" d="M578.244 120.457l-.644 1.115-.644-1.115z"/><path fill="#E8BA2B" d="M577.6 121.572l.644-1.115.645 1.115z"/><path fill="#EEBE0F" d="M579.532 120.457l-.643 1.115-.645-1.115z"/><path fill="#EAB90C" d="M578.889 121.572l.643-1.115.644 1.115z"/><path fill="#EEBE11" d="M580.82 120.457l-.644 1.115-.644-1.115z"/><path fill="#EAB90C" d="M580.176 121.572l.644-1.115.645 1.115z"/><path fill="#EEBE0F" d="M582.108 120.457l-.643 1.115-.645-1.115z"/><path fill="#E9BC2F" d="M581.465 121.572l.643-1.115.645 1.115z"/><path fill="#EFC754" d="M583.396 120.457l-.643 1.115-.645-1.115z"/><path fill="#F3E0AC" d="M575.667 122.688l.645-1.116.644 1.116z"/><path fill="#EFC122" d="M577.6 121.572l-.644 1.116-.644-1.116z"/><path fill="#EFC120" d="M576.956 122.688l.644-1.116.644 1.116z"/><path fill="#F0C538" d="M578.889 121.572l-.645 1.116-.644-1.116z"/><path fill="#F0C432" d="M578.244 122.688l.645-1.116.643 1.116z"/><path fill="#F0C744" d="M580.176 121.572l-.644 1.116-.643-1.116z"/><path fill="#F0C537" d="M579.532 122.688l.644-1.116.644 1.116z"/><path fill="#EFC746" d="M581.465 121.572l-.645 1.116-.644-1.116z"/><path fill="#F0C42F" d="M580.82 122.688l.645-1.116.643 1.116z"/><path fill="#F0C537" d="M582.753 121.572l-.645 1.116-.643-1.116z"/><path fill="#EFC11C" d="M582.108 122.688l.645-1.116.643 1.116z"/><path fill="#EFC122" d="M584.042 121.572l-.646 1.116-.643-1.116z"/><path fill="#F3E1B0" d="M583.396 122.688l.646-1.116.644 1.116z"/><path fill="#F3DA95" d="M575.667 122.688l-.644 1.116-.644-1.116z"/><path fill="#F1CC5E" d="M575.023 123.804l.644-1.116.645 1.116z"/><path fill="#F0C63A" d="M576.956 122.688l-.644 1.116-.645-1.116z"/><path fill="#EFC63E" d="M576.312 123.804l.644-1.116.644 1.116z"/><path fill="#F0CC55" d="M578.244 122.688l-.644 1.116-.644-1.116z"/><path fill="#F0CC54" d="M577.6 123.804l.644-1.116.645 1.116z"/><path fill="#F2D268" d="M579.532 122.688l-.643 1.116-.645-1.116z"/><path fill="#F0CF61" d="M578.889 123.804l.643-1.116.644 1.116z"/><path fill="#CABA6E" d="M580.82 122.688l-.644 1.116-.644-1.116z"/><path fill="#688367" d="M580.176 123.804l.644-1.116.645 1.116z"/><path fill="#3D7565" d="M582.108 122.688l-.643 1.116-.645-1.116z"/><path fill="#D7BB58" d="M581.465 123.804l.643-1.116.645 1.116z"/><path fill="#D7BC59" d="M583.396 122.688l-.643 1.116-.645-1.116z"/><path fill="#EFC63C" d="M582.753 123.804l.643-1.116.646 1.116z"/><path fill="#F0C538" d="M584.686 122.688l-.644 1.116-.646-1.116z"/><path fill="#F1CC61" d="M584.042 123.804l.644-1.116.643 1.116z"/><path fill="#F3DB9A" d="M585.974 122.688l-.645 1.116-.643-1.116z"/><path fill="#F0C53A" d="M575.023 123.804l-.644 1.115-.645-1.115z"/><path fill="#F0C433" d="M574.379 124.919l.644-1.115.644 1.115z"/><path fill="#F0C847" d="M576.312 123.804l-.645 1.115-.644-1.115z"/><path fill="#F0CB51" d="M575.667 124.919l.645-1.115.644 1.115z"/><path fill="#D69943" d="M577.6 123.804l-.644 1.115-.644-1.115z"/><path fill="#CC893A" d="M576.956 124.919l.644-1.115.644 1.115z"/><path fill="#DAAE5F" d="M578.889 123.804l-.645 1.115-.644-1.115z"/><path fill="#F1D880" d="M578.244 124.919l.645-1.115.643 1.115z"/><path fill="#EDD98C" d="M580.176 123.804l-.644 1.115-.643-1.115z"/><path fill="#8C9B78" d="M579.532 124.919l.644-1.115.644 1.115z"/><path fill="#196F68" d="M581.465 123.804l-.645 1.115-.644-1.115z"/><path fill="#096C64" d="M580.82 124.919l.645-1.115.643 1.115z"/><path fill="#00675E" d="M582.753 123.804l-.645 1.115-.643-1.115z"/><path fill="#386B5B" d="M582.108 124.919l.645-1.115.643 1.115z"/><path fill="#386655" d="M584.042 123.804l-.646 1.115-.643-1.115z"/><path fill="#D7B952" d="M583.396 124.919l.646-1.115.644 1.115z"/><path fill="#D7B84B" d="M585.329 123.804l-.643 1.115-.644-1.115z"/><path fill="#F0C433" d="M584.686 124.919l.643-1.115.645 1.115z"/><path fill="#F0C53D" d="M586.617 123.804l-.643 1.115-.645-1.115z"/><path fill="#F1D892" d="M572.447 126.035l.644-1.116.643 1.116z"/><path fill="#EEBE14" d="M574.379 124.919l-.645 1.116-.643-1.116z"/><path fill="#F0C22A" d="M573.734 126.035l.645-1.116.644 1.116z"/><path fill="#EFC34A" d="M575.667 124.919l-.644 1.116-.644-1.116z"/><path fill="#ECC157" d="M575.023 126.035l.644-1.116.645 1.116z"/><path fill="#C3613A" d="M576.956 124.919l-.644 1.116-.645-1.116z"/><path fill="#B54E28" d="M576.312 126.035l.644-1.116.644 1.116z"/><path fill="#A83E1D" d="M578.244 124.919l-.644 1.116-.644-1.116z"/><path fill="#B97136" d="M577.6 126.035l.644-1.116.645 1.116z"/><path fill="#EDD48F" d="M579.532 124.919l-.643 1.116-.645-1.116z"/><path fill="#DDD296" d="M578.889 126.035l.643-1.116.644 1.116z"/><path fill="#26746C" d="M580.82 124.919l-.644 1.116-.644-1.116z"/><path fill="#196F68" d="M580.176 126.035l.644-1.116.645 1.116z"/><path fill="#096C64" d="M582.108 124.919l-.643 1.116-.645-1.116z"/><path fill="#00675E" d="M581.465 126.035l.643-1.116.645 1.116z"/><path fill="#056158" d="M583.396 124.919l-.643 1.116-.645-1.116z"/><path fill="#015B51" d="M582.753 126.035l.643-1.116.646 1.116z"/><path fill="#06554B" d="M584.686 124.919l-.644 1.116-.646-1.116z"/><path fill="#385D49" d="M584.042 126.035l.644-1.116.643 1.116z"/><path fill="#8B8549" d="M585.974 124.919l-.645 1.116-.643-1.116z"/><path fill="#F0C228" d="M585.329 126.035l.645-1.116.643 1.116z"/><path fill="#EEBE14" d="M587.262 124.919l-.645 1.116-.643-1.116z"/><path fill="#F1D898" d="M586.617 126.035l.645-1.116.643 1.116z"/><path fill="#E7C777" d="M572.447 126.035l-.644 1.115-.645-1.115z"/><path fill="#E7BC46" d="M571.803 127.15l.644-1.115.644 1.115z"/><path fill="#ECBA11" d="M573.734 126.035l-.643 1.115-.644-1.115z"/><path fill="#EFC120" d="M573.091 127.15l.643-1.115.645 1.115z"/><path fill="#EAB451" d="M575.023 126.035l-.644 1.115-.645-1.115z"/><path fill="#DD8F5A" d="M574.379 127.15l.644-1.115.644 1.115z"/><path fill="#CC6949" d="M576.312 126.035l-.645 1.115-.644-1.115z"/><path fill="#C15936" d="M575.667 127.15l.645-1.115.644 1.115z"/><path fill="#B34A26" d="M577.6 126.035l-.644 1.115-.644-1.115z"/><path fill="#A83E1D" d="M576.956 127.15l.644-1.115.644 1.115z"/><path fill="#98371B" d="M578.889 126.035l-.645 1.115-.644-1.115z"/><path fill="#D1A468" d="M578.244 127.15l.645-1.115.643 1.115z"/><path fill="#7A9580" d="M580.176 126.035l-.644 1.115-.643-1.115z"/><path fill="#22736C" d="M579.532 127.15l.644-1.115.644 1.115z"/><path fill="#196F68" d="M581.465 126.035l-.645 1.115-.644-1.115z"/><path fill="#096C64" d="M580.82 127.15l.645-1.115.643 1.115z"/><path fill="#00675E" d="M582.753 126.035l-.645 1.115-.643-1.115z"/><path fill="#056158" d="M582.108 127.15l.645-1.115.643 1.115z"/><path fill="#015B51" d="M584.042 126.035l-.646 1.115-.643-1.115z"/><path fill="#06554B" d="M583.396 127.15l.646-1.115.644 1.115z"/><path fill="#7A8057" d="M585.329 126.035l-.643 1.115-.644-1.115z"/><path fill="#D7B954" d="M584.686 127.15l.643-1.115.645 1.115z"/><path fill="#F0C73E" d="M586.617 126.035l-.643 1.115-.645-1.115z"/><path fill="#EFC11C" d="M585.974 127.15l.643-1.115.645 1.115z"/><path fill="#ECBA0A" d="M587.905 126.035l-.643 1.115-.645-1.115z"/><path fill="#E7BC48" d="M587.262 127.15l.643-1.115.646 1.115z"/><path fill="#E8CA7C" d="M589.194 126.035l-.643 1.115-.646-1.115z"/><path fill="#D7A725" d="M571.803 127.15l-.645 1.117-.643-1.117z"/><path fill="#DEAC16" d="M571.158 128.267l.645-1.117.644 1.117z"/><path fill="#E4B40C" d="M573.091 127.15l-.644 1.117-.644-1.117z"/><path fill="#ECBC10" d="M572.447 128.267l.644-1.117.643 1.117z"/><path fill="#F0C228" d="M574.379 127.15l-.645 1.117-.643-1.117z"/><path fill="#EFC348" d="M573.734 128.267l.645-1.117.644 1.117z"/><path fill="#E19E5C" d="M575.667 127.15l-.644 1.117-.644-1.117z"/><path fill="#CC6949" d="M575.023 128.267l.644-1.117.645 1.117z"/><path fill="#C15936" d="M576.956 127.15l-.644 1.117-.645-1.117z"/><path fill="#B34A26" d="M576.312 128.267l.644-1.117.644 1.117z"/><path fill="#A83E1D" d="M578.244 127.15l-.644 1.117-.644-1.117z"/><path fill="#98371B" d="M577.6 128.267l.644-1.117.645 1.117z"/><path fill="#804C2F" d="M579.532 127.15l-.643 1.117-.645-1.117z"/><path fill="#457A6F" d="M578.889 128.267l.643-1.117.644 1.117z"/><path fill="#22736C" d="M580.82 127.15l-.644 1.117-.644-1.117z"/><path fill="#196F68" d="M580.176 128.267l.644-1.117.645 1.117z"/><path fill="#096C64" d="M582.108 127.15l-.643 1.117-.645-1.117z"/><path fill="#00675E" d="M581.465 128.267l.643-1.117.645 1.117z"/><path fill="#056158" d="M583.396 127.15l-.643 1.117-.645-1.117z"/><path fill="#015B51" d="M582.753 128.267l.643-1.117.646 1.117z"/><path fill="#818A64" d="M584.686 127.15l-.644 1.117-.646-1.117z"/><path fill="#DDC56C" d="M584.042 128.267l.644-1.117.643 1.117z"/><path fill="#F0CD5B" d="M585.974 127.15l-.645 1.117-.643-1.117z"/><path fill="#F0C743" d="M585.329 128.267l.645-1.117.643 1.117z"/><path fill="#F0C226" d="M587.262 127.15l-.645 1.117-.643-1.117z"/><path fill="#ECBB10" d="M586.617 128.267l.645-1.117.643 1.117z"/><path fill="#E4B30D" d="M588.551 127.15l-.646 1.117-.643-1.117z"/><path fill="#DEAC1A" d="M587.905 128.267l.646-1.117.643 1.117z"/><path fill="#D7A727" d="M589.839 127.15l-.645 1.117-.643-1.117z"/><path fill="#E0BA5C" d="M570.515 129.382l.643-1.115.645 1.115z"/><path fill="#E0B132" d="M572.447 128.267l-.644 1.115-.645-1.115z"/><path fill="#E4B30D" d="M571.803 129.382l.644-1.115.644 1.115z"/><path fill="#ECBB10" d="M573.734 128.267l-.643 1.115-.644-1.115z"/><path fill="#F0C228" d="M573.091 129.382l.643-1.115.645 1.115z"/><path fill="#F0C743" d="M575.023 128.267l-.644 1.115-.645-1.115z"/><path fill="#EEC45C" d="M574.379 129.382l.644-1.115.644 1.115z"/><path fill="#D89254" d="M576.312 128.267l-.645 1.115-.644-1.115z"/><path fill="#C15936" d="M575.667 129.382l.645-1.115.644 1.115z"/><path fill="#B34A26" d="M577.6 128.267l-.644 1.115-.644-1.115z"/><path fill="#A83E1D" d="M576.956 129.382l.644-1.115.644 1.115z"/><path fill="#943F1F" d="M578.889 128.267l-.645 1.115-.644-1.115z"/><path fill="#686650" d="M578.244 129.382l.645-1.115.643 1.115z"/><path fill="#2C7670" d="M580.176 128.267l-.644 1.115-.643-1.115z"/><path fill="#22736C" d="M579.532 129.382l.644-1.115.644 1.115z"/><path fill="#196F68" d="M581.465 128.267l-.645 1.115-.644-1.115z"/><path fill="#096C64" d="M580.82 129.382l.645-1.115.643 1.115z"/><path fill="#00675E" d="M582.753 128.267l-.645 1.115-.643-1.115z"/><path fill="#056158" d="M582.108 129.382l.645-1.115.643 1.115z"/><path fill="#8F9670" d="M584.042 128.267l-.646 1.115-.643-1.115z"/><path fill="#E1CD80" d="M583.396 129.382l.646-1.115.644 1.115z"/><path fill="#F1D370" d="M585.329 128.267l-.643 1.115-.644-1.115z"/><path fill="#F0CD5A" d="M584.686 129.382l.643-1.115.645 1.115z"/><path fill="#F0C741" d="M586.617 128.267l-.643 1.115-.645-1.115z"/><path fill="#F0C226" d="M585.974 129.382l.643-1.115.645 1.115z"/><path fill="#ECBB0A" d="M587.905 128.267l-.643 1.115-.645-1.115z"/><path fill="#E4B30D" d="M587.262 129.382l.643-1.115.646 1.115z"/><path fill="#E0B237" d="M589.194 128.267l-.643 1.115-.646-1.115z"/><path fill="#E2BC61" d="M588.551 129.382l.643-1.115.645 1.115z"/><path fill="#EAC974" d="M573.091 129.382l-.644 1.116-.644-1.116z"/><path fill="#EAB90C" d="M572.447 130.498l.644-1.116.643 1.116z"/><path fill="#EFC11A" d="M574.379 129.382l-.645 1.116-.643-1.116z"/><path fill="#F0C63C" d="M573.734 130.498l.645-1.116.644 1.116z"/><path fill="#F0CB50" d="M575.667 129.382l-.644 1.116-.644-1.116z"/><path fill="#EAC163" d="M575.023 130.498l.644-1.116.645 1.116z"/><path fill="#CE8044" d="M576.956 129.382l-.644 1.116-.645-1.116z"/><path fill="#B34A26" d="M576.312 130.498l.644-1.116.644 1.116z"/><path fill="#A83E1D" d="M578.244 129.382l-.644 1.116-.644-1.116z"/><path fill="#8C502F" d="M577.6 130.498l.644-1.116.645 1.116z"/><path fill="#327A74" d="M579.532 129.382l-.643 1.116-.645-1.116z"/><path fill="#2C7670" d="M578.889 130.498l.643-1.116.644 1.116z"/><path fill="#22736C" d="M580.82 129.382l-.644 1.116-.644-1.116z"/><path fill="#196F68" d="M580.176 130.498l.644-1.116.645 1.116z"/><path fill="#096C64" d="M582.108 129.382l-.643 1.116-.645-1.116z"/><path fill="#00675E" d="M581.465 130.498l.643-1.116.645 1.116z"/><path fill="#99A077" d="M583.396 129.382l-.643 1.116-.645-1.116z"/><path fill="#E5D288" d="M582.753 130.498l.643-1.116.646 1.116z"/><path fill="#F1D577" d="M584.686 129.382l-.644 1.116-.646-1.116z"/><path fill="#F2D268" d="M584.042 130.498l.644-1.116.643 1.116z"/><path fill="#F0CB50" d="M585.974 129.382l-.645 1.116-.643-1.116z"/><path fill="#F0C63A" d="M585.329 130.498l.645-1.116.643 1.116z"/><path fill="#EFBF18" d="M587.262 129.382l-.645 1.116-.643-1.116z"/><path fill="#EAB90C" d="M586.617 130.498l.645-1.116.643 1.116z"/><path fill="#EBCB78" d="M588.551 129.382l-.646 1.116-.643-1.116z"/><path fill="#EEBF22" d="M573.091 131.613l.643-1.115.645 1.115z"/><path fill="#EFC127" d="M575.023 130.498l-.644 1.115-.645-1.115z"/><path fill="#EFC643" d="M574.379 131.613l.644-1.115.644 1.115z"/><path fill="#C9A74D" d="M576.312 130.498l-.645 1.115-.644-1.115z"/><path fill="#DFB35A" d="M575.667 131.613l.645-1.115.644 1.115z"/><path fill="#AB6A36" d="M577.6 130.498l-.644 1.115-.644-1.115z"/><path fill="#A5401E" d="M576.956 131.613l.644-1.115.644 1.115z"/><path fill="#6B755F" d="M578.889 130.498l-.645 1.115-.644-1.115z"/><path fill="#357872" d="M578.244 131.613l.645-1.115.643 1.115z"/><path fill="#577565" d="M580.176 130.498l-.644 1.115-.643-1.115z"/><path fill="#27716A" d="M579.532 131.613l.644-1.115.644 1.115z"/><path fill="#507060" d="M581.465 130.498l-.645 1.115-.644-1.115z"/><path fill="#196A62" d="M580.82 131.613l.645-1.115.643 1.115z"/><path fill="#908F68" d="M582.753 130.498l-.645 1.115-.643-1.115z"/><path fill="#E1CD83" d="M582.108 131.613l.645-1.115.643 1.115z"/><path fill="#CAAF63" d="M584.042 130.498l-.646 1.115-.643-1.115z"/><path fill="#E9CA69" d="M583.396 131.613l.646-1.115.644 1.115z"/><path fill="#D4B14B" d="M585.329 130.498l-.643 1.115-.644-1.115z"/><path fill="#F0C741" d="M584.686 131.613l.643-1.115.645 1.115z"/><path fill="#EFC127" d="M586.617 130.498l-.643 1.115-.645-1.115z"/><path fill="#EEBF24" d="M585.974 131.613l.643-1.115.645 1.115z"/><path fill="#F2D279" d="M573.734 132.729l.645-1.116.644 1.116z"/><path fill="#F0C84B" d="M575.667 131.613l-.644 1.116-.644-1.116z"/><path fill="#F0C73F" d="M575.023 132.729l.644-1.116.645 1.116z"/><path fill="#F0C846" d="M576.956 131.613l-.644 1.116-.645-1.116z"/><path fill="#F0CF61" d="M576.312 132.729l.644-1.116.644 1.116z"/><path fill="#F1D063" d="M578.244 131.613l-.644 1.116-.644-1.116z"/><path fill="#F1D678" d="M577.6 132.729l.644-1.116.645 1.116z"/><path fill="#F1D576" d="M579.532 131.613l-.643 1.116-.645-1.116z"/><path fill="#F2DA85" d="M578.889 132.729l.643-1.116.644 1.116z"/><path fill="#F1D67B" d="M580.82 131.613l-.644 1.116-.644-1.116z"/><path fill="#F2DA85" d="M580.176 132.729l.644-1.116.645 1.116z"/><path fill="#F1D576" d="M582.108 131.613l-.643 1.116-.645-1.116z"/><path fill="#F1D578" d="M581.465 132.729l.643-1.116.645 1.116z"/><path fill="#F0CF62" d="M583.396 131.613l-.643 1.116-.645-1.116z"/><path fill="#F0CF61" d="M582.753 132.729l.643-1.116.646 1.116z"/><path fill="#F0C846" d="M584.686 131.613l-.644 1.116-.646-1.116z"/><path fill="#EFC63E" d="M584.042 132.729l.644-1.116.643 1.116z"/><path fill="#F0C84D" d="M585.974 131.613l-.645 1.116-.643-1.116z"/><path fill="#F3D47D" d="M585.329 132.729l.645-1.116.643 1.116z"/><path fill="#F3D991" d="M576.312 132.729l-.645 1.116-.644-1.116z"/><path fill="#F0C42E" d="M575.667 133.845l.645-1.116.644 1.116z"/><path fill="#F0C432" d="M577.6 132.729l-.644 1.116-.644-1.116z"/><path fill="#F0C94B" d="M576.956 133.845l.644-1.116.644 1.116z"/><path fill="#F0C847" d="M578.889 132.729l-.645 1.116-.644-1.116z"/><path fill="#F0CD5B" d="M578.244 133.845l.645-1.116.643 1.116z"/><path fill="#F0CC54" d="M580.176 132.729l-.644 1.116-.643-1.116z"/><path fill="#F0CF62" d="M579.532 133.845l.644-1.116.644 1.116z"/><path fill="#F0CC54" d="M581.465 132.729l-.645 1.116-.644-1.116z"/><path fill="#F0CD5B" d="M580.82 133.845l.645-1.116.643 1.116z"/><path fill="#F0C847" d="M582.753 132.729l-.645 1.116-.643-1.116z"/><path fill="#F0C94B" d="M582.108 133.845l.645-1.116.643 1.116z"/><path fill="#F0C42F" d="M584.042 132.729l-.646 1.116-.643-1.116z"/><path fill="#F0C32C" d="M583.396 133.845l.646-1.116.644 1.116z"/><path fill="#F2DA96" d="M585.329 132.729l-.643 1.116-.644-1.116z"/><path fill="#F0C233" d="M576.312 134.96l.644-1.115.644 1.115z"/><path fill="#EEBF20" d="M578.244 133.845l-.644 1.115-.644-1.115z"/><path fill="#F0C329" d="M577.6 134.96l.644-1.115.645 1.115z"/><path fill="#EFC122" d="M579.532 133.845l-.643 1.115-.645-1.115z"/><path fill="#F0C435" d="M578.889 134.96l.643-1.115.644 1.115z"/><path fill="#F0C226" d="M580.82 133.845l-.644 1.115-.644-1.115z"/><path fill="#F0C435" d="M580.176 134.96l.644-1.115.645 1.115z"/><path fill="#EFC120" d="M582.108 133.845l-.643 1.115-.645-1.115z"/><path fill="#F0C22A" d="M581.465 134.96l.643-1.115.645 1.115z"/><path fill="#EEBF22" d="M583.396 133.845l-.643 1.115-.645-1.115z"/><path fill="#F0C337" d="M582.753 134.96l.643-1.115.646 1.115z"/><path fill="#F0D58E" d="M576.956 136.076l.644-1.116.644 1.116z"/><path fill="#E9C153" d="M578.889 134.96l-.645 1.116-.644-1.116z"/><path fill="#E9B90D" d="M578.244 136.076l.645-1.116.643 1.116z"/><path fill="#E6B30C" d="M580.176 134.96l-.644 1.116-.643-1.116z"/><path fill="#EABA0C" d="M579.532 136.076l.644-1.116.644 1.116z"/><path fill="#E6B30C" d="M581.465 134.96l-.645 1.116-.644-1.116z"/><path fill="#E9B90D" d="M580.82 136.076l.645-1.116.643 1.116z"/><path fill="#EAC258" d="M582.753 134.96l-.645 1.116-.643-1.116z"/><path fill="#F0D693" d="M582.108 136.076l.645-1.116.643 1.116z"/><path fill="#DDAB13" d="M578.889 137.191l.643-1.115.644 1.115z"/><path fill="#DAA815" d="M580.82 136.076l-.644 1.115-.644-1.115z"/><path fill="#DDAB13" d="M580.176 137.191l.644-1.115.645 1.115z"/><path fill="#DEBA64" d="M579.532 138.307l.644-1.116.644 1.116z"/><g fill="#fff"><path d="M574.711 128.288c0 .102.083.185.185.185s.185-.083.185-.185v-.461h-.185v-.369h.554v.831c0 .307-.247.554-.554.554s-.554-.248-.554-.554h.369zM576.205 127.438c.388 0 .702.314.702.702s-.314.702-.702.702-.701-.314-.701-.702.313-.702.701-.702zm-.002 1.035c.183 0 .332-.15.332-.331 0-.183-.149-.333-.332-.333-.181 0-.33.149-.33.333 0 .181.149.331.33.331zM576.961 127.457h.6c.307 0 .555.248.555.554 0 .226-.135.412-.314.499l.314.314h-.52l-.266-.266v.266h-.369v-1.367zm.6.738c.102 0 .186-.083.186-.185s-.084-.185-.186-.185h-.23v.369h.23zM578.835 127.457h.562v.369h-.562c-.172 0-.313.142-.313.314s.142.314.313.314h.192v-.499h.369v.868h-.562c-.377 0-.685-.307-.685-.683s.309-.683.686-.683zM579.478 127.457h.923v.369h-.554v.129h.462v.369h-.462v.129h.554v.369h-.923v-1.365z"/></g><g fill="#fff"><path d="M581.425 127.42l.724 1.403h-1.447l.723-1.403zm.118 1.034l-.118-.231-.12.231h.238zM582.369 127.826h-.277v-.369h.923v.369h-.276v.997h-.369v-.997zM583.754 127.457h.562v.369h-.562c-.172 0-.313.142-.313.314s.142.314.313.314h.192v-.499h.369v.868h-.562c-.377 0-.685-.307-.685-.683s.309-.683.686-.683zM584.396 127.457h.369v.785c0 .127.104.231.23.231.128 0 .231-.104.231-.231v-.785h.369v.785c0 .333-.268.6-.601.6-.332 0-.6-.268-.6-.6v-.785z"/></g><path stroke="#BDC3C7" stroke-width="3" stroke-miterlimit="10" fill="none" d="M557 113.5h14"/><path stroke="#BDC3C7" stroke-width="2" stroke-miterlimit="10" fill="none" d="M575 143h12"/><path stroke="#fff" stroke-miterlimit="10" fill="none" d="M568 167.5h23M568 169.5h23M568 171.5h23M568 192.5h23M568 194.5h23"/><path stroke="#BDC3C7" stroke-width="2" stroke-miterlimit="10" fill="none" d="M564 145h31"/><g><circle fill="#E5007D" cx="588.331" cy="113.572" r="1.811"/><path fill="#fff" d="M589.322 113.333s-.406-1.134-1.001-.134c-.056 0-.939-.333-.939-.333s.567 1.001.601 1.034c.04.232-.929.15-.929.15s.79.606 1.562.406c.378 0 .828-.901.828-.901l.256-.095-.378-.127z"/><circle fill="#E5007D" cx="592.536" cy="113.642" r="1.811"/><path fill="#fff" d="M592.208 114.895v-1.21h-.227v-.468h.203v-.531s.049-.274.351-.258h.555v.484h-.343v.305h.343v.445h-.327v1.233h-.555z"/><circle fill="#E5007D" cx="596.864" cy="113.661" r="1.812"/><g fill="#fff"><path d="M595.54 112.823h.376v1.643h-.376zM595.902 112.823h.492v.292h-.492zM595.902 114.173h.492v.292h-.492zM595.902 113.481h.492v.253h-.492zM596.395 114.465s.521.017.521-.485c0 0 .023-.408-.308-.408 0 0 .251-.019.251-.313s-.205-.437-.465-.437l-.246.146.185.146h.062s.116 0 .116.171-.068.196-.146.196c-.078 0-.107.127-.107.127l.137.126s.174-.002.174.225c0 .228-.183.214-.229.214l-.032.117.087.175zM597.612 113.241c-.632 0-.631.631-.631.631s-.044.628.631.628c0 0 .562.032.562-.437h-.289s.01.177-.264.177c0 0-.289.019-.289-.286h.851c.002 0 .094-.713-.571-.713zm-.282.493s.035-.253.289-.253l.25.253h-.539zM597.26 112.919h.677v.203h-.677z"/></g><circle fill="#E5007D" cx="601.07" cy="113.661" r="1.812"/><g stroke="#fff" stroke-width=".2" stroke-miterlimit="10" fill="none"><circle cx="601.092" cy="113.673" r="1.195"/><path d="M601.668 114.719c-.134-1.073-1.107-2.115-1.107-2.115M599.914 113.481c1.369.285 1.908-.754 1.908-.754M600.199 114.465c.691-1.103 2.087-.743 2.087-.743"/></g></g><g><linearGradient id="g" gradientUnits="userSpaceOnUse" x1="438.676" y1="181.575" x2="464.028" y2="181.575"><stop offset="0" stop-color="#EF7B5A"/><stop offset=".5" stop-color="#E30613"/><stop offset="1" stop-color="#CB181A"/></linearGradient><path fill="url(#g)" d="M438.676 166.719h25.353v29.713h-25.353z"/><text transform="matrix(.926 0 0 1 446.18 192.295)" font-family="'LucidaSans-Italic'" font-size="28.747">I</text><path fill="#fff" d="M445.078 177.577h12.865c.758 0 1.476.185 2.014.535.539.331.897.773 1.098 1.159.438.811.418 1.456.418 1.566v5.25h-19.924v-5.25c0-.7.199-1.345.559-1.842.379-.516.857-.829 1.276-1.032.877-.386 1.575-.386 1.694-.386zm5.645 2.561h-5.683999999999999l-.24.056c-.199.055-.318.129-.378.221-.04.056-.101.147-.101.424v2.689h14.381v-2.727l-.061-.221c-.06-.185-.14-.295-.219-.35-.08-.037-.18-.093-.479-.093-1.056.001-4.267.001-7.219.001z"/><g fill="#fff"><path d="M446.582 174.087h1.118v.791h-1.118v1.622h1.407v.791h-2.223v-5.537h2.223v.791h-1.407v1.542zM449.59 171.69c.793 0 1.2.506 1.2 1.392v.175h-.771v-.229c0-.396-.148-.546-.407-.546-.26 0-.407.15-.407.546 0 1.139 1.593 1.353 1.593 2.935 0 .886-.415 1.393-1.216 1.393-.8 0-1.215-.507-1.215-1.393v-.341h.771v.396c0 .396.163.538.423.538.259 0 .422-.142.422-.538 0-1.139-1.593-1.353-1.593-2.935 0-.887.407-1.393 1.2-1.393z"/></g><g fill="#fff"><path d="M454.299 188.847h1.146v1.772c0 .895-.417 1.405-1.221 1.405-.805 0-1.222-.511-1.222-1.405v-2.905c0-.895.417-1.405 1.222-1.405.804 0 1.221.511 1.221 1.405v.542h-.774v-.599c0-.399-.164-.551-.425-.551-.26 0-.424.151-.424.551v3.018c0 .399.164.543.424.543.261 0 .425-.144.425-.543v-1.029h-.372v-.799zM456.704 187.913v4.047h-.737v-5.588h1.027l.842 3.345v-3.345h.73v5.588h-.842l-1.02-4.047z"/></g><linearGradient id="h" gradientUnits="userSpaceOnUse" x1="572.076" y1="156.759" x2="586.275" y2="156.759"><stop offset="0" stop-color="#EF7B5A"/><stop offset=".5" stop-color="#E30613"/><stop offset="1" stop-color="#CB181A"/></linearGradient><path fill="url(#h)" d="M572.076 148.438h14.199v16.642h-14.199z"/><text transform="matrix(.926 0 0 1 576.279 162.764)" font-family="'LucidaSans-Italic'" font-size="16.1">I</text><path fill="#fff" d="M575.662 154.52h7.205c.425 0 .827.104 1.129.3.301.185.502.433.614.649.245.454.233.815.233.877v2.94h-11.159v-2.9400000000000004c0-.392.111-.753.312-1.031.212-.289.48-.465.715-.579.493-.216.885-.216.951-.216zm3.162 1.434h-3.1839999999999997l-.135.031c-.111.03-.178.072-.211.124-.022.031-.057.083-.057.237v1.506h8.055v-1.527l-.034-.124c-.033-.103-.078-.165-.122-.196-.045-.021-.101-.052-.269-.052l-4.043.001z"/><g fill="#fff"><path d="M576.504 152.565h.627v.443h-.627v.908h.788v.443h-1.244v-3.102h1.244v.443h-.788v.865zM578.188 151.223c.445 0 .673.283.673.779v.098h-.432v-.128c0-.221-.083-.306-.228-.306-.146 0-.229.084-.229.306 0 .638.892.757.892 1.644 0 .496-.231.78-.682.78-.447 0-.68-.284-.68-.78v-.19h.432v.221c0 .222.091.302.237.302.145 0 .236-.08.236-.302 0-.637-.892-.757-.892-1.643.003-.498.229-.781.673-.781z"/></g><g fill="#fff"><path d="M580.826 160.832h.642v.993c0 .501-.233.788-.683.788-.451 0-.685-.287-.685-.788v-1.627c0-.501.233-.787.685-.787.449 0 .683.286.683.787v.304h-.434v-.335c0-.224-.092-.309-.237-.309s-.237.084-.237.309v1.69c0 .224.092.304.237.304s.237-.08.237-.304v-.576h-.208v-.449zM582.173 160.309v2.267h-.413v-3.129h.576l.472 1.873v-1.873h.408v3.129h-.472l-.571-2.267z"/></g></g><g><path fill="#3498DB" d="M571.961 174.423h14.637v17.153h-14.637z"/><g fill="#F1C40F"><path d="M575.377 188.048v-7.904h.637v5.96l.359-.458.357.458v-5.96h.637v7.904l-.994-1.272-.996 1.272zM578.842 178.048v.122h.617v1.135h-.617v7.62h1.762v1.123h-2.805v-11.124h2.805v1.124h-1.762zM580.916 180.144h.996c.023 0 .143 0 .311.063.16.063.383.205.533.498.096.189.152.442.152.728 0 .284-.057.537-.152.727l-.104.158.145.276c.111.316.111.585.111.617v3.549c0 .284-.057.537-.152.727-.104.198-.23.324-.357.403-.248.158-.455.158-.486.158h-.996v-7.904zm1.02 1.77l.096-.023c.08-.031.145-.079.184-.158.031-.063.057-.143.057-.3 0-.15-.025-.229-.049-.285l-.104-.126c-.072-.056-.184-.079-.207-.079h-.357v.979h.357l.023-.008zm-.024 5.336l.023-.009.096-.023c.08-.031.145-.079.184-.158.031-.055.057-.142.057-.3v-3.589l-.025-.134c-.023-.104-.062-.198-.127-.253-.039-.032-.096-.063-.207-.063h-.357v4.529h.356z"/></g><g fill="#F1C40F"><path d="M576.109 178.362c0 .672-.129 1.04-.281 1.24-.148.194-.305.209-.33.209h-.12100000000000001v-2.899h.117c.018 0 .182.009.334.209s.281.568.281 1.241zm-.234 0c0-.592-.105-.876-.195-1.012l-.068-.079v2.181l.047-.053c.097-.124.216-.408.216-1.037zM576.166 176.912h.215v2.899h-.215v-2.899zM577.01 178.298c.258.67.264 1.018.264 1.041l-.018.146c-.018.075-.057.177-.141.249-.053.049-.127.078-.209.078h-.002c-.082 0-.156-.029-.211-.078-.057-.047-.092-.11-.111-.168l-.045-.227h.234v.015l.01.049.047.09.076.026.076-.023.031-.049.023-.107v-.006l-.002-.037-.023-.166c-.029-.153-.088-.388-.211-.704-.256-.67-.262-1.018-.262-1.041l.018-.145c.018-.075.057-.177.139-.25.055-.049.129-.078.211-.078s.158.029.211.078c.055.047.094.11.113.169l.045.226h-.238v-.015l-.008-.049-.045-.09-.078-.026-.074.023-.035.049-.023.107v.006l.004.038.025.165c.029.153.088.388.209.704z"/></g><g fill="#F1C40F"><path d="M581.652 177.159v2.652h-.234v-2.232l-.264-.174v2.406h-.234v-2.899l.498.331v-.084h.234zM581.955 179.733c-.057-.047-.092-.11-.111-.168l-.045-.227v-1.954l.018-.145c.018-.075.057-.177.139-.25.055-.049.129-.078.211-.078s.154.029.211.078l.113.169.041.226v1.954l-.018.146c-.018.075-.053.177-.137.249-.057.049-.127.078-.209.078h-.002c-.082.001-.156-.029-.211-.078zm.078-.379l.01.049.047.09.076.026.072-.023.035-.049.023-.107v-1.9689999999999999l-.008-.049-.047-.09-.076-.026-.074.023-.035.049-.023.107v1.9689999999999999z"/></g><path fill="#F1C40F" d="M581.707 176.598l-.11.132-.162.056-.146-.044-.145-.044-.1.097-.151-.114c.073-.121.159-.182.257-.182l.158.044.14.044.112-.104.147.115z"/></g></g></svg>